<svg width="239" height="181" viewBox="0 0 239 181" fill="none" xmlns="http://www.w3.org/2000/svg">
<path d="M66.2169 148.637C68.9081 147.833 71.4972 147.055 74.2266 146.238C74.0608 146.596 73.9588 146.825 73.8568 147.055C72.9512 148.918 72.0201 150.768 71.1528 152.643C69.8901 155.386 69.1504 158.283 68.9081 161.294C68.7422 163.348 69.0228 165.313 70.0304 167.15C71.1273 169.14 72.7599 170.378 75.0301 170.671C76.9688 170.927 78.9202 171.118 80.8716 171.322C85.1061 171.756 89.3533 171.705 93.5877 171.973C96.0365 172.126 98.4599 172.419 100.909 172.534C102.924 172.636 104.939 172.649 106.954 172.585C109.072 172.509 111.201 172.483 113.28 171.986C113.803 171.858 114.237 172.062 114.683 172.253C117.693 173.517 120.805 174.512 123.969 175.328C128.075 176.387 132.233 177.166 136.468 177.599C140.281 177.995 144.082 177.957 147.896 177.778C150.447 177.663 152.985 177.268 155.523 176.936C162.767 176.004 169.833 174.269 176.925 172.598C177.511 172.458 178.073 172.253 178.646 172.1C181.376 171.411 183.825 170.199 186.057 168.464C188.161 166.831 190.419 165.389 192.37 163.539C192.523 163.399 192.715 163.297 192.982 163.105C193.314 163.463 193.646 163.807 193.964 164.152C196.158 166.576 198.339 169.013 200.558 171.411C201.668 172.623 202.969 173.606 204.334 174.524C205.737 175.469 207.114 176.438 208.453 177.459C211.081 179.488 214.104 180.432 217.318 180.929C217.534 180.968 217.751 181.019 217.968 180.993C219.932 180.763 221.807 180.266 223.491 179.169C224.97 178.199 225.825 176.757 226.45 175.162C227.164 173.363 227.368 171.462 227.508 169.561C227.763 166.04 227.279 162.608 226.195 159.252C225.557 157.288 224.958 155.31 224.32 153.332C224.103 152.656 223.899 151.98 223.631 151.329C221.884 146.991 220.111 142.653 218.376 138.315C217.611 136.402 216.884 134.462 216.144 132.523C216.106 132.434 216.144 132.319 216.144 132.204C216.234 132.153 216.323 132.064 216.412 132.038C219.524 131.324 222.279 129.754 225.098 128.364C225.736 128.057 226.335 127.687 226.985 127.381C230.008 125.99 232.521 123.924 234.804 121.563C236.819 119.484 238.222 117.059 238.783 114.189C238.898 113.602 238.962 113.002 238.975 112.402C239.026 109.953 239.038 107.478 238.63 105.066C237.954 101.137 236.985 97.2834 234.931 93.8003C233.477 91.3251 231.488 89.3093 229.179 87.6251C228.49 87.1148 227.661 86.7958 226.718 86.311C226.501 85.571 226.182 84.6396 225.965 83.6955C225.047 79.4468 223.427 75.4789 221.323 71.7023C219.741 68.8444 218.032 66.063 216.272 63.3071C214.894 61.1509 213.236 59.186 211.527 57.2722C209.716 55.2308 207.943 53.1639 206.183 51.0843C204.882 49.5405 203.505 48.0732 202.051 46.6825C200.367 45.0622 198.696 43.4035 197.128 41.6811C195.087 39.4483 192.753 37.5983 190.176 36.0418C188.404 34.9701 186.631 33.9111 184.858 32.8394C183.366 31.9335 181.784 31.2062 180.139 30.6449C178.595 30.1218 177.052 29.5859 175.522 29.0117C172.346 27.8252 169.042 27.1873 165.688 26.779C164.719 26.6642 163.749 26.4855 162.78 26.3962C161.428 26.2814 160.063 26.1155 158.711 26.141C152.653 26.2431 146.659 26.9193 140.779 28.4121C137.029 29.3562 133.369 30.5683 129.976 32.4821C128.981 33.0435 127.935 33.5028 126.889 33.9494C124.173 35.1104 121.635 36.5649 119.237 38.3001C116.762 40.0863 114.275 41.8597 111.788 43.6204C108.217 46.1467 105.016 49.0939 101.865 52.1177C100.054 53.8529 98.2941 55.6264 96.5595 57.4381C95.4626 58.5736 94.4678 59.7984 93.4347 60.9978C93.1158 61.3678 92.8097 61.725 92.4526 62.146C92.121 61.9929 91.8149 61.8909 91.547 61.7378C89.0599 60.2705 86.6238 58.714 84.6087 56.6088C82.7593 54.6822 81.3435 52.4877 80.9354 49.8212C80.6038 47.7287 80.3359 45.598 80.3615 43.4801C80.387 40.9921 81.3308 38.6956 82.5169 36.5266C82.6827 36.2332 83.0654 36.0163 83.397 35.8504C84.073 35.5059 84.7872 35.238 85.4887 34.9318C86.9172 34.3194 88.1671 33.4518 89.1109 32.2142C90.9986 29.7262 92.5419 27.0469 93.3454 23.9848C93.728 22.5048 93.9321 20.9993 93.8683 19.4555C93.7663 17.0569 92.7842 15.1813 90.7307 13.8672C88.1799 12.2341 85.5015 11.5068 82.5042 12.3489C82.3511 12.3872 82.1853 12.3489 81.9557 12.3489C81.6879 11.7748 81.5986 11.1241 81.4456 10.4989C80.8589 8.08752 79.9533 5.82923 78.2825 3.9537C76.8795 2.37163 75.196 1.22334 73.219 0.483342C71.561 -0.141834 69.9284 -0.18011 68.2831 0.483342C67.4285 0.827826 66.574 1.18507 65.745 1.60611C63.5895 2.71611 62.1865 4.46405 61.5743 6.78613C61.2554 7.98545 61.0896 9.2358 60.8728 10.4734C60.7963 10.8944 60.7835 11.3282 60.7198 11.8896C60.3626 11.7365 60.0565 11.6472 59.8014 11.4813C57.0593 9.68235 52.608 10.8179 51.0264 14.4286C50.3122 16.0744 50.1337 17.7969 50.2612 19.5448C50.325 20.5783 50.5418 21.5862 50.6948 22.6197C50.7459 22.9386 50.7969 23.2576 50.8606 23.6914C50.4142 23.7297 50.0061 23.7807 49.5852 23.8062C47.9271 23.9083 46.7027 24.6993 45.8354 26.09C45.1339 27.2128 44.7513 28.4759 44.5855 29.7773C44.3559 31.6145 44.3687 33.4645 44.7513 35.3018C45.1595 37.2283 46.065 38.8615 47.4042 40.2777C48.9985 41.9618 50.8989 43.2249 53.0544 44.0798C55.7838 45.177 58.5515 46.1339 61.5233 46.3763C61.5743 46.3763 61.6253 46.3891 61.6891 46.4018C63.3599 46.6953 63.7425 46.9377 64.5843 48.456C64.9542 49.1194 65.222 49.8339 65.4644 50.5484C65.796 51.5308 66.0766 52.526 66.3444 53.5212C67.7346 58.7012 70.3365 63.2816 73.4613 67.5812C74.52 69.0357 75.6551 70.4264 76.8158 71.8044C78.0146 73.2461 79.4687 74.3689 81.1905 75.1471C82.1726 75.5937 83.1037 76.1551 84.0985 76.6909C83.9837 77.0864 83.9072 77.3927 83.8179 77.6989C82.8996 80.6589 81.994 83.6317 81.0629 86.5789C80.7823 87.4465 80.438 88.3013 80.1319 89.1306C79.8768 89.1562 79.711 89.2327 79.5707 89.1944C77.6958 88.7479 75.7826 88.8244 73.8822 88.7224C71.3696 88.5948 69.2014 89.59 67.2755 91.121C64.8522 93.0476 62.9645 95.4334 61.6126 98.2148C59.4826 102.629 57.6077 107.146 56.2557 111.879C54.7125 117.264 53.0034 122.609 51.3581 127.968C51.3071 128.121 51.2305 128.262 51.1795 128.364C49.6872 128.81 48.2333 129.231 46.792 129.678C44.9809 130.239 43.157 130.8 41.3586 131.4C39.4583 132.038 37.5196 132.612 35.683 133.416C32.099 134.973 30.1348 137.831 29.4716 141.633C29.3568 142.334 29.2675 143.036 29.2165 143.738C29.1272 144.95 29.242 146.136 29.7139 147.259C29.7905 147.451 29.8287 147.667 29.8925 147.923C29.293 148.203 28.6936 148.076 28.1196 148.14C27.584 148.203 27.0355 148.254 26.4871 148.28C25.7856 148.318 25.0714 148.318 24.3699 148.382C23.0689 148.497 21.768 148.573 20.4798 148.79C18.3371 149.147 16.2071 149.594 14.0771 150.002C13.7072 150.079 13.3246 150.13 12.9675 150.257C10.965 150.946 8.92435 151.559 6.98567 152.401C4.30727 153.562 2.50891 155.629 1.48856 158.359C0.965622 159.737 0.646774 161.179 0.493713 162.646C0.276901 164.917 0.149338 167.214 0.00904846 169.498C-0.0164642 169.982 0.00904846 170.48 0.123825 170.952C0.353409 171.986 1.24622 172.713 2.27933 172.547C5.63371 171.973 9.01361 172.304 12.3808 172.19C19.0258 171.96 25.6581 171.807 32.3031 171.641C35.0197 171.577 37.7492 171.564 40.4786 171.513C45.8099 171.411 51.154 171.297 56.4853 171.169C57.85 171.143 59.202 171.092 60.5667 171.003C62.3523 170.888 63.7298 169.383 63.8446 167.584C64.0231 164.432 64.1507 161.268 64.5206 158.142C64.8394 155.45 65.4516 152.784 65.949 150.104C66.0383 149.62 66.1404 149.147 66.2551 148.573L66.2169 148.637ZM166.415 31.0914C167.002 33.4518 167.078 33.7325 168.06 34.868C168.583 35.4804 169.195 36.0418 169.82 36.5521C170.407 37.037 171.058 37.4325 171.683 37.8663C173.94 39.4228 175.598 41.4515 176.657 43.9904C177.652 46.3763 178.238 48.8387 178.277 51.4415C178.302 53.1767 178.43 54.9246 178.583 56.6598C178.876 59.9771 180.738 62.2864 183.468 63.9705C184.258 64.4681 185.151 64.6723 186.108 64.7361C187.077 64.8126 188.059 64.9657 188.99 65.2336C190.189 65.5909 191.337 66.1012 192.51 66.5223C193.952 67.0454 195.049 67.964 195.814 69.3037C196.031 69.6864 196.298 70.0309 196.528 70.4009C197.982 72.7357 200.176 73.9478 202.778 74.4454C205.099 74.892 207.191 74.3433 208.989 72.7357C210.685 71.2175 211.999 69.444 212.764 67.2878C212.892 66.9433 213.045 66.6116 213.249 66.1523C213.861 66.8285 214.18 67.5174 214.55 68.1554C215.124 69.1378 215.66 70.1585 216.297 71.1026C218.019 73.7054 219.346 76.5123 220.481 79.3958C221.425 81.8199 222.152 84.3461 222.981 86.8213C223.044 87.0255 223.134 87.2551 223.121 87.4593C223.095 87.6762 222.968 87.8931 222.866 88.161C222.152 87.6251 221.552 87.1531 220.927 86.7193C219.32 85.5837 217.611 84.6396 215.66 84.2058C213.759 83.7848 211.884 83.8358 210.073 84.6396C208.224 85.4562 207.178 86.8724 206.948 88.8882C206.783 90.2534 206.91 91.6058 207.178 92.9455C207.79 95.8928 208.913 98.6741 210.086 101.417C210.711 102.872 211.323 104.326 211.923 105.781C212.025 106.036 212.05 106.329 212.178 106.903C211.476 106.138 211.03 105.589 210.52 105.105C209.384 104.007 208.262 102.897 207.05 101.889C204.716 99.9755 202 99.21 198.99 99.3759C196.337 99.529 194.283 100.626 193.084 103.076C192.498 104.275 192.294 105.577 192.383 106.891C192.498 108.69 192.689 110.476 193.25 112.198C193.339 112.492 193.403 112.798 193.467 113.079C193.327 113.142 193.276 113.194 193.237 113.194C192.919 113.117 192.6 113.04 192.294 112.938C190.087 112.288 187.855 111.828 185.547 112.109C183.94 112.3 182.435 112.824 181.287 113.972C180.33 114.929 179.463 116 178.697 117.11C178.022 118.067 177.856 119.19 178.098 120.389C178.468 122.176 179.106 123.821 180.1 125.353C181.529 127.56 183.455 129.206 185.725 130.469C187.728 131.579 189.807 132.523 191.937 133.352C192.6 133.607 193.25 133.888 193.913 134.131C194.424 134.309 194.691 134.692 194.857 135.177C194.921 135.381 194.985 135.598 195.061 135.802C197.191 141.684 199.321 147.565 201.464 153.447C202.191 155.438 202.956 157.428 203.683 159.418C204.385 161.306 205.048 163.208 205.749 165.096C206.094 166.027 206.961 166.538 207.79 166.346C208.657 166.142 209.282 165.351 209.257 164.432C209.257 164.113 209.18 163.782 209.091 163.475C208.122 160.413 207.318 157.313 206.132 154.315C205.035 151.533 204.028 148.714 203.007 145.894C201.426 141.543 199.857 137.193 198.314 132.842C197.995 131.949 197.472 131.336 196.617 130.979C195.469 130.494 194.296 130.035 193.161 129.525C191.286 128.67 189.386 127.84 187.549 126.896C185.725 125.952 184.233 124.587 183.238 122.775C182.792 121.971 182.486 121.091 182.205 120.211C182.09 119.879 182.077 119.381 182.256 119.114C183.149 117.736 184.131 116.383 185.942 116.141C186.631 116.051 187.358 116.039 188.059 116.141C189.947 116.409 191.796 116.906 193.48 117.838C195.763 119.101 198.046 120.364 200.329 121.64C200.66 121.818 200.979 122.061 201.324 122.188C202.331 122.558 203.39 122.163 203.862 121.295C204.308 120.491 204.091 119.471 203.313 118.795C202.982 118.514 202.599 118.297 202.255 118.029C199.78 116.115 197.906 113.78 197.025 110.718C196.579 109.136 196.401 107.516 196.503 105.87C196.592 104.454 197.357 103.739 198.773 103.573C201.107 103.293 203.199 103.816 204.984 105.411C205.227 105.628 205.494 105.832 205.724 106.049C208.045 108.281 210.239 110.629 211.846 113.449C212.139 113.972 212.484 114.469 212.866 114.916C213.313 115.439 213.938 115.669 214.626 115.567C215.609 115.414 216.642 114.367 216.782 113.359C217.19 110.565 217.126 107.822 216.029 105.168C215.149 103.05 214.257 100.958 213.377 98.84C212.407 96.5307 211.489 94.1958 211.068 91.7079C210.94 90.9679 210.94 90.1896 210.94 89.4369C210.94 88.901 211.272 88.5055 211.77 88.3269C212.586 88.0206 213.428 87.8293 214.32 88.0462C215.277 88.2758 216.208 88.582 217.063 89.0796C219.205 90.3172 221.08 91.861 222.572 93.8641C224.358 96.2627 225.646 98.8783 226.284 101.787C226.82 104.237 227.151 106.712 226.781 109.238C226.552 110.782 227.929 111.905 229.371 111.395C230.008 111.165 230.48 110.718 230.786 110.106C231.092 109.506 231.143 108.856 231.105 108.192C231.029 107.21 230.901 106.24 230.863 105.258C230.671 100.728 229.217 96.6328 226.781 92.8434C226.552 92.4734 226.284 92.1289 226.105 91.7334C225.952 91.4017 225.85 90.9934 226.322 90.7255C226.463 90.7765 226.628 90.8148 226.743 90.9041C228.822 92.4479 230.582 94.2724 231.819 96.569C233.171 99.0952 233.847 101.851 234.434 104.62C234.97 107.133 234.957 109.71 234.944 112.262C234.944 114.291 234.153 116.102 232.891 117.659C231.029 119.968 228.848 121.933 226.195 123.298C223.733 124.574 221.22 125.761 218.746 127.011C217.764 127.509 216.744 127.853 215.685 128.083C214.831 128.262 213.976 128.389 213.109 128.517C211.604 128.746 210.086 128.925 208.594 129.18C208.122 129.257 207.637 129.41 207.216 129.639C206.298 130.15 205.941 131.234 206.298 132.178C206.642 133.097 207.471 133.544 208.53 133.391C208.747 133.365 208.938 133.25 209.155 133.212C209.946 133.059 210.736 132.918 211.451 132.791C212.343 133.493 212.497 134.449 212.841 135.292C213.606 137.154 214.346 139.03 215.098 140.893C215.43 141.696 215.762 142.5 216.08 143.317C216.973 145.537 217.879 147.757 218.733 149.99C219.422 151.763 220.085 153.549 220.698 155.348C221.22 156.892 221.616 158.487 222.164 160.018C223.414 163.527 223.669 167.137 223.312 170.812C223.185 172.062 222.955 173.3 222.343 174.422C222.088 174.894 221.794 175.405 221.374 175.711C220.098 176.617 218.657 177.178 217.075 176.859C214.945 176.426 212.879 175.8 211.081 174.435C209.359 173.108 207.522 171.922 205.762 170.646C205.099 170.174 204.461 169.651 203.887 169.077C200.66 165.9 197.65 162.531 194.959 158.882C194.513 158.27 194.041 157.658 193.505 157.122C191.796 155.348 190.317 153.409 188.85 151.431C188.34 150.73 187.753 150.079 187.141 149.466C186.809 149.135 186.363 148.867 185.929 148.675C185.279 148.382 184.475 148.624 184.016 149.186C183.557 149.734 183.455 150.36 183.761 151.01C183.901 151.291 184.131 151.533 184.335 151.801C184.858 152.49 185.432 153.154 185.891 153.894C187.052 155.744 188.302 157.517 189.832 159.099C190.049 159.316 190.215 159.584 190.431 159.878C188.62 161.485 186.975 163.118 184.909 164.19C184.093 162.544 183.366 160.962 182.524 159.444C181.185 157.071 179.794 154.736 178.353 152.414C177.409 150.883 176.414 149.377 175.318 147.961C172.257 143.993 168.29 141.173 163.686 139.247C161.645 138.392 159.515 138.009 157.308 138.162C154.872 138.315 152.628 139.068 150.549 140.344C149.72 140.854 148.865 141.352 147.998 141.798C145.421 143.125 142.717 143.317 139.912 142.666C137.577 142.13 135.754 140.803 134.274 138.992C133.139 137.601 132.119 136.121 131.06 134.666C130.256 133.569 129.517 132.421 128.688 131.349C125.27 126.973 120.627 125.442 115.27 125.735C113.37 125.837 111.52 126.386 109.747 127.088C105.513 128.759 102.044 131.298 99.9139 135.47C98.8298 137.601 97.6053 139.668 96.4319 141.747C96.011 142.5 95.5901 143.278 95.1055 143.993C94.0086 145.613 92.8735 147.208 91.7001 148.867C91.1899 148.382 90.8838 147.744 90.5649 147.132C88.7666 143.648 86.8534 140.216 85.2336 136.657C82.2874 130.188 80.7313 123.388 80.7823 116.23C80.8079 112.198 81.0629 108.167 81.5221 104.173C81.7644 102.068 81.9813 99.95 82.5424 97.8831C84.022 97.1686 85.476 96.4541 87.083 96.0714C88.4732 95.7396 89.7614 95.1145 90.8966 94.2724C94.5698 91.5676 96.7635 88.0462 96.8018 83.3637C96.8018 82.2792 96.8018 81.182 96.7508 80.0975C96.6488 78.0051 97.2355 76.1296 98.3196 74.3689C99.6715 72.1871 101.202 70.1585 102.975 68.283C104.429 66.7392 105.768 65.0933 107.082 63.4219C108.204 61.9929 108.957 60.3343 109.212 58.5226C109.543 56.1367 109.301 53.7636 108.804 51.2246C108.957 51.097 109.225 50.9056 109.48 50.7015C111.061 49.4512 112.604 48.1498 114.224 46.9632C116.673 45.1515 119.186 43.4291 121.66 41.6428C123.739 40.1373 125.946 38.8487 128.305 37.8408C129.504 37.3304 130.703 36.7945 131.838 36.1566C135.001 34.3832 138.407 33.2476 141.888 32.3928C147.513 31.0149 153.227 30.3387 159.018 30.3259C161.479 30.3259 163.89 30.6449 166.415 31.1169V31.0914ZM94.6846 153.307C95.1565 151.342 95.858 149.709 96.9804 148.267C98.3961 146.468 99.544 144.491 100.615 142.462C101.738 140.344 102.962 138.29 104.174 136.223C104.773 135.177 105.475 134.194 106.47 133.48C109.901 130.979 113.638 129.397 118.012 129.793C119.836 129.958 121.52 130.469 123.05 131.489C124.147 132.229 125.065 133.148 125.843 134.22C126.673 135.368 127.438 136.567 128.28 137.703C129.376 139.183 130.486 140.688 131.672 142.092C133.101 143.763 134.848 145.052 136.914 145.894C141.251 147.642 145.523 147.489 149.707 145.435C150.778 144.912 151.799 144.274 152.832 143.674C155.969 141.824 159.234 141.684 162.538 143.1C166.134 144.656 169.31 146.838 171.759 149.939C172.907 151.38 173.953 152.924 174.922 154.493C176.695 157.364 178.404 160.273 180.1 163.195C180.56 163.986 180.929 164.841 181.312 165.683C181.44 165.963 181.452 166.295 181.503 166.589C181.07 167.061 180.547 167.239 180.049 167.418C179.016 167.775 177.996 168.145 176.95 168.4C173.2 169.306 169.451 170.187 165.675 171.016C162.971 171.603 160.255 172.177 157.513 172.611C154.069 173.147 150.612 173.517 147.143 173.772C143.534 174.04 139.95 173.899 136.379 173.555C132.374 173.172 128.42 172.394 124.53 171.335C120.219 170.161 116.023 168.694 112.107 166.487C106.674 163.424 101.674 159.788 97.0314 155.629C96.2279 154.902 95.4881 154.111 94.6846 153.32V153.307ZM77.6065 102.119C76.7009 102.795 75.7826 103.382 74.9791 104.097C73.4996 105.423 72.4665 107.095 71.663 108.907C70.7064 111.05 69.9411 113.257 69.3417 115.516C68.0152 120.568 66.676 125.62 65.5792 130.724C64.7119 134.717 63.7553 138.673 63.0793 142.704C62.5819 145.652 62.059 148.599 61.4978 151.546C60.8728 154.812 60.2606 158.066 60.1203 161.396C60.0565 162.914 59.9162 164.445 59.8142 165.963C59.7887 166.282 59.7377 166.589 59.6994 166.895C59.4698 166.971 59.3295 167.048 59.1765 167.061C41.0526 167.482 22.9159 167.89 4.79193 168.298C4.63887 168.298 4.48582 168.209 4.21799 168.132C4.19247 167.073 4.24348 165.989 4.33276 164.917C4.47307 163.182 4.6644 161.447 5.2766 159.801C5.93982 158.028 7.12598 156.726 8.88608 156.012C10.3911 155.399 11.9471 154.876 13.4904 154.353C14.0516 154.162 14.651 154.072 15.2377 153.957C16.9468 153.639 18.6687 153.358 20.365 153.001C22.1251 152.618 23.9107 152.439 25.7091 152.375C27.5585 152.299 29.4078 152.235 31.2572 152.159C33.451 152.082 35.6064 152.248 37.6982 152.975C39.2924 153.524 40.8867 154.06 42.4555 154.685C43.7054 155.195 44.9809 155.259 46.2946 155.272C47.0854 155.272 47.621 154.825 47.9782 154.162C48.1312 153.881 48.2205 153.549 48.2715 153.23C48.8199 150.283 49.7638 147.438 50.6438 144.58C52.1998 139.54 53.7814 134.501 55.2226 129.423C56.7659 124.038 58.5388 118.718 60.082 113.334C61.3575 108.868 63.1048 104.594 65.0817 100.409C66.0766 98.3169 67.4285 96.4924 69.1121 94.9103C69.9539 94.1193 70.9105 93.4941 71.9946 93.0986C72.3517 92.971 72.7216 92.8434 73.0915 92.8434C74.8898 92.8179 76.6882 92.8179 78.4866 92.8434C78.7417 92.8434 79.0095 92.9327 79.3284 92.9965C78.7544 96.0969 78.1932 99.1335 77.6448 102.119H77.6065ZM85.6673 73.3354C84.7107 72.7613 83.9327 72.2509 83.1164 71.8171C81.7007 71.0516 80.5145 70.0309 79.4942 68.8188C75.0812 63.5495 71.4589 57.8209 69.8136 51.0588C69.2524 48.7494 68.3086 46.6442 66.9821 44.6922C66.523 44.0287 66.0001 43.5566 65.2476 43.3015C63.9084 42.8549 62.5436 42.4977 61.1279 42.3191C58.679 42.0128 56.3833 41.1835 54.1258 40.2266C52.8121 39.6652 51.6514 38.8487 50.6183 37.8663C49.7383 37.0242 49.0623 36.0418 48.7817 34.8297C48.5011 33.6559 48.3353 32.4566 48.5011 31.2573C48.6286 30.3514 48.871 29.4583 49.1388 28.578C49.3174 28.0038 49.7893 27.7359 50.4015 27.7614C51.8045 27.8252 53.0161 28.1569 53.8834 29.4583C54.9675 31.0787 56.2047 32.6097 57.4164 34.1407C58.0669 34.9701 59.1637 35.1487 60.0565 34.6128C61.0004 34.0514 61.3702 32.9414 60.8473 31.9335C60.5795 31.4104 60.1841 30.9383 59.8014 30.4918C58.3857 28.8969 57.1103 27.2128 56.0262 25.3628C54.6614 23.0407 54.113 20.5145 54.3043 17.8351C54.3426 17.2482 54.4829 16.6358 54.7252 16.1C55.3119 14.7858 56.8042 14.3265 58.0031 15.1048C58.8576 15.6662 59.7377 16.2658 59.8907 17.4269C59.9162 17.631 60.0438 17.8734 60.1968 17.9883C60.8856 18.5114 60.8983 19.3024 61.1024 20.0169C61.6253 21.8414 62.1483 23.6786 62.6967 25.4904C62.837 25.9497 63.0666 26.409 63.3727 26.779C63.9084 27.4424 64.8649 27.6338 65.6047 27.3021C66.3572 26.9576 66.8163 26.3579 66.7908 25.5031C66.7908 25.0821 66.6505 24.6483 66.5357 24.24C66.2041 23.1428 65.7705 22.0838 65.5026 20.9738C65.1838 19.6596 64.8394 18.32 64.7629 16.9676C64.6098 14.5179 64.7246 12.081 65.0307 9.63132C65.3751 6.96475 66.6888 5.24233 69.2652 4.42577C70.311 4.09405 71.2676 4.05577 72.2752 4.50233C74.2521 5.38268 75.6934 6.81165 76.5479 8.78924C76.9561 9.73339 77.2877 10.7158 77.5938 11.711C77.8488 12.5403 78.0146 13.3951 78.206 14.2372C78.3208 14.7475 78.155 15.1558 77.8361 15.5896C76.9433 16.8272 76.0887 18.0776 75.2597 19.3662C73.895 21.4841 73.117 23.8828 72.2242 26.2176C72.0966 26.5493 72.0966 26.9704 72.1732 27.3276C72.3262 28.0804 72.8236 28.578 73.5889 28.7438C74.4434 28.9352 75.2725 28.7949 75.7826 28.0421C76.1398 27.519 76.3693 26.881 76.5607 26.2686C77.4917 23.3214 78.933 20.6421 80.8844 18.2689C82.9761 15.7044 85.476 15.3982 88.2564 17.1207C89.2895 17.7586 89.7742 18.6134 89.7614 19.8127C89.7614 21.5224 89.5573 23.2065 88.8176 24.7503C88.1416 26.1666 87.3636 27.5445 86.5473 28.8969C85.9861 29.8411 85.2081 30.6321 84.226 31.1552C82.8358 31.8952 81.4328 32.6225 80.0043 33.2731C79.3539 33.5666 78.933 33.9366 78.7161 34.6256C78.5121 35.3018 78.1932 35.9397 77.9381 36.5904C76.7137 39.7163 75.7699 42.8677 76.3949 46.287C76.4969 46.8739 76.4841 47.4863 76.5351 48.0732C76.8412 51.6839 77.9509 54.9884 80.2722 57.8336C81.6241 59.4922 83.1292 60.9722 84.851 62.2354C86.2667 63.2688 87.7717 64.1236 89.315 64.9274C89.5829 65.0678 89.8124 65.2847 90.0548 65.4505C88.5625 68.0916 87.1213 70.6306 85.6035 73.3226L85.6673 73.3354ZM171.16 32.0611C171.542 32.0993 171.848 32.0611 172.129 32.1631C174.846 33.1073 177.575 34.0387 180.279 35.0338C181.185 35.3783 182.039 35.8759 182.894 36.3735C184.679 37.4197 186.439 38.5042 188.212 39.5759C190.368 40.8773 192.306 42.4339 194.041 44.2839C195.941 46.3125 197.944 48.2263 199.895 50.2167C200.916 51.2629 201.923 52.3346 202.892 53.4446C204.767 55.5753 206.591 57.7315 208.453 59.8622C208.989 60.4747 209.627 61.0233 209.435 61.9802C209.41 62.1205 209.499 62.2991 209.589 62.4395C209.92 63.0136 209.818 63.6005 209.652 64.1874C209.104 66.165 208.237 67.9512 206.719 69.3802C206.323 69.7502 205.877 70.0819 205.405 70.3244C205.035 70.5157 204.563 70.6433 204.155 70.5923C202.484 70.3754 200.979 69.8268 200.01 68.3212C199.653 67.7726 199.283 67.2368 198.939 66.6881C197.918 65.0678 196.515 63.894 194.768 63.1412C193.518 62.6054 192.255 62.1205 190.98 61.6485C189.704 61.1764 188.391 60.8574 187.013 60.7809C184.973 60.666 183.098 58.9564 182.804 56.8895C182.588 55.3839 182.498 53.8529 182.46 52.3346C182.371 48.7494 181.733 45.3173 180.254 42.0256C178.902 39.0146 176.861 36.5904 174.195 34.6894C173.57 34.2428 172.933 33.8345 172.32 33.3752C171.887 33.0563 171.428 32.75 171.198 32.0738L171.16 32.0611ZM95.3478 159.648C95.5646 159.775 95.7177 159.839 95.8325 159.941C98.868 162.506 102.031 164.904 105.36 167.112C105.845 167.431 106.253 167.852 106.763 168.273C105.271 168.655 103.625 168.732 102.12 168.579C98.1155 168.158 94.1106 167.801 90.0675 167.75C89.1364 167.75 88.2181 167.699 87.2871 167.673C83.5373 167.545 79.8003 167.15 76.0632 166.767C74.8133 166.64 73.895 166.065 73.4486 164.879C73.2063 164.228 73.0277 163.527 72.9639 162.838C72.8236 161.358 73.1297 159.916 73.4359 158.474C73.9843 155.948 75.1194 153.664 76.229 151.342C76.9816 149.76 77.7596 148.216 79.0478 146.979C79.3539 146.685 79.6217 146.315 79.8385 145.945C80.7186 144.427 82.1853 143.61 83.5755 142.692C84.5066 144.299 85.3867 145.856 86.3177 147.4C86.8152 148.216 86.7896 149.084 86.5601 149.926C85.9861 152.031 85.0423 153.983 83.7924 155.82C83.3842 155.782 83.0016 155.718 82.6317 155.718C82.2618 155.718 81.8665 155.718 81.5094 155.82C80.5783 156.088 79.9788 156.854 79.9661 157.709C79.9661 158.576 80.5273 159.303 81.4711 159.61C81.6751 159.673 81.892 159.75 82.1088 159.763C83.5755 159.903 85.0295 160.107 86.4963 160.158C88.3967 160.222 90.3098 160.184 92.2102 160.158C93.2944 160.158 94.3785 160.133 95.3478 159.635V159.648ZM44.3687 151.533C41.1291 149.824 37.915 148.535 34.4968 148.14C34.1652 147.387 33.8463 146.762 33.6168 146.098C33.4382 145.588 33.3107 145.052 33.2979 144.516C33.2852 143.763 33.3234 142.985 33.4637 142.245C33.9229 139.859 35.1345 137.984 37.4558 137.065C39.1139 136.402 40.823 135.827 42.532 135.317C44.4579 134.756 46.3966 134.207 48.2077 133.301C48.5521 133.135 48.8965 132.982 49.2536 132.855C49.4322 132.791 49.6362 132.804 49.8275 132.778C49.853 132.982 49.9041 133.084 49.8786 133.174C48.1312 139.004 46.3966 144.835 44.6493 150.666C44.5855 150.87 44.509 151.074 44.3687 151.521V151.533ZM83.7541 92.8179C83.7924 92.3969 83.7924 92.1417 83.8562 91.8865C84.1495 90.7255 84.4556 89.5644 84.7617 88.4162C86.4453 82.0879 88.486 75.8999 91.9934 70.3116C92.0189 70.2606 92.0444 70.2223 92.0699 70.1712C94.0596 66.7136 96.4319 63.524 99.1614 60.6278C100.921 58.765 102.758 56.9915 104.569 55.1926C104.748 55.0139 104.901 54.746 105.322 54.8353C105.36 55.0012 105.449 55.1926 105.449 55.3839C105.5 57.5784 104.977 59.6071 103.587 61.3295C102.388 62.8095 101.202 64.3023 99.8756 65.6674C97.8859 67.7088 96.2406 69.9926 94.7611 72.4168C93.2689 74.8537 92.5674 77.4947 92.6311 80.3399C92.6566 81.3223 92.7332 82.3048 92.7077 83.2744C92.6822 84.091 92.6822 84.933 92.4398 85.6986C91.5343 88.4544 89.8124 90.5724 87.1085 91.7589C86.0882 92.2055 84.9785 92.4479 83.7541 92.8307V92.8179ZM67.1607 144.21C67.1225 142.245 68.9081 133.556 69.8264 130.979C72.6578 130.009 75.5658 130.009 78.4611 130.048C79.4942 132.944 80.5018 135.751 81.5221 138.634C80.9482 139.604 80.1701 140.382 78.984 140.688C77.4662 141.084 75.9229 141.428 74.4307 141.888C72.0456 142.615 69.6733 143.406 67.1607 144.21ZM70.7319 126.526C70.8595 125.901 70.9105 125.531 71.0125 125.161C71.8671 121.895 72.6961 118.629 73.6144 115.388C74.2266 113.194 75.0046 111.037 76.178 109.047C76.3311 108.779 76.4203 108.447 76.9688 108.371C77.007 109.123 76.9305 109.851 76.9178 110.591C76.905 111.292 76.8795 112.007 76.854 112.709C76.8285 113.474 76.803 114.227 76.7902 114.992C76.7775 115.758 76.7647 116.524 76.7775 117.276C76.7775 118.042 76.8285 118.795 76.8668 119.56C76.905 120.262 76.9305 120.976 76.9943 121.678C77.0708 122.431 77.1856 123.196 77.2749 123.949C77.3642 124.676 77.683 125.391 77.4917 126.169C75.2342 126.373 73.066 125.965 70.7447 126.514L70.7319 126.526ZM91.5215 156.241H88.4094C88.7666 155.284 89.0854 154.455 89.4553 153.498C90.3098 154.315 90.8455 155.17 91.5215 156.241Z" fill="black"/>
<path d="M166.415 31.0913C163.902 30.6192 161.492 30.3002 159.017 30.3002C153.214 30.3002 147.5 30.9764 141.888 32.3671C138.406 33.222 135.001 34.3575 131.838 36.1309C130.703 36.7689 129.504 37.3047 128.305 37.8151C125.945 38.823 123.739 40.1117 121.66 41.6172C119.186 43.4034 116.673 45.1258 114.224 46.9375C112.604 48.1369 111.061 49.4255 109.48 50.6758C109.224 50.88 108.969 51.0714 108.804 51.1989C109.288 53.7379 109.543 56.111 109.212 58.4969C108.957 60.3086 108.204 61.9545 107.082 63.3962C105.768 65.0676 104.429 66.7135 102.975 68.2573C101.202 70.1328 99.6715 72.1615 98.3195 74.3432C97.2354 76.1039 96.6487 77.9922 96.7507 80.0718C96.8017 81.1563 96.8145 82.2536 96.8017 83.3381C96.7635 88.0205 94.5825 91.5419 90.8965 94.2467C89.7486 95.0888 88.4604 95.714 87.0829 96.0457C85.4759 96.4285 84.0219 97.143 82.5424 97.8574C81.9812 99.9243 81.7644 102.042 81.522 104.147C81.0629 108.154 80.8078 112.173 80.7823 116.204C80.7313 123.349 82.2745 130.162 85.2336 136.631C86.8533 140.191 88.7665 143.623 90.5649 147.106C90.8837 147.718 91.1898 148.356 91.7 148.841C92.8606 147.182 94.0085 145.588 95.1054 143.967C95.5901 143.253 96.011 142.475 96.4319 141.722C97.6053 139.629 98.8297 137.575 99.9138 135.445C102.031 131.272 105.513 128.733 109.747 127.062C111.533 126.36 113.37 125.812 115.27 125.71C120.627 125.416 125.269 126.96 128.688 131.323C129.529 132.395 130.256 133.543 131.06 134.641C132.119 136.095 133.152 137.575 134.274 138.966C135.754 140.778 137.565 142.105 139.911 142.64C142.717 143.278 145.421 143.1 147.998 141.773C148.865 141.326 149.72 140.829 150.549 140.318C152.628 139.042 154.885 138.302 157.308 138.137C159.515 137.996 161.645 138.379 163.686 139.221C168.29 141.148 172.244 143.967 175.318 147.935C176.414 149.351 177.409 150.857 178.353 152.388C179.794 154.697 181.185 157.045 182.524 159.418C183.378 160.924 184.093 162.518 184.909 164.164C186.975 163.093 188.62 161.459 190.431 159.852C190.202 159.558 190.036 159.303 189.832 159.074C188.301 157.504 187.052 155.718 185.891 153.868C185.432 153.141 184.858 152.477 184.335 151.776C184.144 151.52 183.901 151.278 183.761 150.985C183.442 150.334 183.557 149.709 184.016 149.16C184.475 148.599 185.279 148.356 185.929 148.65C186.363 148.841 186.809 149.109 187.141 149.441C187.753 150.053 188.34 150.717 188.85 151.406C190.304 153.383 191.796 155.323 193.505 157.096C194.028 157.645 194.5 158.244 194.959 158.857C197.638 162.506 200.66 165.874 203.887 169.051C204.461 169.625 205.099 170.148 205.762 170.62C207.522 171.896 209.359 173.083 211.081 174.41C212.866 175.775 214.945 176.4 217.075 176.834C218.644 177.153 220.098 176.604 221.373 175.685C221.794 175.392 222.088 174.869 222.343 174.397C222.955 173.274 223.185 172.049 223.312 170.786C223.669 167.112 223.427 163.501 222.164 159.992C221.616 158.461 221.22 156.866 220.697 155.323C220.085 153.524 219.422 151.737 218.733 149.964C217.866 147.731 216.96 145.511 216.08 143.291C215.762 142.487 215.417 141.684 215.098 140.867C214.346 139.004 213.606 137.129 212.841 135.266C212.496 134.424 212.343 133.467 211.451 132.765C210.736 132.893 209.946 133.033 209.155 133.186C208.938 133.224 208.747 133.339 208.53 133.365C207.471 133.518 206.642 133.059 206.298 132.153C205.941 131.209 206.298 130.124 207.216 129.614C207.637 129.384 208.122 129.231 208.594 129.154C210.099 128.912 211.604 128.721 213.109 128.491C213.963 128.363 214.83 128.236 215.685 128.057C216.744 127.828 217.777 127.483 218.746 126.986C221.22 125.722 223.72 124.536 226.195 123.273C228.848 121.908 231.029 119.93 232.891 117.633C234.153 116.077 234.931 114.265 234.944 112.236C234.957 109.685 234.97 107.107 234.434 104.594C233.847 101.825 233.171 99.0823 231.819 96.5433C230.582 94.234 228.822 92.4095 226.743 90.8784C226.616 90.7891 226.45 90.7636 226.322 90.6998C225.85 90.9678 225.952 91.376 226.105 91.7078C226.284 92.1033 226.539 92.4605 226.781 92.8178C229.217 96.6071 230.671 100.703 230.863 105.232C230.901 106.214 231.029 107.184 231.105 108.166C231.156 108.83 231.105 109.468 230.786 110.08C230.48 110.693 230.021 111.139 229.37 111.369C227.929 111.879 226.552 110.756 226.781 109.213C227.164 106.686 226.82 104.211 226.284 101.762C225.646 98.8526 224.358 96.2243 222.572 93.8385C221.08 91.8353 219.205 90.2915 217.063 89.054C216.208 88.5564 215.277 88.2502 214.32 88.0205C213.428 87.8036 212.586 87.9822 211.769 88.3012C211.272 88.4926 210.94 88.8881 210.94 89.4112C210.94 90.164 210.94 90.9422 211.068 91.6822C211.476 94.1702 212.407 96.4923 213.377 98.8143C214.257 100.92 215.149 103.025 216.029 105.143C217.126 107.796 217.19 110.54 216.782 113.334C216.642 114.342 215.609 115.375 214.626 115.541C213.938 115.656 213.313 115.413 212.866 114.89C212.471 114.444 212.139 113.933 211.846 113.423C210.239 110.603 208.045 108.256 205.724 106.023C205.494 105.793 205.226 105.602 204.984 105.385C203.199 103.79 201.107 103.28 198.773 103.548C197.357 103.714 196.605 104.428 196.502 105.844C196.388 107.49 196.566 109.111 197.025 110.693C197.893 113.755 199.78 116.09 202.255 118.003C202.599 118.271 202.982 118.475 203.313 118.769C204.091 119.445 204.295 120.466 203.862 121.27C203.377 122.137 202.318 122.533 201.324 122.163C200.967 122.035 200.66 121.793 200.329 121.614C198.046 120.351 195.763 119.075 193.48 117.812C191.783 116.881 189.947 116.383 188.059 116.115C187.37 116.013 186.643 116.026 185.942 116.115C184.131 116.358 183.161 117.697 182.256 119.088C182.077 119.356 182.103 119.853 182.205 120.185C182.498 121.053 182.804 121.946 183.238 122.75C184.233 124.561 185.725 125.927 187.549 126.871C189.386 127.815 191.273 128.644 193.161 129.499C194.296 130.009 195.457 130.481 196.617 130.953C197.472 131.311 197.995 131.923 198.314 132.816C199.857 137.18 201.426 141.53 203.007 145.868C204.028 148.675 205.035 151.508 206.132 154.289C207.318 157.287 208.122 160.388 209.091 163.45C209.193 163.756 209.257 164.088 209.257 164.407C209.27 165.338 208.645 166.116 207.79 166.321C206.961 166.512 206.094 166.002 205.749 165.07C205.048 163.182 204.385 161.281 203.683 159.393C202.956 157.402 202.191 155.425 201.464 153.421C199.321 147.54 197.191 141.658 195.061 135.776C194.985 135.572 194.934 135.355 194.857 135.151C194.691 134.666 194.424 134.296 193.913 134.105C193.25 133.862 192.6 133.582 191.936 133.327C189.806 132.51 187.728 131.566 185.725 130.443C183.455 129.18 181.529 127.534 180.1 125.327C179.118 123.796 178.468 122.15 178.098 120.364C177.856 119.164 178.021 118.042 178.697 117.085C179.475 115.975 180.33 114.903 181.287 113.946C182.434 112.798 183.939 112.275 185.547 112.083C187.868 111.803 190.1 112.262 192.294 112.913C192.6 113.002 192.919 113.091 193.237 113.168C193.276 113.168 193.327 113.13 193.467 113.053C193.403 112.772 193.352 112.466 193.25 112.173C192.689 110.45 192.51 108.664 192.383 106.865C192.294 105.538 192.485 104.25 193.084 103.05C194.283 100.613 196.337 99.5033 198.99 99.3502C202 99.1716 204.716 99.9371 207.05 101.864C208.262 102.859 209.384 103.982 210.52 105.079C211.03 105.564 211.476 106.112 212.178 106.878C212.05 106.304 212.025 106.01 211.923 105.755C211.323 104.301 210.711 102.846 210.086 101.392C208.9 98.6357 207.777 95.8671 207.178 92.9198C206.897 91.5802 206.783 90.2277 206.948 88.8626C207.178 86.8467 208.224 85.4305 210.073 84.6139C211.884 83.8101 213.759 83.7591 215.66 84.1801C217.598 84.6139 219.307 85.5581 220.927 86.6936C221.552 87.1274 222.151 87.5995 222.866 88.1353C222.968 87.8674 223.108 87.6505 223.121 87.4336C223.134 87.2295 223.057 86.9998 222.981 86.7957C222.164 84.3205 221.437 81.807 220.481 79.3701C219.346 76.4866 218.019 73.6797 216.297 71.077C215.672 70.1201 215.124 69.1121 214.55 68.1297C214.18 67.479 213.861 66.8028 213.249 66.1266C213.045 66.5859 212.892 66.9176 212.764 67.2621C211.999 69.4183 210.685 71.1918 208.989 72.7101C207.191 74.3177 205.099 74.8663 202.778 74.4197C200.176 73.9094 197.969 72.7101 196.528 70.3752C196.298 70.0052 196.031 69.6608 195.814 69.278C195.049 67.9511 193.952 67.0325 192.51 66.4966C191.337 66.0628 190.189 65.5525 188.99 65.208C188.059 64.94 187.077 64.7742 186.108 64.7104C185.164 64.6338 184.258 64.4297 183.468 63.9449C180.738 62.248 178.876 59.9514 178.583 56.6341C178.43 54.899 178.302 53.151 178.277 51.4158C178.238 48.8131 177.652 46.3506 176.657 43.9648C175.598 41.4258 173.927 39.3972 171.683 37.8406C171.058 37.4068 170.407 37.0113 169.82 36.5265C169.195 36.0034 168.583 35.4547 168.06 34.8423C167.091 33.7068 167.002 33.4261 166.415 31.0658V31.0913ZM139.376 75.6701C140.434 76.1549 141.225 76.4994 142.003 76.8822C142.934 77.3415 143.853 77.8008 144.745 78.3111C145.74 78.898 146.085 79.7784 145.715 80.6332C145.319 81.5646 144.324 81.9474 143.24 81.5646C142.73 81.386 142.245 81.1308 141.748 80.9267C139.197 79.8422 136.583 78.9363 133.866 78.3111C132.323 77.9539 130.767 77.7242 129.172 77.8263C128.075 77.9029 127.03 78.1325 126.047 78.6556C125.231 79.1022 124.696 79.7656 124.593 80.697C124.313 83.0956 125.116 85.1498 126.915 86.6808C128.407 87.9439 130.269 88.4926 132.221 88.4415C134.083 88.3905 135.881 87.9439 137.565 87.1401C137.858 86.9998 138.139 86.8212 138.445 86.7319C139.401 86.4384 140.383 86.8339 140.843 87.6505C141.34 88.5436 141.085 89.5898 140.205 90.2533C139.95 90.4446 139.656 90.6105 139.363 90.7509C137.169 91.7715 134.861 92.3457 132.45 92.4988C130.384 92.6264 128.484 92.0012 126.621 91.2102C124.593 90.3426 123.063 88.9264 121.992 87.0126C121.265 85.7239 120.793 84.346 120.538 82.8787C120.002 79.7146 121.252 75.9508 125.423 74.5091C126.838 74.0242 128.267 73.8201 129.746 73.8073C130.014 73.8073 130.295 73.8328 130.562 73.8073C130.805 73.7818 131.098 73.9477 131.277 73.6797C131.29 73.6032 131.328 73.5394 131.302 73.5011C131.213 73.3097 131.111 73.1184 130.996 72.927C129.899 71.0642 129.631 69.0611 129.976 66.9432C130.269 65.0931 130.881 63.358 131.761 61.7249C133.279 58.9052 135.333 56.5448 137.896 54.6055C139.746 53.2021 141.799 52.2452 144.082 51.7986C145.434 51.5307 146.786 51.5945 148.112 52.0027C150.561 52.7683 152.5 55.2434 152.679 58.1779C152.793 60.0535 152.474 61.8652 151.811 63.6131C150.638 66.739 148.763 69.3673 146.327 71.6128C144.388 73.4118 142.169 74.7515 139.35 75.6573L139.376 75.6701ZM174.068 71.8935C173.966 72.6973 173.927 73.5139 173.774 74.3177C172.983 78.4387 171.019 81.9601 168.252 85.0605C166.938 86.5277 165.471 87.8164 163.775 88.8243C162.13 89.8067 160.382 90.5084 158.431 90.6488C154.566 90.9167 152.003 88.6202 151.123 85.456C150.676 83.8484 150.612 82.2153 150.906 80.6077C152.041 74.3559 155.319 69.4566 160.484 65.8204C161.454 65.1314 162.474 64.4807 163.724 64.3659C163.928 64.3531 164.119 64.2 164.323 64.1235C167.639 62.7711 171.848 64.0725 173.366 67.9001C173.876 69.1887 174.068 70.5156 174.093 71.8935H174.068ZM111.023 83.2743C111.087 82.3812 111.15 81.2456 111.278 80.1101C111.342 79.5232 111.469 78.9236 111.661 78.3622C111.992 77.418 112.91 76.9204 113.867 77.0863C114.836 77.2522 115.461 77.9922 115.474 79.0384C115.474 79.4722 115.423 79.906 115.359 80.3398C114.849 83.4019 115.079 86.4257 115.972 89.3857C117.821 95.5354 121.66 100.103 127.17 103.28C132.055 106.087 137.348 107.056 142.909 106.227C146.403 105.704 149.605 104.377 152.462 102.259C152.895 101.94 153.329 101.596 153.826 101.379C154.783 100.945 155.842 101.366 156.326 102.285C156.76 103.101 156.645 103.943 155.867 104.658C155.191 105.283 154.439 105.844 153.661 106.329C148.061 109.902 141.965 111.177 135.396 110.246C128.496 109.264 122.68 106.202 118.012 101.047C113.523 96.0967 111.176 90.2405 111.023 83.287V83.2743Z" fill="#92C6EA"/>
<path d="M94.6973 153.294C95.5009 154.085 96.2406 154.889 97.0441 155.603C101.687 159.763 106.686 163.399 112.12 166.461C116.035 168.668 120.232 170.135 124.542 171.309C128.433 172.368 132.386 173.146 136.391 173.529C139.963 173.874 143.546 174.014 147.156 173.746C150.638 173.491 154.094 173.121 157.525 172.585C160.255 172.151 162.971 171.59 165.688 170.99C169.451 170.161 173.213 169.28 176.963 168.375C178.021 168.119 179.042 167.737 180.062 167.392C180.572 167.214 181.095 167.035 181.516 166.563C181.452 166.269 181.44 165.938 181.325 165.657C180.942 164.815 180.585 163.96 180.113 163.169C178.417 160.26 176.708 157.338 174.935 154.468C173.966 152.898 172.92 151.355 171.772 149.913C169.323 146.825 166.147 144.631 162.55 143.074C159.247 141.645 155.982 141.798 152.844 143.648C151.811 144.261 150.791 144.886 149.72 145.409C145.536 147.45 141.263 147.616 136.927 145.868C134.861 145.039 133.113 143.75 131.685 142.066C130.486 140.663 129.389 139.17 128.292 137.677C127.45 136.542 126.685 135.355 125.856 134.194C125.091 133.122 124.173 132.204 123.063 131.464C121.532 130.43 119.849 129.92 118.025 129.767C113.65 129.371 109.926 130.953 106.482 133.454C105.5 134.169 104.799 135.151 104.187 136.197C102.988 138.264 101.75 140.331 100.628 142.436C99.5567 144.465 98.4088 146.43 96.9931 148.241C95.858 149.683 95.1692 151.316 94.6973 153.281V153.294Z" fill="#5AA445"/>
<path d="M77.6192 102.119C78.1677 99.1334 78.7288 96.0968 79.3028 92.9965C78.9712 92.9327 78.7161 92.8434 78.461 92.8434C76.6627 92.8434 74.8643 92.8306 73.0659 92.8434C72.696 92.8434 72.3262 92.971 71.969 93.0985C70.8722 93.4941 69.9284 94.1065 69.0866 94.9103C67.403 96.4924 66.051 98.3169 65.0562 100.409C63.0793 104.594 61.3319 108.868 60.0565 113.334C58.526 118.718 56.7404 124.038 55.1971 129.423C53.7431 134.5 52.1616 139.527 50.6183 144.58C49.7382 147.438 48.7944 150.283 48.246 153.23C48.1822 153.549 48.0929 153.868 47.9526 154.162C47.6082 154.825 47.0598 155.284 46.269 155.272C44.9681 155.259 43.6799 155.195 42.43 154.685C40.874 154.047 39.2669 153.524 37.6726 152.975C35.5809 152.248 33.4254 152.069 31.2317 152.158C29.3823 152.222 27.5329 152.299 25.6835 152.375C23.8852 152.452 22.1123 152.631 20.3394 153.001C18.6431 153.371 16.9213 153.638 15.2122 153.957C14.6255 154.072 14.026 154.162 13.4649 154.353C11.9216 154.876 10.3783 155.412 8.86053 156.012C7.10043 156.726 5.91428 158.015 5.25105 159.801C4.63884 161.447 4.43477 163.182 4.30722 164.917C4.21794 165.989 4.16693 167.061 4.19244 168.132C4.47303 168.222 4.62608 168.311 4.76638 168.298C22.8903 167.89 41.027 167.482 59.1509 167.061C59.304 167.061 59.4443 166.971 59.6739 166.895C59.7121 166.589 59.7631 166.27 59.7886 165.963C59.9034 164.445 60.031 162.927 60.0947 161.396C60.235 158.066 60.8473 154.8 61.4722 151.546C62.0334 148.612 62.5691 145.664 63.0538 142.704C63.7297 138.673 64.6863 134.705 65.5536 130.724C66.6632 125.62 67.9897 120.568 69.3161 115.516C69.9156 113.245 70.6809 111.037 71.6374 108.907C72.4537 107.108 73.4868 105.436 74.9536 104.097C75.7571 103.369 76.6754 102.782 77.581 102.119H77.6192Z" fill="#92C6EA"/>
<path d="M85.68 73.3353C87.1977 70.6432 88.639 68.0914 90.1312 65.4631C89.8889 65.2973 89.6593 65.0804 89.3915 64.94C87.8482 64.1362 86.3304 63.2814 84.9274 62.248C83.1929 60.9848 81.7006 59.5048 80.3486 57.8462C78.0274 55.001 76.9177 51.6965 76.6116 48.0858C76.5606 47.4862 76.5733 46.8865 76.4713 46.2996C75.8463 42.8803 76.7902 39.7161 78.0146 36.603C78.2697 35.9523 78.5885 35.3016 78.7926 34.6382C78.9967 33.9492 79.4303 33.5792 80.0808 33.2858C81.5093 32.6351 82.9123 31.9206 84.3025 31.1678C85.2846 30.6447 86.0626 29.8537 86.6238 28.9095C87.4273 27.5571 88.2053 26.1792 88.8941 24.763C89.6338 23.2192 89.8251 21.535 89.8379 19.8254C89.8379 18.626 89.366 17.7712 88.3329 17.1333C85.5397 15.4109 83.0526 15.7298 80.9608 18.2816C79.0094 20.6547 77.5809 23.334 76.6371 26.2812C76.4458 26.8937 76.2162 27.5316 75.8591 28.0547C75.3489 28.8075 74.5199 28.935 73.6654 28.7564C72.9128 28.5906 72.4027 28.093 72.2496 27.3402C72.1731 26.983 72.1731 26.5619 72.3006 26.2302C73.1935 23.8954 73.9715 21.5095 75.3362 19.3788C76.1652 18.1029 77.0198 16.8398 77.9126 15.6022C78.2314 15.1684 78.3972 14.7602 78.2824 14.2498C78.0911 13.4077 77.9253 12.5401 77.6702 11.7236C77.3641 10.7412 77.0325 9.75875 76.6244 8.80185C75.7571 6.82426 74.3286 5.39529 72.3517 4.51494C71.3568 4.06839 70.3875 4.10666 69.3416 4.43839C66.7653 5.25494 65.4516 6.97736 65.1072 9.64393C64.7883 12.0936 64.6735 14.5305 64.8393 16.9802C64.9286 18.3198 65.2602 19.6595 65.5791 20.9864C65.8469 22.0964 66.2806 23.1554 66.6122 24.2526C66.7397 24.6609 66.8673 25.0947 66.8673 25.5157C66.88 26.3578 66.4336 26.9575 65.6811 27.3147C64.9414 27.6592 63.9976 27.455 63.4491 26.7916C63.1558 26.4216 62.9134 25.9623 62.7731 25.503C62.212 23.6912 61.7018 21.854 61.1789 20.0295C60.9748 19.315 60.962 18.5112 60.2733 18.0009C60.1202 17.886 59.9927 17.6436 59.9672 17.4395C59.8014 16.2784 58.9341 15.6788 58.0795 15.1174C56.8806 14.3391 55.3884 14.7984 54.8017 16.1126C54.5593 16.6484 54.4318 17.2609 54.3808 17.8478C54.1767 20.5271 54.7379 23.0405 56.1026 25.3754C57.174 27.2126 58.4622 28.8968 59.8779 30.5044C60.2733 30.9509 60.6559 31.423 60.9238 31.9461C61.4467 32.954 61.0768 34.064 60.133 34.6254C59.2402 35.1485 58.1433 34.9827 57.4929 34.1533C56.2939 32.6096 55.044 31.0913 53.9599 29.4709C53.0926 28.1695 51.8809 27.8378 50.478 27.774C49.853 27.7485 49.3811 28.0164 49.2153 28.5906C48.9474 29.4709 48.6923 30.364 48.5776 31.2699C48.4117 32.4692 48.5776 33.6685 48.8582 34.8423C49.1387 36.0416 49.8147 37.0241 50.6948 37.8789C51.7279 38.8741 52.8885 39.6779 54.2022 40.2392C56.4597 41.2089 58.7555 42.0255 61.2043 42.3317C62.6073 42.5103 63.9721 42.8675 65.324 43.3141C66.0893 43.5692 66.6122 44.0413 67.0586 44.7048C68.3978 46.6568 69.3289 48.762 69.8901 51.0714C71.5481 57.8462 75.1576 63.5621 79.5706 68.8314C80.591 70.0563 81.7771 71.077 83.1929 71.8297C84.0091 72.2635 84.7744 72.7739 85.7437 73.348L85.68 73.3353Z" fill="#92C6EA"/>
<path d="M171.16 32.061C171.389 32.7372 171.848 33.0435 172.282 33.3624C172.894 33.809 173.532 34.23 174.157 34.6766C176.835 36.5776 178.863 39.0018 180.215 42.0128C181.695 45.2918 182.332 48.7366 182.422 52.3218C182.46 53.8401 182.549 55.3711 182.766 56.8767C183.059 58.9436 184.934 60.6532 186.975 60.7681C188.352 60.8446 189.666 61.1636 190.942 61.6357C192.217 62.1077 193.48 62.5926 194.73 63.1284C196.477 63.8684 197.88 65.055 198.9 66.6753C199.245 67.224 199.627 67.7598 199.972 68.3084C200.941 69.814 202.446 70.3754 204.117 70.5795C204.525 70.6305 204.997 70.5029 205.367 70.3116C205.839 70.0691 206.298 69.7374 206.68 69.3674C208.198 67.9512 209.066 66.1522 209.614 64.1746C209.78 63.6005 209.882 63.0008 209.55 62.4267C209.474 62.2864 209.372 62.1077 209.397 61.9674C209.588 61.0105 208.951 60.4619 208.415 59.8494C206.553 57.706 204.729 55.5498 202.854 53.4318C201.885 52.3346 200.877 51.2501 199.857 50.2039C197.918 48.2135 195.903 46.2997 194.003 44.2711C192.268 42.4211 190.329 40.8645 188.174 39.5631C186.401 38.4914 184.641 37.4069 182.855 36.3607C182.014 35.8631 181.159 35.3655 180.241 35.021C177.537 34.0131 174.82 33.0817 172.091 32.1503C171.823 32.061 171.504 32.0866 171.121 32.0483L171.16 32.061Z" fill="#5AA445"/>
<path d="M95.3478 159.648C94.3912 160.145 93.2943 160.158 92.2102 160.171C90.3098 160.196 88.3967 160.235 86.4963 160.171C85.0295 160.12 83.5755 159.929 82.1088 159.775C81.8919 159.75 81.6879 159.686 81.4711 159.622C80.5272 159.316 79.9533 158.589 79.9661 157.721C79.9661 156.866 80.5783 156.101 81.5093 155.833C81.8665 155.731 82.2618 155.731 82.6317 155.731C83.0016 155.731 83.3715 155.795 83.7924 155.833C85.0423 153.996 85.9861 152.044 86.56 149.939C86.7896 149.096 86.8151 148.229 86.3177 147.412C85.3866 145.881 84.5066 144.325 83.5755 142.704C82.1853 143.623 80.7185 144.44 79.8385 145.958C79.6217 146.328 79.3538 146.698 79.0477 146.991C77.7595 148.229 76.9815 149.773 76.229 151.355C75.1322 153.664 73.9843 155.948 73.4358 158.487C73.1297 159.929 72.8236 161.37 72.9639 162.85C73.0277 163.539 73.2062 164.241 73.4486 164.892C73.8822 166.078 74.8005 166.652 76.0632 166.78C79.8002 167.163 83.5373 167.558 87.2871 167.686C88.2181 167.711 89.1364 167.75 90.0675 167.762C94.0979 167.801 98.1155 168.158 102.12 168.592C103.638 168.758 105.271 168.668 106.763 168.286C106.253 167.864 105.845 167.443 105.36 167.124C102.044 164.93 98.8808 162.531 95.8325 159.954C95.7049 159.852 95.5646 159.788 95.3478 159.661V159.648Z" fill="#92C6EA"/>
<path d="M44.3686 151.533C44.5216 151.087 44.5854 150.883 44.6492 150.678C46.3965 144.848 48.1439 139.017 49.8785 133.186C49.904 133.097 49.853 132.995 49.8275 132.791C49.6361 132.816 49.4321 132.791 49.2535 132.867C48.8964 132.995 48.552 133.148 48.2077 133.314C46.3966 134.22 44.4706 134.768 42.532 135.33C40.8101 135.84 39.1138 136.414 37.4557 137.078C35.1344 137.996 33.91 139.872 33.4636 142.258C33.3233 142.998 33.2723 143.776 33.2978 144.529C33.2978 145.065 33.4381 145.6 33.6167 146.111C33.8463 146.774 34.1651 147.399 34.4967 148.152C37.9149 148.548 41.129 149.836 44.3686 151.546V151.533Z" fill="#92C6EA"/>
<path d="M83.7541 92.8178C84.9785 92.435 86.0882 92.1926 87.1085 91.7461C89.8124 90.5595 91.5343 88.4543 92.4398 85.6857C92.6822 84.9329 92.6822 84.0781 92.7077 83.2615C92.7332 82.2791 92.6566 81.3094 92.6311 80.327C92.5674 77.4818 93.2816 74.8408 94.7611 72.4039C96.2406 69.9797 97.8859 67.7087 99.8756 65.6545C101.202 64.2894 102.388 62.7966 103.587 61.3166C104.977 59.5942 105.5 57.5655 105.449 55.3711C105.449 55.1797 105.36 54.9883 105.322 54.8224C104.901 54.7331 104.748 55.0011 104.569 55.1797C102.758 56.9914 100.921 58.7649 99.1614 60.6149C96.4192 63.5111 94.0596 66.7008 92.0699 70.1584C92.0444 70.2094 92.0189 70.2477 91.9934 70.2987C88.486 75.887 86.4325 82.075 84.7617 88.4033C84.4556 89.5643 84.1495 90.7126 83.8561 91.8736C83.7924 92.1161 83.7924 92.384 83.7541 92.805V92.8178Z" fill="#5AA445"/>
<path d="M67.1607 144.21C69.6733 143.406 72.0456 142.615 74.4307 141.888C75.9357 141.428 77.4662 141.084 78.984 140.688C80.1701 140.382 80.9481 139.604 81.5221 138.634C80.489 135.751 79.4942 132.944 78.4611 130.048C75.5658 130.009 72.6578 130.009 69.8264 130.979C68.8953 133.556 67.1097 142.245 67.1607 144.21Z" fill="#92C6EA"/>
<path d="M139.376 75.6575C142.195 74.7516 144.414 73.4119 146.353 71.613C148.789 69.3547 150.663 66.7264 151.837 63.6133C152.5 61.8653 152.819 60.0536 152.704 58.1781C152.526 55.2436 150.587 52.7684 148.138 52.0029C146.812 51.5818 145.46 51.5308 144.108 51.7987C141.837 52.2453 139.784 53.2022 137.922 54.6057C135.371 56.545 133.305 58.8926 131.787 61.725C130.907 63.3709 130.295 65.106 130.001 66.9433C129.657 69.0612 129.925 71.0643 131.022 72.9271C131.137 73.1185 131.226 73.3099 131.328 73.5013C131.341 73.5395 131.315 73.6033 131.302 73.6799C131.124 73.9478 130.83 73.7819 130.588 73.8075C130.32 73.833 130.04 73.8075 129.772 73.8075C128.292 73.8075 126.864 74.0244 125.448 74.5092C121.277 75.9509 120.028 79.7147 120.563 82.8789C120.818 84.3461 121.29 85.7241 122.017 87.0127C123.089 88.9265 124.619 90.3427 126.647 91.2103C128.509 92.0141 130.422 92.6393 132.476 92.4989C134.886 92.3458 137.195 91.7717 139.389 90.751C139.682 90.6106 139.975 90.4448 140.23 90.2534C141.11 89.59 141.353 88.5437 140.868 87.6506C140.422 86.8341 139.44 86.4386 138.47 86.732C138.164 86.8213 137.884 86.9999 137.59 87.1403C135.894 87.9441 134.096 88.3779 132.246 88.4417C130.295 88.5055 128.42 87.9441 126.94 86.681C125.142 85.1499 124.339 83.0958 124.619 80.6971C124.721 79.7658 125.257 79.1023 126.073 78.6558C127.042 78.1327 128.101 77.8902 129.198 77.8264C130.792 77.7244 132.348 77.954 133.892 78.3113C136.595 78.9365 139.21 79.8423 141.774 80.9268C142.271 81.1437 142.756 81.3861 143.266 81.5647C144.35 81.9475 145.345 81.5647 145.74 80.6334C146.11 79.7785 145.779 78.8982 144.771 78.3113C143.878 77.7882 142.947 77.3416 142.029 76.8823C141.251 76.4995 140.46 76.1551 139.401 75.6702L139.376 75.6575ZM144.592 55.9198C147.156 55.3201 148.521 56.277 148.687 58.7139C148.699 58.9819 148.712 59.2626 148.661 59.5305C148.47 60.4364 148.355 61.3678 148.023 62.2226C146.62 65.846 144.235 68.6657 140.881 70.6305C140.32 70.9623 139.733 71.243 139.121 71.4599C138.305 71.7533 137.463 71.983 136.57 71.9192C135.958 71.8681 135.397 71.6895 134.925 71.294C134.465 70.8985 134.147 70.4264 134.121 69.7247C137.016 68.5509 139.644 67.0964 141.442 64.4554C143.189 61.8909 144.363 59.1477 144.58 55.9198H144.592Z" fill="black"/>
<path d="M174.068 71.8937C174.042 70.5158 173.851 69.1889 173.341 67.9002C171.836 64.0726 167.627 62.7712 164.298 64.1237C164.094 64.2002 163.902 64.3533 163.698 64.3661C162.448 64.4809 161.428 65.1316 160.459 65.8206C155.293 69.4568 152.015 74.3561 150.88 80.6079C150.587 82.2282 150.651 83.8613 151.097 85.4562C151.977 88.6203 154.541 90.9041 158.405 90.649C160.357 90.5214 162.104 89.8069 163.749 88.8245C165.446 87.8165 166.912 86.5279 168.226 85.0607C170.994 81.9603 172.958 78.4389 173.749 74.3178C173.902 73.514 173.953 72.6975 174.042 71.8937H174.068ZM165.816 67.7344C166.211 67.6961 166.479 67.6833 166.734 67.6578C168.175 67.5175 169.297 68.3085 169.731 69.8523C170.203 71.4854 169.973 73.1058 169.527 74.6878C168.392 78.6813 166.173 81.9858 162.882 84.5248C162.028 85.1755 161.045 85.6858 160.076 86.1579C159.298 86.5407 158.431 86.732 157.538 86.6555C156.607 86.5789 155.867 86.1579 155.408 85.3286C154.872 84.3589 154.707 83.3127 154.834 82.3303C155.854 81.9986 156.773 81.8199 157.576 81.4244C159.005 80.7227 160.293 79.7786 161.301 78.541C162.857 76.6399 164.221 74.6113 165.229 72.353C165.803 71.0899 166.109 69.7758 165.803 68.3851C165.765 68.232 165.803 68.0661 165.803 67.7471L165.816 67.7344Z" fill="black"/>
<path d="M111.023 83.2617C111.176 90.2279 113.523 96.0714 118.012 101.022C122.68 106.164 128.496 109.238 135.396 110.221C141.965 111.152 148.061 109.876 153.661 106.304C154.439 105.806 155.191 105.245 155.867 104.632C156.645 103.918 156.76 103.076 156.326 102.259C155.842 101.341 154.796 100.92 153.826 101.353C153.342 101.57 152.895 101.915 152.462 102.234C149.605 104.352 146.403 105.691 142.909 106.202C137.348 107.031 132.055 106.061 127.17 103.255C121.66 100.09 117.808 95.51 115.972 89.3603C115.079 86.4003 114.849 83.3765 115.359 80.3144C115.436 79.8806 115.487 79.4468 115.474 79.013C115.461 77.9541 114.836 77.2268 113.867 77.061C112.911 76.8951 111.992 77.3927 111.661 78.3368C111.457 78.8982 111.342 79.4979 111.278 80.0848C111.15 81.2203 111.099 82.3686 111.023 83.2489V83.2617Z" fill="black"/>
<path d="M144.605 55.9324C144.388 59.1476 143.202 61.9035 141.468 64.468C139.669 67.109 137.042 68.5635 134.147 69.7373C134.172 70.4263 134.478 70.9111 134.95 71.3066C135.422 71.7021 135.983 71.8808 136.595 71.9318C137.488 72.0084 138.33 71.7659 139.146 71.4725C139.759 71.2556 140.345 70.9749 140.906 70.6432C144.261 68.6656 146.646 65.8459 148.049 62.2352C148.38 61.3804 148.495 60.449 148.687 59.5431C148.738 59.2879 148.725 58.9945 148.712 58.7266C148.546 56.2897 147.182 55.3328 144.618 55.9324H144.605Z" fill="white"/>
<path d="M165.815 67.7343C165.815 68.0533 165.79 68.2192 165.815 68.3723C166.122 69.763 165.815 71.0771 165.242 72.3402C164.221 74.5857 162.869 76.6271 161.313 78.5282C160.306 79.7658 159.017 80.7099 157.589 81.4116C156.785 81.8072 155.867 81.9985 154.847 82.3175C154.719 83.2999 154.885 84.3461 155.421 85.3158C155.867 86.1324 156.62 86.5534 157.551 86.6427C158.443 86.7193 159.298 86.5279 160.089 86.1451C161.058 85.673 162.053 85.1755 162.895 84.512C166.185 81.973 168.405 78.6685 169.54 74.6751C169.986 73.093 170.216 71.4854 169.744 69.8395C169.297 68.2957 168.175 67.5047 166.747 67.645C166.479 67.6705 166.211 67.6961 165.828 67.7216L165.815 67.7343Z" fill="white"/>
</svg>
