<svg width="417" height="304" viewBox="0 0 417 304" fill="none" xmlns="http://www.w3.org/2000/svg">
<mask id="mask0_559_4965" style="mask-type:alpha" maskUnits="userSpaceOnUse" x="0" y="83" width="417" height="221">
<path d="M346.451 268.602C371.669 254.225 395.258 234.94 407.995 208.855C420.731 182.767 420.461 148.957 401.71 126.796C385.559 107.702 359.61 100.494 335.064 95.7057C254.576 80.0072 171.112 79.7235 90.5219 94.8755C67.991 99.1114 44.7601 104.994 27.3053 119.857C0.807444 142.417 -6.35404 182.818 5.59978 215.502C17.5536 248.186 45.8753 273.103 77.8606 286.817C109.207 300.257 143.823 303.93 177.646 303.991C214.222 304.057 249.45 304.048 285.027 294.132C306.439 288.165 327.138 279.611 346.451 268.602Z" fill="white"/>
</mask>
<g mask="url(#mask0_559_4965)">
<path d="M346.451 268.602C371.669 254.225 395.258 234.94 407.995 208.855C420.731 182.767 420.461 148.957 401.71 126.796C385.559 107.702 359.61 100.494 335.064 95.7057C254.576 80.0072 171.112 79.7235 90.5219 94.8755C67.991 99.1114 44.7601 104.994 27.3053 119.857C0.807444 142.417 -6.35404 182.818 5.59978 215.502C17.5536 248.186 45.8753 273.103 77.8606 286.817C109.207 300.257 143.823 303.93 177.646 303.991C214.222 304.057 249.45 304.048 285.027 294.132C306.439 288.165 327.138 279.611 346.451 268.602Z" fill="#533F2C"/>
<path d="M348.718 164.983L347.123 165.465C337.172 168.548 329.701 172.414 304.287 186.616C283.628 198.161 271.059 221.188 272.964 242.934C275.046 266.71 293.455 283.822 325.401 287.245C357.644 290.699 385.297 277.794 400.893 254.738C415.666 232.9 416.544 206.037 402.104 186.783C396.613 179.462 391.173 173.947 385.645 170.056C374.438 162.168 362.831 160.822 348.718 164.983ZM384.938 171.06C390.353 174.871 395.703 180.296 401.121 187.52C415.229 206.33 414.37 232.625 399.876 254.05C384.533 276.731 357.322 289.429 325.531 286.023C294.147 282.661 276.216 265.993 274.187 242.827C272.325 221.569 284.644 199 304.886 187.688L312.311 183.551C332.944 172.102 339.452 168.995 349.065 166.161C362.837 162.101 374.057 163.402 384.938 171.06Z" fill="white"/>
<path d="M353.132 126.463C343.06 129.332 332.146 133.783 318.933 140.233L313.751 142.789C306.646 146.326 301.659 149.009 277.555 162.023C242.513 180.944 221.191 218.69 224.421 254.322C227.95 293.254 259.137 321.264 313.341 326.875C368.088 332.543 415.024 311.379 441.498 273.565C466.566 237.76 468.056 193.729 443.572 162.187C434.245 150.172 425.012 141.126 415.636 134.75C396.668 121.851 377.042 119.652 353.132 126.463ZM414.945 135.766C424.207 142.064 433.349 151.02 442.602 162.94C466.736 194.032 465.267 237.475 440.492 272.861C414.275 310.308 367.773 331.275 313.468 325.654C259.819 320.1 229.117 292.525 225.644 254.211C222.459 219.079 243.52 181.796 278.138 163.104L302.04 150.236C309.393 146.318 312.472 144.777 318.369 141.877C332.02 135.163 343.199 130.569 353.468 127.644C377.047 120.927 396.298 123.084 414.945 135.766Z" fill="white"/>
<path d="M346.127 191.527L344.883 191.886C339.186 193.59 334.702 195.8 320.067 203.555C307.881 210.012 300.462 222.9 301.588 235.09C302.821 248.43 313.702 258.021 332.516 259.933C351.477 261.859 367.751 254.657 376.937 241.782C385.655 229.562 386.173 214.508 377.638 203.716C374.407 199.632 371.203 196.551 367.942 194.375C361.318 189.954 354.452 189.199 346.127 191.527ZM367.26 195.397C370.406 197.496 373.519 200.489 376.674 204.478C384.851 214.816 384.353 229.272 375.937 241.068C367.01 253.582 351.166 260.593 332.64 258.711C314.379 256.856 303.986 247.695 302.811 234.977C301.732 223.294 308.883 210.871 320.642 204.64L326.29 201.66C337.161 195.96 340.942 194.27 346.209 192.779L346.457 192.709C354.456 190.473 360.954 191.188 367.26 195.397Z" fill="white"/>
<path d="M344.492 210.446L343.877 210.585C340.722 211.321 338.294 212.26 330.24 215.613C323.476 218.429 319.327 224.093 319.963 229.51C320.66 235.433 326.722 239.632 337.094 240.46C347.499 241.29 356.446 238.179 361.521 232.59C366.403 227.213 366.697 220.518 361.891 215.744C360.108 213.973 358.336 212.634 356.532 211.688C352.867 209.767 349.076 209.439 344.492 210.446ZM355.962 212.776C357.652 213.662 359.326 214.927 361.026 216.616C365.336 220.898 365.075 226.849 360.612 231.765C355.807 237.057 347.235 240.037 337.192 239.235C327.342 238.449 321.8 234.611 321.183 229.366C320.617 224.552 324.415 219.369 330.712 216.747L334.331 215.248C339.924 212.952 341.916 212.269 344.755 211.646C349.075 210.697 352.573 210.999 355.962 212.776Z" fill="white"/>
<path d="M262.709 -65.226C213.584 -55.401 149.376 -11.4281 101.787 41.8181C53.402 95.9556 36.2697 143.787 64.7802 160.661C105.078 184.51 160.524 184.51 231.093 160.714C304.159 122.957 348.874 86.8571 365.322 52.3167C378.263 25.1408 377.69 -9.26002 362.681 -33.7795C345.138 -62.4396 310.861 -74.8564 262.709 -65.226ZM361.634 -33.1383C376.417 -8.9881 376.982 24.9739 364.213 51.7887C347.909 86.0262 303.377 121.979 230.615 159.587C160.439 183.243 105.348 183.243 65.4058 159.604C37.9265 143.34 54.7982 96.2365 102.703 42.6366C150.131 -10.4291 214.126 -54.257 262.949 -64.0216C310.625 -73.5567 344.377 -61.3297 361.634 -33.1383Z" fill="white"/>
<path d="M249.248 -36.4518C213.27 -28.9798 166.273 4.4414 131.441 44.9108C95.9914 86.0968 83.4335 122.503 104.408 135.393C133.938 153.54 174.55 153.54 226.218 135.449C279.718 106.744 312.451 79.3029 324.5 53.0306C333.984 32.3496 333.564 6.17463 322.561 -12.4901C309.692 -34.3213 284.542 -43.7815 249.248 -36.4518ZM321.503 -11.8664C332.293 6.43727 332.706 32.1893 323.383 52.5186C311.474 78.4885 278.922 105.777 225.724 134.328C174.461 152.27 134.217 152.27 105.051 134.346C85.0682 122.066 97.3842 86.3613 132.372 45.712C167.043 5.42917 213.828 -27.8414 249.498 -35.2493C284.302 -42.4773 308.916 -33.2185 321.503 -11.8664Z" fill="white"/>
<path d="M235.844 -4.17285C212.369 0.60606 181.735 21.9598 159.029 47.8179C135.865 74.1984 127.642 97.565 141.481 105.901C160.767 117.519 187.269 117.519 220.959 105.956L223.036 104.856C256.706 86.9035 277.358 69.7303 285.07 53.246C291.275 39.9821 291.001 23.1976 283.797 11.2191C275.368 -2.79664 258.904 -8.86709 235.844 -4.17285ZM282.745 11.852C289.729 23.4652 289.996 39.8183 283.958 52.7255C276.23 69.2435 255.069 86.6319 220.473 104.832C187.181 116.251 161.041 116.251 142.114 104.849C129.288 97.123 137.26 74.4715 159.952 48.6283C182.497 22.9536 212.919 1.74745 236.089 -2.96936C258.666 -7.56525 274.601 -1.69007 282.745 11.852Z" fill="white"/>
<path d="M221.267 29.4525C211.395 31.8928 198.592 42.7303 189.103 55.8529L188.449 56.7677C179.223 69.8437 176.057 81.3212 181.878 85.579C190.026 91.5393 201.195 91.5393 215.325 85.6502C229.956 76.3143 238.882 67.4075 242.183 58.8394C244.789 52.075 244.674 43.527 241.643 37.4073C238.067 30.1856 231.036 27.0377 221.267 29.4525ZM240.543 37.9524C243.414 43.7502 243.524 51.9418 241.037 58.3978C237.85 66.671 229.094 75.4073 214.758 84.5659C201.081 90.2559 190.351 90.2559 182.603 84.5878C177.466 80.8306 180.75 69.5005 190.098 56.5726C199.433 43.6632 212.029 33.0013 221.562 30.6448C230.778 28.3667 237.225 31.2532 240.543 37.9524Z" fill="white"/>
<path d="M484.925 -114.33C422.453 -92.3492 386.475 -29.4107 391.482 37.514C393.866 69.3872 405.696 98.7703 425.606 120.687C447.284 144.549 477.552 158.689 514.571 160.745C551.206 162.781 578.363 146.069 594.483 114.682C608.855 86.6996 613.547 48.254 608.247 8.83129C603.008 -30.1495 588.488 -66.2534 567.917 -89.8404C545.086 -116.019 516.403 -125.406 484.925 -114.33ZM566.992 -89.0331C587.391 -65.6431 601.82 -29.7626 607.03 8.9949C612.298 48.1859 607.637 86.3829 593.391 114.121C577.485 145.089 550.774 161.526 514.639 159.519C477.939 157.48 447.974 143.482 426.515 119.861C406.796 98.1551 395.071 69.0317 392.707 37.4223C387.739 -28.9762 423.414 -91.3855 485.332 -113.172C516.307 -124.07 544.474 -114.852 566.992 -89.0331Z" fill="white"/>
<path d="M359.38 92.1936C354.1 98.6462 354.394 104.345 359.293 108.701C363.235 112.204 370.06 114.608 376.988 115.301C389.714 116.573 398.64 105.098 394.832 92.406C390.868 79.1926 370.397 78.7273 359.38 92.1936ZM393.656 92.7589C397.217 104.63 388.948 115.262 377.11 114.079C370.417 113.409 363.829 111.089 360.109 107.783C355.713 103.875 355.459 98.9253 360.33 92.9713C370.792 80.185 390.014 80.6219 393.656 92.7589Z" fill="white"/>
<path d="M7.14968 225.88C-44.0686 245.446 -72.0353 284.353 -73.3833 330.523C-74.6359 373.424 -52.1892 416.332 -15.075 440.669C26.9222 468.208 81.0346 482.403 123.862 473.611C176.584 462.787 209.144 419.662 213.087 341.933C217.124 262.352 196.641 218.482 154.33 204.378C119.568 192.791 71.9886 201.11 7.14968 225.88ZM153.941 205.543C195.637 219.441 215.872 262.782 211.861 341.871C207.945 419.07 175.755 461.704 123.615 472.408C81.1391 481.128 27.3443 467.017 -14.4016 439.642C-51.1594 415.539 -73.3958 373.033 -72.1557 330.559C-70.8222 284.887 -43.1694 246.418 7.58798 227.027C72.1778 202.352 119.531 194.073 153.941 205.543Z" fill="white"/>
<path d="M23.5056 254.879C-14.4134 269.371 -35.1263 298.198 -36.1246 332.405C-37.0521 364.186 -20.4328 395.968 7.04712 413.995C38.1229 434.381 78.1625 444.889 109.865 438.378C148.911 430.358 173.027 398.404 175.945 340.855C178.932 281.942 163.759 249.432 132.404 238.976C106.664 230.392 71.4649 236.549 23.5056 254.879ZM132.016 240.141C162.755 250.392 177.68 282.372 174.718 340.793C171.827 397.812 148.082 429.275 109.618 437.175C78.2669 443.614 38.5451 433.189 7.7208 412.968C-19.4029 395.174 -35.812 363.794 -34.897 332.441C-33.9132 298.733 -13.5141 270.342 23.944 256.026C71.6541 237.792 106.626 231.674 132.016 240.141Z" fill="white"/>
<path d="M34.2841 273.722C5.13002 284.917 -10.8017 307.196 -11.5695 333.629C-12.2827 358.182 0.49544 382.734 21.6256 396.662C45.504 412.401 76.2696 420.513 100.641 415.484C130.675 409.286 149.225 384.59 151.467 340.155C153.762 294.672 142.09 269.544 117.955 261.457C98.1596 254.825 71.1195 259.577 34.2841 273.722ZM117.565 262.622C141.084 270.502 152.511 295.102 150.24 340.093C148.025 383.999 129.844 408.203 100.393 414.281C76.3745 419.237 45.9278 411.209 22.3015 395.636C1.52655 381.943 -11.0426 357.792 -10.3418 333.664C-9.58847 307.729 6.03091 285.887 34.7244 274.868C71.3096 260.82 98.1219 256.107 117.565 262.622Z" fill="white"/>
<path d="M54.2267 309.424C41.2874 314.371 34.1989 324.241 33.8574 335.946C33.5405 346.808 39.2143 357.663 48.5988 363.822C59.1612 370.754 72.7682 374.326 83.5751 372.106C96.9348 369.361 105.19 358.418 106.183 338.829C107.198 318.792 102 307.649 91.2225 304.053C82.4263 301.119 70.4816 303.209 54.2267 309.424ZM90.8339 305.218C100.996 308.608 105.947 319.221 104.956 338.767C103.99 357.826 96.1056 368.277 83.328 370.903C72.8728 373.051 59.5835 369.562 49.2727 362.795C40.2443 356.87 34.7806 346.417 35.0851 335.982C35.412 324.775 42.1868 315.342 54.6653 310.571C70.671 304.451 82.3888 302.401 90.8339 305.218Z" fill="white"/>
<path d="M-53.1485 7.32504C-105.323 41.5643 -112.291 111.209 -74.2064 216.108L-72.8996 219.673L-72.4996 219.697C-18.2108 222.988 14.809 207.303 26.3741 172.608C35.5065 145.211 34.4528 90.605 23.0036 51.267C8.92067 2.87938 -17.3609 -16.1606 -53.1485 7.32504ZM21.8244 51.6102C33.2077 90.7222 34.2567 145.076 25.2089 172.22L24.8618 173.236C13.3141 206.272 -18.5208 221.392 -70.8179 218.564L-72.0252 218.494L-71.8863 218.872C-111.101 112.666 -104.578 42.5445 -52.4747 8.35186C-17.552 -14.5662 7.93884 3.90085 21.8244 51.6102Z" fill="white"/>
<path d="M-64.4508 40.902C-103.573 68.0855 -108.794 123.338 -80.267 206.533L-79.2581 209.447L-78.8517 209.473C-38.1384 212.086 -13.3455 199.617 -4.66669 172.049C2.17692 150.311 1.38762 107.006 -7.18893 75.8053C-17.7536 37.3715 -37.5338 22.1989 -64.4508 40.902ZM-8.37318 76.1308C0.144287 107.117 0.929253 150.184 -5.83818 171.68L-6.09746 172.485C-14.7219 198.609 -38.4859 210.559 -77.5718 208.321L-78.3676 208.272L-78.2325 208.658C-107.576 124.512 -102.697 68.9724 -63.75 41.9106C-37.7281 23.8295 -18.7478 38.3886 -8.37318 76.1308Z" fill="white"/>
</g>
<path d="M281.238 40.0532C282.644 42.2592 283.525 44.6567 283.984 47.2302C284.66 51.0561 284.552 54.8887 284.114 58.725C283.657 62.7357 282.518 66.5662 280.958 70.2758C279.898 72.8025 278.808 75.3074 277.734 77.8297C275.777 82.4431 274.327 87.217 273.127 92.0718C272.42 94.9208 271.705 97.7643 270.797 100.558C269.484 104.626 267.712 108.46 265.22 111.948C263.67 114.121 261.899 116.102 259.991 117.96C254.59 123.194 248.702 127.829 242.485 132.046C239.482 134.083 236.214 135.599 232.883 137.007C227.692 139.203 222.398 141.119 217.064 142.941C214.473 143.828 211.841 144.582 209.162 145.199C207.886 145.491 206.62 145.848 205.342 146.127C203.209 146.595 201.051 146.948 198.863 147.062C197.356 147.138 195.849 147.215 194.339 147.187C191.504 147.128 188.884 146.398 186.393 145.002C184.387 143.882 182.807 142.401 181.55 140.522C181.173 139.959 180.81 139.395 180.457 138.815C178.932 136.305 178.309 133.565 178.324 130.636C178.334 129.013 178.204 127.385 178.096 125.767C177.985 124.129 177.458 122.581 176.914 121.049C175.813 117.946 174.7 114.852 173.586 111.752C172.955 109.995 172.262 108.268 171.782 106.462C171.167 104.163 170.655 101.848 170.431 99.4694C170.143 96.4152 170.167 93.373 170.429 90.3279C170.816 85.8598 172.295 81.7473 174.567 77.9034C176.646 74.392 179.177 71.2535 182.315 68.6232C183.467 67.6512 184.619 66.6792 185.763 65.6953C188.244 63.5599 191.034 61.8983 193.883 60.32C194.516 59.9672 195.08 59.5522 195.614 59.0758C196.945 57.8857 198.299 56.7249 199.573 55.4643C200.789 54.2651 201.999 53.0668 203.069 51.725C203.54 51.1331 204.074 50.6106 204.685 50.1556C205.13 49.831 205.485 49.3884 205.89 49.0108C213.068 42.1831 216.198 39.3298 226.031 34.4531C229.302 32.8306 232.643 31.3559 236.091 30.1549C238.078 29.4651 240.09 28.8441 242.13 28.3243C244.055 27.8285 245.982 27.3456 247.952 27.0604C251.002 26.625 254.047 26.6779 257.093 27.0802C261.083 27.6097 264.986 28.4819 268.747 29.9358C269.413 30.1909 270.09 30.4311 270.692 30.8277C270.706 31.4846 270.161 31.7648 269.783 32.1385C268.17 33.7273 268.097 35.5839 269.841 37.0599C272.502 39.313 275.552 40.5649 279.149 40.0795C279.835 39.9888 280.532 39.6658 281.237 40.0468L281.238 40.0532Z" fill="#FEBD11"/>
<path d="M281.267 40.0512C280.45 40.1883 279.63 40.3124 278.808 40.4633C277.734 40.6523 276.678 40.5683 275.632 40.2916C274.29 39.9345 272.99 39.4655 271.751 38.8356C270.971 38.4396 270.244 37.9564 269.616 37.3461C268.66 36.4096 268.179 35.2893 268.309 33.9315C268.359 33.3965 268.542 32.9534 268.947 32.5757C269.555 32.0156 270.13 31.4143 270.722 30.8368C272.284 29.6509 274.004 28.7642 275.881 28.2097C277.827 27.6316 279.806 27.2329 281.831 27.091C283.412 26.9769 284.99 26.8038 286.583 26.9846C287.934 27.1425 289.224 27.501 290.44 28.1145C293.324 29.5763 294.234 33.4202 291.55 35.9955C290.675 36.8335 289.64 37.4121 288.492 37.7639C286.222 38.4637 283.939 39.1258 281.659 39.8073C281.52 39.8481 281.399 39.9653 281.267 40.0512Z" fill="#48873E"/>
<path d="M238.665 58.858C238.875 60.1047 238.772 61.1552 238.414 62.1847C238.147 62.9435 237.726 63.6069 237.106 64.1292C236.065 65.0053 234.657 65.1658 233.446 64.545C232.328 63.9696 231.623 63.022 231.211 61.8848C230.821 60.7971 230.675 59.6659 230.847 58.4998C230.99 57.5356 231.348 56.6839 231.959 55.9258C233.08 54.5303 234.905 54.2077 236.413 55.1788C237.54 55.8979 238.16 56.9771 238.529 58.2261C238.609 58.4908 238.645 58.7688 238.666 58.8644L238.665 58.858Z" fill="#010100"/>
<path d="M225.514 56.0564C223.125 56.4512 221.008 54.8668 220.384 52.4696C220.194 51.7405 220.615 51.0374 221.324 50.752C221.946 50.4997 222.658 50.7543 223.054 51.3997C223.176 51.5986 223.27 51.8218 223.356 52.0394C223.475 52.3444 223.665 52.5925 223.908 52.7996C224.41 53.2312 224.98 53.2898 225.558 52.9715C226.479 52.4696 226.874 51.6386 227 50.6505C227.038 50.335 227.015 50.0154 227.061 49.7054C227.172 48.9634 227.728 48.4112 228.363 48.3744C229.07 48.3333 229.749 48.85 229.939 49.5727C229.97 49.6867 229.995 49.8081 229.993 49.927C230.019 52.263 229.202 54.1731 227.174 55.4689C226.663 55.7968 226.093 55.9556 225.5 56.0519L225.514 56.0564Z" fill="#020200"/>
<path d="M243.311 46.5235C243.451 48.44 242.935 50.1198 241.489 51.4593C240.656 52.2314 239.664 52.5662 238.554 52.5628C237.689 52.562 236.926 52.2359 236.272 51.6693C235.428 50.9403 234.96 49.996 234.749 48.9141C234.688 48.6004 234.692 48.2833 234.79 47.9719C234.987 47.362 235.473 46.9523 236.097 46.9304C236.708 46.9103 237.177 47.1754 237.452 47.7204C237.594 48.0021 237.656 48.3223 237.773 48.6143C237.859 48.832 237.941 49.0635 238.075 49.2476C238.372 49.6376 238.816 49.6955 239.232 49.4348C239.883 49.0265 240.198 48.4054 240.338 47.6789C240.423 47.2441 240.378 46.816 240.357 46.3775C240.315 45.5006 240.824 44.8963 241.628 44.8008C242.42 44.7074 243.041 45.1868 243.244 46.0457C243.281 46.1984 243.293 46.3614 243.316 46.516L243.311 46.5235Z" fill="#020200"/>
<path d="M236.404 72.6034C235.101 72.7216 233.707 72.3723 232.486 71.4234C232.029 71.0707 231.68 70.6424 231.744 70.0197C231.833 69.1361 232.742 68.2997 233.845 68.8182C234.058 68.9178 234.253 69.0663 234.445 69.202C235.465 69.9176 236.812 69.6147 237.552 69.0084C238.25 68.4346 238.7 67.7073 239.009 66.8761C239.144 66.5062 239.242 66.1091 239.436 65.7766C239.796 65.155 240.436 64.9329 241.07 65.1468C241.766 65.3841 242.168 65.9825 242.104 66.6908C241.874 69.2503 239.482 71.9658 236.978 72.5164C236.863 72.5405 236.739 72.5526 236.404 72.6034Z" fill="#020200"/>
<path d="M270.607 52.2855C270.9 52.2148 271.19 52.2961 271.448 52.5142C271.788 52.7987 271.999 53.1821 272.238 53.5412C272.333 53.6851 272.317 53.8391 272.274 53.9906C272.095 54.6768 271.684 55.1872 271.06 55.5124C270.246 55.9322 269.207 55.2657 269.089 54.2752C268.977 53.3694 269.668 52.4475 270.608 52.2919L270.607 52.2855Z" fill="#D6AC29"/>
<path d="M276.917 58.2347C276.837 58.2271 276.759 58.2324 276.683 58.2109C275.358 57.8777 274.902 56.7077 275.595 55.4559C275.839 55.017 276.33 54.8174 276.787 54.8273C277.417 54.844 277.893 55.2398 278.14 55.8219C278.428 56.4966 277.721 57.9614 277.024 58.1987C276.986 58.211 276.948 58.2169 276.91 58.2292L276.917 58.2347Z" fill="#D6AC29"/>
<path d="M274.616 49.4177C274.472 48.5168 274.696 47.9491 275.352 47.5795C275.947 47.239 276.678 47.4381 276.977 48.0585C277.22 48.5687 277.31 49.1153 277.152 49.6796C276.986 50.2782 276.43 50.7446 275.876 50.7494C275.255 50.751 274.82 50.3623 274.654 49.6625C274.642 49.5852 274.63 49.5079 274.617 49.4241L274.616 49.4177Z" fill="#D6AB29"/>
<path d="M233.777 60.0925C233.666 59.3646 233.75 58.7061 234.032 58.09C234.301 57.5155 234.716 57.4659 235.116 57.9259C235.461 58.3283 235.634 58.8096 235.749 59.3061C235.903 59.9682 235.834 60.6377 235.588 61.2746C235.474 61.5686 235.324 61.8813 234.964 61.9029C234.657 61.923 234.475 61.6804 234.321 61.4533C234.025 61.0301 233.828 60.5592 233.777 60.0925Z" fill="#F5B816"/>
<path d="M116.38 39.5572C116.006 40.5343 115.632 41.5114 115.258 42.4885C115.051 42.4422 114.911 42.4419 114.807 42.3875C113.364 41.5917 111.871 40.8851 110.31 40.3415C110.145 40.2813 110.002 40.1564 109.845 40.0594C110.95 39.7339 112.1 39.7593 113.236 39.6733C114.279 39.5895 115.333 39.5934 116.38 39.5572Z" fill="#C63827"/>
<path d="M124.083 40.1068C122.698 40.8186 121.311 41.5377 119.926 42.2495C119.364 42.5417 118.802 42.834 118.164 43.1555C118.042 42.3847 118.446 41.8635 118.624 41.2761C118.799 40.7035 118.979 40.1399 119.154 39.5673C120.183 39.6507 121.211 39.7341 122.234 39.8085C122.859 39.8557 123.486 39.8956 124.084 40.0994L124.083 40.1068Z" fill="#C53827"/>
<path d="M129.294 40.8723C130.99 41.299 132.706 41.6683 134.388 42.1614C136.331 42.7288 138.262 43.3551 140.161 44.052C143.272 45.1908 146.327 46.4721 149.263 48.013C154.205 50.6002 158.619 53.851 162.185 58.182C164.515 61.0045 166.402 64.1071 168.045 67.3642C170.559 72.3421 172.842 77.4154 174.771 82.6495C177.183 89.192 178.804 95.937 179.547 102.864C179.977 106.895 179.909 110.938 179.585 114.978C179.358 117.823 178.905 120.641 178.392 123.446C177.878 126.258 177.116 128.999 175.89 131.598C173.899 135.806 170.858 139.027 166.833 141.346C162.157 144.039 157.084 145.357 151.705 145.615C148.969 145.745 146.285 145.437 143.65 144.668C141.961 144.173 140.385 143.418 138.813 142.647C136.67 141.586 134.514 140.545 132.272 139.717C128.474 138.323 124.571 137.534 120.511 137.584C117.751 137.615 115.151 138.349 112.649 139.476C111.131 140.158 109.692 140.974 108.262 141.815C106.914 142.605 105.562 143.41 104.187 144.147C101.939 145.354 99.5249 145.743 96.9798 145.575C92.5773 145.285 88.6422 143.706 85.0351 141.286C78.9017 137.162 74.4186 131.696 71.8479 124.723C69.4153 118.137 68.2496 111.331 68.2776 104.321C68.2947 99.6781 68.5284 95.0374 68.9222 90.4093C69.2507 86.5565 69.791 82.7279 70.63 78.9508C71.3458 75.7579 72.3668 72.6567 73.4526 69.5777C74.6555 66.1842 76.1798 62.948 77.9494 59.8287C78.5808 58.7079 79.2473 57.6027 79.9328 56.5173C80.9112 54.9554 82.1569 53.585 83.3976 52.2368C84.4525 51.0948 85.5672 49.9972 86.7516 48.9694C88.7539 47.2343 90.946 45.8283 93.3208 44.6802C97.1923 42.8065 101.254 41.5022 105.481 40.7073C106.135 40.6292 106.599 41.0819 107.137 41.3109C109.125 42.1669 110.999 43.2531 112.978 44.146C113.379 44.3288 113.909 44.5251 113.853 45.0856C113.807 45.5323 113.355 45.7174 112.975 45.8879C111.053 46.7813 109.177 47.7469 107.38 48.8775C107.226 48.9747 107.06 49.0612 106.917 49.1765C106.451 49.5599 105.571 49.8195 106.028 50.6189C106.441 51.3387 107.191 50.9649 107.763 50.6981C109.391 49.9401 111.062 49.2691 112.624 48.3881C115.552 46.7444 118.624 46.9142 121.749 47.4366C122.885 47.6292 123.993 47.9473 125.122 48.1694C125.657 48.2739 126.321 48.4614 126.483 47.7002C126.629 47.0513 126.084 46.7124 125.538 46.5202C124.495 46.1548 123.383 46.0294 122.32 45.7213C121.897 45.6032 121.31 45.5568 121.272 44.9985C121.235 44.541 121.726 44.3569 122.088 44.1593C123.993 43.138 125.947 42.2053 127.841 41.1585C128.274 40.9226 128.742 40.6711 129.279 40.869L129.294 40.8723Z" fill="#C73426"/>
<path d="M129.294 40.8723C127.165 41.9596 125.03 43.0451 122.905 44.1488C122.396 44.4141 121.822 44.5874 121.387 44.9701C121.515 45.3319 121.782 45.2833 121.982 45.328C123.06 45.5697 124.143 45.7893 125.216 46.0531C125.615 46.1425 126.015 46.2942 126.376 46.4835C126.916 46.7749 127.173 47.3902 127.035 47.8703C126.867 48.4446 126.309 48.7917 125.621 48.6763C124.941 48.5625 124.263 48.4028 123.596 48.23C122.253 47.8902 120.904 47.6421 119.527 47.4883C118.369 47.3604 117.234 47.5473 116.083 47.4906C115.614 47.4708 115.107 47.7287 114.649 47.9359C112.596 48.8618 110.55 49.8205 108.501 50.7628C108.042 50.9774 107.587 51.2084 107.113 51.3811C106.398 51.6312 105.756 51.3479 105.507 50.7268C105.339 50.3018 105.376 49.892 105.703 49.578C105.968 49.3277 106.272 49.1169 106.586 48.9241C108.713 47.6352 110.885 46.426 113.158 45.4177C113.365 45.3247 113.601 45.2769 113.703 45.0287C113.71 44.7902 113.489 44.7717 113.342 44.7001C111.367 43.7227 109.394 42.7307 107.395 41.7869C106.728 41.4748 106.032 41.2257 105.49 40.7015C105.481 40.5679 105.458 40.431 105.458 40.2916C105.455 39.2301 106.169 38.6775 107.156 39.0149C107.717 39.2104 108.251 39.4927 108.798 39.7161C109.139 39.8545 109.49 39.9487 109.844 40.0667C111.174 40.1869 112.363 40.7321 113.536 41.3126C114.967 42.0207 114.974 42.0223 115.588 40.6342C115.776 40.2117 115.932 39.7898 116.377 39.5719C116.546 39.1993 116.694 38.8144 116.876 38.4525C117.044 38.1184 117.276 37.8451 117.645 37.7189C118.268 37.5022 119.009 37.862 119.15 38.5132C119.221 38.8543 119.152 39.2337 119.141 39.5952C119.427 40.8754 118.764 41.865 118.266 42.7681C120.088 41.9064 121.859 40.5454 124.07 40.1273C125.567 39.4715 127.073 38.81 128.569 38.1542C128.862 38.0261 129.154 37.8981 129.46 37.8119C130.131 37.6215 130.726 37.84 130.998 38.3579C131.269 38.8757 131.127 39.5098 130.605 39.935C130.18 40.2734 129.725 40.5741 129.283 40.8854L129.294 40.8723Z" fill="#006937"/>
<path d="M143.982 81.3232C144.108 81.3514 144.386 81.3905 144.647 81.4722C146.184 81.9486 146.768 83.3573 146.008 84.7435C145.07 86.4694 141.603 87.8529 139.542 86.7713C136.99 85.4246 137.732 82.9113 139.22 81.9826C140.644 81.0938 142.186 80.789 143.984 81.3159L143.982 81.3232Z" fill="#030100"/>
<path d="M138.296 98.2479C136.544 97.8629 135.187 96.9239 134.232 95.4086C133.974 95.0022 133.85 94.5872 134.005 94.1031C134.276 93.2733 135.261 92.9984 135.88 93.594C136.077 93.7854 136.235 94.0145 136.395 94.2362C137.671 96.0866 140.568 96.3798 142.247 95.5326C142.904 95.1996 143.52 94.8034 144.054 94.2881C144.251 94.1 144.452 93.8972 144.695 93.7813C145.076 93.6034 145.475 93.5535 145.859 93.8486C146.271 94.1577 146.441 94.5368 146.351 95.0432C146.272 95.4668 146.05 95.7967 145.744 96.0919C143.633 98.1046 141.176 98.8936 138.297 98.2406L138.296 98.2479Z" fill="#040100"/>
<path d="M139.047 71.9922C138.877 72.9607 138.352 73.8113 137.584 74.5064C136.941 75.0902 136.186 75.3779 135.3 75.1793C134.414 74.9806 133.847 74.4277 133.548 73.586C133.391 73.1406 133.341 72.6724 133.404 72.2217C133.581 70.8753 134.083 69.6402 134.946 68.5945C135.509 67.9154 136.385 67.7787 137.216 67.81C137.954 67.8363 138.45 68.3579 138.815 68.9816C139.363 69.9255 139.32 70.9148 139.04 71.9905L139.047 71.9922Z" fill="#030100"/>
<path d="M146.209 72.6685C146.326 71.9745 146.651 71.3579 146.994 70.7611C147.275 70.2666 147.708 69.9298 148.306 69.8549C148.577 69.8227 148.854 69.7995 149.126 69.7288C149.957 69.5126 150.559 69.8721 151.061 70.4724C151.556 71.0637 151.735 71.7543 151.75 72.5167C151.782 74.0726 150.654 75.9186 149.283 76.5329C148.146 77.037 147.054 76.6837 146.45 75.6111C146.265 75.291 146.125 74.9496 146.101 74.5725C146.077 74.2962 146.03 74.0223 146.053 73.7486C146.08 73.3831 146.161 73.0217 146.219 72.6628L146.209 72.6685Z" fill="#040100"/>
<path d="M143.36 83.9253C142.63 84.4819 141.836 84.7376 140.938 84.629C140.772 84.6074 140.561 84.5446 140.556 84.3266C140.551 84.2093 140.624 84.0554 140.71 83.9818C141.172 83.582 141.739 83.407 142.33 83.3304C142.786 83.2699 143.056 83.5861 143.359 83.9327L143.36 83.9253Z" fill="#C03426"/>
<path d="M340.778 47.485C339.536 46.7573 338.291 46.0361 337.049 45.3084C335.377 44.3333 333.585 43.6653 331.702 43.2302C329.611 42.7463 327.555 42.8695 325.531 43.5836C323.914 44.1555 322.445 45.0017 321.041 45.9646C319.278 47.1707 317.649 48.5492 316.113 50.0339C313.672 52.3911 311.331 54.8416 309.351 57.6182C308.409 58.9301 307.577 60.3092 306.779 61.7036C305.443 64.0467 304.176 66.4296 302.841 68.7727C301.676 70.8169 300.472 72.8269 299.272 74.8464C298.337 76.414 297.376 77.9695 296.435 79.534C294.668 82.4808 292.785 85.3572 290.842 88.1904C288.113 92.1712 285.269 96.0751 282.29 99.8771C280.14 102.614 277.858 105.242 275.28 107.59C273.797 108.942 272.244 110.206 270.532 111.254C266.625 113.639 262.633 115.865 258.366 117.562C254.226 119.207 249.98 120.503 245.61 121.387C243.507 121.812 241.392 122.026 239.256 122.065C237.687 122.092 236.122 122.144 234.558 122.244C232.776 122.353 230.989 122.357 229.204 122.354C229.031 122.353 228.852 122.38 228.681 122.34C226.809 121.879 224.879 121.95 222.976 121.727C221.889 121.6 220.802 121.661 219.723 121.806C219.385 121.853 219.038 121.952 218.722 122.089C216.916 122.912 216.995 125.07 218.161 125.96C219.338 126.862 220.502 127.774 221.863 128.399C223.646 129.221 225.435 130.03 227.199 130.891C230.333 132.428 233.491 133.913 236.557 135.576C239.132 136.971 241.761 138.234 244.421 139.448C247.401 140.803 250.43 142.039 253.527 143.094C255.585 143.8 257.688 144.392 259.761 145.049C260.803 145.376 261.826 145.742 262.861 146.097C266.496 147.339 270.231 148.194 274.012 148.85C274.91 149.007 275.821 149.139 276.702 149.368C277.351 149.536 277.987 149.596 278.639 149.536C280.761 149.341 282.889 149.133 285.026 149.347C285.367 149.379 285.72 149.315 286.061 149.245C289.609 148.515 293.119 147.664 296.502 146.337C296.781 146.231 297.043 146.076 297.318 145.944C297.152 145.417 296.655 145.297 296.248 145.068C295.127 144.436 294.233 143.555 293.542 142.492C293.16 141.904 293.064 141.245 293.713 140.75C294.371 140.252 294.965 140.521 295.408 141.098C296.074 141.959 296.786 142.772 297.689 143.397C298.49 143.951 298.089 144.829 298.299 145.549C300.129 144.895 301.87 144.057 303.523 143.053C302.707 142.073 301.448 141.669 300.56 140.759C299.434 139.612 298.149 138.62 297.141 137.339C296.872 137.001 296.586 136.663 296.414 136.252C296.111 135.527 295.947 134.742 296.718 134.257C297.54 133.748 298.085 134.309 298.534 134.975C299.786 136.835 301.401 138.391 303.105 139.807C304.103 140.634 304.584 141.402 304.309 142.638C304.752 142.568 305.107 142.299 305.475 142.084C311.082 138.867 316.289 135.116 321.05 130.725C326.14 126.037 330.883 121.006 335.597 115.954C337.328 114.102 338.807 112.063 339.991 109.823C340.805 108.278 341.737 106.819 342.704 105.369C344.451 102.768 346.34 100.272 348.127 97.7058C349.317 95.9969 350.628 94.3679 351.665 92.548C353.202 89.857 354.527 87.0758 355.554 84.1556C356.502 81.4742 357.146 78.7307 357.3 75.8854C357.598 70.371 356.52 65.1467 353.826 60.2896C353.21 59.1834 352.46 58.1639 351.703 57.1575C349.678 57.7213 347.735 57.6525 345.797 56.6718C343.829 55.6695 342.572 54.2095 342.252 52.0106C342.079 50.8027 341.823 49.6194 341.463 48.4582C341.339 48.0617 341.325 47.5661 340.759 47.492L340.778 47.485Z" fill="#DD6026"/>
<path d="M340.778 47.485C341.254 48.5663 341.524 49.7011 341.747 50.8533C341.868 51.4931 341.964 52.1368 342.085 52.7766C342.405 54.534 343.529 55.7192 344.977 56.5981C345.9 57.1617 346.924 57.5434 348.001 57.7765C349.342 58.0695 350.589 57.9716 351.725 57.1441C351.965 56.696 352.353 56.4743 352.818 56.2729C355.524 55.1115 357.934 53.4814 360.143 51.5528C360.799 50.975 361.383 50.3321 361.894 49.6239C362.254 49.1213 362.514 48.58 362.57 47.9514C362.706 46.4695 361.705 45.4281 360.211 45.5135C359.584 45.553 359.014 45.7604 358.474 46.0535C357.786 46.4273 357.106 46.8202 356.459 47.2601C355.199 48.1166 353.969 49.0108 352.722 49.8893C352.512 50.0358 352.342 50.2484 352.035 50.2791C351.796 50.1129 351.973 49.9033 352.035 49.7352C352.305 49.0016 352.605 48.2736 352.881 47.543C353.69 45.3805 354.395 43.1857 354.784 40.9067C354.927 40.0901 355.009 39.2688 354.847 38.4446C354.694 37.6873 354.355 37.0566 353.651 36.6662C352.948 36.2758 352.24 36.2694 351.53 36.6567C350.946 36.9765 350.496 37.4527 350.114 37.9846C349.042 39.4727 348.202 41.0921 347.469 42.7694C347.249 43.2745 347.001 43.7739 346.766 44.2794C346.43 44.1862 346.495 43.8773 346.459 43.6479C346.108 41.5842 345.778 39.5231 345.417 37.4628C345.229 36.3897 344.961 35.3348 344.576 34.3118C344.361 33.7386 344.104 33.1856 343.731 32.6967C342.472 31.0544 340.63 31.1589 339.586 32.9438C339.207 33.5876 339.049 34.3182 338.929 35.0509C338.749 36.134 338.742 37.2188 338.832 38.301C339.015 40.5229 339.542 42.6842 340.117 44.8282C340.357 45.7047 340.706 46.5527 340.784 47.472L340.778 47.485Z" fill="#79AD50"/>
<path d="M304.322 142.644C304.415 142.308 304.729 142.108 304.789 141.725C304.911 140.97 304.799 140.548 304.132 140.198C303.693 139.97 303.332 139.676 302.999 139.339C301.87 138.199 300.734 137.056 299.621 135.899C299.264 135.528 298.925 135.118 298.744 134.608C298.653 134.361 298.519 134.14 298.274 134.003C297.724 133.692 297.163 133.454 296.558 133.819C295.925 134.195 295.725 134.796 295.803 135.494C295.867 136.068 296.119 136.564 296.462 137.031C297.571 138.556 298.987 139.775 300.382 141.023C300.477 141.107 300.61 141.161 300.693 141.255C301.456 142.146 302.47 142.633 303.526 143.046C303.842 143.012 304.101 142.864 304.318 142.634L304.322 142.644Z" fill="#AA4C24"/>
<path d="M298.306 145.552C298.396 145.358 298.509 145.166 298.567 144.957C298.783 144.205 298.593 143.526 297.934 143.125C296.978 142.53 296.288 141.736 295.669 140.825C294.976 139.801 293.549 139.878 292.985 140.955C292.672 141.543 292.844 142.175 293.211 142.677C294.079 143.885 295.079 144.981 296.499 145.579C296.785 145.696 297.052 145.836 297.331 145.966C297.695 145.915 298.028 145.794 298.309 145.562L298.306 145.552Z" fill="#AA4C24"/>
<path d="M316.076 73.1416C315.437 74.3972 315.27 75.7071 315.524 77.0792C315.793 78.5052 316.489 79.6093 317.964 80.0043C319.489 80.414 320.832 80.0063 321.832 78.7921C323.051 77.3096 323.727 75.6371 323.576 73.6511C323.515 72.8817 323.441 72.1926 322.943 71.5983C322.418 70.9758 321.755 70.6355 320.961 70.4396C319.002 69.9457 317.425 70.5837 316.457 72.341C316.311 72.6041 316.2 72.8919 316.08 73.1511L316.076 73.1416Z" fill="#010100"/>
<path d="M313.756 88.2167C317.158 89.6183 320.504 89.6617 323.756 87.7688C324.707 87.2182 325.457 86.4395 326.111 85.5611C326.363 85.2214 326.442 84.8482 326.418 84.4585C326.312 83.2424 325.191 82.4762 323.953 83.2169C323.701 83.3678 323.487 83.6071 323.305 83.8457C322.311 85.1333 320.927 85.6956 319.376 85.9042C317.196 86.1907 315.252 85.562 313.518 84.243C313.243 84.0361 312.996 83.7869 312.674 83.6453C312.051 83.3711 311.295 83.4844 310.873 83.9662C310.442 84.4515 310.295 85.0218 310.544 85.6581C310.676 85.9873 310.895 86.2468 311.155 86.4861C311.926 87.2075 312.773 87.7987 313.753 88.2232L313.756 88.2167Z" fill="#030100"/>
<path d="M308.106 138.01C308.418 138.155 308.724 138.329 309.087 138.348C309.616 138.382 310.172 138.089 310.356 137.607C310.553 137.099 310.577 136.59 310.195 136.136C310.115 136.036 310.004 135.953 309.906 135.875C308.249 134.647 307.146 132.872 305.579 131.552C305.353 131.36 305.178 131.089 305.042 130.821C304.824 130.389 304.441 130.194 304.023 130.055C302.852 129.668 301.808 130.656 302.089 131.868C302.24 132.513 302.519 133.101 303.014 133.567C304.344 134.817 305.685 136.064 307.003 137.324C307.332 137.635 307.719 137.806 308.109 138.004L308.106 138.01Z" fill="#AA4C24"/>
<path d="M248.826 130.286C249.107 129.834 249.042 129.346 248.717 128.872C248.641 128.765 248.561 128.665 248.474 128.562C247.227 126.996 245.971 125.434 244.739 123.851C244.38 123.384 243.938 123.061 243.387 122.868C242.426 122.523 241.404 123.309 241.485 124.324C241.517 124.78 241.707 125.153 241.99 125.497C243.14 126.915 244.236 128.38 245.552 129.662C245.928 130.026 246.26 130.433 246.642 130.784C247.347 131.427 248.372 131.211 248.816 130.29L248.826 130.286Z" fill="#AA4C24"/>
<path d="M248.634 121.832C247.767 121.437 247.331 121.509 246.791 122.141C246.268 122.757 246.263 123.464 246.78 124.154C246.906 124.324 247.058 124.489 247.22 124.635C248.336 125.667 249.417 126.722 250.365 127.912C250.774 128.426 251.304 128.562 251.879 128.412C252.992 128.125 253.279 127.171 252.657 126.164C252.206 125.434 251.623 124.784 251.072 124.117C250.601 123.551 250.085 123.028 249.605 122.465C249.339 122.152 248.985 121.995 248.638 121.826L248.634 121.832Z" fill="#AA4C24"/>
<path d="M320.833 63.852C320.679 64.3873 320.313 65.1396 320.264 65.976C320.225 66.7225 320.429 67.3537 321.123 67.7475C321.843 68.1535 322.54 68.0993 323.178 67.5605C323.578 67.2264 323.906 66.8112 324.142 66.3377C324.55 65.5107 324.765 64.625 324.821 63.7052C324.873 62.9487 324.577 62.3457 323.859 62.0036C323.164 61.6802 322.366 61.7819 321.798 62.322C321.424 62.6842 321.097 63.0994 320.827 63.849L320.833 63.852Z" fill="#070200"/>
<path d="M330.628 69.9943C330.884 69.341 331.212 68.721 331.207 68.0012C331.21 67.2141 330.854 66.6543 330.17 66.3593C329.602 66.1188 329.055 66.1561 328.569 66.5213C327.368 67.421 326.623 68.5962 326.553 70.1243C326.508 71.0182 326.944 71.7966 327.593 72.0669C328.342 72.3761 329.171 72.1392 329.814 71.437C330.202 71.0105 330.405 70.4899 330.637 69.9908L330.628 69.9943Z" fill="#060200"/>
<path d="M320.421 75.1319C320.462 75.0092 320.61 74.6917 320.671 74.3573C320.729 74.0293 320.542 73.7849 320.24 73.6363C319.934 73.4782 319.598 73.5034 319.413 73.7484C318.79 74.578 318.552 75.5155 318.767 76.5463C318.826 76.8102 319.145 76.8719 319.393 76.6956C319.883 76.356 320.082 75.8258 320.421 75.1319Z" fill="#D35E26"/>
</svg>
