<?xml version="1.0" encoding="UTF-8"?>
<svg id="Layer_1" data-name="Layer 1" xmlns="http://www.w3.org/2000/svg" viewBox="0 0 294.06 140.34">
  <defs>
    <style>
      .cls-1 {
        fill: #66b653;
      }

      .cls-2 {
        fill: #f7901e;
      }

      .cls-3 {
        fill: #ffcb48;
      }

      .cls-4 {
        fill: #326e36;
      }

      .cls-5 {
        fill: #cc2127;
      }

      .cls-6 {
        fill: #234f2b;
      }

      .cls-7 {
        fill: #427839;
      }

      .cls-8 {
        fill: #59422d;
      }
    </style>
  </defs>
  <path class="cls-6" d="M21.87,76.62H0v-18.53H62.59v18.53h-22.04v63.72H21.87v-63.72Z"/>
  <path class="cls-6" d="M116.21,123.37c-.3,1.89-1.06,3.93-2.3,6.11-1.24,2.18-3.08,4.21-5.53,6.06-2.45,1.86-5.61,3.39-9.47,4.6-3.87,1.21-8.57,1.81-14.12,1.81s-10.55-.77-14.65-2.3c-4.1-1.53-7.47-3.6-10.09-6.2-2.63-2.6-4.56-5.61-5.8-9.03-1.24-3.42-1.86-7.05-1.86-10.89s.63-7.38,1.9-10.8c1.27-3.42,3.25-6.43,5.93-9.03,2.68-2.6,6.09-4.66,10.22-6.2,4.13-1.53,9.03-2.3,14.7-2.3,5.37,0,10.03,.77,13.99,2.3,3.95,1.54,7.21,3.59,9.78,6.15,2.57,2.57,4.47,5.56,5.71,8.99,1.24,3.42,1.86,7.02,1.86,10.8v4.25h-45.41c0,1.59,.23,3.13,.71,4.6,.47,1.48,1.22,2.79,2.25,3.94,1.03,1.15,2.38,2.07,4.06,2.74,1.68,.68,3.75,1.02,6.22,1.02,1.88,0,3.59-.27,5.12-.8,1.53-.53,2.85-1.18,3.97-1.95,1.12-.77,2.01-1.61,2.69-2.52,.68-.91,1.13-1.73,1.37-2.43l18.77,1.06Zm-31.03-26.03c-2.41,0-4.5,.4-6.26,1.19-1.77,.8-3.21,1.77-4.32,2.92-1.12,1.15-1.96,2.38-2.51,3.67-.56,1.3-.84,2.48-.84,3.54h26.29c0-1.12-.21-2.35-.62-3.67-.41-1.33-1.09-2.55-2.03-3.67-.94-1.12-2.21-2.06-3.79-2.83-1.59-.77-3.56-1.15-5.91-1.15Z"/>
  <path class="cls-6" d="M140.96,85.21l3.2,15.94,.71-6.37c1.19-3.72,3.36-6.24,6.52-7.57,3.16-1.33,7.13-1.99,11.91-1.99h5.4v16.38h-7.08c-2.6,0-4.84,.44-6.73,1.33-1.89,.89-3.44,2.14-4.65,3.76-1.21,1.62-2.1,3.6-2.66,5.93-.56,2.33-.84,4.91-.84,7.75v20.36h-18.68v-55.51h12.9Z"/>
  <path class="cls-6" d="M193.18,85.21l3.2,15.94,.71-6.37c1.19-3.72,3.36-6.24,6.52-7.57,3.16-1.33,7.13-1.99,11.91-1.99h5.4v16.38h-7.08c-2.6,0-4.84,.44-6.73,1.33-1.89,.89-3.44,2.14-4.65,3.76-1.21,1.62-2.1,3.6-2.66,5.93-.56,2.33-.84,4.91-.84,7.75v20.36h-18.68v-55.51h12.9Z"/>
  <path class="cls-6" d="M272.37,107.92c0-1.95-.21-3.66-.62-5.13-.41-1.47-1.09-2.73-2.04-3.76-.94-1.03-2.2-1.8-3.76-2.3-1.56-.5-3.5-.75-5.8-.75-4.66,0-8.04,.69-10.14,2.08-2.1,1.39-3.11,3.2-3.05,5.44h-18.68c-.18-6.08,2.36-10.74,7.61-13.99,5.25-3.24,13.04-4.87,23.37-4.87,11.21,0,19.36,1.96,24.43,5.89,5.08,3.93,7.61,9.72,7.61,17.4l.09,16.73c0,2.01,.21,3.35,.62,4.03,.41,.68,1.09,1.02,2.04,1.02v9.92c-6.08,1-10.68,1.12-13.81,.35-3.13-.77-5.02-2.8-5.67-6.11l-.44-3.63c-.83,3.13-3.2,5.75-7.13,7.88-3.93,2.12-9.22,3.19-15.89,3.19-4.43,0-8.19-.47-11.29-1.42s-5.61-2.23-7.52-3.85c-1.92-1.62-3.32-3.5-4.21-5.62-.89-2.12-1.33-4.37-1.33-6.73,0-5.49,1.83-9.49,5.49-12,3.66-2.51,9.47-3.76,17.44-3.76h22.66Zm-13.63,8.68c-2.48,0-4.54,.12-6.2,.35-1.65,.24-2.97,.61-3.94,1.11-.97,.5-1.65,1.14-2.04,1.9-.38,.77-.58,1.68-.58,2.74,0,.83,.16,1.62,.49,2.39,.32,.77,.93,1.46,1.81,2.08,.89,.62,2.08,1.12,3.59,1.5,1.5,.38,3.41,.58,5.71,.58,2.95,0,5.4-.27,7.35-.8s3.48-1.28,4.6-2.26c1.12-.97,1.9-2.17,2.35-3.59s.66-3.01,.66-4.78v-1.24h-13.81Z"/>
  <rect class="cls-8" x="75.42" y="58.1" width="218.63" height="15.4"/>
  <path class="cls-2" d="M256.1,51.06c5.98-2.28,11.85-5.52,17.08-9.22,4.42-3.14,8.63-7.32,10-12.74,1.24-4.92-.08-10.46-4.12-13.75-5.22-4.25-13.07-1.68-18.92-.23-4.05,1-8.02,2.29-11.93,3.74-3.4,1.26-6.81,2.67-10.42,3.18-8.02,1.15-13.09-4.54-17.31-10.53-.12-.17-.56-.68-1.29-.95-1.92-.71-4.12,.95-4.44,1.2,0,0-1.14,.75-1.66,1.88-1.31,2.89,.47,7.77,1.09,10.71,1.43,6.73,3.59,13.31,7.69,18.91,8.24,11.24,21.9,12.5,34.21,7.8Z"/>
  <path class="cls-1" d="M282.16,10.46c.41-.06,.69,.02,.89,.15,1.65,1.11-.83,7.3-1.2,8.22,3.01-.65,6.01-1.31,9.02-1.96-.01,.36-.07,.68-.17,.96-1.08,3.09-6.81,3.37-7.26,3.39,1.63,.51,5.42,1.96,7.45,5.66,.34,.63,.6,1.25,.79,1.85-3.02-1.31-6.05-2.63-9.07-3.94-.51-.22-1.02-.45-1.46-.79-4.32-3.38-.78-9.73,1.03-13.54Z"/>
  <path class="cls-5" d="M207.97,19.43c-1.17-12.97-14.21-16.76-25.17-18.37-6.43-.94-13.76-1.81-20.13-.04-5.16,1.43-10.52,5.51-10.84,11.29-.17,3,1.57,5.33,3.94,6.93,2.76,1.87,5.42,3.23,7.44,6.01,2.96,4.08-1.53,8.32-.56,19.28,.12,1.36,.29,2.47,.4,3.17,1.66,4.86,6.57,7.26,11.58,7.45,6.48,.25,12.61-2.36,18.16-5.46,5-2.79,9.92-6.2,12.68-11.37,2.91-5.46,3.06-12.84,2.51-18.91Z"/>
  <path class="cls-4" d="M199.73,17.76c.37,.26,.72,.58,1.05,.97,1.9,2.25,1.46,5.3,1.32,6.14,.52-1.24,1.14-2.54,1.87-3.89,.32-.59,.64-1.15,.96-1.69,.38,.94,.4,1.68,.36,2.16-.19,2.3-2.18,3.46-1.69,5.14,.1,.34,.25,.54,.38,.72,.75,1.11,1.48,3.25,1.46,7.7-.38-.4-.81-.94-1.17-1.65-.88-1.71-.83-3.35-.75-4.15-1.79,1.29-3.68,2.42-5.66,3.39,.22-.47,.48-.96,.79-1.46,1.05-1.69,2.29-2.9,3.33-3.73-4.22-.74-5.17-1.22-5.16-1.53,.02-.31,.99-.68,1.89-.62,1.07,.07,1.68,.75,1.99,.5,.31-.24-.05-1.13-.07-1.31-.28-2.23-.59-4.45-.89-6.68Z"/>
  <path class="cls-3" d="M154.8,27.79c-1.37-2.44-3.8-3.79-6.32-4.8-2.12-.85-7.04-2.04-6.11-5.22,.87-2.98,1.87-5.09,.13-8.06-1.58-2.7-4.43-4.11-7.43-4.61-6.8-1.14-14.46,.39-20.91,2.49-13.71,4.47-16.92,7.6-18.37,10.4-.45,.87-.72,1.64-.88,2.14-5.24,2.77-10.4,6.71-10.72,13.15-.3,6.05,3.43,11.35,8.36,14.5,11.71,7.5,26.83,5.88,39.55,2.25,6.22-1.77,13.29-3.67,18.5-7.65,4.33-3.3,7.09-9.47,4.21-14.61Z"/>
  <path class="cls-7" d="M81.53,42.18c-3-2.81-5.02-6.65-5.63-10.72,4.57,1.35,8.4,4.43,12.1,7.44,1.23,1,2.49,2.03,3.31,3.39,4.81,7.95-7.21,2.28-9.78-.11Z"/>
</svg>