<svg width="390" height="128" viewBox="0 0 390 128" fill="none" xmlns="http://www.w3.org/2000/svg">
<path d="M198.288 67.0013C273.152 108.659 357.289 84.3587 390 67.0013V128H3.05176e-05V67.0013C34.9027 49.644 123.424 25.3437 198.288 67.0013Z" fill="#35572F"/>
<path d="M204.349 27.1018C204.136 27.6582 203.924 28.2147 203.712 28.7711C203.595 28.7449 203.515 28.7448 203.456 28.714C202.636 28.2624 201.786 27.8616 200.899 27.5536C200.805 27.5195 200.724 27.4486 200.635 27.3935C201.262 27.2072 201.916 27.2207 202.562 27.1707C203.154 27.1221 203.753 27.1234 204.349 27.1018V27.1018Z" fill="#C63827"/>
<path d="M208.727 27.4079C207.94 27.8142 207.152 28.2248 206.365 28.6311C206.046 28.7979 205.727 28.9647 205.364 29.1483C205.295 28.7097 205.524 28.4127 205.625 28.0783C205.724 27.7523 205.826 27.4314 205.925 27.1053C206.51 27.1519 207.094 27.1984 207.676 27.2398C208.031 27.2661 208.387 27.2883 208.728 27.4037L208.727 27.4079Z" fill="#C53827"/>
<path d="M211.689 27.8388C212.653 28.0801 213.629 28.2887 214.584 28.5678C215.689 28.889 216.787 29.2438 217.867 29.6386C219.635 30.2839 221.373 31.0104 223.042 31.8848C225.852 33.3528 228.362 35.1989 230.391 37.6605C231.717 39.2648 232.791 41.0288 233.727 42.881C235.159 45.7118 236.459 48.597 237.558 51.5741C238.932 55.2954 239.857 59.1326 240.283 63.0744C240.53 65.368 240.493 67.6688 240.311 69.9682C240.184 71.5878 239.927 73.192 239.638 74.7888C239.347 76.3897 238.915 77.9504 238.22 79.4302C237.091 81.8269 235.364 83.663 233.077 84.9866C230.421 86.523 227.539 87.2775 224.482 87.4291C222.927 87.5056 221.401 87.333 219.903 86.8978C218.943 86.6178 218.047 86.189 217.153 85.7517C215.935 85.1497 214.709 84.5592 213.434 84.0901C211.275 83.3004 209.056 82.8544 206.749 82.8866C205.18 82.9071 203.703 83.327 202.281 83.9709C201.419 84.3603 200.601 84.8259 199.789 85.3059C199.023 85.7566 198.256 86.2156 197.475 86.6364C196.197 87.3256 194.826 87.5487 193.379 87.4555C190.877 87.2944 188.639 86.3992 186.588 85.0254C183.1 82.6837 180.549 79.5771 179.084 75.6108C177.698 71.8647 177.032 67.9927 177.044 64.0031C177.051 61.3607 177.182 58.7194 177.403 56.0851C177.588 53.8921 177.893 51.7127 178.368 49.5624C178.773 47.7446 179.351 45.9787 179.967 44.2255C180.649 42.2931 181.513 40.45 182.517 38.6731C182.876 38.0347 183.254 37.4051 183.643 36.7868C184.198 35.897 184.905 35.116 185.61 34.3476C186.209 33.6967 186.842 33.071 187.514 32.485C188.651 31.4958 189.896 30.6937 191.246 30.0381C193.445 28.9683 195.753 28.2223 198.155 27.7662C198.526 27.7211 198.79 27.9783 199.096 28.1082C200.226 28.5936 201.292 29.2101 202.417 29.7165C202.645 29.8202 202.947 29.9314 202.915 30.2505C202.89 30.5047 202.632 30.6104 202.417 30.7078C201.325 31.218 200.259 31.7692 199.238 32.4143C199.151 32.4697 199.056 32.5191 198.976 32.5848C198.711 32.8035 198.211 32.952 198.471 33.4065C198.706 33.8158 199.132 33.6024 199.457 33.4501C200.382 33.0172 201.331 32.6339 202.219 32.131C203.882 31.1929 205.628 31.2868 207.404 31.5814C208.05 31.69 208.68 31.87 209.321 31.9954C209.626 32.0544 210.003 32.1605 210.095 31.7271C210.177 31.3577 209.868 31.1653 209.557 31.0564C208.964 30.8494 208.332 30.779 207.728 30.6047C207.487 30.5378 207.153 30.5119 207.132 30.1942C207.11 29.9339 207.389 29.8286 207.595 29.7159C208.677 29.1329 209.787 28.6004 210.863 28.0029C211.109 27.8683 211.375 27.7248 211.68 27.8369L211.689 27.8388Z" fill="#C73426"/>
<path d="M211.689 27.8388C210.48 28.4595 209.266 29.0792 208.059 29.7092C207.77 29.8607 207.444 29.9598 207.197 30.178C207.27 30.3838 207.422 30.3559 207.535 30.3812C208.148 30.5178 208.764 30.6418 209.374 30.7909C209.601 30.8415 209.828 30.9274 210.033 31.0349C210.34 31.2002 210.487 31.5502 210.409 31.8235C210.314 32.1505 209.996 32.3486 209.605 32.2835C209.219 32.2193 208.833 32.1291 208.454 32.0313C207.691 31.8391 206.924 31.6992 206.141 31.6128C205.483 31.5411 204.838 31.6484 204.184 31.6173C203.918 31.6064 203.629 31.7536 203.369 31.8719C202.203 32.4007 201.041 32.9482 199.876 33.4863C199.615 33.6088 199.357 33.7407 199.088 33.8394C198.682 33.9824 198.317 33.8217 198.175 33.4685C198.079 33.2268 198.1 32.9935 198.285 32.8145C198.436 32.6718 198.608 32.5516 198.787 32.4416C199.995 31.7061 201.229 31.016 202.521 30.4402C202.638 30.387 202.772 30.3596 202.83 30.2183C202.834 30.0825 202.708 30.0722 202.625 30.0315C201.501 29.4771 200.38 28.9143 199.243 28.379C198.864 28.2019 198.468 28.0608 198.16 27.763C198.155 27.6869 198.141 27.609 198.141 27.5297C198.139 26.9255 198.544 26.6104 199.106 26.8016C199.425 26.9123 199.728 27.0725 200.039 27.1992C200.233 27.2776 200.433 27.3309 200.634 27.3978C201.39 27.465 202.066 27.7742 202.733 28.1035C203.547 28.5052 203.551 28.5061 203.899 27.7156C204.005 27.4749 204.094 27.2347 204.347 27.1103C204.442 26.8981 204.527 26.6789 204.63 26.4728C204.725 26.2825 204.857 26.1268 205.067 26.0546C205.42 25.9307 205.842 26.1348 205.922 26.5053C205.963 26.6994 205.924 26.9154 205.917 27.1211C206.081 27.8494 205.704 28.4132 205.422 28.9276C206.457 28.4356 207.463 27.6595 208.72 27.4195C209.57 27.0449 210.425 26.6671 211.275 26.2925C211.442 26.2194 211.608 26.1463 211.782 26.0969C212.163 25.988 212.501 26.1118 212.656 26.4063C212.81 26.7008 212.73 27.0618 212.434 27.3042C212.192 27.4972 211.934 27.6687 211.683 27.8463L211.689 27.8388Z" fill="#006937"/>
<path d="M220.058 50.8468C220.13 50.8627 220.288 50.8848 220.436 50.931C221.31 51.2008 221.643 52.002 221.211 52.7915C220.68 53.7746 218.71 54.5651 217.538 53.9514C216.087 53.1873 216.507 51.7563 217.352 51.2263C218.161 50.7193 219.037 50.5444 220.059 50.8426L220.058 50.8468Z" fill="#030100"/>
<path d="M216.835 60.4841C215.84 60.2665 215.068 59.7333 214.524 58.8718C214.378 58.6408 214.307 58.4047 214.395 58.129C214.548 57.6565 215.108 57.4992 215.46 57.8376C215.572 57.9464 215.662 58.0766 215.753 58.2026C216.479 59.2546 218.126 59.4189 219.08 58.9352C219.453 58.7451 219.803 58.519 220.106 58.2253C220.218 58.1181 220.332 58.0025 220.47 57.9363C220.687 57.8347 220.914 57.8059 221.132 57.9735C221.366 58.1491 221.463 58.3647 221.412 58.653C221.367 58.8941 221.242 59.0821 221.068 59.2504C219.869 60.3977 218.473 60.8489 216.836 60.4799L216.835 60.4841Z" fill="#040100"/>
<path d="M217.249 45.5408C217.152 46.0922 216.855 46.5767 216.418 46.973C216.053 47.3059 215.624 47.4703 215.121 47.358C214.617 47.2457 214.295 46.9316 214.124 46.4528C214.035 46.1995 214.006 45.9331 214.041 45.6765C214.142 44.9101 214.426 44.2067 214.916 43.6108C215.236 43.2238 215.733 43.1453 216.206 43.1624C216.625 43.1766 216.907 43.473 217.115 43.8277C217.427 44.3644 217.403 44.9275 217.244 45.5399L217.249 45.5408Z" fill="#030100"/>
<path d="M221.32 45.9193C221.386 45.5242 221.57 45.1731 221.764 44.8331C221.924 44.5514 222.17 44.3593 222.51 44.3162C222.664 44.2976 222.821 44.2842 222.975 44.2437C223.448 44.1199 223.79 44.3239 224.076 44.6651C224.358 45.0012 224.46 45.3941 224.469 45.8279C224.487 46.7134 223.848 47.765 223.069 48.1158C222.423 48.4037 221.802 48.2037 221.458 47.5937C221.353 47.4117 221.273 47.2176 221.259 47.003C221.245 46.8458 221.218 46.69 221.231 46.5341C221.247 46.3261 221.293 46.1204 221.325 45.9161L221.32 45.9193Z" fill="#040100"/>
<path d="M219.706 52.3283C219.292 52.6457 218.841 52.7919 218.33 52.731C218.236 52.7188 218.116 52.6833 218.113 52.5592C218.11 52.4925 218.151 52.4048 218.2 52.3628C218.463 52.1349 218.785 52.0347 219.121 51.9906C219.379 51.9558 219.533 52.1355 219.705 52.3325L219.706 52.3283Z" fill="#C03426"/>
<path d="M313.218 53.7636C313.425 55.181 313.326 56.5767 312.978 57.966C312.457 60.03 311.542 61.9218 310.463 63.7418C309.334 65.6446 307.906 67.3048 306.295 68.8105C305.198 69.8365 304.092 70.8449 302.99 71.8655C300.977 73.7342 299.182 75.7965 297.493 77.955C296.501 79.2211 295.506 80.4828 294.426 81.6764C292.857 83.4162 291.112 84.9366 289.085 86.1231C287.824 86.8624 286.495 87.457 285.125 87.9588C281.255 89.3671 277.275 90.3671 273.225 91.0847C271.269 91.4309 269.297 91.458 267.319 91.4164C264.235 91.3532 261.162 91.1266 258.091 90.8446C256.598 90.7081 255.115 90.4966 253.64 90.2055C252.937 90.0661 252.225 89.961 251.525 89.8147C250.355 89.5714 249.198 89.2652 248.08 88.8326C247.311 88.5338 246.542 88.235 245.794 87.883C244.393 87.2196 243.248 86.2682 242.318 85.0132C241.568 84.0045 241.112 82.9106 240.906 81.6899C240.845 81.3244 240.79 80.9609 240.744 80.5924C240.546 78.9958 240.85 77.4868 241.515 76.026C241.884 75.2168 242.185 74.3739 242.494 73.5407C242.806 72.6971 242.891 71.8052 242.963 70.9174C243.11 69.1201 243.249 67.3243 243.389 65.5251C243.468 64.5058 243.51 63.4872 243.676 62.477C243.885 61.1899 244.149 59.918 244.571 58.6788C245.113 57.0875 245.808 55.572 246.622 54.1082C247.818 51.9611 249.479 50.2358 251.476 48.8225C253.302 47.532 255.27 46.5294 257.427 45.9163C258.22 45.6881 259.013 45.46 259.805 45.224C261.523 44.7113 263.288 44.5048 265.065 44.3532C265.46 44.3183 265.834 44.237 266.208 44.1185C267.139 43.8211 268.076 43.5438 268.995 43.1985C269.871 42.8711 270.744 42.5428 271.579 42.1113C271.947 41.9207 272.331 41.779 272.738 41.6881C273.033 41.6256 273.31 41.4837 273.597 41.3854C278.712 39.5778 280.915 38.8516 286.918 38.6133C288.915 38.534 290.913 38.5441 292.904 38.715C294.051 38.8148 295.195 38.9544 296.33 39.1509C297.402 39.3337 298.472 39.5233 299.519 39.8215C301.14 40.2861 302.648 40.9939 304.078 41.8763C305.95 43.0336 307.703 44.3428 309.254 45.9111C309.529 46.1876 309.813 46.4592 310.025 46.7921C309.884 47.1237 309.55 47.142 309.277 47.2441C308.115 47.6776 307.662 48.5893 308.201 49.7174C309.024 51.4392 310.265 52.7474 312.169 53.3094C312.532 53.4175 312.953 53.4119 313.219 53.7601L313.218 53.7636Z" fill="#FEBD11"/>
<path d="M313.218 53.7637C312.779 53.6492 312.342 53.5279 311.898 53.4194C311.32 53.2737 310.811 52.9955 310.351 52.6232C309.762 52.1445 309.218 51.6193 308.741 51.0274C308.441 50.6549 308.186 50.2507 308.01 49.8052C307.743 49.1235 307.754 48.4558 308.124 47.8061C308.269 47.5499 308.46 47.3695 308.747 47.2712C309.176 47.1272 309.598 46.9553 310.023 46.7991C311.069 46.5558 312.126 46.4973 313.187 46.6399C314.288 46.7862 315.365 47.0297 316.408 47.4119C317.223 47.7084 318.049 47.9749 318.803 48.4215C319.442 48.8027 320.006 49.2703 320.475 49.849C321.586 51.2249 321.178 53.3498 319.261 54.0367C318.635 54.2596 317.989 54.3175 317.337 54.2365C316.047 54.0784 314.759 53.8988 313.468 53.7294C313.39 53.7187 313.303 53.7503 313.218 53.7637V53.7637Z" fill="#48873E"/>
<path d="M287.743 53.6359C287.568 54.3063 287.28 54.8083 286.87 55.243C286.567 55.5626 286.208 55.8002 285.781 55.9226C285.065 56.1276 284.326 55.8928 283.861 55.3117C283.432 54.7739 283.292 54.1422 283.342 53.4816C283.392 52.8504 283.572 52.2521 283.92 51.7075C284.208 51.2576 284.578 50.9119 285.053 50.6695C285.926 50.2225 286.91 50.4697 287.445 51.2926C287.845 51.9042 287.913 52.5826 287.817 53.2896C287.797 53.4398 287.753 53.5868 287.742 53.6394L287.743 53.6359Z" fill="#010100"/>
<path d="M281.808 49.2905C280.527 48.9533 279.826 47.6877 280.053 46.3499C280.121 45.9427 280.489 45.6854 280.907 45.7014C281.274 45.7144 281.572 46.001 281.625 46.4122C281.642 46.5391 281.638 46.6715 281.632 46.7996C281.623 46.9787 281.662 47.1452 281.737 47.303C281.891 47.631 282.162 47.7879 282.522 47.7582C283.095 47.7132 283.478 47.3861 283.763 46.9205C283.853 46.7712 283.913 46.6064 284.005 46.4615C284.227 46.1155 284.629 45.9639 284.954 46.0875C285.316 46.2251 285.539 46.6354 285.472 47.0391C285.461 47.1029 285.447 47.1693 285.419 47.2283C284.908 48.402 284.071 49.1739 282.768 49.3681C282.44 49.4177 282.12 49.3696 281.802 49.2851L281.808 49.2905Z" fill="#020200"/>
<path d="M292.828 48.5069C292.468 49.4964 291.833 50.2208 290.811 50.5669C290.222 50.7665 289.651 50.7119 289.098 50.462C288.667 50.2681 288.359 49.9344 288.16 49.5047C287.902 48.9514 287.88 48.3748 288.018 47.7866C288.058 47.6161 288.131 47.4586 288.25 47.3248C288.485 47.064 288.819 46.9678 289.136 47.0964C289.445 47.2231 289.62 47.4607 289.635 47.7946C289.643 47.9672 289.602 48.1411 289.595 48.3133C289.589 48.4414 289.577 48.5754 289.603 48.6973C289.664 48.9588 289.873 49.0872 290.139 49.0499C290.555 48.9914 290.852 48.7512 291.085 48.4194C291.225 48.2212 291.298 47.9969 291.386 47.7731C291.562 47.3254 291.952 47.1371 292.375 47.2693C292.791 47.3996 292.993 47.7782 292.902 48.2532C292.886 48.3377 292.855 48.4218 292.832 48.5044L292.828 48.5069Z" fill="#020200"/>
<path d="M283.529 60.0037C282.852 59.7714 282.235 59.285 281.839 58.5375C281.69 58.259 281.612 57.9668 281.783 57.6698C282.026 57.2481 282.668 57.0333 283.101 57.5392C283.186 57.6367 283.249 57.7544 283.315 57.8653C283.664 58.4512 284.404 58.6012 284.909 58.4635C285.386 58.3329 285.774 58.07 286.115 57.7236C286.265 57.5689 286.403 57.3923 286.575 57.2694C286.894 57.0394 287.263 57.0714 287.531 57.3201C287.826 57.5945 287.892 57.9835 287.701 58.3233C287.012 59.5513 285.209 60.3737 283.835 60.0887C283.772 60.0749 283.708 60.0533 283.529 60.0037V60.0037Z" fill="#020200"/>
<path d="M305.155 57.499C305.317 57.5291 305.443 57.6346 305.523 57.8013C305.629 58.0197 305.648 58.2585 305.687 58.4916C305.702 58.5847 305.659 58.6581 305.604 58.7243C305.361 59.0273 305.041 59.1905 304.657 59.2135C304.156 59.2413 303.787 58.6756 303.95 58.154C304.098 57.6761 304.65 57.3698 305.154 57.5024L305.155 57.499Z" fill="#D6AC29"/>
<path d="M306.968 61.886C306.93 61.8642 306.889 61.8493 306.856 61.8216C306.27 61.3585 306.305 60.6716 306.932 60.2009C307.152 60.0359 307.442 60.046 307.668 60.1532C307.979 60.3024 308.128 60.6069 308.12 60.9532C308.113 61.355 307.431 61.9291 307.03 61.8919C307.008 61.8896 306.987 61.8839 306.966 61.8816L306.968 61.886Z" fill="#D6AC29"/>
<path d="M307.798 56.9616C307.928 56.4789 308.167 56.2451 308.578 56.2072C308.952 56.1701 309.271 56.4331 309.282 56.8102C309.288 57.1196 309.211 57.413 309.005 57.6598C308.788 57.9219 308.405 58.0307 308.128 57.9092C307.818 57.7712 307.688 57.4794 307.762 57.0923C307.773 57.051 307.785 57.0098 307.797 56.965L307.798 56.9616Z" fill="#D6AB29"/>
<path d="M285.025 53.1594C285.133 52.7706 285.323 52.4602 285.602 52.2153C285.865 51.9882 286.084 52.0562 286.18 52.3758C286.262 52.6542 286.24 52.9335 286.187 53.2076C286.115 53.5731 285.93 53.8923 285.664 54.1557C285.541 54.2773 285.396 54.4 285.212 54.3303C285.054 54.2716 285.017 54.1096 284.991 53.9616C284.939 53.6839 284.946 53.4043 285.025 53.1594V53.1594Z" fill="#F5B816"/>
<path d="M346.13 21.0041C345.243 20.7143 344.355 20.4291 343.468 20.1394C342.274 19.7522 341.048 19.5765 339.794 19.5614C338.403 19.5441 337.117 19.9073 335.934 20.641C334.988 21.2281 334.174 21.9688 333.417 22.7745C332.467 23.7843 331.624 24.8851 330.855 26.0404C329.634 27.8748 328.488 29.7547 327.616 31.7913C327.2 32.7546 326.863 33.7452 326.549 34.7409C326.025 36.4132 325.551 38.1012 325.027 39.7734C324.571 41.2323 324.085 42.6749 323.603 44.1231C323.226 45.2477 322.832 46.3681 322.451 47.4916C321.737 49.6068 320.94 51.6935 320.099 53.761C318.918 56.6659 317.654 59.5379 316.291 62.3639C315.305 64.3988 314.221 66.3831 312.911 68.2308C312.158 69.2945 311.349 70.3122 310.408 71.2148C308.261 73.2696 306.039 75.2361 303.57 76.9043C301.173 78.5222 298.662 79.9334 296.015 81.0999C294.741 81.6611 293.431 82.0903 292.083 82.411C291.093 82.6455 290.108 82.8955 289.131 83.1758C288.018 83.4921 286.886 83.7423 285.755 83.988C285.645 84.0109 285.536 84.053 285.422 84.0512C284.172 84.018 282.96 84.331 281.723 84.453C281.017 84.5229 280.337 84.7127 279.673 84.954C279.465 85.0311 279.26 85.1419 279.078 85.2725C278.047 86.0453 278.394 87.4038 279.256 87.8068C280.125 88.2164 280.988 88.6341 281.936 88.8423C283.179 89.1168 284.424 89.3822 285.66 89.6838C287.857 90.225 290.062 90.73 292.234 91.3608C294.057 91.8895 295.896 92.3266 297.748 92.7284C299.823 93.1756 301.912 93.5402 304.019 93.7805C305.42 93.943 306.834 94.0274 308.238 94.1572C308.942 94.2203 309.641 94.3106 310.346 94.3929C312.819 94.6773 315.303 94.7023 317.788 94.5943C318.379 94.57 318.974 94.5276 319.564 94.5506C319.999 94.5673 320.41 94.5169 320.815 94.3888C322.132 93.9708 323.451 93.5437 324.834 93.3832C325.055 93.3566 325.27 93.2669 325.476 93.1752C327.624 92.2201 329.73 91.1938 331.69 89.8826C331.852 89.7762 331.997 89.6421 332.153 89.52C331.975 89.2088 331.644 89.2009 331.354 89.1121C330.557 88.8664 329.87 88.431 329.286 87.8523C328.963 87.5322 328.811 87.1268 329.154 86.7231C329.502 86.3158 329.916 86.404 330.276 86.7086C330.816 87.1633 331.379 87.5802 332.037 87.8518C332.621 88.0924 332.488 88.7052 332.72 89.1334C333.789 88.4644 334.777 87.6915 335.686 86.8246C335.034 86.3163 334.181 86.2342 333.493 85.7797C332.622 85.2079 331.671 84.7563 330.856 84.0828C330.639 83.9055 330.412 83.7307 330.246 83.4935C329.954 83.0757 329.742 82.5996 330.164 82.185C330.614 81.7483 331.037 82.0289 331.413 82.3895C332.462 83.3965 333.7 84.1601 334.974 84.8225C335.72 85.2091 336.131 85.6297 336.127 86.4524C336.398 86.3467 336.585 86.127 336.789 85.9396C339.898 83.1203 342.68 80.0181 345.092 76.571C347.671 72.89 349.983 69.0397 352.274 65.1797C353.116 63.7646 353.772 62.2649 354.214 60.6791C354.517 59.5856 354.906 58.5306 355.319 57.4762C356.068 55.5833 356.921 53.7375 357.699 51.8608C358.218 50.6112 358.825 49.3955 359.231 48.0968C359.834 46.1758 360.291 44.2268 360.539 42.231C360.77 40.3978 360.801 38.5672 360.507 36.7399C359.936 33.1986 358.534 30.0321 356.158 27.3228C355.616 26.7059 355 26.1629 354.383 25.629C353.178 26.2674 351.937 26.4932 350.574 26.1394C349.189 25.7759 348.192 25.0234 347.687 23.6722C347.411 22.9295 347.086 22.2138 346.698 21.5268C346.565 21.2922 346.487 20.9797 346.119 21.0111L346.13 21.0041Z" fill="#DD6026"/>
<path d="M346.13 21.0043C346.581 21.6245 346.908 22.3074 347.207 23.0078C347.372 23.3971 347.521 23.7924 347.686 24.1817C348.131 25.2527 349.006 25.8493 350.045 26.2064C350.707 26.4361 351.408 26.5365 352.122 26.5352C353.013 26.5353 353.789 26.3003 354.395 25.6176C354.485 25.3 354.7 25.1055 354.967 24.9132C356.521 23.801 357.824 22.4324 358.958 20.9021C359.294 20.4444 359.575 19.9555 359.801 19.4351C359.961 19.0662 360.051 18.6866 359.999 18.2799C359.882 17.3205 359.104 16.7982 358.169 17.0595C357.778 17.1714 357.445 17.3822 357.143 17.643C356.759 17.9756 356.382 18.3192 356.033 18.6882C355.352 19.4065 354.696 20.1444 354.027 20.8748C353.914 20.997 353.836 21.1555 353.646 21.2175C353.472 21.145 353.555 20.9876 353.571 20.8722C353.641 20.3691 353.731 19.8656 353.805 19.3635C354.02 17.8789 354.164 16.3881 354.097 14.8877C354.075 14.3497 354.014 13.817 353.798 13.3163C353.597 12.8569 353.295 12.5035 352.796 12.3532C352.296 12.203 351.847 12.2971 351.45 12.6413C351.125 12.9251 350.905 13.2898 350.736 13.6803C350.262 14.7734 349.953 15.9177 349.719 17.0839C349.65 17.4349 349.561 17.7863 349.482 18.1397C349.256 18.1271 349.255 17.9221 349.201 17.7814C348.694 16.5203 348.202 15.2577 347.689 14.0001C347.422 13.3451 347.107 12.7126 346.722 12.1168C346.507 11.7828 346.268 11.4673 345.965 11.2087C344.941 10.3408 343.788 10.6625 343.373 11.9401C343.222 12.4012 343.222 12.8868 343.247 13.3685C343.282 14.0809 343.427 14.7704 343.632 15.4449C344.054 16.8297 344.686 18.1284 345.345 19.4095C345.618 19.9326 345.956 20.4225 346.132 20.9952L346.13 21.0043Z" fill="#79AD50"/>
<path d="M336.136 86.4547C336.148 86.229 336.32 86.0582 336.305 85.8072C336.278 85.311 336.15 85.0583 335.679 84.9287C335.369 84.8449 335.1 84.7082 334.842 84.5409C333.97 83.9736 333.094 83.4053 332.229 82.8254C331.952 82.6394 331.681 82.4261 331.496 82.1275C331.404 81.9832 331.289 81.862 331.115 81.8087C330.723 81.6874 330.335 81.6144 330.002 81.93C329.653 82.2561 329.609 82.6651 329.754 83.0976C329.874 83.4531 330.102 83.7327 330.384 83.9817C331.296 84.796 332.361 85.3733 333.416 85.9722C333.488 86.0122 333.58 86.028 333.645 86.076C334.251 86.5359 334.961 86.7048 335.687 86.8204C335.883 86.7548 336.026 86.6252 336.132 86.4491L336.136 86.4547Z" fill="#AA4C24"/>
<path d="M332.725 89.1347C332.755 88.9987 332.801 88.8613 332.808 88.7203C332.841 88.2135 332.628 87.8085 332.155 87.6452C331.468 87.4003 330.921 86.9919 330.404 86.4995C329.824 85.9455 328.93 86.1923 328.721 86.9545C328.604 87.3708 328.8 87.7481 329.101 88.0158C329.818 88.6623 330.602 89.2193 331.584 89.402C331.781 89.4367 331.969 89.4885 332.164 89.5323C332.388 89.4492 332.582 89.3263 332.728 89.1402L332.725 89.1347Z" fill="#AA4C24"/>
<path d="M334.013 40.7121C333.781 41.5977 333.856 42.4523 334.206 43.2878C334.573 44.1557 335.165 44.7601 336.154 44.8063C337.176 44.855 337.971 44.4101 338.437 43.5008C339.006 42.3909 339.203 41.2357 338.835 39.9961C338.69 39.5162 338.548 39.0891 338.151 38.7809C337.733 38.4585 337.266 38.3345 336.736 38.3201C335.427 38.2783 334.515 38.9018 334.144 40.1513C334.088 40.3385 334.058 40.5364 334.017 40.7177L334.013 40.7121Z" fill="#010100"/>
<path d="M334.619 50.6021C336.967 51.0202 339.093 50.5839 340.892 48.9318C341.419 48.4504 341.787 47.8523 342.08 47.2041C342.193 46.9535 342.192 46.7057 342.123 46.4617C341.889 45.7045 341.073 45.3736 340.391 46.0153C340.252 46.146 340.149 46.3276 340.067 46.5042C339.614 47.4593 338.815 48.008 337.861 48.3554C336.519 48.8393 335.201 48.7098 333.921 48.1128C333.719 48.0197 333.527 47.8958 333.304 47.8504C332.872 47.7628 332.409 47.9395 332.208 48.3037C332.001 48.6715 331.987 49.0538 332.232 49.4232C332.361 49.6139 332.535 49.7483 332.733 49.8641C333.32 50.2151 333.939 50.473 334.618 50.6066L334.619 50.6021Z" fill="#030100"/>
<path d="M337.895 82.9893C338.112 83.0382 338.33 83.1062 338.563 83.068C338.903 83.0159 339.214 82.7527 339.265 82.4213C339.32 82.0718 339.265 81.7452 338.96 81.5103C338.896 81.4577 338.814 81.4203 338.741 81.3848C337.522 80.8349 336.579 79.8614 335.405 79.2405C335.235 79.1499 335.087 79.0025 334.964 78.851C334.767 78.6068 334.497 78.5366 334.213 78.5062C333.418 78.4227 332.892 79.1948 333.238 79.9245C333.422 80.3134 333.68 80.6475 334.057 80.875C335.072 81.484 336.093 82.0894 337.102 82.7064C337.353 82.8581 337.622 82.9136 337.896 82.9848L337.895 82.9893Z" fill="#AA4C24"/>
<path d="M299.277 86.3031C299.394 85.9769 299.285 85.6764 299.014 85.4204C298.951 85.3633 298.886 85.3108 298.818 85.2572C297.812 84.4362 296.801 83.6187 295.803 82.7852C295.511 82.5386 295.186 82.3943 294.811 82.3481C294.154 82.2624 293.615 82.9029 293.806 83.5361C293.89 83.8214 294.061 84.0314 294.288 84.2108C295.211 84.9515 296.108 85.7289 297.118 86.3605C297.406 86.5395 297.672 86.7517 297.963 86.9216C298.497 87.2322 299.117 86.9526 299.272 86.3066L299.277 86.3031Z" fill="#AA4C24"/>
<path d="M297.992 80.9638C297.389 80.8329 297.122 80.9396 296.867 81.4155C296.621 81.8789 296.715 82.3285 297.137 82.6947C297.241 82.7846 297.36 82.8685 297.482 82.9389C298.331 83.4391 299.162 83.9589 299.926 84.5829C300.256 84.8522 300.61 84.8651 300.954 84.6901C301.62 84.3541 301.669 83.7084 301.137 83.1555C300.751 82.7546 300.292 82.4231 299.851 82.0765C299.475 81.7824 299.076 81.5215 298.694 81.2309C298.483 81.0692 298.237 81.0188 297.993 80.9593L297.992 80.9638Z" fill="#AA4C24"/>
<path d="M335.748 34.1568C335.724 34.5179 335.596 35.0461 335.68 35.5838C335.758 36.0631 335.974 36.4354 336.468 36.5892C336.98 36.747 337.414 36.6161 337.744 36.1856C337.952 35.9181 338.102 35.6092 338.186 35.2759C338.331 34.6944 338.345 34.1025 338.254 33.5108C338.183 33.0235 337.912 32.6818 337.41 32.5643C336.926 32.4553 336.434 32.6305 336.149 33.052C335.962 33.3336 335.811 33.6426 335.744 34.1558L335.748 34.1568Z" fill="#070200"/>
<path d="M342.798 36.6977C342.871 36.2475 342.994 35.8085 342.891 35.3524C342.785 34.8524 342.482 34.5464 342.008 34.4541C341.615 34.3801 341.274 34.4796 341.016 34.7787C340.379 35.5162 340.069 36.3653 340.235 37.3451C340.33 37.9186 340.713 38.3522 341.161 38.4339C341.678 38.5263 342.171 38.2609 342.482 37.7262C342.669 37.4017 342.726 37.0431 342.804 36.6942L342.798 36.6977Z" fill="#060200"/>
<path d="M337.04 41.3732C337.049 41.2896 337.099 41.0676 337.092 40.8469C337.083 40.6308 336.931 40.5014 336.719 40.449C336.504 40.3911 336.295 40.4536 336.211 40.6347C335.931 41.2477 335.908 41.8758 336.187 42.5001C336.261 42.6595 336.471 42.6544 336.604 42.5082C336.868 42.2247 336.921 41.8606 337.04 41.3732V41.3732Z" fill="#D35E26"/>
</svg>
