<svg width="180" height="48" viewBox="0 0 180 48" fill="none" xmlns="http://www.w3.org/2000/svg">
<path d="M28.1401 22.3C28.2601 21.18 30.1401 15.88 32.0201 17.35C32.7801 17.95 31.1601 18.94 30.7701 19.63C30.1701 20.69 29.8201 22.05 29.8101 23.17C29.7801 24.25 30.1001 24.71 31.0601 25.03C31.4701 25.15 32.0101 25.3 31.8201 25.9C31.6901 26.31 31.3401 26.43 30.9701 26.47C28.5901 26.75 27.6701 24.28 28.1401 22.3V22.3Z" fill="#231F20"/>
<path d="M36.4501 27.23C35.1901 27.23 34.4101 26.9 33.9901 25.73C33.5601 24.5 33.7401 23.17 34.0701 21.81C34.4501 20.33 34.6401 18.85 35.1501 17.39C35.3601 16.82 35.4901 16.49 36.1201 16.56C36.7201 16.62 36.8401 16.92 36.7901 17.48C36.6701 18.83 36.1901 20.3 35.9201 21.63C35.6701 22.83 35.2201 24.57 35.9801 25.53C36.5801 26.26 38.2101 25.25 38.6201 26.13C39.2001 27.42 36.4601 27.09 36.4501 27.22V27.23Z" fill="#231F20"/>
<path d="M41.97 25.88C41.85 26.64 40.86 26.84 40.44 26.36C39.96 25.82 40.38 24.45 40.5 23.75C40.68 22.59 40.93 21.42 41.19 20.27C41.34 19.55 41.4 18 41.91 17.39C42.25 16.95 42.96 17.1 43.23 17.46C43.62 18 43.08 19.13 42.96 19.79C42.58 21.83 42.27 23.85 41.97 25.88V25.88Z" fill="#231F20"/>
<path d="M45.0002 22.3C45.1202 21.18 47.0002 15.88 48.8802 17.35C49.6402 17.95 48.0202 18.94 47.6302 19.63C47.0302 20.69 46.6802 22.05 46.6702 23.17C46.6402 24.25 46.9602 24.71 47.9202 25.03C48.3302 25.15 48.8702 25.3 48.6802 25.9C48.5502 26.31 48.2002 26.43 47.8302 26.47C45.4502 26.75 44.5302 24.28 45.0002 22.3V22.3Z" fill="#231F20"/>
<path d="M53.1501 21.23C53.6001 20.51 54.7801 17.78 55.7201 17.9C57.2901 18.13 55.1501 21.05 54.7401 21.68C54.2201 22.52 54.1001 22.79 54.5701 23.47C54.8401 23.83 55.7101 24.58 55.4301 25.2C55.1901 25.74 54.2701 25.81 53.9101 25.54C53.4901 25.23 53.1601 24.46 52.8201 24.04C52.4901 24.16 52.5301 26.52 52.4601 26.89C52.3101 27.73 51.3001 28.25 50.7801 27.49C50.3501 26.83 50.8401 25.22 50.8901 24.41C50.9701 23.32 51.0801 22.24 51.2701 21.16C51.4501 20.08 51.6301 18.99 51.8101 17.91C51.9101 17.19 52.0301 16.11 53.0401 16.43C53.8701 16.68 53.5001 17.57 53.4301 18.31C53.3801 18.73 52.8901 21.16 53.1601 21.25L53.1501 21.23Z" fill="#231F20"/>
<path d="M63.2301 17.81C62.7301 17.85 61.7601 18 61.4601 17.58C61.0901 17.06 61.8101 16.68 62.2901 16.55C63.0001 16.37 63.7501 16.4 64.4401 16.4C65.0701 16.4 66.0401 16.24 66.5401 16.6C66.9701 16.93 66.9501 17.45 66.3001 17.71C65.7501 17.94 65.4201 17.56 65.0501 18.21C64.7401 18.79 64.7801 19.88 64.7101 20.49C64.6101 21.31 64.5101 22.12 64.4101 22.93C64.2901 23.72 64.2001 24.51 64.1401 25.28C64.1001 25.85 64.2501 26.93 63.9001 27.44C63.3001 28.29 62.2701 27.7 62.1901 27.01C62.0401 25.63 62.4601 23.97 62.6501 22.54C62.7701 21.69 62.8901 20.82 63.0301 19.96C63.1201 19.39 63.4801 18.34 63.2401 17.81H63.2301Z" fill="#231F20"/>
<path d="M74.4202 21.07C74.1802 22.39 73.7102 23.63 73.1702 24.91C72.7802 25.81 72.0102 27.22 70.9502 27.52C68.1302 28.29 68.2202 24.45 68.4002 22.71C68.5302 21.48 68.8202 20.18 69.2502 18.96C69.7502 17.61 70.3302 17 71.7402 16.77C72.7002 16.63 73.6902 16.95 74.2002 17.69C74.8302 18.57 74.4902 19.98 74.4102 21.08L74.4202 21.07ZM70.5802 25.52C71.4602 24.38 71.9102 23.08 72.2302 21.74C72.4302 20.95 73.1502 18.61 72.1102 18.35C70.4002 17.91 70.2202 24.51 70.5802 25.52V25.52Z" fill="#231F20"/>
<path d="M81.6601 25.72C81.4901 26.29 81.5401 26.93 80.9301 27.2C80.1501 27.53 79.7101 27.11 79.6701 26.45C79.5801 24.98 79.8801 23.35 80.1701 21.85C80.4601 20.32 80.5501 18.58 81.0501 17.08C81.4401 15.92 82.5801 15.91 83.4501 16.31C84.5401 16.82 84.7001 17.89 84.5401 19.08C84.4501 19.79 84.3301 20.54 84.0901 21.24C83.8501 21.94 83.4001 22.53 83.0901 23.19C82.7101 23.98 82.9401 24.31 83.3901 24.9C83.6801 25.28 84.3701 25.83 84.3101 26.37C84.2501 26.95 83.6201 27.15 83.1401 27.08C82.4201 26.96 82.1101 26.18 81.6701 25.72H81.6601ZM82.6601 18.48C82.4801 19.42 82.3201 20.38 82.1401 21.33C82.6201 20.39 82.7101 19.43 82.6601 18.48Z" fill="#231F20"/>
<path d="M88.74 17.84C88.44 18.68 88.31 19.76 88.23 20.63C88.15 21.74 88.85 21.08 89.58 21.4C90.12 21.64 90.27 22.16 89.66 22.57C88.82 23.11 88.22 22.33 88.03 23.57C87.94 24.17 87.73 25.61 88.15 26.06C88.6 26.54 89.77 25.91 90.2 26.48C91.22 27.85 87.64 27.74 87.11 27.44C85.79 26.74 86.12 24.58 86.19 23.21C86.3 21.41 86.61 19.55 86.97 17.73C87.15 16.85 87.39 16.44 88.34 16.31C89.03 16.21 90.17 16.04 90.81 16.24C91.27 16.37 91.77 16.93 91.29 17.44C90.84 17.92 89.36 17.68 88.74 17.84Z" fill="#231F20"/>
<path d="M93.02 25.67C93.48 24.14 93.94 22.63 94.37 21.09C94.7 19.98 95.18 17.94 96.32 17.24C97.4 16.58 98.17 17.52 98.3 18.38C98.51 19.79 98.34 21.41 98.26 22.86C98.22 23.69 98.5 26.07 97.42 26.47C95.83 27.07 96.22 25.21 96.21 24.37C96.21 23.98 96.06 23.38 95.46 23.83C95.07 24.12 94.93 25.09 94.75 25.51C94.55 25.92 94.39 26.28 93.91 26.4C93.35 26.52 92.93 26.21 93.02 25.67ZM96.46 20.27C96.35 20.51 95.53 22.4 96.13 22.28C96.63 22.19 96.47 20.56 96.46 20.27Z" fill="#231F20"/>
<path d="M100.52 21.61C100.74 20.19 100.81 16.09 103.2 17.1C105.11 17.89 105.13 20.73 104.62 22.65C104.23 24.12 102.82 26.76 101.05 26.97C98.6202 27.27 100.84 21.62 100.51 21.62L100.52 21.61ZM102.81 19.78C102.69 20.46 101.86 23.34 102.36 23.66C102.86 22.36 103.1 21.02 102.81 19.78Z" fill="#231F20"/>
<path d="M116.48 22.18C116.07 22.42 115.79 23.44 115.59 23.85C115.28 24.51 115.14 25.14 114.35 25.23C112.62 25.46 113.1 23.55 112.49 22.62C112.34 23.5 112.16 24.45 111.91 25.32C111.71 26.03 111.38 26.73 110.54 26.67C109.48 26.61 110.25 25.07 110.36 24.38C110.53 23.3 110.66 22.25 110.91 21.16C111.15 20.08 111.53 16.85 113.31 17.24C114.78 17.55 114.31 20.76 114.54 21.95C115.19 21.24 115.5 20.06 115.86 19.24C116.17 18.52 116.48 17.32 117.39 17.14C119.32 16.76 118.65 20.36 118.53 21.46C118.41 22.48 118.28 23.48 118.33 24.49C118.36 25.16 118.71 26.12 117.79 26.49C115.5 27.39 116.62 23.2 116.47 22.2L116.48 22.18Z" fill="#231F20"/>
<path d="M126.33 21.07C126.09 22.39 125.62 23.63 125.08 24.91C124.69 25.81 123.92 27.22 122.86 27.52C120.04 28.29 120.13 24.45 120.31 22.71C120.44 21.48 120.73 20.18 121.16 18.96C121.66 17.61 122.24 17 123.65 16.77C124.61 16.63 125.6 16.95 126.11 17.69C126.74 18.57 126.4 19.98 126.32 21.08L126.33 21.07ZM122.49 25.52C123.37 24.38 123.82 23.08 124.14 21.74C124.34 20.95 125.06 18.61 124.02 18.35C122.31 17.91 122.13 24.51 122.49 25.52V25.52Z" fill="#231F20"/>
<path d="M130.01 25.72C129.84 26.29 129.89 26.93 129.28 27.2C128.5 27.53 128.06 27.11 128.02 26.45C127.93 24.98 128.23 23.35 128.52 21.85C128.81 20.32 128.9 18.58 129.4 17.08C129.79 15.92 130.93 15.91 131.8 16.31C132.89 16.82 133.05 17.89 132.89 19.08C132.8 19.79 132.68 20.54 132.44 21.24C132.2 21.94 131.75 22.53 131.44 23.19C131.06 23.98 131.29 24.31 131.74 24.9C132.03 25.28 132.72 25.83 132.66 26.37C132.6 26.95 131.97 27.15 131.49 27.08C130.77 26.96 130.46 26.18 130.02 25.72H130.01ZM131.01 18.48C130.83 19.42 130.67 20.38 130.49 21.33C130.97 20.39 131.06 19.43 131.01 18.48Z" fill="#231F20"/>
<path d="M137.09 17.84C136.79 18.68 136.66 19.76 136.58 20.63C136.5 21.74 137.2 21.08 137.93 21.4C138.47 21.64 138.62 22.16 138.01 22.57C137.17 23.11 136.57 22.33 136.38 23.57C136.29 24.17 136.08 25.61 136.5 26.06C136.95 26.54 138.12 25.91 138.55 26.48C139.57 27.85 135.99 27.74 135.46 27.44C134.14 26.74 134.47 24.58 134.54 23.21C134.65 21.41 134.96 19.55 135.32 17.73C135.5 16.85 135.74 16.44 136.69 16.31C137.38 16.21 138.52 16.04 139.16 16.24C139.62 16.37 140.12 16.93 139.64 17.44C139.19 17.92 137.71 17.68 137.09 17.84V17.84Z" fill="#231F20"/>
<path d="M163.3 28.61C163.19 29.16 162.95 30.04 162.33 30.91C160.77 33.11 158.01 33.54 156.77 33.73C156.15 33.83 155.25 33.84 153.44 33.87C152.35 33.89 151.27 33.87 150.18 33.86C148.23 33.82 146.28 33.78 144.34 33.72C141.31 33.62 138.28 33.49 135.25 33.39C133.51 33.33 133.2 33.41 131.63 33.37C129.21 33.31 128.25 33.2 125.99 33.1C125.03 33.06 125.14 33.08 120.59 33C118.1 32.96 115.61 32.9 113.12 32.89C111.39 32.88 109.67 32.93 107.94 32.95C107 32.95 106.07 32.95 105.13 32.95C103.33 32.93 101.53 32.92 99.7299 32.89C97.3099 32.85 94.8999 32.78 92.4799 32.76C89.9199 32.73 87.3499 32.72 84.7899 32.73C83.4099 32.73 82.0299 32.8 80.6499 32.84C79.4899 32.87 78.3299 32.88 77.1699 32.92C76.2599 32.95 75.3499 33.02 74.4299 33.08C73.8099 33.12 73.1999 33.17 72.5799 33.21C71.3499 33.29 70.1199 33.37 68.8899 33.46C67.6299 33.55 66.3799 33.68 65.1199 33.77C63.7199 33.87 62.3099 33.94 60.9099 34.01C59.8499 34.06 58.7899 34.11 57.7299 34.14C57.2599 34.16 56.7899 34.16 56.3199 34.14C50.7199 33.98 45.1299 33.83 39.5299 33.65C35.7299 33.53 31.9399 33.38 28.1499 33.21C26.0099 33.12 23.8699 32.93 21.7499 32.57C19.8799 32.25 17.9999 31.94 16.1799 31.27C15.8999 31.17 15.6099 31.07 15.3399 30.93C13.3799 29.92 11.4099 28.92 9.46993 27.86C8.68993 27.43 7.94993 26.89 7.22993 26.33C6.73993 25.95 6.27993 25.48 5.84993 25C4.64993 23.65 4.00993 21.92 3.76993 19.95C3.62993 18.81 3.55993 17.67 3.72993 16.52C3.94993 15.08 4.52993 13.92 5.51993 13.07C6.09993 12.58 6.69993 12.19 7.38993 11.97C8.31993 11.67 9.21993 11.24 10.1899 11.12C10.7099 11.06 11.2199 10.98 11.7399 10.94C14.4199 10.71 17.1099 10.56 19.7999 10.66C24.3599 10.83 28.9199 11 33.4799 11.13C35.2999 11.18 37.1299 11.11 38.9499 11.08C40.0099 11.06 41.0699 11.03 42.1299 10.99C43.1399 10.95 44.1499 10.89 45.1599 10.85C46.1499 10.81 47.1299 10.76 48.1199 10.75C49.7999 10.73 51.4699 10.71 53.1499 10.72C55.0699 10.72 56.9999 10.78 58.9199 10.79C60.8399 10.8 62.7699 10.79 64.6899 10.79C66.0199 10.79 67.3499 10.76 68.6799 10.73C69.8899 10.7 71.0999 10.65 72.2999 10.6C72.3699 10.6 72.4499 10.6 72.5199 10.6C74.2499 10.6 75.9699 10.58 77.6999 10.6C80.4399 10.63 83.1699 10.69 85.9099 10.73C87.5399 10.75 89.1599 10.78 90.7899 10.79C93.0299 10.8 95.2799 10.81 97.5199 10.81C101.96 10.81 106.4 10.97 110.83 11.12C113.12 11.2 115.42 11.23 117.71 11.24C119.61 11.25 121.51 11.22 123.41 11.17C125.38 11.12 127.35 11.02 129.33 10.96C130.56 10.92 131.8 10.94 133.03 10.87C135.08 10.76 137.12 10.89 139.17 10.94C141.49 11 143.8 11.14 146.1 11.5C148.86 11.93 151.59 12.48 154.25 13.49C155.7 14.04 157.11 14.75 158.47 15.57C160.05 16.52 161.3 17.91 162.08 19.87C162.2 20.18 162.38 20.4 162.63 20.56C163.94 21.39 165.31 22.02 166.75 22.4C167.71 22.66 168.69 22.77 169.67 22.86C171 22.99 172.32 23.14 173.65 23.24C174.11 23.28 174.58 23.21 175.05 23.19C175.32 23.18 175.59 23.15 175.86 23.18C176.26 23.22 176.53 23.55 176.61 24.03C176.69 24.5 176.54 24.86 176.24 25.15C176.18 25.21 176.11 25.25 176.05 25.29C173.98 26.6 171.8 27.46 169.49 27.77C168.22 27.94 166.95 28.2 165.67 28.39C165.01 28.49 162.99 29.43 162.33 29.5" stroke="black" stroke-width="2" stroke-miterlimit="10"/>
</svg>
