<?xml version="1.0" encoding="UTF-8"?><svg id="Layer_1" xmlns="http://www.w3.org/2000/svg" viewBox="0 0 220 220"><defs><style>.cls-1{fill:#fff;}.cls-2{fill:#feda00;}.cls-3{fill:#848383;}.cls-4{fill:#92c6ea;}.cls-5{fill:#5aa445;}</style></defs><path d="M45.06,36.66c-.77-.39-1.51-.76-2.25-1.13-1.18-.59-2.33-1.24-3.33-2.12-.67-.59-1.29-1.23-1.75-2-1.38-2.32-1.27-4.65,.02-6.95,.68-1.21,1.71-1.6,3.08-1.3,.28,.06,.55,.15,.89,.24,.03-.25,.07-.46,.08-.67,.06-.9,.3-1.75,.7-2.56,.36-.74,.89-1.33,1.61-1.74,.88-.51,1.78-.56,2.73-.19,.65,.25,1.23,.62,1.76,1.06,.24,.2,.47,.41,.75,.66,.12-.19,.24-.34,.32-.51,.45-.95,1.2-1.58,2.14-2.02,.97-.45,1.94-.47,2.92-.08,1.16,.46,2.05,1.25,2.68,2.32,.59,1,1,2.06,1.12,3.23,.02,.17,.06,.33,.11,.54,.36-.08,.69-.13,1.02-.22,.51-.13,1.03-.14,1.54-.05,1.59,.28,2.65,1.47,2.82,3.15,.07,.66,.04,1.32-.13,1.96-.49,1.85-1.25,3.57-2.41,5.1-.88,1.16-1.98,2.07-3.26,2.76-.95,.52-1.98,.77-3.04,.84-.39,.03-.8-.05-1.24-.08-.05,.15-.12,.3-.15,.46-.22,1.24-.46,2.48-.65,3.73-.12,.79-.19,1.6-.2,2.4-.03,3.68,.24,7.34,1.25,10.91,1.1,3.93,3.09,7.39,5.65,10.54,.27,.33,.6,.62,.91,.91,.1,.09,.24,.15,.34,.21,.27-.09,.27-.33,.33-.5,.87-2.23,2.02-4.3,3.33-6.3,1.46-2.23,3.01-4.4,4.61-6.54,2.23-3,4.82-5.69,7.5-8.3,.12-.12,.25-.23,.38-.35,3.99-3.94,8.78-6.48,14.14-8.01,1.95-.56,3.91-1.12,5.91-1.48,1.86-.34,3.73-.6,5.64-.61,1.92-.01,3.85,0,5.76,.2,2.19,.22,4.4,.35,6.57,.82,1.26,.27,2.5,.62,3.75,.92,1.73,.42,3.4,1.03,5.04,1.71,.77,.32,1.53,.64,2.3,.95,1.69,.7,3.17,1.72,4.47,3.01,.35,.34,.69,.68,1.22,.73,.29,.03,.52,.25,.63,.53,.11,.28,.33,.46,.56,.64,.36,.29,.72,.57,1.09,.84,1.77,1.28,3.42,2.7,4.85,4.37,.22,.26,.45,.52,.65,.8,1.39,1.94,2.69,3.93,3.78,6.05,.55,1.07,1.1,2.14,1.66,3.21,.64,1.22,1.22,2.47,1.68,3.77,.06,.18,.16,.35,.26,.58,.24-.11,.47-.17,.65-.29,.83-.56,1.7-1.08,2.47-1.72,2.19-1.83,4.13-3.9,5.69-6.3,.53-.82,1.06-1.64,1.61-2.44,1.68-2.44,2.82-5.11,3.51-7.99,.17-.72,.36-1.45,.54-2.17,.03-.14,.04-.28,.07-.47-.23-.13-.45-.26-.67-.37-1.28-.67-2.47-1.46-3.42-2.56-1.33-1.54-2.16-3.34-2.42-5.33-.27-2.04,.5-3.71,2.28-4.85,.85-.54,1.75-.68,2.72-.42,.16,.04,.32,.08,.53,.12,.15-.47,.27-.91,.43-1.33,.86-2.18,2.4-3.67,4.63-4.41,.45-.15,.96-.22,1.43-.2,1.08,.05,1.89,.61,2.45,1.53,.19,.32,.34,.66,.53,1.04,.2-.12,.4-.22,.58-.34,.84-.52,1.72-.92,2.71-1.03,1.17-.14,2.15,.22,2.89,1.17,.64,.82,.9,1.79,.95,2.81,.03,.6,0,1.2,0,1.87,.11,.03,.26,.07,.42,.1,1.71,.28,3.15,1.66,3.52,3.36,.6,2.8-.58,5.51-2.8,7-1.32,.89-2.78,1.34-4.34,1.51-1.28,.13-2.57,.24-3.85,.37-.14,.01-.27,.06-.44,.1-.04,.14-.1,.27-.12,.41-.19,1.43-.57,2.81-.97,4.19-.51,1.79-1.01,3.59-1.53,5.37-.58,1.97-1.5,3.78-2.65,5.48-2.14,3.14-4.57,6.04-7.42,8.57-1.62,1.43-3.37,2.68-5.2,3.81-.71,.43-1.47,.78-2.2,1.16-.15,.08-.29,.17-.45,.26,0,.13-.02,.24-.01,.35,.15,1.46,.31,2.91,.44,4.37,.2,2.23,.34,4.46,.12,6.7-.08,.89-.13,1.77-.19,2.66-.17,2.67-.67,5.29-1.32,7.88-.22,.86-.45,1.72-.69,2.58-1.04,3.69-2.87,6.99-5.08,10.09-.73,1.03-1.61,1.94-2.56,2.79-1.07,.96-2.12,1.94-3.2,2.88-1.36,1.19-2.74,2.36-4.11,3.54-.19,.17-.38,.33-.55,.48,0,.08,0,.12,0,.14,.01,.02,.04,.03,.07,.04,10.8,2.82,21.61,5.64,32.41,8.46,.08,.02,.17,.03,.26,.03,.05,0,.11-.02,.19-.04,.1-.33,0-.67,0-1.01-.03-.72-.1-1.43-.09-2.15,.03-3.32,.54-6.57,1.69-9.7,.99-2.71,2.51-5.09,4.56-7.12,1.05-1.04,2.25-1.87,3.62-2.44,2.27-.94,4.32-.58,6.12,1.1,.57,.53,1.03,1.15,1.41,1.84,.6,1.1,.96,2.27,1.14,3.5,.13,.92,.09,1.84-.24,2.72-.44,1.18-.87,2.37-1.38,3.52-1.64,3.7-3.49,7.29-5.57,10.77-1.09,1.82-2.17,3.65-3.23,5.49-.36,.62-.64,1.28-.95,1.93-.09,.18-.17,.36-.28,.53-.2,.31-.48,.49-.85,.5-.71,.02-1.42,0-2.13-.18-8.78-2.29-17.57-4.56-26.36-6.83-6.9-1.79-13.81-3.56-20.71-5.35-.52-.13-.99-.09-1.5,.03-2.25,.56-4.5,1.12-6.77,1.61-1.06,.23-2.16,.27-3.24,.41-2.48,.31-4.98,.32-7.48,.3-2.13-.02-4.23-.28-6.31-.73-.2-.04-.39-.08-.59-.1-.05,0-.11,.02-.2,.05-.08,.15-.16,.33-.25,.51-.81,1.64-1.58,3.31-2.45,4.93-1.75,3.24-3.86,6.25-6.17,9.11-.87,1.07-1.78,2.11-2.96,2.86-.29,.18-.59,.35-.91,.47-.75,.27-1.47,.14-2.16-.2-.28-.14-.55-.32-.8-.5-5.58-3.99-11.18-7.95-16.72-11.98-2.11-1.53-4.1-3.23-6.16-4.84-1.9-1.49-3.73-3.06-5.7-4.45-.58-.41-1.12-.89-1.68-1.34-.92-.73-1.85-1.46-2.76-2.19-.47-.38-.92-.77-1.39-1.15-.1-.08-.22-.14-.38-.24-.22,.57-.28,1.1-.37,1.63-.45,2.52-1.23,4.95-2.21,7.31-.5,1.22-1,2.44-1.52,3.65-.53,1.24-1.17,2.43-1.9,3.56-.95,1.47-2.16,2.67-3.63,3.61-1.15,.73-2.39,.92-3.71,.59-.66-.17-1.23-.48-1.72-.93-1-.9-1.57-2.02-1.78-3.35-.22-1.41-.1-2.81,.09-4.2,.59-4.32,2.11-8.32,4.19-12.13,.71-1.31,1.47-2.6,2.22-3.89,1.28-2.19,2.8-4.2,4.56-6.03,.5-.52,.99-1.04,1.5-1.54,.26-.26,.55-.51,.86-.71,.64-.42,1.3-.42,1.93,.03,.31,.21,.6,.45,.89,.68,1.9,1.53,3.78,3.08,5.71,4.58,2.44,1.9,4.92,3.76,7.38,5.65,1.73,1.33,3.49,2.62,5.18,4,1.4,1.14,2.81,2.28,4.29,3.32,.68,.48,1.34,.99,2,1.49,.34,.26,.67,.54,1.03,.77,2.33,1.53,4.54,3.22,6.81,4.83,.68,.48,1.35,.97,2.02,1.47,.6,.45,1.25,.82,1.95,1.07,.13,.05,.27,.07,.39,.1,1.07-1.06,5.15-7.72,5.66-9.24-.15-.07-.3-.15-.46-.2-1.46-.52-2.86-1.18-4.22-1.93-.33-.18-.66-.36-.99-.52-4.24-2.14-7.94-5.03-11.34-8.32-1.7-1.64-3.13-3.52-4.41-5.49-1.73-2.68-3.17-5.51-4.23-8.54-.68-1.95-1.4-3.88-1.9-5.89-.6-2.43-.93-4.9-.95-7.41-.02-1.78,.07-3.56,.2-5.33,.05-.6,.13-1.2,.19-1.75-.16-.33-.41-.47-.65-.61-4.93-3-8.29-7.33-10.67-12.5-1.27-2.76-2-5.67-2.52-8.65-.34-1.98-.55-3.98-.58-5.99-.02-1.43,.04-2.87,.09-4.3,.06-1.86,.17-3.73,.49-5.57,.01-.08,0-.17,0-.35Zm83.92,6.3c-.72-.91-1.72-1.58-2.82-2.08-1.36-.61-2.74-1.16-4.12-1.74-1.67-.7-3.43-1.1-5.17-1.57-1.16-.32-2.33-.6-3.53-.73-1-.11-2-.21-2.99-.33-1.85-.24-3.71-.35-5.58-.34-.34,0-.69-.01-1.03-.02-1.55-.02-3.1,.05-4.63,.29-1.56,.24-3.1,.57-4.62,.98-2.32,.63-4.65,1.23-6.86,2.23-3.03,1.36-5.82,3.06-8.27,5.34-4.04,3.74-7.65,7.84-10.76,12.39-.08,.11-.13,.24-.23,.41,.32,.12,.57,.21,.84,.3,.71,.25,1.26,.7,1.6,1.36,.25,.48,.45,.99,.61,1.51,.31,.97,.12,1.93-.1,2.89-.27,1.13-.81,2.14-1.36,3.15-.33,.6-.66,1.21-.92,1.84-.5,1.19-.37,2.35,.29,3.46,.27,.44,.56,.87,.83,1.31,.61,.99,1.08,2.03,1.19,3.2,.06,.63,.07,1.26,.05,1.89-.01,.59,.14,1.13,.42,1.64,.31,.55,.62,1.1,.9,1.66,.43,.85,.66,1.77,.76,2.72,.18,1.79,0,3.56-.55,5.27-.72,2.24-1.41,4.49-2.4,6.63-1.03,2.24-1.48,4.63-1.86,7.04-.05,.34,0,.61,.22,.87,.79,.99,1.56,1.99,2.47,2.87,3.29,3.2,6.86,6.01,10.97,8.08,.43,.22,.86,.45,1.29,.69,2.05,1.12,4.21,1.94,6.45,2.57,1.79,.5,3.58,1,5.37,1.53,2.29,.69,4.63,1.06,7.03,1.05,2.29-.01,4.59,.07,6.88-.16,1.51-.15,3.03-.27,4.51-.6,2.71-.6,5.41-1.23,8.06-2.1,2.94-.97,5.64-2.39,8.13-4.21,2.04-1.49,3.91-3.2,5.78-4.89,.73-.65,1.43-1.33,2.18-1.96,1.77-1.47,3.16-3.24,4.32-5.21,.15-.26,.24-.52,.23-.81-.02-.31-.01-.63-.06-.94-.16-.91-.47-1.77-.79-2.63-.16-.43-.46-.73-.86-.91-.26-.12-.54-.21-.81-.26-.65-.12-1.3-.2-1.95-.3-.86-.13-1.47-.63-1.87-1.37-.18-.32-.28-.69-.4-1.04-.11-.32-.2-.66-.31-.98-.15-.42-.45-.67-.91-.64-.48,.03-.98,.05-1.45,.15-.92,.19-1.84,.45-2.76,.66-.28,.06-.57,.09-.85,.08-1.31-.05-2.12-.89-2.14-2.2,0-.67,.14-1.31,.36-1.94,.41-1.17,.88-2.3,1.45-3.4,.77-1.47,1.58-2.93,2.54-4.29,.25-.35,.48-.72,.65-1.11,.4-.89,.06-1.89-.77-2.39-.2-.12-.4-.22-.6-.34-.56-.35-.94-.84-1.09-1.49-.06-.25-.12-.51-.12-.76-.02-1.3-.2-2.57-.6-3.81-.24-.75-.2-1.52,0-2.29,.31-1.22,.9-2.29,1.66-3.28,.33-.43,.68-.85,1.04-1.26,2.22-2.58,2.07-6.05,.34-8.53-.29-.42-.6-.84-.9-1.26-.48-.69-.84-1.44-1.03-2.25-.16-.64-.3-1.28-.44-1.93-.48-2.16-.82-4.34-.89-6.55-.01-.37,0-.74,0-1.16Zm15.22,55.39h.17c.13-.32,.29-.63,.4-.95,.33-.98,.68-1.95,.95-2.94,.65-2.32,1.2-4.66,1.52-7.05,.24-1.74,.36-3.48,.45-5.23,.06-1.17,.09-2.35,.03-3.52-.1-1.89-.29-3.77-.45-5.66-.04-.51-.1-1.03-.18-1.54-.32-1.98-.87-3.91-1.43-5.84-.64-2.18-1.46-4.28-2.56-6.28-.4-.73-.78-1.47-1.14-2.22-.81-1.65-1.8-3.19-2.78-4.75-1.37-2.16-3.11-3.97-5.12-5.53-.88-.69-1.77-1.37-2.66-2.05-.08-.06-.19-.09-.32-.15-.02,.13-.05,.22-.03,.29,.34,1.98,.68,3.95,1.02,5.93,.23,1.29,.68,2.48,1.54,3.5,.22,.26,.41,.56,.6,.84,.45,.67,.79,1.4,1.02,2.17,.94,3.17,.43,6.06-1.7,8.63-.33,.4-.66,.79-.98,1.2-.44,.57-.81,1.18-1.08,1.85-.3,.75-.38,1.48-.11,2.26,.36,1.04,.53,2.11,.52,3.21,0,.2,.03,.4,.04,.6,.03,.34,.16,.6,.49,.74,.16,.06,.3,.16,.45,.25,.52,.33,.95,.74,1.24,1.29,.76,1.43,.8,2.85-.04,4.25-.34,.56-.7,1.12-1.07,1.66-.96,1.4-1.72,2.91-2.45,4.44-.32,.67-.55,1.38-.81,2.08-.13,.35-.19,.71-.16,1.08,.12,.03,.2,.08,.28,.07,.25-.03,.51-.07,.76-.13,.95-.22,1.89-.48,2.84-.65,.53-.1,1.09-.13,1.62-.06,1.17,.17,1.98,.87,2.41,1.97,.18,.45,.29,.93,.42,1.4,.13,.46,.38,.72,.9,.76,.65,.05,1.31,.15,1.95,.31,1.49,.37,2.58,1.21,3.06,2.73,.06,.19,.13,.38,.2,.57,.06,.15,.12,.3,.18,.44Zm-55.19,22.34c-.22,.42-.41,.74-.55,1.08-.55,1.3-1.22,2.53-1.98,3.71-1.07,1.66-2.16,3.32-3.25,4.97-.09,.14-.19,.28-.3,.42-.39,.5-.91,.68-1.52,.61-.23-.03-.45-.08-.67-.15-1.07-.34-2.07-.84-2.97-1.51-.73-.55-1.49-1.08-2.23-1.61-2.19-1.57-4.34-3.2-6.59-4.68-.19-.13-.37-.27-.55-.41-2.66-2.05-5.45-3.92-7.96-6.17-.11-.1-.22-.18-.34-.27-2.79-2.12-5.59-4.22-8.36-6.35-2.07-1.59-4.11-3.21-6.16-4.83-.94-.74-1.87-1.5-2.82-2.26-.13,.09-.23,.15-.31,.23-1.98,1.96-3.86,4.01-5.3,6.43-1.04,1.75-2.09,3.5-3.03,5.3-1.65,3.14-2.88,6.43-3.45,9.95-.2,1.25-.33,2.5-.24,3.77,.03,.4,.07,.81,.2,1.18,.5,1.33,1.35,2.1,2.87,1.9,.39-.05,.71-.23,1.02-.43,1.23-.79,2.23-1.81,2.97-3.06,.57-.96,1.1-1.95,1.57-2.96,.55-1.2,1.02-2.43,1.53-3.65,.98-2.34,1.74-4.73,2.17-7.23,.12-.71,.27-1.41,.41-2.11,.03-.14,.05-.28,.08-.42,.34-1.22,1.53-1.57,2.47-.75,.28,.25,.55,.51,.85,.73,1.78,1.31,3.56,2.61,5.22,4.08,.26,.23,.53,.44,.81,.64,1.81,1.27,3.51,2.68,5.23,4.07,3.22,2.59,6.44,5.18,9.82,7.56,4.43,3.12,8.83,6.29,13.25,9.44,.23,.17,.47,.33,.71,.48,.35,.22,.71,.22,1.04-.03,.34-.26,.7-.5,1-.81,.65-.68,1.31-1.37,1.89-2.12,.95-1.22,1.85-2.48,2.75-3.74,2.05-2.86,3.65-5.96,5.11-9.15,.08-.17,.23-.34,.08-.61-1.41-.53-2.92-.83-4.49-1.23Zm81.19,10.76c.11-.2,.2-.37,.29-.55,.24-.46,.45-.93,.71-1.38,1.1-1.88,2.2-3.76,3.32-5.63,2.04-3.43,3.86-6.97,5.47-10.62,.44-1,.81-2.02,1.19-3.04,.19-.51,.3-1.05,.24-1.6-.12-.98-.37-1.91-.8-2.8-.33-.68-.77-1.28-1.34-1.77-.38-.32-.79-.55-1.27-.7-.82-.26-1.59-.11-2.34,.21-1.28,.55-2.39,1.37-3.33,2.39-1.54,1.66-2.75,3.53-3.54,5.65-.99,2.65-1.58,5.39-1.61,8.23-.02,1.72,.03,3.44,.04,5.16,0,.17,.01,.34,0,.52-.05,.76-.6,1.18-1.35,1.03-.25-.05-.5-.13-.75-.19-6.04-1.57-12.08-3.15-18.11-4.72-5.57-1.45-11.14-2.88-16.7-4.36-.47-.13-.8-.06-1.2,.16-1.28,.71-2.58,1.37-3.87,2.05-.09,.05-.18,.1-.42,.24,15.22,3.93,30.28,7.82,45.38,11.72ZM60.44,68.11c-.11-.1-.15-.15-.19-.18-1.16-.63-2.07-1.53-2.86-2.57-1.24-1.62-2.29-3.37-3.24-5.17-1.5-2.85-2.38-5.89-2.88-9.06-.25-1.56-.37-3.14-.46-4.71-.09-1.58-.09-3.15,.06-4.73,.13-1.32,.41-2.61,.63-3.9,.11-.65,.2-1.3,.32-1.95,.18-1.02,.74-1.34,1.72-1.01,.5,.17,1.01,.23,1.53,.14,.97-.17,1.89-.48,2.71-1.04,2.39-1.61,3.53-4,4.1-6.72,.09-.41-.02-.81-.16-1.18-.17-.43-.49-.68-.98-.72-.96-.08-1.76,.28-2.4,.94-.76,.78-1.41,1.65-1.71,2.74-.17,.61-.74,.96-1.31,.81-.61-.15-1-.78-.84-1.39,.08-.3,.2-.6,.37-.87,.47-.76,.95-1.5,1.45-2.23,.17-.25,.27-.48,.29-.78,.09-1.6-.47-2.99-1.38-4.24-.38-.52-.92-.86-1.56-1.02-.23-.06-.44-.06-.67,.02-.7,.22-1.21,.64-1.49,1.32-.36,.89-.53,1.82-.54,2.77-.01,.77,0,1.55,0,2.32,0,.23,0,.47-.05,.68-.11,.45-.41,.75-.88,.85-.4,.08-.73-.06-1-.37-.2-.24-.22-.52-.22-.81,.01-.83,0-1.66,.01-2.5,.01-.63-.19-1.19-.59-1.67-.52-.62-1.14-1.13-1.86-1.51-.74-.4-1.31-.24-1.79,.45-.07,.09-.13,.19-.17,.3-.38,.85-.59,1.73-.45,2.67,.09,.63,.26,1.23,.56,1.8,.42,.78,.85,1.56,1.26,2.35,.28,.53,.16,1.04-.29,1.37-.4,.29-.97,.26-1.34-.1-.2-.2-.36-.44-.5-.69-.39-.7-.77-1.41-1.12-2.13-.16-.33-.39-.56-.7-.72-.49-.25-1.01-.39-1.56-.47-.28-.04-.51,.06-.66,.31-.08,.12-.16,.24-.22,.37-.8,1.78-.7,3.46,.57,4.99,.61,.74,1.32,1.38,2.15,1.84,1.46,.8,2.94,1.54,4.44,2.27,.7,.34,.91,.62,.7,1.32-.18,.61-.25,1.23-.29,1.86-.09,1.55-.15,3.09-.26,4.64-.31,4.36,.07,8.65,1.12,12.89,1.37,5.56,4.14,10.29,8.33,14.19,.82,.77,1.71,1.44,2.69,2,.14,.08,.3,.11,.47,.18l1.12-3.95Zm88.37,.78c.06,0,.1,.03,.12,.02,.38-.2,.75-.4,1.12-.61,2.03-1.15,3.92-2.5,5.66-4.04,2.64-2.32,4.89-5,6.89-7.89,1.15-1.66,2.07-3.44,2.64-5.38,.5-1.7,.96-3.42,1.45-5.13,.37-1.32,.77-2.64,.91-4.02,.05-.52,.29-.97,.58-1.41,.32-.48,.71-.73,1.26-.75,.31-.02,.63-.04,.94-.07,.91-.09,1.83-.18,2.74-.28,.6-.07,1.2-.12,1.79-.23,.7-.14,1.37-.39,2-.76,1.73-1.03,2.49-2.55,2.33-4.54-.04-.53-.19-1.02-.55-1.42-.41-.45-.85-.86-1.52-.9-.07,.03-.14,.07-.22,.09-.55,.15-.89,.53-1.23,.98-.49,.64-1.06,1.21-1.6,1.8-.33,.36-.75,.42-1.19,.29-.39-.12-.6-.43-.68-.82-.08-.4,.09-.73,.35-1.02,.31-.34,.64-.66,.96-.99,.57-.58,1.03-1.24,1.33-1.99,.39-.99,.43-2.03,.15-3.04-.28-1.01-.75-1.25-1.74-.98-.78,.22-1.48,.61-2.12,1.1-.38,.29-.6,.66-.69,1.14-.12,.62-.27,1.23-.43,1.84-.12,.44-.27,.86-.31,1.33-.05,.58-.49,.91-1.06,.91-.68,0-1.18-.55-1.12-1.24,.03-.31,.14-.61,.22-.92,.18-.63,.39-1.26,.53-1.9,.21-.98,.09-1.94-.36-2.85-.32-.65-.73-.85-1.4-.63-.48,.16-.96,.38-1.39,.67-1.52,1.03-2.23,2.57-2.59,4.31-.05,.24,.01,.45,.16,.64,.5,.62,.86,1.35,1.42,1.94,.53,.57,.34,1.41-.34,1.73-.4,.2-.79,.15-1.13-.13-.22-.18-.39-.41-.56-.65-.42-.58-.81-1.19-1.22-1.77-.3-.42-.67-.78-1.15-1.01-.28-.13-.55-.17-.83-.04-.82,.4-1.4,1.01-1.54,1.94-.07,.45-.09,.93,.01,1.37,.38,1.55,.99,2.99,2.15,4.14,.78,.77,1.64,1.44,2.6,1.96,.45,.25,.87,.53,1.3,.81,.58,.38,.69,.7,.51,1.39-.26,1-.52,2-.77,3-.75,3.07-1.96,5.93-3.74,8.54-.47,.69-.92,1.39-1.36,2.09-1.64,2.59-3.68,4.83-5.97,6.86-1.19,1.06-2.5,1.91-3.98,2.52-.13,.05-.25,.12-.37,.19,.36,1.3,.7,2.57,1.04,3.83Zm-82.1,32.37c.3-.3,.33-.59,.38-.86,.25-1.51,.74-2.94,1.36-4.34,.91-2.05,1.6-4.17,2.31-6.3,.31-.93,.52-1.88,.62-2.85,.16-1.63-.04-3.21-.9-4.65-.2-.35-.4-.7-.59-1.05-.44-.79-.66-1.65-.65-2.56,0-.4,0-.8,0-1.21,.01-.7-.16-1.37-.48-1.99-.2-.38-.42-.75-.64-1.12-.25-.42-.55-.81-.77-1.24-.71-1.34-.95-2.75-.56-4.24,.2-.78,.54-1.51,.91-2.22,.26-.48,.54-.95,.8-1.43,.36-.66,.64-1.35,.8-2.08,.2-.89,.2-1.77-.3-2.58-.12-.19-.26-.4-.44-.51-.44-.26-.93-.43-1.48-.38-.12,.17-.23,.34-.35,.5-1.78,2.53-3.08,5.3-4.07,8.22-.73,2.15-1.31,4.33-1.61,6.59-.23,1.74-.31,3.49-.37,5.23-.09,2.97,.2,5.9,.96,8.78,.54,2.03,1.25,3.99,2,5.95,.44,1.15,.94,2.28,1.45,3.4,.46,.99,1.02,1.92,1.63,2.93Z"/><path d="M105.66,203.72c-8.49,.02-16.99,.04-25.48,.08-14.2,.07-28.41,.15-42.61,.23-5.19,.03-10.39,.06-15.58,.09-.4,0-.8,0-1.18-.18-.7-.31-.98-.88-.92-1.65,.05-.64,.25-1.23,.48-1.81,1.38-3.47,3.08-6.79,5.01-9.99,1.93-3.2,4.36-5.97,7.24-8.35,.93-.77,1.88-1.52,2.86-2.21,1.6-1.13,3.33-2.02,5.23-2.53,1.29-.35,2.61-.39,3.92-.19,1.02,.15,2.03,.36,3.05,.52,1.09,.16,2.17,.16,3.23-.21,.79-.28,1.55-.6,2.27-1.02,.79-.46,1.39-1.09,1.81-1.91,.83-1.62,1.42-3.32,1.8-5.09,.34-1.57,.66-3.14,1.05-4.7,.22-.89,.51-1.77,.87-2.61,1.41-3.29,3.77-5.56,7.2-6.68,1.27-.41,2.58-.5,3.9-.5,1.84,0,3.57,.46,5.25,1.16,.53,.22,1.06,.44,1.57,.69,1.68,.8,3.38,.75,5.09,.12,.95-.35,1.83-.82,2.69-1.34,1.92-1.17,3.68-2.55,5.35-4.04,1.85-1.64,3.65-3.33,5.5-4.96,1.48-1.31,2.97-2.62,4.53-3.84,1.95-1.53,4.07-2.78,6.4-3.65,1.57-.58,3.18-.97,4.84-1.1,2.79-.22,5.25,.65,7.45,2.34,1.4,1.08,2.56,2.38,3.66,3.75,2.55,3.19,4.47,6.72,5.92,10.53,.9,2.36,1.83,4.7,2.75,7.05,.51,1.31,1.1,2.58,1.85,3.78,.56,.88,1.24,1.65,2.08,2.27,1.51,1.11,3.1,1.25,4.77,.4,.56-.28,1.09-.63,1.63-.95,.99-.58,1.96-1.19,2.97-1.73,1.19-.64,2.45-1.13,3.78-1.38,.96-.18,1.92-.3,2.9-.17,1.83,.26,3.28,1.15,4.42,2.57,.45,.56,.82,1.18,1.23,1.76,.55,.77,1.09,1.54,1.68,2.29,.78,.99,1.79,1.69,2.94,2.18,.5,.21,1.02,.39,1.52,.6,1.13,.49,2.26,.99,3.38,1.5,3.42,1.55,6.19,3.91,8.42,6.92,.65,.88,1.28,1.77,1.89,2.67,1.56,2.32,3.33,4.46,5.33,6.4,.97,.94,1.91,1.91,2.87,2.85,1.7,1.67,3.52,3.2,5.35,4.74,.35,.3,.72,.58,1.04,.9,.51,.52,.87,1.13,.95,1.88,.04,.36-.02,.69-.1,1.02-.1,.4-.3,.76-.82,.72-.06,0-.13,0-.17,.02-.56,.4-1.21,.3-1.83,.31-4.82,.03-9.64,.05-14.46,.07-8.9,.04-17.79,.07-26.69,.12-14.03,.08-28.07,.16-42.1,.25v.02Zm-83.55-1.78c.45,0,.82,.01,1.19,.01,11.45-.06,22.9-.12,34.35-.17,10.88-.06,21.75-.11,32.63-.17,11.51-.06,23.02-.12,34.53-.17,4.33-.02,8.67-.03,13-.05,11.31-.06,22.62-.12,33.92-.17,5.31-.03,10.62-.04,15.93-.06,.46,0,.92,0,1.38-.03,.12,0,.24-.07,.45-.13-.2-.2-.33-.35-.47-.48-.66-.56-1.32-1.11-1.98-1.66-2.27-1.9-4.37-3.98-6.48-6.05-2.43-2.38-4.6-4.97-6.47-7.8-.55-.84-1.15-1.65-1.76-2.44-1.86-2.4-4.12-4.31-6.87-5.62-.65-.31-1.29-.62-1.95-.9-1.08-.46-2.17-.9-3.25-1.35-1.51-.63-2.79-1.58-3.83-2.85-.67-.82-1.3-1.68-1.87-2.58-.38-.6-.8-1.19-1.27-1.73-.65-.76-1.49-1.28-2.48-1.44-.74-.12-1.49-.09-2.23,.05-1.45,.27-2.8,.83-4.08,1.56-.95,.54-1.85,1.15-2.8,1.69-.67,.38-1.35,.76-2.06,1.05-.91,.37-1.88,.51-2.87,.39-1.22-.15-2.31-.63-3.3-1.36-1.08-.8-1.94-1.78-2.65-2.91-.75-1.2-1.35-2.46-1.87-3.77-.93-2.35-1.86-4.69-2.75-7.05-1.34-3.57-3.1-6.9-5.44-9.92-.86-1.11-1.79-2.17-2.83-3.12-.81-.75-1.71-1.35-2.7-1.81-.89-.42-1.83-.64-2.82-.69-1.93-.09-3.76,.31-5.55,.98-2.25,.84-4.27,2.1-6.14,3.59-2.42,1.94-4.71,4.03-6.99,6.13-1.1,1.01-2.21,2.01-3.34,2.98-1.57,1.34-3.22,2.59-4.99,3.66-1.01,.61-2.05,1.15-3.17,1.53-2.12,.7-4.22,.74-6.29-.19-.47-.21-.95-.4-1.42-.61-1.24-.55-2.52-.94-3.87-1.08-1.42-.15-2.81-.04-4.16,.4-2.7,.87-4.56,2.68-5.72,5.23-.48,1.05-.79,2.15-1.05,3.27-.36,1.56-.67,3.14-1.04,4.7-.4,1.71-1.03,3.34-1.85,4.89-.56,1.07-1.36,1.91-2.39,2.54-1.16,.71-2.39,1.24-3.71,1.55-.75,.18-1.52,.3-2.3,.2-.54-.07-1.08-.16-1.61-.25-1.1-.19-2.19-.43-3.32-.47-.75-.03-1.49,.02-2.22,.21-1.54,.4-2.95,1.11-4.26,2.01-.92,.63-1.81,1.32-2.68,2.02-3.27,2.65-5.92,5.83-7.97,9.51-1.55,2.79-2.94,5.65-4.19,8.57-.03,.08-.03,.16-.08,.37Z"/><path d="M25.11,59.88c-.11-.88-.21-1.76-.35-2.64-.11-.65-.39-1.26-.73-1.83-.62-1.04-1.54-1.67-2.7-1.98-.25-.07-.51-.11-.74-.21-.8-.34-1.13-1.07-.87-1.89,.09-.27,.22-.53,.35-.78,.33-.61,.67-1.2,1-1.81,.56-1.04,.92-2.15,1.13-3.32,.2-1.11,.06-2.17-.3-3.21-.07-.22-.18-.43-.22-.65-.16-.72,.28-1.23,1.02-1.23,.14,0,.29,.02,.43,.02,.51,.01,.87,.25,1.11,.68,.22,.4,.45,.8,.65,1.21,.7,1.42,1.73,2.55,3.05,3.43,.84,.55,1.69,1.08,2.64,1.41,.29,.1,.58,.24,.84,.42,.71,.47,.85,1.23,.36,1.94-.11,.16-.25,.31-.38,.46-.3,.34-.6,.7-.91,1.03-.97,1.02-1.58,2.23-2,3.56-.57,1.81-.96,3.65-1.18,5.54-.04,.37-.09,.74-.2,1.1-.13,.45-.45,.73-.93,.78-.55,.06-1.04-.28-1.12-.84-.06-.39-.01-.8-.01-1.2h.04Zm1.04-5.31c.42-1.03,.79-2.03,1.23-2.98,.46-.99,1.28-1.73,1.96-2.64-1.82-.91-3.49-1.94-4.86-3.44-.32,1.04-.57,2.04-.95,2.98-.39,.97-.92,1.89-1.38,2.83,2.49,1.36,2.1,.95,4,3.26Z"/><path d="M181.49,70.89c.01,.36-.16,.69-.42,.97-.26,.27-.54,.51-.82,.75-.39,.34-.8,.66-1.18,1.01-.86,.78-1.54,1.69-2.01,2.76-.31,.71-.63,1.42-.95,2.12-.12,.26-.23,.53-.4,.76-.56,.75-1.57,.64-1.94-.22-.1-.23-.15-.49-.21-.74-.17-.64-.31-1.28-.52-1.91-.16-.49-.37-.96-.62-1.41-.56-1.01-1.44-1.52-2.6-1.57-.32-.01-.63,0-.95-.01-.2,0-.41-.02-.59-.09-.69-.24-.99-.95-.66-1.6,.14-.28,.36-.52,.56-.76,.59-.67,1.19-1.32,1.77-1.99,.71-.82,1.19-1.74,1.42-2.81,.11-.52,.14-1.03,.06-1.54-.11-.67,.17-1.16,.6-1.62,.37-.39,1.22-.49,1.65,.15,.11,.16,.19,.35,.27,.54,.62,1.54,1.69,2.72,2.99,3.7,.89,.68,1.86,1.24,2.87,1.73,.36,.17,.72,.36,1.05,.58,.46,.31,.63,.67,.63,1.2Zm-8.08-3.95c-.31,.93-.59,1.72-1.08,2.39-.48,.66-1,1.3-1.56,2.04,1.06,.23,1.93,.68,2.65,1.41,.73,.75,1.17,1.67,1.63,2.75,.5-.92,.92-1.76,1.57-2.44,.66-.7,1.36-1.37,2.07-2.07-.91-.57-1.83-1.14-2.73-1.72-.94-.61-1.72-1.41-2.54-2.36Z"/><path d="M47.91,154.83c.07-2.39,.75-4.57,2.34-6.4,.56-.65,1.18-1.25,1.79-1.86,.99-.97,1.83-2.06,2.44-3.3,.59-1.19,.98-2.44,.97-3.79,0-.79-.15-1.53-.45-2.26-.49-1.2-1.16-2.3-1.83-3.4-.13-.22-.28-.44-.36-.68-.18-.49,0-1,.42-1.28,.52-.34,1.2-.24,1.5,.31,.71,1.27,1.42,2.55,2.07,3.85,.99,2,1.03,4.07,.4,6.19-.56,1.87-1.52,3.52-2.8,4.98-.42,.47-.88,.9-1.32,1.35-.38,.39-.76,.78-1.12,1.19-2.28,2.56-2.45,6.51-.82,9.23,.28,.47,.58,.92,.9,1.36,.25,.35,.55,.65,.92,.89,.52,.34,.62,.85,.33,1.34-.27,.44-.86,.6-1.36,.35-.18-.09-.34-.22-.49-.35-1.98-1.7-3.14-3.83-3.43-6.43-.03-.28-.06-.57-.08-.86-.01-.14,0-.29,0-.43Z"/><path d="M155.44,148.31c-.87,.99-1.19,1.05-2.31,.49-.22,.1-.47,.23-.73,.34-.57,.23-1.15,.34-1.76,.24-1.28-.19-2.08-1.41-1.75-2.65,.33-1.25,1.59-2.35,2.88-2.52,.11-.01,.23,0,.34-.02,.11-.01,.22-.04,.35-.06,.09-.49,.15-.97,.25-1.44,.08-.36,.17-.73,.34-1.06,.34-.68,1.07-.81,1.65-.32,.37,.3,.61,.68,.72,1.14,.08,.33,.16,.66,.24,.97,.56-.18,1.07-.38,1.6-.49,1.31-.28,2.71,.37,3.38,1.52,.56,.97,.48,2.22-.26,3.14-.83,1.03-1.9,1.55-3.24,1.4-.33-.04-.66-.18-.97-.31-.24-.09-.45-.23-.72-.38Zm.59-2.3c.31,.23,.6,.46,.9,.67,.63,.43,1.23,.13,1.62-.25,.21-.21,.37-.46,.27-.77-.12-.35-.39-.57-.75-.61-.2-.03-.41-.04-.6,.01-.56,.15-1.06,.4-1.44,.95Zm-5.06,1.25c.63-.01,1.06-.27,1.39-.72,.03-.05,0-.17-.03-.22-.05-.05-.15-.08-.22-.06-.53,.12-.87,.47-1.13,1Z"/><path d="M137.19,153.66c-.02-1.05,.22-2.05,.66-3,.81-1.78,1.95-3.3,3.58-4.43,.64-.44,1.29-.86,1.92-1.31,.42-.3,.83-.61,1.22-.95,.71-.62,1.13-1.43,1.33-2.35,.09-.4,.11-.8,0-1.19-.15-.52-.33-1.04-.5-1.55-.07-.22-.18-.42-.24-.64-.12-.51,.13-1.02,.56-1.23,.47-.22,1.06-.05,1.36,.41,.09,.14,.16,.3,.22,.46,.16,.43,.32,.86,.47,1.29,.67,2.02,.25,3.84-.98,5.52-.51,.7-1.17,1.25-1.89,1.74-.71,.49-1.42,.97-2.14,1.44-1.33,.89-2.25,2.11-2.93,3.53-.65,1.36-.7,2.76-.12,4.16,.19,.46,.44,.87,.76,1.24,.23,.26,.46,.51,.84,.54,.08,0,.16,.05,.24,.09,.66,.31,.76,1.18,.17,1.62-.31,.24-.67,.32-1.06,.21-.48-.13-.89-.37-1.27-.69-1.53-1.28-2.18-2.97-2.23-4.92Z"/><path d="M46.89,170.62c.12-.96,.22-1.73,.31-2.49,.17-1.46-.29-2.71-1.26-3.79-.5-.56-1.08-1.03-1.72-1.41-.64-.37-1.29-.74-1.94-1.11-.8-.46-1.54-1-2.16-1.68-.89-.96-1.55-2.06-1.82-3.36-.24-1.14-.17-2.28,.13-3.4,.34-1.25,.86-2.43,1.49-3.56,.13-.24,.33-.47,.55-.64,.34-.26,.8-.22,1.12,.03,.37,.3,.48,.7,.24,1.15-.59,1.09-.95,2.27-1.29,3.45-.2,.69-.31,1.4-.21,2.12,.12,.94,.52,1.75,1.12,2.47,.5,.6,1.09,1.09,1.77,1.48,.62,.36,1.24,.71,1.87,1.06,.95,.54,1.8,1.22,2.53,2.04,.84,.94,1.38,2.03,1.66,3.25,.18,.76,.13,1.54,.06,2.31-.07,.68-.19,1.36-.3,2.04-.03,.19-.08,.4-.17,.57-.22,.45-.66,.66-1.14,.57-.45-.08-.79-.47-.83-.97,0-.11,0-.23,0-.15Z"/><path d="M189.96,183.88c0,.71-.22,1.28-.98,1.43-.51,.1-.92-.26-1.31-1.15-.25,.14-.49,.28-.74,.4-.67,.33-1.36,.36-2.09,.16-1.5-.42-2.12-2.21-1.47-3.48,.54-1.06,1.46-1.59,2.61-1.71,.45-.05,.92-.05,1.36,.1,.1,.03,.22,.02,.36,.02,.03-.31,.06-.59,.09-.87,.03-.26,.15-.49,.36-.66,.5-.42,1.23-.3,1.55,.26,.12,.22,.18,.47,.29,.76,.23-.06,.47-.12,.71-.19,.65-.19,1.3-.18,1.94,.04,1.12,.38,1.89,1.43,1.9,2.61,0,1.09-.7,2.1-1.77,2.51-.78,.3-1.56,.36-2.32-.08-.1-.06-.2-.1-.31-.15-.02,0-.06,0-.19,.02Zm.62-2.5c.39,.44,.66,.65,.88,.73,.26,.09,.62,0,.78-.19,.14-.16,.15-.44,.04-.64-.14-.26-.4-.32-.65-.32-.37,0-.73,.1-1.05,.42Zm-3.67,.24c-.43-.15-.83-.06-1.21,.16-.14,.08-.26,.22-.36,.35-.17,.23,0,.55,.28,.56,.14,0,.28-.03,.41-.08,.34-.16,.6-.47,.88-.98Z"/><path d="M37.71,174.52c-.21,.2-.38,.39-.58,.55-.61,.49-1.29,.74-2.08,.57-1.06-.23-1.74-1.06-1.84-2.21-.11-1.23,.56-2.97,2.43-3.39,.11-.02,.22-.05,.38-.08-.04-.24-.09-.46-.12-.68-.06-.52,.13-.9,.52-1.08,.38-.17,.82-.07,1.17,.27,.08,.08,.14,.17,.25,.31,.21-.15,.41-.29,.62-.43,.58-.4,1.22-.62,1.94-.58,1.81,.09,3.04,1.91,2.46,3.63-.15,.45-.42,.81-.8,1.09-.52,.38-1.1,.6-1.75,.63-.2,0-.4,0-.64,0-.05,.26,.11,.45,.15,.65,.11,.51-.1,1-.54,1.24-.33,.18-.66,.2-.98,0-.19-.12-.35-.29-.58-.49Zm1.52-3.92c.41,.37,.83,.38,1.26,.29,.12-.03,.26-.15,.3-.26,.13-.39-.3-.84-.69-.72-.35,.11-.67,.29-.87,.7Zm-2.9,1.38c-.37-.05-.58,.13-.73,.37-.22,.34-.31,.71-.12,1.16,.14-.07,.29-.1,.36-.19,.3-.38,.48-.81,.48-1.33Z"/><path d="M64.29,148.05c-.16,1.44-.59,1.75-1.89,1.32-.15,.14-.31,.3-.49,.44-1.21,.97-2.55,.59-3.42-.27-.85-.84-1.02-2.27-.16-3.28,.43-.51,.94-.93,1.55-1.2,.21-.09,.42-.18,.64-.27-.1-.27-.22-.5-.28-.74-.12-.45-.04-.86,.34-1.16,.37-.3,.78-.31,1.21-.1,.29,.14,.55,.3,.69,.61,.04,.1,.12,.18,.2,.28,.29-.2,.54-.38,.81-.55,.57-.36,1.19-.52,1.88-.51,1.73,.04,2.89,1.96,2.1,3.56-.4,.82-1.08,1.33-1.93,1.6-.4,.13-.83,.18-1.24,.27Zm-.49-2.42c.41,.19,.69,.22,.96,.14,.21-.07,.42-.18,.6-.3,.2-.14,.24-.36,.14-.53-.11-.18-.3-.25-.52-.17-.16,.06-.32,.12-.46,.23-.22,.17-.42,.37-.72,.64Zm-2.75,1.15c-.65,.29-.85,.44-1.06,.79-.13,.22-.07,.45,.16,.57,.19,.09,.39,.04,.5-.16,.19-.34,.34-.7,.39-1.19Z"/><path d="M206.1,104.63c-2.95,.07-5.91,.18-8.86,.2-3.15,.02-6.31-.05-9.47-.07-.29,0-.57-.02-.82-.19-.31-.2-.48-.49-.45-.87,.03-.36,.32-.72,.68-.81,.19-.05,.4-.06,.6-.07,1.18-.04,2.35-.1,3.53-.11,3.07-.03,6.14,0,9.21-.06,2.12-.04,4.24-.16,6.36-.25,.37-.01,.75-.04,1.12-.03,.72,.02,1.2,.47,1.19,1.08,0,.59-.54,1.11-1.19,1.13-.63,.02-1.26,0-1.89,0v.04Z"/><path d="M36.82,98.07c0,.46-.24,.84-.62,.98-.41,.16-.8,.12-1.12-.19-.2-.2-.36-.44-.51-.68-1.49-2.35-2.98-4.7-4.46-7.05-1.56-2.47-3.13-4.94-4.69-7.42-.14-.22-.29-.43-.4-.66-.24-.53-.09-1.07,.36-1.37,.44-.3,1-.21,1.39,.23,.13,.15,.24,.32,.34,.49,3.11,4.92,6.22,9.84,9.34,14.76,.18,.29,.39,.57,.37,.91Z"/><path d="M173.73,171.94c-.08-.3-.13-.58-.22-.85-.24-.68-.58-1.31-1.01-1.89-.33-.44-.67-.86-.98-1.31-.5-.74-.93-1.52-1.08-2.41-.29-1.66,.14-3.18,.89-4.64,.06-.12,.16-.24,.26-.34,.54-.5,1.38-.26,1.56,.46,.04,.16,.03,.35-.01,.51-.05,.19-.15,.37-.23,.56-.35,.9-.46,1.83-.41,2.79,.03,.47,.19,.9,.44,1.29,.33,.53,.7,1.05,1.08,1.55,.7,.92,1.26,1.91,1.6,3.02,.29,.97,.29,1.93-.13,2.86-.32,.7-.71,1.37-1.07,2.06-.05,.1-.13,.19-.21,.27-.4,.4-.88,.45-1.33,.17-.33-.21-.65-.78-.39-1.28,.12-.23,.24-.46,.36-.69,.21-.41,.44-.8,.63-1.22,.12-.28,.18-.6,.26-.89Z"/><path d="M177.05,178.77c.15-1.77,.83-3.22,2.3-4.25,.82-.58,1.68-1.1,2.62-1.46,1.26-.48,2.11-1.34,2.66-2.54,.23-.49,.47-.98,.72-1.47,.2-.39,.51-.61,.96-.61,.59,0,1.04,.44,1.03,1.03,0,.22-.06,.46-.16,.66-.31,.67-.63,1.35-.99,2-.69,1.25-1.69,2.16-3,2.72-.87,.37-1.71,.8-2.49,1.34-.8,.54-1.3,1.28-1.52,2.21-.07,.3-.05,.62-.09,.93-.03,.22-.03,.47-.13,.66-.16,.33-.48,.51-.85,.49-.36-.02-.69-.19-.81-.55-.13-.37-.18-.77-.26-1.16Z"/><path d="M181.43,97.01c-.76,0-1.25-.69-.95-1.34,.79-1.65,1.21-3.45,1.97-5.12,.77-1.69,1.43-3.43,2.15-5.15,.12-.29,.23-.59,.39-.86,.3-.51,.83-.69,1.32-.49,.54,.23,.79,.74,.63,1.34-.03,.11-.08,.21-.13,.32-1.29,3.12-2.57,6.24-3.87,9.36-.2,.47-.43,.94-.68,1.38-.19,.34-.49,.56-.83,.54Z"/><path d="M33.21,101.84c0,.9-.74,1.4-1.44,1.11-.16-.07-.3-.16-.44-.27-2.19-1.71-4.38-3.43-6.57-5.14-.33-.26-.56-.56-.55-1.01,.03-.72,.73-1.2,1.39-.92,.21,.09,.4,.22,.58,.35,2.1,1.64,4.2,3.28,6.3,4.93,.16,.12,.33,.24,.44,.4,.14,.2,.22,.45,.27,.55Z"/><path d="M38.02,89.25c.03-.11,.05-.34,.15-.55,.16-.34,.45-.5,.83-.5,.38,0,.67,.18,.82,.52,.1,.23,.16,.49,.21,.74,.35,1.89,.69,3.77,1.03,5.66,.05,.25,.07,.51,.07,.77-.01,.54-.34,.92-.86,1.03-.46,.1-.98-.2-1.16-.69-.09-.24-.13-.5-.17-.75-.29-1.93-.57-3.85-.86-5.78-.02-.11-.02-.23-.05-.46Z"/><path d="M185.17,99.43c-.77,0-1.21-.74-.85-1.4,.07-.12,.16-.23,.26-.34,1.32-1.47,2.64-2.94,3.96-4.41,.13-.15,.27-.29,.43-.41,.41-.31,.99-.28,1.35,.04,.36,.32,.44,.89,.18,1.33-.07,.12-.16,.23-.26,.34-1.38,1.46-2.75,2.91-4.13,4.36-.26,.27-.55,.51-.93,.49Z"/><path class="cls-4" d="M128.98,42.96c0,.43,0,.8,0,1.16,.06,2.22,.41,4.39,.89,6.55,.14,.64,.29,1.29,.44,1.93,.2,.82,.55,1.57,1.03,2.25,.3,.42,.6,.84,.9,1.26,1.73,2.48,1.88,5.95-.34,8.53-.36,.41-.71,.83-1.04,1.26-.76,.99-1.35,2.06-1.66,3.28-.2,.77-.24,1.54,0,2.29,.4,1.24,.58,2.51,.6,3.81,0,.25,.07,.51,.12,.76,.15,.65,.53,1.14,1.09,1.49,.19,.12,.4,.22,.6,.34,.83,.5,1.17,1.5,.77,2.39-.17,.39-.41,.76-.65,1.11-.96,1.37-1.76,2.82-2.54,4.29-.57,1.09-1.05,2.23-1.45,3.4-.22,.62-.37,1.26-.36,1.94,.02,1.31,.83,2.15,2.14,2.2,.28,0,.58-.02,.85-.08,.92-.21,1.83-.46,2.76-.66,.47-.1,.96-.12,1.45-.15,.46-.03,.76,.21,.91,.64,.11,.32,.2,.66,.31,.98,.12,.35,.22,.72,.4,1.04,.4,.74,1.01,1.24,1.87,1.37,.65,.1,1.3,.18,1.95,.3,.28,.05,.56,.14,.81,.26,.4,.18,.7,.48,.86,.91,.32,.86,.64,1.72,.79,2.63,.05,.31,.05,.63,.06,.94,.02,.3-.07,.55-.23,.81-1.16,1.97-2.55,3.74-4.32,5.21-.75,.62-1.45,1.3-2.18,1.96-1.88,1.69-3.74,3.4-5.78,4.89-2.49,1.82-5.19,3.24-8.13,4.21-2.64,.87-5.35,1.5-8.06,2.1-1.48,.33-3,.44-4.51,.6-2.29,.23-4.59,.15-6.88,.16-2.4,.02-4.74-.36-7.03-1.05-1.78-.54-3.57-1.04-5.37-1.53-2.24-.62-4.41-1.45-6.45-2.57-.43-.23-.86-.47-1.29-.69-4.11-2.08-7.68-4.89-10.97-8.08-.91-.88-1.68-1.88-2.47-2.87-.21-.27-.27-.54-.22-.87,.38-2.41,.83-4.8,1.86-7.04,.98-2.14,1.68-4.39,2.4-6.63,.55-1.71,.73-3.48,.55-5.27-.09-.95-.33-1.87-.76-2.72-.28-.56-.6-1.11-.9-1.66-.29-.51-.44-1.05-.42-1.64,.01-.63,0-1.26-.05-1.89-.11-1.17-.58-2.21-1.19-3.2-.27-.44-.56-.87-.83-1.31-.67-1.1-.8-2.26-.29-3.46,.27-.63,.59-1.24,.92-1.84,.56-1.01,1.1-2.01,1.36-3.15,.23-.96,.41-1.92,.1-2.89-.16-.52-.36-1.03-.61-1.51-.34-.66-.89-1.11-1.6-1.36-.26-.09-.52-.19-.84-.3,.09-.17,.15-.3,.23-.41,3.11-4.54,6.72-8.64,10.76-12.39,2.45-2.27,5.25-3.97,8.27-5.34,2.2-.99,4.53-1.6,6.86-2.23,1.52-.41,3.06-.75,4.62-.98,1.54-.24,3.08-.3,4.63-.29,.34,0,.69,.02,1.03,.02,1.87,0,3.73,.11,5.58,.34,.99,.13,1.99,.22,2.99,.33,1.2,.13,2.37,.42,3.53,.73,1.74,.47,3.5,.87,5.17,1.57,1.37,.57,2.76,1.13,4.12,1.74,1.11,.5,2.1,1.17,2.82,2.08Zm-51.44,21.75c.22,1.64,.91,3.07,1.75,4.45,.36,.59,.7,1.18,1.08,1.76,.74,1.14,1.61,2.17,2.67,3.01,1.78,1.41,3.65,2.67,5.77,3.55,2.34,.97,4.75,1.69,7.25,2.09,1.96,.31,3.95,.28,5.92,.13,.94-.07,1.89-.18,2.81-.39,1.84-.43,3.68-.88,5.48-1.44,1.89-.59,3.65-1.48,5.24-2.71,2.57-2.01,4.77-4.38,6.78-6.94,.62-.79,1.15-1.64,1.57-2.56,.13-.28,.27-.56,.42-.85,.29,0,.54,0,.8,0,.29,0,.58,0,.86-.03,.47-.07,.89-.24,1.14-.67,.48-.8-.19-1.6-.84-1.53-.2,.02-.4,.06-.6,.07-.31,.02-.63,.06-.94,.04-.32-.02-.63-.1-.84-.44,0-.16,.02-.36,0-.55-.07-.43-.38-.73-.79-.81-.37-.07-.8,.14-.99,.53-.1,.2-.14,.43-.18,.66-.09,.6,.15,1.12,.46,1.63-.35,.92-.73,1.82-1.31,2.6-2.06,2.78-4.38,5.31-7.15,7.4-.57,.43-1.18,.81-1.83,1.12-1.19,.58-2.4,1.08-3.69,1.39-1.22,.29-2.42,.69-3.65,.96-1.37,.31-2.78,.38-4.18,.45-1.79,.08-3.55-.03-5.3-.39-3.61-.74-6.97-2.02-9.95-4.25-1.33-.99-2.46-2.15-3.33-3.55-.5-.8-.96-1.63-1.46-2.43-.37-.59-.65-1.21-.89-1.86-.12-.32-.24-.63-.35-.94,.31-.42,.62-.83,.92-1.25,.19-.27,.26-.57,.23-.9-.05-.53-.45-.89-.98-.89-.41,0-.71,.2-.94,.51-.17,.23-.32,.48-.5,.7-.17,.22-.37,.27-.61,.16-.23-.11-.44-.27-.67-.39-.42-.21-.89-.12-1.17,.22-.25,.3-.28,.78-.04,1.13,.11,.16,.26,.3,.42,.43,.47,.39,1.01,.63,1.63,.77Zm13.21,21.75c-2.02-.09-3.3,1.12-3.58,2.68-.07,.39-.03,.8-.06,1.2-.03,.4-.06,.8-.12,1.19-.05,.34-.13,.67-.22,1-.05,.16-.13,.32-.25,.43-.26,.23-.54,.42-.82,.62-.33,.23-.68,.43-.99,.69-1.55,1.33-2.21,3.03-1.97,5.06,.14,1.15,.69,2.12,1.5,2.93,.38,.39,.79,.75,1.2,1.12,.51,.46,.84,1.01,.98,1.68,.06,.28,.12,.56,.17,.84,.18,1.02,.35,2.03,.67,3.02,.58,1.76,1.71,3.03,3.38,3.82,.8,.38,1.65,.65,2.53,.8,.54,.09,1.08,.2,1.62,.13,2.8-.4,4.53-3.05,4.09-5.43-.11-.56-.23-1.12-.39-1.67-.19-.65-.16-1.25,.22-1.81,.26-.38,.51-.76,.78-1.13,.34-.46,.73-.89,1.03-1.38,.36-.58,.69-1.19,.96-1.82,.34-.78,.39-1.62,.21-2.45-.32-1.51-1.04-2.79-2.27-3.74-.48-.37-.97-.72-1.48-1.04-1.12-.7-2-1.61-2.64-2.77-.25-.45-.54-.88-.8-1.32-.39-.64-.89-1.2-1.45-1.7-.69-.61-1.49-.96-2.31-.95Zm40.25,14.51c-1.03-.05-1.92,.35-2.69,.96-1.85,1.47-3.24,3.3-4.21,5.46-.55,1.23-.47,2.46-.1,3.69,.34,1.11,1.19,1.74,2.35,1.81,.67,.04,1.32-.06,1.94-.3,.97-.37,1.85-.91,2.63-1.6,.77-.68,1.36-1.48,1.58-2.5,.11-.52,.38-.95,.74-1.34,.25-.27,.51-.54,.73-.84,.54-.72,.81-1.54,.61-2.43-.35-1.59-1.91-2.99-3.58-2.93Zm-30.57-36.29c.4-.05,.8-.09,1.19-.17,1.39-.28,2.57-.96,3.57-1.96,.69-.69,1.32-1.43,1.98-2.15,.04-.04,.07-.09,.1-.14,.39-.63,.04-1.39-.69-1.51-.42-.07-.8,.03-1.11,.33-.26,.26-.5,.55-.75,.82-.39,.42-.76,.86-1.17,1.26-.77,.73-1.68,1.2-2.74,1.33-1.16,.15-2.07-.33-2.74-1.26-.17-.24-.26-.57-.31-.88-.1-.61,.02-1.2,.26-1.76,.45-1.04,1.07-1.96,1.86-2.77,.52-.54,1.05-1.07,1.83-1.21,.05,0,.11-.04,.16-.06,.32-.19,.52-.46,.51-.84-.01-.37-.2-.65-.54-.82-.33-.17-.66-.15-1-.06-.59,.16-1.12,.44-1.61,.8-1.67,1.23-2.78,2.88-3.43,4.83-.34,1.01-.31,2.02,.01,3.04,.58,1.85,2.95,3.29,4.62,3.16Zm-8.45-11.75c1.29,.08,2.65-.35,3.91-1.06,1.59-.89,2.85-2.12,3.5-3.87,.29-.78,.5-1.58,.71-2.38,.16-.6-.32-1.23-.94-1.3-.57-.06-1.03,.25-1.21,.87-.13,.44-.23,.89-.33,1.33-.25,1.11-.85,1.98-1.69,2.73-.68,.6-1.46,1-2.31,1.28-3.17,1.05-6.01-.79-6.92-2.94-.03-.08-.07-.16-.12-.23-.24-.36-.67-.53-1.04-.42-.39,.12-.7,.47-.7,.88,0,.25,.05,.51,.15,.75,.32,.78,.76,1.48,1.34,2.08,1.49,1.54,3.3,2.33,5.64,2.28Zm16.37-2.77c1.45-.03,2.69-.44,3.88-1.05,1.4-.71,2.43-1.78,3.16-3.18,.5-.96,.73-1.99,.91-3.03,.1-.56-.27-1.06-.77-1.18-.56-.13-1.03,.1-1.25,.64-.08,.18-.11,.38-.16,.58-.11,.42-.19,.84-.32,1.25-.3,.91-.77,1.75-1.53,2.35-1.99,1.56-4.18,1.9-6.53,.89-1.08-.47-1.86-1.21-2.1-2.43-.1-.51-.53-.82-.98-.78-.49,.05-.9,.46-.91,.98,0,.22,.03,.46,.09,.68,.38,1.42,1.18,2.53,2.49,3.24,1.28,.7,2.67,.99,4.02,1.05Z"/><path class="cls-5" d="M144.21,98.35c-.06-.15-.13-.3-.18-.44-.07-.19-.14-.38-.2-.57-.48-1.51-1.57-2.36-3.06-2.73-.64-.16-1.29-.26-1.95-.31-.52-.04-.77-.3-.9-.76-.14-.47-.25-.95-.42-1.4-.43-1.1-1.24-1.8-2.41-1.97-.53-.08-1.09-.04-1.62,.06-.96,.17-1.9,.43-2.84,.65-.25,.06-.5,.1-.76,.13-.08,0-.16-.04-.28-.07-.03-.38,.03-.74,.16-1.08,.27-.69,.5-1.41,.81-2.08,.72-1.53,1.49-3.04,2.45-4.44,.37-.54,.73-1.1,1.07-1.66,.84-1.41,.8-2.83,.04-4.25-.29-.55-.72-.96-1.24-1.29-.14-.09-.29-.19-.45-.25-.34-.14-.47-.4-.49-.74-.02-.2-.04-.4-.04-.6,.01-1.1-.16-2.17-.52-3.21-.27-.78-.19-1.51,.11-2.26,.27-.67,.63-1.29,1.08-1.85,.32-.41,.65-.8,.98-1.2,2.13-2.57,2.64-5.46,1.7-8.63-.23-.78-.57-1.5-1.02-2.17-.19-.29-.38-.58-.6-.84-.85-1.02-1.31-2.21-1.54-3.5-.35-1.98-.69-3.95-1.02-5.93-.01-.08,.02-.16,.03-.29,.12,.06,.23,.08,.32,.15,.89,.68,1.77,1.36,2.66,2.05,2.01,1.56,3.75,3.37,5.12,5.53,.98,1.55,1.98,3.09,2.78,4.75,.36,.75,.74,1.49,1.14,2.22,1.1,1.99,1.91,4.1,2.56,6.28,.57,1.93,1.11,3.85,1.43,5.84,.08,.51,.14,1.02,.18,1.54,.16,1.89,.35,3.77,.45,5.66,.06,1.17,.03,2.35-.03,3.52-.09,1.75-.22,3.49-.45,5.23-.33,2.39-.88,4.73-1.52,7.05-.28,.99-.62,1.97-.95,2.94-.11,.32-.27,.63-.4,.94h-.17Z"/><path class="cls-4" d="M89.01,120.69c1.58,.41,3.09,.7,4.49,1.23,.15,.27,0,.44-.08,.61-1.46,3.18-3.07,6.29-5.11,9.15-.9,1.26-1.8,2.52-2.75,3.74-.58,.75-1.24,1.43-1.89,2.12-.29,.31-.66,.55-1,.81-.33,.26-.69,.25-1.04,.03-.24-.15-.48-.32-.71-.48-4.41-3.15-8.81-6.31-13.25-9.44-3.38-2.38-6.6-4.97-9.82-7.56-1.72-1.38-3.42-2.8-5.23-4.07-.28-.2-.55-.41-.81-.64-1.66-1.46-3.45-2.76-5.22-4.08-.3-.22-.57-.48-.85-.73-.95-.83-2.14-.47-2.47,.75-.04,.14-.06,.28-.08,.42-.14,.7-.29,1.4-.41,2.11-.44,2.5-1.2,4.9-2.17,7.23-.51,1.22-.98,2.45-1.53,3.65-.47,1.01-1,2-1.57,2.96-.74,1.25-1.75,2.27-2.97,3.06-.31,.2-.63,.38-1.02,.43-1.52,.2-2.37-.57-2.87-1.9-.14-.37-.18-.78-.2-1.18-.09-1.27,.04-2.52,.24-3.77,.56-3.52,1.8-6.81,3.45-9.95,.94-1.8,1.99-3.55,3.03-5.3,1.43-2.41,3.31-4.46,5.3-6.43,.08-.08,.18-.13,.31-.23,.94,.76,1.87,1.52,2.82,2.26,2.05,1.62,4.09,3.24,6.16,4.83,2.78,2.13,5.57,4.24,8.36,6.35,.11,.09,.23,.17,.34,.27,2.5,2.25,5.3,4.12,7.96,6.17,.18,.14,.36,.28,.55,.41,2.25,1.48,4.4,3.11,6.59,4.68,.75,.54,1.5,1.06,2.23,1.61,.91,.68,1.9,1.17,2.97,1.51,.22,.07,.44,.12,.67,.15,.61,.07,1.13-.12,1.52-.61,.11-.14,.21-.28,.3-.42,1.08-1.66,2.17-3.31,3.25-4.97,.76-1.18,1.43-2.42,1.98-3.71,.14-.34,.33-.66,.55-1.08Z"/><path class="cls-4" d="M170.2,131.45c-15.1-3.9-30.17-7.79-45.38-11.72,.24-.14,.33-.19,.42-.24,1.29-.68,2.59-1.34,3.87-2.05,.4-.22,.73-.29,1.2-.16,5.56,1.47,11.13,2.91,16.7,4.36,6.04,1.57,12.08,3.15,18.11,4.72,.25,.07,.5,.14,.75,.19,.75,.15,1.3-.27,1.35-1.03,.01-.17,0-.34,0-.52-.02-1.72-.06-3.44-.04-5.16,.03-2.84,.62-5.58,1.61-8.23,.79-2.12,2-3.99,3.54-5.65,.95-1.02,2.05-1.84,3.33-2.39,.75-.32,1.53-.47,2.34-.21,.47,.15,.89,.38,1.27,.7,.58,.49,1.02,1.09,1.34,1.77,.43,.89,.68,1.82,.8,2.8,.07,.56-.05,1.09-.24,1.6-.38,1.02-.75,2.05-1.19,3.04-1.61,3.65-3.43,7.19-5.47,10.62-1.12,1.87-2.22,3.75-3.32,5.63-.26,.44-.47,.92-.71,1.38-.09,.17-.18,.35-.29,.55Z"/><path class="cls-4" d="M60.44,68.11l-1.12,3.95c-.18-.07-.34-.1-.47-.18-.97-.56-1.86-1.23-2.69-2-4.19-3.9-6.96-8.63-8.33-14.19-1.05-4.24-1.43-8.53-1.12-12.89,.11-1.55,.18-3.09,.26-4.64,.04-.63,.1-1.25,.29-1.86,.21-.7,0-.98-.7-1.32-1.49-.73-2.98-1.47-4.44-2.27-.83-.46-1.54-1.1-2.15-1.84-1.27-1.54-1.37-3.22-.57-4.99,.06-.13,.14-.25,.22-.37,.15-.24,.37-.35,.66-.31,.54,.08,1.07,.22,1.56,.47,.31,.16,.54,.4,.7,.72,.36,.72,.73,1.43,1.12,2.13,.14,.25,.3,.49,.5,.69,.37,.36,.95,.39,1.34,.1,.45-.33,.57-.85,.29-1.37-.42-.79-.85-1.56-1.26-2.35-.3-.56-.47-1.16-.56-1.8-.14-.95,.07-1.82,.45-2.67,.05-.1,.11-.2,.17-.3,.48-.69,1.04-.84,1.79-.45,.71,.38,1.34,.89,1.86,1.51,.4,.48,.6,1.03,.59,1.67-.02,.83,0,1.66-.01,2.5,0,.29,.01,.57,.22,.81,.26,.31,.6,.45,1,.37,.46-.1,.76-.39,.88-.85,.05-.22,.05-.46,.05-.68,0-.77-.01-1.55,0-2.32,.01-.95,.18-1.88,.54-2.77,.28-.69,.79-1.1,1.49-1.32,.23-.07,.44-.07,.67-.02,.64,.16,1.18,.5,1.56,1.02,.91,1.26,1.47,2.65,1.38,4.24-.02,.3-.12,.54-.29,.78-.51,.73-.99,1.48-1.45,2.23-.16,.26-.29,.56-.37,.87-.16,.62,.24,1.24,.84,1.39,.57,.14,1.14-.2,1.31-.81,.3-1.09,.95-1.96,1.71-2.74,.64-.66,1.44-1.02,2.4-.94,.49,.04,.81,.28,.98,.72,.14,.38,.25,.78,.16,1.18-.57,2.72-1.71,5.1-4.1,6.72-.82,.56-1.74,.87-2.71,1.04-.51,.09-1.03,.03-1.53-.14-.98-.33-1.54,0-1.72,1.01-.12,.65-.21,1.3-.32,1.95-.22,1.3-.5,2.59-.63,3.9-.16,1.58-.15,3.15-.06,4.73,.09,1.57,.21,3.15,.46,4.71,.5,3.17,1.38,6.21,2.88,9.06,.95,1.81,2,3.55,3.24,5.17,.79,1.04,1.7,1.94,2.86,2.57,.05,.03,.08,.08,.19,.18Z"/><path class="cls-4" d="M148.81,68.9c-.34-1.25-.69-2.52-1.04-3.83,.12-.06,.24-.14,.37-.19,1.48-.6,2.79-1.46,3.98-2.52,2.28-2.03,4.33-4.27,5.97-6.86,.44-.7,.9-1.4,1.36-2.09,1.78-2.61,2.99-5.47,3.74-8.54,.24-1,.51-2,.77-3,.18-.69,.07-1-.51-1.39-.43-.28-.85-.57-1.3-.81-.96-.52-1.82-1.19-2.6-1.96-1.16-1.15-1.77-2.59-2.15-4.14-.1-.43-.08-.92-.01-1.37,.14-.92,.72-1.54,1.54-1.94,.28-.13,.55-.09,.83,.04,.48,.23,.85,.59,1.15,1.01,.42,.58,.81,1.18,1.22,1.77,.17,.23,.34,.47,.56,.65,.33,.27,.72,.32,1.13,.13,.68-.33,.87-1.17,.34-1.73-.56-.59-.91-1.32-1.42-1.94-.15-.19-.21-.4-.16-.64,.36-1.74,1.07-3.28,2.59-4.31,.42-.28,.9-.51,1.39-.67,.68-.22,1.08-.02,1.4,.63,.45,.9,.57,1.87,.36,2.85-.14,.64-.35,1.27-.53,1.9-.08,.3-.19,.61-.22,.92-.06,.7,.44,1.24,1.12,1.24,.57,0,1.01-.33,1.06-.91,.04-.47,.19-.89,.31-1.33,.16-.61,.32-1.22,.43-1.84,.09-.48,.31-.85,.69-1.14,.65-.49,1.35-.89,2.12-1.1,.99-.28,1.46-.04,1.74,.98,.28,1.01,.24,2.05-.15,3.04-.3,.76-.76,1.41-1.33,1.99-.32,.33-.65,.65-.96,.99-.26,.28-.43,.62-.35,1.02,.08,.39,.3,.7,.68,.82,.44,.14,.86,.07,1.19-.29,.54-.59,1.12-1.16,1.6-1.8,.34-.44,.68-.83,1.23-.98,.08-.02,.16-.07,.22-.09,.67,.04,1.11,.45,1.52,.9,.36,.4,.5,.89,.55,1.42,.16,1.99-.61,3.51-2.33,4.54-.62,.37-1.29,.63-2,.76-.59,.12-1.19,.17-1.79,.23-.91,.1-1.82,.19-2.74,.28-.31,.03-.63,.06-.94,.07-.56,.03-.95,.28-1.26,.75-.29,.44-.53,.89-.58,1.41-.14,1.38-.53,2.7-.91,4.02-.48,1.71-.95,3.42-1.45,5.13-.57,1.94-1.49,3.72-2.64,5.38-2,2.89-4.25,5.57-6.89,7.89-1.75,1.54-3.64,2.89-5.66,4.04-.37,.21-.75,.41-1.12,.61-.02,.01-.06,0-.12-.02Z"/><path class="cls-5" d="M66.71,101.27c-.61-1.01-1.18-1.94-1.63-2.93-.52-1.12-1.01-2.25-1.45-3.4-.75-1.95-1.46-3.92-2-5.95-.76-2.88-1.05-5.81-.96-8.78,.05-1.75,.13-3.5,.37-5.23,.3-2.26,.88-4.44,1.61-6.59,.99-2.92,2.29-5.69,4.07-8.22,.11-.16,.23-.33,.35-.5,.55-.05,1.04,.12,1.48,.38,.18,.11,.33,.32,.44,.51,.49,.81,.5,1.69,.3,2.58-.16,.73-.44,1.42-.8,2.08-.26,.48-.54,.95-.8,1.43-.38,.71-.71,1.44-.91,2.22-.39,1.49-.14,2.9,.56,4.24,.23,.43,.52,.82,.77,1.24,.22,.37,.44,.74,.64,1.12,.32,.62,.49,1.28,.48,1.99,0,.4,0,.8,0,1.21,0,.91,.21,1.76,.65,2.56,.19,.35,.39,.7,.59,1.05,.86,1.44,1.06,3.02,.9,4.65-.1,.97-.31,1.92-.62,2.85-.7,2.12-1.4,4.25-2.31,6.3-.62,1.39-1.11,2.83-1.36,4.34-.05,.27-.07,.57-.38,.86Z"/><path class="cls-3" d="M22.1,201.94c.04-.21,.04-.3,.08-.37,1.25-2.93,2.64-5.79,4.19-8.57,2.05-3.68,4.7-6.86,7.97-9.51,.87-.7,1.75-1.39,2.68-2.02,1.31-.89,2.71-1.6,4.26-2.01,.73-.19,1.47-.23,2.22-.21,1.12,.04,2.21,.29,3.32,.47,.54,.09,1.07,.18,1.61,.25,.78,.1,1.55-.02,2.3-.2,1.32-.32,2.56-.84,3.71-1.55,1.03-.63,1.82-1.47,2.39-2.54,.82-1.56,1.45-3.18,1.85-4.89,.37-1.56,.68-3.14,1.04-4.7,.26-1.12,.57-2.22,1.05-3.27,1.16-2.56,3.02-4.37,5.72-5.23,1.36-.44,2.75-.55,4.16-.4,1.35,.14,2.64,.52,3.87,1.08,.47,.21,.95,.4,1.42,.61,2.07,.93,4.17,.89,6.29,.19,1.12-.37,2.16-.92,3.17-1.53,1.78-1.07,3.42-2.31,4.99-3.66,1.13-.97,2.24-1.97,3.34-2.98,2.28-2.1,4.57-4.19,6.99-6.13,1.87-1.49,3.89-2.75,6.14-3.59,1.78-.67,3.62-1.08,5.55-.98,.99,.05,1.92,.27,2.82,.69,1,.46,1.9,1.07,2.7,1.81,1.04,.96,1.96,2.01,2.83,3.12,2.34,3.02,4.09,6.35,5.44,9.92,.89,2.36,1.83,4.7,2.75,7.05,.52,1.31,1.12,2.57,1.87,3.77,.71,1.13,1.57,2.12,2.65,2.91,.99,.73,2.08,1.2,3.3,1.36,.99,.12,1.96-.02,2.87-.39,.71-.29,1.39-.67,2.06-1.05,.94-.54,1.85-1.15,2.8-1.69,1.28-.73,2.62-1.29,4.08-1.56,.74-.14,1.49-.16,2.23-.05,1,.16,1.83,.67,2.48,1.44,.46,.54,.88,1.13,1.27,1.73,.57,.9,1.19,1.75,1.87,2.58,1.04,1.27,2.32,2.21,3.83,2.85,1.08,.45,2.17,.89,3.25,1.35,.66,.28,1.3,.6,1.95,.9,2.75,1.31,5.01,3.22,6.87,5.62,.61,.79,1.21,1.61,1.76,2.44,1.88,2.83,4.04,5.42,6.47,7.8,2.11,2.07,4.21,4.15,6.48,6.05,.66,.55,1.32,1.1,1.98,1.66,.15,.13,.27,.28,.47,.48-.21,.06-.33,.13-.45,.13-.46,.02-.92,.02-1.38,.03-5.31,.02-10.62,.04-15.93,.06-11.31,.05-22.62,.12-33.92,.17-4.33,.02-8.67,.03-13,.05-11.51,.06-23.02,.12-34.53,.17-10.88,.06-21.75,.11-32.63,.17-11.45,.06-22.9,.12-34.35,.17-.37,0-.74,0-1.19-.01Zm136.45-5.65c-.43,.01-.85,.2-1.11,.44-.63,.62-.47,1.55,.34,1.9,.26,.11,.54,.2,.81,.27,.47,.11,1.03-.22,1.16-.67,.15-.51-.2-1.49-.66-1.75-.19-.11-.43-.15-.55-.19Zm-44.61-45.6c-.79-.03-1.3,.66-1.04,1.33,.08,.21,.19,.42,.32,.6,.52,.73,1.59,.72,2.11-.02,.24-.34,.27-.83,.01-1.12-.39-.44-.89-.7-1.4-.8Zm64.48,47.95c.39,0,.89-.21,1.14-.49,.33-.37,.35-.95,.01-1.33-.19-.21-.42-.4-.66-.54-.61-.36-1.28-.12-1.52,.55-.08,.21-.11,.45-.12,.67,0,.64,.49,1.12,1.14,1.14Zm-143.69-10.53c.41,.02,.72-.17,.95-.49,.15-.21,.27-.44,.39-.67,.33-.62-.04-1.24-.67-1.39-1.02-.24-1.97,.75-1.69,1.76,.12,.45,.54,.77,1.01,.79Zm134.7,8.69c.02-.9-.97-1.56-1.7-1.2-.46,.23-.76,.61-.86,1.12-.1,.54,.31,1.12,.85,1.21,.48,.08,1.4-.36,1.61-.79,.06-.12,.08-.27,.1-.34Zm-54.96-52.42c-.63,.01-1.18,.58-1.18,1.24,0,.65,.47,1.15,1.11,1.17,.75,.03,1.38-.46,1.41-1.09,0-.03,0-.06,0-.09,0-.47-.72-1.3-1.34-1.23Zm2.76,5.07c.02,.62,.37,1.09,.89,1.23,.45,.12,.99-.12,1.23-.58,.12-.22,.19-.48,.24-.73,.08-.41-.08-.73-.42-.96-.42-.29-.86-.26-1.29,0-.43,.25-.64,.64-.65,1.04Zm55.7,41.92c.77,0,1.4-.52,1.44-1.2,.03-.62-.49-1.18-1.11-1.19-.69-.01-1.38,.61-1.4,1.26-.02,.59,.49,1.12,1.07,1.12Zm-9.48-1.18s-.15,.01-.25,.05c-.48,.16-.98,.91-.96,1.42,.02,.53,.57,1,1.06,.86,.32-.09,.66-.23,.92-.43,.55-.41,.61-1.15,.17-1.57-.24-.22-.52-.35-.94-.33Zm-127.8,1.52c-.64-.03-1.18,.43-1.25,1.05-.07,.6,.46,1.28,1.05,1.38,.49,.08,.84-.09,1.04-.55,.09-.21,.17-.43,.19-.65,.07-.64-.41-1.2-1.03-1.23Zm7.55-.04c0-.64-.49-1.14-1.13-1.15-.68,0-1.22,.53-1.21,1.18,.01,.63,.58,1.21,1.2,1.23,.58,.02,1.13-.6,1.14-1.26Zm-1.42-6.08c.01-.82-.47-1.29-1.03-1.24-.67,.07-1.31,.84-1.24,1.52,.07,.75,.9,1.18,1.54,.78,.46-.29,.73-.72,.74-1.06Zm78.44-30.71c-.63-.01-1.23,.56-1.25,1.18-.01,.59,.61,1.17,1.26,1.16,.55,0,1.05-.53,1.08-1.14,.03-.62-.48-1.19-1.09-1.2Zm-80.92,41.78c-.58,0-1.08,.43-1.11,.97-.03,.6,.62,1.3,1.23,1.31,.64,.01,1.13-.54,1.13-1.26,0-.59-.52-1.02-1.25-1.03Zm-7.78-3.08c0-.13,0-.21,0-.3-.06-.47-.31-.79-.77-.94-.36-.12-.8,.02-1.08,.35-.28,.33-.36,.71-.19,1.12,.12,.3,.33,.54,.61,.7,.6,.34,1.25,.04,1.39-.63,.02-.11,.03-.23,.04-.3Zm1.5,3.08c-.55,.01-.95,.44-.94,1,0,.74,.47,1.28,1.09,1.29,.6,0,1.04-.46,1.05-1.1,.02-.7-.65-1.21-1.2-1.19Zm-4.23-.64c-.37,0-.62,.17-.78,.46-.23,.4-.22,.82-.05,1.23,.2,.45,.62,.65,1.12,.56,.42-.07,.73-.43,.77-.89,.04-.42-.11-.78-.39-1.09-.18-.2-.42-.28-.67-.26Z"/><path class="cls-2" d="M26.16,54.58c-1.9-2.31-1.5-1.9-4-3.26,.47-.94,.99-1.86,1.38-2.83,.38-.94,.62-1.94,.95-2.98,1.37,1.5,3.04,2.53,4.86,3.44-.68,.91-1.5,1.66-1.96,2.64-.45,.96-.81,1.95-1.23,2.98Z"/><path class="cls-2" d="M173.42,66.94c.82,.95,1.6,1.75,2.54,2.36,.9,.59,1.82,1.15,2.73,1.72-.71,.7-1.4,1.37-2.07,2.07-.65,.68-1.07,1.52-1.57,2.44-.46-1.08-.89-2-1.63-2.75-.72-.73-1.59-1.19-2.65-1.41,.57-.74,1.08-1.37,1.56-2.04,.49-.67,.77-1.46,1.08-2.39Z"/><path class="cls-1" d="M156.03,146.01c.38-.54,.89-.79,1.44-.95,.19-.05,.4-.04,.6-.01,.37,.05,.64,.26,.75,.61,.1,.31-.06,.56-.27,.77-.39,.38-1,.68-1.62,.25-.3-.21-.59-.43-.9-.67Z"/><path class="cls-1" d="M150.97,147.26c.26-.54,.59-.89,1.13-1,.07-.02,.18,.01,.22,.06,.04,.05,.07,.18,.03,.22-.32,.45-.75,.71-1.39,.72Z"/><path class="cls-1" d="M190.58,181.38c.32-.32,.68-.41,1.05-.42,.26,0,.51,.06,.65,.32,.11,.2,.1,.48-.04,.64-.17,.19-.52,.28-.78,.19-.22-.08-.49-.29-.88-.73Z"/><path class="cls-1" d="M186.91,181.62c-.28,.52-.54,.83-.88,.98-.12,.06-.27,.09-.41,.08-.29,0-.44-.33-.28-.56,.1-.13,.22-.27,.36-.35,.37-.22,.77-.31,1.21-.16Z"/><path class="cls-1" d="M39.24,170.6c.2-.41,.52-.59,.87-.7,.39-.12,.82,.33,.69,.72-.04,.11-.18,.24-.3,.26-.43,.09-.85,.08-1.26-.29Z"/><path class="cls-1" d="M36.34,171.98c0,.52-.18,.95-.48,1.33-.07,.09-.22,.12-.36,.19-.2-.45-.11-.82,.12-1.16,.15-.23,.36-.42,.73-.37Z"/><path class="cls-1" d="M63.8,145.63c.3-.27,.5-.47,.72-.64,.13-.1,.3-.17,.46-.23,.22-.08,.41-.01,.52,.17,.1,.16,.06,.38-.14,.53-.18,.13-.39,.24-.6,.3-.27,.09-.55,.05-.96-.14Z"/><path class="cls-1" d="M61.06,146.78c-.05,.5-.2,.85-.39,1.19-.11,.2-.31,.25-.5,.16-.23-.11-.29-.35-.16-.57,.21-.35,.41-.5,1.06-.79Z"/><path d="M77.54,64.71c-.62-.14-1.16-.39-1.63-.77-.15-.13-.31-.27-.42-.43-.24-.35-.21-.82,.04-1.13,.28-.34,.74-.43,1.17-.22,.23,.12,.44,.28,.67,.39,.24,.11,.44,.06,.61-.16,.17-.23,.32-.47,.5-.7,.24-.31,.53-.52,.94-.51,.52,0,.92,.36,.98,.89,.03,.33-.04,.63-.23,.9-.3,.42-.61,.83-.92,1.25,.11,.3,.23,.62,.35,.94,.24,.65,.52,1.27,.89,1.86,.5,.8,.96,1.63,1.46,2.43,.87,1.4,2,2.56,3.33,3.55,2.98,2.22,6.34,3.51,9.95,4.25,1.75,.36,3.51,.47,5.3,.39,1.41-.07,2.81-.14,4.18-.45,1.23-.27,2.43-.67,3.65-.96,1.29-.31,2.5-.81,3.69-1.39,.65-.31,1.25-.69,1.83-1.12,2.77-2.09,5.09-4.62,7.15-7.4,.58-.79,.97-1.69,1.31-2.6-.31-.51-.55-1.03-.46-1.63,.03-.22,.08-.45,.18-.66,.19-.39,.62-.6,.99-.53,.41,.08,.72,.38,.79,.81,.03,.19,0,.39,0,.55,.22,.34,.53,.42,.84,.44,.31,.02,.63-.02,.94-.04,.2-.01,.4-.05,.6-.07,.65-.06,1.32,.73,.84,1.53-.26,.43-.68,.6-1.14,.67-.28,.04-.57,.03-.86,.03-.26,0-.51,0-.8,0-.15,.3-.29,.57-.42,.85-.42,.92-.94,1.77-1.57,2.56-2.01,2.56-4.2,4.93-6.78,6.94-1.58,1.24-3.34,2.12-5.24,2.71-1.8,.56-3.64,1.01-5.48,1.44-.92,.21-1.87,.32-2.81,.39-1.98,.14-3.96,.18-5.92-.13-2.5-.4-4.91-1.12-7.25-2.09-2.12-.88-3.99-2.14-5.77-3.55-1.07-.84-1.93-1.88-2.67-3.01-.38-.58-.72-1.17-1.08-1.76-.84-1.38-1.53-2.82-1.75-4.45Z"/><path d="M90.75,86.46c.82-.01,1.62,.33,2.31,.95,.56,.5,1.06,1.05,1.45,1.7,.27,.44,.56,.87,.8,1.32,.64,1.16,1.52,2.07,2.64,2.77,.51,.32,1,.67,1.48,1.04,1.23,.96,1.95,2.23,2.27,3.74,.18,.84,.12,1.67-.21,2.45-.27,.63-.6,1.24-.96,1.82-.3,.49-.69,.91-1.03,1.38-.27,.37-.53,.75-.78,1.13-.38,.56-.41,1.17-.22,1.81,.16,.55,.28,1.11,.39,1.67,.45,2.39-1.28,5.04-4.09,5.43-.55,.08-1.08-.04-1.62-.13-.88-.15-1.73-.42-2.53-.8-1.66-.8-2.8-2.06-3.38-3.82-.32-.99-.49-2-.67-3.02-.05-.28-.12-.56-.17-.84-.14-.67-.47-1.22-.98-1.68-.41-.36-.81-.73-1.2-1.12-.81-.82-1.36-1.78-1.5-2.93-.25-2.03,.42-3.72,1.97-5.06,.3-.26,.66-.46,.99-.69,.28-.2,.56-.4,.82-.62,.12-.11,.21-.27,.25-.43,.1-.33,.17-.66,.22-1,.06-.4,.09-.79,.12-1.19,.03-.4-.02-.81,.06-1.2,.28-1.56,1.56-2.77,3.58-2.68Zm3.71,25.07c.17-.04,.56-.07,.88-.24,.92-.49,1.49-1.25,1.44-2.35-.02-.37-.07-.74-.15-1.1-.08-.39-.2-.78-.3-1.17-.2-.81-.14-1.59,.22-2.35,.29-.63,.64-1.22,1.07-1.76,.36-.45,.71-.9,1.05-1.36,.36-.49,.64-1.01,.85-1.59,.16-.45,.18-.89,.06-1.35-.26-1.08-.83-1.94-1.75-2.57-.52-.36-1.04-.71-1.56-1.07-1-.69-1.84-1.55-2.48-2.59-.34-.56-.66-1.14-1.04-1.68-.31-.44-.66-.86-1.04-1.25-.19-.2-.46-.37-.72-.45-.69-.22-1.61-.03-1.74,.99-.07,.54-.18,1.07,.01,1.61,.08,.23,.08,.53-.02,.75-.16,.37-.21,.77-.34,1.14-.13,.37-.34,.74-.6,1.03-.34,.38-.76,.7-1.16,1.02-.27,.21-.57,.39-.86,.58-.92,.59-1.31,1.5-1.45,2.53-.12,.91,.2,1.7,.81,2.36,.35,.38,.73,.73,1.12,1.07,.93,.8,1.51,1.79,1.76,2.98,.1,.48,.17,.96,.28,1.43,.17,.75,.31,1.52,.54,2.25,.3,.97,.92,1.71,1.8,2.22,.96,.55,1.99,.86,3.3,.93Z"/><path d="M131,100.97c1.66-.06,3.23,1.34,3.58,2.93,.2,.88-.07,1.71-.61,2.43-.22,.3-.48,.57-.73,.84-.36,.39-.63,.81-.74,1.34-.22,1.03-.81,1.82-1.58,2.5-.78,.69-1.66,1.22-2.63,1.6-.62,.24-1.27,.34-1.94,.3-1.16-.07-2.01-.71-2.35-1.81-.38-1.23-.45-2.46,.1-3.69,.96-2.16,2.35-3.99,4.21-5.46,.78-.62,1.66-1.01,2.69-.96Zm-5.29,8.06c.05,.16,.1,.32,.14,.49,.04,.17,.08,.34,.11,.5,.16,.77,.36,.89,1.13,.72,.08-.02,.16-.06,.24-.08,.95-.3,1.76-.83,2.45-1.53,.31-.31,.52-.68,.61-1.11,.21-.95,.71-1.74,1.39-2.43,.18-.18,.35-.38,.5-.59,.24-.37,.23-.75-.03-1.12-.5-.73-1.21-.95-2.02-.61-.18,.08-.36,.18-.52,.3-1.48,.99-3.46,3.7-4,5.48Z"/><path d="M100.44,64.68c-1.67,.13-4.04-1.32-4.62-3.16-.32-1.02-.35-2.03-.01-3.04,.66-1.95,1.76-3.6,3.43-4.83,.49-.36,1.01-.65,1.61-.8,.34-.09,.67-.1,1,.06,.34,.17,.53,.45,.54,.82,.01,.38-.2,.65-.51,.84-.05,.03-.1,.06-.16,.06-.79,.14-1.31,.67-1.83,1.21-.78,.81-1.41,1.73-1.86,2.77-.24,.57-.36,1.16-.26,1.76,.05,.3,.14,.63,.31,.88,.67,.93,1.58,1.41,2.74,1.26,1.06-.14,1.97-.6,2.74-1.33,.41-.4,.78-.84,1.17-1.26,.25-.27,.49-.56,.75-.82,.3-.3,.69-.4,1.11-.33,.73,.12,1.07,.88,.69,1.51-.03,.05-.06,.1-.1,.14-.66,.72-1.29,1.46-1.98,2.15-.99,1-2.18,1.68-3.57,1.96-.39,.08-.79,.11-1.19,.17Z"/><path d="M91.99,52.93c-2.34,.04-4.15-.74-5.64-2.28-.58-.6-1.03-1.31-1.34-2.08-.09-.23-.15-.5-.15-.75,0-.41,.3-.76,.7-.88,.37-.11,.8,.06,1.04,.42,.05,.07,.08,.15,.12,.23,.91,2.15,3.75,3.99,6.92,2.94,.85-.28,1.63-.68,2.31-1.28,.84-.74,1.44-1.62,1.69-2.73,.1-.45,.2-.89,.33-1.33,.19-.61,.65-.93,1.21-.87,.62,.07,1.1,.69,.94,1.3-.21,.8-.43,1.61-.71,2.38-.65,1.74-1.91,2.98-3.5,3.87-1.26,.71-2.63,1.13-3.91,1.06Z"/><path d="M108.36,50.16c-1.34-.06-2.73-.35-4.02-1.05-1.31-.71-2.11-1.82-2.49-3.24-.06-.22-.1-.45-.09-.68,.02-.52,.42-.93,.91-.98,.45-.04,.88,.26,.98,.78,.24,1.22,1.01,1.96,2.1,2.43,2.35,1.01,4.54,.67,6.53-.89,.76-.6,1.23-1.43,1.53-2.35,.13-.41,.21-.83,.32-1.25,.05-.19,.08-.39,.16-.58,.23-.54,.69-.77,1.25-.64,.5,.12,.86,.62,.77,1.18-.18,1.04-.41,2.07-.91,3.03-.72,1.39-1.76,2.46-3.16,3.18-1.19,.61-2.42,1.02-3.88,1.05Z"/><path d="M158.56,196.28c.12,.04,.36,.08,.55,.19,.46,.26,.82,1.24,.66,1.75-.13,.44-.69,.77-1.16,.67-.28-.06-.55-.15-.81-.27-.81-.36-.97-1.29-.34-1.9,.25-.25,.67-.43,1.11-.44Z"/><path d="M113.95,150.69c.51,.1,1.01,.36,1.4,.8,.26,.29,.23,.77-.01,1.12-.52,.74-1.59,.75-2.11,.02-.13-.18-.24-.39-.32-.6-.26-.68,.25-1.36,1.04-1.33Z"/><path d="M178.43,198.64c-.64-.01-1.14-.5-1.14-1.14,0-.22,.04-.46,.12-.67,.24-.67,.91-.92,1.52-.55,.24,.14,.47,.33,.66,.54,.34,.38,.32,.95-.01,1.33-.25,.28-.76,.5-1.14,.49Z"/><path d="M34.75,188.1c-.47-.02-.89-.34-1.01-.79-.28-1.01,.67-2,1.69-1.76,.63,.15,1,.77,.67,1.39-.12,.23-.24,.46-.39,.67-.23,.31-.54,.51-.95,.49Z"/><path d="M169.45,196.8c-.02,.07-.04,.21-.1,.34-.22,.43-1.13,.87-1.61,.79-.54-.09-.95-.67-.85-1.21,.1-.51,.4-.89,.86-1.12,.74-.36,1.72,.3,1.7,1.2Z"/><path d="M114.48,144.38c.63-.07,1.35,.76,1.34,1.23,0,.03,0,.06,0,.09-.03,.63-.66,1.12-1.41,1.09-.65-.02-1.12-.52-1.11-1.17,0-.66,.55-1.23,1.18-1.24Z"/><path d="M117.24,149.45c.01-.41,.22-.79,.65-1.04,.43-.25,.87-.28,1.29,0,.33,.23,.5,.55,.42,.96-.05,.25-.13,.5-.24,.73-.24,.46-.78,.7-1.23,.58-.51-.14-.87-.6-.89-1.23Z"/><path d="M172.95,191.37c-.58,0-1.09-.54-1.07-1.12,.02-.65,.71-1.27,1.4-1.26,.62,0,1.14,.57,1.11,1.19-.03,.68-.67,1.21-1.44,1.2Z"/><path d="M163.47,190.19c.42-.02,.7,.11,.94,.33,.45,.42,.38,1.16-.17,1.57-.27,.2-.6,.34-.92,.43-.49,.14-1.04-.34-1.06-.86-.02-.51,.48-1.25,.96-1.42,.11-.04,.22-.04,.25-.05Z"/><path d="M35.66,191.72c.62,.03,1.1,.59,1.03,1.23-.02,.22-.1,.45-.19,.65-.21,.46-.56,.63-1.04,.55-.59-.1-1.11-.78-1.05-1.38,.07-.62,.61-1.08,1.25-1.05Z"/><path d="M43.22,191.68c0,.66-.56,1.28-1.14,1.26-.62-.02-1.19-.6-1.2-1.23-.01-.65,.53-1.18,1.21-1.18,.64,0,1.14,.5,1.13,1.15Z"/><path d="M41.79,185.6c0,.34-.28,.77-.74,1.06-.64,.4-1.47-.02-1.54-.78-.06-.68,.57-1.46,1.24-1.52,.56-.06,1.04,.42,1.03,1.24Z"/><path d="M120.23,154.88c.61,.01,1.13,.58,1.09,1.2-.03,.62-.53,1.14-1.08,1.14-.66,0-1.28-.57-1.26-1.16,.01-.62,.62-1.19,1.25-1.18Z"/><path d="M39.31,196.66c.72,0,1.24,.43,1.25,1.03,0,.71-.49,1.27-1.13,1.26-.61,0-1.26-.71-1.23-1.31,.03-.54,.53-.98,1.11-.97Z"/><path d="M31.53,193.59c0,.07-.01,.19-.04,.3-.13,.67-.79,.96-1.39,.63-.29-.16-.49-.4-.61-.7-.17-.41-.1-.79,.19-1.12,.28-.33,.72-.46,1.08-.35,.46,.15,.71,.47,.77,.94,.01,.08,0,.17,0,.3Z"/><path d="M33.04,196.67c.55-.02,1.22,.49,1.2,1.19-.02,.63-.45,1.11-1.05,1.1-.62,0-1.08-.55-1.09-1.29,0-.56,.39-.99,.94-1Z"/><path d="M28.81,196.03c.25-.02,.49,.07,.67,.26,.28,.3,.43,.67,.39,1.09-.04,.47-.35,.82-.77,.89-.5,.08-.93-.11-1.12-.56-.18-.41-.18-.83,.05-1.23,.16-.29,.42-.46,.78-.46Z"/><path class="cls-5" d="M94.46,111.53c-1.31-.07-2.34-.38-3.3-.93-.88-.51-1.5-1.25-1.8-2.22-.23-.74-.37-1.5-.54-2.25-.11-.48-.18-.96-.28-1.43-.25-1.19-.83-2.19-1.76-2.98-.39-.34-.77-.69-1.12-1.07-.61-.66-.93-1.45-.81-2.36,.14-1.03,.53-1.93,1.45-2.53,.29-.19,.59-.36,.86-.58,.4-.32,.82-.64,1.16-1.02,.26-.29,.47-.66,.6-1.03,.13-.37,.19-.77,.34-1.14,.09-.22,.09-.53,.02-.75-.19-.55-.08-1.08-.01-1.61,.14-1.02,1.06-1.21,1.74-.99,.26,.08,.53,.25,.72,.45,.37,.39,.73,.81,1.04,1.25,.38,.54,.69,1.12,1.04,1.68,.64,1.04,1.47,1.9,2.48,2.59,.52,.36,1.04,.71,1.56,1.07,.91,.63,1.48,1.49,1.75,2.57,.11,.46,.1,.9-.06,1.35-.2,.57-.49,1.1-.85,1.59-.34,.46-.7,.91-1.05,1.36-.43,.54-.78,1.13-1.07,1.76-.36,.76-.42,1.54-.22,2.35,.1,.39,.22,.77,.3,1.17,.07,.36,.13,.73,.15,1.1,.05,1.1-.51,1.86-1.44,2.35-.31,.17-.7,.2-.88,.24Z"/><path class="cls-5" d="M125.72,109.03c.55-1.78,2.52-4.49,4-5.48,.17-.11,.34-.22,.52-.3,.81-.34,1.53-.11,2.02,.61,.26,.38,.27,.75,.03,1.12-.14,.21-.32,.41-.5,.59-.68,.69-1.18,1.48-1.39,2.43-.1,.44-.31,.8-.61,1.11-.69,.71-1.5,1.23-2.45,1.53-.08,.03-.16,.06-.24,.08-.77,.17-.97,.05-1.13-.72-.04-.17-.07-.34-.11-.5-.04-.17-.1-.33-.14-.49Z"/></svg>