<?xml version="1.0" encoding="UTF-8"?><svg id="Layer_1" xmlns="http://www.w3.org/2000/svg" viewBox="0 0 212 212"><defs><style>.cls-1{fill:#ed6f90;}.cls-2{fill:#fff;}.cls-3{fill:#f15b22;}.cls-4{fill:#feda00;}.cls-5{fill:#848383;}.cls-6{fill:#92c6ea;}.cls-7{fill:#a3a3d1;}.cls-8{fill:#9a979b;}.cls-9{fill:#5aa445;}.cls-10{fill:#595a5a;}</style></defs><path d="M50.3,113.09c2.71-1.89,5.56-2.55,9.54-1.09,.25-.18,.25-.48,.33-.75,.89-3.3,1.94-6.55,3.3-9.69,1.25-2.89,2.89-5.55,4.87-8.01,2.05-2.54,4.2-5,6.75-7.05,4.17-3.36,8.73-6.03,13.88-7.64,3.02-.94,6.04-1.84,9.1-2.65,1.87-.5,3.77-.81,5.68-1.09,1.72-.26,3.44-.49,5.17-.68,2.17-.24,4.36-.42,6.54-.23,3.86,.32,7.64,1.08,11.23,2.57,1.81,.75,3.62,1.5,5.4,2.32,2.86,1.31,5.49,2.99,7.95,4.96,2.75,2.21,5.27,4.65,7.73,7.16,.73,.74,1.38,1.56,2.04,2.38,2.26,2.79,4.21,5.78,5.91,8.94,.1,.19,.22,.38,.31,.53,.26,.13,.41-.03,.56-.12,1.12-.68,2.07-1.56,2.93-2.54,1.85-2.13,3.18-4.55,4.22-7.16,1.07-2.69,1.76-5.48,2-8.37,.1-1.26,.03-2.53,.03-3.8,0-.15-.05-.3-.09-.51-.3-.02-.58-.05-.85-.06-1.21-.03-2.39-.19-3.53-.61-.99-.36-1.9-.85-2.72-1.51-1.78-1.45-3.12-3.22-3.84-5.42-.34-1.03-.34-2.06-.05-3.09,.42-1.52,1.48-2.39,2.99-2.72,.52-.11,1.06-.11,1.63-.17,.17-.3,.05-.65,.03-.98-.1-1.45,.15-2.84,.59-4.2,.22-.7,.54-1.35,.96-1.95,.68-.97,1.58-1.61,2.75-1.89,.81-.2,1.57-.06,2.33,.2,.95,.32,1.75,.88,2.43,1.61,.19,.21,.37,.42,.6,.68,.21-.21,.41-.41,.6-.61,.79-.83,1.73-1.34,2.88-1.5,.85-.12,1.64,.01,2.4,.38,1.82,.89,2.84,2.37,3.09,4.37,.07,.56,.05,1.13,.08,1.75,.24,.01,.45,.03,.66,.04,2.47,.06,4.31,1.85,4.41,4.32,.09,2.48-.86,4.57-2.53,6.34-1.41,1.49-3.17,2.39-5.1,2.98-.57,.18-1.16,.31-1.79,.48,0,.16-.04,.34-.02,.52,.25,2.53,.19,5.06-.2,7.57-1.06,6.87-3.94,12.91-8.41,18.2-1.71,2.01-3.62,3.8-5.75,5.37-.25,.19-.49,.38-.75,.58,.04,.76,.21,1.46,.49,2.21,.22-.18,.43-.32,.6-.49,.66-.68,1.31-1.37,1.98-2.05,.8-.81,1.65-1.57,2.63-2.18,.73-.46,1.5-.8,2.35-.99,1.28-.28,2.38,.04,3.35,.88,.71,.61,1.26,1.35,1.65,2.18,.44,.94,.82,1.92,1.23,2.88,.49,1.17,.96,2.34,1.47,3.5,.64,1.45,1.66,2.59,2.97,3.5,1.17,.81,2.29,1.69,3.4,2.58,1.99,1.61,3.56,3.59,4.84,5.8,1.14,1.98,2.06,4.06,2.9,6.18,.27,.68,.53,1.35,.8,2.03,1.17,3.01,2.57,5.91,4.2,8.71,1.77,3.04,3.5,6.09,5.49,8.99,.59,.86,1.19,1.72,1.76,2.59,.91,1.38,1.25,2.89,.92,4.53-.05,.24-.15,.48-.24,.71-.03,.08-.1,.2-.17,.21-.54,.11-.97,.49-1.59,.48-4.24-.08-8.48-.1-12.73-.14-2.94-.03-5.89-.05-8.83-.07-.15,0-.3,.02-.42,.03-.07,.28,.1,.41,.2,.55,1.8,2.54,2.77,5.39,3.05,8.47,.17,1.89,.24,3.79,.31,5.69,.05,1.28-.3,2.5-.71,3.71-.17,.51-.52,.78-1.01,.89-.71,.16-1.41,.31-2.15,.31-3.42,0-6.84,.06-10.26,.1-8.96,.09-17.92,.18-26.88,.27-6.02,.06-12.03,.12-18.05,.18-6.33,.06-12.66,.13-18.99,.19-6.17,.06-12.35,.13-18.52,.19-6.21,.06-12.41,.13-18.62,.19-5.67,.06-11.33,.12-17,.18-.16,0-.32,0-.47,0-.86-.04-1.2-.31-1.4-1.13-.08-.34-.14-.68-.19-1.03-.33-2.06-.57-4.14-.62-6.23,0-.21-.07-.43-.11-.66-.36-.16-.71-.1-1.05-.1-4.21-.03-8.42-.04-12.63-.07-3.13-.02-6.27-.07-9.4-.09-4.27-.03-8.55-.05-12.82-.09-.31,0-.64,0-.93-.1-.86-.3-1.21-1-1.22-1.85,0-.72,.07-1.45,.28-2.15,1.37-4.68,3.08-9.24,5.07-13.69,2.3-5.11,5.5-9.6,9.54-13.48,1.13-1.08,2.37-1.99,3.73-2.76,1.83-1.03,3.74-1.28,5.77-.77,.95,.24,1.91,.45,2.85,.7,.8,.22,1.57,.11,2.33-.16,1.08-.39,2.05-.98,2.91-1.75,.63-.56,1.04-1.27,1.34-2.04,.67-1.71,1.19-3.47,1.53-5.28,.34-1.87,.61-3.75,.94-5.62,.25-1.4,.54-2.8,.87-4.18,.11-.48,.06-.83-.21-1.24-2.59-4-4.39-8.33-5.48-12.96-.95-4.06-1.36-8.17-1.11-12.34,.18-3.11,.68-6.16,1.57-9.14,.04-.15,.07-.31,.12-.5-.09-.06-.19-.15-.29-.19-2.37-.95-3.9-2.74-4.98-4.98-.83-1.73-1.26-3.57-1.38-5.49-.06-1.07,.21-2.07,.78-2.98,1.03-1.65,2.63-2.27,4.59-1.77,.51,.13,.99,.41,1.48,.62,.2,.09,.39,.2,.61,.32,.17-.5,.16-.97,.21-1.44,.14-1.14,.46-2.23,1.02-3.24,.73-1.31,1.82-2.17,3.29-2.52,1.26-.3,2.45-.15,3.54,.58,1.4,.93,2.17,2.28,2.58,3.85,.15,.58,.19,1.18,.29,1.84,.15-.04,.32-.07,.48-.13,.27-.09,.53-.22,.8-.3,1.45-.43,2.69-.08,3.71,1.03,.83,.91,1.31,2,1.58,3.19,.37,1.61,.14,3.14-.51,4.64-.12,.28-.25,.57-.38,.86,2.86,.41,4.29,4.21,2.7,6.62-1.1,1.66-2.63,2.58-4.56,2.95-1.49,.28-2.96,.16-4.44-.08-1.06-.17-2.09-.48-3.11-.85-.25,.21-.26,.51-.31,.77-.74,3.68-.98,7.4-.75,11.15,.25,4.13,1.06,8.15,2.64,11.99,.15,.37,.26,.78,.58,1.14Zm-1.22,68.77c.58,0,1.08,0,1.59,0,2.15-.04,4.3-.09,6.46-.11,6.46-.07,12.92-.13,19.38-.2,5.95-.06,11.9-.12,17.86-.18,6.52-.07,13.04-.13,19.56-.2,5.89-.06,11.78-.12,17.67-.18,6.87-.07,13.74-.13,20.61-.2,6.49-.06,12.98-.13,19.47-.2,1.96-.02,3.93-.03,5.89-.05,.25,0,.49-.04,.73-.05,.32-.82,.48-1.62,.44-2.46-.07-1.8-.09-3.61-.25-5.41-.21-2.39-.9-4.65-2.17-6.71-.82-1.33-1.85-2.48-3-3.54-.59-.54-1.25-.97-1.98-1.28-.73-.31-1.47-.59-2.19-.91-1.01-.45-2.04-.86-3.01-1.38-1.57-.85-2.75-2.12-3.58-3.7-1.13-2.15-1.6-4.47-1.43-6.88,.12-1.64,.34-3.27,.57-4.9,.35-2.48,.58-4.96,.31-7.47-.21-1.95-.75-3.78-1.85-5.42-1.29-1.93-3.07-3.16-5.33-3.67-2.53-.57-5.09-.54-7.65-.32-1.98,.17-3.95,.48-5.93,.75-1.82,.25-3.64,.38-5.48,.17-3.01-.34-5.31-1.71-6.84-4.34-.53-.91-.95-1.86-1.32-2.84-.34-.92-.68-1.84-1.02-2.76-.72-1.92-2-3.36-3.73-4.41-1.87-1.14-3.87-1.71-6.07-1.25-.59,.12-1.17,.29-1.74,.46-1.34,.42-2.56,1.07-3.72,1.86-.86,.59-1.72,1.19-2.63,1.7-2.76,1.58-5.7,2.17-8.86,1.52-.99-.2-2-.3-2.99-.49-1.42-.27-2.77-.02-4.08,.53-1.23,.52-2.4,1.14-3.5,1.89-2,1.35-3.9,2.81-5.71,4.41-2.37,2.1-4.32,4.53-5.79,7.34-.72,1.37-1.52,2.7-2.32,4.03-1.17,1.94-2.63,3.64-4.29,5.18-1.03,.96-2.17,1.75-3.46,2.3-1.6,.68-3.2,1.35-4.83,1.97-2,.76-3.86,1.75-5.47,3.17-.88,.77-1.73,1.58-2.56,2.41-2.35,2.34-3.83,5.18-4.69,8.35-.95,3.49-1.39,7.08-1.57,10.68-.21,4.12,.09,8.23,.42,12.33,0,.12,.05,.24,.1,.47Zm99.9-57.97c.22-.9,.27-1.72,.27-2.54,0-1.32,.28-2.58,.87-3.76,.74-1.47,1.47-2.94,2.24-4.39,.83-1.57,1.87-3,3.02-4.42-.06-.42-.11-.89-.19-1.36-.18-1.01-.6-1.93-1.07-2.83-1.64-3.15-3.47-6.18-5.71-8.95-.56-.69-1.07-1.41-1.68-2.06-2.56-2.72-5.25-5.31-8.16-7.66-2.48-2.01-5.15-3.67-8.05-4.96-1.7-.76-3.42-1.49-5.15-2.18-2.9-1.16-5.93-1.78-9.01-2.15-2.79-.34-5.56-.04-8.33,.25-1.19,.12-2.38,.3-3.57,.49-1.62,.27-3.25,.51-4.85,.88-2.12,.5-4.21,1.12-6.32,1.69-.17,.05-.33,.12-.56,.2,.2,.33,.36,.6,.52,.86,.4,.64,.59,1.34,.49,2.08-.16,1.25-.59,2.39-1.48,3.32-.95,1-2.07,1.76-3.33,2.32-.49,.22-1,.4-1.49,.62-.55,.25-1.1,.49-1.62,.78-1.28,.71-2.01,1.8-2.17,3.26-.06,.5-.11,1.01-.16,1.51-.15,1.4-.49,2.74-1.29,3.92-.27,.39-.54,.78-.86,1.13-.66,.73-1,1.59-1.1,2.57-.28,2.88-1.63,5.22-3.74,7.14-.68,.62-1.4,1.18-2.16,1.7-2.19,1.5-4.43,2.94-6.78,4.18-.95,.5-1.88,1.05-2.71,1.75-1.2,1.02-2.4,2.06-3.6,3.09,0,.27,0,.49,0,.71-.06,1.84,.11,3.66,.37,5.48,.7,4.75,1.96,9.34,4.02,13.69,.06,.14,.17,.25,.26,.4,1.47-.51,2.7-1.32,3.79-2.35,1.43-1.36,2.71-2.84,3.72-4.54,.75-1.25,1.46-2.52,2.19-3.78,.29-.5,.45-1.01,.48-1.61,.08-1.67,.82-3.03,2.14-4.06,.6-.47,1.25-.86,1.98-1.1,.35-.11,.62-.29,.88-.53,1.7-1.62,3.55-3.06,5.44-4.44,1.59-1.16,3.25-2.2,5.06-2.97,.14-.06,.27-.14,.41-.22-.2-1.49-.25-2.94-.13-4.39,.14-1.78,.56-3.5,1.36-5.1,.44-.88,1.01-1.68,1.76-2.34,.87-.75,1.86-1.17,3.03-1.17,1.14,0,2.08,.49,2.91,1.21,.85,.73,1.47,1.65,1.96,2.66,.74,1.53,1.14,3.15,1.32,4.82,.13,1.17,.16,2.34,.03,3.51-.03,.23-.11,.49,.11,.73,1.41-.32,2.7-.86,3.89-1.7-.05-.23-.09-.41-.14-.59-.61-2.22-.83-4.47-.46-6.76,.23-1.45,.64-2.84,1.42-4.1,.47-.76,1.05-1.43,1.8-1.92,.99-.64,2.06-.93,3.25-.72,.77,.14,1.45,.44,2.08,.87,.88,.6,1.56,1.38,2.14,2.26,.91,1.39,1.5,2.92,1.84,4.55,.18,.86,.3,1.74,.44,2.63,.28,.1,.54,.19,.81,.28,3.55,1.23,6.11,3.5,7.45,7.06,.11,.3,.21,.6,.32,.89,.3,.8,.58,1.61,.9,2.4,.37,.91,.83,1.77,1.43,2.56,.88,1.17,2.06,1.86,3.46,2.16,1.66,.35,3.34,.32,5.01,.13,2.45-.28,4.88-.74,7.34-.91,.53-.04,1.06-.12,1.65-.19Zm-102.96,48.39c.05-.19,.08-.25,.09-.31,.01-.16,.01-.32,.01-.47,.06-3.71,.39-7.39,1.12-11.03,.31-1.55,.67-3.09,1.21-4.58,1.27-3.46,3.32-6.38,6.04-8.85,1.64-1.5,3.36-2.89,5.39-3.84,.97-.45,1.99-.81,2.98-1.22,.25-.1,.5-.23,.79-.36-.58-1.4-1.18-2.72-1.68-4.08-.51-1.39-.92-2.82-1.4-4.29-.22-.09-.48-.2-.75-.3-2.62-.99-5.02-2.39-7.23-4.11-1.88-1.47-3.56-3.14-5.08-4.97-.13-.15-.19-.41-.49-.38-.04,.08-.11,.16-.13,.24-.15,.74-.31,1.49-.44,2.23-.33,1.93-.61,3.87-.96,5.8-.4,2.21-1.02,4.37-1.85,6.46-.66,1.65-1.74,2.92-3.23,3.86-.51,.32-1.04,.6-1.58,.86-1.36,.66-2.78,.82-4.24,.42-.7-.19-1.41-.35-2.11-.55-1.9-.53-3.68-.32-5.37,.73-1.25,.77-2.38,1.67-3.42,2.7-3.83,3.79-6.79,8.16-8.92,13.1-1.73,4.01-3.2,8.12-4.53,12.27-.03,.08,0,.18,0,.35,11.92,.22,23.83,.19,35.78,.31Zm113.88-45.58c1.72,1.4,2.85,3.21,3.61,5.26,.6,1.62,.84,3.31,.92,5.02,.11,2.35-.12,4.68-.47,7-.28,1.81-.54,3.63-.51,5.47,.03,1.35,.3,2.64,.82,3.87,.67,1.61,1.76,2.84,3.31,3.64,.56,.29,1.14,.54,1.72,.79,.79,.33,1.6,.61,2.37,.96,.72,.33,1.43,.68,2.09,1.1,.45,.28,.87,.43,1.41,.43,4.34,.04,8.67,.1,13.01,.14,3.54,.04,7.09,.05,10.63,.07,.28,0,.55-.03,.91-.04-.08-.22-.11-.37-.18-.49-.24-.37-.49-.74-.74-1.1-1.69-2.45-3.33-4.93-4.82-7.51-.74-1.29-1.48-2.58-2.22-3.87-1.38-2.38-2.59-4.85-3.61-7.41-.49-1.23-.99-2.47-1.48-3.7-.8-2-1.7-3.95-2.83-5.79-1.02-1.66-2.25-3.13-3.73-4.4-1.13-.97-2.29-1.9-3.54-2.72-1.6-1.06-2.77-2.48-3.61-4.19-.63-1.28-1.19-2.59-1.67-3.93-.25-.68-.49-1.37-.81-2.03-.27-.56-.6-1.12-.99-1.61-.76-.98-1.78-1.26-2.97-.94-.62,.16-1.21,.4-1.72,.78-.71,.53-1.42,1.06-2.06,1.67-1.05,1.01-2.03,2.08-3.08,3.15,.28,1.66,.58,3.35,.53,5.06-.04,1.74-.21,3.47-.33,5.31Zm-100.17,3.58l-.44-4.51c-.15-.08-.26-.14-.37-.19-2.92-1.24-5.29-3.2-7.27-5.65-1.91-2.36-3.33-4.99-4.4-7.82-2.04-5.37-2.79-10.95-2.57-16.67,.04-1.11,.16-2.21,.27-3.31,.17-1.8,.5-3.57,.93-5.32,.04-.15,.06-.31,.12-.46,.21-.51,.57-.81,1.16-.8,.7,.01,1.38,.06,2.04,.34,1.72,.73,3.53,.95,5.39,.83,.5-.03,1.01-.11,1.49-.26,.91-.27,1.64-.82,2.15-1.63,.59-.92,.36-2.33-.5-3-.14-.11-.33-.22-.51-.24-.76-.09-1.54-.13-2.22,.28-1.16,.69-2.45,.98-3.74,1.3-.32,.08-.62,.06-.93-.05-.6-.22-.9-.71-.81-1.33,.08-.54,.52-.97,1.11-.98,1.04-.03,1.97-.4,2.91-.78,.57-.23,1.03-.62,1.42-1.08,.56-.67,.96-1.42,1.15-2.26,.33-1.45,.13-2.83-.73-4.08-.49-.72-.96-.87-1.8-.63-.65,.18-1.19,.56-1.74,.94-.48,.35-.8,.76-1.02,1.31-.31,.79-.69,1.56-1.07,2.33-.39,.79-1.06,1.1-1.68,.77-.53-.28-.85-.9-.45-1.72,.26-.54,.5-1.09,.76-1.64,.36-.78,.69-1.56,.88-2.4,.2-.84,.28-1.69,.1-2.54-.21-.98-.64-1.85-1.44-2.49-.52-.42-1.11-.57-1.78-.42-.75,.16-1.36,.54-1.75,1.2-.27,.46-.5,.96-.64,1.47-.3,1.03-.47,2.1-.49,3.18,0,.51,.04,1.02-.05,1.52-.09,.47,.03,.86,.19,1.28,.2,.53,.35,1.08,.52,1.63,.12,.39,.04,.75-.14,1.1-.24,.45-.83,.72-1.28,.62-.54-.12-.88-.48-.93-1.05-.09-1.07-.51-2.02-1.03-2.92-.51-.88-1.29-1.46-2.28-1.75-.85-.25-1.5-.02-1.96,.72-.27,.43-.47,.91-.44,1.43,.04,.6,.08,1.2,.19,1.79,.35,1.89,1.02,3.65,2.31,5.13,.91,1.05,1.95,1.89,3.35,2.2,.09,.02,.19,.03,.28,.07,.63,.23,.93,.77,.79,1.43-.04,.18-.1,.37-.16,.55-1.79,5.38-2.2,10.89-1.59,16.49,.38,3.44,1.2,6.79,2.45,10.01,1.87,4.81,4.52,9.12,8.22,12.74,2.1,2.05,4.44,3.76,7.09,5.03,.3,.14,.58,.37,.97,.33Zm98.51-21.98c.09,0,.13,.02,.15,0,.18-.12,.37-.24,.54-.38,4.27-3.49,7.48-7.78,9.72-12.81,1.35-3.03,2.22-6.19,2.59-9.48,.27-2.33,.28-4.67-.1-7-.05-.28-.07-.57-.06-.85,.02-.53,.3-.9,.81-1.05,.21-.06,.43-.07,.65-.09,.31-.03,.64-.01,.94-.08,1.15-.23,2.27-.6,3.3-1.15,1.55-.83,2.76-2,3.46-3.64,.3-.71,.48-1.44,.5-2.21,.02-1.08-.43-1.89-1.46-2.33-.98-.42-1.9-.14-2.44,.77-.59,.98-1.3,1.87-2.05,2.72-.15,.16-.3,.33-.49,.45-.48,.31-1.11,.23-1.48-.16-.36-.38-.42-.92-.13-1.4,.15-.24,.36-.44,.53-.67,.48-.63,.98-1.24,1.43-1.89,.54-.76,.82-1.64,.95-2.56,.12-.84,0-1.65-.39-2.4-.53-1.03-1.6-1.62-2.64-1.45-.9,.14-1.55,.67-2.03,1.43-.17,.26-.29,.56-.44,.87,0,.06,0,.16,.02,.25,.41,1.46,.39,2.94,.2,4.43-.04,.31-.1,.63-.21,.92-.29,.74-1.02,1.05-1.7,.75-.71-.31-.94-.97-.57-1.73,.13-.27,.2-.53,.2-.81,0-.41,.02-.82,.03-1.23,0-1.23-.35-2.37-.92-3.45-.4-.75-.99-1.31-1.77-1.65-.99-.44-1.94-.21-2.52,.65-.28,.41-.53,.87-.69,1.34-.58,1.64-.68,3.33-.52,5.06,.04,.37,.19,.64,.5,.86,.99,.7,1.76,1.63,2.52,2.56,.14,.17,.26,.36,.35,.56,.27,.63-.02,1.3-.66,1.55-.54,.21-1.01,.06-1.41-.45-.42-.52-.81-1.06-1.28-1.52-.44-.44-.95-.84-1.47-1.19-.53-.36-1.14-.52-1.8-.47-.87,.07-1.42,.54-1.55,1.39-.08,.54-.06,1.07,.14,1.59,1.21,3.12,3.39,5.13,6.72,5.77,.92,.18,1.85,.33,2.81,.03,.59-.19,1.11,.21,1.3,.82,.07,.24,.13,.49,.15,.74,.08,1.23,.22,2.46,.19,3.69-.06,2.44-.44,4.85-1.09,7.2-.93,3.35-2.29,6.5-4.28,9.36-1.44,2.07-3.14,3.88-5.35,5.18-.07,.04-.12,.14-.18,.22l.98,2.92Zm-67.88-27.35c-.17,.03-.33,.04-.48,.09-.99,.34-1.97,.67-2.95,1.04-2.5,.95-4.78,2.31-7.01,3.76-2.29,1.49-4.39,3.21-6.28,5.19-1.36,1.42-2.63,2.91-3.84,4.46-1.73,2.2-3.14,4.59-4.26,7.16-.8,1.83-1.41,3.72-2.05,5.61-.83,2.43-1.44,4.91-1.8,7.46-.04,.31-.05,.62-.08,.95,.52-.15,.53-.14,.86-.44,1.31-1.16,2.77-2.11,4.31-2.92,2.27-1.2,4.4-2.63,6.53-4.05,.95-.64,1.79-1.41,2.54-2.28,.98-1.15,1.71-2.43,1.94-3.95,.07-.44,.14-.87,.2-1.31,.14-1.06,.54-2.01,1.22-2.84,.26-.32,.51-.64,.77-.97,.58-.74,.94-1.58,1.07-2.5,.08-.59,.15-1.19,.2-1.79,.22-2.56,1.41-4.49,3.72-5.67,.48-.24,.97-.46,1.46-.68,.58-.26,1.17-.49,1.74-.75,.9-.41,1.73-.95,2.37-1.7,.97-1.15,1.38-2.62-.19-3.87Zm61.07,42.98c.57,.07,1.07,.13,1.57,.19,.53,.07,1.07,.11,1.59,.21,.5,.09,.98,.24,1.47,.34,.51,.1,.96,.43,1.5,.47,.04-.15,.07-.24,.09-.33,.03-.19,.06-.37,.08-.56,.27-2.56,.16-5.11-.41-7.63-.35-1.54-.74-3.07-1.12-4.6-.03-.11-.12-.2-.18-.3-.08,.06-.15,.09-.18,.14-1.41,2.32-2.69,4.71-3.8,7.19-.22,.49-.36,1.01-.39,1.55-.07,1.07-.14,2.14-.22,3.32Zm-92.57-1.06c.03-.96,.04-1.84,.08-2.72,.04-.88,.07-1.77,.14-2.65,.07-.88,.31-1.74,.32-2.6-1.62-1.24-6.09-1.34-7.86,.63,1.37,2.81,4.83,6.38,7.32,7.33Zm38.18-8.46c0-.23,0-.38,0-.54-.09-1.7,.22-3.33,.74-4.94,.1-.3,.22-.59,.36-.87,.15-.31,.32-.62,.52-.9,.18-.25,.4-.5,.64-.69,.25-.2,.56-.35,.87-.53-.16-.21-.28-.4-.43-.56-1.21-1.31-2.47-1.28-3.62,.07-.56,.66-.93,1.42-1.22,2.23-.67,1.91-.85,3.88-.68,5.88,.02,.27,.1,.54,.16,.83h2.67Zm16.76-4.32c-.13-.71-.29-1.39-.37-2.07-.24-2.14-.04-4.21,1.05-6.17-.65-.44-1.33-.46-2.04-.12-.5,.24-.87,.63-1.19,1.07-.45,.62-.76,1.31-.97,2.05-.62,2.18-.58,4.37-.09,6.57,.03,.14,.11,.26,.17,.39l3.43-1.71Z"/><path d="M123.57,69.49c0,.07,.02,.29,0,.51-.07,.71-.62,1.24-1.3,1.3-.74,.06-1.39-.41-1.51-1.15-.1-.62-.14-1.26-.18-1.89-.18-2.56-.36-5.11-.53-7.67-.15-2.27-.3-4.55-.45-6.82-.16-2.31-.32-4.61-.48-6.91-.02-.31-.05-.64,0-.94,.12-.73,.67-1.19,1.37-1.2,.7-.01,1.25,.42,1.41,1.15,.06,.28,.1,.56,.11,.85,.15,2.27,.29,4.55,.45,6.82,.16,2.27,.33,4.55,.48,6.82,.15,2.18,.29,4.36,.44,6.54,.06,.82,.11,1.64,.18,2.61Z"/><path d="M34.16,131.51c.09-.89,.18-1.58,.23-2.27,.06-.88,.13-1.77,.11-2.65-.02-1.03-.37-1.99-.85-2.89-.5-.93-1.13-1.75-1.96-2.42-.59-.47-1.2-.93-1.78-1.41-3-2.44-4.28-5.62-4.02-9.45,.15-2.27,.88-4.39,1.71-6.48,.1-.26,.27-.51,.46-.7,.34-.35,.87-.29,1.16,.09,.32,.44,.4,.91,.19,1.43-.62,1.5-.96,3.07-1.29,4.65-.32,1.54-.32,3.07,.25,4.57,.48,1.27,1.22,2.35,2.26,3.22,.56,.47,1.14,.91,1.71,1.35,2.27,1.77,3.66,4.08,4.11,6.92,.14,.9,.15,1.83,.11,2.74-.05,1.13-.21,2.27-.36,3.39-.04,.3-.17,.62-.34,.86-.36,.51-.97,.48-1.36,0-.22-.28-.35-.73-.34-.96Z"/><path d="M127.55,70.51c-.02-.34,.17-.7,.37-1.07,.95-1.82,1.9-3.65,2.84-5.48,2.23-4.3,4.46-8.59,6.69-12.89,.15-.28,.28-.57,.47-.82,.46-.62,1.24-.78,1.85-.43,.64,.37,.88,1.07,.6,1.81-.09,.24-.21,.46-.32,.69-3.18,6.12-6.35,12.24-9.53,18.36-.16,.31-.34,.62-.56,.87-.4,.45-1.03,.56-1.56,.31-.54-.25-.83-.67-.84-1.36Z"/><path d="M23.75,130.25c-.05-.33-.1-.61-.13-.89-.03-.35,.01-.69,.2-1,.33-.54,.93-.6,1.33-.12,.12,.14,.2,.32,.32,.54,.16-.14,.32-.27,.47-.4,.22-.18,.43-.38,.67-.53,.81-.51,1.73-.47,2.46,.13,.31,.26,.6,.58,.8,.92,.68,1.23,.78,2.52,.27,3.84-.46,1.19-1.44,1.79-2.74,1.72-.06,0-.12,.03-.2,.05-.05,.28,.1,.54,.16,.8,.11,.42,.02,.82-.14,1.2-.31,.7-.98,.81-1.52,.27-.07-.07-.1-.16-.17-.23-.06-.06-.14-.11-.22-.17-.23,.28-.44,.56-.68,.8-1,.96-2.32,.78-3.05-.41-.34-.55-.5-1.16-.55-1.79-.08-.96,.06-1.89,.46-2.77,.4-.87,.99-1.53,1.94-1.81,.11-.03,.21-.1,.31-.15Zm3.1,1.01c.2,.13,.37,.27,.56,.35,.36,.15,.68,.08,.86-.17,.19-.27,.13-.54-.01-.81-.16-.31-.5-.41-.8-.22-.27,.17-.5,.38-.61,.84Zm-2.85,1.63c-.22,.13-.41,.17-.47,.28-.16,.3-.31,.62-.39,.94-.07,.25-.09,.54,.08,.8,.55-.36,.76-.88,.78-2.02Z"/><path d="M200.2,136.25c-.03,.34-.02,.6-.08,.83-.08,.3-.18,.61-.34,.87-.25,.4-.77,.4-1.03,.01-.15-.23-.22-.51-.31-.78-.05-.14-.06-.29-.1-.44-.34,.04-.45,.3-.64,.45-.77,.58-1.55,.53-2.19-.19-.23-.25-.42-.56-.54-.88-.57-1.52-.56-3.04,.17-4.51,.18-.36,.43-.71,.73-.98,.54-.49,1.19-.71,1.93-.45,.14,.05,.3,.07,.49,.12,.18-.31,.09-.63,.11-.93,.03-.38,.04-.76,.25-1.1,.14-.23,.3-.42,.58-.43,.33-.02,.55,.18,.66,.45,.15,.41,.25,.84,.38,1.3,.16-.07,.33-.15,.49-.22,.9-.39,1.69-.08,2.21,.56,.14,.17,.27,.36,.36,.55,.76,1.63,.84,3.29,.12,4.95-.23,.54-.59,.97-1.12,1.25-.55,.29-1.08,.32-1.59-.08-.14-.11-.29-.21-.52-.36Zm.46-3.55c.13,.5,.4,.81,.7,1.08,.07,.07,.24,.09,.34,.06,.29-.07,.43-.35,.43-.75,0-.45-.17-.78-.46-.83-.15-.03-.32-.02-.45,.04-.19,.09-.35,.25-.56,.4Zm-2.95,.42c-.38-.23-.69-.12-.96,.11-.3,.26-.46,.59-.38,.99,.02,.11,.11,.27,.2,.28,.13,.02,.32-.01,.41-.1,.36-.35,.56-.8,.74-1.29Z"/><path d="M146.18,62.15c1.22,.01,1.88,1.16,1.31,2.1-.18,.29-.44,.53-.7,.76-2.81,2.51-5.63,5-8.45,7.5-.99,.88-1.99,1.76-2.98,2.65-.36,.32-.76,.56-1.28,.53-1.04-.05-1.68-1.16-1.16-2.06,.15-.27,.39-.5,.62-.71,3.45-3.07,6.91-6.14,10.36-9.21,.43-.38,.85-.76,1.28-1.13,.32-.28,.68-.47,.99-.44Z"/><path d="M188.68,119.17c-.01,.97-.13,1.84-.36,2.7-.23,.82-.5,1.63-.78,2.44-.09,.26-.24,.52-.42,.73-.22,.27-.61,.28-.83,0-.17-.21-.31-.48-.38-.74-.13-.5-.06-1,.1-1.49,.24-.75,.48-1.5,.7-2.26,.24-.81,.21-1.62,.05-2.44-.22-1.16-.63-2.25-1.08-3.33-.36-.84-.7-1.69-.98-2.56-.56-1.68-.61-3.41-.4-5.16,.13-1.07,.3-2.13,.64-3.15,.08-.24,.15-.49,.28-.7,.3-.51,.83-.48,1.1,.06,.1,.19,.17,.42,.17,.63,0,.38,0,.77-.1,1.12-.26,.98-.35,1.99-.44,3-.11,1.32,.13,2.58,.62,3.8,.24,.59,.5,1.16,.74,1.74,.69,1.61,1.15,3.28,1.31,5.02,.02,.22,.03,.44,.05,.58Z"/><path d="M189.66,128.9c.01-1.15,.21-2.26,.52-3.36,.3-1.05,.79-2,1.55-2.78,.59-.61,1.2-1.23,1.88-1.72,.96-.7,1.6-1.6,1.96-2.71,.28-.87,.52-1.75,.79-2.63,.08-.27,.17-.55,.32-.78,.27-.45,.81-.46,1.08-.02,.15,.23,.27,.51,.29,.78,.04,.37,.04,.77-.06,1.13-.32,1.15-.66,2.31-1.05,3.44-.5,1.44-1.31,2.65-2.6,3.52-.39,.26-.74,.6-1.08,.92-1.48,1.36-2.01,3.08-1.94,5.04,.02,.48-.02,.95-.33,1.35-.25,.33-.61,.34-.88,.03-.24-.27-.35-.6-.38-.95-.04-.41-.05-.82-.07-1.23Z"/><path class="cls-5" d="M49.07,181.86c-.05-.23-.09-.35-.1-.47-.33-4.1-.62-8.21-.42-12.33,.18-3.61,.62-7.19,1.57-10.68,.86-3.16,2.34-6.01,4.69-8.35,.83-.83,1.68-1.63,2.56-2.41,1.61-1.42,3.47-2.41,5.47-3.17,1.62-.62,3.23-1.28,4.83-1.97,1.29-.55,2.43-1.35,3.46-2.3,1.65-1.54,3.12-3.24,4.29-5.18,.8-1.33,1.61-2.66,2.32-4.03,1.47-2.81,3.42-5.24,5.79-7.34,1.8-1.6,3.71-3.06,5.71-4.41,1.1-.75,2.27-1.37,3.5-1.89,1.31-.55,2.66-.79,4.08-.53,.99,.19,2,.29,2.99,.49,3.16,.65,6.1,.06,8.86-1.52,.9-.52,1.76-1.12,2.63-1.7,1.16-.79,2.38-1.45,3.72-1.86,.57-.18,1.15-.34,1.74-.46,2.2-.46,4.2,.11,6.07,1.25,1.73,1.05,3.01,2.5,3.73,4.41,.34,.92,.68,1.84,1.02,2.76,.36,.98,.79,1.93,1.32,2.84,1.53,2.63,3.83,4.01,6.84,4.34,1.85,.21,3.66,.08,5.48-.17,1.97-.28,3.94-.58,5.93-.75,2.56-.23,5.12-.25,7.65,.32,2.26,.51,4.05,1.74,5.33,3.67,1.09,1.64,1.64,3.47,1.85,5.42,.26,2.51,.04,4.99-.31,7.47-.23,1.63-.45,3.26-.57,4.9-.17,2.42,.29,4.73,1.43,6.88,.83,1.58,2.01,2.85,3.58,3.7,.97,.52,2,.94,3.01,1.38,.72,.32,1.46,.6,2.19,.91,.74,.31,1.4,.74,1.98,1.28,1.15,1.05,2.18,2.21,3,3.54,1.28,2.05,1.96,4.32,2.17,6.71,.16,1.79,.17,3.6,.25,5.41,.03,.83-.12,1.64-.44,2.46-.24,.02-.48,.05-.73,.05-1.96,.02-3.93,.03-5.89,.05-6.49,.06-12.98,.13-19.47,.2-6.87,.07-13.74,.13-20.61,.2-5.89,.06-11.78,.12-17.67,.18-6.52,.07-13.04,.13-19.56,.2-5.95,.06-11.9,.12-17.86,.18-6.46,.07-12.92,.13-19.38,.2-2.15,.02-4.3,.08-6.46,.11-.5,0-1.01,0-1.59,0Zm77.17-55.33c-.06,0-.12,.01-.19,.02-.76,.12-1.72,1.05-1.87,1.81-.07,.35-.03,.69,.2,.98,.37,.5,1.03,.63,1.6,.28,.67-.41,1.08-1.05,1.33-1.77,.23-.65-.36-1.33-1.06-1.32Zm41.64,47c-.02-.37-.03-.62-.05-.87,0-.09-.02-.19-.04-.28-.13-.48-.48-.79-.93-.82-.48-.03-.85,.18-1.04,.65-.12,.29-.2,.6-.28,.9-.11,.4-.14,.81-.01,1.22,.18,.58,.53,.89,1.07,.91,.57,.02,1.04-.3,1.19-.88,.08-.3,.07-.62,.1-.83Zm-102.79,.81c-.41,.03-.77,.18-.98,.59-.21,.43-.11,.8,.18,1.13,.36,.41,.78,.72,1.3,.91,.42,.16,.8,.12,1.19-.06,.63-.29,.88-.97,.55-1.58-.24-.44-.61-.73-1.09-.84-.37-.08-.75-.1-1.15-.16Zm106.92,.21c.03,.1,.04,.3,.14,.45,.43,.65,.93,1.19,1.77,1.3,.52,.07,.98-.1,1.22-.53,.24-.44,.2-.89-.13-1.23-.39-.41-.81-.81-1.28-1.11-.78-.49-1.74,.12-1.72,1.13Zm-42.57-44.43c-.4,0-.78,.15-.99,.55-.27,.54-.47,1.1-.49,1.71-.02,.41,.16,.74,.49,.97,.52,.37,1.2,.27,1.59-.27,.4-.55,.54-1.21,.54-1.88,0-.6-.52-1.06-1.15-1.09Zm-5.66,6.15c.38,.03,.69-.16,.95-.46,.41-.46,.64-1.02,.76-1.61,.11-.51-.07-.9-.47-1.14-.4-.25-.84-.24-1.22,.12-.36,.34-.67,.75-.96,1.16-.21,.29-.22,.66-.16,1.01,.1,.53,.53,.9,1.09,.92Zm11.79-3.82c.56-.01,.93-.3,1.25-.66,.52-.6,.27-1.54-.5-1.74-.51-.14-1.05-.2-1.58-.2-.76,0-1.26,.84-.88,1.48,.39,.65,1,1.01,1.71,1.12Zm33.68,34.81c.03,.22,.03,.44,.08,.65,.18,.68,.77,1.03,1.45,.84,.52-.14,.77-.53,.85-1.02,.09-.5,0-1-.14-1.49-.13-.43-.41-.7-.87-.75-.45-.05-.8,.12-1.04,.5-.24,.39-.35,.81-.33,1.26Zm-2.3-3.09c0-.46-.18-1.19-.37-1.55-.16-.3-.39-.48-.72-.55-.86-.18-1.62,.5-1.45,1.36,.08,.43,.25,.85,.43,1.25,.24,.55,.76,.79,1.32,.65,.48-.12,.8-.58,.8-1.15Zm-105.47,7.29c-.01-.76-.76-1.55-1.42-1.51-.59,.04-1.36,.82-1.36,1.39,0,.66,.84,1.36,1.6,1.34,.67-.02,1.2-.56,1.18-1.23Zm-2.37,5.88c.98,0,1.49-.89,1.05-1.62-.25-.42-.64-.71-1.1-.85-.45-.13-.88-.06-1.2,.34-.28,.35-.35,.77-.14,1.16,.32,.59,.86,.9,1.39,.97Zm-4.66-.72c-.12-.55-.43-1.07-1.01-1.4-.58-.33-1.33,.14-1.44,.76-.15,.86,.52,1.74,1.39,1.81,.59,.05,1.09-.45,1.06-1.16Zm-.55-6.35s-.1,0-.19,.01c-.45,.04-.79,.24-.95,.67-.16,.42-.08,.82,.23,1.15,.17,.18,.37,.35,.58,.48,.47,.28,1.03,.18,1.36-.25,.32-.41,.37-.87,.18-1.34-.2-.49-.58-.73-1.21-.72Z"/><path class="cls-6" d="M148.97,123.89c-.59,.07-1.11,.15-1.65,.19-2.46,.17-4.89,.64-7.34,.91-1.67,.19-3.35,.22-5.01-.13-1.41-.3-2.59-.98-3.46-2.16-.59-.79-1.06-1.65-1.43-2.56-.32-.79-.6-1.6-.9-2.4-.11-.3-.21-.6-.32-.89-1.34-3.56-3.9-5.83-7.45-7.06-.27-.09-.53-.18-.81-.28-.15-.89-.27-1.77-.44-2.63-.33-1.62-.93-3.15-1.84-4.55-.58-.88-1.26-1.67-2.14-2.26-.63-.43-1.31-.74-2.08-.87-1.19-.21-2.26,.08-3.25,.72-.76,.49-1.33,1.16-1.8,1.92-.78,1.26-1.19,2.64-1.42,4.1-.36,2.29-.15,4.54,.46,6.76,.05,.18,.08,.36,.14,.59-1.19,.84-2.48,1.37-3.89,1.7-.21-.24-.13-.5-.11-.73,.13-1.17,.1-2.34-.03-3.51-.18-1.68-.58-3.3-1.32-4.82-.49-1.01-1.1-1.92-1.96-2.66-.84-.72-1.77-1.2-2.91-1.21-1.17,0-2.16,.41-3.03,1.17-.75,.65-1.32,1.45-1.76,2.34-.8,1.6-1.22,3.32-1.36,5.1-.12,1.45-.06,2.9,.13,4.39-.14,.08-.27,.16-.41,.22-1.82,.77-3.47,1.81-5.06,2.97-1.89,1.38-3.74,2.82-5.44,4.44-.26,.24-.53,.42-.88,.53-.73,.23-1.38,.63-1.98,1.1-1.33,1.03-2.06,2.39-2.14,4.06-.03,.6-.18,1.11-.48,1.61-.74,1.26-1.44,2.53-2.19,3.78-1.01,1.7-2.3,3.18-3.72,4.54-1.09,1.04-2.32,1.85-3.79,2.35-.09-.14-.19-.26-.26-.4-2.06-4.35-3.32-8.94-4.02-13.69-.27-1.82-.43-3.64-.37-5.48,0-.22,0-.44,0-.71,1.2-1.03,2.39-2.07,3.6-3.09,.82-.7,1.75-1.25,2.71-1.75,2.35-1.24,4.59-2.68,6.78-4.18,.75-.52,1.48-1.09,2.16-1.7,2.11-1.92,3.46-4.26,3.74-7.14,.1-.98,.43-1.83,1.1-2.57,.32-.35,.59-.74,.86-1.13,.81-1.18,1.14-2.52,1.29-3.92,.05-.5,.1-1.01,.16-1.51,.16-1.46,.89-2.55,2.17-3.26,.52-.29,1.08-.53,1.62-.78,.49-.22,1-.4,1.49-.62,1.25-.56,2.37-1.32,3.33-2.32,.89-.93,1.32-2.07,1.48-3.32,.1-.75-.09-1.44-.49-2.08-.17-.26-.32-.53-.52-.86,.23-.08,.39-.16,.56-.2,2.1-.57,4.2-1.19,6.32-1.69,1.6-.38,3.23-.62,4.85-.88,1.19-.19,2.38-.37,3.57-.49,2.77-.29,5.54-.58,8.33-.25,3.09,.37,6.12,.99,9.01,2.15,1.73,.69,3.45,1.42,5.15,2.18,2.91,1.29,5.58,2.96,8.05,4.96,2.91,2.36,5.6,4.94,8.16,7.66,.61,.64,1.12,1.37,1.68,2.06,2.24,2.77,4.07,5.8,5.71,8.95,.47,.9,.89,1.82,1.07,2.83,.08,.46,.13,.93,.19,1.36-1.15,1.42-2.19,2.85-3.02,4.42-.77,1.45-1.51,2.92-2.24,4.39-.59,1.18-.87,2.44-.87,3.76,0,.82-.06,1.64-.27,2.54Z"/><path class="cls-8" d="M46.02,172.28c-11.95-.11-23.86-.09-35.78-.31,0-.16-.02-.26,0-.35,1.33-4.16,2.8-8.27,4.53-12.27,2.13-4.94,5.1-9.31,8.92-13.1,1.04-1.03,2.17-1.93,3.42-2.7,1.69-1.05,3.48-1.26,5.37-.73,.7,.2,1.41,.36,2.11,.55,1.47,.4,2.88,.25,4.24-.42,.54-.26,1.07-.54,1.58-.86,1.49-.94,2.58-2.21,3.23-3.86,.83-2.1,1.45-4.25,1.85-6.46,.35-1.93,.63-3.87,.96-5.8,.13-.75,.28-1.49,.44-2.23,.02-.09,.08-.16,.13-.24,.3-.04,.37,.22,.49,.38,1.52,1.83,3.2,3.5,5.08,4.97,2.21,1.73,4.6,3.12,7.23,4.11,.26,.1,.52,.21,.75,.3,.47,1.47,.89,2.89,1.4,4.29,.5,1.36,1.1,2.68,1.68,4.08-.29,.14-.54,.26-.79,.36-.99,.41-2.01,.77-2.98,1.22-2.03,.95-3.75,2.33-5.39,3.84-2.71,2.48-4.77,5.39-6.04,8.85-.55,1.49-.9,3.03-1.21,4.58-.73,3.64-1.06,7.32-1.12,11.03,0,.16,0,.32-.01,.47,0,.06-.03,.12-.09,.31Zm-24.62-19.63c.06,.2,.11,.51,.25,.79,.38,.75,1.22,.79,1.64,.07,.22-.38,.39-.79,.52-1.21,.11-.33,.06-.69-.11-1.01-.39-.73-1.3-.82-1.8-.17-.31,.41-.44,.9-.5,1.53Zm9.16,5.98c-.03-.11-.06-.36-.15-.59-.17-.39-.44-.69-.92-.7-.47-.01-.76,.26-.97,.63-.39,.71-.21,1.7,.4,2.24,.42,.37,.91,.32,1.22-.12,.28-.39,.43-.84,.42-1.47Zm-8.44,1.55c0,.68,.25,1.27,.65,1.59,.39,.31,.91,.26,1.15-.16,.39-.66,.49-1.37,.23-2.1-.06-.17-.18-.34-.31-.47-.35-.36-.8-.38-1.19-.05-.39,.33-.55,.76-.54,1.19Zm7.08-9.87c-.02-.07-.06-.36-.19-.6-.3-.53-.82-.61-1.27-.21-.45,.39-.69,.9-.7,1.5,0,.42,.07,.82,.38,1.14,.35,.36,.82,.38,1.17,.02,.44-.45,.64-1,.61-1.84Zm-1.18,16.46c-.03-.22-.04-.35-.07-.47-.15-.66-.67-1.04-1.3-.98-.48,.05-.85,.54-.9,1.16-.04,.54,.16,.99,.47,1.39,.41,.53,1.18,.47,1.48-.12,.17-.33,.23-.71,.31-.99Zm-8.67-5.52c-.02-.33-.02-.56-.06-.77-.07-.35-.23-.65-.55-.85-.27-.17-.54-.2-.79,0-.17,.13-.34,.29-.45,.47-.38,.67-.2,1.65,.37,2.18,.42,.39,1.01,.31,1.26-.22,.13-.28,.16-.6,.22-.8Zm.52,5.27c.01,.45,.08,.91,.37,1.31,.32,.43,.87,.5,1.23,.15,.79-.78,.52-2.23-.37-2.68-.26-.13-.49-.1-.71,.05-.41,.27-.53,.68-.53,1.17Zm-4.08-.74c.06,.3,.09,.61,.19,.9,.15,.41,.5,.61,.87,.59,.39-.03,.62-.27,.75-.61,.25-.66,.14-1.29-.2-1.89-.15-.26-.38-.42-.69-.42-.36,0-.61,.21-.72,.51-.11,.28-.14,.6-.2,.93Z"/><path class="cls-10" d="M159.9,126.69c.12-1.84,.29-3.57,.33-5.31,.04-1.71-.25-3.4-.53-5.06,1.04-1.08,2.03-2.15,3.08-3.15,.64-.61,1.35-1.14,2.06-1.67,.51-.38,1.1-.62,1.72-.78,1.19-.31,2.21-.03,2.97,.94,.38,.5,.71,1.05,.99,1.61,.32,.65,.56,1.34,.81,2.03,.48,1.34,1.04,2.65,1.67,3.93,.84,1.71,2.01,3.13,3.61,4.19,1.24,.82,2.41,1.74,3.54,2.72,1.47,1.27,2.71,2.74,3.73,4.4,1.13,1.84,2.03,3.79,2.83,5.79,.49,1.23,.99,2.46,1.48,3.7,1.01,2.56,2.23,5.03,3.61,7.41,.75,1.29,1.48,2.58,2.22,3.87,1.48,2.58,3.13,5.06,4.82,7.51,.25,.36,.5,.73,.74,1.1,.08,.12,.1,.28,.18,.49-.36,.02-.63,.04-.91,.04-3.54-.02-7.09-.04-10.63-.07-4.34-.04-8.67-.11-13.01-.14-.53,0-.96-.15-1.41-.43-.66-.42-1.38-.77-2.09-1.1-.78-.35-1.58-.63-2.37-.96-.58-.24-1.16-.5-1.72-.79-1.55-.8-2.65-2.04-3.31-3.64-.51-1.24-.79-2.53-.82-3.87-.04-1.85,.23-3.66,.51-5.47,.35-2.32,.58-4.65,.47-7-.08-1.71-.32-3.4-.92-5.02-.77-2.05-1.89-3.86-3.61-5.26Zm15.64,28.79c-.13-.55-.21-1.12-.41-1.64-.28-.72-.89-.81-1.4-.25-.9,.98-.57,2.65,.63,3.18,.33,.15,.6,.08,.83-.21,.24-.32,.31-.68,.36-1.08Zm16.29-.18c.01-.73-.17-1.19-.64-1.7-.4-.44-.9-.41-1.13,.13-.33,.77-.48,1.57-.12,2.38,.06,.14,.15,.28,.25,.4,.28,.34,.65,.37,1,.11,.47-.35,.67-.82,.65-1.32Zm-10.57-1.16c.04,.44,.07,.91,.41,1.29,.2,.22,.55,.31,.77,.14,.59-.46,1.07-1.02,.93-1.83-.07-.39-.24-.78-.45-1.12-.29-.48-.72-.49-1.09-.08-.4,.45-.52,.99-.57,1.6Zm6.16-9.12c0-.72-.11-1.21-.47-1.6-.24-.26-.56-.27-.85-.07-.82,.55-.98,2.08-.34,2.9,.2,.25,.47,.31,.76,.21,.28-.1,.51-.28,.62-.55,.14-.35,.22-.71,.27-.89Zm-7.94,1.09c0-.44-.08-.71-.28-.97-.36-.48-.93-.49-1.24,.01-.39,.64-.54,1.33-.4,2.07,.04,.21,.16,.41,.28,.58,.16,.23,.42,.25,.67,.11,.71-.39,.96-1.03,.95-1.81Z"/><path class="cls-6" d="M59.73,130.27c-.39,.04-.67-.19-.97-.33-2.64-1.28-4.99-2.98-7.09-5.03-3.7-3.63-6.35-7.93-8.22-12.74-1.25-3.23-2.08-6.57-2.45-10.01-.61-5.6-.2-11.12,1.59-16.49,.06-.18,.12-.36,.16-.55,.14-.65-.16-1.19-.79-1.43-.09-.03-.18-.04-.28-.07-1.39-.31-2.44-1.15-3.35-2.2-1.28-1.48-1.96-3.23-2.31-5.13-.11-.59-.15-1.19-.19-1.79-.03-.52,.17-1,.44-1.43,.46-.74,1.11-.96,1.96-.72,.99,.29,1.77,.87,2.28,1.75,.52,.9,.94,1.86,1.03,2.92,.05,.57,.39,.93,.93,1.05,.46,.1,1.04-.17,1.28-.62,.19-.34,.27-.71,.14-1.1-.17-.54-.32-1.09-.52-1.63-.16-.42-.28-.8-.19-1.28,.09-.49,.05-1.01,.05-1.52,.01-1.08,.19-2.14,.49-3.18,.15-.51,.37-1.01,.64-1.47,.38-.66,.99-1.03,1.75-1.2,.67-.15,1.25,0,1.78,.42,.8,.64,1.23,1.51,1.44,2.49,.18,.85,.1,1.7-.1,2.54-.2,.84-.52,1.62-.88,2.4-.25,.55-.49,1.1-.76,1.64-.4,.82-.08,1.44,.45,1.72,.63,.33,1.29,.02,1.68-.77,.38-.77,.76-1.53,1.07-2.33,.22-.55,.53-.96,1.02-1.31,.55-.39,1.08-.76,1.74-.94,.84-.23,1.3-.09,1.8,.63,.86,1.25,1.06,2.62,.73,4.08-.19,.84-.59,1.6-1.15,2.26-.39,.47-.86,.85-1.42,1.08-.93,.38-1.87,.75-2.91,.78-.59,.02-1.03,.44-1.11,.98-.09,.62,.2,1.11,.81,1.33,.31,.11,.61,.13,.93,.05,1.29-.32,2.58-.6,3.74-1.3,.68-.41,1.46-.37,2.22-.28,.18,.02,.36,.13,.51,.24,.86,.68,1.09,2.08,.5,3-.51,.8-1.25,1.35-2.15,1.63-.48,.15-.99,.23-1.49,.26-1.85,.12-3.66-.11-5.39-.83-.66-.28-1.34-.33-2.04-.34-.59-.01-.95,.29-1.16,.8-.06,.14-.08,.31-.12,.46-.43,1.75-.75,3.53-.93,5.32-.11,1.1-.22,2.2-.27,3.31-.23,5.72,.53,11.3,2.57,16.67,1.07,2.83,2.5,5.46,4.4,7.82,1.98,2.45,4.34,4.41,7.27,5.65,.11,.05,.22,.11,.37,.19l.44,4.51Z"/><path class="cls-6" d="M158.24,108.29l-.98-2.92c.07-.08,.11-.17,.18-.22,2.2-1.29,3.9-3.1,5.35-5.18,1.99-2.86,3.35-6.01,4.28-9.36,.66-2.36,1.04-4.76,1.09-7.2,.03-1.23-.11-2.46-.19-3.69-.02-.25-.08-.5-.15-.74-.18-.61-.71-1.01-1.3-.82-.96,.3-1.88,.15-2.81-.03-3.33-.64-5.51-2.65-6.72-5.77-.2-.52-.22-1.05-.14-1.59,.12-.85,.68-1.32,1.55-1.39,.66-.05,1.27,.11,1.8,.47,.52,.35,1.02,.75,1.47,1.19,.47,.47,.86,1.01,1.28,1.52,.41,.51,.88,.66,1.41,.45,.64-.25,.93-.92,.66-1.55-.09-.2-.21-.39-.35-.56-.76-.93-1.53-1.86-2.52-2.56-.31-.22-.47-.49-.5-.86-.17-1.72-.07-3.42,.52-5.06,.17-.47,.41-.93,.69-1.34,.58-.86,1.53-1.08,2.52-.65,.78,.35,1.37,.9,1.77,1.65,.57,1.08,.93,2.21,.92,3.45,0,.41-.02,.82-.03,1.23,0,.29-.07,.55-.2,.81-.37,.76-.14,1.42,.57,1.73,.68,.29,1.41-.02,1.7-.75,.11-.29,.17-.61,.21-.92,.18-1.49,.2-2.97-.2-4.43-.02-.09-.02-.19-.02-.25,.15-.31,.27-.6,.44-.87,.47-.76,1.13-1.28,2.03-1.43,1.05-.17,2.11,.42,2.64,1.45,.39,.75,.51,1.56,.39,2.4-.13,.92-.41,1.79-.95,2.56-.46,.65-.95,1.26-1.43,1.89-.17,.23-.38,.43-.53,.67-.3,.48-.24,1.02,.13,1.4,.37,.39,1,.47,1.48,.16,.18-.12,.34-.28,.49-.45,.76-.85,1.46-1.74,2.05-2.72,.55-.91,1.47-1.18,2.44-.77,1.03,.44,1.48,1.25,1.46,2.33-.02,.76-.2,1.5-.5,2.21-.7,1.65-1.91,2.82-3.46,3.64-1.03,.55-2.15,.91-3.3,1.15-.31,.06-.63,.05-.94,.08-.22,.02-.45,.02-.65,.09-.5,.15-.79,.52-.81,1.05-.01,.28,.01,.57,.06,.85,.38,2.33,.37,4.67,.1,7-.38,3.29-1.25,6.45-2.59,9.48-2.24,5.03-5.45,9.32-9.72,12.81-.17,.14-.36,.26-.54,.38-.02,.01-.06,0-.15,0Z"/><path class="cls-9" d="M90.36,80.94c1.57,1.24,1.16,2.72,.19,3.87-.64,.76-1.47,1.29-2.37,1.7-.58,.26-1.16,.49-1.74,.75-.49,.22-.98,.43-1.46,.68-2.31,1.18-3.5,3.11-3.72,5.67-.05,.6-.11,1.2-.2,1.79-.13,.93-.49,1.76-1.07,2.5-.25,.32-.5,.65-.77,.97-.69,.83-1.08,1.78-1.22,2.84-.06,.44-.13,.88-.2,1.31-.23,1.52-.96,2.8-1.94,3.95-.74,.87-1.58,1.64-2.54,2.28-2.13,1.42-4.26,2.85-6.53,4.05-1.55,.81-3,1.76-4.31,2.92-.34,.3-.35,.29-.86,.44,.03-.33,.03-.64,.08-.95,.36-2.54,.97-5.02,1.8-7.46,.64-1.89,1.26-3.78,2.05-5.61,1.12-2.57,2.53-4.95,4.26-7.16,1.21-1.55,2.49-3.04,3.84-4.46,1.89-1.98,3.99-3.7,6.28-5.19,2.23-1.45,4.51-2.82,7.01-3.76,.97-.37,1.96-.7,2.95-1.04,.15-.05,.31-.06,.48-.09Z"/><path class="cls-9" d="M151.44,123.92c.08-1.19,.15-2.25,.22-3.32,.04-.54,.17-1.06,.39-1.55,1.11-2.48,2.39-4.87,3.8-7.19,.03-.05,.1-.08,.18-.14,.06,.1,.15,.19,.18,.3,.38,1.53,.77,3.06,1.12,4.6,.57,2.52,.67,5.06,.41,7.63-.02,.19-.05,.38-.08,.56-.02,.09-.05,.18-.09,.33-.54-.04-.98-.37-1.5-.47-.49-.1-.98-.25-1.47-.34-.53-.09-1.06-.14-1.59-.21-.5-.06-1-.12-1.57-.19Z"/><path class="cls-8" d="M58.87,122.86c-2.5-.95-5.96-4.52-7.32-7.33,1.77-1.97,6.24-1.87,7.86-.63,0,.86-.24,1.72-.32,2.6-.07,.88-.11,1.76-.14,2.65-.04,.88-.05,1.76-.08,2.72Z"/><path class="cls-2" d="M97.04,114.4h-2.67c-.06-.29-.14-.56-.16-.83-.17-2.01,.01-3.97,.68-5.88,.28-.81,.66-1.57,1.22-2.23,1.15-1.35,2.41-1.38,3.62-.07,.15,.16,.27,.35,.43,.56-.31,.18-.61,.33-.87,.53-.24,.19-.46,.44-.64,.69-.2,.28-.37,.59-.52,.9-.14,.28-.27,.57-.36,.87-.51,1.61-.83,3.24-.74,4.94,0,.15,0,.31,0,.54Z"/><path class="cls-2" d="M113.8,110.08l-3.43,1.71c-.06-.13-.14-.26-.17-.39-.49-2.2-.53-4.39,.09-6.57,.21-.73,.52-1.43,.97-2.05,.32-.44,.69-.83,1.19-1.07,.7-.34,1.38-.32,2.04,.12-1.1,1.96-1.29,4.04-1.05,6.17,.08,.69,.24,1.37,.37,2.07Z"/><path class="cls-2" d="M26.84,131.27c.1-.46,.34-.67,.61-.84,.3-.19,.65-.09,.8,.22,.14,.27,.2,.54,.01,.81-.18,.25-.49,.32-.86,.17-.2-.08-.36-.23-.56-.35Z"/><path class="cls-2" d="M23.99,132.89c-.02,1.14-.23,1.67-.78,2.02-.17-.26-.15-.55-.08-.8,.09-.33,.23-.65,.39-.94,.06-.11,.25-.16,.47-.28Z"/><path class="cls-2" d="M200.66,132.7c.21-.16,.37-.31,.56-.4,.13-.06,.3-.07,.45-.04,.29,.05,.46,.38,.46,.83,0,.4-.14,.68-.43,.75-.11,.03-.27,0-.34-.06-.3-.27-.56-.58-.7-1.08Z"/><path class="cls-2" d="M197.71,133.12c-.17,.49-.37,.94-.74,1.29-.09,.09-.28,.12-.41,.1-.08-.02-.18-.17-.2-.28-.08-.4,.08-.74,.38-.99,.27-.23,.58-.34,.96-.11Z"/><path d="M126.25,126.53c.71-.01,1.29,.67,1.06,1.32-.25,.72-.66,1.36-1.33,1.77-.56,.35-1.22,.22-1.6-.28-.22-.3-.26-.63-.2-.98,.14-.76,1.11-1.69,1.87-1.81,.06,0,.12-.01,.19-.02Z"/><path d="M167.88,173.54c-.02,.2-.02,.53-.1,.83-.15,.58-.62,.9-1.19,.88-.54-.02-.89-.32-1.07-.91-.13-.41-.1-.81,.01-1.22,.08-.3,.16-.61,.28-.9,.19-.47,.56-.69,1.04-.65,.45,.03,.8,.34,.93,.82,.02,.09,.04,.19,.04,.28,.02,.25,.03,.51,.05,.87Z"/><path d="M65.09,174.35c.4,.05,.78,.07,1.15,.16,.48,.11,.86,.41,1.09,.84,.33,.61,.09,1.3-.55,1.58-.39,.17-.77,.21-1.19,.06-.52-.19-.94-.5-1.3-.91-.29-.33-.4-.71-.18-1.13,.21-.42,.57-.56,.98-.59Z"/><path d="M172.01,174.56c-.03-1.01,.94-1.62,1.72-1.13,.47,.3,.89,.7,1.28,1.11,.33,.35,.37,.8,.13,1.23-.23,.43-.7,.59-1.22,.53-.84-.11-1.34-.65-1.77-1.3-.1-.15-.11-.35-.14-.45Z"/><path d="M129.44,130.12c.63,.02,1.15,.49,1.15,1.09,0,.66-.14,1.32-.54,1.88-.39,.54-1.07,.64-1.59,.27-.33-.23-.51-.56-.49-.97,.02-.61,.22-1.18,.49-1.71,.2-.4,.59-.55,.99-.55Z"/><path d="M123.78,136.27c-.56-.02-1-.39-1.09-.92-.06-.35-.04-.72,.16-1.01,.29-.41,.59-.82,.96-1.16,.39-.37,.82-.37,1.22-.12,.4,.24,.58,.63,.47,1.14-.13,.59-.36,1.15-.76,1.61-.26,.3-.58,.49-.95,.46Z"/><path d="M135.57,132.45c-.71-.11-1.32-.47-1.71-1.12-.38-.63,.12-1.48,.88-1.48,.53,0,1.07,.06,1.58,.2,.77,.21,1.02,1.14,.5,1.74-.31,.36-.69,.64-1.25,.66Z"/><path d="M169.25,167.26c-.02-.46,.09-.88,.33-1.26,.24-.39,.59-.55,1.04-.5,.46,.05,.73,.32,.87,.75,.15,.49,.23,.98,.14,1.49-.08,.5-.34,.88-.85,1.02-.68,.19-1.27-.16-1.45-.84-.05-.21-.05-.43-.08-.65Z"/><path d="M166.95,164.16c0,.57-.32,1.03-.8,1.15-.56,.14-1.08-.09-1.32-.65-.18-.4-.34-.82-.43-1.25-.17-.86,.59-1.54,1.45-1.36,.33,.07,.57,.25,.72,.55,.19,.36,.37,1.09,.37,1.55Z"/><path d="M61.47,171.46c.01,.66-.51,1.21-1.18,1.23-.76,.02-1.6-.68-1.6-1.34,0-.57,.77-1.36,1.36-1.39,.67-.04,1.41,.74,1.42,1.51Z"/><path d="M59.1,177.33c-.53-.07-1.07-.38-1.39-.97-.21-.39-.14-.8,.14-1.16,.32-.4,.75-.47,1.2-.34,.46,.13,.85,.43,1.1,.85,.44,.73-.06,1.61-1.05,1.62Z"/><path d="M54.44,176.61c.03,.71-.47,1.21-1.06,1.16-.87-.07-1.54-.95-1.39-1.81,.11-.62,.86-1.09,1.44-.76,.58,.33,.89,.86,1.01,1.4Z"/><path d="M53.89,170.27c.63-.02,1.01,.22,1.21,.72,.19,.47,.15,.94-.18,1.34-.34,.43-.89,.53-1.36,.25-.21-.13-.41-.3-.58-.48-.3-.33-.39-.72-.23-1.15,.16-.43,.5-.63,.95-.67,.09,0,.19-.01,.19-.01Z"/><path d="M21.4,152.65c.06-.63,.19-1.12,.5-1.53,.5-.66,1.41-.57,1.8,.17,.17,.33,.22,.68,.11,1.01-.13,.42-.3,.84-.52,1.21-.43,.72-1.26,.68-1.64-.07-.14-.27-.19-.59-.25-.79Z"/><path d="M30.56,158.64c.01,.63-.14,1.07-.42,1.47-.31,.44-.8,.48-1.22,.12-.61-.54-.8-1.53-.4-2.24,.21-.38,.5-.64,.97-.63,.47,.01,.75,.31,.92,.7,.1,.23,.13,.48,.15,.59Z"/><path d="M22.12,160.18c0-.42,.15-.86,.54-1.19,.38-.32,.84-.31,1.19,.05,.13,.13,.25,.3,.31,.47,.26,.73,.15,1.44-.23,2.1-.24,.42-.76,.47-1.15,.16-.41-.32-.66-.91-.65-1.59Z"/><path d="M29.2,150.31c.03,.84-.17,1.39-.61,1.84-.35,.36-.82,.34-1.17-.02-.31-.32-.39-.71-.38-1.14,.01-.6,.25-1.11,.7-1.5,.45-.39,.97-.32,1.27,.21,.13,.24,.17,.53,.19,.6Z"/><path d="M28.02,166.78c-.08,.28-.14,.66-.31,.99-.31,.6-1.08,.65-1.48,.12-.31-.4-.52-.86-.47-1.39,.05-.63,.42-1.11,.9-1.16,.63-.06,1.14,.32,1.3,.98,.03,.12,.04,.25,.07,.47Z"/><path d="M19.34,161.25c-.05,.2-.09,.53-.22,.8-.25,.53-.83,.61-1.26,.22-.57-.53-.75-1.51-.37-2.18,.1-.18,.28-.34,.45-.47,.25-.2,.53-.16,.79,0,.31,.2,.48,.5,.55,.85,.04,.22,.04,.44,.06,.77Z"/><path d="M19.86,166.52c0-.49,.12-.9,.53-1.17,.22-.15,.45-.18,.71-.05,.89,.45,1.16,1.9,.37,2.68-.36,.35-.91,.28-1.23-.15-.3-.4-.36-.86-.37-1.31Z"/><path d="M15.78,165.78c.07-.33,.09-.65,.2-.93,.12-.3,.37-.51,.72-.51,.31,0,.54,.15,.69,.42,.34,.6,.45,1.23,.2,1.89-.13,.34-.36,.59-.75,.61-.37,.03-.72-.18-.87-.59-.11-.29-.13-.6-.19-.9Z"/><path d="M175.53,155.49c-.05,.4-.11,.77-.36,1.08-.22,.29-.5,.36-.83,.21-1.19-.54-1.52-2.21-.63-3.18,.51-.55,1.12-.47,1.4,.25,.2,.52,.28,1.09,.41,1.64Z"/><path d="M191.83,155.31c.02,.49-.18,.97-.65,1.32-.35,.27-.72,.23-1-.11-.1-.12-.18-.26-.25-.4-.36-.81-.21-1.61,.12-2.38,.23-.54,.73-.57,1.13-.13,.47,.51,.65,.97,.64,1.7Z"/><path d="M181.26,154.14c.05-.61,.17-1.15,.57-1.6,.37-.41,.8-.4,1.09,.08,.21,.34,.38,.73,.45,1.12,.14,.81-.34,1.37-.93,1.83-.21,.17-.57,.08-.77-.14-.34-.38-.37-.85-.41-1.29Z"/><path d="M187.41,145.02c-.05,.17-.14,.54-.27,.89-.11,.27-.34,.45-.62,.55-.29,.1-.57,.04-.76-.21-.65-.82-.48-2.34,.34-2.9,.29-.2,.61-.18,.85,.07,.36,.39,.47,.88,.47,1.6Z"/><path d="M179.48,146.11c0,.77-.24,1.41-.95,1.81-.25,.14-.51,.11-.67-.11-.13-.17-.24-.37-.28-.58-.15-.74,.01-1.44,.4-2.07,.31-.51,.88-.5,1.24-.01,.2,.27,.27,.53,.28,.97Z"/><g><path d="M23.55,63.94c-.11-.88-.21-1.76-.35-2.64-.11-.65-.39-1.26-.73-1.83-.62-1.04-1.54-1.67-2.7-1.98-.25-.07-.51-.11-.74-.21-.8-.34-1.13-1.07-.87-1.89,.09-.27,.22-.53,.35-.78,.33-.61,.67-1.2,1-1.81,.56-1.04,.92-2.15,1.13-3.32,.2-1.11,.06-2.17-.3-3.21-.07-.22-.18-.43-.22-.65-.16-.72,.28-1.23,1.02-1.23,.14,0,.29,.02,.43,.02,.51,.01,.87,.25,1.11,.68,.22,.4,.45,.8,.65,1.21,.7,1.42,1.73,2.55,3.05,3.43,.84,.55,1.69,1.08,2.64,1.41,.29,.1,.58,.24,.84,.42,.71,.47,.85,1.23,.36,1.94-.11,.16-.25,.31-.38,.46-.3,.34-.6,.7-.91,1.03-.97,1.02-1.58,2.23-2,3.56-.57,1.81-.96,3.65-1.18,5.54-.04,.37-.09,.74-.2,1.1-.13,.45-.45,.73-.93,.78-.55,.06-1.04-.28-1.12-.84-.06-.39-.01-.8-.01-1.2h.04Zm1.04-5.31c.42-1.03,.79-2.03,1.23-2.98,.46-.99,1.28-1.73,1.96-2.64-1.82-.91-3.49-1.94-4.86-3.44-.32,1.04-.57,2.04-.95,2.98-.39,.97-.92,1.89-1.38,2.83,2.49,1.36,2.1,.95,4,3.26Z"/><path class="cls-4" d="M24.6,58.64c-1.9-2.31-1.5-1.9-4-3.26,.47-.94,.99-1.86,1.38-2.83,.38-.94,.62-1.94,.95-2.98,1.37,1.5,3.04,2.53,4.86,3.44-.68,.91-1.5,1.66-1.96,2.64-.45,.96-.81,1.95-1.23,2.98Z"/></g><path d="M166.7,33.94c.01,.36-.16,.69-.42,.97-.26,.27-.54,.51-.82,.75-.39,.34-.8,.66-1.18,1.01-.86,.78-1.54,1.69-2.01,2.76-.31,.71-.63,1.42-.95,2.12-.12,.26-.23,.53-.4,.76-.56,.75-1.57,.64-1.94-.22-.1-.23-.15-.49-.21-.74-.17-.64-.31-1.28-.52-1.91-.16-.49-.37-.96-.62-1.41-.56-1.01-1.44-1.52-2.6-1.57-.32-.01-.63,0-.95-.01-.2,0-.41-.02-.59-.09-.69-.24-.99-.95-.66-1.6,.14-.28,.36-.52,.56-.76,.59-.67,1.19-1.32,1.77-1.99,.71-.82,1.19-1.74,1.42-2.81,.11-.52,.14-1.03,.06-1.54-.11-.67,.17-1.16,.6-1.62,.37-.39,1.22-.49,1.65,.15,.11,.16,.19,.35,.27,.54,.62,1.54,1.69,2.72,2.99,3.7,.89,.68,1.86,1.24,2.87,1.73,.36,.17,.72,.36,1.05,.58,.46,.31,.63,.67,.63,1.2Zm-8.08-3.95c-.31,.93-.59,1.72-1.08,2.39-.48,.66-1,1.3-1.56,2.04,1.06,.23,1.93,.68,2.65,1.41,.73,.75,1.17,1.67,1.63,2.75,.5-.92,.92-1.76,1.57-2.44,.66-.7,1.36-1.37,2.07-2.07-.91-.57-1.83-1.14-2.73-1.72-.94-.61-1.72-1.41-2.54-2.36Z"/><path class="cls-7" d="M158.62,30c.82,.95,1.6,1.75,2.54,2.36,.9,.59,1.82,1.15,2.73,1.72-.71,.7-1.4,1.37-2.07,2.07-.65,.68-1.07,1.52-1.57,2.44-.46-1.08-.89-2-1.63-2.75-.72-.73-1.59-1.19-2.65-1.41,.57-.74,1.08-1.37,1.56-2.04,.49-.67,.77-1.46,1.08-2.39Z"/><g><path d="M70.87,75.26c.22-.55,.46-1.09,.66-1.65,.15-.42,.18-.86,.17-1.3-.02-.81-.35-1.48-.92-2.03-.12-.12-.26-.23-.36-.36-.35-.46-.31-.99,.11-1.39,.14-.13,.3-.24,.46-.34,.39-.25,.78-.48,1.17-.73,.66-.43,1.24-.95,1.74-1.56,.48-.58,.74-1.24,.87-1.97,.03-.15,.04-.31,.08-.45,.14-.47,.56-.63,.99-.38,.08,.05,.16,.11,.24,.15,.29,.17,.43,.43,.42,.76,0,.31,0,.61-.02,.92-.05,1.06,.18,2.05,.66,2.99,.31,.6,.63,1.18,1.08,1.69,.14,.16,.26,.33,.36,.52,.26,.51,.09,.99-.42,1.24-.12,.06-.25,.1-.37,.14-.29,.1-.58,.21-.87,.3-.9,.28-1.64,.78-2.33,1.42-.92,.87-1.75,1.81-2.49,2.84-.15,.2-.3,.4-.47,.58-.22,.22-.5,.28-.79,.15-.34-.14-.51-.5-.38-.85,.1-.25,.25-.47,.38-.7h.03Zm2.34-2.74c.58-.46,1.12-.92,1.69-1.34,.59-.42,1.31-.59,2-.9-.76-1.12-1.4-2.27-1.71-3.59-.53,.5-.99,1-1.52,1.43-.55,.44-1.15,.8-1.73,1.2,1.01,1.6,.91,1.24,1.27,3.2Z"/><path class="cls-3" d="M73.21,72.51c-.35-1.97-.26-1.6-1.27-3.2,.58-.4,1.18-.76,1.73-1.2,.53-.42,.99-.93,1.52-1.43,.31,1.32,.95,2.47,1.71,3.59-.69,.31-1.41,.47-2,.9-.57,.41-1.11,.87-1.69,1.34Z"/></g><g><path d="M82.36,45.95c-.08-.59-.14-1.18-.23-1.76-.07-.44-.26-.84-.49-1.22-.41-.7-1.03-1.12-1.8-1.32-.17-.04-.34-.07-.5-.14-.53-.22-.76-.72-.58-1.26,.06-.18,.15-.35,.24-.52,.22-.4,.45-.8,.67-1.21,.37-.7,.62-1.43,.76-2.21,.13-.74,.04-1.45-.2-2.14-.05-.14-.12-.28-.15-.43-.11-.48,.18-.82,.68-.82,.1,0,.19,.01,.29,.02,.34,0,.58,.17,.74,.46,.15,.27,.3,.54,.43,.81,.47,.95,1.16,1.7,2.04,2.29,.56,.37,1.13,.72,1.76,.94,.2,.07,.39,.16,.56,.28,.48,.32,.57,.82,.24,1.29-.08,.11-.17,.21-.26,.31-.2,.23-.4,.46-.61,.69-.65,.68-1.05,1.49-1.33,2.38-.38,1.21-.64,2.44-.78,3.7-.03,.25-.06,.5-.13,.73-.09,.3-.3,.49-.62,.52-.37,.04-.69-.19-.75-.56-.04-.26,0-.53,0-.8h.03Zm.7-3.54c.28-.69,.52-1.35,.82-1.99,.31-.66,.85-1.16,1.31-1.76-1.21-.61-2.33-1.29-3.25-2.3-.22,.7-.38,1.36-.63,1.99-.26,.65-.61,1.26-.92,1.89,1.67,.91,1.4,.63,2.67,2.18Z"/><path class="cls-1" d="M83.06,42.42c-1.27-1.54-1-1.27-2.67-2.18,.31-.63,.66-1.24,.92-1.89,.25-.63,.42-1.29,.63-1.99,.92,1,2.03,1.69,3.25,2.3-.45,.61-1,1.11-1.31,1.76-.3,.64-.54,1.3-.82,1.99Z"/></g><g><path d="M188.54,89.8c.33-.53,.67-1.06,.99-1.61,.23-.41,.35-.87,.42-1.33,.13-.85-.1-1.61-.6-2.3-.11-.15-.23-.29-.32-.45-.29-.54-.15-1.1,.37-1.43,.17-.11,.36-.19,.54-.27,.45-.19,.91-.36,1.36-.55,.77-.33,1.47-.77,2.11-1.32,.6-.52,1-1.16,1.27-1.9,.06-.15,.09-.31,.17-.46,.23-.47,.7-.56,1.11-.22,.08,.06,.15,.14,.23,.2,.27,.23,.37,.53,.31,.87-.06,.32-.11,.64-.18,.96-.25,1.1-.19,2.18,.15,3.25,.21,.68,.45,1.35,.82,1.96,.12,.19,.21,.4,.28,.61,.18,.58-.08,1.05-.67,1.23-.14,.04-.28,.06-.42,.08-.32,.05-.64,.12-.96,.16-.99,.13-1.86,.52-2.69,1.07-1.12,.74-2.16,1.58-3.12,2.52-.19,.18-.38,.37-.6,.52-.27,.19-.57,.2-.86,.01-.33-.21-.45-.62-.24-.96,.14-.24,.35-.44,.53-.66h.02Zm2.94-2.44c.69-.38,1.34-.76,2.01-1.09,.69-.34,1.48-.38,2.26-.58-.59-1.31-1.05-2.63-1.14-4.07-.64,.43-1.22,.87-1.85,1.22-.65,.36-1.35,.63-2.02,.94,.77,1.86,.73,1.46,.74,3.58Z"/><path class="cls-4" d="M191.49,87.35c-.01-2.12,.02-1.72-.74-3.58,.68-.31,1.38-.58,2.02-.94,.63-.35,1.21-.79,1.85-1.22,.09,1.44,.54,2.75,1.14,4.07-.78,.2-1.57,.24-2.26,.58-.67,.33-1.32,.71-2.01,1.09Z"/></g></svg>