<?xml version="1.0" encoding="UTF-8"?><svg id="Layer_1" xmlns="http://www.w3.org/2000/svg" viewBox="0 0 212 136"><defs><style>.cls-1{fill:#fff;}.cls-2{fill:#848383;}.cls-3{fill:#92c6ea;}.cls-4{fill:#9a979b;}.cls-5{fill:#5aa445;}.cls-6{fill:#595a5a;}</style></defs><path d="M35.5,75.79c.05-1.03,.11-2.05,.16-3.08,.02-.48,.02-.96,0-1.44-.07-2.59-1.22-4.65-3.12-6.34-.38-.34-.81-.63-1.22-.94-.47-.35-.95-.67-1.41-1.02-3.06-2.36-4.65-5.49-4.81-9.34-.06-1.44,.05-2.88,.41-4.28,.34-1.29,.7-2.57,1.09-3.85,.12-.39,.3-.77,.55-1.09,.42-.55,1.06-.5,1.47,.06,.35,.48,.37,1.02,.2,1.57-.16,.52-.35,1.04-.47,1.57-.3,1.4-.63,2.81-.83,4.23-.46,3.36,.66,6.13,3.31,8.25,.67,.53,1.38,1.01,2.08,1.51,2.48,1.81,4.09,4.21,4.8,7.18,.2,.83,.33,1.69,.33,2.53,0,1.57-.11,3.15-.2,4.72-.02,.33-.13,.68-.29,.97-.39,.74-1.28,.75-1.74,.05-.25-.38-.33-.82-.29-1.27Z"/><path d="M25.53,73.43c.24-.24,.46-.45,.67-.66,1.48-1.46,3.15-1.02,4.13,.38,1.04,1.47,1.24,3.11,.56,4.78-.47,1.16-1.36,1.86-2.69,1.87-.14,0-.27,.01-.41,.02-.03,0-.06,.03-.13,.05,.09,.28,.2,.57,.27,.86,.13,.55,.1,1.09-.2,1.59-.37,.62-1.03,.72-1.56,.24-.17-.15-.31-.34-.47-.52-.32,.39-.57,.75-.88,1.06-.6,.61-1.34,.8-2.17,.55-.59-.18-.98-.59-1.3-1.11-.48-.79-.65-1.66-.66-2.55-.02-.89,.12-1.77,.49-2.6,.42-.94,1.03-1.69,2.06-2.01,.12-.04,.23-.13,.36-.2-.07-.36-.15-.69-.21-1.02-.08-.42,.01-.82,.23-1.18,.34-.58,1-.65,1.46-.16,.16,.17,.28,.37,.45,.6Zm1.62,2.65c.25,.44,.65,.53,1.06,.56,.27,.02,.58-.2,.62-.43,.07-.35,.04-.67-.22-.95-.21-.22-.48-.27-.73-.1-.32,.21-.58,.47-.73,.92Zm-3.98,4.47c.52-.14,.58-.51,.66-.82,.12-.46,.35-.93,.2-1.43-.4-.03-.58,.18-.7,.43-.28,.56-.36,1.15-.15,1.82Z"/><path class="cls-4" d="M10.13,123.17c.32-1.13,.6-2.12,.87-3.11,1.13-4.17,2.53-8.24,4.12-12.25,2.22-5.6,5.45-10.58,9.62-14.93,1.17-1.22,2.47-2.27,3.93-3.12,1.49-.87,3.06-1.15,4.74-.83,.97,.19,1.94,.41,2.91,.6,.5,.1,1,.17,1.51,.26,.03,.37-.23,.53-.39,.71-2.75,3.03-4.55,6.57-5.69,10.47-.41,1.41-.69,2.86-1.01,4.3-.08,.37-.17,.72-.37,1.06-.27,.45-.34,.96-.21,1.49,.06,.23,.07,.47,.04,.71-.19,2.01-.4,4.02-.6,6.03-.01,.1-.04,.2-.07,.34-.16,0-.33,.02-.49,0-.75-.1-1.21,.17-1.41,.84-.22,.72,.09,1.81,.72,2.22,.29,.19,.69,.22,1.08,.34,.02,1.27,.04,2.57,.06,3.87,0,.1-.04,.19-.06,.27-.08,.04-.13,.11-.19,.11-1.68,.08-3.35,.18-5.03,.22-4.65,.1-9.3,.4-14.09,.43Zm13.23-24.75c-.25,0-.51,.13-.73,.36-.6,.63-.78,1.89-.39,2.68,.21,.42,.5,.73,1.01,.74,.52,.01,.82-.31,1.01-.73,.17-.37,.33-.75,.42-1.14,.07-.29,.06-.61,0-.91-.12-.62-.62-1-1.31-1Zm2.32,11c-.07-.64-.17-1.13-.56-1.52-.45-.45-.99-.46-1.44,0-.14,.14-.26,.32-.35,.5-.38,.83-.14,1.92,.55,2.53,.56,.49,1.2,.37,1.49-.33,.17-.4,.23-.85,.31-1.17Zm5.09-11.5c-.03-.13-.06-.47-.2-.77-.32-.69-1.05-.8-1.58-.26-.45,.45-.68,1.02-.69,1.65,0,.48,.13,.94,.49,1.3,.41,.4,.96,.4,1.35-.02,.43-.47,.61-1.04,.63-1.89Zm-9.93,18.43c.12,.57,.16,1.12,.5,1.58,.49,.66,1.26,.6,1.67-.11,.46-.8,.27-1.92-.42-2.52-.64-.56-1.21-.27-1.51,.3-.12,.24-.16,.52-.23,.75Zm-.78-5.7c-.03-.4,0-.66-.08-.87-.12-.31-.26-.63-.48-.87-.37-.41-.86-.39-1.26-.01-.1,.09-.19,.2-.26,.31-.49,.81-.22,2.1,.55,2.65,.46,.33,1.04,.23,1.28-.3,.15-.33,.19-.71,.24-.91Zm-3.77,5.09c-.02,.47,.03,.94,.33,1.34,.49,.65,1.29,.58,1.65-.14,.34-.67,.14-1.97-.4-2.49-.42-.42-.95-.37-1.31,.11-.26,.35-.29,.75-.27,1.18Z"/><path class="cls-1" d="M27.15,76.08c.15-.45,.41-.71,.73-.92,.26-.17,.52-.12,.73,.1,.26,.27,.29,.6,.22,.95-.05,.22-.36,.45-.62,.43-.41-.03-.81-.11-1.06-.56Z"/><path class="cls-1" d="M23.17,80.54c-.2-.67-.12-1.26,.15-1.82,.12-.25,.3-.46,.7-.43,.16,.5-.08,.97-.2,1.43-.08,.31-.14,.68-.66,.82Z"/><path d="M36.73,124.35c.05-.57,.28-1.03,.86-1.26,.52-.21,1.05-.09,1.46,.41,.27,.34,.51,.72,.68,1.12,.23,.52,.08,1.01-.33,1.39-.39,.35-.85,.41-1.33,.21-.92-.4-1.28-.88-1.34-1.87Z"/><path d="M40.75,118.51c0,.7-.33,1.2-.94,1.43-.09,.04-.19,.07-.29,.08-1.03,.13-2.15-1.19-1.82-2.16,.06-.19,.19-.37,.33-.51,.41-.41,1.37-.54,1.92-.26,.58,.29,.81,.79,.81,1.42Z"/><path d="M196.32,114.24c.07,.31,.1,.47,.15,.63,.72,2.16,1.02,4.39,1.11,6.66,.06,1.61,.13,3.22,.2,4.82,.07,1.71-.35,3.32-.89,4.92-.21,.62-.68,.9-1.26,1.06-1.03,.29-2.07,.4-3.14,.4-2.53-.01-5.07,.03-7.6,.05-3.08,.03-6.17,.05-9.25,.07-5.79,.05-11.58,.11-17.37,.17-7.78,.08-15.55,.17-23.33,.25-5.17,.05-10.34,.1-15.52,.16-8.39,.09-16.78,.18-25.18,.27-4.76,.05-9.52,.09-14.28,.14-8.8,.09-17.61,.19-26.41,.28-4.76,.05-9.52,.09-14.28,.14-2.02,.02-4.04,.06-6.06,.1-.34,0-.69,.03-1.03,0-.86-.08-1.31-.44-1.52-1.27-.17-.66-.29-1.34-.38-2.02-.19-1.42-.34-2.85-.51-4.28-.04-.3-.09-.61-.14-.96-.24-.02-.47-.07-.7-.07-3.56,.1-7.12,.19-10.68,.31-2.64,.09-5.27,.21-7.91,.3-.37,.01-.76,.01-1.11-.1-.94-.31-1.47-1.27-1.45-2.35,.02-1.14,.27-2.23,.55-3.33,1.26-4.91,2.87-9.71,4.74-14.42,2.29-5.76,5.58-10.89,9.82-15.42,1.27-1.36,2.67-2.55,4.23-3.57,2.19-1.43,4.54-1.82,7.07-1.28,.87,.19,1.74,.36,2.61,.55,1.26,.28,2.45,.13,3.58-.48,.51-.28,1.02-.57,1.5-.89,1.3-.87,2.19-2.03,2.68-3.53,.54-1.66,.93-3.36,1.31-5.07,.12-.54-.1-.91-.4-1.31-2.49-3.3-4.42-6.92-5.86-10.79-1.29-3.48-2.15-7.06-2.61-10.75-.42-3.42-.47-6.83-.12-10.25,.26-2.56,.75-5.08,1.47-7.55,.07-.23,.13-.46,.2-.73-.14-.1-.25-.24-.4-.29-2.4-.94-3.97-2.76-5.12-4.96-1.03-1.97-1.53-4.1-1.69-6.31-.09-1.34,.33-2.57,1.14-3.65,1.18-1.55,2.94-2.08,4.86-1.45,.58,.19,1.12,.5,1.67,.76,.12,.06,.23,.12,.43,.23,.04-.22,.08-.37,.09-.52,.09-1.31,.32-2.58,.84-3.79,.69-1.62,1.79-2.84,3.5-3.38,1.84-.58,3.52-.28,4.97,1.04,1.16,1.05,1.82,2.38,2.16,3.89,.13,.56,.17,1.15,.26,1.77,.34-.12,.66-.22,.96-.35,2.13-.9,3.86,.09,4.79,1.42,1.57,2.26,1.94,4.71,1.05,7.32-.17,.51-.41,1.01-.61,1.51,.09,.26,.32,.22,.51,.26,.62,.15,1.14,.46,1.58,.9,1.7,1.67,1.99,4.22,.69,6.22-.81,1.25-1.92,2.14-3.31,2.66-1.26,.48-2.59,.65-3.93,.59-1.85-.09-3.67-.36-5.42-1.04-.12-.05-.26-.06-.38-.09-.61,.98-1.23,6.47-1.23,10.26,0,5.44,1.21,11.31,2.28,13.52,.14-.32,.26-.59,.37-.88,.56-1.4,1.27-2.73,2.16-3.95,1-1.37,2.22-2.52,3.69-3.37,2.58-1.48,5.31-1.67,8.14-.92,.29,.08,.58,.18,.91,.28,.09-.13,.19-.22,.24-.34,1.7-3.94,4.14-7.38,6.9-10.65,4.38-5.19,9.7-9.14,15.81-12.04,.96-.45,1.95-.84,2.94-1.2,4.15-1.49,8.39-2.74,12.68-3.76,2.06-.49,4.17-.78,6.26-1.12,1.35-.22,2.71-.38,4.07-.53,2.73-.3,5.47-.51,8.2-.25,4.04,.38,7.98,1.23,11.73,2.81,2.05,.86,4.1,1.72,6.12,2.66,2.9,1.35,5.56,3.08,8.06,5.08,3,2.4,5.77,5.06,8.45,7.81,.93,.95,1.77,2,2.58,3.06,1.5,1.96,3.03,3.9,4.24,6.06,.62,1.1,1.25,2.2,1.88,3.3,.08,.15,.18,.29,.29,.47,.2-.08,.4-.13,.56-.23,1.46-.88,2.64-2.07,3.69-3.38,1.91-2.37,3.29-5.04,4.33-7.89,1.3-3.57,2.02-7.25,1.96-11.06,0-.61,.02-1.23-.19-1.86-.39-.16-.8-.09-1.2-.09-1.07,.01-2.12-.16-3.13-.51-3.8-1.32-6.2-4.01-7.53-7.73-.4-1.13-.34-2.3,.03-3.43,.47-1.46,1.51-2.34,2.97-2.7,.62-.16,1.28-.18,1.98-.27,.19-.26,.07-.6,.04-.93-.16-1.67,.16-3.27,.69-4.84,.27-.78,.65-1.51,1.16-2.16,1.16-1.49,3.14-2.42,5.41-1.55,.98,.37,1.82,.95,2.52,1.72,.21,.23,.41,.46,.65,.74,.22-.23,.43-.45,.64-.66,.78-.81,1.69-1.36,2.81-1.58,1.06-.21,2.05-.08,2.99,.4,2.04,1.03,3.08,2.74,3.3,4.99,.05,.51,0,1.02,0,1.6,.26,.03,.49,.06,.71,.07,2.78,.06,4.79,2.03,4.83,4.82,.04,2.56-.94,4.74-2.66,6.6-1.6,1.74-3.64,2.75-5.88,3.4-.55,.16-1.11,.3-1.72,.46,.02,.37,.02,.71,.06,1.04,.26,2.43,.14,4.86-.2,7.27-1.04,7.34-4.02,13.82-8.69,19.55-.19,.24-.38,.48-.6,.77,.99,1.73,1.56,3.63,2.29,5.47,.32,.79,.7,1.56,1.07,2.33,.67,1.39,1.65,2.5,2.91,3.39,1.15,.81,2.28,1.65,3.37,2.52,2.36,1.87,4.27,4.14,5.76,6.77,1.19,2.09,2.17,4.27,3.05,6.5,.42,1.05,.83,2.1,1.25,3.15,1.09,2.74,2.36,5.39,3.85,7.94,.85,1.45,1.67,2.91,2.51,4.36,1.54,2.67,3.25,5.23,5,7.77,.66,.96,1.32,1.91,1.61,3.07,.25,.99,.24,1.97,.08,2.95-.08,.52-.31,.97-.93,1.04-.4,.42-.93,.38-1.44,.37-2.12-.02-4.25-.04-6.37-.06-.37,0-.74,.01-1.25,.02Zm-163.19,17.11c.49,.06,.97,.04,1.44,.03,5.86-.06,11.71-.13,17.57-.18,3.87-.04,7.74-.03,11.61-.08,8.94-.1,17.88-.23,26.82-.32,4.59-.05,9.18-.04,13.77-.09,9.45-.1,18.91-.23,28.36-.33,4.08-.04,8.15-.04,12.23-.08,8.7-.1,17.4-.22,26.1-.32,7.4-.09,14.8-.15,22.19-.23,.34,0,.68-.02,1.06-.02,.41-1.14,.62-2.27,.57-3.45-.06-1.37-.08-2.74-.17-4.11-.09-1.3-.17-2.6-.39-3.88-.39-2.27-1.1-4.45-2.29-6.44-1.08-1.81-2.47-3.37-4.01-4.79-.74-.68-1.58-1.2-2.5-1.59-1.04-.44-2.1-.83-3.13-1.28-1.04-.45-2.08-.89-3.07-1.42-2.21-1.19-3.83-2.97-4.91-5.23-1.19-2.49-1.65-5.13-1.53-7.88,.09-2.23,.44-4.43,.76-6.63,.43-3.03,.68-6.05,.34-9.11-.27-2.42-.96-4.69-2.34-6.72-1.61-2.37-3.82-3.87-6.61-4.53-1.57-.37-3.18-.47-4.79-.56-2.44-.14-4.86,.17-7.27,.44-1.97,.23-3.93,.54-5.9,.8-2.25,.3-4.51,.32-6.75-.05-2.71-.45-4.99-1.66-6.65-3.89-.53-.71-1.02-1.47-1.41-2.26-.54-1.1-.99-2.25-1.45-3.4-.42-1.05-.79-2.12-1.21-3.16-.43-1.05-1.01-2.02-1.79-2.86-1.52-1.64-3.34-2.82-5.48-3.49-1.32-.41-2.68-.6-4.05-.38-2.57,.41-4.96,1.29-7.11,2.77-.76,.52-1.53,1.04-2.3,1.55-1.26,.84-2.58,1.55-4.01,2.06-2.49,.91-5.04,1.2-7.67,.76-1.58-.26-3.17-.53-4.76-.77-1.42-.22-2.79-.05-4.14,.45-1.9,.71-3.67,1.68-5.34,2.82-2.04,1.39-3.99,2.9-5.88,4.48-3.43,2.87-6.24,6.23-8.29,10.22-.77,1.49-1.65,2.92-2.5,4.37-1.4,2.37-3.14,4.48-5.12,6.4-1.51,1.47-3.21,2.66-5.16,3.48-1.98,.84-3.95,1.71-5.99,2.43-2.18,.78-4.16,1.91-5.97,3.36-1.36,1.1-2.62,2.31-3.84,3.56-2.87,2.95-4.7,6.47-5.75,10.4-1.16,4.32-1.68,8.73-1.93,13.19-.15,2.71-.1,5.41,.03,8.11,.11,2.36,.31,4.72,.47,7.07,.02,.23,.09,.46,.14,.75ZM95.47,29.29c.22,.36,.43,.67,.62,.99,.39,.67,.6,1.39,.5,2.16-.21,1.58-.82,2.96-2.03,4.04-.9,.81-1.88,1.49-2.98,1.98-.65,.29-1.33,.53-1.98,.84-.71,.34-1.42,.68-2.08,1.1-1.01,.64-1.55,1.62-1.79,2.77-.1,.5-.14,1.02-.19,1.53-.12,1.41-.36,2.78-1.01,4.06-.05,.11-.15,.24,.03,.36,.84-.35,1.69-.71,2.53-1.07,1.92-.81,3.92-.91,5.95-.65,1.29,.17,2.56,.41,3.84,.67,2.2,.43,4.36,.33,6.49-.36,1.28-.41,2.47-1.01,3.59-1.75,.8-.53,1.6-1.06,2.38-1.61,2.08-1.44,4.36-2.43,6.81-3.01,.7-.17,1.4-.32,2.12-.38,2.15-.2,4.23,.15,6.21,1.01,3.67,1.59,6.45,4.09,7.94,7.88,.21,.54,.41,1.09,.62,1.63,.4,1.06,.79,2.12,1.21,3.16,.43,1.08,1,2.1,1.7,3.03,.94,1.25,2.17,2.08,3.66,2.52,.95,.28,1.94,.42,2.93,.47,1.61,.08,3.22,0,4.81-.24,2.74-.4,5.48-.81,8.24-1.05,2.29-.2,4.58-.23,6.87,0,.2,.02,.4,0,.65,0,0-.17,0-.3-.02-.43-.05-.27-.09-.55-.18-.8-.32-.83-.62-1.67-1.02-2.46-1.76-3.42-3.75-6.68-6.17-9.68-.75-.93-1.48-1.89-2.3-2.76-1.2-1.27-2.47-2.47-3.72-3.69-1.93-1.9-4.02-3.62-6.18-5.25-.85-.64-1.73-1.22-2.63-1.79-1.89-1.18-3.9-2.13-5.94-3.02-3.74-1.63-7.52-3.12-11.59-3.7-1.86-.27-3.73-.58-5.62-.49-2.05,.1-4.1,.28-6.14,.48-1.29,.13-2.58,.32-3.86,.54-1.69,.28-3.38,.55-5.04,.94-2.23,.53-4.43,1.17-6.64,1.77-.19,.05-.37,.15-.59,.24Zm73.59,31.77c.26,.18,.4,.28,.54,.36,3.2,1.87,5.19,4.7,6.38,8.15,.69,1.99,.93,4.07,1.02,6.16,.14,3.06-.24,6.08-.7,9.1-.3,2-.58,4-.55,6.03,.03,1.74,.38,3.4,1.04,4.99,.84,2,2.2,3.54,4.14,4.52,.73,.37,1.49,.69,2.24,1.02,.63,.27,1.27,.5,1.91,.76,.82-.15,1.24,.65,1.92,.83,.03,0,.07,.02,.1,.04,1.09,.52,2.08,1.18,2.97,2,1.71,1.6,3.24,3.34,4.45,5.36,.12,.2,.27,.39,.38,.54,.12,.03,.19,.07,.25,.07,2.95,.02,5.89,.03,8.84,.04,.11,0,.23-.06,.43-.12-.22-.37-.38-.66-.57-.94-.44-.65-.9-1.29-1.34-1.94-2.71-3.96-5.1-8.11-7.44-12.3-1.07-1.91-2.03-3.88-2.85-5.92-.55-1.36-1.1-2.73-1.65-4.1-.84-2.1-1.74-4.17-2.84-6.15-1.35-2.42-3.08-4.52-5.26-6.25-1.1-.87-2.22-1.72-3.37-2.52-1.46-1.03-2.59-2.33-3.43-3.9-.16-.3-.33-.6-.46-.92-.57-1.36-1.11-2.72-1.69-4.08-.41-.98-.85-1.94-1.29-2.9-.08-.17-.25-.3-.41-.48l-2.76,2.54Zm-111.3,16.98c-.04-.07-.06-.11-.08-.12-.2-.13-.39-.27-.6-.38-1.72-.96-3.23-2.18-4.6-3.58-1.83-1.88-3.3-4.02-4.51-6.33-2.97-5.69-4.25-11.81-4.51-18.18-.1-2.54,.05-5.06,.35-7.58,.21-1.77,.54-3.52,.92-5.25,.05-.23,.11-.47,.2-.69,.2-.48,.56-.82,1.09-.81,.71,.02,1.44-.04,2.11,.28,1.16,.54,2.4,.78,3.66,.94,1.23,.16,2.46,.17,3.67-.13,.99-.25,1.81-.77,2.46-1.57,1.04-1.27,.51-2.63-.24-3.44-.13-.14-.33-.28-.51-.31-.85-.15-1.74-.21-2.5,.25-1.14,.68-2.4,.98-3.65,1.32-.42,.11-.89,.11-1.32,.05-.57-.07-.97-.56-1.02-1.13-.05-.55,.29-1.1,.8-1.31,.16-.06,.33-.12,.5-.11,1.09,.02,2.06-.41,3.04-.8,.54-.22,1.02-.56,1.41-1,1.16-1.33,1.72-2.87,1.52-4.64-.11-.97-.47-1.85-1.07-2.63-.32-.41-.73-.59-1.25-.55-.71,.06-1.32,.34-1.89,.73-.25,.17-.47,.41-.73,.56-.42,.23-.62,.6-.8,1.02-.37,.88-.79,1.75-1.19,2.62-.07,.16-.14,.31-.24,.45-.37,.55-.96,.76-1.51,.56-.6-.22-.92-.82-.76-1.5,.06-.26,.18-.51,.29-.76,.4-.91,.82-1.81,1.2-2.72,.48-1.15,.71-2.36,.58-3.61-.13-1.24-.63-2.3-1.59-3.12-.56-.47-1.2-.66-1.91-.5-.79,.18-1.46,.57-1.91,1.28-.36,.55-.61,1.15-.76,1.78-.27,1.1-.46,2.21-.46,3.35,0,.58,0,1.17-.1,1.74-.06,.37,.03,.67,.14,.99,.22,.61,.42,1.23,.61,1.85,.11,.37,.12,.74,0,1.11-.19,.56-.77,.93-1.36,.88-.64-.05-1.06-.44-1.12-1.12-.1-1.12-.54-2.12-1.06-3.08-.53-.97-1.35-1.65-2.41-1.96-1.22-.36-1.86,.01-2.39,.99-.23,.43-.32,.89-.32,1.38,0,1.04,.2,2.04,.46,3.04,.43,1.6,1.12,3.08,2.22,4.35,.99,1.13,2.09,2.07,3.62,2.37,.1,.02,.2,.06,.29,.1,.68,.26,.98,.71,.87,1.43-.05,.37-.18,.73-.3,1.09-.96,2.91-1.53,5.9-1.75,8.94-.24,3.25-.15,6.5,.32,9.73,.61,4.23,1.78,8.29,3.57,12.17,2.12,4.59,4.95,8.67,8.71,12.08,.63,.57,1.28,1.13,1.98,1.63,1.41-.54,2.72-1.16,3.84-2.13ZM10.13,123.17c4.79-.03,9.44-.33,14.09-.43,1.68-.04,3.35-.14,5.03-.22,.06,0,.11-.06,.19-.11,.02-.08,.06-.18,.06-.27-.01-1.3-.04-2.6-.06-3.87-.4-.12-.79-.15-1.08-.34-.62-.41-.94-1.5-.72-2.22,.21-.67,.67-.94,1.41-.84,.16,.02,.33,0,.49,0,.03-.14,.06-.24,.07-.34,.2-2.01,.41-4.02,.6-6.03,.02-.23,.01-.48-.04-.71-.13-.53-.06-1.03,.21-1.49,.2-.33,.28-.69,.37-1.06,.32-1.44,.59-2.89,1.01-4.3,1.14-3.89,2.94-7.44,5.69-10.47,.17-.19,.42-.34,.39-.71-.52-.09-1.02-.16-1.51-.26-.97-.19-1.94-.41-2.91-.6-1.68-.32-3.26-.04-4.74,.83-1.46,.85-2.76,1.9-3.93,3.12-4.17,4.36-7.4,9.33-9.62,14.93-1.59,4.01-2.99,8.09-4.12,12.25-.27,.99-.55,1.97-.87,3.11ZM179.2,10.59c.12,.91,.29,1.72,.32,2.53,.04,.89-.02,1.78-.08,2.67-.02,.34-.12,.68-.25,.99-.31,.74-1.09,1.07-1.77,.79-.8-.33-1.06-1.01-.72-1.85,.09-.22,.22-.44,.25-.67,.21-1.88-.04-3.69-.98-5.37-.41-.74-.99-1.3-1.75-1.68-1.18-.58-2.2-.33-2.96,.75-.4,.57-.64,1.21-.83,1.87-.47,1.57-.47,3.17-.4,4.79,.02,.49,.2,.83,.6,1.11,1.07,.76,1.9,1.77,2.72,2.78,.15,.18,.29,.39,.36,.61,.34,1.01-.46,1.89-1.5,1.68-.36-.07-.59-.31-.8-.6-.55-.79-1.18-1.52-1.92-2.13-.45-.37-.94-.68-1.45-.96-.56-.31-1.18-.32-1.8-.23-.74,.11-1.23,.6-1.35,1.34-.11,.65-.1,1.29,.16,1.92,1.18,2.92,3.14,5.01,6.25,5.91,.86,.25,1.74,.36,2.62,.46,.37,.04,.73,.01,1.1-.11,.96-.31,1.6,.11,1.78,1.11,.1,.57,.17,1.15,.21,1.73,.24,3.2-.07,6.36-.83,9.48-.98,4.03-2.54,7.8-4.92,11.22-1.56,2.24-3.41,4.2-5.79,5.6-.06,.03-.09,.1-.18,.19,.28,.88,.56,1.79,.85,2.69,.06,.19,.15,.37,.26,.63,.34-.26,.64-.48,.93-.72,5.68-4.78,9.62-10.72,11.8-17.81,1.36-4.41,1.82-8.91,1.19-13.5-.04-.27-.08-.54-.09-.82-.05-.91,.41-1.43,1.3-1.48,.31-.02,.62,.01,.92-.04,1.49-.27,2.93-.71,4.24-1.47,1.84-1.07,3.18-2.58,3.75-4.68,.17-.63,.25-1.27,.19-1.93-.08-.94-.56-1.59-1.4-2-.59-.29-1.19-.28-1.8-.14-.51,.12-.77,.49-1.02,.93-.61,1.08-1.4,2.03-2.22,2.95-.16,.18-.34,.34-.54,.47-.48,.29-1.15,.21-1.52-.16-.42-.42-.51-.97-.2-1.5,.14-.23,.33-.43,.5-.65,.56-.73,1.15-1.45,1.68-2.21,.64-.92,.95-1.97,1.03-3.08,.06-.87-.1-1.72-.58-2.46-1.11-1.71-2.95-1.7-4.16-.68-.34,.29-.66,.59-.83,1.03-.1,.25-.27,.47-.4,.7ZM61.77,68.85c.49-.09,.74-.33,.99-.55,1.14-1,2.35-1.88,3.68-2.61,.37-.2,.64-.48,.86-.85,1.87-3.15,4.2-5.92,6.99-8.29,1.56-1.33,3.19-2.59,4.8-3.86,.31-.25,.53-.5,.62-.9,.2-.89,.65-1.65,1.22-2.35,.24-.29,.47-.59,.7-.88,.75-.94,1.15-2.01,1.28-3.2,.07-.61,.13-1.23,.19-1.84,.26-2.4,1.35-4.28,3.46-5.52,.62-.36,1.27-.67,1.92-.97,.65-.3,1.33-.55,1.98-.84,1.01-.45,1.91-1.07,2.67-1.88,.62-.66,.91-1.45,.92-2.33,.01-.7-.46-1.19-.9-1.68-.07-.07-.16-.12-.23-.16-.09,0-.16,0-.22,.02-.2,.05-.39,.11-.59,.17-5.26,1.59-9.87,4.36-14.12,7.78-2.52,2.03-4.64,4.45-6.68,6.95-1.96,2.4-3.63,4.98-4.9,7.8-1.55,3.44-2.71,7.02-3.69,10.66-.46,1.72-.72,3.47-.94,5.33Zm.7-13.12c-.21-.1-.33-.17-.45-.21-.97-.28-1.96-.28-2.95-.25-1.52,.04-2.88,.52-4.13,1.38-1.18,.81-2.12,1.83-2.89,3.03-1.02,1.61-1.69,3.35-2.13,5.2-.11,.46-.09,.85,.13,1.27,1.07,2.04,2.32,3.96,3.89,5.65,1.26,1.37,2.67,2.56,4.3,3.47,.16,.09,.36,.12,.63,.21,0-.4,0-.7,0-1,0-2.02,.1-4.03,.37-6.04,.43-3.23,1.11-6.4,2.18-9.48,.36-1.03,.68-2.08,1.06-3.21Zm-14.49,22.55l-1.25,4.65c.08,.04,.12,.08,.13,.07,1.33-.51,2.66-1.03,3.98-1.54,.09-.03,.16-.1,.3-.18l-3.17-3Zm13.48-4.16c.91-.84,1.82-2.17,2.07-3.04-.89,.44-1.39,1.22-2.07,1.77v1.27Z"/><path d="M204.87,84.78c-.04,.41-.03,.69-.1,.94-.08,.32-.18,.66-.36,.94-.27,.43-.83,.44-1.11,0-.18-.28-.26-.62-.37-.94-.04-.13-.04-.27-.08-.49-.22,.19-.4,.33-.57,.48-.99,.92-2.02,.56-2.65-.27-.2-.27-.37-.58-.48-.9-.54-1.51-.54-3.02,.11-4.49,.2-.46,.5-.91,.85-1.26,.59-.58,1.32-.84,2.16-.55,.16,.06,.33,.09,.52,.14,.19-.38,.08-.75,.1-1.11,.03-.45,.1-.88,.38-1.25,.33-.44,.8-.45,1.1,0,.17,.25,.27,.55,.36,.84,.07,.22,.06,.47,.09,.77,.21-.08,.4-.15,.57-.23,1.09-.51,1.99-.02,2.53,.7,.46,.62,.68,1.33,.83,2.07,.24,1.24,.14,2.45-.33,3.62-.22,.55-.54,1.02-1.04,1.36-.75,.51-1.32,.5-2.06-.04-.11-.08-.21-.16-.47-.36Zm.48-3.62c.23,.31,.43,.63,.67,.91,.26,.3,.64,.22,.83-.13,.24-.44,.13-.86-.11-1.26-.12-.19-.42-.28-.63-.2-.29,.11-.55,.27-.76,.68Zm-3.13,.4c-.1-.15-.11-.19-.14-.21-.42-.24-.73,.02-1,.27-.31,.29-.48,.66-.34,1.11,.09,.29,.45,.38,.64,.12,.3-.41,.56-.85,.83-1.29Z"/><path d="M189.34,71.09c.03-.14,.09-.48,.18-.8,.21-.72,.45-1.43,.68-2.15,.33-1.04,.31-2.08,.09-3.14-.26-1.21-.7-2.35-1.18-3.49-.37-.88-.72-1.77-1.02-2.68-.55-1.72-.68-3.48-.46-5.27,.14-1.23,.33-2.44,.69-3.62,.08-.26,.17-.52,.29-.77,.12-.25,.31-.46,.63-.46,.36,0,.56,.25,.68,.54,.16,.42,.25,.85,.14,1.3-.09,.36-.19,.73-.27,1.1-.25,1.18-.31,2.37-.32,3.57,0,1.07,.23,2.1,.63,3.09,.23,.57,.47,1.14,.72,1.7,.7,1.6,1.18,3.27,1.46,5,.24,1.49,.08,2.93-.31,4.36-.23,.86-.52,1.7-.81,2.54-.1,.28-.26,.56-.45,.79-.24,.29-.63,.26-.9,0-.33-.32-.47-.76-.46-1.62Z"/><path d="M193.49,76.88c0-1.34,.23-2.65,.64-3.93,.3-.96,.79-1.82,1.45-2.57,.65-.75,1.34-1.47,2.17-2.03,1.08-.72,1.74-1.72,2.12-2.93,.29-.95,.55-1.9,.85-2.85,.1-.32,.23-.65,.41-.93,.27-.4,.74-.41,1.03-.03,.16,.21,.28,.47,.36,.72,.15,.5,.1,1.03-.04,1.52-.34,1.18-.69,2.36-1.07,3.53-.16,.48-.39,.95-.63,1.4-.48,.92-1.13,1.7-1.98,2.32-.55,.4-1.07,.86-1.56,1.32-1.44,1.35-1.95,3.08-1.97,5,0,.17,.04,.34,.02,.51-.03,.27-.06,.54-.14,.8-.14,.46-.47,.78-.75,.74-.38-.06-.59-.34-.7-.68-.1-.33-.17-.66-.21-1-.03-.3,0-.61,0-.92Z"/><path d="M140.64,9.22c-.02,.08-.04,.26-.1,.41-.89,2.44-1.79,4.88-2.67,7.33-.49,1.35-.94,2.72-1.41,4.07-.06,.16-.11,.33-.19,.48-.28,.54-.87,.8-1.37,.62-.54-.19-.88-.72-.77-1.3,.13-.71,.28-1.41,.5-2.09,.55-1.73,1.13-3.44,1.72-5.16,.47-1.36,.96-2.71,1.45-4.06,.13-.35,.27-.71,.47-1.02,.42-.64,1.19-.8,1.8-.4,.37,.24,.57,.59,.56,1.12Z"/><path d="M148.23,13.41c-.04,.43-.24,.77-.56,1.05-.44,.38-.87,.77-1.27,1.19-1,1.04-1.99,2.08-2.95,3.15-.91,1.02-1.77,2.09-2.65,3.14-.18,.21-.34,.44-.54,.62-.44,.41-1.07,.44-1.51,.11-.44-.33-.55-.94-.26-1.48,.16-.3,.38-.57,.56-.86,.81-1.28,1.73-2.46,2.77-3.56,1.21-1.26,2.39-2.54,3.59-3.81,.23-.25,.48-.5,.76-.69,.43-.29,.91-.3,1.36-.06,.46,.25,.67,.66,.68,1.19Z"/><path d="M143.31,26.13c-.21-.07-.45-.11-.66-.22-.44-.23-.63-.61-.58-1.1,.04-.45,.3-.8,.72-.9,1.08-.24,2.02-.81,3.01-1.25,.25-.11,.5-.21,.76-.29,1.05-.32,2.03-.79,2.99-1.31,.21-.11,.42-.22,.65-.3,.58-.2,1.19,.02,1.5,.54,.3,.5,.24,1.07-.18,1.5-.14,.14-.31,.27-.49,.37-1,.51-1.98,1.06-3.05,1.42-.9,.3-1.79,.64-2.68,1-.64,.26-1.29,.42-1.99,.56Z"/><path class="cls-2" d="M33.13,131.36c-.06-.29-.13-.52-.14-.75-.17-2.36-.36-4.71-.47-7.07-.13-2.7-.18-5.41-.03-8.11,.25-4.45,.78-8.87,1.93-13.19,1.05-3.93,2.88-7.45,5.75-10.4,1.22-1.25,2.48-2.46,3.84-3.56,1.8-1.45,3.79-2.58,5.97-3.36,2.03-.73,4-1.6,5.99-2.43,1.95-.82,3.65-2.01,5.16-3.48,1.97-1.92,3.71-4.03,5.12-6.4,.85-1.44,1.73-2.88,2.5-4.37,2.06-3.99,4.86-7.36,8.29-10.22,1.89-1.58,3.84-3.09,5.88-4.48,1.67-1.14,3.44-2.11,5.34-2.82,1.35-.5,2.72-.66,4.14-.45,1.59,.24,3.17,.5,4.76,.77,2.63,.44,5.18,.14,7.67-.76,1.42-.52,2.75-1.23,4.01-2.06,.77-.51,1.53-1.03,2.3-1.55,2.16-1.48,4.54-2.36,7.11-2.77,1.38-.22,2.73-.03,4.05,.38,2.14,.66,3.96,1.85,5.48,3.49,.78,.84,1.36,1.8,1.79,2.86,.42,1.05,.79,2.12,1.21,3.16,.46,1.14,.91,2.29,1.45,3.4,.39,.79,.88,1.55,1.41,2.26,1.66,2.23,3.94,3.44,6.65,3.89,2.25,.37,4.5,.35,6.75,.05,1.97-.26,3.93-.57,5.9-.8,2.41-.28,4.83-.58,7.27-.44,1.6,.09,3.21,.19,4.79,.56,2.79,.66,5.01,2.16,6.61,4.53,1.37,2.03,2.07,4.3,2.34,6.72,.34,3.06,.09,6.08-.34,9.11-.32,2.2-.66,4.4-.76,6.63-.12,2.75,.34,5.39,1.53,7.88,1.08,2.26,2.7,4.04,4.91,5.23,.99,.53,2.04,.97,3.07,1.42,1.04,.45,2.1,.84,3.13,1.28,.92,.39,1.76,.91,2.5,1.59,1.54,1.42,2.93,2.98,4.01,4.79,1.19,2,1.9,4.17,2.29,6.44,.22,1.28,.3,2.58,.39,3.88,.09,1.37,.12,2.74,.17,4.11,.05,1.18-.16,2.31-.57,3.45-.38,0-.72,.02-1.06,.02-7.4,.08-14.8,.15-22.19,.23-8.7,.1-17.4,.22-26.1,.32-4.08,.05-8.15,.04-12.23,.08-9.45,.1-18.91,.23-28.36,.33-4.59,.05-9.18,.04-13.77,.09-8.94,.1-17.88,.22-26.82,.32-3.87,.04-7.74,.04-11.61,.08-5.86,.05-11.71,.12-17.57,.18-.47,0-.95,.03-1.44-.03ZM130.75,63.84c-.02-1.15-1.09-1.65-1.78-1.37-.9,.36-1.59,.94-2,1.81-.1,.21-.15,.46-.16,.69-.05,.78,.45,1.4,1.22,1.53,.47,.08,.89-.09,1.24-.37,.63-.5,1.04-1.17,1.38-1.89,.07-.15,.08-.33,.1-.41Zm50.6,57.23c-.07-.53-.1-.97-.18-1.41-.12-.64-.51-1.01-1.07-1.07-.63-.07-1.13,.21-1.38,.83-.16,.41-.3,.84-.38,1.27-.1,.5-.11,1.02,.08,1.52,.24,.62,.69,.96,1.31,.97,.66,.01,1.19-.33,1.4-.98,.12-.38,.16-.8,.22-1.13Zm5.09,1.26c.07,.16,.16,.49,.33,.77,.18,.28,.45,.51,.68,.76,.48,.53,1.14,.61,1.78,.64,.49,.02,.91-.26,1.14-.73,.28-.56,.18-1.1-.23-1.52-.47-.49-.99-.93-1.54-1.34-.45-.33-.96-.31-1.45-.02-.48,.28-.73,.7-.73,1.44Zm-132.09,3.11c.2-.03,.41-.03,.61-.08,1-.26,1.43-1.3,.88-2.18-.26-.41-.61-.77-1.1-.86-.6-.12-1.22-.22-1.82-.21-.9,.02-1.47,1.03-.99,1.8,.55,.87,1.36,1.43,2.43,1.54Zm74.15-53.68c0-.55-.21-.92-.61-1.18-.44-.29-.91-.32-1.35-.02-.66,.45-1.18,1.04-1.49,1.78-.11,.27-.15,.6-.13,.9,.04,.58,.32,1.02,.9,1.25,.55,.22,1.02,.07,1.42-.28,.75-.66,1.05-1.56,1.25-2.44Zm6.27-2.99c.09-.96-.31-1.57-1-1.82-.6-.21-1.35,.05-1.66,.67-.32,.64-.56,1.33-.59,2.06-.05,.91,.67,1.55,1.57,1.48,.62-.05,1.03-.4,1.24-.94,.21-.54,.34-1.11,.44-1.45Zm45.37,40.61c0-.54-.23-1.54-.47-1.98-.17-.32-.42-.56-.76-.65-.56-.15-1.09-.06-1.53,.35-.44,.41-.58,.92-.39,1.49,.15,.45,.3,.91,.48,1.35,.29,.68,.87,.98,1.57,.85,.65-.12,1.08-.68,1.09-1.41Zm2.87,3.84c.03,.27,.03,.55,.09,.8,.17,.65,.68,1.07,1.31,1.1,.7,.03,1.25-.33,1.47-1.02,.09-.29,.15-.6,.13-.9-.03-.44-.1-.88-.22-1.3-.16-.53-.52-.86-1.11-.91-.56-.04-.99,.17-1.28,.66-.28,.48-.43,1-.39,1.57Zm-40.11-45.13c0-.53-.25-.92-.7-1.17-.23-.13-.51-.21-.77-.25-.47-.06-.95-.08-1.43-.09-.53-.01-.94,.23-1.15,.71-.22,.51-.17,1.01,.23,1.42,.24,.24,.5,.47,.78,.66,.44,.29,.93,.42,1.46,.36,.8-.1,1.57-.9,1.57-1.64ZM46.93,116.58c-.77-.11-1.79,1.03-1.8,1.66,0,.07,0,.14,.01,.2,.18,1.16,1.86,1.91,2.81,1.24,.19-.13,.36-.32,.47-.52,.54-1-.36-2.54-1.49-2.58Zm.19,7.66c-.05-.13-.11-.46-.31-.66-.33-.33-.71-.63-1.13-.84-.63-.31-1.32-.07-1.69,.49-.36,.54-.29,1.32,.21,1.76,.33,.29,.7,.55,1.1,.71,.91,.36,1.83-.32,1.81-1.46Zm-10.39,.11c.06,.98,.42,1.47,1.34,1.87,.48,.21,.94,.14,1.33-.21,.42-.38,.56-.87,.33-1.39-.17-.4-.41-.78-.68-1.12-.41-.5-.93-.61-1.46-.41-.58,.23-.81,.69-.86,1.26Zm4.02-5.84c0-.63-.23-1.13-.81-1.42-.55-.28-1.5-.15-1.92,.26-.14,.14-.27,.32-.33,.51-.33,.97,.8,2.3,1.82,2.16,.1-.01,.2-.04,.29-.08,.61-.23,.94-.74,.94-1.43Z"/><path class="cls-3" d="M95.47,29.29c.22-.09,.4-.19,.59-.24,2.21-.6,4.41-1.25,6.64-1.77,1.66-.39,3.35-.66,5.04-.94,1.28-.22,2.57-.41,3.86-.54,2.04-.2,4.09-.37,6.14-.48,1.89-.09,3.75,.22,5.62,.49,4.07,.58,7.85,2.07,11.59,3.7,2.04,.89,4.05,1.84,5.94,3.02,.9,.56,1.79,1.15,2.63,1.79,2.16,1.63,4.25,3.35,6.18,5.25,1.24,1.23,2.52,2.43,3.72,3.69,.82,.87,1.55,1.83,2.3,2.76,2.42,3,4.42,6.26,6.17,9.68,.4,.79,.7,1.63,1.02,2.46,.1,.25,.13,.53,.18,.8,.02,.12,.01,.25,.02,.43-.25,0-.45,.02-.65,0-2.29-.24-4.58-.21-6.87,0-2.76,.24-5.5,.65-8.24,1.05-1.6,.23-3.2,.32-4.81,.24-.99-.05-1.98-.19-2.93-.47-1.48-.44-2.72-1.27-3.66-2.52-.7-.94-1.27-1.95-1.7-3.03-.42-1.05-.81-2.11-1.21-3.16-.21-.54-.41-1.09-.62-1.63-1.5-3.78-4.28-6.29-7.94-7.88-1.98-.86-4.06-1.21-6.21-1.01-.71,.07-1.42,.22-2.12,.38-2.45,.58-4.73,1.57-6.81,3.01-.79,.55-1.58,1.08-2.38,1.61-1.12,.74-2.31,1.33-3.59,1.75-2.13,.69-4.29,.8-6.49,.36-1.27-.25-2.55-.5-3.84-.67-2.03-.26-4.03-.16-5.95,.65-.85,.36-1.69,.72-2.53,1.07-.18-.12-.08-.25-.03-.36,.65-1.27,.89-2.65,1.01-4.06,.04-.51,.09-1.03,.19-1.53,.23-1.15,.78-2.13,1.79-2.77,.66-.42,1.37-.76,2.08-1.1,.65-.31,1.33-.55,1.98-.84,1.1-.49,2.08-1.18,2.98-1.98,1.21-1.08,1.82-2.46,2.03-4.04,.1-.78-.1-1.49-.5-2.16-.19-.32-.39-.64-.62-.99Z"/><path class="cls-6" d="M169.06,61.06l2.76-2.54c.16,.18,.33,.31,.41,.48,.44,.96,.88,1.93,1.29,2.9,.57,1.35,1.12,2.72,1.69,4.08,.13,.31,.3,.62,.46,.92,.84,1.57,1.97,2.87,3.43,3.9,1.15,.81,2.27,1.65,3.37,2.52,2.18,1.72,3.91,3.82,5.26,6.25,1.1,1.98,2,4.05,2.84,6.15,.54,1.37,1.09,2.73,1.65,4.1,.83,2.03,1.78,4,2.85,5.92,2.34,4.18,4.73,8.34,7.44,12.3,.45,.65,.9,1.29,1.34,1.94,.19,.28,.35,.57,.57,.94-.2,.06-.31,.12-.43,.12-2.95,0-5.89-.03-8.84-.04-.07,0-.13-.03-.25-.07-.11-.16-.26-.34-.38-.54-1.21-2.02-2.74-3.76-4.45-5.36-.88-.82-1.88-1.48-2.97-2-.03-.01-.06-.03-.1-.04-.68-.18-1.09-.98-1.92-.83-.64-.25-1.28-.49-1.91-.76-.75-.32-1.51-.65-2.24-1.02-1.94-.99-3.3-2.52-4.14-4.52-.67-1.59-1.02-3.26-1.04-4.99-.03-2.03,.25-4.03,.55-6.03,.45-3.02,.83-6.04,.7-9.1-.09-2.09-.33-4.16-1.02-6.16-1.19-3.45-3.18-6.27-6.38-8.15-.14-.08-.28-.18-.54-.36Zm24.47,44.19c.08,.67,.16,1.25,.65,1.66,.24,.2,.51,.23,.76,.08,.33-.2,.61-.46,.73-.83,.36-1.05,.08-2-.79-2.77-.24-.21-.53-.19-.74,.04-.16,.17-.32,.38-.38,.6-.12,.43-.17,.87-.23,1.22Zm-2.45-11.09c-.06-.59-.17-1.04-.4-1.39-.33-.5-.75-.55-1.2-.16-.73,.65-.89,2.09-.32,2.92,.27,.39,.64,.5,1.06,.26,.2-.12,.41-.29,.5-.48,.17-.36,.25-.76,.37-1.15Zm-10.76,1.73c-.02,.69,.06,1.11,.39,1.45,.18,.19,.42,.23,.65,.13,.96-.45,1.42-1.97,.88-2.9-.05-.09-.11-.17-.18-.24-.39-.42-.88-.4-1.2,.07-.35,.51-.51,1.1-.53,1.49Z"/><path class="cls-3" d="M57.76,78.04c-1.12,.97-2.44,1.59-3.84,2.13-.7-.5-1.35-1.06-1.98-1.63-3.75-3.41-6.59-7.49-8.71-12.08-1.79-3.88-2.96-7.94-3.57-12.17-.47-3.24-.56-6.48-.32-9.73,.22-3.05,.79-6.04,1.75-8.94,.12-.36,.24-.72,.3-1.09,.11-.72-.19-1.17-.87-1.43-.1-.04-.19-.08-.29-.1-1.52-.31-2.63-1.24-3.62-2.37-1.11-1.26-1.79-2.74-2.22-4.35-.27-.99-.47-2-.46-3.04,0-.49,.09-.95,.32-1.38,.52-.98,1.17-1.35,2.39-.99,1.06,.31,1.89,.99,2.41,1.96,.52,.96,.96,1.96,1.06,3.08,.06,.67,.48,1.07,1.12,1.12,.59,.05,1.17-.33,1.36-.88,.13-.37,.12-.75,0-1.11-.19-.62-.4-1.24-.61-1.85-.11-.32-.2-.62-.14-.99,.1-.57,.1-1.16,.1-1.74,0-1.14,.19-2.25,.46-3.35,.15-.63,.41-1.23,.76-1.78,.46-.7,1.12-1.1,1.91-1.28,.71-.16,1.36,.03,1.91,.5,.96,.82,1.47,1.88,1.59,3.12,.13,1.25-.1,2.46-.58,3.61-.38,.92-.81,1.81-1.2,2.72-.11,.25-.23,.5-.29,.76-.16,.68,.16,1.28,.76,1.5,.56,.2,1.14-.01,1.51-.56,.09-.14,.17-.3,.24-.45,.4-.87,.81-1.73,1.19-2.62,.18-.42,.38-.79,.8-1.02,.27-.15,.48-.39,.73-.56,.57-.39,1.19-.67,1.89-.73,.52-.04,.94,.14,1.25,.55,.6,.78,.96,1.66,1.07,2.63,.2,1.77-.36,3.31-1.52,4.64-.39,.45-.87,.79-1.41,1-.98,.39-1.95,.82-3.04,.8-.17,0-.34,.05-.5,.11-.52,.21-.85,.76-.8,1.31,.05,.56,.45,1.06,1.02,1.13,.43,.05,.9,.06,1.32-.05,1.25-.34,2.51-.64,3.65-1.32,.76-.46,1.65-.39,2.5-.25,.19,.03,.38,.17,.51,.31,.74,.81,1.28,2.17,.24,3.44-.65,.8-1.47,1.32-2.46,1.57-1.21,.31-2.44,.29-3.67,.13-1.26-.16-2.5-.4-3.66-.94-.68-.32-1.41-.26-2.11-.28-.53-.02-.89,.33-1.09,.81-.09,.22-.15,.45-.2,.69-.38,1.74-.7,3.49-.92,5.25-.3,2.52-.45,5.05-.35,7.58,.26,6.37,1.54,12.48,4.51,18.18,1.21,2.32,2.69,4.45,4.51,6.33,1.37,1.41,2.88,2.63,4.6,3.58,.21,.12,.4,.25,.6,.38,.03,.02,.04,.06,.08,.12Z"/><path class="cls-3" d="M179.2,10.59c.13-.22,.3-.45,.4-.7,.17-.44,.49-.74,.83-1.03,1.21-1.02,3.05-1.03,4.16,.68,.48,.74,.64,1.59,.58,2.46-.08,1.11-.39,2.16-1.03,3.08-.53,.76-1.11,1.47-1.68,2.21-.17,.22-.36,.42-.5,.65-.31,.53-.23,1.08,.2,1.5,.37,.37,1.05,.45,1.52,.16,.2-.12,.38-.29,.54-.47,.82-.92,1.61-1.87,2.22-2.95,.25-.44,.52-.81,1.02-.93,.61-.14,1.21-.16,1.8,.14,.84,.42,1.31,1.07,1.4,2,.06,.66-.02,1.3-.19,1.93-.58,2.1-1.91,3.61-3.75,4.68-1.31,.76-2.75,1.21-4.24,1.47-.3,.05-.61,.02-.92,.04-.89,.05-1.35,.57-1.3,1.48,.01,.27,.05,.55,.09,.82,.62,4.59,.16,9.09-1.19,13.5-2.18,7.09-6.12,13.03-11.8,17.81-.28,.24-.59,.46-.93,.72-.11-.26-.2-.44-.26-.63-.29-.9-.58-1.81-.85-2.69,.08-.09,.12-.15,.18-.19,2.38-1.4,4.23-3.35,5.79-5.6,2.38-3.42,3.94-7.19,4.92-11.22,.76-3.12,1.07-6.27,.83-9.48-.04-.58-.11-1.16-.21-1.73-.18-1.01-.82-1.43-1.78-1.11-.38,.12-.73,.15-1.1,.11-.88-.1-1.76-.21-2.62-.46-3.11-.89-5.06-2.99-6.25-5.91-.25-.63-.26-1.27-.16-1.92,.12-.75,.61-1.23,1.35-1.34,.62-.09,1.25-.08,1.8,.23,.5,.28,1,.59,1.45,.96,.74,.61,1.38,1.33,1.92,2.13,.2,.29,.43,.52,.8,.6,1.04,.21,1.84-.67,1.5-1.68-.07-.22-.21-.43-.36-.61-.82-1.01-1.65-2.02-2.72-2.78-.4-.28-.58-.62-.6-1.11-.07-1.61-.07-3.22,.4-4.79,.2-.66,.44-1.3,.83-1.87,.76-1.08,1.78-1.34,2.96-.75,.76,.38,1.34,.94,1.75,1.68,.93,1.68,1.19,3.48,.98,5.37-.03,.23-.15,.45-.25,.67-.35,.83-.08,1.51,.72,1.85,.68,.28,1.46-.05,1.77-.79,.13-.31,.23-.66,.25-.99,.06-.89,.12-1.78,.08-2.67-.04-.82-.2-1.62-.32-2.53Z"/><path class="cls-5" d="M61.77,68.85c.22-1.85,.48-3.61,.94-5.33,.98-3.64,2.14-7.22,3.69-10.66,1.27-2.83,2.95-5.4,4.9-7.8,2.04-2.5,4.16-4.92,6.68-6.95,4.25-3.42,8.86-6.19,14.12-7.78,.2-.06,.39-.12,.59-.17,.06-.02,.13-.01,.22-.02,.07,.05,.17,.09,.23,.16,.44,.48,.91,.97,.9,1.68-.01,.88-.3,1.68-.92,2.33-.76,.81-1.65,1.43-2.67,1.88-.66,.29-1.33,.54-1.98,.84-.65,.3-1.31,.6-1.92,.97-2.1,1.24-3.2,3.12-3.46,5.52-.07,.61-.13,1.23-.19,1.84-.13,1.18-.52,2.26-1.28,3.2-.24,.29-.46,.59-.7,.88-.58,.69-1.02,1.46-1.22,2.35-.09,.39-.31,.65-.62,.9-1.61,1.27-3.24,2.53-4.8,3.86-2.78,2.37-5.11,5.14-6.99,8.29-.22,.37-.48,.64-.86,.85-1.33,.73-2.54,1.61-3.68,2.61-.25,.22-.5,.46-.99,.55Z"/><path class="cls-4" d="M62.48,55.73c-.37,1.13-.7,2.18-1.06,3.21-1.08,3.08-1.75,6.25-2.18,9.48-.27,2.01-.38,4.02-.37,6.04,0,.3,0,.61,0,1-.27-.09-.47-.12-.63-.21-1.63-.91-3.04-2.1-4.3-3.47-1.57-1.7-2.82-3.61-3.89-5.65-.22-.42-.24-.81-.13-1.27,.45-1.84,1.11-3.59,2.13-5.2,.76-1.2,1.71-2.22,2.89-3.03,1.24-.85,2.61-1.34,4.13-1.38,1-.03,1.99-.02,2.95,.25,.12,.04,.24,.11,.45,.21Z"/><path class="cls-4" d="M47.99,78.29l3.17,3c-.13,.08-.21,.14-.3,.18-1.33,.52-2.65,1.03-3.98,1.54-.02,0-.05-.03-.13-.07l1.25-4.65Z"/><path class="cls-3" d="M61.47,74.13v-1.27c.69-.55,1.19-1.33,2.07-1.77-.25,.87-1.16,2.2-2.07,3.04Z"/><path class="cls-1" d="M205.35,81.16c.22-.41,.47-.57,.76-.68,.21-.08,.52,0,.63,.2,.24,.4,.34,.81,.11,1.26-.19,.35-.57,.43-.83,.13-.24-.28-.44-.59-.67-.91Z"/><path class="cls-1" d="M202.22,81.56c-.28,.43-.53,.88-.83,1.29-.19,.26-.55,.18-.64-.12-.14-.45,.03-.82,.34-1.11,.27-.25,.58-.51,1-.27,.03,.01,.04,.05,.14,.21Z"/><path d="M130.75,63.84c-.02,.09-.03,.26-.1,.41-.34,.72-.75,1.39-1.38,1.89-.36,.28-.77,.45-1.24,.37-.77-.13-1.27-.75-1.22-1.53,.01-.23,.06-.48,.16-.69,.41-.88,1.1-1.45,2-1.81,.69-.28,1.77,.21,1.78,1.37Z"/><path d="M181.35,121.07c-.06,.33-.1,.74-.22,1.13-.21,.65-.74,1-1.4,.98-.62-.01-1.07-.35-1.31-.97-.19-.5-.18-1.01-.08-1.52,.09-.43,.22-.86,.38-1.27,.24-.62,.75-.9,1.38-.83,.56,.07,.95,.43,1.07,1.07,.08,.44,.11,.88,.18,1.41Z"/><path d="M186.44,122.33c0-.74,.24-1.16,.73-1.44,.49-.28,1-.31,1.45,.02,.54,.41,1.07,.85,1.54,1.34,.4,.42,.51,.96,.23,1.52-.24,.47-.65,.76-1.14,.73-.64-.03-1.3-.11-1.78-.64-.23-.25-.5-.48-.68-.76-.18-.28-.27-.61-.33-.77Z"/><path d="M54.35,125.45c-1.07-.11-1.88-.67-2.43-1.54-.48-.76,.09-1.78,.99-1.8,.61-.01,1.22,.09,1.82,.21,.49,.1,.84,.45,1.1,.86,.55,.87,.12,1.92-.88,2.18-.2,.05-.41,.06-.61,.08Z"/><path d="M128.5,71.77c-.2,.88-.5,1.78-1.25,2.44-.4,.35-.88,.5-1.42,.28-.57-.23-.86-.67-.9-1.25-.02-.3,.02-.63,.13-.9,.3-.74,.83-1.33,1.49-1.78,.44-.3,.91-.26,1.35,.02,.4,.26,.61,.63,.61,1.18Z"/><path d="M134.77,68.77c-.1,.34-.23,.91-.44,1.45-.21,.54-.62,.89-1.24,.94-.91,.07-1.62-.57-1.57-1.48,.04-.72,.28-1.41,.59-2.06,.31-.62,1.05-.88,1.66-.67,.7,.25,1.09,.86,1,1.82Z"/><path d="M180.14,109.39c0,.73-.44,1.3-1.09,1.41-.7,.13-1.28-.18-1.57-.85-.19-.44-.34-.89-.48-1.35-.19-.58-.05-1.08,.39-1.49,.43-.41,.97-.5,1.53-.35,.34,.09,.59,.33,.76,.65,.24,.45,.48,1.44,.47,1.98Z"/><path d="M183.01,113.23c-.04-.57,.12-1.08,.39-1.57,.28-.5,.71-.71,1.28-.66,.58,.05,.95,.38,1.11,.91,.12,.42,.2,.87,.22,1.3,.02,.3-.04,.61-.13,.9-.22,.69-.76,1.06-1.47,1.02-.62-.03-1.14-.45-1.31-1.1-.07-.26-.07-.54-.09-.8Z"/><path d="M142.9,68.09c0,.74-.77,1.54-1.57,1.64-.53,.07-1.02-.06-1.46-.36-.28-.19-.54-.42-.78-.66-.4-.41-.46-.92-.23-1.42,.21-.48,.62-.72,1.15-.71,.48,0,.96,.03,1.43,.09,.27,.03,.54,.12,.77,.25,.44,.25,.69,.64,.7,1.17Z"/><path d="M46.93,116.58c1.13,.04,2.03,1.58,1.49,2.58-.11,.2-.28,.39-.47,.52-.95,.67-2.63-.08-2.81-1.24-.01-.07-.01-.13-.01-.2,0-.64,1.03-1.78,1.8-1.66Z"/><path d="M47.12,124.24c.02,1.14-.91,1.83-1.81,1.46-.4-.16-.78-.42-1.1-.71-.51-.45-.57-1.23-.21-1.76,.37-.56,1.07-.8,1.69-.49,.41,.21,.8,.51,1.13,.84,.2,.2,.25,.53,.31,.66Z"/><path d="M193.53,105.25c.06-.35,.11-.8,.23-1.22,.06-.22,.22-.42,.38-.6,.21-.23,.5-.24,.74-.04,.88,.77,1.15,1.72,.79,2.77-.13,.37-.41,.63-.73,.83-.24,.15-.52,.12-.76-.08-.49-.41-.57-.99-.65-1.66Z"/><path d="M191.09,94.17c-.12,.39-.2,.79-.37,1.15-.09,.2-.3,.37-.5,.48-.41,.24-.79,.13-1.06-.26-.57-.83-.41-2.27,.32-2.92,.44-.39,.87-.34,1.2,.16,.23,.35,.34,.8,.4,1.39Z"/><path d="M180.32,95.9c.03-.39,.18-.98,.53-1.49,.32-.47,.81-.48,1.2-.07,.07,.07,.13,.16,.18,.24,.55,.93,.08,2.45-.88,2.9-.23,.11-.47,.06-.65-.13-.33-.34-.41-.77-.39-1.45Z"/><path d="M23.36,98.42c.69,0,1.19,.38,1.31,1,.06,.29,.06,.62,0,.91-.09,.39-.25,.77-.42,1.14-.19,.42-.49,.74-1.01,.73-.51-.01-.8-.32-1.01-.74-.39-.79-.2-2.05,.39-2.68,.22-.23,.49-.36,.73-.36Z"/><path d="M25.68,109.42c-.08,.32-.14,.76-.31,1.17-.29,.7-.93,.82-1.49,.33-.69-.61-.94-1.69-.55-2.53,.08-.18,.2-.36,.35-.5,.45-.45,1-.44,1.44,0,.38,.39,.49,.88,.56,1.52Z"/><path d="M30.76,97.92c-.02,.84-.2,1.42-.63,1.89-.39,.42-.94,.43-1.35,.02-.36-.36-.5-.81-.49-1.3,.01-.63,.24-1.19,.69-1.65,.53-.54,1.26-.43,1.58,.26,.14,.3,.17,.65,.2,.77Z"/><path d="M20.83,116.35c.07-.24,.11-.52,.23-.75,.3-.58,.87-.86,1.51-.3,.69,.61,.89,1.72,.42,2.52-.41,.71-1.18,.76-1.67,.11-.34-.46-.38-1.01-.5-1.58Z"/><path d="M20.05,110.65c-.05,.21-.09,.59-.24,.91-.25,.53-.82,.63-1.28,.3-.78-.56-1.05-1.85-.55-2.65,.07-.11,.16-.22,.26-.31,.4-.37,.89-.39,1.26,.01,.22,.24,.36,.56,.48,.87,.08,.21,.05,.47,.08,.87Z"/><path d="M16.28,115.74c-.02-.43,0-.83,.27-1.18,.36-.48,.89-.52,1.31-.11,.53,.53,.74,1.82,.4,2.49-.36,.72-1.16,.78-1.65,.14-.31-.4-.36-.87-.33-1.34Z"/></svg>