<?xml version="1.0" encoding="UTF-8"?>
<svg id="Layer_2" data-name="Layer 2" xmlns="http://www.w3.org/2000/svg" viewBox="0 0 137.41 122.68">
  <defs>
    <style>
      .cls-1 {
        fill: #010301;
      }

      .cls-2 {
        fill: #010101;
      }

      .cls-3 {
        fill: #010201;
      }

      .cls-4 {
        fill: #020201;
      }

      .cls-5 {
        fill: #fefefe;
      }

      .cls-6 {
        fill: #83c7ee;
      }

      .cls-7 {
        fill: #83c7ed;
      }

      .cls-8 {
        fill: #8d5e3a;
      }

      .cls-9 {
        fill: #a5a1a1;
      }

      .cls-10 {
        fill: #cc9659;
      }

      .cls-11 {
        fill: #dd6026;
      }

      .cls-12 {
        fill: #245b2d;
      }

      .cls-13 {
        fill: #235b2d;
      }

      .cls-14 {
        fill: #235a2d;
      }

      .cls-15 {
        fill: #244927;
      }

      .cls-16 {
        fill: #224425;
      }

      .cls-17 {
        fill: #208542;
      }

      .cls-18 {
        fill: #7fba42;
      }

      .cls-19 {
        fill: #638d3d;
      }

      .cls-20 {
        fill: #487135;
      }

      .cls-21 {
        fill: #39a648;
      }

      .cls-22 {
        fill: #2e2e2d;
      }

      .cls-23 {
        fill: #78ab4f;
      }

      .cls-24 {
        fill: #77aa4f;
      }
    </style>
  </defs>
  <g id="Layer_1-2" data-name="Layer 1">
    <g>
      <path d="M122.04,36.13c.48-.61,.95-1.23,1.45-1.81,1.52-1.76,3.3-3.19,5.33-4.32,2.11-1.17,4.34-2.05,6.66-2.71,.27-.08,.54-.13,.82-.12,.88,.04,1.37,.86,.97,1.66-.11,.22-.27,.42-.43,.61-3.48,3.9-6.3,8.28-9.09,12.68-.58,.91-1.09,1.87-1.63,2.8-.42,.72-.85,1.43-1.36,2.09-.05,.06-.07,.14-.13,.27,.46,.07,.89,.13,1.32,.19,.57,.08,1.15,.17,1.68,.42,.43,.2,.63,.53,.59,1-.02,.22-.06,.44-.11,.65-.54,2.06-1.07,4.12-1.63,6.18-.47,1.74-.81,3.5-1.18,5.26-.05,.26-.02,.34,.24,.43,.39,.14,.77,.3,1.13,.51,1.51,.9,2.49,2.16,2.77,3.93,.13,.86,.11,1.71,.04,2.57-.03,.39-.08,.77-.16,1.15-.31,1.51-1.01,2.8-2.08,3.9-1.19,1.22-2.56,2.19-4.1,2.93-.2,.1-.4,.2-.6,.29-.14,.06-.21,.17-.23,.32-.02,.14-.05,.27-.06,.41-.04,1.31-.38,2.57-.6,3.85-.29,1.72-.63,3.43-.93,5.15-.1,.55-.3,1.06-.48,1.58-.16,.46-.62,.69-1.14,.62-.57-.08-1.15-.18-1.72-.29-2.45-.44-4.9-.87-7.35-1.31-2.31-.42-4.62-.85-6.93-1.26-2.01-.36-4.03-.7-6.04-1.06-1.69-.3-3.37-.61-5.06-.92-.41-.07-.83-.23-1.22-.18-.36,.05-.69,.33-1.03,.52-1.4,.77-2.84,1.49-4.32,2.1-.37,.15-.65,.37-.83,.75-1.33,2.8-2.64,5.6-3.67,8.53-.05,.13-.09,.26-.14,.39-.09,.21,0,.34,.14,.5,.46,.54,1.02,.93,1.65,1.24,1.35,.66,2.75,1.14,4.23,1.4,1.99,.35,3.96,.76,5.92,1.22,.7,.17,1.41,.28,2.11,.45,1.32,.31,2.36,1.07,3.18,2.13,.53,.69,.73,1.47,.65,2.34-.14,1.39-.48,2.72-1.07,3.99-.66,1.4-1.36,2.78-2.17,4.11-.48,.78-1.02,1.52-1.65,2.19-1.05,1.12-2.37,1.68-3.87,1.87-.94,.12-1.88,.09-2.8-.15-1.55-.39-2.46-1.4-2.82-2.94-.33-1.45-.16-2.86,.42-4.22,.13-.3,.28-.6,.45-.95-2.93-.87-5.85-1.68-8.74-2.53-.21,.11-.23,.32-.29,.5-.43,1.26-.96,2.47-1.52,3.68-.55,1.18-1.1,2.35-1.61,3.55-.54,1.28-1.15,2.52-1.89,3.69-.62,.98-1.27,1.95-1.92,2.91-.76,1.14-1.85,1.65-3.2,1.79-.97,.11-1.86-.07-2.76-.35-3.62-1.1-6.67-3.06-9.1-5.96-.7-.83-1.26-1.75-1.65-2.77-.27-.7-.46-1.42-.45-2.18,.03-1.65,.77-2.86,2.25-3.58,1.23-.6,2.54-.72,3.89-.57,1.52,.17,2.97,.61,4.38,1.19,.18-.11,.24-.3,.32-.47,1.27-2.76,2.54-5.53,3.82-8.29,.05-.1,.1-.2,.14-.3,.05-.13,.08-.27-.02-.39-.25-.31-.32-.7-.47-1.06-.2-.49-.38-.98-.6-1.46-.91-2.02-1.73-4.07-2.13-6.27-.01-.05-.04-.11-.04-.16-.02-.24-.15-.31-.38-.33-2.21-.18-4.38-.59-6.53-1.13-4.6-1.15-8.89-3.02-12.86-5.61-.46-.3-.86-.39-1.37-.25-1.35,.36-2.74,.4-4.12,.47-1.55,.07-3.09,.27-4.65,.2-.3-.01-.61-.03-.91-.02-.22,0-.43-.25-.63-.08-.14,.12-.18,.34-.27,.51-.85,1.64-2.19,2.76-3.82,3.56-1.23,.6-2.56,.92-3.92,.97-1.67,.06-3.23-.36-4.61-1.36-1.08-.79-1.74-1.82-1.93-3.17-.15-1.05-.17-2.1-.2-3.15-.03-1.01,.27-1.97,.49-2.94,.12-.51,.25-1.02,.37-1.53,.05-.21,.02-.36-.17-.5-.9-.65-1.78-1.32-2.57-2.11-.21-.21-.46-.19-.69-.15-.6,.12-1.21,.14-1.82,.13-.62-.01-1.21-.13-1.78-.35-1.92-.76-2.5-2.54-2.34-3.98,.08-.7,.28-1.35,.64-1.96,.05-.09,.1-.19,.14-.26-.08-.17-.22-.21-.34-.27-.35-.17-.7-.33-1.02-.54-2.35-1.57-2.6-4.81-.52-6.73,.17-.16,.22-.26,.11-.48-.64-1.26-.49-2.52,.11-3.75,.14-.29,.15-.48-.06-.73-.61-.74-1.03-1.58-1.19-2.53-.23-1.33-.07-2.59,.68-3.74,.25-.37,.55-.69,.9-.97,.48-.37,.49-.38,.3-.9-.27-.74-.36-1.51-.3-2.29,.04-.58,.2-1.14,.44-1.68,.52-1.15,1.82-2.13,3.61-1.99,.13,.01,.27,.08,.46-.02,.15-1,.37-2.03,1.14-2.82,.76-.78,1.69-1.24,2.76-1.4,1.08-.17,2.07,.13,2.96,.73,.27-.2,.32-.49,.46-.72,.5-.82,1.14-1.5,2.03-1.9,1.06-.48,2.13-.52,3.22-.09,.2,.08,.38,.23,.63,.24,.49-1.67,1.05-3.32,1.7-4.93,5.08-12.58,15.82-23.19,30.19-27.54,2.09-.63,4.22-1.08,6.38-1.42,3.16-.5,6.35-.61,9.53-.42,4.33,.27,8.54,1.16,12.6,2.71,8.09,3.08,14.67,8.12,19.72,15.15,.11,.16,.23,.31,.35,.46,.26-.08,.38-.32,.57-.47,.32-.27,.67-.5,1.08-.58,.94-.19,1.69,.11,2.25,.89,.38,.53,.58,1.14,.67,1.77,.14,.94,.11,1.88-.08,2.81-.04,.21-.13,.42-.04,.64,.34-.07,.49-.34,.64-.6,.55-.9,1-1.85,1.31-2.86,.46-1.48,.88-2.97,1.34-4.45,.39-1.27,.83-2.52,1.21-3.79,.25-.82,.41-1.66,.63-2.49,.07-.27,.16-.53,.28-.78,.22-.42,.58-.67,1.08-.63,.48,.04,.83,.34,.97,.88,.06,.24,.1,.49,.12,.74,.02,.19,.01,.39,.02,.58,.09,3.3,.18,6.59,.27,9.89,0,.11,.03,.21,.04,.32,.07-.01,.15,0,.17-.03,1.72-2.42,3.97-4.23,6.54-5.66,.84-.47,1.72-.88,2.62-1.25,.26-.11,.52-.18,.8-.17,.74,.03,1.19,.75,.89,1.42-.07,.15-.16,.3-.27,.41-2.61,2.5-3.96,5.69-4.95,9.08-.57,1.97-.98,3.98-1.41,5.97-.41,1.89-.82,3.78-1.35,5.65-.02,.08-.03,.16-.04,.25-.04,.15-.03,.27,.18,.18Z"/>
      <path class="cls-2" d="M22.57,12.7c-.03,.11-.07,.29-.11,.48-.87,3.51-1.73,7.03-2.6,10.54-.42,1.69-.84,3.38-1.26,5.07-.05,.21-.11,.43-.2,.63-.22,.45-.73,.67-1.18,.54-.46-.13-.78-.59-.74-1.08,.01-.16,.07-.32,.11-.48,.92-3.73,1.84-7.46,2.76-11.18,.36-1.47,.73-2.95,1.1-4.42,.05-.21,.11-.43,.2-.63,.2-.42,.69-.66,1.1-.55,.49,.12,.82,.53,.83,1.1Z"/>
      <path class="cls-2" d="M8.79,18.79c.39,0,.7,.17,.89,.51,.11,.19,.18,.4,.25,.61,1.08,3.33,2.15,6.67,3.23,10,.08,.24,.15,.47,.16,.72,0,.45-.25,.84-.63,.98-.47,.16-.97,0-1.23-.43-.09-.14-.14-.3-.19-.46-1.13-3.46-2.25-6.93-3.38-10.39-.06-.19-.11-.37-.1-.57,.01-.57,.44-.99,1.01-.99Z"/>
      <path class="cls-4" d="M1,26c.21-.02,.42,.04,.6,.19,.17,.14,.33,.29,.48,.45,2.11,2.27,4.22,4.54,6.33,6.81,.19,.2,.38,.41,.52,.64,.25,.42,.17,.88-.18,1.21-.35,.34-.8,.4-1.22,.14-.16-.1-.31-.24-.44-.38-2.23-2.39-4.45-4.78-6.67-7.18-.13-.14-.25-.3-.33-.47-.32-.65,.15-1.4,.89-1.42Z"/>
      <path class="cls-9" d="M122.04,36.13c-.05,.09-.09,.19-.15,.27-.02,.03-.11,.05-.13,.04-.03-.03-.05-.09-.05-.14,0-.14,.03-.26,.15-.35,.06,.06,.12,.12,.18,.18Z"/>
      <path class="cls-6" d="M105.16,29.28c-.61,.04-1.23,.12-1.85,.3-1.57,.46-2.81,1.41-3.82,2.67-.94,1.16-1.56,2.48-1.88,3.93-.08,.36-.09,.36-.42,.34-.91-.07-1.81-.21-2.72-.32-.74-.09-1.48-.21-2.23-.08-.93,.16-1.35,.66-1.26,1.61,.05,.58,.16,1.15,.26,1.72,.11,.66,.11,.65-.43,1-1.18,.77-2.36,1.55-3.54,2.32-.32,.21-.52,.49-.56,.87-.07,.77-.16,1.54-.21,2.32-.16,2.27-.31,4.53-.46,6.8-.08,1.13-.15,2.27-.22,3.4-.06,.88-.12,1.77-.17,2.65-.01,.21-.12,.29-.32,.29-.47,0-.94-.03-1.41,0-2.84,.14-5.51,.83-7.94,2.36-1.11,.7-2.06,1.59-2.82,2.67-1.11,1.59-1.48,3.32-1,5.21,.09,.38,.19,.75,.29,1.13,.25,.96,0,1.76-.81,2.34-.45,.32-.92,.62-1.4,.9-.5,.29-1.01,.57-1.47,.93-.51,.39-.96,.84-1.29,1.4-.77,1.31-.61,2.88,.42,4,.84,.91,1.91,1.39,3.09,1.66,1.37,.32,2.75,.25,4.13,.09,.8-.09,1.59-.18,2.39-.25,1.21-.1,2.37,.14,3.5,.55,.44,.16,.88,.33,1.33,.47,1.12,.35,2.25,.55,3.43,.33,.49-.09,.99-.1,1.49,.03,.04,.17-.09,.23-.21,.29-2.05,1.03-4.18,1.88-6.36,2.59-.1,.03-.21,.06-.32,.07-1.34,.17-2.69,.31-4.03,.53-1.12,.18-2.25,.28-3.38,.38-.71,.06-1.42,.23-2.13,.33-1.34,.2-2.69,.38-4.04,.44-.25,.01-.5,.03-.75,.05-1.08,.11-2.15,.1-3.23-.01-2.18-.23-4.32-.64-6.43-1.22-6.83-1.89-12.79-5.3-17.86-10.27-.12-.12-.23-.24-.35-.35-.11-.12-.13-.24-.02-.36,.33-.38,.66-.75,.98-1.13,.68-.81,1.3-1.65,1.81-2.58,1.84-3.29,1.36-7.56-.94-10.29-.46-.55-.97-1.06-1.46-1.59-.26-.28-.54-.56-.81-.84-1.08-1.14-1.6-2.52-1.65-4.06-.04-1.05,0-2.11,.01-3.16,0-.75,.02-1.5,0-2.24-.04-1.81-.58-3.49-1.48-5.04-1.54-2.65-3.72-4.58-6.53-5.8-.15-.07-.31-.12-.46-.19-.38-.17-.39-.19-.3-.63,3.14-14.84,13.5-26.8,26.81-32.35,1.38-.57,2.78-1.08,4.21-1.52,.16-.05,.32-.07,.48-.11,.1-.02,.16,.04,.19,.12,.05,.16,.08,.32,.13,.48,.96,3.58,3.24,5.9,6.74,7.06,1.16,.38,2.36,.59,3.58,.68,1.35,.1,2.71,.21,4.06,.32,1.27,.1,2.36,.58,3.19,1.57,.45,.53,.87,1.08,1.3,1.62,1.01,1.28,2.24,2.3,3.69,3.04,1.27,.65,2.61,.89,4.02,.82,1.71-.08,3.32-.58,4.86-1.3,1.59-.74,3.03-1.71,4.44-2.74,.65-.47,1.29-.96,1.95-1.42,.59-.42,1.22-.76,1.89-1.02,.15-.06,.27-.05,.38,.05,.15,.13,.29,.26,.43,.4,2.05,2,3.88,4.18,5.48,6.56,.22,.32,.28,.59,.16,.99-.59,1.96-.79,3.96-.53,6,.08,.63,.24,1.25,.4,1.87,.03,.1,.09,.2,.01,.35Z"/>
      <path class="cls-10" d="M107.19,67.33c-.71-.19-1.39-.32-2.09-.26-1.33,.11-2.44,.67-3.35,1.64-.17,.18-.31,.39-.43,.61-.64,1.11-.49,2.27,.4,3.2,.04,.04,.08,.07,.12,.11q.27,.27-.01,.58c-.11,.12-.23,.24-.34,.37-.37,.45-.64,.96-.8,1.54-.4,1.41,.38,3.19,2.23,3.42,.32,.04,.47,.14,.56,.46,.36,1.31,1.24,2.12,2.49,2.59,.55,.21,1.11,.34,1.69,.42,.79,.11,1.55-.07,2.26-.39,1-.45,1.89-1.06,2.52-1.97,.42-.6,.98-.95,1.67-1.14,.64-.18,1.29-.33,1.94-.42,1.18-.16,2.36-.27,3.53-.51,.03,0,.05,0,.08,0,.39-.04,.52,.08,.46,.46-.09,.55-.18,1.09-.28,1.64-.37,2.04-.75,4.08-1.13,6.12-.02,.08-.02,.17-.04,.25-.07,.3-.17,.38-.46,.34-.36-.05-.71-.11-1.06-.18-2.64-.48-5.28-.96-7.92-1.43-2.64-.47-5.29-.92-7.93-1.39-1.99-.35-3.97-.72-5.96-1.08-1.99-.36-3.98-.71-5.96-1.06-.93-.16-1.85-.33-2.78-.5-.32-.06-.36-.1-.35-.44,.02-.55,.04-1.11,.08-1.66,.09-1.3,.18-2.6,.27-3.9,.09-1.3,.18-2.6,.28-3.89,.06-.91,.13-1.82,.19-2.74,.08-1.24,.14-2.49,.22-3.73,.14-2.02,.29-4.03,.43-6.05,.06-.86,.12-1.71,.17-2.57,.13-2.1,.26-4.2,.39-6.3,.09-1.35,.19-2.71,.3-4.06,.03-.42,.06-.45,.51-.45,.36,0,.72,0,1.08,.04,1.62,.17,3.25,.33,4.86,.57,1.48,.22,2.95,.45,4.44,.6,1.65,.16,3.3,.4,4.95,.59,1.13,.13,2.26,.24,3.38,.39,1.15,.15,2.3,.33,3.45,.5,.13,.02,.27,.07,.39,.13,.28,.15,.57,.18,.88,.16,.7-.06,1.37,.14,2.06,.24,1.53,.21,3.06,.51,4.59,.72,1.12,.15,2.26,.19,3.39,.29,.96,.09,1.93,.2,2.89,.31,.14,.02,.27,.06,.4,.11,.12,.04,.17,.15,.14,.26-.06,.24-.15,.48-.22,.71-.91,2.79-1.64,5.63-2.23,8.51-.31,1.55-.69,3.08-1.14,4.59-.21,.72-.39,1.44-.56,2.17-.08,.32-.21,.53-.55,.65-1.18,.39-2.35,.82-3.58,1.04-.79,.14-1.6,.12-2.4,.03-.54-.06-.99-.34-1.4-.68-.4-.34-.79-.69-1.21-1.02-.71-.56-1.51-.92-2.42-1-.48-.04-.94,.01-1.39,.16-.82,.27-1.36,.83-1.59,1.67-.05,.19-.09,.37-.15,.65Z"/>
      <path class="cls-18" d="M31.54,71.27c-.72-.32-1.33-.79-1.92-1.29-.89-.75-1.69-1.6-2.4-2.53-.22-.29-.39-.6-.55-.93-.24-.48-.68-.65-1.1-.49-.5,.19-.76,.67-.6,1.21,.08,.29,.22,.57,.37,.83,.61,1.07,1.34,2.04,2.24,2.87,1.5,1.39,3.17,2.5,5.17,3.06,.32,.09,.62,.25,.94,.31,.38,.07,.63,.27,.88,.56,1.71,2.05,3.62,3.89,5.7,5.56,.13,.1,.24,.22,.36,.34,.02,.02,0,.05,.01,.1-.45,.15-.91,.17-1.38,.19-1.13,.06-2.27,.07-3.4,.2-.8,.09-1.6,.11-2.4,.22-.22,.03-.44,.02-.66,0-.16,0-.25-.12-.25-.28,0-.47-.05-.94-.14-1.4-.08-.44-.23-.85-.45-1.24-.63-1.1-1.58-1.56-2.85-1.38-.08,.01-.16,0-.24,0-.15-.13-.1-.31-.15-.47-.09-.26-.15-.54-.28-.78-.43-.83-1.11-1.29-2.07-1.26-.3,0-.6,.04-.9,.13-.4,.12-.4,.11-.55-.33-.09-.26-.19-.53-.33-.76-.67-1.08-1.79-1.63-3.23-1.22-.66,.19-1.2,.56-1.67,1.05-.42,.45-.42,.46-.94,.05-.59-.46-1.15-.95-1.72-1.44-.19-.16-.37-.34-.56-.5-.43-.35-.92-.49-1.47-.37-.76,.17-1.54,.15-2.32,.12-.28,0-.55-.08-.8-.19-.58-.27-.89-.72-.94-1.36-.07-.92,.26-1.68,.97-2.27,.19-.16,.41-.29,.58-.47,.6-.61,.38-1.51-.43-1.8-.13-.05-.27-.05-.4-.08-.46-.11-.92-.2-1.36-.35-.4-.12-.75-.33-1.08-.6-.97-.77-.89-2.07-.52-2.8,.22-.43,.6-.64,1.05-.73,.19-.03,.39-.01,.58-.04,.55-.08,.92-.4,.98-.86,.08-.53-.1-.87-.62-1.15-.12-.07-.25-.11-.38-.17-.58-.27-.8-.75-.77-1.35,0-.25,.06-.5,.13-.73,.23-.72,.63-1.04,1.4-1.07,.41-.02,.83,0,1.25,.01,.33,0,.67,.03,1,0,.71-.08,1.12-.66,.98-1.36-.03-.16-.11-.31-.17-.47-.07-.21-.16-.41-.22-.62-.28-.91,.3-1.78,1.25-2,.61-.14,1.21-.07,1.74,.33,.27,.2,.52,.42,.73,.67,.12,.15,.25,.3,.4,.42,.61,.51,1.65,.27,1.76-.67,.04-.39,.07-.77,.13-1.16,.04-.21,.1-.43,.2-.63,.19-.38,.62-.5,.99-.28,.16,.1,.31,.23,.43,.38,.19,.23,.36,.49,.53,.74,.16,.23,.31,.46,.49,.67,.45,.52,1,.77,1.7,.64,.33-.06,.37-.03,.42,.28,.13,.79,.24,1.59,.38,2.38,1.02,5.69,3.13,10.95,6.26,15.8,.15,.23,.29,.47,.43,.71-.06,.07-.13,.07-.21,.03Z"/>
      <path class="cls-6" d="M81.77,87.78c.08,.3-.07,.45-.15,.62-1.11,2.44-2.15,4.91-3.02,7.45-.7,2.04-1.59,4.01-2.55,5.94-.73,1.46-1.36,2.96-1.87,4.52-.37,1.13-.85,2.22-1.35,3.3-.59,1.28-1.18,2.56-1.74,3.86-.51,1.2-1.09,2.36-1.79,3.46-.53,.84-1.09,1.67-1.64,2.5-.12,.18-.26,.36-.4,.53-.41,.51-.94,.77-1.6,.7-.55-.06-1.11-.12-1.63-.27-3.14-.89-5.8-2.56-7.99-4.98-.65-.72-1.2-1.52-1.58-2.42-.19-.44-.31-.89-.35-1.36-.09-1,.34-1.73,1.28-2.08,.33-.13,.68-.21,1.05-.24,1.43-.11,2.81,.11,4.16,.58,.92,.32,1.8,.72,2.65,1.18,.19,.1,.39,.21,.6,.27,.48,.14,.9-.03,1.16-.42,.23-.36,.21-.79-.08-1.16-.12-.15-.25-.29-.4-.46,.49-1.07,.99-2.18,1.5-3.28,2.54-5.53,5.09-11.06,7.63-16.58,.07-.15,.14-.3,.21-.45,.09-.19,.24-.26,.46-.29,1.68-.19,3.36-.34,5.02-.63,.79-.14,1.59-.19,2.42-.28Z"/>
      <path class="cls-21" d="M97.32,11.47c-1.52,.81-2.76,1.84-4.06,2.77-1.4,1-2.85,1.92-4.46,2.54-.96,.37-1.95,.63-2.97,.72-1.72,.16-3.21-.42-4.56-1.44-.76-.58-1.38-1.28-1.95-2.03-.44-.57-.88-1.14-1.39-1.66-1.05-1.06-2.33-1.64-3.8-1.86-1.21-.18-2.43-.19-3.64-.3-1.16-.1-2.31-.23-3.44-.51-3.23-.81-5.16-2.95-6.14-6.05-.1-.31-.06-.38,.27-.46,1.24-.29,2.49-.52,3.75-.7,2.09-.29,4.18-.46,6.29-.45,1.5,0,2.98,.14,4.47,.29,3.65,.37,7.18,1.27,10.59,2.6,3.79,1.48,7.27,3.5,10.46,6.03,.17,.14,.33,.29,.58,.5Z"/>
      <path class="cls-21" d="M27.01,40.3c.09,.03,.2,.05,.29,.11,1.56,.86,3.02,1.86,4.19,3.22,1.08,1.25,1.91,2.64,2.3,4.27,.14,.59,.24,1.19,.25,1.8,.02,.91,0,1.83-.07,2.74-.12,1.41-.06,2.82,.26,4.21,.31,1.35,.92,2.55,1.86,3.56,.69,.75,1.42,1.48,2.1,2.24,.77,.86,1.32,1.84,1.57,2.98,.4,1.82,.26,3.57-.64,5.23-.63,1.15-1.46,2.15-2.34,3.11-.15,.17-.27,.17-.42,0-.38-.44-.76-.88-1.12-1.33-3.84-4.89-6.44-10.37-7.82-16.43-.44-1.94-.72-3.91-.89-5.9-.16-1.83-.16-3.65-.09-5.48,.05-1.27,.21-2.54,.34-3.8,.02-.19,.04-.39,.23-.55Z"/>
      <path class="cls-21" d="M84.67,61.08c.83-.02,.83-.02,.76,.85-.11,1.55-.21,3.09-.32,4.64-.14,1.99-.29,3.98-.43,5.96-.06,.83-.08,1.66-.16,2.49-.11,1.21-.15,2.43-.23,3.65-.04,.58-.09,1.16-.15,1.74-.03,.31-.2,.43-.51,.38-.44-.07-.85-.22-1.27-.37-.78-.28-1.55-.59-2.37-.73-.93-.16-1.85-.28-2.8-.17-1.07,.11-2.14,.24-3.22,.35-1.03,.11-2.05,.02-3.04-.29-.4-.12-.77-.3-1.11-.55-.13-.1-.28-.19-.38-.32-.47-.57-.55-1.08-.1-1.74,.24-.35,.56-.62,.91-.85,.35-.23,.71-.43,1.07-.64,.63-.36,1.24-.73,1.79-1.2,.84-.71,1.34-1.61,1.49-2.7,.08-.59-.09-1.15-.2-1.72-.09-.43-.19-.86-.3-1.29-.23-.88-.07-1.7,.32-2.5,.58-1.18,1.47-2.07,2.55-2.78,1.45-.96,3.06-1.55,4.76-1.84,.95-.17,1.91-.35,2.94-.35Z"/>
      <path class="cls-6" d="M125.94,63.89c.89,.65,1.4,1.42,1.47,2.46,.07,1,.04,1.99-.17,2.97-.19,.92-.61,1.72-1.23,2.41-1.66,1.83-3.71,3.05-6.1,3.65-1.07,.27-2.17,.41-3.27,.53-1.13,.12-2.24,.32-3.33,.66-.97,.31-1.81,.82-2.4,1.68-.38,.56-.9,.97-1.49,1.3-1.11,.61-2.72,.41-3.64-.45-.18-.17-.32-.38-.41-.61-.14-.37-.15-.41,.16-.62,.51-.34,.94-.78,1.38-1.2,.16-.15,.3-.32,.37-.54,.12-.38,.06-.72-.22-1-.29-.3-.64-.41-1.06-.26-.22,.08-.39,.21-.55,.36-.27,.24-.53,.49-.8,.73-.34,.31-.75,.47-1.19,.54-.5,.08-.82-.21-.77-.71,.08-.77,.48-1.34,1.15-1.72,.12-.07,.28-.08,.38-.17,.32-.27,.7-.32,1.08-.32,.34,0,.66-.1,.96-.23,.21-.08,.39-.21,.53-.39,.28-.35,.31-.79,.08-1.16-.23-.36-.57-.51-.99-.46-.16,.02-.32,.07-.48,.13-.68,.23-1.32,.06-1.93-.23-.5-.24-.58-.64-.24-1.08,.53-.67,1.26-.98,2.08-1.08,.44-.05,.88-.05,1.31,.12,.2,.08,.42,.15,.63,.19,.5,.09,.91,.31,1.25,.71,.39,.45,.94,.68,1.56,.65,.48-.02,.85-.32,.96-.77,.1-.4-.09-.83-.46-1.07-.09-.06-.19-.11-.3-.15-.65-.21-.83-.76-.93-1.35-.05-.28,.13-.48,.42-.5,.39-.04,.78-.03,1.13,.19,.31,.19,.6,.39,.89,.61,.22,.17,.43,.35,.63,.54,1.23,1.17,2.74,1.51,4.37,1.43,.88-.05,1.76-.17,2.61-.44,.87-.28,1.73-.55,2.6-.83,1.24-.4,2.17-1.19,2.87-2.27,.44-.68,.76-1.41,1.08-2.25Z"/>
      <path class="cls-6" d="M79.88,98.33c1.62,1.24,3.39,1.93,5.24,2.42,.85,.23,1.72,.41,2.6,.54,1.5,.23,2.97,.62,4.46,.93,.68,.14,1.35,.3,2.03,.43,.68,.13,1.23,.47,1.74,.91,.56,.48,.78,1.04,.65,1.77-.16,.87-.33,1.74-.69,2.56-.7,1.57-1.47,3.1-2.4,4.55-.28,.44-.61,.85-.93,1.27-.78,1.01-1.86,1.46-3.08,1.59-.6,.06-1.21,.03-1.81-.11-.77-.18-1.22-.65-1.35-1.4-.23-1.34-.09-2.65,.55-3.88,.13-.26,.26-.31,.54-.24,.27,.07,.53,.16,.8,.23,.19,.05,.38,.08,.57,.09,.49,.04,.88-.34,.99-.73,.12-.43-.06-.9-.48-1.13-.21-.12-.45-.2-.69-.27-1.78-.51-3.56-1.02-5.33-1.52-1.94-.55-3.87-1.11-5.81-1.67-.32-.09-.37-.18-.25-.46,.04-.1,.09-.2,.14-.3,.89-1.81,1.77-3.63,2.55-5.58Z"/>
      <path class="cls-11" d="M113.42,41.03s.03,.05,.02,.07c-.27,1.45-.67,2.85-1.37,4.15-.2,.37-.22,.36-.66,.29-1.5-.24-3.01-.44-4.52-.61-1.59-.18-3.18-.4-4.78-.59-.63-.08-1.26-.15-1.9-.21-.19-.02-.3-.11-.33-.3-.08-.55-.2-1.09-.23-1.64-.09-1.35-.26-2.7-.2-4.06,.1-2.08,.83-3.87,2.36-5.32,1.13-1.08,2.5-1.51,4.03-1.44,1.33,.06,2.63,.34,3.89,.81,1.54,.57,2.58,1.67,3.35,3.08,.09,.16,.02,.27-.16,.28-.41,.03-.83,.07-1.24,.08-.53,.02-1.05,.02-1.58,.03-.17,0-.34,0-.5,.03-.46,.09-.79,.5-.78,.94,.01,.44,.37,.82,.86,.86,.77,.06,1.55,.11,2.32,.15,.47,.02,.94,.02,1.41,.03,.27,0,.35,.07,.4,.32,.03,.16,.05,.33,.06,.49,.01,.26-.08,.37-.32,.38-.86,.03-1.71,.13-2.57,.05-.39-.04-.77-.04-1.16-.05-.23,0-.44,.04-.65,.13-.35,.16-.58,.5-.56,.85,.03,.36,.21,.63,.54,.78,.28,.13,.58,.16,.89,.18,1.08,.07,2.15,.23,3.23,.19,.05,0,.1,.03,.15,.05Z"/>
      <path class="cls-18" d="M13.97,49.15c-.22,.14-.39,.23-.55,.34-1.09,.74-1.67,1.74-1.66,3.07,0,.11,0,.22,0,.33,0,.35-.02,.39-.37,.38-.51,0-.99,.11-1.47,.22-.32,.08-.37,.06-.54-.2-.69-1.03-.84-2.16-.56-3.34,.16-.68,.65-1.15,1.31-1.4,.23-.09,.48-.15,.7-.25,.61-.3,.79-.96,.43-1.54-.06-.09-.13-.18-.21-.26-.75-.85-.84-1.86-.58-2.89,.3-1.17,1.37-1.35,2.16-1.07,.21,.07,.39,.21,.59,.3,.73,.34,1.43,0,1.57-.79,.08-.43,.08-.88,.11-1.32,.02-.33,.04-.66,.13-.98,.13-.48,.4-.86,.81-1.11,1.15-.7,1.81-.64,2.76,.02,.29,.21,.54,.48,.8,.72,.18,.17,.36,.34,.62,.4,.58,.12,1.04-.13,1.26-.69,.07-.18,.1-.37,.14-.56,.15-.63,.36-1.22,.76-1.74,.5-.64,1.15-.93,1.96-.85,.35,.04,.64,.17,.9,.39,.26,.23,.37,.49,.28,.88-.43,1.89-.72,3.81-.86,5.74-.14,1.82-.26,3.65-.1,5.48,.03,.41,.03,.83,.04,1.25,0,.12-.05,.22-.18,.23-.1,0-.24,.01-.31-.05-.12-.11-.21-.25-.29-.39-.21-.36-.42-.72-.71-1.02-.37-.39-.77-.72-1.3-.86-.34-.09-.56-.28-.71-.61-.46-1.01-1.12-1.91-1.74-2.83-.19-.28-.4-.52-.77-.58-.72-.1-1.25,.52-.98,1.2,.12,.31,.3,.59,.47,.88,.39,.67,.77,1.34,1.08,2.06,.06,.14,.1,.27-.02,.38-.42,.38-.68,.86-.94,1.37-.53-.19-.97-.49-1.5-.57-.18-.03-.25-.2-.36-.32-.59-.7-1.11-1.45-1.61-2.22-.1-.16-.2-.34-.32-.48-.27-.31-.77-.4-1.14-.21-.36,.19-.56,.65-.41,1.07,.09,.26,.22,.51,.36,.75,.3,.53,.6,1.05,.95,1.65Z"/>
      <path class="cls-6" d="M23.35,86.25c-.57,.03-1.56-.25-2.47-.84-.8-.52-1.24-1.23-1.3-2.19-.04-.72-.11-1.44-.15-2.15-.04-.81,.07-1.6,.37-2.36,.1-.24,.13-.47,.13-.73,0-1.26,.56-2.28,1.42-3.15,.13-.13,.33-.2,.49-.3,.47-.3,.96,.07,1.06,.55,.08,.38,.07,.78-.06,1.15-.12,.34-.28,.66-.42,.99-.21,.48-.43,.96-.62,1.45-.08,.2-.12,.43-.12,.65,0,.42,.27,.77,.63,.89,.4,.14,.87,.02,1.13-.3,.1-.13,.19-.27,.25-.42,.1-.23,.2-.46,.27-.7,.23-.75,.81-1.23,1.37-1.72,.12-.11,.28-.18,.43-.24,.69-.27,.93-.02,.92,.66-.01,.47-.17,.93-.45,1.32-.34,.47-.65,.96-1.07,1.38-.12,.12-.23,.24-.32,.38-.26,.4-.23,.91,.06,1.24,.29,.34,.88,.42,1.29,.17,.16-.1,.3-.24,.44-.37,.34-.33,.63-.7,.9-1.09,.22-.32,.45-.63,.75-.88,.13-.11,.26-.21,.4-.29,.77-.4,1.37-.17,1.6,.65,.24,.85,.16,1.7-.17,2.52-.26,.66-.65,1.22-1.16,1.7-1.44,1.36-3.16,1.99-5.63,2.04Z"/>
      <path class="cls-20" d="M133.31,30.27c-.02,.07,0,.14-.04,.17-1.94,2.42-3.65,5.01-5.37,7.58-1.22,1.82-2.34,3.69-3.42,5.59-.59,1.04-1.24,2.03-2,2.95-.23,.28-.48,.39-.85,.4-.89,.03-1.76-.18-2.64-.21-.11,0-.21-.05-.32-.09-.23-.08-.31-.24-.21-.45,.21-.45,.42-.91,.67-1.34,1.07-1.84,2.15-3.68,3.25-5.51,.96-1.59,2.03-3.1,3.32-4.44,1.36-1.41,2.94-2.51,4.66-3.43,.76-.41,1.53-.77,2.34-1.08,.2-.08,.39-.19,.62-.15Z"/>
      <path class="cls-17" d="M125.12,17.33c-.99,1.85-1.74,3.78-2.33,5.77-.56,1.88-.98,3.8-1.38,5.72-.66,3.2-1.4,6.37-2.44,9.47-.25,.76-.53,1.52-.8,2.27-.03,.1-.06,.21-.2,.26-.16-.08-.09-.23-.08-.34,.03-1.41,.17-2.82,.3-4.22,.02-.22,.03-.44,.03-.66,.01-1.19,.04-2.38,.03-3.57,0-.62,.16-1.11,.74-1.46,.61-.37,1.01-.95,1.08-1.69,.09-.96-.31-1.72-1.13-2.15-.53-.29-.63-.62-.52-1.13,.01-.05,.02-.11,.03-.16,.07-.46,.08-.95,.23-1.38,.15-.42,.63-.62,.87-.99,.42-.65,.86-1.28,1.33-1.9,1.17-1.54,2.6-2.79,4.24-3.83Z"/>
      <path class="cls-8" d="M97.85,43.72c-.28,.14-.59,.07-.88,.03-1.34-.2-2.67-.43-4.01-.6-.6-.08-1.21-.07-1.81-.17-.07-.01-.16,0-.2-.15,.45-.29,.91-.58,1.37-.88,.09-.06,.19-.11,.29-.16,.73-.45,.94-.91,.8-1.74-.09-.52-.17-1.03-.25-1.55-.04-.24,.1-.37,.34-.34,1.15,.15,2.3,.3,3.44,.47,.39,.06,.47,.16,.49,.54,0,.06,0,.11,0,.17-.04,1.42,.15,2.81,.44,4.2,.01,.05,0,.11-.02,.18Z"/>
      <path class="cls-7" d="M68.09,96.59c-.88-1.76-1.53-3.46-2.11-5.19-.16-.5-.32-1-.47-1.5-.06-.2,.04-.3,.26-.31,.25-.01,.5-.01,.75-.01,1.3,0,2.6-.11,3.88-.33,.32-.05,.66-.06,1.06-.09-.29,.9-.72,1.66-1.07,2.46-.37,.83-.76,1.66-1.14,2.49-.37,.8-.74,1.6-1.15,2.49Z"/>
      <path class="cls-23" d="M106.72,25.37c0-1.6,.24-3.14,.87-4.62,.2-.46,.42-.9,.81-1.24,.16-.14,.3-.11,.39,.08,.37,.82,.35,1.67,.22,2.53-.2,1.3-.67,2.51-1.28,3.67-.22,.42-.46,.82-.7,1.23-.02,.03-.09,.04-.14,.04-.07,0-.09-.04-.1-.11-.02-.53-.05-1.05-.07-1.58Z"/>
      <path class="cls-23" d="M109.46,27.93c.02-.21,.19-.33,.31-.47,1.09-1.18,2.28-2.24,3.61-3.15,.46-.31,.94-.58,1.47-.75,.13-.04,.27-.04,.4-.04,.08,0,.14,.07,.15,.17,.02,.2-.06,.38-.15,.55-.28,.49-.68,.87-1.11,1.21-1,.79-2.08,1.46-3.22,2.02-.37,.18-.76,.32-1.14,.48-.1,.04-.21,.05-.32-.02Z"/>
      <path class="cls-14" d="M116.48,15.25c.22,.58,.25,1.07,.24,1.57,0,1.38,0,2.76,.01,4.14,0,.19,0,.39-.01,.58-.01,.18-.13,.28-.26,.2-.51-.31-1.07-.24-1.61-.26-.17,0-.24-.1-.19-.28,.05-.19,.12-.37,.18-.55,.47-1.58,.94-3.17,1.42-4.75,.05-.18,.12-.36,.23-.65Z"/>
      <path class="cls-13" d="M115.74,36.8c-.29-1.9-1.21-3.48-2.54-4.81,.02-.18,.14-.18,.25-.18,.61,.03,1.21-.09,1.81-.15,.96-.09,.97-.06,.97,.91,0,.47,0,.94,0,1.41,0,.58,0,1.16-.12,1.74-.09,.4-.04,.83-.05,1.24-.19,.11-.23-.07-.32-.16Z"/>
      <path class="cls-24" d="M111.53,29.62c.06-.2,.26-.18,.4-.23,1.2-.4,2.41-.78,3.66-1.01,.57-.11,1.15-.12,1.73-.09,.11,0,.22,.01,.33,.05,.12,.05,.27,.1,.31,.24,.04,.16-.09,.25-.2,.33-.27,.19-.58,.31-.9,.39-.43,.11-.86,.22-1.29,.26-1.34,.12-3.03,.34-4.02,.04Z"/>
      <path class="cls-12" d="M115.58,42.47c-.03,.77,.03,1.54-.15,2.31-.07,.32-.01,.66-.03,.99-.01,.24-.12,.34-.37,.34-.14,0-.28,0-.41-.02-.48-.08-.56-.24-.36-.67,.54-1.16,.85-2.39,1.16-3.62,.43,.13,.21,.42,.16,.66Z"/>
      <path class="cls-15" d="M115.58,42.47c-.05-.22,.07-.49-.16-.66,.06-.27,.12-.54,.19-.8,0-.02,.05-.02,.12-.05-.02,.52,.14,1.03-.14,1.51Z"/>
      <path class="cls-16" d="M115.74,36.8c.11,.05,.21,.11,.32,.16,0,.32,0,.64,0,1.14-.24-.52-.35-.89-.32-1.3Z"/>
      <path class="cls-22" d="M116.47,26.09s.05,.1,.03,.13c-.02,.03-.08,.07-.12,.06-.06,0-.08-.07-.04-.11,.03-.03,.08-.05,.12-.07Z"/>
      <path class="cls-19" d="M31.54,71.27c.07-.01,.14-.02,.21-.03,.03,.04,.05,.07,.08,.11-.04,.02-.09,.06-.12,.05-.06-.03-.12-.08-.17-.13Z"/>
      <path d="M53.09,38.14c.6-.14,1.18-.31,1.77-.4,1.31-.2,2.59-.08,3.86,.26,.13,.04,.26,.09,.38,.16,.46,.26,.66,.75,.5,1.2-.18,.49-.66,.79-1.18,.67-.62-.15-1.24-.29-1.88-.31-1.8-.06-3.45,.38-4.84,1.59-.55,.48-.97,1.06-1.19,1.77-.29,.9-.19,1.75,.28,2.56,.39,.66,.95,1.15,1.61,1.52,1.33,.74,2.76,.95,4.25,.73,1.4-.2,2.66-.74,3.68-1.75,.25-.24,.53-.38,.89-.36,.73,.05,1.16,.79,.83,1.45-.13,.25-.33,.44-.54,.62-.98,.89-2.13,1.48-3.4,1.82-2.07,.54-4.11,.46-6.09-.4-.9-.39-1.69-.95-2.34-1.68-1.7-1.9-1.87-4.47-.43-6.59,.31-.46,.69-.85,1.06-1.22-.06-.21-.2-.14-.29-.14-1.07,.04-1.92-.43-2.65-1.17-.51-.52-.87-1.14-1.17-1.8-.42-.94-.67-1.94-.78-2.96-.26-2.54,0-5.03,.99-7.41,.37-.9,.85-1.74,1.49-2.48,.42-.49,.9-.9,1.46-1.21,1.32-.73,2.84-.58,4,.46,.67,.61,1.13,1.36,1.48,2.18,.48,1.13,.71,2.33,.8,3.55,.17,2.39-.2,4.69-1.14,6.9-.29,.69-.67,1.33-1.12,1.94-.11,.14-.29,.25-.28,.51Z"/>
      <path d="M68.99,29.51c.04,1.89-.38,3.68-1.16,5.39-.37,.81-.84,1.56-1.45,2.22-.67,.73-1.44,1.27-2.41,1.54-.91,.25-1.75,.12-2.57-.3-.65-.34-1.16-.84-1.58-1.44-.69-.97-1.07-2.07-1.27-3.22-.46-2.64-.11-5.18,.97-7.63,.29-.66,.67-1.27,1.1-1.85,.54-.72,1.21-1.3,2.02-1.7,1.2-.58,2.4-.57,3.56,.13,.7,.43,1.22,1.04,1.63,1.74,.71,1.22,1.03,2.56,1.14,3.95,.03,.39,0,.78,0,1.16Z"/>
      <path d="M60.07,59.63c-1.73,.03-3.33-.21-4.85-.87-.82-.36-1.57-.81-2.23-1.42-.16-.15-.32-.31-.43-.5-.25-.39-.2-.8,.1-1.15,.3-.36,.78-.46,1.2-.25,.17,.09,.32,.21,.47,.34,1.09,.97,2.39,1.45,3.82,1.67,2.68,.43,5.24-.1,7.73-1.01,3.66-1.34,6.78-3.47,9.33-6.44,.92-1.08,1.7-2.25,2.3-3.54,.36-.78,.62-1.6,.78-2.45,.06-.31,.15-.6,.41-.79,.3-.23,.63-.33,1.01-.16,.35,.16,.58,.42,.62,.82,.03,.31-.01,.6-.08,.91-.44,1.95-1.32,3.7-2.48,5.3-2.17,2.99-4.97,5.26-8.23,6.98-2.06,1.09-4.25,1.87-6.54,2.31-.98,.18-1.98,.26-2.9,.25Z"/>
      <path class="cls-3" d="M18.68,64.62c-.76-.04-1.56-.24-2.31-.62-1.01-.52-1.95-1.15-2.84-1.87-.17-.14-.33-.3-.46-.48-.23-.33-.2-.79,.06-1.08,.26-.3,.69-.4,1.06-.23,.12,.06,.24,.14,.35,.22,.7,.5,1.46,.91,2.2,1.33,.66,.37,1.36,.61,2.11,.71,.16,.02,.33,.05,.48,.12,.5,.22,.72,.61,.62,1.13-.08,.45-.42,.73-.94,.78-.08,0-.17,0-.33,0Z"/>
      <path class="cls-1" d="M23.09,59.4c.01,.76-.88,1.22-1.42,.9-.22-.13-.41-.28-.57-.47-.93-1.1-1.8-2.25-2.55-3.48-.16-.26-.3-.53-.32-.84-.03-.47,.18-.81,.6-.98,.35-.14,.78-.03,1.02,.34,.82,1.32,1.9,2.44,2.86,3.66,.21,.26,.41,.53,.38,.88Z"/>
      <path class="cls-1" d="M21.43,69.87c-1.21-.1-2.42-.27-3.6-.55-.11-.03-.21-.06-.31-.1-.5-.22-.72-.66-.57-1.14,.12-.4,.6-.7,1.06-.61,.38,.07,.77,.09,1.15,.16,.77,.14,1.54,.14,2.32,.14,.28,0,.55,.03,.81,.15,.42,.2,.67,.56,.64,.98-.03,.43-.29,.7-.67,.87-.26,.11-.53,.14-.82,.12Z"/>
      <path class="cls-1" d="M22.09,42.23c0-.47,0-.94,0-1.41,0-.25,.04-.5,.14-.73,.2-.47,.55-.69,1.04-.65,.44,.04,.72,.29,.87,.77,.06,.19,.06,.38,.04,.57-.12,.99-.26,1.98-.28,2.98,0,.19-.05,.39-.13,.56-.17,.39-.52,.57-.95,.51-.38-.05-.66-.3-.73-.69-.04-.22-.06-.44-.06-.66,0-.42,0-.83,0-1.25,.02,0,.04,0,.07,0Z"/>
      <path class="cls-5" d="M48.87,37.04c.46-.14,.72-.41,.97-.72,1.25-1.59,1.79-3.41,1.74-5.42-.02-.78-.1-1.55-.36-2.29-.4-1.19-1-2.22-2.27-2.7,.32-.64,.76-1.13,1.34-1.47,.62-.36,1.13-.31,1.67,.15,.39,.33,.64,.76,.86,1.21,.35,.73,.56,1.51,.65,2.31,.27,2.26,.05,4.48-.82,6.6-.26,.64-.59,1.26-1.04,1.79-.21,.25-.45,.49-.71,.69-.74,.56-1.25,.52-2.05-.16Z"/>
      <path class="cls-5" d="M62.41,25.35c.27-.4,.58-.67,.94-.88,.85-.51,1.52-.35,2.12,.21,.31,.29,.53,.63,.73,1,.3,.57,.49,1.18,.6,1.8,.4,2.36,.1,4.62-.94,6.78-.37,.75-.84,1.43-1.5,1.96-.47,.37-.99,.58-1.62,.45-.29-.06-.51-.21-.72-.38-.12-.09-.07-.21,0-.29,.17-.18,.36-.34,.53-.52,1.83-1.91,2.49-4.19,2.11-6.79-.14-.92-.55-1.74-1.22-2.39-.32-.31-.64-.61-1.01-.95Z"/>
    </g>
  </g>
</svg>