<?xml version="1.0" encoding="UTF-8"?><svg id="Layer_1" xmlns="http://www.w3.org/2000/svg" viewBox="0 0 212 164"><defs><style>.cls-1{fill:#fff;}.cls-2{fill:#92c6ea;}.cls-3{fill:#5aa445;}</style></defs><path d="M60.53,67.26c-.72-.17-1.34-.34-1.96-.44-2.06-.35-4.02-1.04-5.94-1.83-3.03-1.25-5.98-2.67-8.78-4.39-.51-.31-1.03-.6-1.59-.92-.16,.13-.33,.23-.46,.38-2.21,2.47-5.05,3.88-8.19,4.74-2.48,.68-5.01,1.01-7.6,.77-1.71-.17-3.41-.46-5.04-1-.95-.31-1.87-.71-2.71-1.27-1.03-.69-2.07-1.36-3.06-2.1-.92-.69-1.53-1.59-1.84-2.73-.51-1.85,.61-4.15,1.93-4.95,.44-.27,.89-.53,1.39-.82-.8-1.05-1.35-2.16-1.19-3.53,.16-1.38,.96-2.33,2.03-3.17-.2-.16-.34-.29-.5-.4-1.32-.97-2.66-1.91-3.96-2.91-1.18-.91-2.2-1.98-3.06-3.2-.8-1.13-1.11-2.37-.95-3.75,.21-1.75,1.3-3.03,3-3.5,1.06-.3,2.14-.31,3.21-.18,1.15,.14,2.28,.41,3.37,.82,2.48,.95,4.81,2.15,6.92,3.77,.22,.17,.45,.34,.67,.5,.06,.04,.14,.07,.22,.1,.3-.03,.53-.18,.6-.49,.17-.86,.77-1.38,1.42-1.85,1.25-.91,2.71-1.18,4.21-1.13,1.2,.04,2.38,.29,3.51,.72,4.63,1.78,7.81,5.02,9.61,9.63,.69,1.78,.87,3.64,.82,5.54,0,.2-.03,.39-.04,.68,2.26,1.34,4.71,2.32,7.15,3.27,2.45,.95,5.01,1.61,7.63,2.04,.25-.1,.23-.37,.28-.59,.81-3.96,1.85-7.86,3.34-11.62,.38-.96,.83-1.91,1.29-2.84,.86-1.76,1.74-3.51,2.65-5.25,1.41-2.69,3-5.29,4.83-7.72,1.82-2.41,4.06-4.41,6.46-6.23,.89-.68,1.74-1.4,2.62-2.1,.15-.12,.33-.22,.48-.34,.63-.49,1.31-.93,1.87-1.49,1.83-1.84,3.92-3.28,6.32-4.26,2.22-.9,4.41-1.88,6.68-2.63,3.26-1.07,6.56-2.03,9.98-2.5,1.82-.25,3.65-.39,5.48-.61,2.59-.3,5.18-.37,7.78-.42,2.21-.04,4.4,.18,6.57,.54,4.34,.72,8.59,1.81,12.74,3.28,4.36,1.55,8.41,3.71,12.01,6.63,1.74,1.41,3.38,2.94,4.96,4.53,2.12,2.12,4.15,4.33,6.17,6.55,.83,.91,1.58,1.91,2.32,2.9,1.84,2.47,3.64,4.96,5.41,7.48,2.8,4,4.9,8.32,6.44,12.94,1.11,3.35,1.95,6.76,2.2,10.29,.18,2.47,.35,4.95,.36,7.43,0,3.49-.5,6.93-1.41,10.31-.94,3.48-2.12,6.87-3.52,10.19-2.06,4.9-4.83,9.38-8.3,13.41-.13,.15-.25,.31-.44,.53,.06,.26,.12,.57,.21,.87,.81,2.51,1.72,4.99,2.36,7.55,.15,.62,.32,1.24,.49,1.89,.62,.17,1.23,.26,1.88,.12,1.73-.37,3.48-.49,5.25-.38,2.45,.15,4.84,.54,7.06,1.67,1.41,.72,2.67,1.61,3.6,2.92,.85,1.2,1.42,2.5,1.32,4.02-.05,.78-.29,1.49-.62,2.17-.07,.14-.12,.29-.2,.5,.24,.21,.45,.43,.71,.6,1.87,1.3,3.68,2.69,5.4,4.19,2.23,1.95,4.3,4.06,6.1,6.43,.87,1.15,1.61,2.38,2.14,3.73,.57,1.46,.57,2.9-.28,4.26-.79,1.26-1.9,2.14-3.34,2.58-1.41,.43-2.85,.4-4.28,.15-1.99-.34-3.82-1.11-5.49-2.28-1.98-1.38-3.82-2.91-5.41-4.72-.5-.57-1.01-1.14-1.58-1.78-.92,.13-1.9,.34-2.9,.16-.96-.17-1.82-.59-2.71-1.15-.09,.26-.17,.46-.23,.68-.19,.77-.31,1.57-.57,2.32-.64,1.85-1.83,3.27-3.59,4.16-.37,.19-.67,.4-.92,.73-.63,.84-1.4,1.52-2.23,2.16-1.43,1.1-2.86,2.19-4.4,3.12-2.22,1.33-4.65,1.95-7.2,1.92-2.26-.03-4.26-.95-6.08-2.27-2.41-1.75-4.53-3.81-6.45-6.07-2.93-3.44-5.68-7.03-8.32-10.7-1.01-1.39-2.04-2.77-3.06-4.15-1.08-1.45-2-2.99-2.81-4.6-.18-.35-.37-.7-.58-1.11-.47,.06-.94,.12-1.4,.18-1.23,.15-2.45,.33-3.69,.44-.46,.04-.86,.17-1.24,.4-1.2,.72-2.41,1.42-3.59,2.17-1.62,1.03-3.19,2.14-4.82,3.15-3.7,2.3-7.41,4.59-11.15,6.82-1.85,1.1-3.77,2.11-5.69,3.09-4.23,2.16-8.47,4.33-12.84,6.21-2.9,1.25-5.75,2.61-8.51,4.13-1.3,.71-2.65,1.31-4.03,1.85-1,.39-1.97,.87-2.95,1.33-.18,.08-.33,.22-.48,.35-1.67,1.4-3.66,2.27-5.55,3.3-.14,.08-.3,.12-.45,.17-1.55,.55-2.62,.18-3.47-1.23-1.22-2.02-2.42-4.05-3.62-6.08-1.3-2.2-2.62-4.39-3.89-6.62-1.57-2.75-2.98-5.57-3.99-8.57-.59-1.76-.91-3.56-.84-5.42,.07-2.05,.66-3.94,1.92-5.58,.74-.97,1.64-1.74,2.84-2.11,.86-.27,1.73-.3,2.6-.09,2.07,.5,3.87,1.47,5.31,3.08,1.21,1.35,2.17,2.87,2.91,4.52,1.43,3.18,2.47,6.49,3.13,9.92,.11,.58,.24,1.16,.36,1.7,.48,.17,.76-.14,1.06-.29,4.41-2.26,8.81-4.53,13.21-6.8,6.82-3.51,13.64-7.02,20.45-10.54,.38-.2,.81-.33,1.17-.75-.36-.1-.66-.2-.97-.27-3.21-.83-6.41-1.7-9.42-3.12-3.82-1.79-7.36-4.02-10.53-6.82-2.64-2.33-5.31-4.62-7.97-6.93-1.58-1.37-2.98-2.9-4.16-4.63-2.2-3.25-4.21-6.62-5.47-10.36-1.4-4.13-2.45-8.36-3.06-12.68-.41-2.97-.63-5.96-.75-8.96-.02-.44-.04-.88-.06-1.44Zm97.35,41.15c-.06-.24-.09-.43-.16-.62-.55-1.67-1.06-3.35-1.68-5-1.9-5.01-3.85-9.99-5.76-14.99-2.03-5.3-4.23-10.53-6.97-15.52-.27-.49-.51-.99-.73-1.5-.09-.21-.14-.46-.14-.7-.03-1,.82-1.66,1.77-1.36,.58,.19,1.06,.54,1.32,1.14,.3,.69,.6,1.39,.96,2.06,1.73,3.29,3.33,6.65,4.69,10.11,1.51,3.83,2.96,7.68,4.53,11.49,3.17,7.65,5.51,15.59,8.01,23.47,.15,.47,.22,.93,.09,1.41-.09,.34-.19,.69-.28,1.03-.11,.46-.36,.82-.81,.97-1.03,.37-1.72,1.14-2.37,1.96-2.05,2.58-3.4,5.49-4.12,8.71-.42,1.89-.5,3.8-.07,5.71,.17,.76,.55,1.42,1.11,1.95,.79,.75,1.71,.84,2.63,.26,.62-.39,1.12-.91,1.51-1.52,1.05-1.64,1.76-3.4,1.99-5.35,.1-.79,.18-1.59,.29-2.38,.07-.47,.14-.95,.44-1.35,.39-.51,1.03-.75,1.59-.58,.58,.17,.99,.69,1.01,1.34,0,.28-.01,.56-.05,.84-.21,1.38-.42,2.76-.64,4.14-.04,.28-.02,.53,.06,.81,.25,.92,.56,1.82,.69,2.78,.15,1.16,.64,2.23,1.36,3.16,.26,.34,.59,.66,.93,.92,.74,.55,1.46,.55,2.22,.04,.65-.43,1.14-1,1.47-1.71,.41-.88,.67-1.8,.71-2.77,.11-2.49-.38-4.85-1.61-7.04-.47-.84-.96-1.66-1.4-2.51-.2-.39-.39-.8-.49-1.22-.19-.84,.39-1.7,1.25-1.91,.74-.19,1.55,.27,1.7,1.11,.14,.74,.55,1.32,.9,1.94,.74,1.33,1.46,2.66,1.93,4.11,.49,1.5,1.46,2.64,2.81,3.45,1.18,.7,2.37,.61,3.55,.04,.7-.34,1.09-.92,1.22-1.68,.11-.68,.05-1.35-.15-2.02-.72-2.46-2.02-4.51-4.12-6.02-.62-.44-1.24-.88-1.83-1.35-.28-.22-.55-.48-.74-.77-.51-.81-.13-1.88,.76-2.16,.54-.17,1.02-.03,1.46,.31,1.16,.91,2.35,1.8,3.48,2.74,.78,.65,1.64,.67,2.48,.36,.97-.35,1.63-1.93,1.36-2.94-.27-1-.84-1.83-1.67-2.43-.68-.49-1.41-.93-2.17-1.26-2.36-1.03-4.87-1.2-7.4-1.06-1.87,.1-3.69,.62-5.58,.58-.98-.02-1.46-.28-1.77-1.25-.09-.27-.15-.54-.22-.81-.62-2.44-1.23-4.88-2.09-7.25-1.22-3.38-2.42-6.77-3.64-10.15-1.68-4.66-3.36-9.32-5.07-13.97-1.62-4.43-3.53-8.74-5.82-12.88-.62-1.12-1.22-2.25-1.81-3.38-.2-.39-.38-.8-.48-1.22-.16-.64,.11-1.25,.62-1.56,.57-.35,1.25-.31,1.76,.19,.28,.27,.51,.61,.7,.96,.54,1.03,1,2.09,1.56,3.1,2.49,4.53,4.6,9.22,6.37,14.08,1.04,2.85,2.07,5.71,3.11,8.56,.96,2.63,1.91,5.26,2.89,7.88,.12,.31,.11,.73,.6,.92l1.65-2.13c-.15-1.44-.47-2.8-.73-4.17-.35-1.86-.93-3.63-1.71-5.35-1.25-2.77-2.27-5.63-3.19-8.53-.33-1.02-.61-2.07-.79-3.13-.55-3.25-.28-6.38,1.5-9.25,.08-.14,.15-.28,.23-.42,.58-.91,.82-1.88,.77-2.96-.04-.83,0-1.68,.1-2.51,.17-1.37,.75-2.6,1.46-3.77,.37-.61,.78-1.21,1.13-1.84,.76-1.32,.9-2.72,.38-4.16-.26-.71-.62-1.38-.97-2.06-.33-.64-.71-1.25-1.06-1.88-.55-.98-.93-2.03-1.21-3.12-.47-1.81-.34-3.56,.53-5.24,.52-1,1.27-1.73,2.35-2.1,.32-.11,.64-.24,1.03-.38-.28-.4-.5-.74-.73-1.05-.78-1.06-1.55-2.14-2.37-3.17-1.16-1.47-2.32-2.96-3.56-4.37-2.43-2.76-5.04-5.35-7.74-7.87-3.2-2.98-6.88-5.19-10.84-6.97-2.71-1.22-5.56-1.97-8.42-2.74-3.09-.83-6.22-1.51-9.41-1.73-2.63-.18-5.28-.15-7.91,.06-2.07,.17-4.14,.37-6.2,.61-1.31,.15-2.62,.32-3.9,.6-1.6,.35-3.16,.85-4.75,1.23-3.56,.86-6.86,2.36-10.17,3.86-1.47,.67-2.78,1.56-3.81,2.85,.03,1.94,.03,3.9-.29,5.84-.32,1.93-.68,3.86-1.05,5.78-.33,1.71-.98,3.29-2.07,4.67-.3,.38-.55,.78-.82,1.18-1.02,1.5-1.47,3.19-1.53,4.98-.07,2.07,.59,3.94,1.86,5.57,.42,.54,.87,1.04,1.31,1.56,.72,.86,1.36,1.78,1.87,2.78,.95,1.85,1.32,3.75,.61,5.78-.36,1.03-.48,2.1-.48,3.19,0,.44-.06,.88-.09,1.32-.1,1.35-.75,2.33-1.95,2.96-.14,.07-.28,.15-.42,.23-.44,.24-.72,.61-.91,1.07-.34,.83-.34,1.65,.14,2.42,.5,.82,1.06,1.6,1.58,2.4,1.74,2.69,3.26,5.5,4.38,8.51,.34,.91,.56,1.84,.56,2.81,0,1.69-1.06,2.75-2.76,2.82-.89,.04-1.74-.18-2.6-.38-1.01-.23-2.02-.5-3.04-.66-1.72-.26-2.05,.01-2.51,1.74-.13,.5-.27,1.01-.48,1.48-.55,1.21-1.48,1.96-2.83,2.13-.55,.07-1.11,.13-1.66,.23-.51,.1-1.01,.22-1.5,.4-.67,.24-1.16,.72-1.37,1.41-.33,1.07-.66,2.14-.93,3.22-.11,.46-.12,.95-.1,1.43,.01,.3,.1,.64,.25,.9,1.37,2.32,2.97,4.45,5.02,6.23,2.93,2.54,5.85,5.09,8.79,7.62,3.02,2.61,6.44,4.58,10.07,6.19,.62,.27,1.26,.5,1.9,.73,2.98,1.05,6.05,1.77,9.11,2.5,2.65,.64,5.33,1.02,8.04,1.28,2.75,.26,5.51,.29,8.27,.25,4.22-.06,8.35-.65,12.35-2.09,1.12-.4,2.29-.7,3.45-1.01,3.64-.96,7.16-2.23,10.46-4.07,.97-.55,1.98-1.04,3-1.5,.88-.4,1.69-.9,2.47-1.47,.68-.49,1.34-1,2.01-1.51,.73-.55,1.49-1.06,2.19-1.68ZM84.87,21.39c-.22,.1-.37,.14-.48,.22-1.01,.78-2.01,1.58-3.02,2.37-2.09,1.63-4.05,3.41-5.61,5.56-1.65,2.26-3.13,4.64-4.41,7.13-.86,1.67-1.73,3.34-2.53,5.03-.67,1.41-1.32,2.83-1.85,4.29-.92,2.56-1.63,5.18-2.24,7.83-.39,1.72-.7,3.44-.8,5.21-.07,1.24-.26,2.47-.34,3.7-.11,1.8-.27,3.6-.23,5.39,.06,2.36,.26,4.71,.48,7.06,.28,2.99,.86,5.93,1.61,8.84,.61,2.36,1.25,4.71,2.17,6.97,.15,.37,.23,.81,.66,1.13,.19-.56,.38-1.04,.53-1.53,.56-1.74,1.75-2.84,3.45-3.39,.79-.25,1.63-.4,2.46-.5,1.44-.17,1.53-.23,1.93-1.66,.15-.54,.29-1.09,.53-1.59,.69-1.45,1.83-2.26,3.48-2.33,1.46-.06,2.86,.27,4.25,.62,.62,.15,1.24,.3,1.87,.41,.2,.04,.43-.06,.68-.1-.06-.35-.09-.63-.16-.9-.09-.35-.19-.69-.32-1.03-1.08-2.81-2.5-5.44-4.16-7.95-.49-.73-.98-1.46-1.45-2.2-.45-.72-.77-1.5-.8-2.36-.09-2.21,.67-4.02,2.68-5.11,.66-.36,.93-.82,.9-1.52,0-.16,0-.32,0-.48-.02-1.21,.15-2.39,.48-3.55,.11-.38,.18-.78,.3-1.16,.15-.48,.16-.95-.01-1.41-.22-.6-.41-1.21-.68-1.78-.45-.95-1.13-1.74-1.8-2.54-.44-.52-.89-1.03-1.29-1.58-1.14-1.59-1.86-3.35-2.07-5.3-.32-2.97,.33-5.72,1.99-8.22,.31-.47,.62-.93,.96-1.38,.72-.94,1.14-2.01,1.39-3.16,.58-2.74,1.06-5.49,1.42-8.27,.03-.22,0-.46,0-.78Zm33.43,103.2c-.59-.06-.86-.11-1.14-.12-2.88-.1-5.74-.35-8.58-.83-.66-.11-1.24,0-1.83,.32-2.65,1.39-5.32,2.76-7.98,4.13-10.19,5.25-20.38,10.49-30.56,15.75-.69,.36-1.4,.57-2.16,.66-.87,.1-1.46-.41-1.54-1.28-.03-.4-.02-.8-.12-1.19-.43-1.75-.86-3.49-1.33-5.22-.65-2.39-1.42-4.74-2.54-6.97-.63-1.26-1.4-2.42-2.39-3.43-.92-.94-2.04-1.51-3.3-1.84-.95-.25-1.72,.03-2.36,.76-.82,.93-1.3,2.01-1.45,3.23-.25,1.98,.04,3.9,.73,5.77,1.02,2.78,2.33,5.43,3.83,7.98,2.27,3.86,4.56,7.7,6.84,11.55,.12,.2,.27,.38,.44,.61,.37-.17,.7-.3,1-.48,1.81-1.02,3.61-2.06,5.41-3.09,.38-.22,.77-.43,1.16-.62,1.8-.87,3.6-1.71,5.39-2.59,2.62-1.28,5.19-2.67,7.85-3.83,4.17-1.83,8.26-3.83,12.31-5.89,3.56-1.81,7.09-3.68,10.43-5.88,.5-.33,1.02-.64,1.54-.93,3.31-1.86,6.45-4,9.63-6.07,.16-.1,.31-.23,.7-.52ZM19.29,52.14c1.85-.01,3.57,.6,5.21,1.49,.25,.13,.49,.28,.74,.4,.43,.21,.83,.44,1.32,.54,.72,.16,1.09,.84,.88,1.45-.22,.62-.89,.98-1.55,.78-.38-.12-.74-.29-1.1-.47-.79-.39-1.56-.82-2.34-1.21-1.18-.58-2.42-.79-3.73-.61-.81,.11-1.55,.4-2.2,.89-1.23,.92-1.36,2.57-.29,3.68,.3,.31,.65,.59,1.01,.84,.69,.48,1.39,.93,2.1,1.39,.84,.55,1.75,.95,2.72,1.23,2.01,.57,4.05,.93,6.15,.87,1.68-.05,3.34-.36,4.96-.81,3.29-.91,6.11-2.53,8.08-5.42,.47-.69,1.22-.82,1.88-.3,.7,.55,1.51,.9,2.29,1.3,.57,.29,1.16,.55,1.71,.87,2.39,1.39,4.93,2.46,7.48,3.51,1.37,.56,2.79,.98,4.23,1.29,.57,.12,1.16,.2,1.73,.29,.27-1.17,.58-4.67,.5-5.56-2.33-.31-4.59-.96-6.84-1.64-2.35-.71-4.53-1.77-6.7-2.88-.71-.36-1.38-.8-2.06-1.22-.51-.31-.96-.69-1.35-1.07,0-.16-.02-.24-.01-.32,.02-.16,.04-.32,.07-.47,.48-2.48,.15-4.85-.9-7.13-.56-1.21-1.3-2.3-2.16-3.31-1.93-2.27-4.37-3.72-7.26-4.38-1.1-.25-2.23-.22-3.32,.12-.95,.3-1.74,.79-2.02,1.84-.05,.18-.2,.34-.3,.51-.24,.41-.53,.81-.7,1.25-.71,1.83-1.2,3.72-1.62,5.64-.08,.35-.11,.71-.12,1.07-.04,1.39,.19,2.71,1.03,3.87,.62,.85,1.21,1.03,2.17,.57,.39-.19,.77-.44,1.09-.73,1.31-1.18,1.96-2.7,2.09-4.44,.05-.64-.01-1.28,.04-1.92,.04-.47,.14-.95,.31-1.39,.15-.4,.54-.58,.98-.56,.45,.02,.76,.27,.9,.68,.09,.26,.1,.55,.11,.82,0,.52-.03,1.04-.02,1.56,.03,1.81-.45,3.49-1.35,5.03-.96,1.65-2.33,2.82-4.21,3.34-.69,.19-1.34,.15-2-.09-.83-.29-1.43-.87-1.93-1.56-.69-.95-1.11-2.03-1.35-3.18-.61-.42-1.27-.72-1.95-.94-1-.33-1.99-.2-2.9,.31-1.23,.68-1.44,2.26-.46,3.26,.3,.31,.64,.6,.99,.93Zm150.67,42.83c.18-.23,.29-.34,.36-.47,.81-1.56,1.66-3.1,2.42-4.69,1.15-2.42,1.96-4.98,2.81-7.52,1.53-4.58,2.38-9.29,2.23-14.14-.04-1.28-.12-2.56-.18-3.83-.12-2.44-.42-4.86-1-7.24-1.42-5.75-3.53-11.2-6.99-16.06-.18-.25-.39-.48-.6-.73-.36,.06-.68,.08-.99,.16-.78,.2-1.31,.67-1.64,1.44-.35,.85-.44,1.7-.26,2.58,.2,.99,.51,1.93,.99,2.82,.35,.63,.72,1.24,1.06,1.88,.39,.74,.79,1.49,1.1,2.26,.43,1.08,.7,2.21,.56,3.4-.15,1.28-.48,2.51-1.19,3.61-.41,.64-.81,1.29-1.2,1.94-.67,1.12-1.04,2.33-.98,3.65,.02,.4,0,.8,.01,1.2,.05,1.28-.28,2.45-.9,3.56-.29,.52-.59,1.05-.86,1.58-.48,.93-.78,1.91-.92,2.96-.25,1.95-.01,3.84,.56,5.69,.86,2.79,1.79,5.55,2.98,8.22,.98,2.2,1.84,4.43,2.28,6.8,.05,.29,.2,.56,.34,.95Zm-5.87,43.95c-.38,.47-.59,.75-.82,1.02-.63,.74-1.35,1.36-2.22,1.8-2.06,1.07-3.94,.67-5.47-.59-.94-.78-1.64-1.74-2.04-2.91-.17-.49-.33-.99-.41-1.5-.06-.39-.26-.64-.51-.91-.73-.79-1.47-1.58-2.14-2.42-1.49-1.88-2.99-3.75-4.39-5.7-1.61-2.23-3.27-4.44-4.47-6.94-.05-.11-.13-.2-.17-.27-2.89,.81-5.72,1.47-8.51,2.56,.17,.32,.32,.65,.51,.94,1.12,1.65,2.23,3.32,3.4,4.94,1.75,2.43,3.53,4.84,5.34,7.23,2.05,2.71,4.2,5.34,6.48,7.86,1.42,1.58,3.05,2.93,4.78,4.17,1.09,.78,2.28,1.34,3.63,1.43,2.21,.15,4.28-.34,6.18-1.49,1.47-.89,2.83-1.94,4.18-3,.17-.14,.32-.31,.53-.51-2.14-1.3-3.23-3.25-3.88-5.69Zm-19.64-19.49c-.16,.63,.15,1.05,.45,1.48,.67,.95,1.36,1.88,2.01,2.84,1.77,2.62,3.72,5.1,5.69,7.57,.11,.14,.19,.36,.49,.25,.08-.32,.16-.67,.24-1.02,.69-3.12,1.89-6.01,3.7-8.65,.92-1.33,2.01-2.49,3.38-3.36,.19-.12,.36-.29,.54-.44-.7-2.18-1.38-4.31-2.06-6.44-.03-.09-.14-.16-.24-.27-1.17,.83-2.35,1.57-3.43,2.46-1.56,1.29-3.38,2.12-5.12,3.08-.35,.19-.72,.35-1.08,.51-1.53,.67-3.07,1.33-4.57,1.98Zm40.49,17.55c.06,.14,.07,.23,.12,.29,1.74,2.16,3.79,3.99,6.1,5.53,1.38,.93,2.91,1.48,4.55,1.71,.83,.12,1.69,.14,2.48-.19,1.56-.63,2.25-1.75,1.48-3.29-.14-.29-.26-.59-.43-.85-.47-.74-.93-1.49-1.47-2.18-1.78-2.27-3.8-4.31-6.03-6.15-1.6-1.32-3.22-2.62-4.84-3.92-.27-.22-.57-.41-.85-.6l-1.19,.45c.17,.4,.29,.73,.44,1.05,.46,1.02,.81,2.08,1,3.19,.26,1.52-.04,2.94-.86,4.24-.17,.26-.36,.51-.51,.73ZM25.27,39.21c-.09-.06-.24-.13-.36-.23-2.16-1.76-4.56-3.08-7.16-4.06-1.13-.43-2.31-.65-3.51-.7-.55-.02-1.12,.07-1.66,.19-.58,.13-.97,.52-1.17,1.09-.2,.59-.27,1.18-.02,1.76,.19,.44,.41,.87,.69,1.25,.73,1.01,1.63,1.86,2.63,2.61,1.56,1.18,3.14,2.33,4.71,3.5,.49,.36,.98,.59,1.63,.61,.58,.02,1.15,.29,1.73,.43,.21,.05,.41,.29,.69,.09,.26-1.06,.51-2.14,.8-3.21,.29-1.07,.63-2.13,.99-3.33Z"/><path class="cls-2" d="M157.88,108.4c-.7,.62-1.46,1.13-2.19,1.68-.67,.51-1.33,1.02-2.01,1.51-.78,.56-1.58,1.07-2.47,1.47-1.02,.46-2.02,.96-3,1.5-3.3,1.85-6.82,3.11-10.46,4.07-1.16,.31-2.32,.6-3.45,1.01-3.99,1.44-8.12,2.03-12.35,2.09-2.76,.04-5.52,.01-8.27-.25-2.7-.25-5.39-.64-8.04-1.28-3.07-.74-6.14-1.45-9.11-2.5-.64-.23-1.28-.45-1.9-.73-3.64-1.61-7.05-3.59-10.07-6.19-2.94-2.53-5.86-5.08-8.79-7.62-2.05-1.78-3.65-3.91-5.02-6.23-.15-.26-.24-.59-.25-.9-.02-.48-.02-.97,.1-1.43,.27-1.08,.6-2.15,.93-3.22,.21-.7,.69-1.17,1.37-1.41,.48-.17,.99-.3,1.5-.4,.55-.11,1.11-.17,1.66-.23,1.35-.17,2.28-.92,2.83-2.13,.21-.47,.35-.98,.48-1.48,.46-1.73,.79-2,2.51-1.74,1.02,.15,2.03,.42,3.04,.66,.86,.2,1.7,.42,2.6,.38,1.7-.07,2.76-1.13,2.76-2.82,0-.97-.23-1.9-.56-2.81-1.11-3.02-2.64-5.82-4.38-8.51-.52-.81-1.08-1.59-1.58-2.4-.48-.77-.48-1.58-.14-2.42,.19-.46,.47-.83,.91-1.07,.14-.08,.28-.15,.42-.23,1.19-.63,1.85-1.61,1.95-2.96,.03-.44,.1-.88,.09-1.32,0-1.09,.12-2.16,.48-3.19,.71-2.03,.34-3.93-.61-5.78-.51-1-1.15-1.92-1.87-2.78-.43-.52-.89-1.03-1.31-1.56-1.27-1.64-1.93-3.5-1.86-5.57,.06-1.78,.51-3.48,1.53-4.98,.27-.4,.53-.8,.82-1.18,1.09-1.38,1.74-2.96,2.07-4.67,.37-1.92,.73-3.85,1.05-5.78,.32-1.94,.32-3.9,.29-5.84,1.03-1.29,2.34-2.18,3.81-2.85,3.31-1.5,6.62-3.01,10.17-3.86,1.59-.38,3.15-.88,4.75-1.23,1.28-.28,2.6-.45,3.9-.6,2.06-.24,4.13-.44,6.2-.61,2.63-.22,5.28-.25,7.91-.06,3.19,.22,6.32,.89,9.41,1.73,2.85,.77,5.71,1.53,8.42,2.74,3.96,1.78,7.64,3.99,10.84,6.97,2.69,2.51,5.31,5.1,7.74,7.87,1.24,1.41,2.4,2.89,3.56,4.37,.82,1.04,1.58,2.11,2.37,3.17,.24,.32,.45,.65,.73,1.05-.39,.14-.71,.27-1.03,.38-1.07,.38-1.82,1.1-2.35,2.1-.88,1.68-1,3.43-.53,5.24,.28,1.09,.66,2.14,1.21,3.12,.35,.63,.73,1.24,1.06,1.88,.35,.67,.71,1.35,.97,2.06,.53,1.43,.38,2.83-.38,4.16-.36,.62-.76,1.22-1.13,1.84-.71,1.17-1.29,2.4-1.46,3.77-.1,.83-.14,1.68-.1,2.51,.05,1.08-.19,2.06-.77,2.96-.09,.13-.15,.28-.23,.42-1.78,2.88-2.05,6.01-1.5,9.25,.18,1.06,.46,2.11,.79,3.13,.92,2.89,1.93,5.76,3.19,8.53,.78,1.72,1.36,3.49,1.71,5.35,.26,1.37,.59,2.73,.73,4.17l-1.65,2.13c-.49-.19-.48-.61-.6-.92-.98-2.62-1.93-5.25-2.89-7.88-1.04-2.85-2.07-5.71-3.11-8.56-1.77-4.85-3.88-9.55-6.37-14.08-.56-1.01-1.02-2.08-1.56-3.1-.18-.35-.42-.69-.7-.96-.52-.5-1.19-.55-1.76-.19-.51,.32-.78,.92-.62,1.56,.1,.42,.28,.83,.48,1.22,.59,1.14,1.19,2.26,1.81,3.38,2.29,4.14,4.19,8.45,5.82,12.88,1.7,4.65,3.39,9.31,5.07,13.97,1.22,3.38,2.42,6.77,3.64,10.15,.86,2.37,1.46,4.81,2.09,7.25,.07,.27,.14,.54,.22,.81,.32,.97,.79,1.23,1.77,1.25,1.89,.05,3.71-.48,5.58-.58,2.54-.14,5.04,.04,7.4,1.06,.76,.33,1.49,.77,2.17,1.26,.83,.6,1.4,1.42,1.67,2.43,.27,1.01-.39,2.59-1.36,2.94-.84,.3-1.7,.29-2.48-.36-1.13-.95-2.32-1.83-3.48-2.74-.44-.34-.92-.48-1.46-.31-.89,.29-1.27,1.35-.76,2.16,.19,.3,.46,.55,.74,.77,.6,.47,1.22,.91,1.83,1.35,2.1,1.51,3.4,3.56,4.12,6.02,.19,.66,.26,1.33,.15,2.02-.13,.76-.52,1.34-1.22,1.68-1.18,.57-2.37,.67-3.55-.04-1.35-.81-2.33-1.96-2.81-3.45-.48-1.46-1.19-2.79-1.93-4.11-.35-.62-.76-1.2-.9-1.94-.15-.84-.96-1.3-1.7-1.11-.86,.22-1.44,1.07-1.25,1.91,.1,.42,.29,.83,.49,1.22,.45,.85,.93,1.68,1.4,2.51,1.23,2.19,1.72,4.54,1.61,7.04-.04,.97-.3,1.89-.71,2.77-.33,.71-.82,1.27-1.47,1.71-.75,.51-1.47,.51-2.22-.04-.35-.26-.67-.57-.93-.92-.71-.94-1.21-2-1.36-3.16-.13-.96-.43-1.86-.69-2.78-.08-.28-.11-.53-.06-.81,.22-1.38,.43-2.76,.64-4.14,.04-.28,.06-.56,.05-.84-.02-.65-.43-1.17-1.01-1.34-.56-.16-1.2,.08-1.59,.58-.3,.4-.37,.88-.44,1.35-.11,.79-.19,1.59-.29,2.38-.24,1.94-.95,3.71-1.99,5.35-.39,.61-.88,1.14-1.51,1.52-.92,.57-1.84,.48-2.63-.26-.57-.54-.94-1.19-1.11-1.95-.43-1.91-.35-3.81,.07-5.71,.71-3.21,2.07-6.12,4.12-8.71,.65-.82,1.34-1.59,2.37-1.96,.45-.16,.69-.52,.81-.97,.09-.35,.18-.69,.28-1.03,.13-.48,.06-.94-.09-1.41-2.5-7.88-4.84-15.82-8.01-23.47-1.58-3.8-3.02-7.66-4.53-11.49-1.37-3.46-2.96-6.82-4.69-10.11-.35-.67-.66-1.36-.96-2.06-.26-.6-.74-.95-1.32-1.14-.95-.31-1.8,.36-1.77,1.36,0,.24,.05,.49,.14,.7,.22,.51,.47,1.01,.73,1.5,2.74,4.98,4.94,10.21,6.97,15.52,1.91,5,3.86,9.99,5.76,14.99,.62,1.64,1.13,3.33,1.68,5,.06,.18,.1,.38,.16,.62Zm-30.1-3.14c-.07,2.33,1.58,4.98,4.18,5.92,.69,.25,1.39,.37,2.12,.32,1.69-.11,3.31-.55,4.82-1.32,1.97-1,3.41-2.5,4.11-4.62,.29-.87,.5-1.76,.7-2.66,.19-.86,.31-1.73,.47-2.59,.18-.97,.62-1.8,1.37-2.46,.54-.47,1.06-.97,1.56-1.5,2.95-3.13,2.46-8.12-1.05-10.62-.42-.3-.86-.58-1.3-.86-.69-.44-1.14-.96-1.29-1.86-.16-.91-.32-1.8-.33-2.72,0-.4-.03-.8-.12-1.19-.39-1.72-1.45-2.81-3.16-3.23-1.72-.42-3.24,0-4.56,1.17-.72,.64-1.34,1.37-1.85,2.19-.42,.68-.83,1.36-1.23,2.06-.74,1.31-1.75,2.37-3,3.21-.63,.42-1.25,.86-1.87,1.3-.89,.64-1.62,1.43-2.17,2.37-1.4,2.38-1.67,4.8-.22,7.26,.39,.65,.81,1.28,1.25,1.9,.32,.46,.72,.86,1.04,1.31,.35,.48,.68,.99,.99,1.5,.35,.57,.44,1.19,.21,1.84-.09,.26-.16,.54-.22,.81-.16,.82-.3,1.64-.45,2.47Zm-17.81-66.92c.03,1.21,.12,2.57,.43,3.9,.36,1.53,.9,2.98,1.83,4.27,.55,.76,1.19,1.4,2.02,1.84,1.37,.73,2.74,.73,4.11-.02,.64-.35,1.17-.83,1.64-1.38,.84-.99,1.4-2.14,1.78-3.37,.89-2.84,1.02-5.73,.42-8.65-.27-1.3-.67-2.55-1.32-3.71-.51-.92-1.15-1.74-2-2.36-1.83-1.34-3.71-1.23-5.41,.1-.53,.41-1,.94-1.37,1.5-.46,.69-.84,1.45-1.15,2.23-.72,1.76-.93,3.63-1,5.66Zm-14.35-2.14c.12,.99,.18,1.99,.36,2.97,.29,1.58,.84,3.08,1.78,4.42,.63,.9,1.39,1.65,2.37,2.15,1.42,.72,2.84,.72,4.25-.02,.68-.36,1.26-.85,1.75-1.43,.68-.8,1.17-1.71,1.55-2.69,.52-1.36,.78-2.77,.84-4.21,.1-2.35-.26-4.62-1.29-6.76-.49-1.02-1.12-1.94-1.99-2.68-.87-.74-1.85-1.23-3.03-1.28-1.55-.06-2.79,.58-3.84,1.65-.76,.78-1.31,1.71-1.71,2.72-.66,1.65-.99,3.37-1.04,5.16Zm5.91,27.04c2.37,.01,4.24-.32,6.02-1.12,.36-.16,.73-.35,1.03-.61,.72-.61,.71-1.61,0-2.19-.43-.35-.93-.45-1.46-.24-.56,.22-1.09,.5-1.66,.68-2.11,.67-4.24,.71-6.38,.16-1.49-.38-2.87-.99-4.04-2.01-.64-.56-1.17-1.2-1.49-2-.43-1.09-.33-2.13,.34-3.08,.32-.45,.74-.84,1.16-1.2,.72-.59,1.57-.96,2.46-1.2,3.43-.91,6.65-.45,9.62,1.54,.23,.15,.46,.32,.71,.43,.96,.42,2.01-.3,2.01-1.34,0-.53-.25-.94-.65-1.22-.65-.46-1.31-.93-2.02-1.28-3.12-1.55-6.42-1.88-9.8-1.16-1.78,.38-3.41,1.14-4.77,2.39-2.68,2.45-3.03,5.92-.91,8.86,.76,1.05,1.73,1.88,2.83,2.55,2.28,1.38,4.77,2.01,6.99,2.03Zm10.97,11.37c0-.84-.24-2.34-.71-3.68-.42-1.18-1.01-2.26-1.95-3.11-.98-.89-2.12-1.25-3.43-1.04-.9,.14-1.64,.6-2.29,1.21-.89,.83-1.49,1.86-1.94,2.99-.85,2.16-1.12,4.41-.89,6.7,.14,1.39,.46,2.75,1.09,4.02,.43,.87,.98,1.65,1.74,2.26,1.39,1.12,3.19,1.24,4.68,.26,.49-.32,.93-.75,1.33-1.19,.62-.68,1.05-1.5,1.39-2.36,.66-1.69,.99-3.45,.98-6.05Zm-26.57,20.69c-2.65-.08-4.36,1.93-4.83,3.58-.13,.45-.12,.95-.09,1.42,.09,1.13,.68,2.03,1.47,2.8,.71,.68,1.21,1.47,1.43,2.44,.2,.88,.7,1.6,1.3,2.25,1.16,1.25,2.57,2.14,4.17,2.73,.75,.28,1.53,.44,2.34,.41,1.57-.06,2.75-.9,3.22-2.4,.51-1.64,.61-3.29-.17-4.9-.23-.47-.42-.95-.68-1.4-.93-1.64-2.07-3.13-3.43-4.44-.63-.61-1.33-1.15-2.05-1.64-.84-.57-1.79-.88-2.69-.84Z"/><path class="cls-3" d="M84.87,21.39c0,.33,.03,.56,0,.78-.36,2.78-.84,5.53-1.42,8.27-.24,1.15-.67,2.22-1.39,3.16-.34,.44-.66,.91-.96,1.38-1.65,2.5-2.31,5.24-1.99,8.22,.21,1.95,.93,3.72,2.07,5.3,.4,.55,.85,1.06,1.29,1.58,.67,.8,1.35,1.59,1.8,2.54,.27,.57,.46,1.19,.68,1.78,.17,.47,.16,.94,.01,1.41-.12,.38-.19,.78-.3,1.16-.33,1.16-.5,2.34-.48,3.55,0,.16-.01,.32,0,.48,.03,.71-.24,1.16-.9,1.52-2.01,1.09-2.76,2.9-2.68,5.11,.03,.86,.35,1.64,.8,2.36,.47,.74,.97,1.47,1.45,2.2,1.66,2.51,3.09,5.14,4.16,7.95,.13,.33,.23,.68,.32,1.03,.07,.27,.1,.55,.16,.9-.25,.04-.48,.14-.68,.1-.63-.11-1.25-.26-1.87-.41-1.4-.35-2.79-.68-4.25-.62-1.65,.07-2.79,.87-3.48,2.33-.24,.5-.38,1.05-.53,1.59-.4,1.44-.5,1.49-1.93,1.66-.83,.1-1.67,.24-2.46,.5-1.7,.54-2.9,1.65-3.45,3.39-.16,.49-.34,.98-.53,1.53-.42-.32-.5-.75-.66-1.13-.92-2.26-1.57-4.61-2.17-6.97-.75-2.91-1.33-5.85-1.61-8.84-.22-2.35-.42-4.7-.48-7.06-.05-1.79,.11-3.6,.23-5.39,.08-1.24,.27-2.47,.34-3.7,.1-1.77,.4-3.49,.8-5.21,.6-2.65,1.32-5.28,2.24-7.83,.53-1.46,1.18-2.88,1.85-4.29,.8-1.7,1.68-3.36,2.53-5.03,1.28-2.49,2.76-4.87,4.41-7.13,1.56-2.15,3.52-3.93,5.61-5.56,1.01-.79,2.01-1.58,3.02-2.37,.11-.09,.26-.13,.48-.22Z"/><path class="cls-2" d="M118.3,124.59c-.39,.29-.54,.41-.7,.52-3.18,2.07-6.31,4.21-9.63,6.07-.52,.29-1.04,.6-1.54,.93-3.34,2.2-6.87,4.07-10.43,5.88-4.06,2.06-8.14,4.06-12.31,5.89-2.67,1.17-5.23,2.56-7.85,3.83-1.79,.87-3.6,1.72-5.39,2.59-.39,.19-.78,.4-1.16,.62-1.8,1.03-3.6,2.06-5.41,3.09-.3,.17-.63,.3-1,.48-.17-.23-.32-.41-.44-.61-2.28-3.85-4.57-7.69-6.84-11.55-1.5-2.55-2.81-5.2-3.83-7.98-.68-1.87-.98-3.79-.73-5.77,.16-1.22,.64-2.3,1.45-3.23,.64-.73,1.41-1.01,2.36-.76,1.26,.33,2.38,.9,3.3,1.84,.99,1.01,1.76,2.17,2.39,3.43,1.11,2.22,1.88,4.58,2.54,6.97,.47,1.73,.91,3.48,1.33,5.22,.09,.38,.08,.79,.12,1.19,.07,.87,.67,1.38,1.54,1.28,.75-.09,1.46-.3,2.16-.66,10.18-5.26,20.37-10.51,30.56-15.75,2.66-1.37,5.33-2.73,7.98-4.13,.59-.31,1.17-.43,1.83-.32,2.84,.47,5.7,.73,8.58,.83,.27,0,.55,.06,1.14,.12Z"/><path class="cls-2" d="M19.29,52.14c-.35-.33-.69-.62-.99-.93-.98-1.01-.77-2.58,.46-3.26,.91-.51,1.9-.64,2.9-.31,.68,.22,1.34,.53,1.95,.94,.25,1.15,.66,2.22,1.35,3.18,.5,.69,1.1,1.27,1.93,1.56,.66,.23,1.31,.28,2,.09,1.88-.52,3.25-1.69,4.21-3.34,.9-1.55,1.38-3.23,1.35-5.03,0-.52,.03-1.04,.02-1.56,0-.28-.02-.56-.11-.82-.14-.41-.45-.66-.9-.68-.44-.02-.82,.16-.98,.56-.17,.44-.27,.92-.31,1.39-.06,.64,0,1.28-.04,1.92-.13,1.74-.78,3.25-2.09,4.44-.32,.29-.7,.54-1.09,.73-.95,.46-1.55,.29-2.17-.57-.84-1.16-1.07-2.48-1.03-3.87,.01-.36,.04-.72,.12-1.07,.42-1.91,.91-3.81,1.62-5.64,.17-.44,.46-.83,.7-1.25,.1-.17,.25-.32,.3-.51,.28-1.05,1.06-1.54,2.02-1.84,1.09-.34,2.22-.37,3.32-.12,2.89,.66,5.33,2.11,7.26,4.38,.86,1.01,1.6,2.1,2.16,3.31,1.06,2.28,1.39,4.65,.9,7.13-.03,.16-.05,.32-.07,.47,0,.08,0,.16,.01,.32,.38,.38,.84,.76,1.35,1.07,.68,.42,1.35,.86,2.06,1.22,2.17,1.11,4.36,2.17,6.7,2.88,2.25,.68,4.51,1.33,6.84,1.64,.08,.89-.23,4.39-.5,5.56-.57-.09-1.15-.17-1.73-.29-1.45-.31-2.86-.73-4.23-1.29-2.55-1.05-5.09-2.12-7.48-3.51-.55-.32-1.14-.58-1.71-.87-.78-.4-1.58-.74-2.29-1.3-.66-.52-1.41-.39-1.88,.3-1.98,2.89-4.79,4.51-8.08,5.42-1.62,.45-3.27,.76-4.96,.81-2.09,.06-4.14-.3-6.15-.87-.97-.27-1.88-.68-2.72-1.23-.7-.46-1.41-.91-2.1-1.39-.36-.25-.71-.53-1.01-.84-1.07-1.1-.94-2.75,.29-3.68,.65-.49,1.39-.78,2.2-.89,1.31-.18,2.55,.02,3.73,.61,.79,.39,1.56,.81,2.34,1.21,.36,.18,.72,.36,1.1,.47,.66,.2,1.33-.16,1.55-.78,.21-.6-.16-1.29-.88-1.45-.49-.11-.89-.34-1.32-.54-.25-.12-.49-.26-.74-.4-1.64-.89-3.35-1.5-5.21-1.49Z"/><path class="cls-3" d="M169.95,94.97c-.14-.38-.28-.65-.34-.95-.44-2.37-1.3-4.61-2.28-6.8-1.19-2.67-2.12-5.43-2.98-8.22-.57-1.85-.8-3.74-.56-5.69,.13-1.05,.43-2.03,.92-2.96,.28-.53,.57-1.05,.86-1.58,.62-1.11,.95-2.28,.9-3.56-.02-.4,0-.8-.01-1.2-.07-1.32,.3-2.53,.98-3.65,.39-.65,.79-1.3,1.2-1.94,.71-1.1,1.04-2.33,1.19-3.61,.14-1.19-.13-2.31-.56-3.4-.31-.78-.71-1.52-1.1-2.26-.33-.64-.71-1.25-1.06-1.88-.49-.88-.8-1.83-.99-2.82-.18-.89-.09-1.73,.26-2.58,.32-.77,.85-1.24,1.64-1.44,.31-.08,.63-.1,.99-.16,.2,.25,.42,.48,.6,.73,3.46,4.86,5.58,10.31,6.99,16.06,.58,2.37,.89,4.79,1,7.24,.06,1.28,.14,2.56,.18,3.83,.15,4.85-.69,9.56-2.23,14.14-.85,2.54-1.66,5.1-2.81,7.52-.75,1.59-1.6,3.13-2.42,4.69-.07,.14-.19,.25-.36,.47Z"/><path class="cls-2" d="M164.08,138.92c.65,2.44,1.74,4.4,3.88,5.69-.21,.21-.36,.38-.53,.51-1.35,1.06-2.71,2.11-4.18,3-1.91,1.15-3.97,1.64-6.18,1.49-1.35-.09-2.54-.65-3.63-1.43-1.73-1.23-3.36-2.58-4.78-4.17-2.27-2.52-4.43-5.15-6.48-7.86-1.81-2.39-3.58-4.8-5.34-7.23-1.17-1.62-2.27-3.28-3.4-4.94-.2-.29-.34-.61-.51-.94,2.79-1.08,5.62-1.74,8.51-2.56,.05,.07,.12,.17,.17,.27,1.2,2.5,2.86,4.71,4.47,6.94,1.4,1.94,2.9,3.82,4.39,5.7,.67,.84,1.41,1.63,2.14,2.42,.25,.27,.45,.52,.51,.91,.08,.51,.24,1.01,.41,1.5,.4,1.16,1.09,2.13,2.04,2.91,1.53,1.26,3.41,1.66,5.47,.59,.86-.45,1.59-1.06,2.22-1.8,.23-.27,.45-.56,.82-1.02Z"/><path class="cls-2" d="M184.94,136.98c.16-.22,.35-.47,.51-.73,.82-1.3,1.12-2.72,.86-4.24-.19-1.11-.54-2.16-1-3.19-.15-.32-.27-.65-.44-1.05l1.19-.45c.27,.19,.57,.38,.85,.6,1.62,1.3,3.24,2.6,4.84,3.92,2.22,1.84,4.25,3.88,6.03,6.15,.54,.69,.99,1.44,1.47,2.18,.17,.27,.29,.57,.43,.85,.77,1.54,.07,2.66-1.48,3.29-.8,.32-1.65,.3-2.48,.19-1.64-.23-3.17-.78-4.55-1.71-2.3-1.54-4.36-3.37-6.1-5.53-.05-.06-.06-.14-.12-.29Z"/><path class="cls-2" d="M25.27,39.21c-.36,1.19-.7,2.26-.99,3.33-.29,1.07-.54,2.16-.8,3.21-.28,.2-.47-.04-.69-.09-.58-.14-1.15-.41-1.73-.43-.65-.02-1.14-.25-1.63-.61-1.57-1.17-3.15-2.33-4.71-3.5-.99-.75-1.89-1.6-2.63-2.61-.28-.38-.5-.81-.69-1.25-.25-.58-.19-1.17,.02-1.76,.2-.58,.59-.97,1.17-1.09,.54-.12,1.11-.21,1.66-.19,1.2,.05,2.38,.27,3.51,.7,2.6,.98,5,2.3,7.16,4.06,.12,.1,.27,.18,.36,.23Z"/><path d="M127.78,105.27c.15-.82,.29-1.65,.45-2.47,.05-.27,.12-.55,.22-.81,.23-.65,.14-1.27-.21-1.84-.31-.51-.64-1.01-.99-1.5-.33-.45-.72-.86-1.04-1.31-.44-.62-.87-1.25-1.25-1.9-1.45-2.46-1.18-4.88,.22-7.26,.56-.94,1.29-1.73,2.17-2.37,.62-.44,1.24-.88,1.87-1.3,1.25-.84,2.26-1.89,3-3.21,.39-.7,.81-1.38,1.23-2.06,.5-.82,1.12-1.56,1.85-2.19,1.32-1.16,2.84-1.59,4.56-1.17,1.71,.42,2.77,1.51,3.16,3.23,.09,.39,.11,.79,.12,1.19,0,.92,.17,1.81,.33,2.72,.16,.9,.61,1.42,1.29,1.86,.44,.28,.88,.56,1.3,.86,3.51,2.5,4.01,7.49,1.05,10.62-.49,.52-1.01,1.02-1.56,1.5-.76,.66-1.2,1.49-1.37,2.46-.16,.86-.28,1.74-.47,2.59-.2,.89-.41,1.79-.7,2.66-.7,2.12-2.14,3.62-4.11,4.62-1.51,.77-3.12,1.21-4.82,1.32-.72,.05-1.43-.08-2.12-.32-2.6-.94-4.25-3.59-4.18-5.92Zm12.68-24.29h-.06c-.01-.29-.02-.57-.04-.85-.11-1.48-1.33-1.85-2.41-1.48-.33,.11-.65,.33-.89,.58-.46,.49-.91,1.01-1.28,1.57-.49,.73-.92,1.5-1.37,2.25-.85,1.43-1.98,2.6-3.34,3.56-.62,.44-1.28,.83-1.87,1.31-.52,.42-1.06,.88-1.44,1.42-1.1,1.56-1.36,3.22-.28,4.92,.24,.37,.47,.75,.73,1.1,.36,.48,.74,.94,1.12,1.41,.61,.74,1.14,1.54,1.55,2.41,.45,.97,.65,1.97,.38,3.03-.13,.5-.29,1-.36,1.51-.1,.71-.2,1.43-.17,2.14,.05,1.48,1.88,3.19,3.66,2.84,.94-.19,1.87-.39,2.76-.77,1.77-.75,2.94-2.03,3.44-3.89,.09-.35,.19-.7,.25-1.05,.16-.86,.32-1.73,.46-2.6,.3-1.93,1.08-3.58,2.61-4.84,.43-.36,.82-.76,1.21-1.16,.51-.53,.89-1.15,1.02-1.87,.33-1.81-.21-3.32-1.65-4.47-.56-.45-1.18-.83-1.79-1.21-1.57-.98-2.01-2.61-2.43-4.24-.05-.18,.03-.39,.05-.59,.05-.35,.1-.7,.14-1.05Z"/><path d="M109.97,38.35c.06-2.04,.28-3.9,1-5.66,.31-.77,.7-1.53,1.15-2.23,.37-.56,.84-1.08,1.37-1.5,1.7-1.34,3.57-1.44,5.41-.1,.85,.62,1.49,1.44,2,2.36,.65,1.16,1.05,2.41,1.32,3.71,.6,2.92,.47,5.81-.42,8.65-.38,1.23-.94,2.38-1.78,3.37-.47,.55-1,1.03-1.64,1.38-1.37,.76-2.74,.76-4.11,.02-.83-.44-1.48-1.08-2.02-1.84-.93-1.29-1.47-2.74-1.83-4.27-.32-1.33-.41-2.68-.43-3.9Zm4.55-5.95c1.5,.16,2.3,1.13,2.7,2.5,.03,.11,.05,.23,.08,.35,.53,2.32,.27,4.61-.39,6.86-.12,.41-.36,.8-.6,1.16-.32,.48-.79,.78-1.36,.92-.17,.04-.41-.05-.49,.27,.09,.14,.19,.31,.31,.47,.12,.16,.26,.31,.41,.44,.8,.74,1.53,.73,2.3-.05,.31-.31,.58-.67,.78-1.05,.29-.56,.56-1.15,.74-1.76,.7-2.26,.74-4.56,.32-6.88-.23-1.27-.65-2.47-1.37-3.55-1.18-1.77-2.68-1.34-3.43,.16-.02,.03,0,.07,0,.15Z"/><path d="M95.62,36.2c.05-1.79,.38-3.51,1.04-5.16,.4-1.01,.95-1.94,1.71-2.72,1.05-1.08,2.28-1.72,3.84-1.65,1.18,.05,2.16,.54,3.03,1.28,.86,.74,1.5,1.66,1.99,2.68,1.03,2.14,1.39,4.41,1.29,6.76-.06,1.44-.31,2.86-.84,4.21-.38,.98-.86,1.89-1.55,2.69-.5,.58-1.07,1.07-1.75,1.43-1.41,.74-2.83,.74-4.25,.02-.99-.5-1.75-1.25-2.37-2.15-.93-1.33-1.48-2.83-1.78-4.42-.18-.98-.24-1.98-.36-2.97Zm4.93,6.09c.51,.65,1.1,1.1,2,.95,.54-.09,.93-.43,1.28-.83,.59-.67,.96-1.47,1.23-2.31,.53-1.62,.62-3.29,.42-4.97-.15-1.31-.5-2.59-1.19-3.74-.35-.59-.76-1.14-1.36-1.49-.38-.22-.79-.42-1.25-.27-.52,.18-1.04,.39-1.25,1.03,1.25,.24,1.97,1.02,2.33,2.18,.06,.19,.11,.38,.15,.58,.29,1.33,.32,2.69,.29,4.05-.02,.84-.1,1.66-.3,2.49-.29,1.2-.9,2.03-2.2,2.17-.03,0-.05,.05-.14,.16Z"/><path d="M101.53,63.24c-2.23-.02-4.71-.64-6.99-2.03-1.1-.67-2.07-1.5-2.83-2.55-2.12-2.94-1.77-6.41,.91-8.86,1.36-1.25,2.99-2.01,4.77-2.39,3.39-.73,6.68-.4,9.8,1.16,.71,.35,1.37,.82,2.02,1.28,.4,.28,.65,.69,.65,1.22,0,1.04-1.05,1.76-2.01,1.34-.25-.11-.48-.28-.71-.43-2.97-1.98-6.19-2.45-9.62-1.54-.89,.24-1.74,.61-2.46,1.2-.43,.35-.84,.75-1.16,1.2-.67,.94-.78,1.99-.34,3.08,.32,.8,.84,1.45,1.49,2,1.17,1.02,2.55,1.63,4.04,2.01,2.14,.55,4.28,.51,6.38-.16,.57-.18,1.1-.46,1.66-.68,.53-.21,1.03-.11,1.46,.24,.71,.58,.72,1.58,0,2.19-.3,.25-.67,.44-1.03,.61-1.78,.8-3.65,1.13-6.02,1.12Z"/><path d="M112.5,74.61c.01,2.61-.31,4.36-.98,6.05-.34,.86-.77,1.68-1.39,2.36-.4,.44-.84,.86-1.33,1.19-1.49,.98-3.29,.86-4.68-.26-.76-.61-1.31-1.39-1.74-2.26-.63-1.27-.95-2.63-1.09-4.02-.22-2.3,.04-4.54,.89-6.7,.44-1.13,1.04-2.16,1.94-2.99,.65-.61,1.39-1.07,2.29-1.21,1.31-.2,2.45,.16,3.43,1.04,.94,.85,1.53,1.93,1.95,3.11,.47,1.34,.71,2.84,.71,3.68Zm-2.97,.71c-.03-1.21-.17-2.52-.68-3.76-.26-.63-.58-1.23-1.15-1.65-.43-.31-.77-.34-1.21-.03-.29,.21-.58,.45-.76,.75-.35,.58-.68,1.18-.92,1.81-.59,1.6-.69,3.27-.55,4.96,.08,1.01,.28,1.98,.73,2.89,.21,.42,.47,.84,.79,1.19,.53,.58,1.08,.57,1.68,.05,.56-.48,.91-1.11,1.2-1.77,.61-1.38,.8-2.84,.85-4.43Z"/><path d="M85.92,95.3c.9-.03,1.85,.28,2.69,.84,.72,.49,1.42,1.04,2.05,1.64,1.36,1.31,2.5,2.8,3.43,4.44,.25,.45,.45,.93,.68,1.4,.78,1.61,.68,3.25,.17,4.9-.47,1.5-1.65,2.34-3.22,2.4-.81,.03-1.59-.14-2.34-.41-1.6-.58-3-1.47-4.17-2.73-.61-.65-1.1-1.37-1.3-2.25-.22-.97-.72-1.75-1.43-2.44-.79-.77-1.39-1.66-1.47-2.8-.04-.47-.04-.97,.09-1.42,.47-1.64,2.19-3.66,4.83-3.58Zm6.14,12.7c.09-.19,.21-.39,.27-.61,.09-.31,.08-.64,.19-.94,.2-.53,.13-1.01-.11-1.49-1.13-2.23-2.56-4.25-4.48-5.88-.36-.31-.77-.58-1.2-.78-1.12-.51-2.14-.14-2.77,.91-.29,.47-.26,.92,.04,1.35,.25,.36,.56,.68,.86,1,.8,.82,1.37,1.78,1.63,2.89,.17,.74,.58,1.31,1.12,1.8,.74,.68,1.59,1.2,2.53,1.58,.6,.25,1.22,.35,1.93,.16Z"/><path class="cls-3" d="M140.46,80.97c-.05,.35-.1,.7-.14,1.05-.03,.2-.1,.41-.05,.59,.43,1.63,.86,3.26,2.43,4.24,.61,.38,1.23,.76,1.79,1.21,1.44,1.15,1.98,2.66,1.65,4.47-.13,.72-.51,1.34-1.02,1.87-.39,.4-.78,.81-1.21,1.16-1.53,1.26-2.31,2.92-2.61,4.84-.13,.87-.3,1.73-.46,2.6-.07,.35-.16,.7-.25,1.05-.5,1.86-1.67,3.14-3.44,3.89-.89,.38-1.82,.58-2.76,.77-1.78,.35-3.61-1.36-3.66-2.84-.02-.71,.08-1.43,.17-2.14,.07-.51,.23-1.01,.36-1.51,.27-1.06,.08-2.06-.38-3.03-.41-.87-.94-1.67-1.55-2.41-.38-.46-.76-.93-1.12-1.41-.26-.35-.49-.73-.73-1.1-1.08-1.71-.82-3.36,.28-4.92,.38-.54,.92-1,1.44-1.42,.59-.48,1.24-.87,1.87-1.31,1.36-.95,2.49-2.12,3.34-3.56,.45-.76,.87-1.53,1.37-2.25,.38-.56,.82-1.08,1.28-1.57,.24-.25,.56-.47,.89-.58,1.08-.37,2.3,0,2.41,1.48,.02,.28,.03,.56,.04,.84h.06Z"/><path class="cls-1" d="M114.52,32.4c0-.07-.01-.12,0-.15,.75-1.5,2.25-1.94,3.43-.16,.72,1.08,1.14,2.28,1.37,3.55,.41,2.32,.38,4.62-.32,6.88-.19,.61-.45,1.2-.74,1.76-.2,.38-.48,.74-.78,1.05-.77,.78-1.5,.78-2.3,.05-.15-.13-.28-.28-.41-.44-.12-.15-.21-.33-.31-.47,.08-.33,.33-.23,.49-.27,.57-.14,1.04-.44,1.36-.92,.24-.36,.48-.75,.6-1.16,.67-2.25,.92-4.54,.39-6.86-.03-.12-.04-.24-.08-.35-.41-1.37-1.2-2.34-2.7-2.5Z"/><path class="cls-1" d="M100.55,42.29c.09-.11,.11-.15,.14-.16,1.3-.15,1.91-.97,2.2-2.17,.2-.82,.28-1.65,.3-2.49,.04-1.36,0-2.71-.29-4.05-.04-.19-.09-.39-.15-.58-.35-1.16-1.08-1.94-2.33-2.18,.21-.64,.72-.85,1.25-1.03,.46-.16,.87,.05,1.25,.27,.6,.35,1.01,.9,1.36,1.49,.69,1.15,1.03,2.42,1.19,3.74,.2,1.68,.1,3.35-.42,4.97-.27,.84-.64,1.64-1.23,2.31-.35,.39-.74,.74-1.28,.83-.9,.14-1.49-.31-2-.95Z"/><path d="M109.53,75.32c-.05,1.6-.24,3.06-.85,4.43-.29,.66-.65,1.29-1.2,1.77-.6,.52-1.15,.53-1.68-.05-.32-.35-.58-.77-.79-1.19-.45-.9-.65-1.88-.73-2.89-.14-1.69-.04-3.36,.55-4.96,.23-.63,.57-1.23,.92-1.81,.18-.3,.47-.54,.76-.75,.44-.32,.78-.29,1.21,.03,.57,.42,.89,1.02,1.15,1.65,.51,1.24,.65,2.55,.68,3.76Z"/><path class="cls-3" d="M92.07,107.99c-.7,.18-1.32,.08-1.93-.16-.93-.38-1.78-.9-2.53-1.58-.54-.49-.94-1.06-1.12-1.8-.26-1.11-.84-2.07-1.63-2.89-.31-.32-.61-.64-.86-1-.3-.42-.32-.87-.04-1.35,.64-1.05,1.65-1.42,2.77-.91,.43,.19,.84,.47,1.2,.78,1.92,1.63,3.34,3.64,4.48,5.88,.25,.49,.31,.97,.11,1.49-.11,.29-.11,.63-.19,.94-.06,.22-.19,.42-.27,.61Z"/></svg>