<?xml version="1.0" encoding="UTF-8"?><svg id="Layer_1" xmlns="http://www.w3.org/2000/svg" viewBox="0 0 220 152"><defs><style>.cls-1{fill:#feda00;}.cls-2{fill:#92c6ea;}.cls-3{fill:#5aa445;}</style></defs><path d="M178.49,32.4c.32,1.84,.43,3.7,.49,5.57,.05,1.43,.1,2.87,.09,4.3-.02,2.01-.23,4.01-.58,5.99-.51,2.98-1.25,5.89-2.52,8.65-2.38,5.17-5.74,9.51-10.67,12.5-.24,.15-.5,.29-.65,.61,.06,.56,.14,1.15,.19,1.75,.13,1.77,.22,3.55,.2,5.33-.02,2.51-.35,4.97-.95,7.41-.5,2.01-1.22,3.94-1.9,5.89-1.06,3.02-2.5,5.86-4.23,8.54-1.28,1.98-2.71,3.85-4.41,5.49-3.4,3.28-7.09,6.18-11.34,8.32-.33,.17-.66,.34-.99,.52-1.36,.74-2.76,1.41-4.22,1.93-.16,.06-.31,.14-.46,.2,.51,1.52,4.59,8.19,5.66,9.24,.11-.03,.25-.05,.39-.1,.71-.25,1.35-.63,1.95-1.07,.67-.5,1.34-.98,2.02-1.47,2.27-1.61,4.48-3.31,6.81-4.83,.36-.24,.69-.52,1.03-.77,.67-.5,1.32-1.01,2-1.49,1.48-1.04,2.89-2.17,4.29-3.32,1.69-1.38,3.44-2.67,5.18-4,2.46-1.88,4.94-3.74,7.38-5.65,1.92-1.5,3.8-3.05,5.71-4.58,.29-.23,.58-.47,.89-.68,.63-.44,1.29-.45,1.93-.03,.31,.2,.6,.45,.86,.71,.51,.5,1,1.03,1.5,1.54,1.76,1.83,3.28,3.84,4.56,6.03,.75,1.29,1.5,2.58,2.22,3.89,2.08,3.81,3.6,7.81,4.19,12.13,.19,1.4,.31,2.79,.09,4.2-.21,1.33-.78,2.45-1.78,3.35-.5,.45-1.07,.76-1.72,.93-1.32,.33-2.56,.14-3.71-.59-1.48-.94-2.69-2.14-3.63-3.61-.73-1.14-1.38-2.32-1.9-3.56-.51-1.21-1.02-2.43-1.52-3.65-.98-2.36-1.76-4.79-2.21-7.31-.09-.52-.16-1.06-.37-1.63-.16,.1-.28,.16-.38,.24-.47,.38-.92,.78-1.39,1.15-.92,.74-1.84,1.46-2.76,2.19-.56,.45-1.1,.92-1.68,1.34-1.97,1.39-3.8,2.96-5.7,4.45-2.05,1.61-4.05,3.31-6.16,4.84-5.55,4.03-11.14,7.99-16.72,11.98-.26,.18-.52,.36-.8,.5-.69,.34-1.42,.47-2.16,.2-.32-.12-.63-.28-.91-.47-1.17-.76-2.09-1.79-2.96-2.86-2.32-2.86-4.43-5.86-6.17-9.11-.87-1.61-1.64-3.28-2.45-4.93-.09-.18-.17-.36-.25-.51-.09-.02-.15-.06-.2-.05-.2,.03-.4,.06-.59,.1-2.08,.46-4.18,.71-6.31,.73-2.5,.03-4.99,.01-7.48-.3-1.08-.13-2.18-.18-3.24-.41-2.27-.48-4.52-1.04-6.77-1.61-.51-.13-.99-.17-1.5-.03-6.9,1.79-13.81,3.57-20.71,5.35-8.79,2.27-17.58,4.54-26.36,6.83-.71,.19-1.41,.19-2.13,.18-.37,0-.66-.2-.85-.5-.11-.17-.19-.35-.28-.53-.32-.64-.6-1.31-.95-1.93-1.06-1.84-2.13-3.67-3.23-5.49-2.08-3.47-3.93-7.07-5.57-10.77-.51-1.15-.94-2.34-1.38-3.52-.33-.88-.38-1.8-.24-2.72,.18-1.23,.54-2.4,1.14-3.5,.37-.69,.84-1.31,1.41-1.84,1.8-1.68,3.85-2.04,6.12-1.1,1.37,.57,2.57,1.4,3.62,2.44,2.05,2.03,3.56,4.41,4.56,7.12,1.14,3.13,1.66,6.38,1.69,9.7,0,.72-.06,1.43-.09,2.15-.01,.34-.1,.68,0,1.01,.08,.02,.13,.04,.19,.04,.09,0,.17,0,.26-.03,10.8-2.82,21.61-5.64,32.41-8.46,.03,0,.06-.02,.07-.04,.01-.02,0-.06,0-.14-.16-.14-.35-.31-.55-.48-1.37-1.18-2.75-2.35-4.11-3.54-1.08-.95-2.13-1.92-3.2-2.88-.94-.85-1.82-1.75-2.56-2.79-2.21-3.1-4.04-6.4-5.08-10.09-.24-.86-.47-1.71-.69-2.58-.65-2.59-1.15-5.21-1.32-7.88-.06-.89-.11-1.78-.19-2.66-.21-2.24-.08-4.47,.12-6.7,.13-1.46,.3-2.91,.44-4.37,.01-.11,0-.22-.01-.35-.15-.09-.3-.18-.45-.26-.74-.39-1.5-.73-2.2-1.16-1.84-1.12-3.59-2.38-5.2-3.81-2.86-2.52-5.28-5.42-7.42-8.57-1.15-1.69-2.08-3.5-2.65-5.48-.52-1.79-1.02-3.58-1.53-5.37-.4-1.38-.78-2.76-.97-4.19-.02-.14-.07-.26-.12-.41-.17-.04-.3-.09-.44-.1-1.28-.13-2.57-.24-3.85-.37-1.56-.16-3.02-.62-4.34-1.51-2.21-1.49-3.39-4.2-2.8-7,.36-1.7,1.8-3.08,3.52-3.36,.16-.03,.32-.07,.42-.1,0-.66-.02-1.27,0-1.87,.05-1.02,.3-1.98,.95-2.81,.74-.94,1.72-1.3,2.89-1.17,.98,.12,1.87,.51,2.71,1.03,.19,.12,.38,.22,.58,.34,.19-.38,.34-.72,.53-1.04,.55-.92,1.36-1.48,2.45-1.53,.48-.02,.98,.05,1.43,.2,2.23,.74,3.77,2.23,4.63,4.41,.17,.42,.28,.86,.43,1.33,.2-.05,.37-.08,.53-.12,.97-.25,1.87-.12,2.72,.42,1.78,1.14,2.55,2.81,2.28,4.85-.26,1.99-1.09,3.79-2.42,5.33-.95,1.11-2.14,1.9-3.42,2.56-.22,.12-.44,.24-.67,.37,.03,.19,.04,.33,.07,.47,.18,.72,.37,1.44,.54,2.17,.69,2.87,1.84,5.54,3.51,7.99,.55,.8,1.08,1.63,1.61,2.44,1.56,2.4,3.5,4.47,5.69,6.3,.77,.64,1.64,1.16,2.47,1.72,.18,.12,.4,.18,.65,.29,.1-.23,.19-.4,.26-.58,.46-1.3,1.05-2.54,1.68-3.77,.56-1.07,1.11-2.14,1.66-3.21,1.09-2.12,2.39-4.11,3.78-6.05,.2-.28,.43-.54,.65-.8,1.43-1.67,3.08-3.09,4.85-4.37,.37-.27,.73-.55,1.09-.84,.22-.18,.44-.36,.56-.64,.11-.28,.34-.5,.63-.53,.54-.06,.88-.39,1.22-.73,1.3-1.29,2.78-2.31,4.47-3.01,.77-.32,1.53-.63,2.3-.95,1.64-.68,3.31-1.29,5.04-1.71,1.25-.3,2.49-.65,3.75-.92,2.16-.47,4.37-.6,6.57-.82,1.91-.2,3.84-.21,5.76-.2,1.9,.01,3.77,.27,5.64,.61,2,.36,3.96,.92,5.91,1.48,5.36,1.53,10.15,4.07,14.14,8.01,.12,.12,.25,.23,.38,.35,2.68,2.6,5.26,5.29,7.5,8.3,1.59,2.14,3.14,4.31,4.61,6.54,1.31,2,2.46,4.07,3.33,6.3,.07,.17,.06,.41,.33,.5,.1-.06,.24-.11,.34-.21,.31-.29,.64-.58,.91-.91,2.56-3.15,4.55-6.61,5.65-10.54,1-3.57,1.27-7.22,1.25-10.91,0-.8-.08-1.61-.2-2.4-.18-1.25-.42-2.49-.65-3.73-.03-.16-.1-.31-.15-.46-.45,.03-.85,.11-1.24,.08-1.07-.08-2.09-.33-3.04-.84-1.28-.69-2.38-1.6-3.26-2.76-1.16-1.53-1.92-3.25-2.41-5.1-.17-.65-.2-1.31-.13-1.96,.17-1.68,1.23-2.87,2.82-3.15,.51-.09,1.03-.08,1.54,.05,.33,.08,.66,.14,1.02,.22,.04-.21,.09-.38,.11-.54,.12-1.16,.53-2.23,1.12-3.23,.63-1.07,1.52-1.86,2.68-2.32,.98-.39,1.95-.38,2.92,.08,.94,.44,1.69,1.07,2.14,2.02,.08,.17,.2,.32,.32,.51,.28-.25,.51-.46,.75-.66,.53-.45,1.11-.81,1.76-1.06,.94-.37,1.84-.31,2.73,.19,.72,.41,1.25,1,1.61,1.74,.39,.81,.63,1.66,.7,2.56,.01,.21,.05,.42,.08,.67,.34-.09,.61-.18,.89-.24,1.37-.3,2.39,.08,3.08,1.3,1.29,2.3,1.4,4.63,.02,6.95-.46,.77-1.08,1.41-1.75,2-1,.88-2.14,1.53-3.33,2.12-.74,.37-1.48,.74-2.25,1.13,0,.18-.01,.27,0,.35Zm-83.93,7.11c-.06,2.22-.41,4.39-.89,6.55-.14,.64-.29,1.29-.44,1.93-.2,.82-.55,1.57-1.03,2.25-.3,.42-.6,.84-.9,1.26-1.73,2.48-1.88,5.95,.34,8.53,.36,.41,.71,.83,1.04,1.26,.76,.99,1.35,2.06,1.66,3.28,.2,.77,.24,1.54,0,2.29-.4,1.24-.58,2.51-.6,3.81,0,.25-.07,.51-.12,.76-.15,.65-.53,1.14-1.09,1.49-.19,.12-.4,.22-.6,.34-.83,.5-1.17,1.5-.77,2.39,.17,.39,.41,.76,.65,1.11,.96,1.37,1.76,2.82,2.54,4.29,.57,1.09,1.05,2.23,1.45,3.4,.22,.62,.37,1.26,.36,1.94-.02,1.31-.83,2.15-2.14,2.2-.28,0-.58-.02-.85-.08-.92-.21-1.83-.46-2.76-.66-.47-.1-.96-.12-1.45-.15-.46-.03-.76,.21-.91,.64-.11,.32-.2,.66-.31,.98-.12,.35-.22,.72-.4,1.04-.4,.74-1.01,1.24-1.87,1.37-.65,.1-1.3,.18-1.95,.3-.28,.05-.56,.14-.81,.26-.4,.18-.7,.48-.86,.91-.32,.86-.64,1.72-.79,2.63-.05,.31-.05,.63-.06,.94-.02,.3,.07,.55,.23,.81,1.16,1.97,2.55,3.74,4.32,5.21,.75,.62,1.45,1.3,2.18,1.96,1.88,1.69,3.74,3.4,5.78,4.89,2.49,1.82,5.19,3.24,8.13,4.21,2.64,.87,5.35,1.5,8.06,2.1,1.48,.33,3,.44,4.51,.6,2.29,.23,4.59,.15,6.88,.16,2.4,.02,4.74-.36,7.03-1.05,1.78-.54,3.57-1.04,5.37-1.53,2.24-.62,4.41-1.45,6.45-2.57,.43-.23,.86-.47,1.29-.69,4.11-2.08,7.68-4.89,10.97-8.08,.91-.88,1.68-1.88,2.47-2.87,.21-.27,.27-.54,.22-.87-.38-2.41-.83-4.8-1.86-7.04-.98-2.14-1.68-4.39-2.4-6.63-.55-1.71-.73-3.48-.55-5.27,.09-.95,.33-1.87,.76-2.72,.28-.56,.6-1.11,.9-1.66,.29-.51,.44-1.05,.42-1.64-.01-.63,0-1.26,.05-1.89,.11-1.17,.58-2.21,1.19-3.2,.27-.44,.56-.87,.83-1.31,.67-1.1,.8-2.26,.29-3.46-.27-.63-.59-1.24-.92-1.84-.56-1.01-1.1-2.01-1.36-3.15-.23-.96-.41-1.92-.1-2.89,.16-.52,.36-1.03,.61-1.51,.34-.66,.89-1.11,1.6-1.36,.26-.09,.52-.19,.84-.3-.09-.17-.15-.3-.23-.41-3.11-4.54-6.72-8.64-10.76-12.39-2.45-2.27-5.25-3.97-8.27-5.34-2.2-.99-4.53-1.6-6.86-2.23-1.52-.41-3.06-.75-4.62-.98-1.54-.24-3.08-.3-4.63-.29-.34,0-.69,.02-1.03,.02-1.87,0-3.73,.11-5.58,.34-.99,.13-1.99,.22-2.99,.33-1.2,.13-2.37,.42-3.53,.73-1.74,.47-3.5,.87-5.17,1.57-1.37,.57-2.76,1.13-4.12,1.74-1.11,.5-2.1,1.17-2.82,2.08,0,.43,0,.8,0,1.16Zm-15.04,53.78c.07-.19,.14-.38,.2-.57,.48-1.51,1.57-2.36,3.06-2.73,.64-.16,1.29-.26,1.95-.31,.52-.04,.77-.3,.9-.76,.14-.47,.25-.95,.42-1.4,.43-1.1,1.24-1.8,2.41-1.97,.53-.08,1.09-.04,1.62,.06,.96,.17,1.9,.43,2.84,.65,.25,.06,.5,.1,.76,.13,.08,0,.16-.04,.28-.07,.03-.38-.03-.74-.16-1.08-.27-.69-.5-1.41-.81-2.08-.72-1.53-1.49-3.04-2.45-4.44-.37-.54-.73-1.1-1.07-1.66-.84-1.41-.8-2.83-.04-4.25,.29-.55,.72-.96,1.24-1.29,.14-.09,.29-.19,.45-.25,.34-.14,.47-.4,.49-.74,.02-.2,.04-.4,.04-.6-.01-1.1,.16-2.17,.52-3.21,.27-.78,.19-1.51-.11-2.26-.27-.67-.63-1.29-1.08-1.85-.32-.41-.65-.8-.98-1.2-2.13-2.57-2.64-5.46-1.7-8.63,.23-.78,.57-1.5,1.02-2.17,.19-.29,.38-.58,.6-.84,.85-1.02,1.31-2.21,1.54-3.5,.35-1.98,.69-3.95,1.02-5.93,.01-.08-.02-.16-.03-.29-.12,.06-.23,.08-.32,.15-.89,.68-1.77,1.36-2.66,2.05-2.01,1.56-3.75,3.37-5.12,5.53-.98,1.55-1.98,3.09-2.78,4.75-.36,.75-.74,1.49-1.14,2.22-1.1,1.99-1.91,4.1-2.56,6.28-.57,1.93-1.11,3.85-1.43,5.84-.08,.51-.14,1.02-.18,1.54-.16,1.89-.35,3.77-.45,5.66-.06,1.17-.03,2.35,.03,3.52,.09,1.75,.22,3.49,.45,5.23,.33,2.39,.88,4.73,1.52,7.05,.28,.99,.62,1.97,.95,2.94,.11,.32,.27,.63,.4,.94h.17c.06-.14,.13-.29,.18-.44Zm50.52,24.02c-.15,.27,0,.44,.08,.61,1.46,3.18,3.07,6.29,5.11,9.15,.9,1.26,1.8,2.52,2.75,3.74,.58,.75,1.24,1.43,1.89,2.12,.29,.31,.66,.55,1,.81,.33,.26,.69,.25,1.04,.03,.24-.15,.48-.32,.71-.48,4.41-3.15,8.81-6.31,13.25-9.44,3.38-2.38,6.6-4.97,9.82-7.56,1.72-1.38,3.42-2.8,5.23-4.07,.28-.2,.55-.41,.81-.64,1.66-1.46,3.45-2.76,5.22-4.08,.3-.22,.57-.48,.85-.73,.95-.83,2.14-.47,2.47,.75,.04,.14,.06,.28,.08,.42,.14,.7,.29,1.4,.41,2.11,.44,2.5,1.2,4.9,2.17,7.23,.51,1.22,.98,2.45,1.53,3.65,.47,1.01,1,2,1.57,2.96,.74,1.25,1.75,2.27,2.97,3.06,.31,.2,.63,.38,1.02,.43,1.52,.2,2.37-.57,2.87-1.9,.14-.37,.18-.78,.2-1.18,.09-1.27-.04-2.52-.24-3.77-.56-3.52-1.8-6.81-3.45-9.95-.94-1.8-1.99-3.55-3.03-5.3-1.43-2.41-3.31-4.46-5.3-6.43-.08-.08-.18-.13-.31-.23-.94,.76-1.87,1.52-2.82,2.26-2.05,1.62-4.09,3.24-6.16,4.83-2.78,2.13-5.57,4.24-8.36,6.35-.11,.09-.23,.17-.34,.27-2.5,2.25-5.3,4.12-7.96,6.17-.18,.14-.36,.28-.55,.41-2.25,1.48-4.4,3.11-6.59,4.68-.75,.54-1.5,1.06-2.23,1.61-.91,.68-1.9,1.17-2.97,1.51-.22,.07-.44,.12-.67,.15-.61,.07-1.13-.12-1.52-.61-.11-.14-.21-.28-.3-.42-1.08-1.66-2.17-3.31-3.25-4.97-.76-1.18-1.43-2.42-1.98-3.71-.14-.34-.33-.66-.55-1.08-1.58,.41-3.09,.7-4.49,1.23Zm-31.31-2.19c-.24-.14-.33-.19-.42-.24-1.29-.68-2.59-1.34-3.87-2.05-.4-.22-.73-.29-1.2-.16-5.56,1.47-11.13,2.91-16.7,4.36-6.04,1.57-12.08,3.15-18.11,4.72-.25,.07-.5,.14-.75,.19-.75,.15-1.3-.27-1.35-1.03-.01-.17,0-.34,0-.52,.02-1.72,.06-3.44,.04-5.16-.03-2.84-.62-5.58-1.61-8.23-.79-2.12-2-3.99-3.54-5.65-.95-1.02-2.05-1.84-3.33-2.39-.75-.32-1.53-.47-2.34-.21-.47,.15-.89,.38-1.27,.7-.58,.49-1.02,1.09-1.34,1.77-.43,.89-.68,1.82-.8,2.8-.07,.56,.05,1.09,.24,1.6,.38,1.02,.75,2.05,1.19,3.04,1.61,3.65,3.43,7.19,5.47,10.62,1.12,1.87,2.22,3.75,3.32,5.63,.26,.44,.47,.92,.71,1.38,.09,.17,.18,.35,.29,.55,15.1-3.9,30.17-7.79,45.38-11.72Zm65.49-47.68c.18-.07,.34-.1,.47-.18,.97-.56,1.86-1.23,2.69-2,4.19-3.9,6.96-8.63,8.33-14.19,1.05-4.24,1.43-8.53,1.12-12.89-.11-1.55-.18-3.09-.26-4.64-.04-.63-.1-1.25-.29-1.86-.21-.7,0-.98,.7-1.32,1.49-.73,2.98-1.47,4.44-2.27,.83-.46,1.54-1.1,2.15-1.84,1.27-1.54,1.37-3.22,.57-4.99-.06-.13-.14-.25-.22-.37-.15-.24-.37-.35-.66-.31-.54,.08-1.07,.22-1.56,.47-.31,.16-.54,.4-.7,.72-.36,.72-.73,1.43-1.12,2.13-.14,.25-.3,.49-.5,.69-.37,.36-.95,.39-1.34,.1-.45-.33-.57-.85-.29-1.37,.42-.79,.85-1.56,1.26-2.35,.3-.56,.47-1.16,.56-1.8,.14-.95-.07-1.82-.45-2.67-.05-.1-.11-.2-.17-.3-.48-.69-1.04-.84-1.79-.45-.71,.38-1.34,.89-1.86,1.51-.4,.48-.6,1.03-.59,1.67,.02,.83,0,1.66,.01,2.5,0,.29-.01,.57-.22,.81-.26,.31-.6,.45-1,.37-.46-.1-.76-.39-.88-.85-.05-.22-.05-.46-.05-.68,0-.77,.01-1.55,0-2.32-.01-.95-.18-1.88-.54-2.77-.28-.69-.79-1.1-1.49-1.32-.23-.07-.44-.07-.67-.02-.64,.16-1.18,.5-1.56,1.02-.91,1.26-1.47,2.65-1.38,4.24,.02,.3,.12,.54,.29,.78,.51,.73,.99,1.48,1.45,2.23,.16,.26,.29,.56,.37,.87,.16,.62-.24,1.24-.84,1.39-.57,.14-1.14-.2-1.31-.81-.3-1.09-.95-1.96-1.71-2.74-.64-.66-1.44-1.02-2.4-.94-.49,.04-.81,.28-.98,.72-.14,.38-.25,.78-.16,1.18,.57,2.72,1.71,5.1,4.1,6.72,.82,.56,1.74,.87,2.71,1.04,.51,.09,1.03,.03,1.53-.14,.98-.33,1.54,0,1.72,1.01,.12,.65,.21,1.3,.32,1.95,.22,1.3,.5,2.59,.63,3.9,.16,1.58,.15,3.15,.06,4.73-.09,1.57-.21,3.15-.46,4.71-.5,3.17-1.38,6.21-2.88,9.06-.95,1.81-2,3.55-3.24,5.17-.79,1.04-1.7,1.94-2.86,2.57-.05,.03-.08,.08-.19,.18l1.12,3.95Zm-88.44-6.99c-.12-.06-.24-.14-.37-.19-1.48-.6-2.79-1.46-3.98-2.52-2.28-2.03-4.33-4.27-5.97-6.86-.44-.7-.9-1.4-1.36-2.09-1.78-2.61-2.99-5.47-3.74-8.54-.24-1-.51-2-.77-3-.18-.69-.07-1,.51-1.39,.43-.28,.85-.57,1.3-.81,.96-.52,1.82-1.19,2.6-1.96,1.16-1.15,1.77-2.59,2.15-4.14,.1-.43,.08-.92,.01-1.37-.14-.92-.72-1.54-1.54-1.94-.28-.13-.55-.09-.83,.04-.48,.23-.85,.59-1.15,1.01-.42,.58-.81,1.18-1.22,1.77-.17,.23-.34,.47-.56,.65-.33,.27-.72,.32-1.13,.13-.68-.33-.87-1.17-.34-1.73,.56-.59,.91-1.32,1.42-1.94,.15-.19,.21-.4,.16-.64-.36-1.74-1.07-3.28-2.59-4.31-.42-.28-.9-.51-1.39-.67-.68-.22-1.08-.02-1.4,.63-.45,.9-.57,1.87-.36,2.85,.14,.64,.35,1.27,.53,1.9,.08,.3,.19,.61,.22,.92,.06,.7-.44,1.24-1.12,1.24-.57,0-1.01-.33-1.06-.91-.04-.47-.19-.89-.31-1.33-.16-.61-.32-1.22-.43-1.84-.09-.48-.31-.85-.69-1.14-.65-.49-1.35-.89-2.12-1.1-.99-.28-1.46-.04-1.74,.98-.28,1.01-.24,2.05,.15,3.04,.3,.76,.76,1.41,1.33,1.99,.32,.33,.65,.65,.96,.99,.26,.28,.43,.62,.35,1.02-.08,.39-.3,.7-.68,.82-.44,.14-.86,.07-1.19-.29-.54-.59-1.12-1.16-1.6-1.8-.34-.44-.68-.83-1.23-.98-.08-.02-.16-.07-.22-.09-.67,.04-1.11,.45-1.52,.9-.36,.4-.5,.89-.55,1.42-.16,1.99,.61,3.51,2.33,4.54,.62,.37,1.29,.63,2,.76,.59,.12,1.19,.17,1.79,.23,.91,.1,1.82,.19,2.74,.28,.31,.03,.63,.06,.94,.07,.56,.03,.95,.28,1.26,.75,.29,.44,.53,.89,.58,1.41,.14,1.38,.53,2.7,.91,4.02,.48,1.71,.95,3.42,1.45,5.13,.57,1.94,1.49,3.72,2.64,5.38,2,2.89,4.25,5.57,6.89,7.89,1.75,1.54,3.64,2.89,5.66,4.04,.37,.21,.75,.41,1.12,.61,.02,.01,.06,0,.12-.02,.34-1.25,.69-2.52,1.04-3.83Zm82.69,33.27c.52-1.12,1.01-2.25,1.45-3.4,.75-1.95,1.46-3.92,2-5.95,.76-2.88,1.05-5.81,.96-8.78-.05-1.75-.13-3.5-.37-5.23-.3-2.26-.88-4.44-1.61-6.59-.99-2.92-2.29-5.69-4.07-8.22-.11-.16-.23-.33-.35-.5-.55-.05-1.04,.12-1.48,.38-.18,.11-.33,.32-.44,.51-.49,.81-.5,1.69-.3,2.58,.16,.73,.44,1.42,.8,2.08,.26,.48,.54,.95,.8,1.43,.38,.71,.71,1.44,.91,2.22,.39,1.49,.14,2.9-.56,4.24-.23,.43-.52,.82-.77,1.24-.22,.37-.44,.74-.64,1.12-.32,.62-.49,1.28-.48,1.99,0,.4,0,.8,0,1.21,0,.91-.21,1.76-.65,2.56-.19,.35-.39,.7-.59,1.05-.86,1.44-1.06,3.02-.9,4.65,.1,.97,.31,1.92,.62,2.85,.7,2.12,1.4,4.25,2.31,6.3,.62,1.39,1.11,2.83,1.36,4.34,.05,.27,.07,.57,.38,.86,.61-1.01,1.18-1.94,1.63-2.93Z"/><path d="M198.48,55.28c0,.4,.05,.81-.01,1.2-.08,.56-.57,.9-1.12,.84-.48-.05-.8-.33-.93-.78-.1-.36-.15-.73-.2-1.1-.22-1.88-.6-3.73-1.18-5.54-.42-1.33-1.03-2.54-2-3.56-.32-.33-.61-.68-.91-1.03-.13-.15-.27-.3-.38-.46-.49-.71-.35-1.46,.36-1.94,.26-.17,.55-.31,.84-.42,.96-.33,1.81-.86,2.64-1.41,1.32-.87,2.35-2,3.05-3.43,.2-.41,.43-.81,.65-1.21,.24-.43,.61-.67,1.11-.68,.14,0,.29-.02,.43-.02,.74,0,1.18,.51,1.02,1.23-.05,.22-.15,.43-.22,.65-.36,1.05-.5,2.1-.3,3.21,.21,1.17,.57,2.27,1.13,3.32,.32,.61,.67,1.2,1,1.81,.13,.25,.27,.51,.35,.78,.27,.82-.07,1.56-.87,1.89-.23,.1-.49,.14-.74,.21-1.16,.31-2.08,.94-2.7,1.98-.34,.57-.62,1.17-.73,1.83-.14,.87-.24,1.76-.35,2.64h.04Zm2.92-8.56c-.47-.94-.99-1.86-1.38-2.83-.38-.94-.62-1.94-.95-2.98-1.37,1.5-3.04,2.53-4.86,3.44,.68,.91,1.5,1.66,1.96,2.64,.45,.96,.81,1.95,1.23,2.98,1.9-2.31,1.5-1.9,4-3.26Z"/><path d="M42.69,65.09c.33-.22,.69-.41,1.05-.58,1.01-.49,1.97-1.05,2.87-1.73,1.3-.99,2.37-2.16,2.99-3.7,.07-.19,.16-.37,.27-.54,.43-.64,1.28-.54,1.65-.15,.44,.46,.71,.95,.6,1.62-.08,.51-.05,1.02,.06,1.54,.22,1.07,.71,1.99,1.42,2.81,.58,.67,1.19,1.32,1.77,1.99,.21,.24,.42,.48,.56,.76,.33,.65,.03,1.36-.66,1.6-.18,.06-.39,.08-.59,.09-.31,.01-.63,0-.95,.01-1.15,.05-2.04,.56-2.6,1.57-.25,.45-.46,.93-.62,1.41-.21,.62-.35,1.27-.52,1.91-.07,.25-.11,.51-.21,.74-.37,.85-1.38,.97-1.94,.22-.17-.23-.28-.5-.4-.76-.32-.7-.64-1.41-.95-2.12-.47-1.07-1.15-1.98-2.01-2.76-.38-.35-.79-.67-1.18-1.01-.28-.24-.57-.48-.82-.75-.26-.28-.43-.61-.42-.97,0-.52,.17-.89,.63-1.2Zm4.91-.4c-.9,.59-1.82,1.15-2.73,1.72,.71,.7,1.4,1.37,2.07,2.07,.65,.68,1.07,1.52,1.57,2.44,.46-1.08,.89-2,1.63-2.75,.72-.73,1.59-1.19,2.65-1.41-.57-.74-1.08-1.37-1.56-2.04-.49-.67-.77-1.46-1.08-2.39-.82,.95-1.6,1.75-2.54,2.36Z"/><path d="M17.45,100.02c2.95,.07,5.91,.18,8.86,.2,3.15,.02,6.31-.05,9.47-.07,.29,0,.57-.02,.82-.19,.31-.2,.48-.49,.45-.87-.03-.36-.32-.72-.68-.81-.19-.05-.4-.06-.6-.07-1.18-.04-2.35-.1-3.53-.11-3.07-.03-6.14,0-9.21-.06-2.12-.04-4.24-.16-6.36-.25-.37-.01-.75-.04-1.12-.03-.72,.02-1.2,.47-1.19,1.08,0,.59,.54,1.11,1.19,1.13,.63,.02,1.26,0,1.89,0v.04Z"/><path d="M186.73,93.46c0,.46,.24,.84,.62,.98,.41,.16,.8,.12,1.12-.19,.2-.2,.36-.44,.51-.68,1.49-2.35,2.98-4.7,4.46-7.05,1.56-2.47,3.13-4.94,4.69-7.42,.14-.22,.29-.43,.4-.66,.24-.53,.09-1.07-.36-1.37-.44-.3-1-.21-1.39,.23-.13,.15-.24,.32-.34,.49-3.11,4.92-6.22,9.84-9.34,14.76-.18,.29-.39,.57-.37,.91Z"/><path d="M42.12,92.4c.76,0,1.25-.69,.95-1.34-.79-1.65-1.21-3.45-1.97-5.12-.77-1.69-1.43-3.43-2.15-5.15-.12-.29-.23-.59-.39-.86-.3-.51-.83-.69-1.32-.49-.54,.23-.79,.74-.63,1.34,.03,.11,.08,.21,.13,.32,1.29,3.12,2.57,6.24,3.87,9.36,.2,.47,.43,.94,.68,1.38,.19,.34,.49,.56,.83,.54Z"/><path d="M190.35,97.23c0,.9,.74,1.4,1.44,1.11,.16-.07,.3-.16,.44-.27,2.19-1.71,4.38-3.43,6.57-5.14,.33-.26,.56-.56,.55-1.01-.03-.72-.73-1.2-1.39-.92-.21,.09-.4,.22-.58,.35-2.1,1.64-4.2,3.28-6.3,4.93-.16,.12-.33,.24-.44,.4-.14,.2-.22,.45-.27,.55Z"/><path d="M185.53,84.64c-.03-.11-.05-.34-.15-.55-.16-.34-.45-.5-.83-.5-.38,0-.67,.18-.82,.52-.1,.23-.16,.49-.21,.74-.35,1.89-.69,3.77-1.03,5.66-.05,.25-.07,.51-.07,.77,.01,.54,.34,.92,.86,1.03,.46,.1,.98-.2,1.16-.69,.09-.24,.13-.5,.17-.75,.29-1.93,.57-3.85,.86-5.78,.02-.11,.02-.23,.05-.46Z"/><path d="M38.38,94.82c.77,0,1.21-.74,.85-1.4-.07-.12-.16-.23-.26-.34-1.32-1.47-2.64-2.94-3.96-4.41-.13-.15-.27-.29-.43-.41-.41-.31-.99-.28-1.35,.04-.36,.32-.44,.89-.18,1.33,.07,.12,.16,.23,.26,.34,1.38,1.46,2.75,2.91,4.13,4.36,.26,.27,.55,.51,.93,.49Z"/><path class="cls-2" d="M97.39,36.27c1.36-.61,2.74-1.16,4.12-1.74,1.67-.7,3.43-1.1,5.17-1.57,1.16-.32,2.33-.6,3.53-.73,1-.11,2-.21,2.99-.33,1.85-.24,3.71-.35,5.58-.34,.34,0,.69-.01,1.03-.02,1.55-.02,3.1,.05,4.63,.29,1.56,.24,3.1,.57,4.62,.98,2.32,.63,4.65,1.23,6.86,2.23,3.03,1.36,5.82,3.06,8.27,5.34,4.04,3.74,7.65,7.84,10.76,12.39,.08,.11,.13,.24,.23,.41-.32,.12-.57,.21-.84,.3-.71,.25-1.26,.7-1.6,1.36-.25,.48-.45,.99-.61,1.51-.31,.97-.12,1.93,.1,2.89,.27,1.13,.81,2.14,1.36,3.15,.33,.6,.66,1.21,.92,1.84,.5,1.19,.37,2.35-.29,3.46-.27,.44-.56,.87-.83,1.31-.61,.99-1.08,2.03-1.19,3.2-.06,.63-.07,1.26-.05,1.89,.01,.59-.14,1.13-.42,1.64-.31,.55-.62,1.1-.9,1.66-.43,.85-.66,1.77-.76,2.72-.18,1.79,0,3.56,.55,5.27,.72,2.24,1.41,4.49,2.4,6.63,1.03,2.24,1.48,4.63,1.86,7.04,.05,.34,0,.61-.22,.87-.79,.99-1.56,1.99-2.47,2.87-3.29,3.2-6.86,6.01-10.97,8.08-.43,.22-.86,.45-1.29,.69-2.05,1.12-4.21,1.94-6.45,2.57-1.79,.5-3.58,1-5.37,1.53-2.29,.69-4.63,1.06-7.03,1.05-2.29-.01-4.59,.07-6.88-.16-1.51-.15-3.03-.27-4.51-.6-2.71-.6-5.41-1.23-8.06-2.1-2.94-.97-5.64-2.39-8.13-4.21-2.04-1.49-3.91-3.2-5.78-4.89-.73-.65-1.43-1.33-2.18-1.96-1.77-1.47-3.16-3.24-4.32-5.21-.15-.26-.24-.52-.23-.81,.02-.31,.01-.63,.06-.94,.16-.91,.47-1.77,.79-2.63,.16-.43,.46-.73,.86-.91,.26-.12,.54-.21,.81-.26,.65-.12,1.3-.2,1.95-.3,.86-.13,1.47-.63,1.87-1.37,.18-.32,.28-.69,.4-1.04,.11-.32,.2-.66,.31-.98,.15-.42,.45-.67,.91-.64,.48,.03,.98,.05,1.45,.15,.92,.19,1.84,.45,2.76,.66,.28,.06,.57,.09,.85,.08,1.31-.05,2.12-.89,2.14-2.2,0-.67-.14-1.31-.36-1.94-.41-1.17-.88-2.3-1.45-3.4-.77-1.47-1.58-2.93-2.54-4.29-.25-.35-.48-.72-.65-1.11-.4-.89-.06-1.89,.77-2.39,.2-.12,.4-.22,.6-.34,.56-.35,.94-.84,1.09-1.49,.06-.25,.12-.51,.12-.76,.02-1.3,.2-2.57,.6-3.81,.24-.75,.2-1.52,0-2.29-.31-1.22-.9-2.29-1.66-3.28-.33-.43-.68-.85-1.04-1.26-2.22-2.58-2.07-6.05-.34-8.53,.29-.42,.6-.84,.9-1.26,.48-.69,.84-1.44,1.03-2.25,.16-.64,.3-1.28,.44-1.93,.48-2.16,.82-4.34,.89-6.55,.01-.37,0-.74,0-1.16,.72-.91,1.72-1.58,2.82-2.08Zm50.25,23.05c.15-.13,.31-.27,.42-.43,.24-.35,.21-.82-.04-1.13-.28-.34-.74-.43-1.17-.22-.23,.12-.44,.28-.67,.39-.24,.11-.44,.06-.61-.16-.17-.23-.32-.47-.5-.7-.24-.31-.53-.52-.94-.51-.52,0-.92,.36-.98,.89-.03,.33,.04,.63,.23,.9,.3,.42,.61,.83,.92,1.25-.11,.3-.23,.62-.35,.94-.24,.65-.52,1.27-.89,1.86-.5,.8-.96,1.63-1.46,2.43-.87,1.4-2,2.56-3.33,3.55-2.98,2.22-6.34,3.51-9.95,4.25-1.75,.36-3.51,.47-5.3,.39-1.41-.07-2.81-.14-4.18-.45-1.23-.27-2.43-.67-3.65-.96-1.29-.31-2.5-.81-3.69-1.39-.65-.31-1.25-.69-1.83-1.12-2.77-2.09-5.09-4.62-7.15-7.4-.58-.79-.97-1.69-1.31-2.6,.31-.51,.55-1.03,.46-1.63-.03-.22-.08-.45-.18-.66-.19-.39-.62-.6-.99-.53-.41,.08-.72,.38-.79,.81-.03,.19,0,.39,0,.55-.22,.34-.53,.42-.84,.44-.31,.02-.63-.02-.94-.04-.2-.01-.4-.05-.6-.07-.65-.06-1.32,.73-.84,1.53,.26,.43,.68,.6,1.14,.67,.28,.04,.57,.03,.86,.03,.26,0,.51,0,.8,0,.15,.3,.29,.57,.42,.85,.42,.92,.94,1.77,1.57,2.56,2.01,2.56,4.2,4.93,6.78,6.94,1.58,1.24,3.34,2.12,5.24,2.71,1.8,.56,3.64,1.01,5.48,1.44,.92,.21,1.87,.32,2.81,.39,1.98,.14,3.96,.18,5.92-.13,2.5-.4,4.91-1.12,7.25-2.09,2.12-.88,3.99-2.14,5.77-3.55,1.07-.84,1.93-1.88,2.67-3.01,.38-.58,.72-1.17,1.08-1.76,.84-1.38,1.53-2.82,1.75-4.45,.62-.14,1.16-.39,1.63-.77Zm-17.15,23.47c-.56,.5-1.06,1.05-1.45,1.7-.27,.44-.56,.87-.8,1.32-.64,1.16-1.52,2.07-2.64,2.77-.51,.32-1,.67-1.48,1.04-1.23,.96-1.95,2.23-2.27,3.74-.18,.84-.12,1.67,.21,2.45,.27,.63,.6,1.24,.96,1.82,.3,.49,.69,.91,1.03,1.38,.27,.37,.53,.75,.78,1.13,.38,.56,.41,1.17,.22,1.81-.16,.55-.28,1.11-.39,1.67-.45,2.39,1.28,5.04,4.09,5.43,.55,.08,1.08-.04,1.62-.13,.88-.15,1.73-.42,2.53-.8,1.66-.8,2.8-2.06,3.38-3.82,.32-.99,.49-2,.67-3.02,.05-.28,.12-.56,.17-.84,.14-.67,.47-1.22,.98-1.68,.41-.36,.81-.73,1.2-1.12,.81-.82,1.36-1.78,1.5-2.93,.25-2.03-.42-3.72-1.97-5.06-.3-.26-.66-.46-.99-.69-.28-.2-.56-.4-.82-.62-.12-.11-.21-.27-.25-.43-.1-.33-.17-.66-.22-1-.06-.4-.09-.79-.12-1.19-.03-.4,.02-.81-.06-1.2-.28-1.56-1.56-2.77-3.58-2.68-.82-.01-1.62,.33-2.31,.95Zm-41.52,16.49c-.2,.88,.07,1.71,.61,2.43,.22,.3,.48,.57,.73,.84,.36,.39,.63,.81,.74,1.34,.22,1.03,.81,1.82,1.58,2.5,.78,.69,1.66,1.22,2.63,1.6,.62,.24,1.27,.34,1.94,.3,1.16-.07,2.01-.71,2.35-1.81,.38-1.23,.45-2.46-.1-3.69-.96-2.16-2.35-3.99-4.21-5.46-.78-.62-1.66-1.01-2.69-.96-1.66-.06-3.23,1.34-3.58,2.93Zm38.76-42.39c.32-1.02,.35-2.03,.01-3.04-.66-1.95-1.76-3.6-3.43-4.83-.49-.36-1.01-.65-1.61-.8-.34-.09-.67-.1-1,.06-.34,.17-.53,.45-.54,.82-.01,.38,.2,.65,.51,.84,.05,.03,.1,.06,.16,.06,.79,.14,1.31,.67,1.83,1.21,.78,.81,1.41,1.73,1.86,2.77,.24,.57,.36,1.16,.26,1.76-.05,.3-.14,.63-.31,.88-.67,.93-1.58,1.41-2.74,1.26-1.06-.14-1.97-.6-2.74-1.33-.41-.4-.78-.84-1.17-1.26-.25-.27-.49-.56-.75-.82-.3-.3-.69-.4-1.11-.33-.73,.12-1.07,.88-.69,1.51,.03,.05,.06,.1,.1,.14,.66,.72,1.29,1.46,1.98,2.15,.99,1,2.18,1.68,3.57,1.96,.39,.08,.79,.11,1.19,.17,1.67,.13,4.04-1.32,4.62-3.16Zm9.47-10.87c.58-.6,1.03-1.31,1.34-2.08,.09-.23,.15-.5,.15-.75,0-.41-.3-.76-.7-.88-.37-.11-.8,.06-1.04,.42-.05,.07-.08,.15-.12,.23-.91,2.15-3.75,3.99-6.92,2.94-.85-.28-1.63-.68-2.31-1.28-.84-.74-1.44-1.62-1.69-2.73-.1-.45-.2-.89-.33-1.33-.19-.61-.65-.93-1.21-.87-.62,.07-1.1,.69-.94,1.3,.21,.8,.43,1.61,.71,2.38,.65,1.74,1.91,2.98,3.5,3.87,1.26,.71,2.63,1.13,3.91,1.06,2.34,.04,4.15-.74,5.64-2.28Zm-17.99-1.54c1.31-.71,2.11-1.82,2.49-3.24,.06-.22,.1-.45,.09-.68-.02-.52-.42-.93-.91-.98-.45-.04-.88,.26-.98,.78-.24,1.22-1.01,1.96-2.1,2.43-2.35,1.01-4.54,.67-6.53-.89-.76-.6-1.23-1.43-1.53-2.35-.13-.41-.21-.83-.32-1.25-.05-.19-.08-.39-.16-.58-.23-.54-.69-.77-1.25-.64-.5,.12-.86,.62-.77,1.18,.18,1.04,.41,2.07,.91,3.03,.72,1.39,1.76,2.46,3.16,3.18,1.19,.61,2.42,1.02,3.88,1.05,1.34-.06,2.73-.35,4.02-1.05Z"/><path class="cls-3" d="M79.35,93.74c.06-.15,.13-.3,.18-.44,.07-.19,.14-.38,.2-.57,.48-1.51,1.57-2.36,3.06-2.73,.64-.16,1.29-.26,1.95-.31,.52-.04,.77-.3,.9-.76,.14-.47,.25-.95,.42-1.4,.43-1.1,1.24-1.8,2.41-1.97,.53-.08,1.09-.04,1.62,.06,.96,.17,1.9,.43,2.84,.65,.25,.06,.5,.1,.76,.13,.08,0,.16-.04,.28-.07,.03-.38-.03-.74-.16-1.08-.27-.69-.5-1.41-.81-2.08-.72-1.53-1.49-3.04-2.45-4.44-.37-.54-.73-1.1-1.07-1.66-.84-1.41-.8-2.83-.04-4.25,.29-.55,.72-.96,1.24-1.29,.14-.09,.29-.19,.45-.25,.34-.14,.47-.4,.49-.74,.02-.2,.04-.4,.04-.6-.01-1.1,.16-2.17,.52-3.21,.27-.78,.19-1.51-.11-2.26-.27-.67-.63-1.29-1.08-1.85-.32-.41-.65-.8-.98-1.2-2.13-2.57-2.64-5.46-1.7-8.63,.23-.78,.57-1.5,1.02-2.17,.19-.29,.38-.58,.6-.84,.85-1.02,1.31-2.21,1.54-3.5,.35-1.98,.69-3.95,1.02-5.93,.01-.08-.02-.16-.03-.29-.12,.06-.23,.08-.32,.15-.89,.68-1.77,1.36-2.66,2.05-2.01,1.56-3.75,3.37-5.12,5.53-.98,1.55-1.98,3.09-2.78,4.75-.36,.75-.74,1.49-1.14,2.22-1.1,1.99-1.91,4.1-2.56,6.28-.57,1.93-1.11,3.85-1.43,5.84-.08,.51-.14,1.02-.18,1.54-.16,1.89-.35,3.77-.45,5.66-.06,1.17-.03,2.35,.03,3.52,.09,1.75,.22,3.49,.45,5.23,.33,2.39,.88,4.73,1.52,7.05,.28,.99,.62,1.97,.95,2.94,.11,.32,.27,.63,.4,.94h.17Z"/><path class="cls-2" d="M134.54,116.09c-1.58,.41-3.09,.7-4.49,1.23-.15,.27,0,.44,.08,.61,1.46,3.18,3.07,6.29,5.11,9.15,.9,1.26,1.8,2.52,2.75,3.74,.58,.75,1.24,1.43,1.89,2.12,.29,.31,.66,.55,1,.81,.33,.26,.69,.25,1.04,.03,.24-.15,.48-.32,.71-.48,4.41-3.15,8.81-6.31,13.25-9.44,3.38-2.38,6.6-4.97,9.82-7.56,1.72-1.38,3.42-2.8,5.23-4.07,.28-.2,.55-.41,.81-.64,1.66-1.46,3.45-2.76,5.22-4.08,.3-.22,.57-.48,.85-.73,.95-.83,2.14-.47,2.47,.75,.04,.14,.06,.28,.08,.42,.14,.7,.29,1.4,.41,2.11,.44,2.5,1.2,4.9,2.17,7.23,.51,1.22,.98,2.45,1.53,3.65,.47,1.01,1,2,1.57,2.96,.74,1.25,1.75,2.27,2.97,3.06,.31,.2,.63,.38,1.02,.43,1.52,.2,2.37-.57,2.87-1.9,.14-.37,.18-.78,.2-1.18,.09-1.27-.04-2.52-.24-3.77-.56-3.52-1.8-6.81-3.45-9.95-.94-1.8-1.99-3.55-3.03-5.3-1.43-2.41-3.31-4.46-5.3-6.43-.08-.08-.18-.13-.31-.23-.94,.76-1.87,1.52-2.82,2.26-2.05,1.62-4.09,3.24-6.16,4.83-2.78,2.13-5.57,4.24-8.36,6.35-.11,.09-.23,.17-.34,.27-2.5,2.25-5.3,4.12-7.96,6.17-.18,.14-.36,.28-.55,.41-2.25,1.48-4.4,3.11-6.59,4.68-.75,.54-1.5,1.06-2.23,1.61-.91,.68-1.9,1.17-2.97,1.51-.22,.07-.44,.12-.67,.15-.61,.07-1.13-.12-1.52-.61-.11-.14-.21-.28-.3-.42-1.08-1.66-2.17-3.31-3.25-4.97-.76-1.18-1.43-2.42-1.98-3.71-.14-.34-.33-.66-.55-1.08Z"/><path class="cls-2" d="M53.36,126.84c15.1-3.9,30.17-7.79,45.38-11.72-.24-.14-.33-.19-.42-.24-1.29-.68-2.59-1.34-3.87-2.05-.4-.22-.73-.29-1.2-.16-5.56,1.47-11.13,2.91-16.7,4.36-6.04,1.57-12.08,3.15-18.11,4.72-.25,.07-.5,.14-.75,.19-.75,.15-1.3-.27-1.35-1.03-.01-.17,0-.34,0-.52,.02-1.72,.06-3.44,.04-5.16-.03-2.84-.62-5.58-1.61-8.23-.79-2.12-2-3.99-3.54-5.65-.95-1.02-2.05-1.84-3.33-2.39-.75-.32-1.53-.47-2.34-.21-.47,.15-.89,.38-1.27,.7-.58,.49-1.02,1.09-1.34,1.77-.43,.89-.68,1.82-.8,2.8-.07,.56,.05,1.09,.24,1.6,.38,1.02,.75,2.05,1.19,3.04,1.61,3.65,3.43,7.19,5.47,10.62,1.12,1.87,2.22,3.75,3.32,5.63,.26,.44,.47,.92,.71,1.38,.09,.17,.18,.35,.29,.55Z"/><path class="cls-2" d="M163.11,63.5l1.12,3.95c.18-.07,.34-.1,.47-.18,.97-.56,1.86-1.23,2.69-2,4.19-3.9,6.96-8.63,8.33-14.19,1.05-4.24,1.43-8.53,1.12-12.89-.11-1.55-.18-3.09-.26-4.64-.04-.63-.1-1.25-.29-1.86-.21-.7,0-.98,.7-1.32,1.49-.73,2.98-1.47,4.44-2.27,.83-.46,1.54-1.1,2.15-1.84,1.27-1.54,1.37-3.22,.57-4.99-.06-.13-.14-.25-.22-.37-.15-.24-.37-.35-.66-.31-.54,.08-1.07,.22-1.56,.47-.31,.16-.54,.4-.7,.72-.36,.72-.73,1.43-1.12,2.13-.14,.25-.3,.49-.5,.69-.37,.36-.95,.39-1.34,.1-.45-.33-.57-.85-.29-1.37,.42-.79,.85-1.56,1.26-2.35,.3-.56,.47-1.16,.56-1.8,.14-.95-.07-1.82-.45-2.67-.05-.1-.11-.2-.17-.3-.48-.69-1.04-.84-1.79-.45-.71,.38-1.34,.89-1.86,1.51-.4,.48-.6,1.03-.59,1.67,.02,.83,0,1.66,.01,2.5,0,.29-.01,.57-.22,.81-.26,.31-.6,.45-1,.37-.46-.1-.76-.39-.88-.85-.05-.22-.05-.46-.05-.68,0-.77,.01-1.55,0-2.32-.01-.95-.18-1.88-.54-2.77-.28-.69-.79-1.1-1.49-1.32-.23-.07-.44-.07-.67-.02-.64,.16-1.18,.5-1.56,1.02-.91,1.26-1.47,2.65-1.38,4.24,.02,.3,.12,.54,.29,.78,.51,.73,.99,1.48,1.45,2.23,.16,.26,.29,.56,.37,.87,.16,.62-.24,1.24-.84,1.39-.57,.14-1.14-.2-1.31-.81-.3-1.09-.95-1.96-1.71-2.74-.64-.66-1.44-1.02-2.4-.94-.49,.04-.81,.28-.98,.72-.14,.38-.25,.78-.16,1.18,.57,2.72,1.71,5.1,4.1,6.72,.82,.56,1.74,.87,2.71,1.04,.51,.09,1.03,.03,1.53-.14,.98-.33,1.54,0,1.72,1.01,.12,.65,.21,1.3,.32,1.95,.22,1.3,.5,2.59,.63,3.9,.16,1.58,.15,3.15,.06,4.73-.09,1.57-.21,3.15-.46,4.71-.5,3.17-1.38,6.21-2.88,9.06-.95,1.81-2,3.55-3.24,5.17-.79,1.04-1.7,1.94-2.86,2.57-.05,.03-.08,.08-.19,.18Z"/><path class="cls-2" d="M74.75,64.29c.34-1.25,.69-2.52,1.04-3.83-.12-.06-.24-.14-.37-.19-1.48-.6-2.79-1.46-3.98-2.52-2.28-2.03-4.33-4.27-5.97-6.86-.44-.7-.9-1.4-1.36-2.09-1.78-2.61-2.99-5.47-3.74-8.54-.24-1-.51-2-.77-3-.18-.69-.07-1,.51-1.39,.43-.28,.85-.57,1.3-.81,.96-.52,1.82-1.19,2.6-1.96,1.16-1.15,1.77-2.59,2.15-4.14,.1-.43,.08-.92,.01-1.37-.14-.92-.72-1.54-1.54-1.94-.28-.13-.55-.09-.83,.04-.48,.23-.85,.59-1.15,1.01-.42,.58-.81,1.18-1.22,1.77-.17,.23-.34,.47-.56,.65-.33,.27-.72,.32-1.13,.13-.68-.33-.87-1.17-.34-1.73,.56-.59,.91-1.32,1.42-1.94,.15-.19,.21-.4,.16-.64-.36-1.74-1.07-3.28-2.59-4.31-.42-.28-.9-.51-1.39-.67-.68-.22-1.08-.02-1.4,.63-.45,.9-.57,1.87-.36,2.85,.14,.64,.35,1.27,.53,1.9,.08,.3,.19,.61,.22,.92,.06,.7-.44,1.24-1.12,1.24-.57,0-1.01-.33-1.06-.91-.04-.47-.19-.89-.31-1.33-.16-.61-.32-1.22-.43-1.84-.09-.48-.31-.85-.69-1.14-.65-.49-1.35-.89-2.12-1.1-.99-.28-1.46-.04-1.74,.98-.28,1.01-.24,2.05,.15,3.04,.3,.76,.76,1.41,1.33,1.99,.32,.33,.65,.65,.96,.99,.26,.28,.43,.62,.35,1.02-.08,.39-.3,.7-.68,.82-.44,.14-.86,.07-1.19-.29-.54-.59-1.12-1.16-1.6-1.8-.34-.44-.68-.83-1.23-.98-.08-.02-.16-.07-.22-.09-.67,.04-1.11,.45-1.52,.9-.36,.4-.5,.89-.55,1.42-.16,1.99,.61,3.51,2.33,4.54,.62,.37,1.29,.63,2,.76,.59,.12,1.19,.17,1.79,.23,.91,.1,1.82,.19,2.74,.28,.31,.03,.63,.06,.94,.07,.56,.03,.95,.28,1.26,.75,.29,.44,.53,.89,.58,1.41,.14,1.38,.53,2.7,.91,4.02,.48,1.71,.95,3.42,1.45,5.13,.57,1.94,1.49,3.72,2.64,5.38,2,2.89,4.25,5.57,6.89,7.89,1.75,1.54,3.64,2.89,5.66,4.04,.37,.21,.75,.41,1.12,.61,.02,.01,.06,0,.12-.02Z"/><path class="cls-3" d="M156.85,96.66c.61-1.01,1.18-1.94,1.63-2.93,.52-1.12,1.01-2.25,1.45-3.4,.75-1.95,1.46-3.92,2-5.95,.76-2.88,1.05-5.81,.96-8.78-.05-1.75-.13-3.5-.37-5.23-.3-2.26-.88-4.44-1.61-6.59-.99-2.92-2.29-5.69-4.07-8.22-.11-.16-.23-.33-.35-.5-.55-.05-1.04,.12-1.48,.38-.18,.11-.33,.32-.44,.51-.49,.81-.5,1.69-.3,2.58,.16,.73,.44,1.42,.8,2.08,.26,.48,.54,.95,.8,1.43,.38,.71,.71,1.44,.91,2.22,.39,1.49,.14,2.9-.56,4.24-.23,.43-.52,.82-.77,1.24-.22,.37-.44,.74-.64,1.12-.32,.62-.49,1.28-.48,1.99,0,.4,0,.8,0,1.21,0,.91-.21,1.76-.65,2.56-.19,.35-.39,.7-.59,1.05-.86,1.44-1.06,3.02-.9,4.65,.1,.97,.31,1.92,.62,2.85,.7,2.12,1.4,4.25,2.31,6.3,.62,1.39,1.11,2.83,1.36,4.34,.05,.27,.07,.57,.38,.86Z"/><path class="cls-1" d="M197.4,49.97c1.9-2.31,1.5-1.9,4-3.26-.47-.94-.99-1.86-1.38-2.83-.38-.94-.62-1.94-.95-2.98-1.37,1.5-3.04,2.53-4.86,3.44,.68,.91,1.5,1.66,1.96,2.64,.45,.96,.81,1.95,1.23,2.98Z"/><path class="cls-1" d="M50.14,62.33c-.82,.95-1.6,1.75-2.54,2.36-.9,.59-1.82,1.15-2.73,1.72,.71,.7,1.4,1.37,2.07,2.07,.65,.68,1.07,1.52,1.57,2.44,.46-1.08,.89-2,1.63-2.75,.72-.73,1.59-1.19,2.65-1.41-.57-.74-1.08-1.37-1.56-2.04-.49-.67-.77-1.46-1.08-2.39Z"/><path d="M146.01,60.1c.62-.14,1.16-.39,1.63-.77,.15-.13,.31-.27,.42-.43,.24-.35,.21-.82-.04-1.13-.28-.34-.74-.43-1.17-.22-.23,.12-.44,.28-.67,.39-.24,.11-.44,.06-.61-.16-.17-.23-.32-.47-.5-.7-.24-.31-.53-.52-.94-.51-.52,0-.92,.36-.98,.89-.03,.33,.04,.63,.23,.9,.3,.42,.61,.83,.92,1.25-.11,.3-.23,.62-.35,.94-.24,.65-.52,1.27-.89,1.86-.5,.8-.96,1.63-1.46,2.43-.87,1.4-2,2.56-3.33,3.55-2.98,2.22-6.34,3.51-9.95,4.25-1.75,.36-3.51,.47-5.3,.39-1.41-.07-2.81-.14-4.18-.45-1.23-.27-2.43-.67-3.65-.96-1.29-.31-2.5-.81-3.69-1.39-.65-.31-1.25-.69-1.83-1.12-2.77-2.09-5.09-4.62-7.15-7.4-.58-.79-.97-1.69-1.31-2.6,.31-.51,.55-1.03,.46-1.63-.03-.22-.08-.45-.18-.66-.19-.39-.62-.6-.99-.53-.41,.08-.72,.38-.79,.81-.03,.19,0,.39,0,.55-.22,.34-.53,.42-.84,.44-.31,.02-.63-.02-.94-.04-.2-.01-.4-.05-.6-.07-.65-.06-1.32,.73-.84,1.53,.26,.43,.68,.6,1.14,.67,.28,.04,.57,.03,.86,.03,.26,0,.51,0,.8,0,.15,.3,.29,.57,.42,.85,.42,.92,.94,1.77,1.57,2.56,2.01,2.56,4.2,4.93,6.78,6.94,1.58,1.24,3.34,2.12,5.24,2.71,1.8,.56,3.64,1.01,5.48,1.44,.92,.21,1.87,.32,2.81,.39,1.98,.14,3.96,.18,5.92-.13,2.5-.4,4.91-1.12,7.25-2.09,2.12-.88,3.99-2.14,5.77-3.55,1.07-.84,1.93-1.88,2.67-3.01,.38-.58,.72-1.17,1.08-1.76,.84-1.38,1.53-2.82,1.75-4.45Z"/><path d="M136.38,84.53c.07,.39,.03,.8,.06,1.2,.03,.4,.06,.8,.12,1.19,.05,.34,.13,.67,.22,1,.05,.16,.13,.32,.25,.43,.26,.23,.54,.42,.82,.62,.33,.23,.68,.43,.99,.69,1.55,1.33,2.21,3.03,1.97,5.06-.14,1.15-.69,2.12-1.5,2.93-.38,.39-.79,.75-1.2,1.12-.51,.46-.84,1.01-.98,1.68-.06,.28-.12,.56-.17,.84-.18,1.02-.35,2.03-.67,3.02-.58,1.76-1.71,3.03-3.38,3.82-.8,.38-1.65,.65-2.53,.8-.54,.09-1.08,.2-1.62,.13-2.8-.4-4.53-3.05-4.09-5.43,.11-.56,.23-1.12,.39-1.67,.19-.65,.16-1.25-.22-1.81-.26-.38-.51-.76-.78-1.13-.34-.46-.73-.89-1.03-1.38-.36-.58-.69-1.19-.96-1.82-.34-.78-.39-1.62-.21-2.45,.32-1.51,1.04-2.79,2.27-3.74,.48-.37,.97-.72,1.48-1.04,1.12-.7,2-1.61,2.64-2.77,.25-.45,.54-.88,.8-1.32,.39-.64,.89-1.2,1.45-1.7,.69-.61,1.49-.96,2.31-.95,2.02-.09,3.3,1.12,3.58,2.68Zm-3.99,21.46c.88-.51,1.5-1.25,1.8-2.22,.23-.74,.37-1.5,.54-2.25,.11-.48,.18-.96,.28-1.43,.25-1.19,.83-2.19,1.76-2.98,.39-.34,.77-.69,1.12-1.07,.61-.66,.93-1.45,.81-2.36-.14-1.03-.53-1.93-1.45-2.53-.29-.19-.59-.36-.86-.58-.4-.32-.82-.64-1.16-1.02-.26-.29-.47-.66-.6-1.03-.13-.37-.19-.77-.34-1.14-.09-.22-.09-.53-.02-.75,.19-.55,.08-1.08,.01-1.61-.14-1.02-1.06-1.21-1.74-.99-.26,.08-.53,.25-.72,.45-.37,.39-.73,.81-1.04,1.25-.38,.54-.69,1.12-1.04,1.68-.64,1.04-1.47,1.9-2.48,2.59-.52,.36-1.04,.71-1.56,1.07-.91,.63-1.48,1.49-1.75,2.57-.11,.46-.1,.9,.06,1.35,.2,.57,.49,1.1,.85,1.59,.34,.46,.7,.91,1.05,1.36,.43,.54,.78,1.13,1.07,1.76,.36,.76,.42,1.54,.22,2.35-.1,.39-.22,.77-.3,1.17-.07,.36-.13,.73-.15,1.1-.05,1.1,.51,1.86,1.44,2.35,.31,.17,.7,.2,.88,.24,1.31-.07,2.34-.38,3.3-.93Z"/><path d="M95.24,97.33c1.85,1.47,3.24,3.3,4.21,5.46,.55,1.23,.47,2.46,.1,3.69-.34,1.11-1.19,1.74-2.35,1.81-.67,.04-1.32-.06-1.94-.3-.97-.37-1.85-.91-2.63-1.6-.77-.68-1.36-1.48-1.58-2.5-.11-.52-.38-.95-.74-1.34-.25-.27-.51-.54-.73-.84-.54-.72-.81-1.54-.61-2.43,.35-1.59,1.91-2.99,3.58-2.93,1.03-.05,1.92,.35,2.69,.96Zm-1.41,1.61c-.17-.11-.34-.22-.52-.3-.81-.34-1.53-.11-2.02,.61-.26,.38-.27,.75-.03,1.12,.14,.21,.32,.41,.5,.59,.68,.69,1.18,1.48,1.39,2.43,.1,.44,.31,.8,.61,1.11,.69,.71,1.5,1.23,2.45,1.53,.08,.03,.16,.06,.24,.08,.77,.17,.97,.05,1.13-.72,.04-.17,.07-.34,.11-.5,.04-.17,.1-.33,.14-.49-.55-1.78-2.52-4.49-4-5.48Z"/><path d="M123.11,60.07c1.67,.13,4.04-1.32,4.62-3.16,.32-1.02,.35-2.03,.01-3.04-.66-1.95-1.76-3.6-3.43-4.83-.49-.36-1.01-.65-1.61-.8-.34-.09-.67-.1-1,.06-.34,.17-.53,.45-.54,.82-.01,.38,.2,.65,.51,.84,.05,.03,.1,.06,.16,.06,.79,.14,1.31,.67,1.83,1.21,.78,.81,1.41,1.73,1.86,2.77,.24,.57,.36,1.16,.26,1.76-.05,.3-.14,.63-.31,.88-.67,.93-1.58,1.41-2.74,1.26-1.06-.14-1.97-.6-2.74-1.33-.41-.4-.78-.84-1.17-1.26-.25-.27-.49-.56-.75-.82-.3-.3-.69-.4-1.11-.33-.73,.12-1.07,.88-.69,1.51,.03,.05,.06,.1,.1,.14,.66,.72,1.29,1.46,1.98,2.15,.99,1,2.18,1.68,3.57,1.96,.39,.08,.79,.11,1.19,.17Z"/><path d="M131.56,48.32c2.34,.04,4.15-.74,5.64-2.28,.58-.6,1.03-1.31,1.34-2.08,.09-.23,.15-.5,.15-.75,0-.41-.3-.76-.7-.88-.37-.11-.8,.06-1.04,.42-.05,.07-.08,.15-.12,.23-.91,2.15-3.75,3.99-6.92,2.94-.85-.28-1.63-.68-2.31-1.28-.84-.74-1.44-1.62-1.69-2.73-.1-.45-.2-.89-.33-1.33-.19-.61-.65-.93-1.21-.87-.62,.07-1.1,.69-.94,1.3,.21,.8,.43,1.61,.71,2.38,.65,1.74,1.91,2.98,3.5,3.87,1.26,.71,2.63,1.13,3.91,1.06Z"/><path d="M115.19,45.55c1.34-.06,2.73-.35,4.02-1.05,1.31-.71,2.11-1.82,2.49-3.24,.06-.22,.1-.45,.09-.68-.02-.52-.42-.93-.91-.98-.45-.04-.88,.26-.98,.78-.24,1.22-1.01,1.96-2.1,2.43-2.35,1.01-4.54,.67-6.53-.89-.76-.6-1.23-1.43-1.53-2.35-.13-.41-.21-.83-.32-1.25-.05-.19-.08-.39-.16-.58-.23-.54-.69-.77-1.25-.64-.5,.12-.86,.62-.77,1.18,.18,1.04,.41,2.07,.91,3.03,.72,1.39,1.76,2.46,3.16,3.18,1.19,.61,2.42,1.02,3.88,1.05Z"/><path class="cls-3" d="M129.1,106.92c1.31-.07,2.34-.38,3.3-.93,.88-.51,1.5-1.25,1.8-2.22,.23-.74,.37-1.5,.54-2.25,.11-.48,.18-.96,.28-1.43,.25-1.19,.83-2.19,1.76-2.98,.39-.34,.77-.69,1.12-1.07,.61-.66,.93-1.45,.81-2.36-.14-1.03-.53-1.93-1.45-2.53-.29-.19-.59-.36-.86-.58-.4-.32-.82-.64-1.16-1.02-.26-.29-.47-.66-.6-1.03-.13-.37-.19-.77-.34-1.14-.09-.22-.09-.53-.02-.75,.19-.55,.08-1.08,.01-1.61-.14-1.02-1.06-1.21-1.74-.99-.26,.08-.53,.25-.72,.45-.37,.39-.73,.81-1.04,1.25-.38,.54-.69,1.12-1.04,1.68-.64,1.04-1.47,1.9-2.48,2.59-.52,.36-1.04,.71-1.56,1.07-.91,.63-1.48,1.49-1.75,2.57-.11,.46-.1,.9,.06,1.35,.2,.57,.49,1.1,.85,1.59,.34,.46,.7,.91,1.05,1.36,.43,.54,.78,1.13,1.07,1.76,.36,.76,.42,1.54,.22,2.35-.1,.39-.22,.77-.3,1.17-.07,.36-.13,.73-.15,1.1-.05,1.1,.51,1.86,1.44,2.35,.31,.17,.7,.2,.88,.24Z"/><path class="cls-3" d="M97.84,104.42c-.55-1.78-2.52-4.49-4-5.48-.17-.11-.34-.22-.52-.3-.81-.34-1.53-.11-2.02,.61-.26,.38-.27,.75-.03,1.12,.14,.21,.32,.41,.5,.59,.68,.69,1.18,1.48,1.39,2.43,.1,.44,.31,.8,.61,1.11,.69,.71,1.5,1.23,2.45,1.53,.08,.03,.16,.06,.24,.08,.77,.17,.97,.05,1.13-.72,.04-.17,.07-.34,.11-.5,.04-.17,.1-.33,.14-.49Z"/></svg>