<?xml version="1.0" encoding="UTF-8"?><svg id="Layer_1" xmlns="http://www.w3.org/2000/svg" viewBox="0 0 212 164"><defs><style>.cls-1{fill:#fff;}.cls-2{fill:#92c6ea;}.cls-3{fill:#5aa445;}</style></defs><path d="M147.78,127.06c-2.11-.63-4.14-1.24-6.28-1.88,.13,.28,.21,.46,.29,.64,.71,1.46,1.44,2.91,2.12,4.38,.99,2.15,1.57,4.42,1.76,6.78,.13,1.61-.09,3.15-.88,4.59-.86,1.56-2.14,2.53-3.92,2.76-1.52,.2-3.05,.35-4.58,.51-3.32,.34-6.65,.3-9.97,.51-1.92,.12-3.82,.35-5.74,.44-1.58,.08-3.16,.09-4.74,.04-1.66-.06-3.33-.08-4.96-.47-.41-.1-.75,.06-1.1,.21-2.36,.99-4.8,1.77-7.28,2.41-3.22,.83-6.48,1.44-9.8,1.78-2.99,.31-5.97,.28-8.96,.14-2-.09-3.99-.4-5.98-.66-5.68-.73-11.22-2.09-16.78-3.4-.46-.11-.9-.27-1.35-.39-2.14-.54-4.06-1.49-5.81-2.85-1.65-1.28-3.42-2.41-4.95-3.86-.12-.11-.27-.19-.48-.34-.26,.28-.52,.55-.77,.82-1.72,1.9-3.43,3.81-5.17,5.69-.87,.95-1.89,1.72-2.96,2.44-1.1,.74-2.18,1.5-3.23,2.3-2.06,1.59-4.43,2.33-6.95,2.72-.17,.03-.34,.07-.51,.05-1.54-.18-3.01-.57-4.33-1.43-1.16-.76-1.83-1.89-2.32-3.14-.56-1.41-.72-2.9-.83-4.39-.2-2.76,.18-5.45,1.03-8.08,.5-1.54,.97-3.09,1.47-4.64,.17-.53,.33-1.06,.54-1.57,1.37-3.4,2.76-6.8,4.12-10.2,.6-1.5,1.17-3.02,1.75-4.54,.03-.07,0-.16,0-.25-.07-.04-.14-.11-.21-.13-2.44-.56-4.6-1.79-6.81-2.88-.5-.24-.97-.53-1.48-.77-2.37-1.09-4.34-2.71-6.13-4.56-1.58-1.63-2.68-3.53-3.12-5.78-.09-.46-.14-.93-.15-1.4-.04-1.92-.05-3.86,.27-5.75,.53-3.08,1.29-6.1,2.9-8.83,1.14-1.94,2.7-3.52,4.51-4.84,.54-.4,1.19-.65,1.93-1.03,.17-.58,.42-1.31,.59-2.05,.72-3.33,1.99-6.44,3.64-9.4,1.24-2.24,2.58-4.42,3.96-6.58,1.08-1.69,2.38-3.23,3.72-4.73,1.42-1.6,2.81-3.22,4.19-4.85,1.02-1.21,2.1-2.36,3.24-3.45,1.32-1.27,2.63-2.57,3.86-3.92,1.6-1.75,3.43-3.2,5.45-4.42,1.39-.84,2.78-1.67,4.17-2.51,1.17-.71,2.41-1.28,3.7-1.72,1.21-.41,2.42-.83,3.62-1.28,2.49-.93,5.08-1.43,7.71-1.75,.76-.09,1.52-.23,2.28-.3,1.06-.09,2.13-.22,3.19-.2,4.75,.08,9.45,.61,14.06,1.78,2.94,.74,5.81,1.69,8.47,3.19,.78,.44,1.6,.8,2.42,1.15,2.13,.91,4.12,2.05,6,3.41,1.94,1.4,3.89,2.79,5.84,4.17,2.8,1.98,5.31,4.29,7.78,6.66,1.42,1.36,2.8,2.75,4.16,4.17,.86,.89,1.64,1.85,2.45,2.79,.25,.29,.49,.57,.77,.9,.26-.12,.5-.2,.71-.32,1.95-1.15,3.86-2.37,5.44-4.02,1.45-1.51,2.56-3.23,2.88-5.32,.26-1.64,.47-3.31,.45-4.97-.02-1.95-.76-3.75-1.69-5.45-.13-.23-.43-.4-.69-.53-.53-.27-1.09-.48-1.64-.72-1.12-.48-2.1-1.16-2.84-2.13-1.48-1.95-2.69-4.05-3.32-6.45-.3-1.16-.46-2.34-.41-3.55,.08-1.88,.85-3.35,2.46-4.38,2-1.28,4.1-1.85,6.45-1.19,.12,.03,.25,0,.43,0,.21-.45,.28-.96,.4-1.45,.46-1.89,1.17-3.66,2.48-5.13,1.1-1.24,2.42-2.14,3.97-2.72,1.3-.49,2.58-.52,3.87,0,.67,.27,1.34,.55,1.99,.88,1.69,.87,2.79,2.24,3.27,4.06,.25,.94,.38,1.92,.55,2.89,.06,.33,.07,.67,.12,1.11,.28-.12,.52-.19,.72-.32,2.15-1.41,5.64-.52,6.88,2.31,.56,1.29,.7,2.64,.6,4.01-.05,.81-.22,1.6-.34,2.41-.04,.25-.08,.5-.13,.84,.35,.03,.67,.07,1,.09,1.3,.08,2.26,.7,2.94,1.79,.55,.88,.85,1.87,.98,2.89,.18,1.44,.17,2.89-.13,4.33-.32,1.51-1.03,2.79-2.08,3.9-1.25,1.32-2.74,2.31-4.43,2.98-2.14,.86-4.31,1.61-6.64,1.8-.04,0-.08,.01-.13,.02-1.31,.23-1.61,.42-2.27,1.61-.29,.52-.5,1.08-.69,1.64-.26,.77-.48,1.55-.69,2.33-1.09,4.06-3.13,7.65-5.58,11.02-.83,1.14-1.72,2.23-2.63,3.31-.94,1.13-2.08,2.01-3.43,2.62-.77,.35-1.5,.79-2.28,1.21,.09,.31,.15,.55,.22,.79,.72,2.32,1.43,4.65,2.16,6.96,.22,.68,.49,1.35,.73,2,.2,.02,.33,.08,.44,.05,1.47-.35,2.97-.29,4.46-.37,1.97-.1,3.67,.68,5.18,1.88,1.9,1.51,3.38,3.38,4.44,5.56,1.67,3.46,3.14,7,4.2,10.71,1.21,4.22,2.55,8.41,3.84,12.61,.04,.12,.1,.23,.14,.31,1.17,.35,2.31,.68,3.44,1.03,1.42,.44,2.85,.88,4.26,1.35,1.49,.5,3.01,.95,4.45,1.58,2.81,1.22,4.35,3.46,4.87,6.44,.09,.55,.16,1.1,.2,1.65,.07,.95-.02,1.88-.39,2.76-.06,.15-.09,.32-.14,.52,.47,.22,.94,.12,1.39,.17,.42,.05,.85,.09,1.28,.11,.55,.03,1.11,.03,1.66,.08,1.02,.09,2.04,.15,3.05,.32,1.68,.28,3.35,.63,5.02,.95,.29,.06,.59,.1,.87,.2,1.57,.54,3.17,1.02,4.69,1.68,2.1,.91,3.51,2.53,4.31,4.67,.41,1.08,.66,2.21,.78,3.36,.17,1.78,.27,3.58,.38,5.37,.02,.38,0,.77-.09,1.14-.18,.81-.88,1.38-1.69,1.25-2.63-.45-5.28-.19-7.92-.28-5.21-.18-10.41-.3-15.62-.43-2.13-.05-4.27-.06-6.41-.1-4.18-.08-8.37-.17-12.55-.27-1.07-.02-2.13-.06-3.2-.13-1.4-.09-2.48-1.27-2.57-2.68-.14-2.47-.24-4.95-.53-7.4-.25-2.11-.73-4.2-1.12-6.3-.07-.38-.15-.75-.24-1.2ZM69.22,34.93c-.46,1.85-.52,2.07-1.29,2.96-.41,.48-.89,.92-1.38,1.32-.46,.38-.97,.69-1.46,1.03-1.77,1.22-3.07,2.81-3.9,4.8-.78,1.87-1.24,3.8-1.27,5.84-.02,1.36-.12,2.73-.24,4.09-.23,2.6-1.69,4.41-3.83,5.73-.62,.39-1.32,.55-2.07,.6-.76,.06-1.53,.18-2.26,.39-.94,.28-1.84,.68-2.76,1.01-1.13,.41-1.99,1.13-2.59,2.18-.17,.3-.38,.57-.56,.86-1.14,1.83-2.86,2.78-4.9,3.17-1.82,.35-3.46-.08-4.87-1.34-1.33-1.19-2.36-2.58-2.96-4.27-.1-.27-.22-.53-.38-.89-.48,.53-.73,1.07-1.02,1.57-.45,.77-.87,1.57-1.37,2.31-1.35,2.04-2.39,4.24-3.28,6.5-.74,1.9-1.31,3.88-1.96,5.82-.05,.16-.12,.34-.11,.5,.02,.17,.12,.34,.2,.55,.56-.42,1.03-.79,1.52-1.13,1.26-.89,2.6-1.63,4.13-1.97,1.49-.33,2.96-.29,4.38,.34,1.45,.64,2.27,1.75,2.45,3.33,.13,1.07,.03,2.13-.18,3.18-.48,2.31-1.36,4.49-2.28,6.64-.49,1.14-.97,2.28-1.44,3.42-.08,.2-.1,.43-.2,.88,.55-.6,.9-1.03,1.3-1.41,.89-.86,1.77-1.73,2.72-2.52,1.83-1.5,3.96-2.1,6.32-1.97,2.08,.12,3.69,.98,4.63,2.9,.46,.94,.62,1.96,.55,2.99-.09,1.41-.24,2.81-.68,4.16-.07,.23-.12,.47-.17,.69,.11,.05,.15,.09,.18,.09,.25-.06,.5-.12,.74-.2,1.73-.51,3.48-.87,5.29-.65,1.26,.15,2.44,.56,3.34,1.46,.75,.75,1.43,1.59,2.03,2.46,.53,.75,.66,1.63,.47,2.57-.29,1.4-.79,2.69-1.57,3.89-1.12,1.73-2.63,3.02-4.41,4.01-1.57,.87-3.2,1.61-4.87,2.26-.52,.2-1.03,.42-1.55,.61-.4,.14-.61,.44-.74,.82-.05,.16-.1,.33-.16,.49-1.67,4.61-3.34,9.22-5.02,13.83-.57,1.56-1.17,3.12-1.74,4.68-.55,1.48-1.07,2.97-1.62,4.45-.27,.73-.95,1.13-1.6,.98-.68-.16-1.17-.78-1.15-1.5,0-.25,.06-.51,.13-.75,.76-2.4,1.39-4.83,2.32-7.18,.86-2.18,1.65-4.39,2.45-6.6,1.24-3.41,2.47-6.82,3.68-10.23,.25-.7,.66-1.18,1.33-1.46,.9-.38,1.82-.74,2.71-1.14,1.47-.67,2.96-1.32,4.4-2.06,1.43-.74,2.6-1.81,3.38-3.23,.35-.63,.59-1.32,.81-2.01,.09-.26,.1-.65-.04-.86-.7-1.08-1.47-2.14-2.89-2.33-.54-.07-1.11-.08-1.66,0-1.48,.21-2.93,.6-4.25,1.33-1.79,.99-3.58,1.98-5.37,2.98-.26,.14-.51,.33-.78,.43-.79,.29-1.62-.02-1.99-.7-.35-.63-.18-1.43,.43-1.96,.26-.22,.56-.39,.83-.6,1.94-1.5,3.41-3.33,4.1-5.73,.35-1.24,.49-2.51,.41-3.8-.07-1.11-.67-1.67-1.78-1.8-1.83-.22-3.47,.19-4.87,1.44-.19,.17-.4,.33-.58,.5-1.82,1.75-3.54,3.59-4.8,5.8-.23,.41-.5,.8-.8,1.15-.35,.41-.84,.59-1.38,.51-.77-.12-1.58-.94-1.69-1.73-.32-2.19-.27-4.34,.59-6.42,.69-1.66,1.39-3.3,2.08-4.96,.76-1.81,1.48-3.64,1.81-5.59,.1-.58,.1-1.19,.1-1.78,0-.42-.26-.73-.65-.87-.64-.24-1.3-.39-2-.22-.75,.18-1.48,.42-2.15,.81-1.68,.97-3.15,2.18-4.32,3.75-1.4,1.88-2.41,3.93-2.91,6.21-.42,1.92-.68,3.86-.39,5.84,.18,1.21-.9,2.09-2.03,1.69-.5-.18-.87-.53-1.11-1.01-.24-.47-.28-.98-.25-1.5,.06-.77,.16-1.53,.19-2.3,.15-3.55,1.29-6.76,3.2-9.73,.18-.29,.39-.56,.53-.87,.12-.26,.2-.58-.17-.79-.11,.04-.24,.07-.33,.14-1.63,1.21-3.01,2.64-3.98,4.44-1.06,1.98-1.59,4.14-2.05,6.31-.42,1.97-.41,3.99-.4,5.99,0,1.59,.62,3.01,1.61,4.23,1.46,1.81,3.17,3.35,5.25,4.42,1.93,1,3.9,1.93,5.84,2.91,.77,.39,1.57,.66,2.4,.84,.67,.14,1.34,.24,2.02,.34,1.18,.18,2.37,.32,3.54,.52,.37,.06,.75,.18,1.08,.36,.72,.4,1,1.25,.72,1.99-.27,.72-.92,1.07-1.75,.95-.17-.02-.32-.11-.49-.14-.62-.12-1.24-.23-1.8-.33-.7,.55-.82,1.3-1.09,1.96-.6,1.46-1.18,2.93-1.77,4.39-.26,.63-.52,1.26-.77,1.9-.7,1.74-1.41,3.48-2.08,5.23-.54,1.39-1.06,2.79-1.54,4.2-.41,1.21-.72,2.46-1.15,3.66-.98,2.75-1.18,5.58-.9,8.46,.1,.98,.28,1.95,.76,2.83,.2,.37,.43,.77,.76,1.01,1,.71,2.13,1.15,3.37,.9,1.67-.34,3.29-.83,4.7-1.9,1.35-1.04,2.79-1.97,4.17-2.97,.52-.37,1.02-.78,1.47-1.23,2.53-2.49,4.89-5.13,7-7.99,.35-.48,.72-.96,1.14-1.38,1.34-1.39,2.5-2.91,3.65-4.46,.4-.55,.86-1.06,1.34-1.54,.26-.26,.61-.47,.95-.62,.51-.23,1.14-.04,1.5,.4,.36,.43,.44,.92,.2,1.43-.11,.22-.29,.41-.45,.62-.41,.54-.86,1.06-1.22,1.64-.91,1.45-1.89,2.84-3.09,4.08-.17,.17-.3,.38-.47,.61,1.42,1.26,2.71,2.54,4.33,3.38,.64-1.29,1.21-2.53,1.87-3.72,1.05-1.86,2.14-3.69,3.27-5.51,.74-1.2,1.52-2.38,2.38-3.49,2.4-3.11,5.51-5.32,9.12-6.83,1.6-.67,3.27-.97,5-.85,1.91,.12,3.67,.71,5.3,1.71,.65,.4,1.32,.79,2,1.14,2.02,1.04,4.14,1.19,6.34,.68,1.83-.42,3.26-1.46,4.42-2.88,.89-1.09,1.69-2.25,2.52-3.39,.63-.86,1.21-1.76,1.86-2.6,2.68-3.43,6.32-4.63,10.52-4.4,1.49,.08,2.94,.51,4.33,1.06,3.32,1.31,6.04,3.3,7.71,6.57,.85,1.67,1.81,3.29,2.73,4.92,.33,.59,.66,1.2,1.04,1.76,.86,1.27,1.75,2.52,2.67,3.82,.4-.38,.64-.88,.89-1.36,1.41-2.73,2.91-5.42,4.18-8.21,2.31-5.07,3.53-10.4,3.49-16.01-.02-3.16-.22-6.32-.58-9.45-.19-1.65-.36-3.31-.8-4.93-1.16-.56-2.3-1.12-3.56-1.42-1.09-.26-2.1-.75-2.99-1.41-2.88-2.12-4.6-4.88-4.63-8.55,0-.85,0-1.71,.04-2.56,.08-1.64-.38-3.11-1.23-4.49-1.06-1.71-2.26-3.3-3.65-4.77-1.14-1.21-2.19-2.5-3.22-3.81-.88-1.12-1.47-2.42-1.67-3.84-.26-1.87-.07-3.73,.32-5.72-.12-.1-.33-.25-.53-.41-1.24-.98-2.45-2-3.72-2.93-1.92-1.42-3.89-2.77-5.83-4.17-1.63-1.18-3.36-2.19-5.21-2.98-.94-.4-1.88-.82-2.77-1.32-2.48-1.39-5.15-2.28-7.88-2.95-4.41-1.08-8.89-1.61-13.43-1.62-1.93,0-3.82,.25-5.8,.62Zm56.24,95.79c-.37-1.54-.92-2.82-1.8-3.95-1.11-1.41-2.01-2.96-2.85-4.55-.88-1.66-1.84-3.27-2.79-4.89-.47-.82-1.02-1.59-1.8-2.15-2.69-1.96-5.62-3.2-9.05-2.89-1.43,.13-2.75,.53-3.95,1.33-.86,.58-1.58,1.3-2.19,2.14-.65,.9-1.25,1.84-1.91,2.73-.86,1.16-1.73,2.34-2.66,3.44-1.12,1.31-2.49,2.32-4.11,2.98-3.4,1.37-6.75,1.25-10.03-.36-.84-.41-1.64-.91-2.45-1.38-2.46-1.45-5.02-1.56-7.61-.45-2.82,1.22-5.31,2.93-7.23,5.36-.9,1.13-1.72,2.34-2.48,3.57-1.39,2.25-2.73,4.53-4.06,6.82-.36,.62-.65,1.29-.95,1.95-.1,.22-.11,.48-.15,.71,.34,.37,.75,.51,1.14,.65,.81,.28,1.61,.57,2.43,.77,2.94,.71,5.88,1.4,8.84,2.05,2.12,.46,4.25,.91,6.4,1.25,2.7,.42,5.41,.71,8.13,.91,2.83,.21,5.64,.1,8.44-.17,3.14-.3,6.24-.91,9.29-1.74,3.38-.92,6.67-2.07,9.74-3.8,4.26-2.4,8.18-5.25,11.82-8.51,.63-.57,1.21-1.19,1.84-1.81Zm13.39-40.12c.71,.53,1.43,.99,2.06,1.55,1.16,1.04,1.97,2.35,2.6,3.77,.75,1.68,1.35,3.41,1.82,5.18,1.04,3.96,2.09,7.92,2.95,11.92,.68,3.13,1.43,6.23,1.96,9.39,.39,2.31,.8,4.62,1.24,6.93,.49,2.56,.97,5.11,1.08,7.72,.05,1.19,.16,2.39,.24,3.58,.02,.25,.06,.49,.09,.73,.18,.06,.29,.12,.41,.13,14.21,.33,28.43,.65,42.64,.97,.12,0,.24-.07,.45-.13,.02-.83-.02-1.68-.09-2.52-.11-1.36-.26-2.72-.74-4.01-.52-1.39-1.45-2.41-2.83-2.97-1.18-.48-2.4-.89-3.61-1.3-.44-.15-.91-.22-1.37-.31-1.34-.25-2.69-.47-4.02-.75-1.38-.3-2.78-.44-4.19-.49-1.45-.06-2.9-.11-4.35-.17-1.72-.06-3.41,.07-5.05,.64-1.25,.43-2.5,.85-3.73,1.34-.98,.4-1.98,.45-3.01,.46-.62,0-1.04-.35-1.32-.87-.12-.22-.19-.48-.23-.73-.43-2.31-1.17-4.54-1.86-6.78-1.22-3.95-2.46-7.9-3.59-11.88-1.21-4.22-2.6-8.39-3.81-12.61-1-3.5-2.37-6.85-3.92-10.13-.78-1.64-1.84-3.07-3.16-4.31-.66-.62-1.41-1.11-2.26-1.42-.28-.1-.57-.2-.86-.2-1.41-.02-2.82-.02-4.23,0-.2,0-.41,.07-.66,.12,.45,2.43,.89,4.81,1.32,7.15Zm-6.32-22.56c.75-.45,1.36-.85,2-1.19,1.11-.6,2.04-1.4,2.84-2.35,3.46-4.13,6.3-8.62,7.59-13.92,.44-1.81,1.18-3.46,2.22-4.99,.36-.52,.77-.89,1.36-1.09,1.05-.35,2.12-.63,3.23-.77,1.92-.24,3.72-.89,5.49-1.64,1.03-.44,1.94-1.08,2.75-1.85,.69-.66,1.22-1.43,1.44-2.38,.22-.92,.35-1.86,.22-2.8-.1-.71-.29-1.41-.5-2.1-.14-.45-.51-.66-.99-.64-1.1,.05-2.05,.31-2.73,1.33-.85,1.27-1.82,2.47-2.77,3.67-.51,.65-1.37,.79-2.07,.37-.74-.44-1.03-1.31-.62-2.1,.21-.41,.52-.78,.82-1.13,1.11-1.25,2.11-2.57,2.96-4.02,1.07-1.82,1.5-3.8,1.35-5.9-.03-.46-.14-.94-.33-1.36-.46-1.03-1.63-1.39-2.57-.78-.67,.44-1.36,.91-1.48,1.82-.02,.16-.12,.35-.24,.44-.54,.41-.55,1.03-.71,1.59-.41,1.43-.82,2.87-1.25,4.29-.11,.36-.29,.72-.53,1.01-.42,.52-1.17,.67-1.75,.41-.59-.27-.95-.74-.93-1.41,0-.33,.11-.67,.2-.99,.26-.86,.6-1.69,.81-2.56,.25-1.03,.52-2.08,.58-3.14,.12-1.92,.03-3.83-.21-5.75-.27-2.09-1.3-3.44-3.32-4.08-.82-.26-1.57-.29-2.36,.06-1.55,.69-2.68,1.81-3.35,3.36-.32,.74-.58,1.51-.82,2.29-.2,.65-.33,1.32-.48,1.98-.09,.4,.04,.72,.29,1.06,.7,.97,1.37,1.95,2.02,2.96,1.07,1.66,1.68,3.54,2.38,5.37,.1,.26,.1,.59,.04,.87-.12,.59-.51,.98-1.11,1.11-.67,.15-1.32,.04-1.72-.55-.28-.41-.46-.91-.61-1.39-.73-2.31-1.86-4.41-3.39-6.27-1.64-2.01-3.6-2.25-5.78-.9-.81,.5-1.19,1.17-1.18,2.11,0,1.34,.16,2.66,.74,3.87,.53,1.11,1.14,2.19,1.78,3.25,.44,.74,1.05,1.36,1.82,1.77,1.09,.58,2.19,1.15,3.31,1.66,.51,.23,.84,.52,1.01,1.06,.16,.53,.41,1.03,.61,1.54,.96,2.45,1.7,4.92,1.21,7.6-.08,.46-.07,.94-.11,1.4-.24,2.83-1.11,5.42-2.93,7.65-1.06,1.3-2.24,2.46-3.59,3.45-1.11,.81-2.29,1.48-3.5,2.11-.21,.11-.39,.28-.58,.41,1.17,2.07,2.3,4.06,3.49,6.17ZM65.5,35.69c-.3,.03-.54,0-.76,.08-2.13,.74-4.27,1.47-6.39,2.25-.71,.27-1.38,.66-2.05,1.05-1.4,.82-2.78,1.67-4.17,2.51-1.69,1.02-3.21,2.24-4.57,3.69-1.49,1.59-3.06,3.09-4.59,4.65-.8,.82-1.59,1.66-2.35,2.53-1.47,1.67-2.9,3.36-4.36,5.03-.42,.48-.92,.91-.77,1.66,.02,.11-.05,.25-.12,.36-.26,.45-.18,.91-.05,1.37,.43,1.55,1.11,2.95,2.3,4.07,.31,.29,.66,.55,1.03,.74,.29,.15,.66,.25,.98,.21,1.31-.17,2.49-.6,3.25-1.78,.28-.43,.57-.85,.84-1.28,.8-1.27,1.9-2.19,3.27-2.78,.98-.42,1.97-.8,2.97-1.17,1-.37,2.03-.62,3.11-.68,1.6-.09,3.07-1.43,3.3-3.05,.17-1.18,.24-2.38,.27-3.57,.07-2.81,.57-5.5,1.73-8.08,1.06-2.36,2.66-4.26,4.75-5.75,.49-.35,.99-.67,1.47-1.03,.34-.25,.7-.49,.88-1.02Zm59.44,100c-.17,.1-.29,.15-.38,.23-2.38,2.01-4.86,3.89-7.47,5.62-.38,.25-.7,.58-1.1,.91,1.17,.3,2.46,.36,3.64,.24,3.14-.33,6.28-.61,9.45-.65,.73,0,1.45-.04,2.18-.06,2.94-.1,5.87-.41,8.8-.71,.98-.1,1.7-.55,2.05-1.48,.19-.51,.33-1.06,.38-1.6,.11-1.16-.13-2.29-.37-3.42-.43-1.98-1.32-3.77-2.19-5.59-.59-1.24-1.2-2.45-2.21-3.42-.24-.23-.45-.52-.62-.81-.69-1.19-1.84-1.83-2.93-2.55-.73,1.26-1.42,2.48-2.15,3.69-.39,.64-.37,1.32-.19,1.98,.45,1.65,1.19,3.18,2.17,4.62,.32-.03,.62-.08,.91-.08,.29,0,.6,0,.88,.08,.73,.21,1.2,.81,1.21,1.48,0,.68-.44,1.25-1.18,1.49-.16,.05-.33,.11-.5,.12-1.15,.11-2.29,.27-3.44,.31-1.49,.05-2.99,.02-4.48,0-.85,0-1.7-.02-2.46-.41Zm39.97-6.36c2.54-1.34,5.06-2.35,7.74-2.66,.26-.59,.51-1.08,.69-1.6,.14-.4,.24-.82,.25-1.24,.01-.59-.02-1.2-.13-1.78-.36-1.87-1.31-3.34-3.13-4.06-1.3-.52-2.64-.97-3.98-1.37-1.51-.44-3.03-.87-4.45-1.58-.27-.13-.54-.25-.82-.35-.14-.05-.3-.04-.45-.06-.02,.16-.06,.24-.04,.31,1.37,4.57,2.73,9.14,4.1,13.71,.05,.16,.11,.32,.22,.67Zm-30.88-46.02c-.03-.33-.03-.53-.08-.73-.23-.91-.47-1.82-.71-2.72-1.32-4.96-2.92-9.81-5.67-14.19-.02-.04-.04-.07-.06-.11-1.56-2.71-3.42-5.21-5.56-7.48-1.38-1.46-2.82-2.85-4.24-4.26-.14-.14-.26-.35-.59-.28-.03,.13-.1,.28-.1,.43-.04,1.72,.37,3.31,1.46,4.66,.94,1.16,1.87,2.33,2.91,3.4,1.56,1.6,2.85,3.39,4.01,5.29,1.17,1.91,1.72,3.98,1.67,6.21-.02,.77-.08,1.54-.06,2.3,.02,.64,.02,1.3,.21,1.9,.71,2.16,2.06,3.82,4.18,4.75,.8,.35,1.67,.54,2.63,.84Zm13.01,40.28c.03-1.54-1.37-8.35-2.09-10.37-2.22-.76-4.5-.76-6.77-.73-.81,2.27-1.6,4.47-2.4,6.73,.45,.76,1.06,1.37,1.99,1.61,1.19,.31,2.4,.58,3.57,.94,1.87,.57,3.73,1.19,5.7,1.82Zm-2.8-13.86c-.1-.49-.14-.78-.22-1.07-.67-2.56-1.32-5.12-2.04-7.66-.48-1.72-1.09-3.41-2.01-4.97-.12-.21-.19-.47-.62-.53-.03,.59,.03,1.16,.04,1.74,.01,.55,.03,1.11,.05,1.66,.02,.6,.04,1.19,.05,1.79,.01,.6,.02,1.2,.01,1.79,0,.6-.04,1.19-.07,1.79-.03,.55-.05,1.11-.1,1.66-.06,.59-.15,1.19-.22,1.78-.07,.57-.32,1.13-.17,1.74,1.77,.16,3.47-.16,5.29,.27Zm-16.3,23.29h2.44c-.28-.75-.53-1.4-.82-2.15-.67,.64-1.09,1.31-1.62,2.15Z"/><path class="cls-2" d="M69.22,34.93c1.97-.37,3.86-.62,5.8-.62,4.55,0,9.03,.53,13.43,1.62,2.73,.67,5.4,1.56,7.88,2.95,.89,.5,1.83,.92,2.77,1.32,1.85,.79,3.58,1.8,5.21,2.98,1.94,1.4,3.91,2.75,5.83,4.17,1.27,.94,2.48,1.95,3.72,2.93,.2,.16,.4,.31,.53,.41-.38,1.99-.58,3.85-.32,5.72,.2,1.42,.79,2.71,1.67,3.84,1.03,1.31,2.08,2.6,3.22,3.81,1.39,1.47,2.59,3.06,3.65,4.77,.85,1.38,1.31,2.86,1.23,4.49-.04,.85-.05,1.71-.04,2.56,.03,3.67,1.74,6.43,4.63,8.55,.9,.66,1.91,1.15,2.99,1.41,1.26,.3,2.4,.86,3.56,1.42,.44,1.62,.61,3.28,.8,4.93,.36,3.14,.56,6.29,.58,9.45,.04,5.6-1.17,10.94-3.49,16.01-1.27,2.79-2.77,5.48-4.18,8.21-.25,.48-.49,.98-.89,1.36-.91-1.3-1.81-2.55-2.67-3.82-.38-.56-.71-1.17-1.04-1.76-.92-1.64-1.88-3.25-2.73-4.92-1.66-3.27-4.39-5.26-7.71-6.57-1.4-.55-2.84-.98-4.33-1.06-4.2-.23-7.84,.98-10.52,4.4-.66,.84-1.23,1.74-1.86,2.6-.83,1.14-1.64,2.3-2.52,3.39-1.16,1.42-2.58,2.46-4.42,2.88-2.2,.5-4.32,.36-6.34-.68-.68-.35-1.35-.74-2-1.14-1.63-1-3.4-1.58-5.3-1.71-1.73-.11-3.4,.19-5,.85-3.61,1.51-6.71,3.72-9.12,6.83-.86,1.11-1.64,2.29-2.38,3.49-1.13,1.81-2.22,3.65-3.27,5.51-.67,1.18-1.23,2.43-1.87,3.72-1.62-.84-2.91-2.12-4.33-3.38,.18-.23,.31-.43,.47-.61,1.2-1.23,2.18-2.63,3.09-4.08,.36-.57,.81-1.09,1.22-1.64,.15-.2,.34-.39,.45-.62,.25-.51,.16-1-.2-1.43-.36-.44-.99-.63-1.5-.4-.34,.15-.69,.36-.95,.62-.48,.48-.94,1-1.34,1.54-1.14,1.55-2.31,3.07-3.65,4.46-.41,.43-.78,.9-1.14,1.38-2.1,2.86-4.47,5.5-7,7.99-.45,.45-.95,.86-1.47,1.23-1.38,1-2.82,1.93-4.17,2.97-1.4,1.07-3.03,1.56-4.7,1.9-1.23,.25-2.37-.18-3.37-.9-.33-.23-.56-.64-.76-1.01-.48-.88-.66-1.84-.76-2.83-.28-2.88-.09-5.71,.9-8.46,.43-1.2,.74-2.45,1.15-3.66,.48-1.41,1-2.81,1.54-4.2,.68-1.75,1.39-3.49,2.08-5.23,.25-.63,.52-1.26,.77-1.9,.59-1.46,1.17-2.93,1.77-4.39,.27-.66,.39-1.41,1.09-1.96,.56,.1,1.18,.21,1.8,.33,.17,.03,.32,.12,.49,.14,.83,.12,1.48-.24,1.75-.95,.28-.74,0-1.59-.72-1.99-.33-.18-.71-.3-1.08-.36-1.18-.19-2.36-.34-3.54-.52-.67-.1-1.35-.2-2.02-.34-.83-.18-1.64-.45-2.4-.84-1.94-.99-3.9-1.92-5.84-2.91-2.08-1.07-3.79-2.62-5.25-4.42-.99-1.22-1.6-2.64-1.61-4.23-.01-2-.02-4.02,.4-5.99,.46-2.17,.99-4.32,2.05-6.31,.97-1.81,2.35-3.24,3.98-4.44,.1-.07,.23-.09,.33-.14,.37,.21,.29,.53,.17,.79-.14,.31-.34,.59-.53,.87-1.91,2.97-3.05,6.18-3.2,9.73-.03,.77-.13,1.53-.19,2.3-.04,.52,0,1.02,.25,1.5,.24,.48,.6,.83,1.11,1.01,1.13,.4,2.21-.48,2.03-1.69-.3-1.98-.03-3.92,.39-5.84,.5-2.28,1.51-4.34,2.91-6.21,1.17-1.57,2.64-2.78,4.32-3.75,.67-.39,1.4-.63,2.15-.81,.7-.17,1.36-.03,2,.22,.39,.15,.65,.46,.65,.87,0,.59,0,1.2-.1,1.78-.32,1.95-1.05,3.77-1.81,5.59-.69,1.65-1.39,3.3-2.08,4.96-.86,2.08-.91,4.23-.59,6.42,.11,.79,.92,1.6,1.69,1.73,.54,.09,1.03-.1,1.38-.51,.31-.35,.57-.75,.8-1.15,1.26-2.21,2.98-4.05,4.8-5.8,.18-.18,.39-.33,.58-.5,1.4-1.25,3.04-1.65,4.87-1.44,1.11,.13,1.7,.69,1.78,1.8,.09,1.29-.05,2.56-.41,3.8-.68,2.4-2.16,4.23-4.1,5.73-.27,.21-.57,.37-.83,.6-.61,.53-.77,1.33-.43,1.96,.38,.68,1.21,.99,1.99,.7,.28-.1,.52-.29,.78-.43,1.79-.99,3.58-1.99,5.37-2.98,1.33-.73,2.77-1.12,4.25-1.33,.54-.08,1.11-.07,1.66,0,1.42,.19,2.18,1.24,2.89,2.33,.14,.21,.12,.6,.04,.86-.23,.68-.47,1.38-.81,2.01-.78,1.42-1.95,2.49-3.38,3.23-1.44,.74-2.92,1.39-4.4,2.06-.89,.4-1.8,.77-2.71,1.14-.67,.28-1.08,.76-1.33,1.46-1.21,3.42-2.44,6.83-3.68,10.23-.8,2.2-1.59,4.42-2.45,6.6-.93,2.35-1.56,4.78-2.32,7.18-.08,.24-.13,.5-.13,.75-.01,.73,.48,1.34,1.15,1.5,.65,.15,1.33-.25,1.6-.98,.55-1.48,1.07-2.97,1.62-4.45,.57-1.56,1.17-3.11,1.74-4.68,1.68-4.61,3.35-9.22,5.02-13.83,.06-.16,.1-.33,.16-.49,.13-.38,.34-.67,.74-.82,.52-.19,1.03-.41,1.55-.61,1.67-.64,3.3-1.38,4.87-2.26,1.78-.99,3.29-2.28,4.41-4.01,.77-1.2,1.28-2.49,1.57-3.89,.19-.94,.06-1.82-.47-2.57-.61-.87-1.28-1.71-2.03-2.46-.9-.9-2.08-1.31-3.34-1.46-1.82-.22-3.57,.14-5.29,.65-.24,.07-.49,.14-.74,.2-.03,0-.07-.03-.18-.09,.05-.22,.09-.46,.17-.69,.44-1.35,.58-2.75,.68-4.16,.07-1.04-.08-2.05-.55-2.99-.94-1.91-2.55-2.78-4.63-2.9-2.36-.14-4.49,.46-6.32,1.97-.95,.78-1.83,1.66-2.72,2.52-.4,.38-.75,.81-1.3,1.41,.1-.45,.12-.68,.2-.88,.47-1.14,.95-2.28,1.44-3.42,.93-2.16,1.81-4.33,2.28-6.64,.22-1.05,.31-2.11,.18-3.18-.18-1.58-1-2.69-2.45-3.33-1.42-.63-2.89-.67-4.38-.34-1.52,.34-2.86,1.08-4.13,1.97-.49,.34-.96,.71-1.52,1.13-.08-.21-.19-.38-.2-.55-.01-.16,.05-.34,.11-.5,.64-1.94,1.21-3.91,1.96-5.82,.89-2.26,1.93-4.46,3.28-6.5,.49-.75,.92-1.54,1.37-2.31,.29-.51,.54-1.04,1.02-1.57,.16,.36,.28,.62,.38,.89,.6,1.69,1.63,3.08,2.96,4.27,1.41,1.26,3.05,1.69,4.87,1.34,2.04-.4,3.77-1.34,4.9-3.17,.18-.29,.39-.56,.56-.86,.6-1.04,1.46-1.76,2.59-2.18,.92-.34,1.82-.74,2.76-1.01,.73-.21,1.5-.34,2.26-.39,.74-.06,1.45-.22,2.07-.6,2.14-1.33,3.6-3.13,3.83-5.73,.12-1.36,.22-2.73,.24-4.09,.03-2.04,.49-3.97,1.27-5.84,.83-1.99,2.14-3.58,3.9-4.8,.49-.34,1-.65,1.46-1.03,.49-.41,.97-.84,1.38-1.32,.76-.89,.83-1.11,1.29-2.96Zm21.2,34.94c-.83,.38-1.45,.65-2.06,.95-.73,.36-1.45,.72-2.15,1.12-.78,.46-1.05,1.15-.76,1.82,.31,.73,1.09,1.03,1.94,.73,.4-.14,.78-.34,1.17-.5,2-.85,4.05-1.56,6.18-2.05,1.21-.28,2.43-.46,3.68-.38,.86,.06,1.68,.24,2.45,.65,.64,.35,1.06,.87,1.14,1.6,.22,1.88-.41,3.49-1.82,4.69-1.17,.99-2.63,1.42-4.16,1.38-1.46-.04-2.87-.39-4.19-1.02-.23-.11-.45-.25-.69-.32-.75-.23-1.52,.08-1.88,.72-.39,.7-.19,1.52,.5,2.04,.2,.15,.43,.28,.66,.39,1.72,.8,3.53,1.25,5.42,1.37,1.62,.1,3.11-.39,4.57-1.01,1.59-.68,2.79-1.79,3.63-3.29,.57-1.01,.94-2.09,1.14-3.24,.42-2.48-.56-5.43-3.83-6.56-1.11-.38-2.23-.54-3.39-.55-.21,0-.43,.02-.64,0-.19-.02-.42,.11-.56-.1-.01-.06-.04-.11-.02-.14,.07-.15,.15-.3,.24-.45,.86-1.46,1.07-3.03,.8-4.69-.23-1.45-.71-2.81-1.4-4.09-1.19-2.21-2.8-4.06-4.81-5.58-1.45-1.1-3.06-1.85-4.85-2.2-1.06-.21-2.12-.16-3.16,.16-1.92,.6-3.44,2.54-3.58,4.84-.09,1.47,.16,2.89,.68,4.26,.92,2.45,2.39,4.51,4.3,6.27,1.52,1.41,3.26,2.46,5.47,3.17Zm-27.2-2.96c.08,.63,.11,1.27,.23,1.9,.62,3.23,2.16,5.99,4.33,8.42,1.03,1.15,2.18,2.16,3.51,2.95,1.29,.77,2.66,1.32,4.19,1.43,3.03,.21,5.04-1.59,5.73-4.07,.35-1.26,.4-2.54,.17-3.8-.89-4.9-3.46-8.74-7.51-11.59-.76-.54-1.56-1.05-2.54-1.14-.16-.01-.31-.13-.47-.19-2.6-1.06-5.9-.04-7.09,2.96-.4,1.01-.55,2.05-.57,3.13Zm49.43,8.92c-.05-.7-.1-1.59-.2-2.48-.05-.46-.15-.93-.3-1.37-.26-.74-.98-1.13-1.73-1-.76,.13-1.25,.71-1.26,1.53,0,.34,.04,.68,.09,1.02,.4,2.4,.22,4.77-.48,7.09-1.45,4.82-4.46,8.4-8.78,10.89-3.83,2.2-7.98,2.96-12.34,2.31-2.74-.41-5.25-1.45-7.49-3.11-.34-.25-.68-.52-1.07-.69-.75-.34-1.58-.01-1.96,.71-.34,.64-.25,1.3,.36,1.86,.53,.49,1.12,.93,1.73,1.31,4.39,2.8,9.17,3.8,14.32,3.07,5.41-.77,9.97-3.17,13.63-7.21,3.52-3.88,5.36-8.47,5.48-13.92Z"/><path class="cls-3" d="M125.45,130.71c-.63,.62-1.21,1.25-1.84,1.81-3.64,3.26-7.56,6.11-11.82,8.51-3.07,1.73-6.36,2.88-9.74,3.8-3.05,.83-6.15,1.44-9.29,1.74-2.8,.27-5.61,.38-8.44,.17-2.73-.2-5.44-.49-8.13-.91-2.14-.34-4.27-.78-6.4-1.25-2.95-.65-5.9-1.34-8.84-2.05-.83-.2-1.63-.5-2.43-.77-.4-.14-.81-.28-1.14-.65,.05-.23,.06-.49,.15-.71,.3-.66,.58-1.33,.95-1.95,1.33-2.28,2.67-4.57,4.06-6.82,.76-1.23,1.58-2.44,2.48-3.57,1.92-2.42,4.41-4.14,7.23-5.36,2.59-1.12,5.15-1,7.61,.45,.81,.48,1.61,.97,2.45,1.38,3.28,1.6,6.63,1.73,10.03,.36,1.62-.65,2.99-1.66,4.11-2.98,.94-1.1,1.8-2.27,2.66-3.44,.66-.89,1.26-1.82,1.91-2.73,.6-.84,1.32-1.56,2.19-2.14,1.2-.81,2.52-1.21,3.95-1.33,3.43-.31,6.35,.93,9.05,2.89,.77,.56,1.32,1.33,1.8,2.15,.94,1.62,1.91,3.24,2.79,4.89,.84,1.59,1.74,3.13,2.85,4.55,.89,1.13,1.43,2.41,1.8,3.95Z"/><path class="cls-2" d="M138.84,90.6c-.43-2.34-.87-4.72-1.32-7.15,.26-.05,.46-.12,.66-.12,1.41,0,2.82-.01,4.23,0,.29,0,.58,.1,.86,.2,.86,.31,1.6,.79,2.26,1.42,1.32,1.24,2.38,2.67,3.16,4.31,1.55,3.28,2.92,6.63,3.92,10.13,1.2,4.22,2.6,8.39,3.81,12.61,1.14,3.98,2.38,7.92,3.59,11.88,.69,2.24,1.43,4.47,1.86,6.78,.05,.25,.12,.5,.23,.73,.27,.52,.7,.88,1.32,.87,1.02-.01,2.03-.06,3.01-.46,1.22-.5,2.48-.91,3.73-1.34,1.64-.57,3.33-.71,5.05-.64,1.45,.05,2.9,.11,4.35,.17,1.41,.06,2.8,.2,4.19,.49,1.33,.29,2.68,.5,4.02,.75,.46,.09,.93,.16,1.37,.31,1.21,.41,2.42,.83,3.61,1.3,1.38,.56,2.31,1.57,2.83,2.97,.48,1.29,.64,2.65,.74,4.01,.07,.84,.11,1.68,.09,2.52-.22,.07-.34,.14-.45,.13-14.21-.32-28.43-.64-42.64-.97-.12,0-.23-.07-.41-.13-.03-.24-.07-.49-.09-.73-.09-1.19-.19-2.38-.24-3.58-.11-2.61-.59-5.17-1.08-7.72-.44-2.3-.86-4.61-1.24-6.93-.53-3.16-1.28-6.27-1.96-9.39-.87-4-1.91-7.96-2.95-11.92-.47-1.78-1.07-3.51-1.82-5.18-.64-1.41-1.45-2.72-2.6-3.77-.63-.57-1.35-1.03-2.06-1.55Z"/><path class="cls-2" d="M132.52,68.04c-1.19-2.11-2.32-4.11-3.49-6.17,.19-.13,.37-.3,.58-.41,1.21-.63,2.4-1.3,3.5-2.11,1.36-.99,2.53-2.15,3.59-3.45,1.82-2.23,2.69-4.82,2.93-7.65,.04-.47,.03-.94,.11-1.4,.49-2.68-.25-5.16-1.21-7.6-.2-.51-.45-1.02-.61-1.54-.16-.54-.5-.83-1.01-1.06-1.12-.51-2.22-1.07-3.31-1.66-.77-.41-1.38-1.03-1.82-1.77-.63-1.06-1.24-2.14-1.78-3.25-.58-1.21-.73-2.53-.74-3.87,0-.94,.37-1.61,1.18-2.11,2.19-1.35,4.14-1.1,5.78,.9,1.53,1.86,2.65,3.96,3.39,6.27,.15,.48,.33,.98,.61,1.39,.4,.59,1.05,.69,1.72,.55,.59-.13,.99-.52,1.11-1.11,.06-.28,.06-.61-.04-.87-.7-1.83-1.31-3.7-2.38-5.37-.65-1-1.32-1.99-2.02-2.96-.25-.34-.38-.66-.29-1.06,.15-.66,.28-1.34,.48-1.98,.24-.77,.5-1.54,.82-2.29,.68-1.55,1.8-2.67,3.35-3.36,.78-.35,1.54-.32,2.36-.06,2.02,.64,3.05,1.99,3.32,4.08,.25,1.92,.34,3.83,.21,5.75-.07,1.05-.33,2.1-.58,3.14-.21,.87-.55,1.7-.81,2.56-.1,.32-.2,.66-.2,.99-.01,.66,.34,1.13,.93,1.41,.58,.27,1.32,.11,1.75-.41,.23-.29,.42-.65,.53-1.01,.44-1.42,.84-2.86,1.25-4.29,.16-.56,.17-1.19,.71-1.59,.12-.09,.22-.28,.24-.44,.13-.91,.81-1.38,1.48-1.82,.94-.61,2.11-.25,2.57,.78,.19,.42,.29,.9,.33,1.36,.16,2.1-.28,4.07-1.35,5.9-.84,1.44-1.85,2.76-2.96,4.02-.31,.35-.61,.72-.82,1.13-.41,.79-.12,1.66,.62,2.1,.7,.41,1.56,.28,2.07-.37,.94-1.21,1.92-2.4,2.77-3.67,.68-1.02,1.63-1.28,2.73-1.33,.49-.02,.86,.19,.99,.64,.21,.69,.41,1.39,.5,2.1,.13,.94,0,1.88-.22,2.8-.22,.94-.75,1.71-1.44,2.38-.81,.78-1.72,1.41-2.75,1.85-1.77,.76-3.57,1.4-5.49,1.64-1.1,.14-2.17,.42-3.23,.77-.6,.2-1.01,.57-1.36,1.09-1.05,1.53-1.78,3.18-2.22,4.99-1.3,5.31-4.13,9.79-7.59,13.92-.8,.96-1.73,1.76-2.84,2.35-.64,.34-1.24,.74-2,1.19Z"/><path class="cls-3" d="M65.5,35.69c-.18,.53-.54,.77-.88,1.02-.48,.35-.98,.68-1.47,1.03-2.1,1.49-3.69,3.39-4.75,5.75-1.16,2.57-1.66,5.27-1.73,8.08-.03,1.19-.1,2.39-.27,3.57-.23,1.62-1.7,2.96-3.3,3.05-1.08,.06-2.11,.31-3.11,.68-1,.37-1.99,.75-2.97,1.17-1.37,.58-2.47,1.51-3.27,2.78-.27,.43-.57,.85-.84,1.28-.76,1.18-1.94,1.62-3.25,1.78-.32,.04-.69-.06-.98-.21-.37-.19-.73-.45-1.03-.74-1.19-1.11-1.87-2.52-2.3-4.07-.13-.45-.21-.92,.05-1.37,.06-.11,.14-.25,.12-.36-.15-.75,.35-1.18,.77-1.66,1.46-1.68,2.89-3.37,4.36-5.03,.76-.86,1.55-1.71,2.35-2.53,1.52-1.56,3.1-3.06,4.59-4.65,1.36-1.45,2.88-2.67,4.57-3.69,1.39-.84,2.77-1.69,4.17-2.51,.66-.39,1.33-.78,2.05-1.05,2.12-.79,4.25-1.52,6.39-2.25,.21-.07,.46-.05,.76-.08Z"/><path class="cls-2" d="M124.94,135.69c.75,.39,1.61,.4,2.46,.41,1.49,.02,2.99,.05,4.48,0,1.15-.04,2.29-.19,3.44-.31,.17-.02,.33-.07,.5-.12,.74-.24,1.19-.81,1.18-1.49,0-.67-.48-1.27-1.21-1.48-.28-.08-.59-.08-.88-.08-.29,0-.58,.05-.91,.08-.98-1.44-1.72-2.97-2.17-4.62-.18-.66-.2-1.34,.19-1.98,.73-1.2,1.42-2.42,2.15-3.69,1.09,.72,2.24,1.36,2.93,2.55,.17,.29,.38,.58,.62,.81,1.01,.97,1.62,2.18,2.21,3.42,.86,1.81,1.76,3.6,2.19,5.59,.24,1.13,.48,2.26,.37,3.42-.05,.54-.19,1.09-.38,1.6-.34,.93-1.06,1.38-2.05,1.48-2.93,.3-5.86,.61-8.8,.71-.73,.02-1.45,.05-2.18,.06-3.16,.03-6.31,.31-9.45,.65-1.19,.13-2.47,.06-3.64-.24,.4-.33,.72-.66,1.1-.91,2.6-1.72,5.08-3.6,7.47-5.62,.1-.08,.21-.13,.38-.23Z"/><path class="cls-2" d="M164.91,129.33c-.12-.35-.17-.51-.22-.67-1.37-4.57-2.74-9.14-4.1-13.71-.02-.07,.02-.15,.04-.31,.15,.02,.31,0,.45,.06,.28,.1,.55,.22,.82,.35,1.42,.71,2.93,1.14,4.45,1.58,1.35,.4,2.68,.85,3.98,1.37,1.82,.72,2.78,2.19,3.13,4.06,.11,.58,.15,1.19,.13,1.78,0,.42-.11,.84-.25,1.24-.18,.52-.43,1.01-.69,1.6-2.68,.31-5.2,1.32-7.74,2.66Z"/><path class="cls-3" d="M134.03,83.31c-.96-.3-1.83-.49-2.63-.84-2.12-.93-3.47-2.58-4.18-4.75-.19-.59-.19-1.26-.21-1.9-.02-.77,.04-1.53,.06-2.3,.05-2.23-.51-4.3-1.67-6.21-1.16-1.9-2.45-3.68-4.01-5.29-1.04-1.07-1.97-2.24-2.91-3.4-1.09-1.35-1.5-2.94-1.46-4.66,0-.15,.07-.3,.1-.43,.33-.07,.45,.14,.59,.28,1.42,1.42,2.86,2.81,4.24,4.26,2.15,2.27,4,4.77,5.56,7.48,.02,.04,.04,.07,.06,.11,2.75,4.38,4.36,9.23,5.67,14.19,.24,.91,.48,1.81,.71,2.72,.05,.19,.05,.4,.08,.73Z"/><path class="cls-2" d="M147.04,123.59c-1.97-.63-3.83-1.25-5.7-1.82-1.18-.36-2.38-.63-3.57-.94-.93-.24-1.54-.85-1.99-1.61,.81-2.26,1.59-4.46,2.4-6.73,2.27-.03,4.55-.03,6.77,.73,.73,2.02,2.13,8.83,2.09,10.37Z"/><path d="M90.42,69.86c-2.21-.71-3.95-1.76-5.47-3.17-1.91-1.77-3.38-3.83-4.3-6.27-.52-1.37-.77-2.79-.68-4.26,.14-2.3,1.66-4.24,3.58-4.84,1.04-.33,2.1-.37,3.16-.16,1.78,.35,3.39,1.1,4.85,2.2,2,1.52,3.62,3.36,4.81,5.58,.69,1.29,1.17,2.65,1.4,4.09,.27,1.66,.06,3.23-.8,4.69-.09,.15-.16,.3-.24,.45-.01,.03,.01,.08,.02,.14,.14,.21,.37,.08,.56,.1,.21,.02,.43,0,.64,0,1.16,0,2.28,.17,3.39,.55,3.27,1.13,4.25,4.08,3.83,6.56-.2,1.15-.57,2.23-1.14,3.24-.84,1.5-2.04,2.61-3.63,3.29-1.46,.63-2.96,1.12-4.57,1.01-1.89-.12-3.7-.57-5.42-1.37-.23-.11-.46-.24-.66-.39-.69-.52-.88-1.34-.5-2.04,.35-.64,1.12-.95,1.88-.72,.24,.07,.46,.21,.69,.32,1.33,.63,2.74,.97,4.19,1.02,1.53,.05,3-.39,4.16-1.38,1.41-1.2,2.04-2.81,1.82-4.69-.08-.73-.5-1.25-1.14-1.6-.76-.41-1.59-.6-2.45-.65-1.25-.08-2.47,.1-3.68,.38-2.12,.49-4.17,1.2-6.18,2.05-.39,.17-.77,.36-1.17,.5-.85,.3-1.63,0-1.94-.73-.29-.67-.03-1.36,.76-1.82,.7-.41,1.43-.76,2.15-1.12,.61-.3,1.23-.57,2.06-.95Zm-4.09-15.47c-2.01-.47-3.08,.28-3.21,2.19-.01,.21-.02,.43,.02,.64,.15,.71,.24,1.44,.5,2.11,1.1,2.84,2.97,5.05,5.6,6.59,.44,.26,.9,.48,1.38,.65,.64,.23,1.3,.41,2,.36,.48-.04,.92-.18,1.29-.49,.36-.31,.61-.68,.63-1.23-2.27-.92-4.33-2.06-5.74-4.13-1.37-2.01-2.29-4.16-2.46-6.69Z"/><path d="M63.22,66.91c.02-1.08,.17-2.12,.57-3.13,1.18-3,4.48-4.02,7.09-2.96,.16,.06,.31,.18,.47,.19,.98,.09,1.78,.6,2.54,1.14,4.05,2.85,6.62,6.69,7.51,11.59,.23,1.27,.18,2.55-.17,3.8-.69,2.48-2.7,4.27-5.73,4.07-1.53-.1-2.9-.66-4.19-1.43-1.33-.79-2.48-1.8-3.51-2.95-2.17-2.43-3.71-5.19-4.33-8.42-.12-.63-.16-1.27-.23-1.9Zm6.47-3.26c-.31-.03-.52-.04-.72-.06-1.13-.11-2.01,.51-2.35,1.72-.37,1.28-.19,2.55,.16,3.79,.89,3.13,2.63,5.72,5.21,7.71,.67,.51,1.44,.91,2.2,1.28,.61,.3,1.29,.45,1.99,.39,.73-.06,1.31-.39,1.67-1.04,.42-.76,.55-1.58,.45-2.35-.8-.26-1.52-.4-2.15-.71-1.12-.55-2.13-1.29-2.92-2.26-1.22-1.49-2.29-3.08-3.08-4.85-.45-.99-.69-2.02-.45-3.11,.03-.12,0-.25,0-.5Z"/><path d="M112.65,75.82c-.12,5.46-1.96,10.04-5.48,13.92-3.66,4.03-8.22,6.44-13.63,7.21-5.15,.73-9.93-.27-14.32-3.07-.61-.39-1.2-.83-1.73-1.31-.61-.56-.7-1.22-.36-1.86,.38-.72,1.2-1.05,1.96-.71,.38,.17,.73,.44,1.07,.69,2.24,1.66,4.75,2.71,7.49,3.11,4.36,.65,8.51-.11,12.34-2.31,4.32-2.48,7.34-6.07,8.78-10.89,.7-2.32,.88-4.69,.48-7.09-.06-.34-.1-.68-.09-1.02,.01-.83,.5-1.4,1.26-1.53,.75-.13,1.47,.26,1.73,1,.16,.44,.25,.91,.3,1.37,.1,.89,.14,1.79,.2,2.48Z"/><path class="cls-1" d="M86.32,54.4c.17,2.52,1.1,4.68,2.46,6.69,1.41,2.07,3.47,3.21,5.74,4.13-.02,.54-.26,.92-.63,1.23-.37,.31-.81,.45-1.29,.49-.7,.06-1.36-.13-2-.36-.48-.17-.94-.39-1.38-.65-2.63-1.55-4.5-3.76-5.6-6.59-.26-.67-.35-1.4-.5-2.11-.04-.2-.03-.43-.02-.64,.13-1.91,1.2-2.66,3.21-2.19Z"/><path class="cls-1" d="M69.69,63.65c0,.25,.02,.38,0,.5-.24,1.09,0,2.12,.45,3.11,.8,1.76,1.86,3.36,3.08,4.85,.79,.97,1.8,1.71,2.92,2.26,.63,.31,1.35,.46,2.15,.71,.1,.77-.03,1.59-.45,2.35-.35,.64-.94,.97-1.67,1.04-.7,.06-1.37-.09-1.99-.39-.76-.37-1.54-.76-2.2-1.28-2.58-1.99-4.32-4.58-5.21-7.71-.35-1.24-.53-2.5-.16-3.79,.35-1.21,1.23-1.83,2.35-1.72,.21,.02,.42,.04,.72,.06Z"/></svg>