<svg width="162" height="155" viewBox="0 0 162 155" fill="none" xmlns="http://www.w3.org/2000/svg">
<path d="M34.7936 72.1144C37.0307 70.5543 39.3833 70.0095 42.6686 71.2146C42.875 71.0661 42.875 70.8184 42.941 70.5955C43.6757 67.8715 44.5425 65.1887 45.6651 62.5967C46.6969 60.2111 48.0507 58.0154 49.6851 55.9847C51.3774 53.888 53.1521 51.8573 55.2571 50.1651C58.6993 47.3915 62.4634 45.1875 66.7146 43.8585C69.2075 43.0826 71.7005 42.3396 74.2264 41.671C75.77 41.2583 77.3384 41.0024 78.9151 40.7713C80.3349 40.5566 81.7547 40.3668 83.1828 40.2099C84.9741 40.0118 86.7818 39.8632 88.5814 40.0201C91.7677 40.2842 94.888 40.9116 97.8514 42.1415C99.3455 42.7606 100.84 43.3797 102.309 44.0566C104.67 45.138 106.841 46.5248 108.871 48.151C111.142 49.9753 113.222 51.9894 115.252 54.0613C115.855 54.6722 116.392 55.3491 116.936 56.026C118.802 58.329 120.412 60.7972 121.815 63.4057C121.897 63.5625 121.996 63.7194 122.071 63.8432C122.285 63.9505 122.409 63.8184 122.533 63.7441C123.458 63.1828 124.242 62.4564 124.952 61.6474C126.479 59.8892 127.577 57.8915 128.435 55.7371C129.318 53.5165 129.888 51.2135 130.086 48.8279C130.169 47.7878 130.111 46.7394 130.111 45.6911C130.111 45.5672 130.07 45.4434 130.037 45.2701C129.789 45.2536 129.558 45.2288 129.335 45.2205C128.336 45.1958 127.362 45.0637 126.421 44.717C125.604 44.4198 124.853 44.0154 124.176 43.4705C122.706 42.2736 121.6 40.8125 121.006 38.9965C120.725 38.1463 120.725 37.296 120.965 36.4458C121.311 35.1911 122.186 34.4729 123.433 34.2005C123.862 34.1097 124.308 34.1097 124.778 34.0602C124.919 33.8125 124.82 33.5236 124.803 33.2512C124.721 32.0543 124.927 30.9069 125.29 29.7842C125.472 29.2064 125.736 28.6698 126.083 28.1746C126.644 27.3738 127.387 26.8455 128.353 26.6144C129.021 26.4493 129.649 26.5649 130.276 26.7795C131.06 27.0437 131.721 27.5059 132.282 28.1085C132.439 28.2819 132.587 28.4552 132.777 28.6698C132.95 28.4965 133.116 28.3314 133.272 28.1663C133.925 27.4812 134.7 27.0602 135.65 26.9281C136.351 26.829 137.004 26.9363 137.631 27.2418C139.133 27.9764 139.975 29.1981 140.182 30.8491C140.239 31.3113 140.223 31.7819 140.248 32.2937C140.446 32.3019 140.619 32.3184 140.792 32.3267C142.831 32.3762 144.35 33.8538 144.433 35.8927C144.507 37.9399 143.723 39.6651 142.344 41.1262C141.18 42.3562 139.728 43.0991 138.134 43.5861C137.664 43.7347 137.177 43.842 136.657 43.9823C136.657 44.1144 136.624 44.263 136.64 44.4116C136.847 46.5 136.797 48.5885 136.475 50.6604C135.6 56.3314 133.223 61.3172 129.533 65.684C128.121 67.3432 126.545 68.8208 124.787 70.1168C124.58 70.2736 124.382 70.4304 124.167 70.5955C124.2 71.2229 124.341 71.8007 124.572 72.4198C124.754 72.2712 124.927 72.1557 125.067 72.0154C125.612 71.454 126.149 70.8845 126.702 70.3231C127.362 69.6545 128.064 69.0271 128.873 68.5236C129.475 68.1439 130.111 67.8632 130.813 67.7064C131.869 67.4753 132.777 67.7394 133.578 68.4328C134.164 68.9363 134.618 69.5472 134.94 70.2323C135.303 71.0083 135.617 71.8172 135.955 72.6097C136.36 73.5755 136.748 74.5413 137.169 75.4988C137.697 76.6958 138.539 77.6368 139.62 78.388C140.586 79.0566 141.511 79.783 142.427 80.5177C144.07 81.8467 145.366 83.4812 146.422 85.3055C147.363 86.9399 148.123 88.6569 148.816 90.4069C149.039 90.9682 149.254 91.5212 149.476 92.0826C150.442 94.5672 151.598 96.9611 152.943 99.2724C154.404 101.782 155.833 104.3 157.475 106.693C157.962 107.403 158.458 108.113 158.928 108.831C159.679 109.971 159.96 111.217 159.688 112.571C159.646 112.769 159.564 112.967 159.489 113.157C159.465 113.223 159.407 113.322 159.349 113.33C158.903 113.421 158.548 113.735 158.037 113.726C154.537 113.66 151.037 113.644 147.528 113.611C145.101 113.586 142.666 113.57 140.239 113.553C140.116 113.553 139.992 113.57 139.893 113.578C139.835 113.809 139.975 113.916 140.058 114.032C141.544 116.129 142.344 118.481 142.575 121.024C142.716 122.584 142.774 124.152 142.831 125.721C142.873 126.777 142.584 127.784 142.245 128.783C142.105 129.204 141.816 129.427 141.412 129.518C140.825 129.65 140.248 129.774 139.637 129.774C136.814 129.774 133.991 129.823 131.167 129.856C123.771 129.93 116.375 130.005 108.979 130.079C104.009 130.129 99.0484 130.178 94.079 130.228C88.8538 130.277 83.6285 130.335 78.4033 130.384C73.3101 130.434 68.2087 130.492 63.1156 130.541C57.9894 130.591 52.8715 130.649 47.7453 130.698C43.0649 130.748 38.3927 130.797 33.7123 130.847C33.5802 130.847 33.4481 130.847 33.3243 130.847C32.6144 130.814 32.3337 130.591 32.1686 129.914C32.1026 129.633 32.0531 129.353 32.0118 129.064C31.7394 127.363 31.5413 125.646 31.5 123.921C31.5 123.748 31.4422 123.566 31.4092 123.376C31.112 123.244 30.8231 123.294 30.5425 123.294C27.0672 123.269 23.592 123.261 20.1167 123.236C17.533 123.219 14.941 123.178 12.3573 123.162C8.83255 123.137 5.29953 123.12 1.77476 123.087C1.51887 123.087 1.24646 123.087 1.00708 123.005C0.29717 122.757 0.00825472 122.179 0 121.478C0 120.883 0.0577836 120.281 0.231133 119.703C1.36203 115.84 2.77359 112.075 4.41627 108.402C6.31486 104.184 8.95637 100.478 12.2913 97.2748C13.2241 96.3833 14.2476 95.6321 15.3703 94.9965C16.8809 94.1462 18.4575 93.9399 20.1333 94.3609C20.9175 94.559 21.7099 94.7323 22.4858 94.9387C23.1462 95.1203 23.7818 95.0295 24.4092 94.8066C25.3007 94.4847 26.1014 93.9977 26.8113 93.3621C27.3314 92.8998 27.6698 92.3137 27.9175 91.6781C28.4705 90.2665 28.8998 88.8137 29.1804 87.3196C29.4611 85.776 29.684 84.2241 29.9564 82.6804C30.1627 81.5248 30.4021 80.3691 30.6745 79.23C30.7653 78.8337 30.7241 78.5448 30.5012 78.2064C28.3632 74.9045 26.8774 71.3302 25.9776 67.5083C25.1934 64.1569 24.855 60.7642 25.0613 57.322C25.2099 54.7547 25.6226 52.2371 26.3573 49.7771C26.3903 49.6533 26.4151 49.5212 26.4564 49.3644C26.3821 49.3149 26.2995 49.2406 26.217 49.2076C24.2606 48.4234 22.9976 46.9458 22.1061 45.0967C21.421 43.6687 21.066 42.1498 20.967 40.5649C20.9175 39.6816 21.1403 38.8562 21.6109 38.105C22.4611 36.7429 23.7818 36.2312 25.3998 36.6439C25.8208 36.7512 26.217 36.9823 26.6215 37.1557C26.7866 37.23 26.9434 37.3208 27.125 37.4198C27.2653 37.0071 27.2571 36.6191 27.2983 36.2312C27.4139 35.2901 27.6781 34.3904 28.1403 33.5566C28.7429 32.4753 29.6427 31.7654 30.8561 31.4764C31.8962 31.2288 32.8785 31.3526 33.7783 31.9552C34.934 32.7229 35.5696 33.8373 35.908 35.1333C36.0318 35.6121 36.0649 36.1073 36.1474 36.6521C36.2712 36.6191 36.4116 36.5944 36.5436 36.5448C36.7665 36.4705 36.9811 36.3632 37.204 36.2972C38.4009 35.9422 39.4245 36.2312 40.2665 37.1474C40.9516 37.8986 41.3479 38.7984 41.5708 39.7807C41.8762 41.1097 41.6863 42.3727 41.1498 43.6109C41.0507 43.842 40.9434 44.0814 40.8361 44.3208C43.1969 44.6592 44.3774 47.796 43.0649 49.7854C42.1568 51.1557 40.8939 51.9151 39.3007 52.2205C38.0708 52.4517 36.8573 52.3526 35.6356 52.1545C34.7606 52.0142 33.9104 51.7583 33.0684 51.4529C32.862 51.6262 32.8538 51.8738 32.8125 52.0885C32.2017 55.1262 32.0035 58.197 32.1934 61.2925C32.3998 64.7017 33.0684 68.0201 34.3726 71.1899C34.4965 71.4953 34.5873 71.8338 34.8514 72.1309L34.7936 72.1144ZM33.7866 128.882C34.2653 128.882 34.6781 128.882 35.0991 128.882C36.8738 128.849 38.6486 128.808 40.4316 128.791C45.7642 128.734 51.0967 128.684 56.4292 128.626C61.3408 128.577 66.2524 128.527 71.1722 128.478C76.5542 128.42 81.9363 128.37 87.3184 128.313C92.1804 128.263 97.0425 128.213 101.904 128.164C107.575 128.106 113.246 128.057 118.917 127.999C124.275 127.949 129.632 127.892 134.989 127.834C136.607 127.817 138.234 127.809 139.851 127.792C140.058 127.792 140.256 127.759 140.454 127.751C140.718 127.074 140.85 126.414 140.817 125.721C140.759 124.235 140.743 122.741 140.611 121.255C140.438 119.282 139.868 117.416 138.82 115.716C138.143 114.618 137.292 113.669 136.343 112.794C135.856 112.348 135.311 111.993 134.709 111.737C134.106 111.481 133.495 111.25 132.901 110.986C132.067 110.614 131.217 110.276 130.416 109.847C129.12 109.145 128.146 108.097 127.461 106.792C126.528 105.018 126.14 103.103 126.281 101.113C126.38 99.7595 126.561 98.4139 126.751 97.0684C127.04 95.0213 127.23 92.9741 127.007 90.9021C126.834 89.2925 126.388 87.7819 125.48 86.4281C124.415 84.8349 122.946 83.8196 121.08 83.3986C118.992 82.9281 116.879 82.9529 114.765 83.1345C113.131 83.2748 111.505 83.5307 109.87 83.7536C108.368 83.9599 106.866 84.0672 105.347 83.8939C102.862 83.6132 100.963 82.4823 99.7005 80.3113C99.263 79.5602 98.9163 78.776 98.6108 77.967C98.3302 77.2076 98.0495 76.4481 97.7689 75.6887C97.1745 74.1038 96.1179 72.9151 94.6899 72.0484C93.1462 71.1073 91.4953 70.6368 89.6792 71.0165C89.1922 71.1156 88.7134 71.2559 88.2429 71.3963C87.1368 71.7429 86.1297 72.2795 85.1722 72.9316C84.4623 73.4187 83.7524 73.9139 83.0012 74.3349C80.7229 75.6392 78.296 76.1262 75.6875 75.5896C74.8703 75.4246 74.0366 75.342 73.2193 75.1852C72.0472 74.9623 70.9328 75.1687 69.8514 75.6227C68.8361 76.0519 67.8703 76.5637 66.9623 77.1828C65.3113 78.2972 63.7429 79.5024 62.2488 80.8231C60.2924 82.5566 58.6828 84.5625 57.4693 86.8821C56.875 88.013 56.2146 89.1109 55.5542 90.2087C54.5884 91.8102 53.3833 93.2135 52.013 94.4847C51.1627 95.2771 50.2217 95.9293 49.1568 96.3833C47.8361 96.9446 46.5153 97.4977 45.1698 98.0095C43.5189 98.6368 41.9835 99.454 40.6545 100.626C39.9281 101.262 39.2264 101.93 38.5413 102.616C36.6014 104.547 35.3797 106.892 34.6698 109.508C33.8856 112.389 33.5224 115.353 33.3738 118.324C33.2005 121.725 33.4481 125.118 33.7205 128.502C33.7205 128.601 33.7618 128.7 33.8031 128.89L33.7866 128.882ZM116.251 81.0295C116.433 80.2866 116.474 79.6097 116.474 78.9328C116.474 77.8432 116.705 76.8031 117.192 75.829C117.803 74.6156 118.406 73.4021 119.041 72.2052C119.726 70.9092 120.585 69.7288 121.534 68.5566C121.485 68.2099 121.443 67.822 121.377 67.434C121.229 66.6003 120.882 65.8408 120.494 65.0979C119.14 62.4977 117.63 59.9965 115.781 57.7099C115.318 57.1404 114.897 56.546 114.394 56.0095C112.281 53.7642 110.06 51.6262 107.658 49.6863C105.611 48.0271 103.407 46.6569 101.013 45.592C99.6097 44.9646 98.1899 44.3621 96.7618 43.7925C94.3679 42.8349 91.8667 42.3231 89.3243 42.0177C87.0212 41.7371 84.7347 41.9847 82.4481 42.2241C81.4658 42.3231 80.4835 42.4717 79.5012 42.6286C78.1639 42.8514 76.8184 43.0496 75.4976 43.355C73.7476 43.7677 72.0224 44.2795 70.2807 44.75C70.1403 44.7913 70.0083 44.8491 69.8184 44.9151C69.9835 45.1875 70.1156 45.4104 70.2476 45.625C70.5778 46.1533 70.7347 46.7312 70.6521 47.342C70.52 48.3738 70.1651 49.3149 69.4304 50.0826C68.6462 50.908 67.7217 51.5354 66.6816 51.9977C66.2771 52.1793 65.8561 52.3279 65.4517 52.5095C64.9976 52.7158 64.5436 52.9139 64.1144 53.1533C63.0578 53.7394 62.4552 54.6392 62.3231 55.8444C62.2736 56.2571 62.2323 56.6781 62.191 57.0908C62.0672 58.2465 61.7866 59.3526 61.1262 60.3267C60.9033 60.6486 60.6804 60.9705 60.4163 61.2595C59.8715 61.8621 59.5908 62.572 59.5083 63.3809C59.2771 65.7583 58.1627 67.6899 56.421 69.2748C55.8597 69.7866 55.2653 70.2488 54.638 70.6781C52.8302 71.9163 50.9811 73.105 49.0413 74.1286C48.2571 74.5413 47.4894 74.9953 46.8042 75.5731C45.8137 76.4151 44.8231 77.2736 43.8325 78.1238C43.8325 78.3467 43.8325 78.5283 43.8325 78.7099C43.783 80.2288 43.9234 81.7312 44.138 83.2335C44.7158 87.1545 45.7559 90.9434 47.4564 94.5342C47.5059 94.6498 47.5967 94.7406 47.671 94.8644C48.8844 94.4434 49.8998 93.7748 50.7995 92.9246C51.98 91.8019 53.0366 90.5802 53.8703 89.1769C54.4894 88.1451 55.0755 87.0967 55.6781 86.0566C55.9175 85.6439 56.0495 85.2229 56.0743 84.7276C56.1403 83.3491 56.7512 82.2264 57.8408 81.3762C58.3361 80.9882 58.8726 80.6663 59.4752 80.4682C59.7641 80.3774 59.987 80.2288 60.2017 80.0307C61.605 78.6934 63.1321 77.5047 64.6922 76.3656C66.0047 75.408 67.375 74.5495 68.8691 73.9139C68.9847 73.8644 69.092 73.7984 69.2075 73.7323C69.0424 72.5024 69.0012 71.3055 69.1002 70.1085C69.2158 68.6392 69.5625 67.2194 70.2229 65.8986C70.5861 65.1722 71.0566 64.5118 71.6757 63.967C72.3939 63.3479 73.2111 63.0012 74.1769 63.0012C75.1179 63.0012 75.8939 63.4057 76.579 64C77.2807 64.6026 77.7924 65.3621 78.1969 66.1958C78.8078 67.4587 79.138 68.796 79.2866 70.1746C79.3939 71.1404 79.4186 72.1062 79.3113 73.072C79.2866 73.2618 79.2205 73.4764 79.4021 73.6746C80.566 73.4104 81.6309 72.9646 82.6132 72.2712C82.5719 72.0814 82.5389 71.9328 82.4976 71.7842C81.9941 69.9517 81.8125 68.0944 82.1179 66.204C82.3078 65.0071 82.6462 63.8597 83.2901 62.8196C83.6781 62.1922 84.1568 61.6392 84.7759 61.2347C85.5932 60.7064 86.4764 60.467 87.4587 60.6404C88.0943 60.7559 88.6557 61.0036 89.1757 61.3585C89.9021 61.8538 90.4634 62.4977 90.9422 63.2241C91.6934 64.3715 92.1804 65.6345 92.4611 66.98C92.6097 67.6899 92.7087 68.4163 92.8243 69.151C93.0554 69.2335 93.27 69.3078 93.4929 69.3821C96.4234 70.3974 98.5366 72.2712 99.6427 75.2099C99.7335 75.4576 99.816 75.7052 99.9068 75.9446C100.154 76.605 100.386 77.2736 100.65 77.9257C100.955 78.6769 101.335 79.3868 101.83 80.0389C102.557 81.0047 103.531 81.5743 104.686 81.822C106.057 82.1109 107.443 82.0861 108.822 81.9293C110.844 81.6981 112.85 81.3184 114.881 81.1781C115.318 81.1451 115.756 81.079 116.243 81.0212L116.251 81.0295ZM31.2606 120.974C31.3019 120.817 31.3267 120.768 31.3349 120.718C31.3432 120.586 31.3432 120.454 31.3432 120.33C31.3927 117.268 31.6651 114.23 32.2677 111.225C32.5236 109.946 32.8208 108.675 33.2665 107.445C34.3149 104.588 36.0071 102.178 38.2524 100.139C39.6061 98.901 41.0259 97.7536 42.7017 96.9694C43.5024 96.5979 44.3443 96.3007 45.1616 95.9623C45.3679 95.8797 45.5743 95.7724 45.8137 95.6651C45.3349 94.5095 44.8396 93.4198 44.4269 92.2972C44.0059 91.1498 43.6675 89.9694 43.2712 88.7559C43.0896 88.6816 42.875 88.5908 42.6521 88.5083C40.4894 87.6911 38.5083 86.5354 36.684 85.1156C35.1321 83.9021 33.7453 82.5236 32.4906 81.013C32.3833 80.8892 32.3337 80.6745 32.0861 80.6993C32.0531 80.7653 31.9953 80.8314 31.9788 80.8974C31.855 81.5083 31.7229 82.1274 31.6156 82.7382C31.3432 84.3314 31.112 85.9328 30.8231 87.526C30.4929 89.3503 29.9811 91.1333 29.296 92.8585C28.7512 94.2205 27.8597 95.2689 26.6297 96.0448C26.2087 96.309 25.7712 96.5401 25.3255 96.7547C24.2028 97.2996 23.0307 97.4316 21.8255 97.1014C21.2476 96.9446 20.6616 96.8125 20.0837 96.6474C18.5153 96.2099 17.046 96.3833 15.6509 97.25C14.6191 97.8856 13.6863 98.6286 12.8278 99.4788C9.66627 102.607 7.22288 106.215 5.46462 110.292C4.03656 113.603 2.82311 116.995 1.72524 120.421C1.70047 120.487 1.72524 120.57 1.72524 120.71C11.5649 120.892 21.3962 120.867 31.2606 120.966V120.974ZM125.265 83.3491C126.685 84.5047 127.618 85.9988 128.245 87.6911C128.741 89.0283 128.939 90.4234 129.005 91.8349C129.096 93.7748 128.906 95.6981 128.617 97.6132C128.386 99.1073 128.171 100.61 128.196 102.129C128.221 103.243 128.443 104.308 128.873 105.323C129.426 106.652 130.325 107.667 131.605 108.328C132.067 108.567 132.546 108.774 133.025 108.98C133.677 109.252 134.346 109.484 134.981 109.772C135.575 110.045 136.162 110.334 136.706 110.68C137.078 110.912 137.425 111.035 137.87 111.035C141.453 111.068 145.027 111.118 148.61 111.151C151.532 111.184 154.462 111.192 157.384 111.209C157.616 111.209 157.838 111.184 158.136 111.176C158.07 110.994 158.045 110.87 157.987 110.771C157.789 110.466 157.583 110.16 157.376 109.863C155.981 107.841 154.627 105.794 153.397 103.664C152.787 102.599 152.176 101.534 151.565 100.469C150.426 98.5047 149.427 96.4658 148.585 94.3526C148.18 93.3373 147.768 92.3137 147.363 91.2984C146.703 89.6474 145.96 88.0378 145.027 86.5189C144.185 85.1486 143.17 83.9352 141.948 82.8868C141.015 82.0861 140.058 81.3184 139.026 80.6415C137.705 79.7665 136.739 78.5944 136.046 77.1828C135.526 76.1262 135.064 75.0448 134.667 73.9387C134.461 73.3774 134.263 72.8078 133.999 72.263C133.776 71.8007 133.504 71.3385 133.182 70.934C132.554 70.125 131.712 69.8939 130.73 70.158C130.218 70.2901 129.731 70.4882 129.31 70.8019C128.724 71.2394 128.138 71.6769 127.61 72.1804C126.743 73.0142 125.934 73.8974 125.067 74.7807C125.298 76.151 125.546 77.546 125.505 78.9576C125.472 80.3939 125.331 81.822 125.232 83.3408L125.265 83.3491ZM42.5778 86.3043L42.2146 82.5814C42.0908 82.5153 42 82.4658 41.9092 82.4246C39.4988 81.401 37.5425 79.783 35.908 77.7606C34.3314 75.8125 33.1592 73.6415 32.2759 71.3054C30.592 66.8727 29.9729 62.2665 30.1545 57.5448C30.1875 56.6286 30.2866 55.7205 30.3774 54.8125C30.5177 53.3267 30.7901 51.8656 31.145 50.421C31.1781 50.2972 31.1946 50.1651 31.2441 50.0413C31.4175 49.6203 31.7146 49.3727 32.2017 49.3809C32.7795 49.3892 33.3408 49.4304 33.8856 49.6616C35.3054 50.2642 36.7995 50.4458 38.3349 50.3467C38.7476 50.322 39.1686 50.2559 39.5649 50.1321C40.316 49.9092 40.9186 49.4552 41.3396 48.7866C41.8267 48.0271 41.6368 46.8632 40.9269 46.3102C40.8113 46.2194 40.6545 46.1286 40.5059 46.112C39.8785 46.0378 39.2347 46.0047 38.6733 46.3432C37.7158 46.9128 36.6509 47.1521 35.5861 47.4163C35.3219 47.4823 35.0743 47.4658 34.8184 47.375C34.3231 47.1934 34.0755 46.7889 34.1498 46.2771C34.2158 45.8314 34.579 45.4764 35.066 45.4682C35.9245 45.4434 36.6922 45.138 37.4682 44.8243C37.9387 44.6345 38.3184 44.3125 38.6403 43.9328C39.1026 43.3797 39.4328 42.7606 39.5896 42.0672C39.862 40.8703 39.6969 39.7312 38.987 38.6993C38.5825 38.105 38.1946 37.9812 37.5012 38.1793C36.9646 38.3279 36.5189 38.6415 36.0649 38.9552C35.6686 39.2441 35.4045 39.5826 35.2229 40.0366C34.967 40.6887 34.6533 41.3243 34.3396 41.9599C34.0177 42.6121 33.4646 42.868 32.9528 42.5955C32.5153 42.3644 32.2512 41.8526 32.5814 41.1757C32.796 40.73 32.9941 40.276 33.2087 39.822C33.5059 39.1781 33.7783 38.5342 33.9351 37.8408C34.1002 37.1474 34.1663 36.4458 34.0177 35.7441C33.8443 34.9352 33.4894 34.217 32.829 33.6887C32.3998 33.342 31.9127 33.2182 31.3597 33.342C30.7406 33.4741 30.237 33.7878 29.9151 34.3326C29.6922 34.7123 29.5024 35.125 29.3868 35.546C29.1391 36.3963 28.9988 37.2795 28.9823 38.171C28.9823 38.592 29.0153 39.013 28.941 39.4257C28.8667 39.8137 28.9658 40.1356 29.0979 40.4823C29.263 40.9198 29.3868 41.3738 29.5271 41.8279C29.6262 42.1498 29.5601 42.447 29.4116 42.7359C29.2134 43.1073 28.7264 43.3302 28.355 43.2477C27.9092 43.1486 27.6285 42.8514 27.5873 42.3809C27.513 41.4977 27.1663 40.7135 26.737 39.9705C26.316 39.2441 25.6722 38.7654 24.855 38.526C24.1533 38.3196 23.6167 38.5095 23.237 39.1203C23.0142 39.4753 22.8491 39.8715 22.8738 40.3007C22.9068 40.796 22.9399 41.2913 23.0307 41.7783C23.3196 43.3385 23.8726 44.7913 24.9375 46.013C25.6887 46.8797 26.5472 47.5731 27.7028 47.829C27.7771 47.8455 27.8597 47.8538 27.934 47.8868C28.454 48.0767 28.7016 48.5224 28.5861 49.0672C28.5531 49.2158 28.5035 49.3727 28.454 49.5213C26.9764 53.9623 26.638 58.5106 27.1415 63.1333C27.4552 65.9729 28.1321 68.7382 29.1639 71.3963C30.7075 75.3668 32.895 78.9245 35.9493 81.9128C37.6828 83.605 39.6144 85.0165 41.8019 86.0649C42.0495 86.1805 42.2807 86.3703 42.6026 86.3373L42.5778 86.3043ZM123.895 68.1604C123.969 68.1604 124.002 68.1769 124.019 68.1604C124.167 68.0613 124.324 67.9623 124.465 67.8467C127.989 64.9658 130.639 61.4246 132.488 57.2724C133.603 54.7713 134.321 52.1628 134.626 49.447C134.849 47.5236 134.857 45.592 134.544 43.6687C134.502 43.4375 134.486 43.1981 134.494 42.967C134.511 42.5295 134.742 42.2241 135.163 42.1003C135.336 42.0507 135.518 42.0425 135.699 42.026C135.955 42.0012 136.228 42.0177 136.475 41.9599C137.425 41.7701 138.349 41.4646 139.199 41.0106C140.479 40.3255 141.478 39.3597 142.055 38.0059C142.303 37.4198 142.452 36.8172 142.468 36.1816C142.485 35.2901 142.113 34.6215 141.263 34.2583C140.454 33.9116 139.695 34.1427 139.249 34.8939C138.762 35.7029 138.176 36.4375 137.557 37.1392C137.433 37.2713 137.309 37.4116 137.152 37.5106C136.756 37.7665 136.236 37.7005 135.93 37.3786C135.633 37.0649 135.584 36.6191 135.823 36.2229C135.947 36.0248 136.12 35.8597 136.261 35.6698C136.657 35.1498 137.07 34.6463 137.441 34.1097C137.887 33.4823 138.118 32.7559 138.225 31.9965C138.324 31.3031 138.225 30.6345 137.903 30.0154C137.466 29.1651 136.583 28.6781 135.724 28.8184C134.981 28.934 134.445 29.3715 134.048 29.9988C133.908 30.2135 133.809 30.4611 133.685 30.717C133.685 30.7665 133.685 30.8491 133.702 30.9234C134.04 32.1286 134.024 33.3503 133.867 34.5802C133.834 34.8361 133.784 35.1003 133.693 35.3396C133.454 35.9505 132.851 36.2064 132.29 35.9588C131.704 35.7029 131.514 35.158 131.82 34.5307C131.927 34.3078 131.985 34.0932 131.985 33.8621C131.985 33.5236 132.001 33.1852 132.009 32.8467C132.009 31.8314 131.721 30.8904 131.25 29.9988C130.92 29.3797 130.433 28.9175 129.789 28.6368C128.972 28.2736 128.188 28.4635 127.709 29.1734C127.478 29.5118 127.271 29.8915 127.139 30.2795C126.66 31.6333 126.578 33.0283 126.71 34.4564C126.743 34.7618 126.867 34.9847 127.123 35.1663C127.94 35.7441 128.575 36.5118 129.203 37.2795C129.318 37.4198 129.417 37.5767 129.492 37.7418C129.715 38.2618 129.475 38.8149 128.947 39.0213C128.501 39.1946 128.113 39.0708 127.783 38.6498C127.436 38.2205 127.114 37.7748 126.726 37.3951C126.363 37.0319 125.942 36.7017 125.513 36.4128C125.075 36.1156 124.572 35.9835 124.027 36.0248C123.309 36.0826 122.855 36.4705 122.748 37.1722C122.682 37.618 122.698 38.0554 122.863 38.4847C123.862 41.0602 125.662 42.7194 128.41 43.2477C129.17 43.3963 129.938 43.5201 130.73 43.2724C131.217 43.1156 131.646 43.4458 131.803 43.9493C131.861 44.1474 131.91 44.3538 131.927 44.5602C131.993 45.5755 132.108 46.5908 132.084 47.6062C132.034 49.6203 131.721 51.6097 131.184 53.5496C130.416 56.3149 129.294 58.9151 127.651 61.276C126.462 62.9847 125.059 64.4788 123.235 65.5519C123.177 65.5849 123.136 65.6675 123.086 65.7335L123.895 68.1439V68.1604ZM67.862 45.5837C67.7217 45.6085 67.5896 45.6168 67.4658 45.658C66.6486 45.9387 65.8396 46.2111 65.0307 46.5165C62.967 47.3007 61.0849 48.4234 59.2441 49.6203C57.3538 50.8503 55.6203 52.2701 54.0601 53.9045C52.9375 55.0767 51.8892 56.3066 50.8903 57.5861C49.4623 59.4021 48.2983 61.375 47.3738 63.4965C46.7134 65.0071 46.2099 66.5672 45.6816 68.1274C44.9965 70.1333 44.4929 72.1804 44.1958 74.2854C44.1627 74.5413 44.1545 74.7972 44.1297 75.0696C44.559 74.9458 44.5672 74.954 44.8396 74.7064C45.921 73.7488 47.1262 72.9646 48.3974 72.296C50.2712 71.3054 52.0295 70.125 53.7877 68.9529C54.5719 68.4246 55.2653 67.7889 55.8844 67.0708C56.6934 66.1215 57.296 65.0649 57.4858 63.8102C57.5436 63.447 57.6014 63.092 57.6509 62.7288C57.7665 61.8538 58.0967 61.0696 58.658 60.3845C58.8726 60.1203 59.079 59.8562 59.2936 59.5838C59.7724 58.9729 60.0696 58.2795 60.1769 57.5201C60.2429 57.033 60.3007 56.5378 60.342 56.0425C60.5236 53.9293 61.5059 52.3361 63.4127 51.362C63.809 51.1639 64.2134 50.9823 64.6179 50.8007C65.0967 50.5861 65.5837 50.3962 66.0542 50.1816C66.7972 49.8432 67.4823 49.3974 68.0106 48.7783C68.8113 47.829 69.1498 46.6156 67.8538 45.5837H67.862ZM118.274 81.0625C118.744 81.1203 119.157 81.1698 119.57 81.2194C120.007 81.2771 120.453 81.3102 120.882 81.3927C121.295 81.467 121.691 81.5908 122.096 81.6734C122.517 81.7559 122.888 82.0283 123.334 82.0613C123.367 81.9375 123.392 81.8632 123.408 81.7889C123.433 81.6321 123.458 81.4835 123.474 81.3267C123.697 79.2135 123.606 77.1085 123.136 75.0283C122.847 73.7571 122.525 72.4941 122.211 71.2312C122.186 71.1404 122.112 71.0661 122.063 70.9835C121.996 71.033 121.939 71.0578 121.914 71.0991C120.75 73.0142 119.693 74.9871 118.777 77.0342C118.596 77.4387 118.48 77.8679 118.455 78.3137C118.397 79.197 118.34 80.0802 118.274 81.0543V81.0625ZM41.8597 80.1875C41.8844 79.3951 41.8927 78.6687 41.9257 77.9422C41.9587 77.2158 41.9835 76.4812 42.0413 75.7547C42.0991 75.0283 42.2972 74.3184 42.3054 73.6085C40.9682 72.5849 37.2783 72.5024 35.8172 74.1286C36.9481 76.4481 39.8042 79.3951 41.8597 80.1793V80.1875ZM73.3762 73.204C73.3762 73.0142 73.3762 72.8904 73.3762 72.7583C73.3019 71.355 73.5578 70.0095 73.987 68.6804C74.0696 68.4328 74.1686 68.1934 74.2842 67.9623C74.408 67.7064 74.5484 67.4505 74.7134 67.2194C74.862 67.013 75.0436 66.8066 75.2417 66.6498C75.4481 66.4847 75.704 66.3609 75.9599 66.2123C75.8278 66.0389 75.7288 65.8821 75.6049 65.75C74.6061 64.6687 73.566 64.6934 72.6167 65.8078C72.1545 66.3526 71.8491 66.98 71.6097 67.6486C71.0566 69.2253 70.908 70.8514 71.0483 72.5024C71.0649 72.7253 71.1309 72.9481 71.1804 73.1875H73.3844L73.3762 73.204ZM87.2111 69.638C87.1038 69.0519 86.9717 68.4906 86.9057 67.9293C86.7075 66.1628 86.8726 64.454 87.7724 62.8361C87.2359 62.4729 86.6745 62.4564 86.0884 62.7371C85.6757 62.9352 85.3703 63.2571 85.1061 63.6203C84.7347 64.1321 84.4788 64.7017 84.3054 65.3125C83.7936 67.1121 83.8267 68.9198 84.2311 70.7359C84.2559 70.8514 84.3219 70.9505 84.3715 71.0578L87.2028 69.6462L87.2111 69.638Z" fill="black"/>
<path d="M95.276 36.1238C95.276 36.1816 95.2925 36.3632 95.276 36.5448C95.2182 37.1309 94.7642 37.5684 94.2029 37.6179C93.592 37.6675 93.0555 37.2795 92.9564 36.6686C92.8739 36.1569 92.8409 35.6285 92.8079 35.1085C92.6593 32.9953 92.5107 30.8903 92.3704 28.7771C92.2465 26.9033 92.1227 25.0212 91.9989 23.1474C91.8668 21.2406 91.7347 19.342 91.6027 17.4434C91.5862 17.1875 91.5614 16.9151 91.6027 16.6675C91.7017 16.0649 92.1557 15.6852 92.7336 15.6769C93.3114 15.6686 93.7654 16.0236 93.8975 16.6262C93.947 16.8573 93.98 17.0885 93.9883 17.3278C94.1121 19.2017 94.2277 21.0837 94.3597 22.9576C94.4918 24.8314 94.6321 26.7135 94.756 28.5873C94.8798 30.3868 94.9953 32.1863 95.1192 33.9859C95.1687 34.6627 95.21 35.3396 95.2678 36.1403L95.276 36.1238Z" fill="black"/>
<path d="M21.4707 87.3196C21.545 86.585 21.6193 86.0154 21.6605 85.4458C21.7101 84.7194 21.7679 83.9847 21.7513 83.2583C21.7348 82.4081 21.4459 81.6156 21.0497 80.8727C20.637 80.105 20.1169 79.4281 19.4318 78.8751C18.9447 78.4871 18.4412 78.1074 17.9624 77.7112C15.486 75.697 14.4294 73.072 14.644 69.9104C14.7679 68.0366 15.3704 66.2866 16.0556 64.5614C16.1381 64.3468 16.2785 64.1404 16.4353 63.9836C16.716 63.6946 17.1535 63.7442 17.3929 64.0579C17.657 64.4211 17.723 64.809 17.5497 65.2383C17.0379 66.4765 16.7572 67.7725 16.4848 69.0767C16.2207 70.348 16.2207 71.6109 16.6912 72.8491C17.0874 73.8975 17.6983 74.789 18.5568 75.5071C19.019 75.8951 19.4978 76.2583 19.9683 76.6215C21.8421 78.0826 22.9896 79.9895 23.361 82.3338C23.4766 83.0767 23.4848 83.8444 23.4518 84.5956C23.4105 85.5284 23.2785 86.4694 23.1546 87.3939C23.1216 87.6416 23.0143 87.9057 22.874 88.1038C22.5768 88.5248 22.0733 88.5001 21.7513 88.1038C21.5697 87.8727 21.4624 87.5013 21.4707 87.3114V87.3196Z" fill="black"/>
<path d="M98.5613 36.9659C98.5447 36.6852 98.7016 36.388 98.8667 36.0826C99.6509 34.5803 100.435 33.0696 101.211 31.559C103.052 28.0095 104.893 24.4682 106.733 20.9187C106.857 20.6876 106.965 20.4482 107.121 20.2418C107.501 19.73 108.145 19.598 108.649 19.8869C109.177 20.1923 109.375 20.7701 109.144 21.381C109.07 21.5791 108.97 21.7607 108.88 21.9505C106.255 27.0024 103.638 32.0543 101.013 37.1062C100.881 37.3621 100.732 37.618 100.551 37.8244C100.22 38.1958 99.7004 38.2866 99.2629 38.0803C98.8171 37.8739 98.5778 37.5272 98.5695 36.9576L98.5613 36.9659Z" fill="black"/>
<path d="M12.8774 86.2796C12.8361 86.0072 12.7948 85.776 12.77 85.5449C12.7453 85.256 12.7783 84.9753 12.9351 84.7194C13.2075 84.2737 13.7028 84.2241 14.033 84.6204C14.1321 84.7359 14.1981 84.8845 14.2972 85.0661C14.4292 84.9506 14.5613 84.8432 14.6851 84.7359C14.8667 84.5874 15.0401 84.4223 15.2382 84.2984C15.9068 83.8774 16.6663 83.9105 17.2689 84.4057C17.5248 84.6204 17.7642 84.8845 17.9292 85.1652C18.4906 86.1805 18.5731 87.2454 18.1521 88.335C17.7724 89.3173 16.9634 89.8126 15.8903 89.7548C15.8408 89.7548 15.7913 89.7796 15.7252 89.7961C15.684 90.0272 15.8078 90.2418 15.8573 90.4564C15.9481 90.8031 15.8738 91.1333 15.7417 91.447C15.4858 92.0248 14.9328 92.1156 14.487 91.6699C14.4292 91.6121 14.4045 91.5378 14.3467 91.48C14.2972 91.4305 14.2311 91.3892 14.1651 91.3397C13.9752 91.5708 13.8019 91.802 13.6038 92.0001C12.7783 92.7925 11.6887 92.644 11.0861 91.6616C10.8054 91.2076 10.6733 90.7041 10.6321 90.184C10.566 89.3916 10.6816 88.6239 11.0118 87.8975C11.342 87.1793 11.829 86.6345 12.6132 86.4034C12.704 86.3786 12.7866 86.3208 12.8691 86.2796H12.8774ZM15.4363 87.1133C15.6014 87.2206 15.7417 87.3362 15.8986 87.4022C16.1958 87.526 16.4599 87.4682 16.6085 87.2619C16.7653 87.039 16.7158 86.8161 16.6002 86.5932C16.4682 86.3374 16.1875 86.2548 15.9399 86.4116C15.717 86.552 15.5271 86.7253 15.4363 87.105V87.1133ZM13.0837 88.4588C12.9021 88.5661 12.7453 88.5991 12.6958 88.6899C12.5637 88.9376 12.4399 89.2017 12.3738 89.4659C12.316 89.6723 12.2995 89.9116 12.4399 90.1263C12.8939 89.8291 13.0672 89.3998 13.0837 88.4588Z" fill="black"/>
<path d="M158.532 91.2323C158.507 91.513 158.515 91.7276 158.466 91.9174C158.4 92.1651 158.317 92.421 158.185 92.6356C157.979 92.9658 157.549 92.9658 157.335 92.6439C157.211 92.454 157.153 92.2229 157.079 92C157.038 91.8844 157.029 91.7606 156.996 91.6368C156.716 91.6698 156.625 91.8844 156.468 92.0082C155.832 92.487 155.189 92.4457 154.66 91.8514C154.47 91.645 154.314 91.3891 154.215 91.125C153.744 89.8703 153.752 88.6156 154.355 87.4021C154.503 87.1049 154.71 86.816 154.957 86.5932C155.403 86.1887 155.94 86.0071 156.551 86.2217C156.666 86.263 156.798 86.2795 156.955 86.3207C157.104 86.0648 157.029 85.8007 157.046 85.553C157.071 85.2394 157.079 84.9257 157.252 84.645C157.368 84.4552 157.5 84.2983 157.731 84.2901C158.003 84.2736 158.185 84.4387 158.276 84.6615C158.4 85 158.482 85.3549 158.59 85.7347C158.722 85.6769 158.862 85.6108 158.994 85.553C159.737 85.2311 160.389 85.487 160.818 86.0153C160.934 86.1556 161.041 86.3125 161.116 86.4693C161.743 87.8148 161.809 89.1851 161.215 90.5554C161.025 91.0012 160.728 91.3561 160.29 91.5872C159.836 91.8266 159.399 91.8514 158.978 91.5212C158.862 91.4304 158.738 91.3479 158.548 91.224L158.532 91.2323ZM158.911 88.3019C159.019 88.7146 159.242 88.9705 159.489 89.1934C159.547 89.2512 159.687 89.2677 159.77 89.2429C160.009 89.1851 160.125 88.954 160.125 88.6238C160.125 88.2523 159.985 87.9799 159.745 87.9387C159.621 87.9139 159.481 87.9222 159.374 87.9717C159.217 88.046 159.085 88.178 158.911 88.3019ZM156.476 88.6486C156.163 88.4587 155.907 88.5495 155.684 88.7394C155.436 88.954 155.304 89.2264 155.37 89.5566C155.387 89.6474 155.461 89.7795 155.535 89.7877C155.643 89.8042 155.799 89.7795 155.874 89.7052C156.171 89.4163 156.336 89.0448 156.485 88.6403L156.476 88.6486Z" fill="black"/>
<path d="M113.94 30.0649C114.947 30.0732 115.492 31.0224 115.021 31.7984C114.873 32.0378 114.658 32.2359 114.443 32.4258C112.124 34.4977 109.796 36.5531 107.468 38.6168C106.651 39.3432 105.825 40.0696 105.008 40.8043C104.711 41.0684 104.381 41.2666 103.952 41.2418C103.093 41.2005 102.565 40.2842 102.994 39.5413C103.118 39.3184 103.316 39.1286 103.506 38.9552C106.354 36.421 109.21 33.8868 112.058 31.3526C112.413 31.039 112.759 30.7253 113.114 30.4199C113.379 30.1887 113.676 30.0319 113.932 30.0566L113.94 30.0649Z" fill="black"/>
<path d="M149.022 77.1333C149.014 77.9341 148.915 78.6522 148.725 79.3621C148.535 80.039 148.312 80.7076 148.081 81.3763C148.007 81.5909 147.883 81.8055 147.735 81.9789C147.553 82.2017 147.231 82.21 147.049 81.9789C146.909 81.8055 146.794 81.5826 146.736 81.368C146.629 80.9553 146.686 80.5425 146.818 80.1381C147.016 79.519 147.215 78.8999 147.396 78.2725C147.594 77.6039 147.57 76.9352 147.437 76.2584C147.256 75.3008 146.917 74.401 146.546 73.5095C146.249 72.8161 145.968 72.1145 145.737 71.3963C145.275 70.0095 145.233 68.5815 145.407 67.1369C145.514 66.2536 145.654 65.3786 145.935 64.5367C146.001 64.3385 146.059 64.1322 146.166 63.9588C146.414 63.5378 146.851 63.5626 147.074 64.0083C147.157 64.1652 147.215 64.3551 147.215 64.5284C147.215 64.8421 147.215 65.164 147.132 65.4529C146.917 66.2619 146.843 67.0956 146.769 67.9293C146.678 69.019 146.876 70.0591 147.281 71.0661C147.479 71.5532 147.693 72.0237 147.891 72.5025C148.461 73.8315 148.841 75.21 148.973 76.6463C148.989 76.8279 148.998 77.0095 149.014 77.1251L149.022 77.1333Z" fill="black"/>
<path d="M149.832 85.1651C149.84 84.2158 150.005 83.2996 150.261 82.3915C150.508 81.5248 150.913 80.7406 151.54 80.0967C152.027 79.5932 152.531 79.0814 153.092 78.6769C153.885 78.0991 154.413 77.3562 154.71 76.4399C154.941 75.7217 155.139 74.9953 155.362 74.2689C155.428 74.046 155.503 73.8149 155.626 73.625C155.849 73.2536 156.295 73.2453 156.518 73.6085C156.642 73.7984 156.741 74.0295 156.757 74.2524C156.79 74.5578 156.79 74.888 156.708 75.1852C156.444 76.1345 156.163 77.092 155.841 78.0248C155.428 79.2135 154.76 80.2123 153.695 80.9304C153.373 81.1451 153.084 81.4257 152.803 81.6899C151.582 82.8125 151.144 84.2323 151.202 85.8503C151.218 86.2465 151.185 86.6345 150.929 86.9646C150.723 87.2371 150.426 87.2453 150.203 86.9894C150.005 86.7665 149.914 86.4941 149.889 86.2052C149.856 85.8668 149.848 85.5283 149.832 85.1899V85.1651Z" fill="black"/>
<path d="M33.7784 128.882C33.7371 128.692 33.7041 128.593 33.6959 128.494C33.4235 125.11 33.1841 121.717 33.3492 118.316C33.4978 115.336 33.861 112.381 34.6452 109.5C35.3551 106.892 36.5768 104.539 38.5166 102.607C39.2018 101.922 39.9034 101.262 40.6298 100.618C41.9588 99.4458 43.4942 98.6286 45.1452 98.0013C46.4824 97.4895 47.8114 96.9447 49.1322 96.3751C50.197 95.9211 51.1381 95.2607 51.9883 94.4765C53.3503 93.2053 54.5638 91.802 55.5296 90.2006C56.19 89.1027 56.8586 88.0048 57.4447 86.8739C58.6581 84.5543 60.2678 82.5484 62.2242 80.815C63.71 79.4942 65.2867 78.289 66.9376 77.1746C67.8456 76.5555 68.8114 76.0437 69.8268 75.6145C70.9081 75.1605 72.0225 74.9624 73.1947 75.177C74.0119 75.3338 74.8456 75.4164 75.6628 75.5815C78.2713 76.118 80.6982 75.631 82.9765 74.3267C83.7195 73.8975 84.4294 73.4022 85.1475 72.9234C86.1051 72.2713 87.1121 71.7265 88.2183 71.3881C88.6888 71.2395 89.1676 71.1074 89.6546 71.0084C91.4706 70.6286 93.1216 71.0992 94.6652 72.0402C96.0933 72.9069 97.1499 74.1039 97.7442 75.6805C98.0249 76.44 98.3055 77.1994 98.5862 77.9588C98.8834 78.7678 99.2383 79.552 99.6758 80.3032C100.939 82.4742 102.837 83.6133 105.322 83.8857C106.849 84.0591 108.343 83.9518 109.846 83.7454C111.472 83.5143 113.098 83.2666 114.741 83.1263C116.854 82.9364 118.967 82.9199 121.056 83.3904C122.921 83.8114 124.399 84.8267 125.455 86.4199C126.355 87.7737 126.809 89.2843 126.982 90.894C127.197 92.9659 127.015 95.0131 126.727 97.0602C126.537 98.4058 126.355 99.7513 126.256 101.105C126.116 103.103 126.495 105.01 127.436 106.784C128.122 108.089 129.096 109.137 130.392 109.839C131.192 110.268 132.043 110.614 132.876 110.978C133.471 111.242 134.081 111.473 134.684 111.729C135.295 111.985 135.84 112.34 136.319 112.785C137.268 113.652 138.118 114.61 138.795 115.708C139.852 117.4 140.413 119.274 140.586 121.247C140.718 122.724 140.727 124.218 140.793 125.712C140.817 126.398 140.694 127.066 140.429 127.743C140.231 127.76 140.033 127.784 139.827 127.784C138.209 127.801 136.583 127.809 134.965 127.826C129.607 127.875 124.25 127.933 118.893 127.991C113.222 128.048 107.551 128.098 101.88 128.156C97.0178 128.205 92.1558 128.255 87.2937 128.304C81.9117 128.362 76.5296 128.412 71.1475 128.469C66.236 128.519 61.3244 128.568 56.4046 128.618C51.0721 128.676 45.7395 128.725 40.407 128.783C38.6322 128.8 36.8574 128.849 35.0744 128.874C34.6617 128.874 34.2407 128.874 33.7619 128.874L33.7784 128.882ZM97.4801 83.2088C97.4305 83.2088 97.381 83.2171 97.3232 83.2253C96.6959 83.3244 95.9034 84.0921 95.7796 84.7194C95.7218 85.0084 95.7548 85.289 95.9447 85.5284C96.2501 85.9411 96.7949 86.0484 97.2654 85.7595C97.8185 85.4211 98.157 84.8928 98.3633 84.2984C98.5532 83.7619 98.0662 83.2006 97.4883 83.2088H97.4801ZM131.853 122.006C131.836 121.701 131.828 121.494 131.811 121.288C131.811 121.214 131.795 121.131 131.778 121.057C131.671 120.66 131.382 120.405 131.011 120.38C130.614 120.355 130.309 120.528 130.152 120.916C130.053 121.156 129.987 121.412 129.921 121.659C129.83 121.989 129.806 122.328 129.913 122.666C130.061 123.145 130.35 123.401 130.796 123.418C131.267 123.434 131.655 123.17 131.778 122.691C131.844 122.443 131.836 122.179 131.861 122.006H131.853ZM47.0025 122.675C46.664 122.699 46.3669 122.823 46.1935 123.162C46.0202 123.517 46.1027 123.822 46.3421 124.094C46.6393 124.433 46.986 124.689 47.4152 124.846C47.7619 124.978 48.0756 124.945 48.3975 124.796C48.9176 124.557 49.1239 123.995 48.8515 123.492C48.6534 123.129 48.348 122.889 47.9518 122.798C47.6463 122.732 47.3327 122.716 47.0025 122.666V122.675ZM135.262 122.848C135.287 122.931 135.295 123.096 135.377 123.219C135.732 123.756 136.145 124.202 136.839 124.293C137.268 124.35 137.648 124.21 137.846 123.855C138.044 123.492 138.011 123.12 137.738 122.84C137.416 122.501 137.07 122.171 136.682 121.923C136.038 121.519 135.245 122.023 135.262 122.856V122.848ZM100.122 86.1723C99.7914 86.1723 99.4777 86.2961 99.3044 86.6263C99.0815 87.072 98.9164 87.5343 98.8999 88.0378C98.8834 88.3763 99.0319 88.6487 99.3044 88.8385C99.7336 89.144 100.295 89.0614 100.617 88.6157C100.947 88.1617 101.063 87.6168 101.063 87.0638C101.063 86.5685 100.633 86.1888 100.113 86.164L100.122 86.1723ZM95.4494 91.2489C95.7631 91.2737 96.019 91.1168 96.2336 90.8692C96.572 90.4895 96.7619 90.0272 96.861 89.5402C96.9518 89.1192 96.8032 88.7973 96.473 88.5992C96.1428 88.3928 95.7796 88.401 95.4659 88.6982C95.1687 88.9789 94.9128 89.3173 94.6735 89.6558C94.5001 89.8951 94.4919 90.2006 94.5414 90.4895C94.6239 90.927 94.9789 91.2324 95.4411 91.2489H95.4494ZM105.182 88.0956C105.644 88.0874 105.949 87.848 106.214 87.5508C106.643 87.0555 106.436 86.2796 105.801 86.1145C105.38 85.9989 104.934 85.9494 104.497 85.9494C103.869 85.9494 103.456 86.6428 103.77 87.1711C104.092 87.7076 104.596 88.0048 105.182 88.0956ZM132.984 116.83C133.008 117.012 133.008 117.193 133.05 117.367C133.198 117.928 133.685 118.217 134.247 118.06C134.676 117.945 134.882 117.623 134.948 117.218C135.023 116.806 134.948 116.393 134.833 115.988C134.725 115.633 134.494 115.41 134.114 115.369C133.743 115.328 133.454 115.468 133.256 115.782C133.058 116.104 132.967 116.451 132.984 116.822V116.83ZM131.085 114.28C131.085 113.9 130.936 113.297 130.78 113C130.648 112.752 130.458 112.604 130.185 112.546C129.475 112.398 128.848 112.959 128.988 113.669C129.054 114.024 129.195 114.37 129.343 114.701C129.541 115.155 129.971 115.353 130.433 115.237C130.829 115.138 131.093 114.758 131.093 114.288L131.085 114.28ZM44.0225 120.297C44.0143 119.67 43.3952 119.018 42.8504 119.051C42.3633 119.084 41.7277 119.728 41.7277 120.198C41.7277 120.743 42.4211 121.321 43.0485 121.304C43.6015 121.288 44.039 120.842 44.0225 120.289V120.297ZM42.0662 125.151C42.8751 125.151 43.2961 124.416 42.9329 123.814C42.7265 123.467 42.4046 123.228 42.0249 123.112C41.6534 123.005 41.2985 123.063 41.0343 123.393C40.8032 123.682 40.7454 124.028 40.9187 124.35C41.1829 124.837 41.6287 125.093 42.0662 125.151V125.151ZM38.2195 124.557C38.1204 124.103 37.8645 123.673 37.3857 123.401C36.907 123.129 36.2878 123.517 36.197 124.028C36.0732 124.738 36.6263 125.465 37.3445 125.522C37.8315 125.564 38.2442 125.151 38.2195 124.565V124.557ZM37.7654 119.315C37.7654 119.315 37.6829 119.315 37.6086 119.323C37.2371 119.356 36.9565 119.521 36.8244 119.876C36.6923 120.223 36.7584 120.553 37.0143 120.826C37.1546 120.974 37.3197 121.114 37.493 121.222C37.881 121.453 38.3433 121.37 38.6157 121.015C38.8798 120.677 38.9211 120.297 38.7643 119.909C38.5992 119.505 38.2855 119.307 37.7654 119.315V119.315Z" fill="#848383"/>
<path d="M116.243 81.0295C115.756 81.0873 115.327 81.1533 114.881 81.1864C112.85 81.3267 110.844 81.7147 108.822 81.9375C107.443 82.0944 106.057 82.1191 104.686 81.8302C103.522 81.5826 102.548 81.0213 101.83 80.0472C101.343 79.3951 100.955 78.6852 100.65 77.934C100.386 77.2819 100.155 76.6132 99.9069 75.9529C99.8161 75.7052 99.7336 75.4576 99.6428 75.2182C98.5366 72.2795 96.4234 70.4057 93.493 69.3904C93.2701 69.3161 93.0555 69.2418 92.8244 69.1592C92.7006 68.4246 92.6015 67.6981 92.4612 66.9882C92.1888 65.651 91.6935 64.388 90.9423 63.2324C90.4635 62.5059 89.9022 61.8538 89.1758 61.3668C88.6558 61.0118 88.0944 60.7559 87.4588 60.6486C86.4765 60.4753 85.5933 60.7147 84.776 61.243C84.1487 61.6474 83.6782 62.2005 83.2902 62.8279C82.6463 63.868 82.3079 65.0071 82.118 66.2123C81.8208 68.1026 81.9942 69.9599 82.4977 71.7925C82.539 71.9411 82.5638 72.0897 82.6133 72.2795C81.631 72.9729 80.5661 73.4104 79.4022 73.6828C79.2289 73.4847 79.2949 73.2701 79.3114 73.0802C79.4187 72.1144 79.394 71.1486 79.2866 70.1828C79.1381 68.796 78.8079 67.4588 78.197 66.204C77.7925 65.3703 77.289 64.6191 76.5791 64.0083C75.8857 63.4139 75.118 63.0177 74.177 63.0095C73.2112 63.0095 72.394 63.3479 71.6758 63.9753C71.0567 64.5118 70.5862 65.1722 70.223 65.9069C69.5626 67.2276 69.2159 68.6474 69.1003 70.1168C69.0013 71.3137 69.0508 72.5106 69.2076 73.7406C69.0921 73.8066 68.9848 73.8727 68.8692 73.9222C67.3668 74.5578 66.0048 75.4163 64.6923 76.3739C63.1322 77.513 61.605 78.7017 60.2017 80.039C59.9871 80.2371 59.7642 80.3857 59.4753 80.4765C58.8727 80.6663 58.3362 80.9965 57.8409 81.3845C56.743 82.2347 56.1404 83.3574 56.0744 84.7359C56.0496 85.2312 55.9258 85.6522 55.6782 86.0649C55.0673 87.105 54.4895 88.1533 53.8704 89.1852C53.0367 90.5885 51.9718 91.8102 50.7996 92.9328C49.8999 93.7913 48.8845 94.4599 47.6711 94.8727C47.5968 94.7571 47.5142 94.6581 47.4565 94.5425C45.756 90.9517 44.7159 87.1628 44.1381 83.2418C43.9152 81.7394 43.7831 80.2371 43.8326 78.7182C43.8326 78.5366 43.8326 78.355 43.8326 78.1321C44.8232 77.2819 45.8055 76.4234 46.8043 75.5814C47.4812 75.0036 48.2489 74.5496 49.0414 74.1368C50.9812 73.1132 52.8303 71.9246 54.6381 70.6864C55.2572 70.2571 55.8598 69.7866 56.4211 69.2831C58.1628 67.6982 59.2772 65.7665 59.5083 63.3892C59.5909 62.5802 59.8633 61.8786 60.4164 61.2677C60.6805 60.9788 60.9034 60.6569 61.1263 60.3349C61.7949 59.3609 62.0673 58.2548 62.1911 57.0991C62.2324 56.6864 62.2737 56.2654 62.3232 55.8526C62.4553 54.6474 63.0579 53.7477 64.1145 53.1616C64.5437 52.9222 65.006 52.7241 65.4517 52.5177C65.8562 52.3361 66.2772 52.1875 66.6817 52.0059C67.7135 51.5437 68.6381 50.9163 69.4305 50.0908C70.1652 49.3232 70.5201 48.3821 70.6522 47.3503C70.7348 46.7312 70.5779 46.1616 70.2477 45.6333C70.1074 45.4187 69.9836 45.1958 69.8185 44.9234C70.0084 44.8574 70.1404 44.7913 70.2808 44.7583C72.0142 44.2878 73.7477 43.776 75.4977 43.3632C76.8185 43.0496 78.164 42.8515 79.5013 42.6368C80.4836 42.48 81.4659 42.3314 82.4482 42.2323C84.7348 41.993 87.0213 41.7536 89.3244 42.026C91.8751 42.3314 94.3763 42.8432 96.7619 43.8007C98.19 44.3703 99.6098 44.9729 101.013 45.6003C103.415 46.6651 105.619 48.0437 107.658 49.6946C110.06 51.6427 112.281 53.7724 114.394 56.0177C114.897 56.546 115.318 57.1486 115.781 57.7182C117.63 60.0048 119.14 62.5059 120.494 65.1062C120.882 65.8491 121.229 66.6085 121.377 67.4423C121.443 67.822 121.485 68.2099 121.534 68.5649C120.585 69.7371 119.727 70.9175 119.041 72.2135C118.406 73.4104 117.795 74.6239 117.192 75.8373C116.705 76.8114 116.474 77.8515 116.474 78.9411C116.474 79.618 116.425 80.2948 116.251 81.0378L116.243 81.0295Z" fill="#92C6EA"/>
<path d="M31.2607 120.974C21.3963 120.883 11.565 120.9 1.72536 120.718C1.72536 120.586 1.70885 120.504 1.72536 120.429C2.82323 116.995 4.03668 113.603 5.46474 110.301C7.223 106.223 9.67465 102.616 12.828 99.4871C13.6864 98.6369 14.6192 97.894 15.6511 97.2583C17.0461 96.3916 18.5237 96.2182 20.0838 96.6557C20.6617 96.8208 21.2478 96.9529 21.8256 97.1097C23.039 97.4399 24.203 97.3161 25.3256 96.7631C25.7713 96.5484 26.2088 96.3173 26.6298 96.0531C27.8598 95.2772 28.7596 94.2289 29.2961 92.8668C29.9813 91.1333 30.493 89.3586 30.8232 87.5343C31.1122 85.9411 31.3433 84.3397 31.6157 82.7465C31.723 82.1274 31.8468 81.5166 31.9789 80.9057C31.9954 80.8314 32.0449 80.7737 32.0862 80.7076C32.3338 80.6746 32.3916 80.8892 32.4907 81.0213C33.7454 82.5319 35.1322 83.9105 36.6841 85.1239C38.5084 86.552 40.4813 87.6994 42.6522 88.5166C42.8669 88.5991 43.0815 88.6899 43.2713 88.7642C43.6593 89.9777 44.006 91.1498 44.427 92.3055C44.8397 93.4282 45.335 94.5178 45.8138 95.6734C45.5744 95.789 45.368 95.8881 45.1617 95.9706C44.3445 96.309 43.5025 96.6062 42.7018 96.9777C41.0261 97.7619 39.6063 98.901 38.2525 100.147C36.0155 102.195 34.315 104.597 33.2666 107.453C32.8126 108.683 32.5237 109.954 32.2678 111.234C31.6652 114.238 31.3928 117.276 31.3433 120.339C31.3433 120.471 31.3433 120.603 31.335 120.726C31.335 120.776 31.3103 120.826 31.2607 120.982V120.974ZM10.9376 104.77C10.9871 104.935 11.0284 105.191 11.144 105.422C11.4577 106.041 12.1511 106.074 12.4978 105.48C12.6794 105.166 12.8197 104.828 12.927 104.481C13.0178 104.209 12.9765 103.912 12.8362 103.647C12.5143 103.045 11.7631 102.971 11.3504 103.507C11.0945 103.846 10.9871 104.25 10.9376 104.77ZM18.4989 109.706C18.4742 109.616 18.4494 109.409 18.3751 109.219C18.2348 108.897 18.0119 108.65 17.6157 108.642C17.2277 108.633 16.9883 108.856 16.815 109.162C16.493 109.748 16.6416 110.565 17.1452 111.011C17.4919 111.316 17.8963 111.275 18.1522 110.912C18.3834 110.59 18.5072 110.218 18.4989 109.698V109.706ZM11.532 110.986C11.532 111.547 11.7383 112.034 12.0685 112.298C12.3905 112.554 12.8197 112.513 13.0178 112.166C13.3397 111.622 13.4223 111.035 13.2077 110.433C13.1581 110.293 13.0591 110.152 12.9518 110.045C12.6629 109.748 12.2914 109.731 11.9695 110.004C11.6475 110.276 11.5155 110.631 11.5237 110.986H11.532ZM17.3763 102.839C17.3598 102.781 17.3268 102.541 17.2195 102.343C16.9718 101.906 16.5426 101.84 16.1711 102.17C15.7996 102.492 15.6015 102.913 15.5933 103.408C15.5933 103.755 15.6511 104.085 15.907 104.349C16.1959 104.646 16.5838 104.663 16.8728 104.366C17.236 103.994 17.4011 103.54 17.3763 102.847V102.839ZM16.4022 116.426C16.3775 116.244 16.3692 116.137 16.3445 116.038C16.2206 115.493 15.7914 115.179 15.2713 115.229C14.8751 115.27 14.5697 115.675 14.5284 116.186C14.4954 116.632 14.6605 117.004 14.9164 117.334C15.2548 117.771 15.8904 117.722 16.1381 117.235C16.2784 116.962 16.3279 116.649 16.394 116.418L16.4022 116.426ZM9.2454 111.869C9.22889 111.597 9.22889 111.407 9.19588 111.234C9.13809 110.945 9.00602 110.697 8.74186 110.532C8.51899 110.392 8.29611 110.367 8.08974 110.532C7.94941 110.639 7.80908 110.771 7.71828 110.92C7.4046 111.473 7.55319 112.282 8.0237 112.719C8.3704 113.041 8.85743 112.975 9.0638 112.538C9.17111 112.307 9.19587 112.043 9.2454 111.877V111.869ZM9.67465 116.219C9.6829 116.591 9.74069 116.971 9.98007 117.301C10.2442 117.656 10.6982 117.714 10.9954 117.425C11.6475 116.781 11.4246 115.584 10.69 115.212C10.4754 115.105 10.2855 115.13 10.1039 115.254C9.76545 115.477 9.66639 115.815 9.66639 116.219H9.67465ZM6.30672 115.609C6.35625 115.856 6.38102 116.112 6.46356 116.351C6.58738 116.69 6.8763 116.855 7.18172 116.839C7.50366 116.814 7.69352 116.616 7.80083 116.335C8.0072 115.79 7.91639 115.27 7.63573 114.775C7.51191 114.56 7.32205 114.428 7.06616 114.428C6.76899 114.428 6.56262 114.601 6.47182 114.849C6.38102 115.08 6.35625 115.344 6.30672 115.617V115.609Z" fill="#9A979B"/>
<path d="M125.265 83.3409C125.364 81.822 125.505 80.394 125.538 78.9576C125.571 77.5461 125.331 76.151 125.1 74.7807C125.959 73.8892 126.776 73.006 127.643 72.1805C128.171 71.677 128.757 71.2395 129.343 70.802C129.764 70.4883 130.251 70.2902 130.763 70.1581C131.745 69.9022 132.587 70.1333 133.215 70.9341C133.528 71.3468 133.801 71.8008 134.032 72.2631C134.296 72.7996 134.494 73.3692 134.701 73.9388C135.097 75.0449 135.559 76.1263 136.079 77.1829C136.773 78.5944 137.738 79.7666 139.059 80.6416C140.083 81.3185 141.048 82.0779 141.981 82.8869C143.195 83.9352 144.218 85.1487 145.06 86.5189C145.993 88.0378 146.736 89.6475 147.396 91.2984C147.801 92.3138 148.214 93.3291 148.618 94.3527C149.452 96.4659 150.459 98.5048 151.598 100.469C152.217 101.534 152.82 102.599 153.431 103.664C154.652 105.794 156.014 107.841 157.409 109.863C157.616 110.16 157.822 110.466 158.02 110.771C158.086 110.87 158.103 111.002 158.169 111.176C157.872 111.192 157.649 111.209 157.418 111.209C154.495 111.192 151.565 111.176 148.643 111.151C145.06 111.118 141.486 111.06 137.903 111.035C137.466 111.035 137.111 110.912 136.739 110.681C136.195 110.334 135.6 110.045 135.014 109.772C134.37 109.484 133.71 109.252 133.058 108.98C132.579 108.782 132.1 108.567 131.638 108.328C130.359 107.668 129.451 106.644 128.906 105.323C128.485 104.3 128.254 103.235 128.229 102.129C128.196 100.602 128.419 99.1074 128.65 97.6133C128.939 95.6982 129.129 93.7748 129.038 91.835C128.972 90.4234 128.774 89.0284 128.278 87.6911C127.643 85.9989 126.718 84.5048 125.298 83.3491L125.265 83.3409ZM138.176 107.106C138.068 106.652 138.002 106.182 137.837 105.752C137.606 105.158 137.103 105.084 136.682 105.546C135.939 106.355 136.211 107.734 137.202 108.171C137.474 108.295 137.697 108.237 137.887 107.998C138.085 107.734 138.143 107.436 138.184 107.106H138.176ZM151.623 106.958C151.631 106.355 151.482 105.975 151.094 105.554C150.764 105.191 150.352 105.216 150.162 105.662C149.889 106.297 149.765 106.958 150.063 107.626C150.112 107.742 150.186 107.857 150.269 107.956C150.5 108.237 150.806 108.262 151.094 108.047C151.482 107.758 151.648 107.37 151.631 106.958H151.623ZM142.898 106C142.931 106.363 142.955 106.751 143.236 107.065C143.401 107.247 143.69 107.321 143.872 107.181C144.359 106.801 144.755 106.339 144.639 105.67C144.581 105.348 144.441 105.026 144.268 104.745C144.028 104.349 143.673 104.341 143.368 104.679C143.038 105.051 142.939 105.497 142.898 106V106ZM147.982 98.4718C147.982 97.8775 147.892 97.473 147.594 97.151C147.396 96.9364 147.132 96.9282 146.893 97.0933C146.216 97.5473 146.084 98.8102 146.612 99.4871C146.777 99.6935 147 99.743 147.239 99.6605C147.471 99.5779 147.66 99.4293 147.751 99.2065C147.867 98.9175 147.933 98.6204 147.974 98.4718H147.982ZM141.428 99.3716C141.428 99.0083 141.362 98.7855 141.197 98.5708C140.9 98.1746 140.429 98.1664 140.173 98.5791C139.852 99.1074 139.728 99.677 139.843 100.288C139.876 100.461 139.975 100.626 140.074 100.767C140.206 100.956 140.421 100.973 140.627 100.857C141.214 100.535 141.42 100.007 141.412 99.3633L141.428 99.3716Z" fill="#595A5A"/>
<path d="M42.5779 86.296C42.256 86.329 42.0248 86.1392 41.7772 86.0236C39.598 84.967 37.6581 83.5637 35.9246 81.8715C32.8704 78.875 30.6829 75.3255 29.1392 71.355C28.1074 68.6887 27.4223 65.9316 27.1168 63.092C26.6133 58.4694 26.9517 53.9128 28.4293 49.48C28.4789 49.3314 28.5284 49.1828 28.5614 49.026C28.677 48.4894 28.4293 48.0437 27.9093 47.8455C27.835 47.8208 27.7607 47.8125 27.6781 47.7878C26.5307 47.5319 25.664 46.8385 24.9128 45.9717C23.8562 44.75 23.2949 43.3055 23.006 41.7371C22.9152 41.25 22.8822 40.7547 22.8491 40.2595C22.8244 39.8302 22.9895 39.434 23.2123 39.079C23.5921 38.4682 24.1286 38.2866 24.8303 38.4847C25.6475 38.7241 26.2914 39.2029 26.7123 39.9293C27.1416 40.6722 27.4883 41.4646 27.5626 42.3396C27.6039 42.8102 27.8845 43.1073 28.3303 43.2064C28.71 43.2889 29.1888 43.0661 29.3869 42.6946C29.5437 42.4139 29.6098 42.1085 29.5024 41.7866C29.3621 41.3408 29.2383 40.8868 29.0732 40.4411C28.9411 40.0944 28.8421 39.7807 28.9164 39.3845C28.9906 38.98 28.9576 38.5507 28.9576 38.1297C28.9659 37.2382 29.1145 36.3632 29.3621 35.5047C29.4859 35.0838 29.6675 34.671 29.8904 34.2913C30.2041 33.7465 30.7076 33.4411 31.335 33.3007C31.8881 33.1769 32.3668 33.3007 32.8043 33.6474C33.4647 34.1757 33.8197 34.8939 33.993 35.7029C34.1416 36.4045 34.0756 37.1062 33.9105 37.7996C33.7454 38.4929 33.4812 39.1368 33.184 39.7807C32.9777 40.2347 32.7796 40.6887 32.5567 41.1345C32.2265 41.8113 32.4906 42.3231 32.9281 42.5543C33.4482 42.8267 33.993 42.5708 34.3149 41.9187C34.6286 41.283 34.9423 40.6557 35.1982 39.9953C35.3798 39.5413 35.6357 39.2029 36.0402 38.9139C36.4942 38.592 36.9317 38.2866 37.4765 38.138C38.1699 37.9481 38.5496 38.0637 38.9623 38.658C39.6722 39.6899 39.8373 40.8208 39.5649 42.026C39.4081 42.7194 39.0779 43.3467 38.6156 43.8915C38.2937 44.2795 37.9057 44.5932 37.4435 44.783C36.6758 45.0967 35.8998 45.4022 35.0414 45.4269C34.5543 45.4434 34.1911 45.7901 34.1251 46.2359C34.0508 46.7477 34.2902 47.1521 34.7937 47.3338C35.0496 47.4246 35.2973 47.4411 35.5614 47.375C36.6263 47.1109 37.6911 46.8797 38.6487 46.3019C39.21 45.9635 39.8539 45.9965 40.4812 46.0708C40.6298 46.0873 40.7784 46.1781 40.9022 46.2689C41.6121 46.8302 41.802 47.9859 41.3149 48.7453C40.8939 49.4057 40.2831 49.8597 39.5402 50.0908C39.1439 50.2147 38.723 50.2807 38.3102 50.3054C36.7831 50.4045 35.289 50.2146 33.8609 49.6203C33.3161 49.3892 32.7548 49.3479 32.177 49.3396C31.6899 49.3314 31.3928 49.579 31.2194 50C31.1699 50.1156 31.1534 50.2559 31.1204 50.3797C30.7654 51.8243 30.5013 53.2937 30.3527 54.7713C30.2619 55.6793 30.1711 56.5873 30.1298 57.5036C29.9399 62.2253 30.5673 66.8314 32.2513 71.2642C33.1345 73.6003 34.3149 75.7713 35.8833 77.7194C37.5178 79.7418 39.4659 81.3597 41.8845 82.3833C41.9753 82.4246 42.0661 82.4741 42.1899 82.5401L42.5531 86.263L42.5779 86.296Z" fill="#92C6EA"/>
<path d="M123.895 68.1521L123.086 65.7417C123.144 65.6757 123.177 65.6014 123.235 65.5601C125.051 64.4953 126.454 63.0012 127.651 61.2842C129.294 58.9233 130.416 56.3231 131.184 53.5578C131.729 51.6097 132.042 49.6285 132.084 47.6144C132.108 46.5991 131.993 45.5837 131.927 44.5684C131.91 44.362 131.861 44.1557 131.803 43.9575C131.654 43.454 131.217 43.1238 130.73 43.2807C129.937 43.5283 129.178 43.4045 128.41 43.2559C125.662 42.7276 123.862 41.0684 122.863 38.4929C122.698 38.0637 122.682 37.6262 122.748 37.1804C122.847 36.4788 123.309 36.0908 124.027 36.033C124.572 35.9917 125.075 36.1238 125.513 36.421C125.942 36.7099 126.355 37.0401 126.726 37.4033C127.114 37.7913 127.436 38.237 127.783 38.658C128.121 39.079 128.509 39.2028 128.947 39.0295C129.475 38.8231 129.715 38.27 129.492 37.75C129.417 37.5849 129.318 37.4281 129.203 37.2877C128.575 36.52 127.94 35.7523 127.123 35.1745C126.867 34.9929 126.735 34.77 126.71 34.4646C126.57 33.0448 126.652 31.6415 127.139 30.2877C127.279 29.8998 127.478 29.52 127.709 29.1816C128.187 28.4717 128.972 28.2901 129.789 28.645C130.433 28.934 130.92 29.388 131.25 30.0071C131.72 30.8986 132.018 31.8314 132.009 32.8549C132.009 33.1934 131.993 33.5318 131.985 33.8703C131.985 34.1097 131.927 34.3243 131.82 34.5389C131.514 35.1663 131.704 35.7111 132.29 35.967C132.851 36.2064 133.454 35.9505 133.693 35.3479C133.784 35.1085 133.834 34.8443 133.867 34.5884C134.015 33.3585 134.032 32.1368 133.702 30.9316C133.685 30.8573 133.685 30.7748 133.685 30.7252C133.809 30.4693 133.908 30.2299 134.048 30.0071C134.436 29.3797 134.981 28.9505 135.724 28.8266C136.591 28.6863 137.466 29.1733 137.903 30.0236C138.225 30.6427 138.324 31.3113 138.225 32.0047C138.118 32.7641 137.887 33.4823 137.441 34.1179C137.061 34.6545 136.657 35.158 136.261 35.6781C136.12 35.8679 135.947 36.033 135.823 36.2311C135.575 36.6274 135.625 37.0731 135.93 37.3868C136.236 37.7087 136.756 37.7748 137.152 37.5189C137.301 37.4198 137.433 37.2877 137.557 37.1474C138.184 36.4457 138.762 35.7111 139.249 34.9021C139.703 34.1509 140.462 33.9281 141.263 34.2665C142.113 34.6297 142.485 35.2983 142.468 36.1898C142.452 36.8172 142.303 37.4281 142.055 38.0141C141.478 39.3762 140.479 40.342 139.199 41.0189C138.349 41.4729 137.424 41.77 136.475 41.9682C136.219 42.0177 135.955 42.0094 135.699 42.0342C135.518 42.0507 135.328 42.0507 135.163 42.1085C134.75 42.2323 134.511 42.5377 134.494 42.9752C134.486 43.2064 134.502 43.4457 134.544 43.6769C134.857 45.6002 134.849 47.5318 134.626 49.4552C134.312 52.171 133.594 54.7795 132.488 57.2807C130.639 61.4328 127.989 64.974 124.465 67.8549C124.324 67.9705 124.167 68.0696 124.019 68.1686C124.002 68.1769 123.969 68.1686 123.895 68.1686V68.1521Z" fill="#92C6EA"/>
<path d="M67.862 45.5756C69.158 46.5991 68.8195 47.8208 68.0188 48.7701C67.4905 49.3975 66.8054 49.835 66.0625 50.1734C65.5837 50.3881 65.1049 50.5779 64.6261 50.7925C64.2217 50.9741 63.8172 51.1475 63.421 51.3539C61.5141 52.3279 60.5318 53.9211 60.3502 56.0343C60.3089 56.5296 60.2594 57.0249 60.1851 57.5119C60.0778 58.2796 59.7806 58.9647 59.3019 59.5756C59.0955 59.8397 58.8891 60.1121 58.6662 60.3763C58.0967 61.0614 57.7747 61.8456 57.6592 62.7206C57.6096 63.0838 57.5519 63.447 57.4941 63.802C57.3042 65.0567 56.7016 66.1133 55.8927 67.0626C55.2818 67.7807 54.5884 68.4164 53.796 68.9447C52.0377 70.1168 50.2795 71.2973 48.4056 72.2878C47.1261 72.9565 45.9292 73.7407 44.8478 74.6982C44.5672 74.9458 44.5589 74.9376 44.1379 75.0614C44.1627 74.789 44.1627 74.5331 44.204 74.2772C44.5011 72.1805 45.0047 70.1333 45.6898 68.1192C46.2181 66.5591 46.7299 64.9989 47.382 63.4883C48.3066 61.3668 49.4705 59.4022 50.8986 57.5779C51.8974 56.2984 52.954 55.0685 54.0684 53.8963C55.6285 52.2619 57.362 50.8421 59.2523 49.6121C61.0931 48.4152 62.9752 47.2843 65.0389 46.5083C65.8396 46.2029 66.6568 45.9305 67.474 45.6499C67.5978 45.6086 67.7299 45.6003 67.8703 45.5756H67.862Z" fill="#5AA445"/>
<path d="M118.282 81.0543C118.348 80.072 118.406 79.197 118.464 78.3137C118.497 77.868 118.604 77.4387 118.786 77.0342C119.702 74.9871 120.758 73.0142 121.922 71.0991C121.947 71.0578 122.005 71.033 122.071 70.9835C122.12 71.0661 122.195 71.1404 122.219 71.2312C122.533 72.4941 122.855 73.7571 123.144 75.0283C123.615 77.1085 123.697 79.2052 123.482 81.3267C123.466 81.4835 123.441 81.6404 123.416 81.7889C123.4 81.8632 123.375 81.9375 123.342 82.0613C122.896 82.0283 122.533 81.7559 122.104 81.6734C121.699 81.5908 121.295 81.467 120.89 81.3927C120.453 81.3184 120.015 81.2772 119.578 81.2194C119.165 81.1698 118.753 81.1203 118.282 81.0625V81.0543Z" fill="#5AA445"/>
<path d="M41.8679 80.1793C39.8042 79.3951 36.9481 76.4481 35.8254 74.1286C37.2865 72.5024 40.9764 72.5849 42.3136 73.6085C42.3136 74.3184 42.1155 75.0283 42.0495 75.7547C41.9917 76.4811 41.9587 77.2076 41.9339 77.9422C41.9009 78.6686 41.8927 79.3951 41.8679 80.1875V80.1793Z" fill="#9A979B"/>
<path d="M73.3761 73.1958H71.1721C71.1226 72.9564 71.0566 72.7335 71.0401 72.5107C70.8997 70.8515 71.0483 69.2335 71.6014 67.6569C71.8325 66.9883 72.1462 66.3609 72.6085 65.8161C73.5577 64.7017 74.5978 64.6769 75.5967 65.7583C75.7205 65.8904 75.8195 66.0472 75.9516 66.2206C75.6957 66.3692 75.4481 66.493 75.2335 66.6581C75.0353 66.8149 74.8537 67.0213 74.7051 67.2276C74.5401 67.4588 74.3997 67.7147 74.2759 67.9706C74.1603 68.2017 74.053 68.4411 73.9787 68.6887C73.5577 70.0177 73.2936 71.3633 73.3679 72.7666C73.3679 72.8904 73.3679 73.0225 73.3679 73.2123L73.3761 73.1958Z" fill="white"/>
<path d="M87.2112 69.6298L84.3798 71.0414C84.3303 70.934 84.2643 70.8267 84.2395 70.7194C83.835 68.9034 83.802 67.0956 84.3138 65.2961C84.4871 64.6935 84.743 64.1157 85.1145 63.6039C85.3786 63.2407 85.6841 62.9187 86.0968 62.7206C86.6746 62.4399 87.236 62.4565 87.7808 62.8197C86.8727 64.4376 86.7159 66.1546 86.914 67.9128C86.9801 68.4824 87.1121 69.0437 87.2194 69.6215L87.2112 69.6298Z" fill="white"/>
<path d="M15.4282 87.1215C15.5108 86.7418 15.7089 86.5684 15.9318 86.4281C16.1794 86.2712 16.4683 86.3538 16.5921 86.6097C16.7077 86.8326 16.7572 87.0554 16.6004 87.2783C16.4518 87.4847 16.1959 87.5425 15.8905 87.4186C15.7254 87.3526 15.5933 87.2288 15.4282 87.1297V87.1215Z" fill="white"/>
<path d="M13.0756 88.4587C13.0591 89.3998 12.8858 89.8373 12.4317 90.1262C12.2914 89.9116 12.3079 89.6722 12.3657 89.4658C12.44 89.1934 12.5556 88.9293 12.6876 88.6899C12.7372 88.5991 12.894 88.5578 13.0756 88.4587Z" fill="white"/>
<path d="M158.912 88.3019C159.085 88.1698 159.217 88.046 159.374 87.9717C159.481 87.9222 159.622 87.9139 159.745 87.9387C159.985 87.98 160.125 88.2524 160.125 88.6238C160.125 88.954 160.009 89.1852 159.77 89.2429C159.679 89.2677 159.547 89.2429 159.489 89.1934C159.242 88.9705 159.027 88.7146 158.912 88.3019Z" fill="white"/>
<path d="M156.477 88.6486C156.336 89.0531 156.171 89.4245 155.866 89.7135C155.791 89.7877 155.635 89.8125 155.527 89.796C155.461 89.7795 155.379 89.6557 155.362 89.5649C155.296 89.2347 155.428 88.954 155.676 88.7477C155.899 88.5578 156.155 88.467 156.468 88.6569L156.477 88.6486Z" fill="white"/>
<path d="M97.4883 83.2088C98.0744 83.2006 98.5531 83.7619 98.3633 84.2985C98.1569 84.8928 97.8185 85.4211 97.2654 85.7595C96.8031 86.0484 96.2583 85.9411 95.9446 85.5284C95.763 85.2808 95.73 85.0084 95.7796 84.7194C95.8951 84.0921 96.6958 83.3244 97.3232 83.2253C97.3727 83.2253 97.4222 83.2171 97.48 83.2088H97.4883Z" fill="black"/>
<path d="M131.853 122.014C131.836 122.179 131.836 122.452 131.77 122.699C131.646 123.178 131.258 123.442 130.788 123.426C130.342 123.409 130.053 123.162 129.905 122.675C129.797 122.336 129.822 122.006 129.913 121.667C129.979 121.42 130.045 121.164 130.144 120.925C130.301 120.537 130.606 120.355 131.003 120.388C131.374 120.413 131.663 120.669 131.77 121.065C131.787 121.139 131.803 121.222 131.803 121.296C131.82 121.502 131.828 121.717 131.845 122.014H131.853Z" fill="black"/>
<path d="M47.0024 122.683C47.3326 122.724 47.6462 122.741 47.9517 122.815C48.3479 122.906 48.6616 123.153 48.8514 123.508C49.1238 124.012 48.9257 124.581 48.3974 124.813C48.0755 124.953 47.7618 124.986 47.4151 124.862C46.9859 124.705 46.6392 124.449 46.342 124.111C46.1026 123.839 46.0118 123.525 46.1934 123.178C46.3668 122.831 46.6639 122.716 47.0024 122.691V122.683Z" fill="black"/>
<path d="M135.262 122.856C135.237 122.023 136.038 121.519 136.682 121.923C137.07 122.171 137.416 122.501 137.738 122.84C138.011 123.129 138.044 123.5 137.846 123.855C137.656 124.21 137.268 124.342 136.838 124.293C136.145 124.202 135.732 123.756 135.377 123.219C135.295 123.096 135.287 122.931 135.262 122.848V122.856Z" fill="black"/>
<path d="M100.121 86.1722C100.641 86.1888 101.071 86.5767 101.071 87.072C101.071 87.6168 100.955 88.1616 100.625 88.6239C100.303 89.0696 99.7417 89.1522 99.3125 88.8468C99.0401 88.6569 98.8915 88.3845 98.908 88.0461C98.9245 87.5425 99.0896 87.072 99.3125 86.6345C99.4776 86.3043 99.7995 86.1805 100.13 86.1805L100.121 86.1722Z" fill="black"/>
<path d="M95.4492 91.2489C94.987 91.2324 94.6238 90.927 94.5495 90.4895C94.4999 90.2006 94.5164 89.8952 94.6815 89.6558C94.9209 89.3173 95.1686 88.9789 95.474 88.6982C95.7959 88.3928 96.1509 88.3928 96.4811 88.5992C96.8113 88.7973 96.9598 89.1192 96.869 89.5402C96.7617 90.0272 96.5719 90.4895 96.2417 90.8692C96.0271 91.1168 95.7629 91.2737 95.4575 91.2489H95.4492Z" fill="black"/>
<path d="M105.182 88.0956C104.596 88.0048 104.092 87.7076 103.77 87.171C103.456 86.651 103.869 85.9493 104.496 85.9493C104.934 85.9493 105.38 85.9989 105.801 86.1144C106.436 86.2878 106.643 87.0555 106.213 87.5507C105.958 87.8479 105.644 88.0791 105.182 88.0956Z" fill="black"/>
<path d="M132.984 116.83C132.967 116.45 133.058 116.104 133.256 115.79C133.454 115.468 133.743 115.336 134.114 115.377C134.494 115.419 134.717 115.641 134.833 115.996C134.956 116.401 135.023 116.805 134.948 117.226C134.882 117.639 134.668 117.953 134.247 118.068C133.685 118.225 133.198 117.936 133.05 117.375C133.008 117.202 133.008 117.02 132.984 116.838V116.83Z" fill="black"/>
<path d="M131.085 114.271C131.085 114.742 130.821 115.121 130.425 115.221C129.962 115.336 129.533 115.146 129.335 114.684C129.186 114.354 129.054 114.007 128.98 113.652C128.84 112.942 129.467 112.381 130.177 112.53C130.449 112.587 130.647 112.736 130.771 112.984C130.928 113.281 131.077 113.883 131.077 114.263L131.085 114.271Z" fill="black"/>
<path d="M44.0143 120.297C44.0226 120.842 43.5933 121.296 43.0402 121.312C42.4129 121.329 41.7195 120.751 41.7195 120.206C41.7195 119.736 42.3551 119.084 42.8421 119.059C43.3952 119.026 44.006 119.67 44.0143 120.305V120.297Z" fill="black"/>
<path d="M42.0578 125.143C41.6203 125.085 41.1745 124.829 40.9104 124.342C40.737 124.02 40.7948 123.682 41.0259 123.384C41.2901 123.054 41.645 122.996 42.0165 123.104C42.3962 123.211 42.7181 123.459 42.9245 123.805C43.2877 124.408 42.875 125.134 42.0578 125.143V125.143Z" fill="black"/>
<path d="M38.2112 124.548C38.236 125.135 37.8232 125.547 37.3362 125.506C36.618 125.448 36.065 124.722 36.1888 124.012C36.2796 123.5 36.8987 123.112 37.3775 123.384C37.8562 123.657 38.1121 124.094 38.2112 124.54V124.548Z" fill="black"/>
<path d="M37.757 119.315C38.2771 119.298 38.5907 119.497 38.7558 119.909C38.9127 120.297 38.8797 120.685 38.6073 121.015C38.3266 121.37 37.8726 121.453 37.4846 121.222C37.3113 121.114 37.1462 120.974 37.0058 120.826C36.7582 120.553 36.6839 120.231 36.816 119.876C36.9481 119.521 37.2287 119.356 37.6002 119.323C37.6745 119.323 37.757 119.315 37.757 119.315V119.315Z" fill="black"/>
<path d="M10.9375 104.77C10.987 104.25 11.0943 103.846 11.3502 103.507C11.763 102.962 12.5142 103.037 12.8361 103.647C12.9764 103.92 13.0177 104.209 12.9269 104.481C12.8196 104.828 12.6792 105.175 12.4976 105.48C12.1427 106.074 11.4575 106.041 11.1439 105.422C11.0283 105.199 10.987 104.935 10.9375 104.77Z" fill="black"/>
<path d="M18.4989 109.715C18.5071 110.235 18.3833 110.598 18.1522 110.928C17.8963 111.291 17.4918 111.324 17.1451 111.027C16.6416 110.581 16.4847 109.764 16.8149 109.178C16.9883 108.864 17.2277 108.65 17.6156 108.658C18.0036 108.666 18.2347 108.914 18.3751 109.236C18.4576 109.426 18.4824 109.632 18.4989 109.723V109.715Z" fill="black"/>
<path d="M11.532 110.986C11.532 110.639 11.6558 110.276 11.9777 110.004C12.2914 109.739 12.6711 109.748 12.96 110.045C13.0674 110.152 13.1664 110.293 13.2159 110.433C13.4306 111.035 13.3398 111.622 13.0261 112.166C12.828 112.513 12.3987 112.554 12.0768 112.298C11.7384 112.034 11.532 111.547 11.5402 110.986H11.532Z" fill="black"/>
<path d="M17.3762 102.839C17.401 103.532 17.2359 103.986 16.8727 104.357C16.5838 104.655 16.1958 104.638 15.9069 104.341C15.651 104.077 15.5849 103.755 15.5932 103.4C15.6015 102.905 15.7996 102.484 16.171 102.162C16.5425 101.84 16.9717 101.897 17.2194 102.335C17.3267 102.533 17.3597 102.772 17.3762 102.83V102.839Z" fill="black"/>
<path d="M16.4022 116.434C16.3361 116.665 16.2866 116.979 16.1463 117.251C15.8904 117.747 15.2548 117.788 14.9246 117.35C14.6687 117.02 14.4953 116.64 14.5366 116.203C14.5779 115.683 14.8833 115.287 15.2795 115.245C15.7996 115.196 16.2206 115.51 16.3526 116.054C16.3774 116.153 16.3857 116.261 16.4104 116.442L16.4022 116.434Z" fill="black"/>
<path d="M9.23715 111.869C9.19588 112.034 9.16286 112.307 9.05555 112.53C8.84918 112.967 8.37041 113.033 8.01545 112.711C7.54493 112.274 7.39635 111.465 7.71003 110.912C7.79257 110.763 7.94116 110.631 8.08149 110.524C8.28786 110.359 8.51899 110.392 8.73361 110.524C8.98951 110.689 9.12984 110.936 9.18762 111.225C9.22064 111.407 9.22064 111.589 9.23715 111.861V111.869Z" fill="black"/>
<path d="M9.66626 116.219C9.66626 115.815 9.76532 115.476 10.1038 115.254C10.2854 115.13 10.4752 115.105 10.6898 115.212C11.4245 115.584 11.6474 116.781 10.9953 117.425C10.6981 117.713 10.2441 117.656 9.97994 117.301C9.7323 116.971 9.68277 116.591 9.67451 116.219H9.66626Z" fill="black"/>
<path d="M6.29834 115.608C6.35612 115.336 6.37263 115.072 6.46343 114.841C6.56249 114.593 6.76886 114.42 7.05777 114.42C7.31367 114.42 7.50353 114.544 7.62735 114.766C7.90801 115.262 7.99881 115.782 7.79244 116.327C7.68513 116.607 7.49527 116.814 7.17334 116.83C6.86792 116.855 6.579 116.682 6.45518 116.343C6.36438 116.104 6.34787 115.848 6.29834 115.6V115.608Z" fill="black"/>
<path d="M138.168 107.114C138.126 107.445 138.077 107.75 137.87 108.006C137.689 108.245 137.458 108.303 137.185 108.179C136.203 107.734 135.931 106.355 136.665 105.554C137.086 105.1 137.59 105.166 137.821 105.761C137.986 106.19 138.052 106.66 138.159 107.114H138.168Z" fill="black"/>
<path d="M151.623 106.966C151.639 107.37 151.474 107.767 151.086 108.055C150.797 108.278 150.492 108.245 150.261 107.965C150.178 107.866 150.112 107.75 150.054 107.634C149.757 106.966 149.881 106.305 150.153 105.67C150.343 105.224 150.756 105.199 151.086 105.563C151.474 105.984 151.623 106.363 151.614 106.966H151.623Z" fill="black"/>
<path d="M142.897 106C142.939 105.497 143.038 105.051 143.368 104.679C143.673 104.341 144.028 104.349 144.268 104.745C144.441 105.026 144.581 105.348 144.639 105.67C144.755 106.339 144.359 106.801 143.872 107.181C143.698 107.321 143.401 107.247 143.236 107.065C142.955 106.751 142.93 106.363 142.897 106V106Z" fill="black"/>
<path d="M147.974 98.4718C147.933 98.6121 147.858 98.9175 147.751 99.2065C147.66 99.4293 147.471 99.5779 147.239 99.6605C147 99.743 146.769 99.6935 146.612 99.4871C146.075 98.8102 146.216 97.5555 146.893 97.0932C147.132 96.9282 147.396 96.9447 147.594 97.151C147.891 97.473 147.982 97.8774 147.982 98.4718H147.974Z" fill="black"/>
<path d="M141.428 99.3716C141.428 100.007 141.23 100.535 140.644 100.866C140.437 100.981 140.223 100.956 140.091 100.775C139.983 100.635 139.893 100.469 139.86 100.296C139.736 99.6852 139.868 99.1074 140.19 98.5874C140.446 98.1664 140.916 98.1746 141.213 98.5791C141.379 98.802 141.436 99.0166 141.445 99.3798L141.428 99.3716Z" fill="black"/>
<path d="M12.7122 31.5425C12.6214 30.8161 12.5389 30.0897 12.4233 29.3633C12.3325 28.8267 12.1014 28.3232 11.8207 27.8527C11.3089 26.9942 10.5495 26.4741 9.59196 26.2182C9.38559 26.1604 9.17097 26.1274 8.98111 26.0449C8.32073 25.7642 8.04833 25.1616 8.26295 24.4847C8.33724 24.2619 8.44455 24.0472 8.55186 23.8409C8.82427 23.3373 9.10493 22.8503 9.37734 22.3468C9.8396 21.4883 10.1368 20.572 10.3101 19.6062C10.4752 18.6899 10.3596 17.8149 10.0625 16.9564C10.0047 16.7748 9.91389 16.6015 9.88087 16.4199C9.7488 15.8255 10.112 15.4045 10.7229 15.4045C10.8384 15.4045 10.9622 15.4211 11.0778 15.4211C11.4988 15.4293 11.796 15.6274 11.9941 15.9824C12.1757 16.3126 12.3655 16.6427 12.5306 16.9812C13.1085 18.1534 13.9587 19.0861 15.0483 19.8126C15.7417 20.2666 16.4434 20.7041 17.2276 20.9765C17.467 21.059 17.7063 21.1746 17.921 21.3232C18.5071 21.7111 18.6226 22.3385 18.2181 22.9246C18.1273 23.0567 18.0118 23.1805 17.9045 23.3043C17.6568 23.585 17.4092 23.8821 17.1533 24.1545C16.3526 24.9965 15.849 25.9953 15.5023 27.0932C15.0318 28.5873 14.7099 30.1062 14.5283 31.6663C14.4953 31.9718 14.454 32.2772 14.3632 32.5744C14.2559 32.9458 13.9917 33.1769 13.5955 33.2182C13.1415 33.2678 12.737 32.9871 12.671 32.5248C12.6214 32.2029 12.6627 31.8644 12.6627 31.5343H12.6957L12.7122 31.5425ZM13.5707 27.1593C13.9174 26.309 14.2229 25.4836 14.5861 24.6994C14.9658 23.8821 15.6427 23.2713 16.204 22.5201C14.7016 21.7689 13.3231 20.9187 12.1922 19.6805C11.928 20.539 11.7217 21.3644 11.408 22.1404C11.0861 22.9411 10.6486 23.7005 10.2688 24.4765C12.3243 25.5991 12.0023 25.2607 13.5707 27.1675V27.1593Z" fill="black"/>
<path d="M13.579 27.1675C12.0106 25.2607 12.3408 25.5991 10.2771 24.4765C10.6651 23.7005 11.0943 22.9411 11.4162 22.1404C11.7299 21.3644 11.928 20.539 12.2004 19.6805C13.3313 20.9187 14.7099 21.7689 16.2122 22.5201C15.6509 23.2713 14.974 23.8904 14.5943 24.6994C14.2229 25.4918 13.9257 26.309 13.579 27.1593V27.1675Z" fill="#FEDA00"/>
<path d="M130.879 6.77834C130.887 7.07551 130.746 7.34792 130.532 7.57905C130.317 7.80193 130.086 8.00004 129.855 8.19815C129.533 8.47881 129.195 8.74296 128.881 9.03188C128.171 9.67575 127.61 10.4269 127.222 11.3102C126.966 11.8963 126.702 12.4824 126.437 13.0602C126.338 13.2748 126.248 13.4977 126.107 13.6875C125.645 14.3066 124.811 14.2158 124.506 13.5059C124.423 13.3161 124.382 13.1015 124.333 12.8951C124.192 12.3668 124.077 11.8385 123.903 11.3184C123.771 10.914 123.598 10.526 123.391 10.1545C122.929 9.32079 122.203 8.8998 121.245 8.85853C120.981 8.85028 120.725 8.85853 120.461 8.85028C120.296 8.85028 120.123 8.83377 119.974 8.77598C119.404 8.57787 119.157 7.99178 119.429 7.45523C119.545 7.2241 119.726 7.02598 119.891 6.82787C120.379 6.2748 120.874 5.73825 121.353 5.18518C121.939 4.50829 122.335 3.74886 122.525 2.86561C122.616 2.43636 122.64 2.01537 122.574 1.59438C122.483 1.04131 122.715 0.636834 123.07 0.257117C123.375 -0.0648172 124.077 -0.147365 124.432 0.380937C124.522 0.513013 124.588 0.669851 124.654 0.826691C125.166 2.09792 126.05 3.07197 127.123 3.88094C127.857 4.44226 128.658 4.90452 129.492 5.309C129.789 5.44933 130.086 5.60617 130.358 5.78778C130.738 6.04367 130.879 6.34084 130.879 6.77834V6.77834ZM124.209 3.51773C123.953 4.28542 123.722 4.93754 123.317 5.49061C122.921 6.03542 122.492 6.56372 122.029 7.17457C122.904 7.36443 123.623 7.73589 124.217 8.33849C124.82 8.95759 125.183 9.71702 125.562 10.6085C125.975 9.8491 126.322 9.1557 126.858 8.59438C127.403 8.01655 127.981 7.46348 128.567 6.88565C127.816 6.41513 127.057 5.94461 126.314 5.46584C125.538 4.9623 124.894 4.30193 124.217 3.51773H124.209Z" fill="black"/>
<path d="M124.209 3.526C124.886 4.3102 125.529 4.97058 126.305 5.47411C127.048 5.96114 127.808 6.42341 128.559 6.89393C127.973 7.47176 127.403 8.02482 126.85 8.60265C126.314 9.16397 125.967 9.85737 125.554 10.6168C125.175 9.72529 124.82 8.96586 124.209 8.34676C123.614 7.74416 122.896 7.36444 122.021 7.18284C122.492 6.57199 122.913 6.05194 123.309 5.49888C123.713 4.94581 123.945 4.29369 124.2 3.526H124.209Z" fill="#A3A3D1"/>
<path d="M51.7737 40.8868C51.9553 40.4328 52.1534 39.987 52.3185 39.5248C52.4423 39.1781 52.4671 38.8149 52.4588 38.4516C52.4423 37.783 52.1699 37.2299 51.6994 36.7759C51.6004 36.6769 51.4848 36.5861 51.4022 36.4788C51.1133 36.0991 51.1463 35.6616 51.493 35.3314C51.6086 35.2241 51.7407 35.1333 51.8728 35.0507C52.1947 34.8443 52.5166 34.6545 52.8386 34.4481C53.3834 34.0932 53.8622 33.6639 54.2749 33.1604C54.6711 32.6816 54.8857 32.1368 54.993 31.5342C55.0178 31.4104 55.0261 31.2783 55.0591 31.1627C55.1747 30.7748 55.5213 30.6427 55.8763 30.8491C55.9423 30.8903 56.0084 30.9399 56.0744 30.9729C56.3138 31.1132 56.4294 31.3278 56.4211 31.6002C56.4211 31.8561 56.4211 32.1038 56.4046 32.3597C56.3633 33.2347 56.5532 34.0519 56.9494 34.8278C57.2053 35.3231 57.4695 35.8019 57.8409 36.2229C57.9565 36.355 58.0556 36.4953 58.1381 36.6521C58.3527 37.0731 58.2124 37.4693 57.7914 37.6757C57.6923 37.7252 57.585 37.7583 57.486 37.7913C57.2466 37.8738 57.0072 37.9646 56.7678 38.0389C56.0249 38.27 55.414 38.6828 54.8445 39.2111C54.085 39.9292 53.3999 40.7052 52.789 41.5554C52.6652 41.7205 52.5414 41.8856 52.4011 42.0342C52.2195 42.2158 51.9883 42.2653 51.7489 42.158C51.4683 42.0425 51.328 41.7453 51.4353 41.4564C51.5178 41.25 51.6416 41.0684 51.7489 40.8785H51.7737V40.8868ZM53.7053 38.625C54.1841 38.2453 54.6298 37.8656 55.1004 37.5189C55.5874 37.1722 56.1817 37.0318 56.7513 36.7759C56.1239 35.8514 55.5956 34.9021 55.3397 33.8125C54.9022 34.2252 54.5225 34.638 54.085 34.9929C53.631 35.3561 53.1357 35.6533 52.657 35.9835C53.4907 37.3042 53.4081 37.0071 53.7053 38.625Z" fill="black"/>
<path d="M53.7053 38.6167C53.4164 36.9905 53.4907 37.2959 52.657 35.9752C53.1358 35.645 53.631 35.3478 54.085 34.9846C54.5225 34.6379 54.9023 34.2169 55.3398 33.8042C55.5957 34.8938 56.124 35.8431 56.7513 36.7676C56.1817 37.0235 55.5874 37.1556 55.1004 37.5106C54.6299 37.849 54.1841 38.2287 53.7053 38.6167Z" fill="#F15B22"/>
<path d="M61.2582 16.6923C61.1922 16.2053 61.1426 15.7182 61.0683 15.2395C61.0106 14.8763 60.8537 14.5461 60.6639 14.2324C60.3254 13.6546 59.8136 13.3079 59.178 13.1428C59.0377 13.1098 58.8973 13.085 58.7653 13.0272C58.3278 12.8456 58.1379 12.4329 58.2865 11.9871C58.336 11.8385 58.4103 11.6982 58.4846 11.5579C58.6662 11.2277 58.8561 10.8975 59.0377 10.559C59.3431 9.98121 59.5495 9.37862 59.665 8.73475C59.7724 8.1239 59.6981 7.53782 59.4999 6.96824C59.4587 6.85267 59.4009 6.73711 59.3761 6.61329C59.2853 6.21706 59.5247 5.9364 59.9374 5.9364C60.02 5.9364 60.0943 5.94466 60.1768 5.95291C60.4575 5.95291 60.6556 6.09324 60.7877 6.33263C60.9115 6.55551 61.0353 6.77838 61.1426 7.00126C61.5306 7.78546 62.1002 8.40456 62.8266 8.89159C63.2889 9.19702 63.7594 9.48593 64.2794 9.66753C64.4445 9.72532 64.6014 9.79961 64.7417 9.89867C65.1379 10.1628 65.2122 10.5756 64.9398 10.9635C64.8738 11.0543 64.7995 11.1369 64.7252 11.2194C64.5601 11.4093 64.395 11.5991 64.2216 11.789C63.6851 12.3503 63.3549 13.0189 63.1238 13.7536C62.8101 14.7524 62.5955 15.7678 62.4799 16.8079C62.4551 17.0142 62.4304 17.2206 62.3726 17.4105C62.2983 17.6581 62.1249 17.8149 61.8608 17.8397C61.5554 17.8727 61.2912 17.6829 61.2417 17.3774C61.2087 17.1628 61.2417 16.9399 61.2417 16.7171H61.2665L61.2582 16.6923ZM61.836 13.7701C62.0672 13.2006 62.2653 12.6557 62.5129 12.1274C62.7688 11.5826 63.2146 11.1699 63.5943 10.6746C62.5955 10.1711 61.6709 9.60975 60.9115 8.77603C60.7299 9.35386 60.5978 9.89867 60.3915 10.4187C60.1768 10.9553 59.8879 11.4588 59.632 11.9789C61.0106 12.73 60.7877 12.4989 61.836 13.7784V13.7701Z" fill="black"/>
<path d="M61.8361 13.7784C60.7877 12.5071 61.0106 12.73 59.6321 11.9788C59.888 11.4588 60.1769 10.9552 60.3915 10.4187C60.5979 9.89864 60.7382 9.35383 60.9116 8.776C61.671 9.60147 62.5873 10.171 63.5943 10.6746C63.2229 11.1781 62.7689 11.5909 62.513 12.1274C62.2653 12.6557 62.0672 13.2005 61.8361 13.7701V13.7784Z" fill="#ED6F90"/>
<path d="M148.907 52.8892C149.179 52.4517 149.46 52.0142 149.724 51.5602C149.914 51.2217 150.013 50.842 150.071 50.4623C150.178 49.7607 149.988 49.1333 149.575 48.5637C149.485 48.4399 149.386 48.3243 149.311 48.1923C149.072 47.7465 149.187 47.2842 149.617 47.0118C149.757 46.921 149.914 46.855 150.062 46.789C150.434 46.6321 150.814 46.4918 151.185 46.335C151.821 46.0625 152.399 45.6993 152.927 45.2453C153.422 44.8161 153.752 44.2878 153.975 43.6769C154.025 43.5531 154.049 43.421 154.116 43.2972C154.305 42.9092 154.693 42.835 155.032 43.1156C155.098 43.1651 155.156 43.2312 155.222 43.2807C155.445 43.4706 155.527 43.7182 155.478 43.9989C155.428 44.263 155.387 44.5272 155.329 44.7913C155.123 45.6993 155.172 46.5908 155.453 47.4741C155.626 48.0354 155.824 48.5885 156.13 49.092C156.229 49.2489 156.303 49.4222 156.361 49.5956C156.509 50.0743 156.295 50.4623 155.808 50.6109C155.692 50.6439 155.577 50.6604 155.461 50.6769C155.197 50.7182 154.933 50.776 154.669 50.809C153.851 50.9163 153.133 51.2383 152.448 51.6923C151.524 52.3031 150.665 52.9965 149.873 53.7725C149.716 53.921 149.559 54.0779 149.377 54.2017C149.154 54.3585 148.907 54.3668 148.667 54.21C148.395 54.0366 148.296 53.6982 148.469 53.4175C148.585 53.2194 148.758 53.0543 148.907 52.8727H148.923L148.907 52.8892ZM151.334 50.875C151.903 50.5614 152.44 50.2477 152.993 49.9753C153.562 49.6946 154.215 49.6616 154.858 49.4965C154.371 48.4151 153.992 47.3255 153.917 46.1368C153.389 46.4918 152.91 46.855 152.39 47.1439C151.854 47.4411 151.276 47.664 150.723 47.9199C151.358 49.4552 151.325 49.125 151.334 50.875Z" fill="black"/>
<path d="M151.342 50.8667C151.334 49.1167 151.359 49.4469 150.731 47.9116C151.293 47.6557 151.87 47.4328 152.399 47.1356C152.919 46.8467 153.397 46.4835 153.926 46.1285C154 47.3172 154.372 48.3986 154.867 49.4882C154.223 49.6533 153.571 49.6863 153.001 49.967C152.448 50.2394 151.912 50.5531 151.342 50.8667V50.8667Z" fill="#FEDA00"/>
<path d="M87.2725 154.762C100.527 154.762 111.272 144.017 111.272 130.762C111.272 117.507 100.527 106.762 87.2725 106.762C74.0176 106.762 63.2725 117.507 63.2725 130.762C63.2725 144.017 74.0176 154.762 87.2725 154.762Z" fill="#FCD400"/>
<path d="M86.8218 136.918C85.7494 136.936 84.7063 136.564 83.888 135.87C82.222 134.376 81.3696 132.176 81.5933 129.95C81.9338 127.043 83.5632 125.288 86.4341 124.711C88.1892 124.371 90.6254 124.334 92.2704 125.235C92.7739 125.524 92.9473 126.167 92.6581 126.671C92.3689 127.174 91.7261 127.348 91.2226 127.058C90.1748 126.461 88.1997 126.477 86.8166 126.744C84.8415 127.126 83.8932 128.148 83.6732 130.155C83.5417 131.68 84.1216 133.18 85.2449 134.22C86.5651 135.32 88.4669 134.608 90.8087 133.555L91.5422 133.23C91.889 133.061 92.3013 133.096 92.6141 133.322C92.9269 133.548 93.0903 133.928 93.0395 134.31C92.9887 134.693 92.7315 135.016 92.37 135.153L91.6627 135.467C90.3163 136.127 88.5507 136.918 86.8218 136.918Z" fill="black"/>
<path d="M88.3466 141.46C87.7839 141.46 87.3213 141.016 87.2988 140.454C87.2988 140.428 87.194 137.903 87.0106 136.341C86.9666 135.967 87.1259 135.598 87.4282 135.373C87.73 135.147 88.1297 135.1 88.476 135.249C88.8218 135.398 89.0622 135.721 89.1063 136.095C89.3001 137.735 89.4049 140.26 89.4101 140.37C89.4216 140.648 89.3221 140.919 89.133 141.123C88.9444 141.328 88.6824 141.449 88.4042 141.46H88.3466Z" fill="black"/>
<path d="M87.4243 126.701C86.8637 126.702 86.4016 126.261 86.3765 125.701C86.2979 123.941 86.3765 121.2 86.3765 121.085C86.3859 120.711 86.5944 120.37 86.9234 120.191C87.2519 120.012 87.6517 120.022 87.9712 120.217C88.2903 120.412 88.4815 120.763 88.4721 121.138C88.4721 121.164 88.404 123.925 88.4721 125.612C88.4957 126.189 88.0483 126.676 87.4714 126.701H87.4243Z" fill="black"/>
<path d="M94.1252 149.711C93.6039 149.711 93.1618 149.328 93.0879 148.812C93.0146 148.296 93.3315 147.804 93.8318 147.658C97.6668 146.526 100.836 143.807 102.99 139.799C105.609 134.88 106.29 128.698 104.682 124.051C104.492 123.504 104.782 122.907 105.329 122.717C105.876 122.528 106.473 122.817 106.662 123.364C108.454 128.54 107.736 135.383 104.839 140.789C102.413 145.316 98.8089 148.391 94.4239 149.696C94.3254 149.714 94.2253 149.719 94.1252 149.711Z" fill="black"/>
<path d="M87.917 151.498C87.3381 151.555 86.8236 151.132 86.767 150.553C86.7105 149.974 87.1338 149.459 87.7127 149.403L88.0532 149.335C88.4241 149.25 88.8118 149.374 89.0654 149.657C89.3195 149.941 89.3996 150.339 89.2755 150.699C89.1513 151.058 88.8417 151.322 88.4671 151.388L88.1213 151.456C88.0553 151.478 87.9867 151.493 87.917 151.498Z" fill="black"/>
<path d="M70.7231 121.101C70.3401 121.1 69.988 120.891 69.8047 120.555C69.6213 120.219 69.636 119.81 69.8429 119.487C71.8804 116.549 74.5308 114.087 77.6124 112.273C80.5279 110.785 83.73 109.943 87.0007 109.806C87.5791 109.787 88.0637 110.241 88.0826 110.819C88.1015 111.398 87.6472 111.882 87.0689 111.901C84.1303 112.031 81.253 112.785 78.6288 114.112C75.851 115.756 73.4579 117.974 71.6085 120.619C71.4152 120.92 71.0809 121.102 70.7231 121.101Z" fill="black"/>
</svg>
