<svg width="76" height="76" viewBox="0 0 76 76" fill="none" xmlns="http://www.w3.org/2000/svg">
<path fill-rule="evenodd" clip-rule="evenodd" d="M75.7195 37.9995C75.7195 58.8312 58.832 75.7191 37.9999 75.7191C17.1677 75.7191 0.280273 58.8312 0.280273 37.9995C0.280273 17.1673 17.1677 0.279907 37.9999 0.279907C58.832 0.279907 75.7195 17.1673 75.7195 37.9995Z" fill="#EEF2F8"/>
<mask id="mask0_154_1735" style="mask-type:alpha" maskUnits="userSpaceOnUse" x="0" y="0" width="76" height="76">
<path fill-rule="evenodd" clip-rule="evenodd" d="M75.7195 37.9995C75.7195 58.8312 58.832 75.7191 37.9999 75.7191C17.1677 75.7191 0.280273 58.8312 0.280273 37.9995C0.280273 17.1673 17.1677 0.279907 37.9999 0.279907C58.832 0.279907 75.7195 17.1673 75.7195 37.9995Z" fill="white"/>
</mask>
<g mask="url(#mask0_154_1735)">
<path fill-rule="evenodd" clip-rule="evenodd" d="M31.5527 43.1313C31.5527 43.1313 34.3278 41.3183 33.8343 33.8308C33.8343 33.8308 38.2231 35.8847 43.0111 32.4119L44.1155 43.0449C44.1155 43.0449 40.7959 46.8156 37.3151 46.4499C33.8343 46.0842 31.5527 43.1313 31.5527 43.1313Z" fill="#D96E05"/>
<path fill-rule="evenodd" clip-rule="evenodd" d="M33.9409 33.6032C36.7783 34.9311 39.7416 34.4729 42.8637 32.2085C43.0203 32.0949 43.2411 32.1934 43.2611 32.3859L44.3655 43.0189C44.3728 43.0886 44.3505 43.1582 44.3042 43.2109C42.0418 45.7807 39.7003 46.9531 37.2889 46.6997C34.8988 46.4487 32.9162 45.3069 31.354 43.285C31.2643 43.1689 31.2927 43.0011 31.4154 42.921C33.1662 41.7771 33.9072 38.7565 33.5836 33.8473C33.5711 33.6566 33.7677 33.5222 33.9409 33.6032ZM43.8538 42.9603L42.805 32.8638L42.5978 33.0043C39.7188 34.9092 36.9255 35.3391 34.2411 34.2797L34.1096 34.2261L34.1161 34.3414C34.3499 38.8491 33.6544 41.7799 31.9883 43.1248L31.9141 43.1824L32.0335 43.3269C33.4176 44.967 35.1137 45.9138 37.1315 46.1754L37.3414 46.2C39.5711 46.4342 41.7633 45.3366 43.927 42.8788L43.8538 42.9603Z" fill="black"/>
<path fill-rule="evenodd" clip-rule="evenodd" d="M37.3241 34.5226C32.2522 34.5226 28.1406 30.1628 28.1406 24.7839C28.1406 19.405 32.2522 15.0447 37.3241 15.0447C42.3959 15.0447 46.5075 19.405 46.5075 24.7839C46.5075 30.1628 42.3959 34.5226 37.3241 34.5226Z" fill="#D96E05"/>
<path fill-rule="evenodd" clip-rule="evenodd" d="M37.3241 15.2959C32.399 15.2959 28.3919 19.5522 28.3919 24.7839C28.3919 30.0155 32.399 34.2713 37.3241 34.2713C42.2492 34.2713 46.2563 30.0155 46.2563 24.7839C46.2563 19.5522 42.2492 15.2959 37.3241 15.2959ZM37.3241 34.7738C32.1216 34.7738 27.8894 30.2924 27.8894 24.7839C27.8894 19.2748 32.1216 14.7935 37.3241 14.7935C42.5266 14.7935 46.7588 19.2748 46.7588 24.7839C46.7588 30.2924 42.5266 34.7738 37.3241 34.7738Z" fill="black"/>
<path fill-rule="evenodd" clip-rule="evenodd" d="M36.368 28.9565C34.955 30.2374 33.5349 30.4118 33.5203 30.4128C33.4248 30.4238 33.3424 30.4877 33.3087 30.5781C33.2746 30.6681 33.2937 30.7696 33.3585 30.8414C33.4087 30.8972 34.5736 32.1681 35.8072 32.1681C35.851 32.1681 35.8952 32.1665 35.9389 32.163C36.4992 32.1208 36.9721 31.8143 37.3439 31.253C37.9816 30.2892 36.7776 29.0218 36.7258 28.9681C36.6298 28.8686 36.4711 28.8625 36.368 28.9565ZM32.1263 21.1047C32.0841 21.1088 31.0349 21.0887 30.1017 21.8897C29.9937 21.9821 29.9816 22.1444 30.0741 22.2525C30.1248 22.3113 30.1967 22.3419 30.269 22.3419C30.3288 22.3419 30.3881 22.3213 30.4369 22.2796C31.2168 21.6103 32.1077 21.6268 32.1153 21.6193C32.253 21.6032 32.3746 21.5093 32.3771 21.367C32.3796 21.2253 32.268 21.1088 32.1263 21.1047ZM38.2228 21.8897C37.2891 21.0887 36.2384 21.1078 36.1977 21.1047C36.056 21.1088 35.9434 21.2258 35.9464 21.3681C35.9499 21.5088 36.0645 21.6193 36.2037 21.6193H36.2097C36.2223 21.6203 37.1007 21.6047 37.8876 22.2801C37.9364 22.3213 37.9957 22.3419 38.055 22.3419C38.1273 22.3419 38.1997 22.3113 38.2505 22.252C38.3429 22.1444 38.3303 21.9821 38.2228 21.8897ZM31.5907 23.5052C31.2977 23.5052 31.0605 23.8821 31.0605 24.3474C31.0605 24.8133 31.2977 25.1907 31.5907 25.1907C31.8831 25.1907 32.1203 24.8133 32.1203 24.3474C32.1203 23.8821 31.8831 23.5052 31.5907 23.5052ZM36.7339 25.1907C37.0263 25.1907 37.2635 24.8133 37.2635 24.3474C37.2635 23.8821 37.0263 23.5052 36.7339 23.5052C36.4414 23.5052 36.2037 23.8821 36.2037 24.3474C36.2037 24.8133 36.4414 25.1907 36.7339 25.1907ZM34.6213 27.6475C34.7494 27.6475 34.8605 27.551 34.8766 27.4208C34.8932 27.2796 34.7932 27.1515 34.652 27.1349L33.3675 26.9786L33.7706 25.448C33.8062 25.3108 33.7243 25.1701 33.5871 25.1339C33.4505 25.0977 33.3092 25.1801 33.2731 25.3173L32.7952 27.1334C32.7761 27.2057 32.7891 27.2821 32.8309 27.3434C32.8726 27.4047 32.9389 27.4454 33.0128 27.4545L34.5901 27.6454C34.6007 27.6469 34.6108 27.6475 34.6213 27.6475Z" fill="black"/>
<path opacity="0.25" fill-rule="evenodd" clip-rule="evenodd" d="M30.775 27.6326C31.7327 27.6326 32.5096 27.2095 32.5096 26.6879C32.5096 26.1663 31.7327 25.7432 30.775 25.7432C29.8172 25.7432 29.0403 26.1663 29.0403 26.6879C29.0403 27.2095 29.8172 27.6326 30.775 27.6326ZM37.9385 27.6326C38.8968 27.6326 39.6731 27.2095 39.6731 26.6879C39.6731 26.1663 38.8968 25.7432 37.9385 25.7432C36.9807 25.7432 36.2038 26.1663 36.2038 26.6879C36.2038 27.2095 36.9807 27.6326 37.9385 27.6326Z" fill="#FF4200"/>
<path fill-rule="evenodd" clip-rule="evenodd" d="M31.5527 43.1313C31.5527 43.1313 34.3278 41.3183 33.8343 33.8308C33.8343 33.8308 38.2231 35.8847 43.0111 32.4119L44.1155 43.0449C44.1155 43.0449 40.7959 46.8156 37.3151 46.4499C33.8343 46.0842 31.5527 43.1313 31.5527 43.1313Z" fill="#D96E05"/>
<path fill-rule="evenodd" clip-rule="evenodd" d="M33.9409 33.6032C36.7783 34.9311 39.7416 34.4729 42.8637 32.2085C43.0203 32.0949 43.2411 32.1934 43.2611 32.3859L44.3655 43.0189C44.3728 43.0886 44.3505 43.1582 44.3042 43.2109C42.0418 45.7807 39.7003 46.9531 37.2889 46.6997C34.8988 46.4487 32.9162 45.3069 31.354 43.285C31.2643 43.1689 31.2927 43.0011 31.4154 42.921C33.1662 41.7771 33.9072 38.7565 33.5836 33.8473C33.5711 33.6566 33.7677 33.5222 33.9409 33.6032ZM43.8538 42.9603L42.805 32.8638L42.5978 33.0043C39.7188 34.9092 36.9255 35.3391 34.2411 34.2797L34.1096 34.2261L34.1161 34.3414C34.3499 38.8491 33.6544 41.7799 31.9883 43.1248L31.9141 43.1824L32.0335 43.3269C33.4176 44.967 35.1137 45.9138 37.1315 46.1754L37.3414 46.2C39.5711 46.4342 41.7633 45.3366 43.927 42.8788L43.8538 42.9603Z" fill="black"/>
<path fill-rule="evenodd" clip-rule="evenodd" d="M48.0624 11.6274C41.5965 8.04902 35.6151 12.0721 35.6151 12.0721C27.2491 12.2264 27.5405 20.6892 27.5405 20.6892H41.2448L41.384 21.9118L41.6317 24.0792C42.1312 23.9852 42.6865 24.046 43.3513 24.8269C43.598 25.1164 43.7729 25.4827 43.7699 25.8626C43.7629 26.8525 42.9583 27.653 41.9669 27.653C41.9066 27.653 41.8503 27.641 41.792 27.6349L41.9794 31.796L42.0141 33.4065H49.4488C49.4488 33.4065 57.6468 16.9324 48.0624 11.6274Z" fill="#4B69FD"/>
<path fill-rule="evenodd" clip-rule="evenodd" d="M42.2652 33.1492H49.2863C50.0506 31.5306 56.7295 16.719 47.937 11.8526C41.6898 8.39587 35.8169 12.2466 35.7582 12.2858C35.7169 12.3135 35.6692 12.3285 35.6195 12.3295C33.2406 12.3733 31.3562 13.1109 30.018 14.522C28.0472 16.5994 27.8211 19.5627 27.7984 20.4315H41.2441C41.3752 20.4315 41.4848 20.53 41.4999 20.6597L41.8571 23.7908C42.323 23.7667 42.8984 23.8989 43.5471 24.6602C43.8592 25.027 44.03 25.4542 44.0265 25.8652C44.019 26.9612 43.1456 27.8587 42.0612 27.9084L42.2355 31.7839L42.2652 33.1492ZM49.4481 33.6633H42.0134C41.8737 33.6633 41.7592 33.5517 41.7561 33.4115L41.7215 31.8009L41.534 27.6466C41.531 27.5717 41.5602 27.4994 41.6144 27.4481C41.6687 27.3964 41.7426 27.3697 41.8174 27.3793L41.8848 27.3878C41.9119 27.3913 41.9385 27.3959 41.9662 27.3959C42.8124 27.3959 43.5064 26.7079 43.5119 25.8607C43.5144 25.5748 43.3878 25.2662 43.1551 24.9939C42.5496 24.2823 42.0883 24.2552 41.6788 24.332C41.6084 24.3456 41.5355 24.3285 41.4788 24.2863C41.421 24.2441 41.3838 24.1793 41.3757 24.1084L41.0144 20.9461H27.5402C27.4015 20.9461 27.2879 20.8361 27.2829 20.6984C27.2773 20.5386 27.1768 16.7692 29.6447 14.1677C31.0673 12.6677 33.0496 11.8768 35.537 11.817C36.2174 11.3913 42.0225 7.99134 48.1863 11.4029C57.8737 16.7647 49.7612 33.3542 49.6783 33.521C49.635 33.6085 49.5461 33.6633 49.4481 33.6633Z" fill="black"/>
<path fill-rule="evenodd" clip-rule="evenodd" d="M65.8557 69.0504L66.9396 71.7263L87.3939 61.3499C78.9059 48.9378 63.2798 41.7454 48.2708 41.7454H44.628C43.6532 43.8057 41.2386 45.2665 38.4054 45.276C35.5723 45.2665 33.1577 43.8057 32.1828 41.7454H28.5401C13.5316 41.7454 -2.09507 48.9378 -10.583 61.3499L9.87126 71.7263L10.9552 69.0504L9.48332 80.0831L6.30895 98.7273H70.5019L67.3275 80.0831L65.8557 69.0504Z" fill="#409B81"/>
<path fill-rule="evenodd" clip-rule="evenodd" d="M6.61451 98.468H70.1959L67.0728 80.1273L65.5994 69.0851C65.5824 68.9554 65.6633 68.8338 65.7889 68.7996C65.9145 68.7695 66.0452 68.8323 66.0944 68.9524L67.0733 71.3685L87.013 61.2524C78.8733 49.5509 63.7035 42.0042 48.2708 42.0042H44.7884C43.6939 44.1459 41.2095 45.5253 38.406 45.5348C35.6004 45.5253 33.116 44.1459 32.0216 42.0042H28.5396C13.107 42.0042 -2.06287 49.5509 -10.2021 61.2524L9.73713 71.3685L10.7155 68.9524C10.7653 68.8318 10.8954 68.767 11.0215 68.7996C11.1472 68.8338 11.2281 68.9554 11.211 69.0851L9.73914 80.1172L6.61451 98.468ZM70.502 98.9861H6.30849C6.2326 98.9861 6.16024 98.9524 6.11099 98.8941C6.06225 98.8363 6.04165 98.7589 6.05421 98.6841L9.22808 80.0398L10.4301 71.0343L10.11 71.8243C10.0829 71.8911 10.0291 71.9434 9.96125 71.9685C9.89391 71.9941 9.81853 71.9901 9.75421 71.9579L-10.6996 61.5805C-10.7664 61.5469 -10.8146 61.4861 -10.8337 61.4137C-10.8518 61.3413 -10.8383 61.2645 -10.796 61.2027C-2.60609 49.2258 12.8341 41.4866 28.5396 41.4866H32.1829C32.2824 41.4866 32.3728 41.5444 32.4155 41.6343C33.3844 43.6805 35.7356 45.0082 38.406 45.0167C41.0743 45.0082 43.4256 43.6805 44.3944 41.6343C44.4371 41.5444 44.5281 41.4866 44.6276 41.4866H48.2708C63.9758 41.4866 79.4165 49.2258 87.6065 61.2027C87.6487 61.2645 87.6623 61.3413 87.6442 61.4137C87.6251 61.4861 87.5768 61.5469 87.5105 61.5805L67.0557 71.9579C66.9919 71.9891 66.9165 71.9946 66.8492 71.9685C66.7814 71.9434 66.7276 71.8911 66.7005 71.8243L66.3803 71.0343L67.5834 80.0494L70.7562 98.6841C70.7688 98.7589 70.7482 98.8363 70.6994 98.8941C70.6497 98.9524 70.5778 98.9861 70.502 98.9861Z" fill="black"/>
<path fill-rule="evenodd" clip-rule="evenodd" d="M70.7412 30.7952H67.4864L61.2246 54.9489H14.4236L8.16176 30.7952H4.90698L11.1688 54.9489V94.1464H64.6206V54.9489H64.4794L70.7412 30.7952Z" fill="#FCBD21"/>
<path fill-rule="evenodd" clip-rule="evenodd" d="M11.4265 93.8877H64.3622V55.2083H11.4265V93.8877ZM64.6205 94.4053H11.1682C11.026 94.4053 10.9099 94.2897 10.9099 94.1465V54.949C10.9099 54.8058 11.026 54.6902 11.1682 54.6902H64.6205C64.7627 54.6902 64.8788 54.8058 64.8788 54.949V94.1465C64.8788 94.2897 64.7627 94.4053 64.6205 94.4053Z" fill="black"/>
<path fill-rule="evenodd" clip-rule="evenodd" d="M23.2205 60.5691H50.6953V54.949H23.2205V60.5691Z" fill="#EEF2F8"/>
<path fill-rule="evenodd" clip-rule="evenodd" d="M23.4787 60.3098H50.438V55.2083H23.4787V60.3098ZM50.6963 60.8279H23.2204C23.0782 60.8279 22.9622 60.7123 22.9622 60.5696V54.949C22.9622 54.8058 23.0782 54.6902 23.2204 54.6902H50.6963C50.8385 54.6902 50.9541 54.8058 50.9541 54.949V60.5696C50.9541 60.7123 50.8385 60.8279 50.6963 60.8279Z" fill="black"/>
<path fill-rule="evenodd" clip-rule="evenodd" d="M11.3686 54.6901H14.0892L7.96156 31.054H5.24045L11.3686 54.6901ZM14.4234 55.2077H11.1686C11.051 55.2077 10.948 55.1278 10.9188 55.0148L4.65704 30.8605C4.63694 30.7826 4.65352 30.7002 4.70226 30.6369C4.75101 30.5731 4.82688 30.5364 4.90678 30.5364H8.16156C8.27915 30.5364 8.38216 30.6163 8.41181 30.7298L14.6731 54.8841C14.6932 54.962 14.6766 55.0439 14.6279 55.1072C14.5786 55.171 14.5033 55.2077 14.4234 55.2077Z" fill="black"/>
<path fill-rule="evenodd" clip-rule="evenodd" d="M61.5583 54.6901H64.2794L70.407 31.054H67.686L61.5583 54.6901ZM64.4794 55.2077H61.2241C61.1442 55.2077 61.0689 55.171 61.0201 55.1072C60.9709 55.0439 60.9538 54.962 60.9744 54.8841L67.2362 30.7298C67.2658 30.6163 67.3689 30.5364 67.4865 30.5364H70.7412C70.8206 30.5364 70.8965 30.5731 70.9452 30.6369C70.9945 30.7002 71.0111 30.7826 70.991 30.8605L64.7292 55.0148C64.6995 55.1278 64.5965 55.2077 64.4794 55.2077Z" fill="black"/>
<path fill-rule="evenodd" clip-rule="evenodd" d="M86.389 61.9414L78.3402 66.0534L77.8402 64.8243C77.7779 64.671 77.7045 64.5353 77.6362 64.3906C77.6533 63.9162 77.6764 63.4479 77.6764 62.9569C77.6764 55.2444 71.5694 50.1469 68.3729 48.2836C66.7136 47.3157 64.601 48.3378 64.2809 50.2358L64.2488 50.4263C64.0613 51.5373 64.5804 52.6228 65.5171 53.2454C67.4975 54.5599 68.9915 57.2112 68.9915 57.2112L58.4352 57.4795C57.1131 57.5127 56.0583 58.5981 56.0583 59.9248C56.0583 61.2142 57.0578 62.2826 58.3412 62.3645L67.0935 62.875L56.2573 63.6077C54.9452 63.7032 53.9297 64.7981 53.9297 66.1177C53.9297 67.4017 54.894 68.48 56.1674 68.6192L66.7251 69.6881L58.399 70.376C57.0729 70.4976 56.0583 71.6122 56.0583 72.9479C56.0583 74.4313 57.3015 75.6092 58.7784 75.5253L67.0116 75.1052C67.2724 77.4856 62.2603 77.3298 60.1759 77.8112C59.2488 78.0253 58.5955 78.8534 58.5955 79.8077C58.5955 80.7263 59.199 81.5439 60.0844 81.7821C61.2452 82.0941 63.2196 82.4097 66.4538 82.4097C66.7332 82.4097 67.0101 82.3785 67.2864 82.3449C72.6342 91.771 85.4679 111.197 96.0367 102.063C109.765 90.1996 86.389 61.9414 86.389 61.9414ZM20.7141 63.6077L9.87841 62.875L18.6307 62.3645C19.9141 62.2826 20.9136 61.2142 20.9136 59.9248C20.9136 58.5981 19.8588 57.5127 18.5367 57.4795L7.98042 57.2112C7.98042 57.2112 9.47439 54.5599 11.4543 53.2454C12.3915 52.6228 12.9101 51.5373 12.7231 50.4263L12.691 50.2358C12.3709 48.3378 10.2588 47.3157 8.59901 48.2836C5.40303 50.1469 -0.704504 55.2444 -0.704504 62.9569C-0.704504 63.4479 -0.681395 63.9162 -0.664309 64.3906C-0.732651 64.5353 -0.806519 64.671 -0.868832 64.8243L-1.36883 66.0534L-9.41707 61.9414C-9.41707 61.9414 -32.7934 90.1996 -19.0648 102.063C-8.49597 111.197 4.3377 91.771 9.68494 82.3449C9.96182 82.3785 10.2387 82.4097 10.5181 82.4097C13.7528 82.4097 15.7261 82.0941 16.8875 81.7821C17.7724 81.5439 18.3764 80.7263 18.3764 79.8077C18.3764 78.8534 17.7231 78.0253 16.796 77.8112C14.7116 77.3298 9.69951 77.4856 9.96032 75.1052L18.1935 75.5253C19.6704 75.6092 20.9136 74.4313 20.9136 72.9479C20.9136 71.6122 19.8985 70.4976 18.5724 70.376L10.2468 69.6881L20.8045 68.6192C22.0774 68.48 23.0417 67.4017 23.0417 66.1177C23.0417 64.7981 22.0261 63.7032 20.7141 63.6077Z" fill="#D96E05"/>
<path fill-rule="evenodd" clip-rule="evenodd" d="M20.7788 68.3619L10.221 69.4298C10.0884 69.4428 9.98736 69.5559 9.98837 69.6896C9.98988 69.8232 10.0929 69.9338 10.2256 69.9453L18.5497 70.6343C19.7497 70.7443 20.6552 71.7383 20.6552 72.9474C20.6552 73.5931 20.3979 74.1921 19.9301 74.6353C19.4622 75.0785 18.8532 75.3026 18.2065 75.2665L9.97329 74.8464C9.83711 74.8373 9.71852 74.9408 9.70395 75.0765C9.47681 77.1464 12.4808 77.5036 14.8949 77.7906C15.5954 77.874 16.2567 77.9524 16.7381 78.0634C17.5507 78.2514 18.118 78.9685 18.118 79.8077C18.118 80.6177 17.5844 81.3268 16.8205 81.5318C15.7683 81.8147 13.8215 82.1509 10.518 82.1509H10.5165C10.2572 82.1504 10.0004 82.1227 9.71601 82.0881C9.69893 82.0861 9.68435 82.0956 9.66777 82.0961C3.44867 81.3825 -0.0513325 72.8835 -0.412138 64.4112C-0.411634 64.4011 -0.4056 64.3916 -0.406103 64.3815L-0.41716 64.085C-0.431732 63.7207 -0.445295 63.3554 -0.445799 62.979C-0.445799 62.972 -0.446304 62.9644 -0.446304 62.9569C-0.446304 54.5438 6.76626 49.6835 8.58234 48.5951C8.6356 48.5624 8.68586 48.5333 8.72907 48.5082C9.43711 48.0946 10.2713 48.0604 11.018 48.4102C11.7683 48.7629 12.2989 49.4619 12.4366 50.28L12.4688 50.4695C12.6331 51.4484 12.1798 52.4539 11.312 53.0283C9.30344 54.3624 7.81852 56.974 7.75571 57.084C7.71149 57.1634 7.71149 57.2604 7.75571 57.3388C7.80094 57.4182 7.88335 57.4685 7.9743 57.471L18.5301 57.7383C19.7215 57.769 20.6552 58.7288 20.6552 59.9237C20.6552 61.0745 19.7582 62.0328 18.615 62.1067L9.86325 62.6167C9.72757 62.6242 9.62053 62.7373 9.62003 62.874C9.61952 63.0112 9.72505 63.1242 9.86123 63.1333L20.6959 63.8665C21.8663 63.9514 22.7838 64.9408 22.7838 66.1172C22.7838 67.2715 21.921 68.2368 20.7788 68.3619ZM-11.6101 104.054C-14.2388 104.511 -16.6905 103.773 -18.8966 101.867C-31.7467 90.7619 -11.1996 64.5705 -9.34831 62.267L-1.68952 66.18C-5.95133 78.1258 -10.9619 83.4604 -11.0121 83.5127C-11.1111 83.6162 -11.1076 83.7805 -11.0046 83.879C-10.9543 83.9273 -10.89 83.9509 -10.8257 83.9509C-10.7579 83.9509 -10.69 83.9242 -10.6393 83.871C-10.588 83.8172 -5.4468 78.3559 -1.12721 66.1453L-0.879976 65.5378C-0.221685 75.9102 4.38987 81.7082 9.26676 82.5554C4.93761 90.1273 -3.35535 102.623 -11.6101 104.054ZM20.7316 63.3499L13.9989 62.8941L18.6472 62.6227C20.0627 62.5323 21.1718 61.3464 21.1718 59.9237C21.1718 58.4454 20.0175 57.2584 18.5431 57.2207L8.4336 56.9644C8.91802 56.1956 10.1296 54.4353 11.5969 53.4609C12.6346 52.772 13.1768 51.5644 12.9778 50.383L12.9457 50.1931C12.7793 49.2077 12.1406 48.3665 11.2371 47.9418C10.3351 47.5167 9.32656 47.5609 8.47028 48.0594H8.46928C8.18435 48.2263 7.69038 48.5298 7.07631 48.9654C4.30244 50.9333 -0.962887 55.6333 -0.962887 62.9569C-0.962887 62.9644 -0.962381 62.9715 -0.962381 62.9785C-0.961878 63.4484 -0.952337 63.9072 -0.937262 64.3604L-0.963394 64.4147C-1.01314 64.5157 -1.06339 64.6172 -1.10761 64.7263L-1.50158 65.6951L-9.30008 61.7107C-9.40812 61.6554 -9.53927 61.6835 -9.61615 61.7755C-9.67495 61.8469 -15.5277 68.9629 -19.6217 77.4403C-25.0791 88.7413 -24.9449 97.3232 -19.2332 102.259C-17.3528 103.885 -15.2991 104.703 -13.1086 104.703C-12.5875 104.703 -12.0589 104.657 -11.5227 104.563C-2.99354 103.086 5.4743 90.2624 9.82003 82.6303C10.0517 82.6534 10.2828 82.6685 10.515 82.6685H10.518C13.8778 82.6685 15.8723 82.3227 16.9542 82.0323C17.9436 81.7665 18.6341 80.8519 18.6341 79.8077C18.6341 78.7263 17.9024 77.8011 16.8542 77.5589C16.3451 77.4413 15.6708 77.3609 14.9557 77.2755C12.8874 77.0303 10.3411 76.7273 10.2145 75.377L18.1793 75.7835C18.9637 75.8232 19.713 75.5544 20.2849 75.0122C20.8567 74.4695 21.1718 73.7368 21.1718 72.9474C21.1718 71.469 20.0648 70.2529 18.5939 70.1182L13.0758 69.6614L20.8326 68.8775C22.2391 68.7222 23.3004 67.5368 23.3004 66.1172C23.3004 64.6705 22.1728 63.4549 20.7316 63.3499Z" fill="black"/>
<path fill-rule="evenodd" clip-rule="evenodd" d="M95.8681 101.867C93.6631 103.774 91.2133 104.511 88.5827 104.053C80.3274 102.623 72.0344 90.1279 67.7048 82.5555C72.5822 81.7083 77.1937 75.9103 77.852 65.5379L78.0993 66.1454C82.4184 78.356 87.5601 83.8173 87.6113 83.8716C87.6621 83.9238 87.7299 83.9515 87.7978 83.9515C87.8621 83.9515 87.9269 83.9273 87.9767 83.8791C88.0797 83.7806 88.0832 83.6163 87.9842 83.5133C87.9339 83.46 82.9234 78.1258 78.6611 66.1801L86.3209 62.267C88.1711 64.5701 108.718 90.762 95.8681 101.867ZM67.2867 82.0861C67.2772 82.0861 67.2666 82.0866 67.2566 82.0882C66.9711 82.1228 66.7143 82.1505 66.4556 82.151H66.4535C63.1505 82.151 61.2033 81.8143 60.1515 81.5319C59.3877 81.3269 58.854 80.6178 58.854 79.8073C58.854 78.9686 59.4214 78.2515 60.2339 78.0635C60.7153 77.952 61.3761 77.8736 62.0766 77.7907C64.4907 77.5037 67.4952 77.1464 67.2686 75.0771C67.2535 74.9399 67.1354 74.8309 66.9988 74.8464L58.7641 75.2671C58.1199 75.3083 57.5093 75.0796 57.042 74.6359C56.5741 74.1927 56.3169 73.5932 56.3169 72.948C56.3169 71.7384 57.2219 70.7439 58.4204 70.6349L66.7465 69.9454C66.8797 69.9339 66.9822 69.8233 66.9832 69.6897C66.9847 69.556 66.8837 69.4429 66.7515 69.4304L56.1957 68.3615C55.0515 68.2369 54.1882 67.2716 54.1882 66.1178C54.1882 64.9409 55.1053 63.952 56.2751 63.8671L67.1103 63.1334C67.247 63.1248 67.352 63.0108 67.3515 62.8741C67.3505 62.7374 67.2445 62.6248 67.1083 62.6168L58.3581 62.1062C57.2133 62.0329 56.3169 61.0741 56.3169 59.9243C56.3169 58.7289 57.25 57.7691 58.442 57.7379L68.9983 57.4711C69.0882 57.4686 69.1716 57.4188 69.2158 57.3389C69.2611 57.2605 69.2611 57.164 69.2163 57.0841C69.154 56.9741 67.6686 54.3625 65.6601 53.0289C64.7927 52.4535 64.3385 51.449 64.5038 50.4701L64.5354 50.2791C64.6736 49.4615 65.2033 48.763 65.9535 48.4108C66.7008 48.059 67.5354 48.0947 68.243 48.5078C68.3967 48.5972 68.6143 48.7294 68.8772 48.8997C71.2344 50.4228 77.4179 55.166 77.4179 62.9575C77.4179 63.3449 77.4038 63.7193 77.3892 64.0932L77.3787 64.3811C77.3782 64.3917 77.3837 64.4012 77.3847 64.4118C77.0239 72.8766 73.5289 81.3686 67.3189 82.0952C67.3078 82.0932 67.2983 82.0861 67.2867 82.0861ZM96.5937 77.4404C92.4993 68.963 86.6465 61.847 86.5882 61.7761C86.5103 61.6826 86.3792 61.6555 86.2716 61.7108L78.4736 65.6947L78.0797 64.7263C78.0354 64.6173 77.9857 64.5163 77.9355 64.4148L77.9093 64.36C77.9244 63.9002 77.9344 63.4339 77.9344 62.9575C77.9344 55.9982 73.1807 51.4083 70.3269 49.2796C69.5128 48.6711 68.8525 48.2635 68.5028 48.059H68.5023C67.6455 47.561 66.637 47.5173 65.7344 47.9419C64.8309 48.366 64.1922 49.2077 64.0264 50.1927L63.9937 50.3831C63.7952 51.564 64.3374 52.7721 65.3751 53.461C66.842 54.4354 68.054 56.1962 68.539 56.9645L58.4289 57.2203C56.955 57.2585 55.8003 58.4459 55.8003 59.9243C55.8003 61.3464 56.9093 62.5324 58.3269 62.6233L62.9726 62.8947L56.239 63.35C54.7993 63.4545 53.6716 64.6706 53.6716 66.1178C53.6716 67.5369 54.7324 68.7223 56.141 68.8771L63.8968 69.662L58.3756 70.1183C56.9078 70.2535 55.8003 71.4691 55.8003 72.948C55.8003 73.7369 56.1148 74.4696 56.6872 75.0123C57.2591 75.5545 58.0078 75.8253 58.7917 75.7836L66.7581 75.3776C66.6309 76.7279 64.0842 77.0304 62.0163 77.2761C61.3018 77.3605 60.6264 77.4414 60.1179 77.559C59.0696 77.8017 58.3375 78.7268 58.3375 79.8073C58.3375 80.852 59.0284 81.7665 60.0184 82.0329C61.0998 82.3228 63.0942 82.6691 66.4535 82.6691H66.454H66.4565C66.6887 82.6691 66.9204 82.653 67.152 82.6309C71.4978 90.2625 79.9661 103.086 88.4942 104.564C89.0304 104.657 89.5601 104.703 90.0812 104.703C92.2706 104.703 94.3254 103.885 96.2058 102.26C101.917 97.3238 102.051 88.7414 96.5937 77.4404Z" fill="black"/>
</g>
<path fill-rule="evenodd" clip-rule="evenodd" d="M38 0.560803C17.3563 0.560803 0.561305 17.3558 0.561305 38C0.561305 58.6437 17.3563 75.4387 38 75.4387C58.6437 75.4387 75.4387 58.6437 75.4387 38C75.4387 17.3558 58.6437 0.560803 38 0.560803ZM38 76C17.0467 76 0 58.9533 0 38C0 17.0467 17.0467 0 38 0C58.9533 0 76 17.0467 76 38C76 58.9533 58.9533 76 38 76Z" fill="black"/>
</svg>
