<svg width="76" height="76" viewBox="0 0 76 76" fill="none" xmlns="http://www.w3.org/2000/svg">
<path fill-rule="evenodd" clip-rule="evenodd" d="M75.7196 37.9995C75.7196 58.8312 58.8322 75.7191 38 75.7191C17.1678 75.7191 0.280396 58.8312 0.280396 37.9995C0.280396 17.1673 17.1678 0.279907 38 0.279907C58.8322 0.279907 75.7196 17.1673 75.7196 37.9995Z" fill="#EEF2F8"/>
<mask id="mask0_154_1679" style="mask-type:alpha" maskUnits="userSpaceOnUse" x="0" y="0" width="76" height="76">
<path fill-rule="evenodd" clip-rule="evenodd" d="M75.7196 37.9995C75.7196 58.8312 58.8322 75.7191 38 75.7191C17.1678 75.7191 0.280396 58.8312 0.280396 37.9995C0.280396 17.1673 17.1678 0.279907 38 0.279907C58.8322 0.279907 75.7196 17.1673 75.7196 37.9995Z" fill="white"/>
</mask>
<g mask="url(#mask0_154_1679)">
<path fill-rule="evenodd" clip-rule="evenodd" d="M31.5527 43.1314C31.5527 43.1314 34.3278 41.3183 33.8343 33.8308C33.8343 33.8308 38.2231 35.8847 43.0111 32.4119L44.1155 43.0449C44.1155 43.0449 40.7959 46.8156 37.3151 46.4499C33.8343 46.0842 31.5527 43.1314 31.5527 43.1314Z" fill="#8B4500"/>
<path fill-rule="evenodd" clip-rule="evenodd" d="M33.9409 33.6032C36.7783 34.9311 39.7416 34.473 42.8637 32.2085C43.0203 32.0949 43.2411 32.1934 43.2611 32.3859L44.3655 43.0189C44.3728 43.0886 44.3505 43.1583 44.3042 43.2109C42.0418 45.7807 39.7003 46.9531 37.2889 46.6998C34.8988 46.4487 32.9162 45.3069 31.354 43.285C31.2643 43.1689 31.2927 43.0011 31.4154 42.921C33.1662 41.7771 33.9072 38.7565 33.5836 33.8473C33.5711 33.6566 33.7677 33.5222 33.9409 33.6032ZM43.8538 42.9603L42.805 32.8638L42.5978 33.0043C39.7188 34.9092 36.9255 35.3391 34.2411 34.2797L34.1096 34.2261L34.1161 34.3414C34.3499 38.8491 33.6544 41.7799 31.9883 43.1248L31.9141 43.1824L32.0335 43.3269C33.4176 44.967 35.1137 45.9138 37.1315 46.1754L37.3414 46.2C39.5711 46.4342 41.7633 45.3366 43.927 42.8788L43.8538 42.9603Z" fill="black"/>
<path fill-rule="evenodd" clip-rule="evenodd" d="M37.3241 34.5226C32.2522 34.5226 28.1406 30.1628 28.1406 24.7839C28.1406 19.405 32.2522 15.0447 37.3241 15.0447C42.3959 15.0447 46.5075 19.405 46.5075 24.7839C46.5075 30.1628 42.3959 34.5226 37.3241 34.5226Z" fill="#8B4500"/>
<path fill-rule="evenodd" clip-rule="evenodd" d="M37.3241 15.296C32.399 15.296 28.3919 19.5522 28.3919 24.7839C28.3919 30.0156 32.399 34.2713 37.3241 34.2713C42.2492 34.2713 46.2563 30.0156 46.2563 24.7839C46.2563 19.5522 42.2492 15.296 37.3241 15.296ZM37.3241 34.7738C32.1216 34.7738 27.8894 30.2924 27.8894 24.7839C27.8894 19.2749 32.1216 14.7935 37.3241 14.7935C42.5266 14.7935 46.7588 19.2749 46.7588 24.7839C46.7588 30.2924 42.5266 34.7738 37.3241 34.7738Z" fill="black"/>
<path fill-rule="evenodd" clip-rule="evenodd" d="M37.0551 28.2326C36.9154 28.2095 36.7827 28.306 36.7606 28.4462C36.6425 29.1793 35.8842 29.1512 35.7978 29.1437C35.6556 29.1256 35.534 29.2396 35.5229 29.3808C35.5124 29.5226 35.6184 29.6462 35.7596 29.6577C35.7918 29.6597 35.8259 29.6612 35.8616 29.6612C36.336 29.6612 37.1234 29.4321 37.2682 28.5276C37.2908 28.3879 37.1958 28.2552 37.0551 28.2326ZM32.1601 21.105C32.1149 21.105 31.0667 21.0894 30.135 21.8899C30.027 21.9824 30.0149 22.1447 30.1069 22.2527C30.1581 22.312 30.23 22.3422 30.3023 22.3422C30.3616 22.3422 30.4214 22.3215 30.4702 22.2798C31.2486 21.6115 32.1415 21.621 32.1486 21.6195C32.2873 21.61 32.4074 21.5095 32.4104 21.3683C32.4134 21.2261 32.3018 21.1085 32.1601 21.105ZM38.2561 21.8899C37.3244 21.0894 36.2747 21.1035 36.231 21.105C36.0893 21.1085 35.9767 21.2271 35.9797 21.3688C35.9837 21.5115 36.1003 21.608 36.2435 21.6195C36.2486 21.6175 37.136 21.6055 37.9209 22.2798C37.9692 22.3215 38.029 22.3422 38.0883 22.3422C38.1606 22.3422 38.2325 22.312 38.2837 22.2527C38.3757 22.1447 38.3636 21.9824 38.2561 21.8899ZM31.6239 23.5055C31.331 23.5055 31.0938 23.8824 31.0938 24.3482C31.0938 24.813 31.331 25.1904 31.6239 25.1904C31.9164 25.1904 32.1536 24.813 32.1536 24.3482C32.1536 23.8824 31.9164 23.5055 31.6239 23.5055ZM36.7672 23.5055C36.4742 23.5055 36.2375 23.8824 36.2375 24.3482C36.2375 24.813 36.4742 25.1904 36.7672 25.1904C37.0596 25.1904 37.2968 24.813 37.2968 24.3482C37.2968 23.8824 37.0596 23.5055 36.7672 23.5055ZM34.6847 27.1346L33.4013 26.9788L33.8038 25.4482C33.84 25.311 33.7581 25.1703 33.6209 25.1341C33.4842 25.0959 33.3425 25.1798 33.3063 25.3175L32.8285 27.1331C32.8094 27.205 32.8229 27.2813 32.8646 27.3432C32.9063 27.405 32.9722 27.4452 33.046 27.4537L34.6234 27.6452C34.6335 27.6467 34.644 27.6472 34.6541 27.6472C34.7827 27.6472 34.8933 27.5517 34.9094 27.4215C34.9265 27.2798 34.8259 27.1522 34.6847 27.1346Z" fill="black"/>
<path fill-rule="evenodd" clip-rule="evenodd" d="M48.0624 11.6274C41.5965 8.04902 35.6151 12.0721 35.6151 12.0721C27.2491 12.2264 27.5405 20.6892 27.5405 20.6892H41.2448L41.384 21.9118L41.6317 24.0792C42.1312 23.9852 42.6865 24.046 43.3513 24.8269C43.598 25.1164 43.7729 25.4827 43.7699 25.8626C43.7629 26.8525 42.9583 27.653 41.9669 27.653C41.9066 27.653 41.8503 27.641 41.792 27.6349L41.9794 31.796L42.0141 33.4065H49.4488C49.4488 33.4065 57.6468 16.9324 48.0624 11.6274Z" fill="#FECB51"/>
<path fill-rule="evenodd" clip-rule="evenodd" d="M42.2653 33.1492H49.2864C50.0507 31.5306 56.7296 16.719 47.9372 11.8526C41.6899 8.39587 35.8171 12.2466 35.7583 12.2858C35.7171 12.3135 35.6693 12.3285 35.6196 12.3295C33.2407 12.3733 31.3564 13.1109 30.0182 14.522C28.0473 16.5994 27.8212 19.5627 27.7986 20.4315H41.2442C41.3754 20.4315 41.4849 20.53 41.5 20.6597L41.8573 23.7908C42.3231 23.7667 42.8985 23.8989 43.5472 24.6602C43.8593 25.027 44.0301 25.4542 44.0266 25.8652C44.0191 26.9612 43.1457 27.8587 42.0613 27.9084L42.2357 31.7839L42.2653 33.1492ZM49.4482 33.6633H42.0135C41.8738 33.6633 41.7593 33.5517 41.7563 33.4115L41.7216 31.8009L41.5341 27.6466C41.5311 27.5717 41.5603 27.4994 41.6146 27.4481C41.6688 27.3964 41.7427 27.3697 41.8176 27.3793L41.8849 27.3878C41.912 27.3913 41.9387 27.3959 41.9663 27.3959C42.8125 27.3959 43.5065 26.7079 43.512 25.8607C43.5146 25.5748 43.3879 25.2662 43.1553 24.9939C42.5497 24.2823 42.0884 24.2552 41.6789 24.332C41.6085 24.3456 41.5357 24.3285 41.4789 24.2863C41.4211 24.2441 41.3839 24.1793 41.3759 24.1084L41.0146 20.9461H27.5403C27.4016 20.9461 27.288 20.8361 27.283 20.6984C27.2775 20.5386 27.177 16.7692 29.6448 14.1677C31.0674 12.6677 33.0497 11.8768 35.5372 11.817C36.2176 11.3913 42.0226 7.99134 48.1864 11.4029C57.8738 16.7647 49.7613 33.3542 49.6784 33.521C49.6352 33.6085 49.5462 33.6633 49.4482 33.6633Z" fill="black"/>
<path fill-rule="evenodd" clip-rule="evenodd" d="M65.6644 68.966L69.7433 79.0052L92.9302 72.3248L85.5397 61.5454C77.0865 49.2172 63.0996 41.8484 48.1513 41.8484H44.5237C43.5523 43.8941 41.1478 45.3459 38.3257 45.3554C35.5036 45.3459 33.099 43.8941 32.1282 41.8484H28.5006C13.5523 41.8484 -2.0115 48.9921 -10.4648 61.3202L-17.2949 71.9951L6.9493 79.8534L10.987 68.966L9.52066 79.9268L6.35885 98.4454H70.2925L67.1307 79.9263L65.6644 68.966Z" fill="#EFF2F7"/>
<path fill-rule="evenodd" clip-rule="evenodd" d="M6.66437 98.1882H69.988L66.8774 79.9696L65.4096 69.0002C65.393 68.8716 65.4734 68.751 65.5985 68.7178C65.7252 68.6831 65.8543 68.7495 65.9031 68.8691L69.895 78.6942L92.5171 72.1761L85.3277 61.6917C76.9192 49.4279 63.0217 42.1057 48.1518 42.1057H44.684C43.594 44.2324 41.1197 45.6032 38.3267 45.6133C35.5322 45.6032 33.0573 44.2324 31.9684 42.1057H28.5006C13.0232 42.1057 -2.18839 49.7057 -10.2522 61.4665L-16.8989 71.8535L6.79403 79.5334L10.7463 68.8771C10.7915 68.754 10.9232 68.6862 11.0493 68.7168C11.1769 68.748 11.2598 68.8701 11.2423 69.0002L9.77593 79.9615L6.66437 98.1882ZM70.293 98.7027H6.35935C6.28347 98.7027 6.21161 98.6691 6.16236 98.6113C6.11362 98.554 6.09302 98.4771 6.10608 98.4022L9.26739 79.8841L10.4267 71.2183L7.19051 79.9429C7.14277 80.0726 7.00106 80.1399 6.8704 80.0987L-17.3743 72.2399C-17.4502 72.2153 -17.51 72.157 -17.5371 72.0826C-17.5638 72.0068 -17.5547 71.9238 -17.5115 71.857L-10.6809 61.1821C-2.51904 49.2786 12.8583 41.5917 28.5006 41.5917H32.1282C32.2277 41.5917 32.3181 41.649 32.3609 41.7384C33.3252 43.7706 35.6669 45.0897 38.3267 45.0987C40.9845 45.0897 43.3267 43.7706 44.2915 41.7384C44.3342 41.649 44.4247 41.5917 44.5242 41.5917H48.1518C63.1915 41.5917 77.2473 48.9967 85.7523 61.4002L93.1428 72.1791C93.1895 72.2475 93.2006 72.3344 93.1729 72.4118C93.1448 72.4897 93.0815 72.5495 93.0021 72.5721L69.8151 79.253C69.688 79.2907 69.5548 79.2243 69.5056 79.1027L66.188 70.9374L67.386 79.8922L70.5463 98.4022C70.5588 98.4771 70.5382 98.554 70.4895 98.6113C70.4408 98.6691 70.3684 98.7027 70.293 98.7027Z" fill="black"/>
<path fill-rule="evenodd" clip-rule="evenodd" d="M27.9418 79.9123L14.6051 76.558C13.5317 76.2877 12.8799 75.1982 13.1498 74.1243L20.3985 45.3073C20.6684 44.2334 21.7578 43.5821 22.8317 43.852L36.1684 47.2067C37.2418 47.4766 37.8935 48.566 37.6232 49.6399L30.3749 78.457C30.1051 79.5309 29.0156 80.1826 27.9418 79.9123Z" fill="#FF5613"/>
<path fill-rule="evenodd" clip-rule="evenodd" d="M22.3387 44.0479C22.0267 44.0479 21.7196 44.1318 21.4453 44.2962C21.0443 44.5364 20.7608 44.9173 20.6473 45.37L13.399 74.1876C13.1644 75.1223 13.7332 76.073 14.6674 76.3082L28.0041 79.6625C28.4563 79.7766 28.9267 79.7077 29.3272 79.468C29.7282 79.2283 30.0111 78.8469 30.1252 78.3946L37.3734 49.5771C37.6081 48.6424 37.0392 47.6911 36.1046 47.456L22.7684 44.1017C22.6262 44.0655 22.4819 44.0479 22.3387 44.0479ZM28.4342 80.2313C28.2493 80.2313 28.0628 80.2082 27.8784 80.162L14.5422 76.8077C13.3327 76.5032 12.596 75.2715 12.9 74.062L20.1483 45.2444C20.296 44.6585 20.6628 44.165 21.1809 43.8544C21.6995 43.5449 22.3076 43.4555 22.894 43.6022L36.2302 46.9565C37.4397 47.2615 38.1764 48.4931 37.8724 49.7022L30.6242 78.5203C30.4764 79.1062 30.1096 79.5992 29.5915 79.9097C29.2357 80.1223 28.8382 80.2308 28.4342 80.2313Z" fill="black"/>
<path fill-rule="evenodd" clip-rule="evenodd" d="M22.0131 47.2565C21.8583 47.8726 22.2322 48.4972 22.8478 48.652C23.4638 48.8073 24.0885 48.4334 24.2432 47.8173C24.3985 47.2018 24.0246 46.5766 23.4086 46.4219C22.793 46.2666 22.1679 46.6404 22.0131 47.2565Z" fill="#EEF2F8"/>
<path fill-rule="evenodd" clip-rule="evenodd" d="M22.2627 47.3188C22.2045 47.55 22.2401 47.7902 22.3623 47.9952C22.4849 48.1997 22.6793 48.3445 22.9105 48.4023C23.1421 48.4611 23.3818 48.4254 23.5864 48.3033C23.7914 48.1807 23.9361 47.9862 23.9939 47.7545C24.0522 47.5234 24.017 47.2837 23.8944 47.0786C23.7718 46.8736 23.5773 46.7294 23.3462 46.6716C22.8683 46.5475 22.3823 46.8425 22.2627 47.3188ZM23.1316 48.945C23.016 48.945 22.8999 48.9304 22.7854 48.9008C22.4205 48.8098 22.114 48.5817 21.9205 48.2591C21.7281 47.9364 21.6723 47.5585 21.7638 47.1937C21.9532 46.441 22.719 45.9857 23.4718 46.1721C23.8361 46.2636 24.1431 46.4917 24.3356 46.8148C24.5291 47.1374 24.5849 47.5158 24.4929 47.8802C24.4014 48.2445 24.1733 48.552 23.8507 48.745C23.6296 48.8771 23.3823 48.945 23.1316 48.945Z" fill="black"/>
<path fill-rule="evenodd" clip-rule="evenodd" d="M-6.4839 68.5349C-7.72812 73.6344 -7.83163 75.0625 -7.83163 75.0625L-15.6743 72.5208C-15.6743 72.5208 -34.0976 98.2625 -18.798 107.84C-3.49897 117.418 8.31762 79.1072 8.31762 79.1072C8.31762 79.1072 10.6573 77.0931 12.8674 74.2896C12.8784 74.2138 12.8814 74.1379 12.9005 74.062L16.2563 60.7198C15.9513 60.0947 15.6563 59.8278 15.6563 59.8278C15.6563 59.8278 15.9447 60.0097 16.3789 60.2339L18.0035 53.7746C16.4563 52.7911 14.1694 51.8967 10.8056 51.2454C-0.762283 49.0067 -5.24018 63.4354 -6.4839 68.5349ZM91.2101 72.8203L70.5658 78.7685L71.8779 81.8439C71.8779 81.8439 58.0714 72.5153 53.8422 68.9077C49.6131 65.3007 46.6282 55.7233 44.6377 52.7379C42.6478 49.7529 38.4186 50.0017 37.2995 51.2766C36.1799 52.5519 37.0503 53.4846 37.0503 53.4846C37.0503 53.4846 30.2096 49.3796 27.7216 52.3645C25.2342 55.3499 29.5875 58.3354 29.5875 58.3354C29.5875 58.3354 22.4975 55.2258 21.3684 58.5841C20.2397 61.9424 24.488 63.8082 24.488 63.8082C23.8035 63.6374 23.1106 63.9459 22.5603 64.3308C21.7166 64.9213 21.1347 65.859 21.088 66.8881C20.9478 69.9947 25.093 70.8856 26.4362 71.0921C23.6784 70.8288 22.995 73.8203 22.995 73.8203C22.5598 78.1127 27.4729 77.8635 27.4729 77.8635C37.8593 76.9308 44.2648 82.2173 44.2648 82.2173C44.2648 82.2173 60.0618 108.959 79.8387 106.472C99.6161 103.985 91.2101 72.8203 91.2101 72.8203Z" fill="#8B4500"/>
<path fill-rule="evenodd" clip-rule="evenodd" d="M25.387 70.8811C25.387 70.8811 30.9649 71.7123 33.8885 72.6871L25.387 70.8811Z" fill="#E5AB78"/>
<path fill-rule="evenodd" clip-rule="evenodd" d="M29.5874 58.3353C29.5874 58.3353 34.916 59.8152 38.3261 62.4534L29.5874 58.3353Z" fill="#E5AB78"/>
<path fill-rule="evenodd" clip-rule="evenodd" d="M37.0503 53.4846C37.0503 53.4846 39.7357 54.7384 42.2533 57.0942L37.0503 53.4846Z" fill="#E5AB78"/>
<path fill-rule="evenodd" clip-rule="evenodd" d="M89.3965 100.566C87.2346 103.787 84.0075 105.688 79.806 106.217C60.4347 108.659 44.6427 82.3525 44.4859 82.0866C44.4708 82.0605 44.4512 82.0379 44.4281 82.0188C44.3683 81.969 38.8372 77.4967 29.8965 77.4967C29.1105 77.4967 28.297 77.5313 27.4598 77.6072C27.4372 77.6072 25.1839 77.7027 23.9819 76.4359C23.3859 75.8082 23.1397 74.9374 23.2452 73.8781C23.2723 73.7605 23.8919 71.1987 26.2864 71.3308C26.5869 71.3791 26.7849 71.3987 26.8266 71.4027C26.8593 71.4042 26.8904 71.3992 26.9201 71.3906C28.7879 71.7097 31.8904 72.2922 33.8065 72.9313C33.8336 72.9399 33.8613 72.9439 33.8879 72.9439C33.9955 72.9439 34.096 72.8756 34.1316 72.7685C34.1769 72.6339 34.104 72.4881 33.9693 72.4429C31.1909 71.5168 25.9879 70.7123 25.4693 70.6334C23.797 70.2238 21.2397 69.2188 21.3447 66.8997C21.3859 65.9911 21.8955 65.1092 22.708 64.5414C23.3457 64.0957 23.9231 63.9318 24.4251 64.058C24.4342 64.06 24.4427 64.058 24.4517 64.0595C24.4593 64.0605 24.4663 64.0645 24.4739 64.0645C24.5251 64.068 29.6668 64.37 35.8799 67.6359C35.9181 67.656 35.9588 67.665 35.999 67.665C36.0914 67.665 36.1814 67.6158 36.2271 67.5278C36.2934 67.4022 36.2452 67.2459 36.1191 67.1801C30.1316 64.0329 25.0995 63.5942 24.5527 63.555C24.1553 63.368 20.6236 61.6072 21.612 58.6655C21.7869 58.1464 22.1226 57.7826 22.6382 57.5545C24.8643 56.569 29.4377 58.5504 29.4834 58.571C29.4899 58.5736 29.4965 58.5731 29.503 58.5751C29.5085 58.5771 29.5125 58.5811 29.5181 58.5831C29.5708 58.5977 34.8387 60.0816 38.1683 62.6575C38.2151 62.6932 38.2703 62.7107 38.3256 62.7107C38.402 62.7107 38.4784 62.6771 38.5291 62.6112C38.6161 62.4987 38.5955 62.3374 38.4834 62.2499C35.1693 59.6861 30.1839 58.2369 29.7005 58.1002C29.4281 57.9042 27.4784 56.4424 27.2357 54.6791C27.1311 53.9223 27.3613 53.1987 27.9191 52.5298C30.2372 49.7484 36.8517 53.6645 36.9176 53.7047C36.9221 53.7072 36.9266 53.7077 36.9306 53.7097C36.9347 53.7118 36.9372 53.7158 36.9412 53.7173C36.9678 53.7298 39.6211 54.9836 42.0769 57.2816C42.1266 57.3278 42.1899 57.3509 42.2527 57.3509C42.3216 57.3509 42.3899 57.3238 42.4407 57.2695C42.5377 57.1655 42.5326 57.0032 42.4286 56.9057C40.0703 54.6997 37.6065 53.466 37.211 53.2761C37.0889 53.1223 36.6337 52.4243 37.4924 51.4464C37.9844 50.8861 39.1497 50.5625 40.3919 50.6464C42.0824 50.759 43.5517 51.5726 44.4236 52.8801C45.0749 53.857 45.8432 55.5726 46.7331 57.5585C48.5497 61.6133 50.811 66.661 53.6749 69.1037C57.2281 72.1349 67.6331 79.266 70.804 81.4253C70.8638 81.467 70.9367 81.5173 71.0291 81.5786C71.4603 81.8721 71.7156 82.0449 71.7342 82.057C71.7804 82.0886 71.8342 82.1027 71.8874 82.1007C73.098 82.7781 75.0593 83.6464 77.1633 83.6464C77.3558 83.6464 77.5497 83.6394 77.7442 83.6238C77.8854 83.6128 77.9914 83.4891 77.9804 83.3474C77.9688 83.2062 77.8487 83.1052 77.7035 83.1117C75.4809 83.2816 73.305 82.3002 72.0497 81.5906L70.9161 78.9349L91.0256 73.1414C91.5804 75.372 95.3492 91.6977 89.3965 100.566ZM91.3357 72.5967C91.2759 72.5625 91.205 72.556 91.1382 72.5736L70.4945 78.5213C70.4236 78.5419 70.3648 78.5917 70.3332 78.6575C70.3015 78.7248 70.3 78.8012 70.3291 78.869L71.2955 81.1344C71.0854 80.9972 70.9663 80.9087 70.9603 80.9042C70.9522 80.8982 70.9432 80.8967 70.9352 80.8921C67.5955 78.6168 57.4869 71.6791 54.009 68.7117C51.2331 66.3444 48.998 61.3565 47.2025 57.3479C46.303 55.3409 45.5266 53.6082 44.8517 52.5952C43.8904 51.153 42.2774 50.256 40.4261 50.1334C39.011 50.0369 37.707 50.4213 37.1055 51.1067C36.4914 51.8067 36.4161 52.4293 36.5015 52.8836C34.6683 51.9138 29.6718 49.6243 27.5236 52.2002C26.8688 52.9856 26.6005 53.8439 26.7261 54.7514C26.8839 55.8927 27.6352 56.8886 28.3075 57.5746C26.7015 57.0318 24.0688 56.3595 22.4306 57.0836C21.7839 57.3695 21.3447 57.8469 21.1246 58.5022C20.2683 61.0494 22.3095 62.7906 23.5377 63.5736C23.1764 63.666 22.801 63.8484 22.413 64.1198C21.4703 64.7786 20.8789 65.8092 20.8306 66.8766C20.7176 69.3826 23.1156 70.5268 24.9146 71.0308C23.2311 71.7133 22.7487 73.7439 22.7387 73.7947C22.612 75.0424 22.9055 76.0509 23.61 76.7921C24.9769 78.2298 27.3829 78.1258 27.4955 78.1198C37.2698 77.2374 43.5578 81.9886 44.0673 82.3891C44.7583 83.5329 59.1196 106.891 77.2593 106.891C78.1206 106.891 78.9929 106.837 79.8703 106.727C84.2266 106.179 87.5754 104.203 89.8241 100.852C96.3206 91.1726 91.507 72.9369 91.4578 72.7535C91.4397 72.6871 91.396 72.6303 91.3357 72.5967Z" fill="black"/>
<path fill-rule="evenodd" clip-rule="evenodd" d="M16.4784 60.5746C16.501 60.5851 16.5267 60.5972 16.5498 60.6077L16.6779 60.0982C16.1684 59.8454 15.8096 59.6213 15.7955 59.6118C15.795 59.6118 15.795 59.6112 15.7945 59.6107L12.8352 57.7213C12.7814 57.6876 12.7201 57.6786 12.6618 57.6871C9.77742 55.3776 5.28947 55.0364 5.22515 55.0323C5.07942 55.0198 4.96133 55.1298 4.95128 55.2716C4.94174 55.4133 5.04877 55.5364 5.19098 55.5459C5.27792 55.5519 13.9432 56.2072 14.4985 61.8896C14.887 65.8645 14.5025 68.4298 13.4156 69.1128C12.8654 69.46 12.092 69.3364 11.1206 68.7459C11.1056 68.7364 11.088 68.7339 11.0719 68.7288C11.2628 66.9937 10.7779 64.7233 9.6146 61.9263C7.9342 57.8866 2.03068 58.9886 1.97139 58.9997C1.83219 59.0278 1.74123 59.162 1.76837 59.3022C1.7955 59.4409 1.93018 59.5298 2.06988 59.5052C2.12516 59.4947 7.62063 58.4731 9.14475 62.1359C11.3377 67.4077 11.0417 70.6736 8.28646 71.8344C7.78596 71.9927 6.36485 72.261 5.80706 71.6158C5.79098 71.5977 5.77089 71.5856 5.75129 71.5731C6.39802 69.7278 6.48194 67.26 6.23973 65.571C5.69903 61.7982 -0.128112 62.1796 -0.376856 62.1972C-0.518564 62.2072 -0.625097 62.3303 -0.615046 62.4721C-0.604493 62.6138 -0.477356 62.7218 -0.339667 62.7102C-0.282883 62.7052 5.25782 62.3439 5.73069 65.6444C6.08395 68.1097 5.66435 72.259 3.98144 73.3123C3.30405 73.7359 2.45732 73.6102 1.46536 72.9389C-1.33464 71.0439 1.28545 66.2831 1.31209 66.2349C1.38143 66.1112 1.33721 65.9545 1.21359 65.8846C1.08897 65.8153 0.932693 65.8595 0.863346 65.9836C0.82013 66.0605 0.431181 66.768 0.103543 67.7404C0.0769099 67.7062 0.0447552 67.6766 0.00153923 67.6595C-0.479365 67.4635 -0.519566 66.3575 -0.495445 65.9861C-0.4864 65.8439 -0.593944 65.7218 -0.735652 65.7128C-0.877361 65.7128 -0.999467 65.8107 -1.00901 65.952C-1.02107 66.1369 -1.10097 67.766 -0.192431 68.1354C-0.160773 68.1484 -0.127607 68.1545 -0.0949439 68.1545C-0.0683107 68.1545 -0.0457002 68.1404 -0.0205746 68.1324C-0.517057 69.8203 -0.708014 72.0896 1.17691 73.365C1.87741 73.8394 2.52767 74.0766 3.12264 74.0766C3.52616 74.0766 3.90405 73.967 4.2543 73.7484C4.80556 73.4032 5.22867 72.8092 5.54978 72.0831C5.94476 72.4349 6.49752 72.5409 7.01712 72.5409C7.74425 72.5409 8.40355 72.3364 8.46385 72.3168C9.84727 71.7344 10.6849 70.7097 10.9844 69.2575C11.6272 69.6278 12.2091 69.8203 12.7201 69.8203C13.0769 69.8203 13.4005 69.7303 13.6895 69.5479C14.0573 69.3173 14.3538 68.9389 14.584 68.4233L15.0643 66.5143C15.2126 65.2896 15.195 63.7298 15.0106 61.8399C14.9035 60.7484 14.5231 59.8324 13.9749 59.0595L15.496 60.0314C15.5533 60.0871 15.987 60.5459 16.3086 61.5675L16.5302 60.6856C16.5131 60.6479 16.496 60.6092 16.4784 60.5746Z" fill="black"/>
<path fill-rule="evenodd" clip-rule="evenodd" d="M13.1498 74.1248L13.3915 73.1635C11.0422 76.4022 8.19398 78.8746 8.14976 78.9122C8.11308 78.9444 8.08544 78.9856 8.07187 79.0318C7.99348 79.2861 0.107046 104.484 -10.8593 108.563C-13.4814 109.538 -16.107 109.221 -18.6623 107.622C-21.7275 105.703 -23.6305 102.967 -24.3185 99.4876C-26.412 88.8987 -16.711 74.47 -15.5729 72.8243L-8.21507 75.2087C-10.5543 85.5444 -13.5874 88.3384 -13.6196 88.368C-13.7261 88.4615 -13.7362 88.6243 -13.6427 88.7303C-13.592 88.7886 -13.5211 88.8178 -13.4497 88.8178C-13.3894 88.8178 -13.3291 88.7967 -13.2809 88.754C-13.1422 88.6334 -10.0799 85.8449 -7.703 75.2821C-7.69848 75.2791 -7.69296 75.2791 -7.68793 75.2761C-7.6226 75.2318 -7.58089 75.1605 -7.57537 75.0816C-7.57436 75.0731 -7.52964 74.5444 -7.2417 73.0806C-7.22311 72.9886 -7.20502 72.9002 -7.18743 72.8072C-6.98743 71.8178 -6.68692 70.4504 -6.23466 68.5957C-4.80702 62.7429 -0.290945 49.3625 10.7563 51.4987C13.9834 52.1228 16.4819 53.0339 18.1648 54.1861L18.3 53.6494C16.5704 52.5087 14.0859 51.6188 10.8543 50.9931C5.78142 50.0117 1.48242 52.0298 -1.92361 56.9921C-4.63718 60.9474 -6.1025 65.8841 -6.73416 68.4746C-7.28944 70.7504 -7.61707 72.2921 -7.81155 73.3092C-7.90702 73.7871 -8.00351 74.2545 -8.102 74.7042L-15.595 72.2761C-15.7015 72.2414 -15.8181 72.2801 -15.8839 72.371C-15.996 72.5278 -27.0778 88.1806 -24.823 99.5866C-24.1069 103.21 -22.126 106.061 -18.9352 108.058C-17.2593 109.107 -15.5533 109.633 -13.8347 109.633C-12.7864 109.633 -11.7332 109.437 -10.6794 109.045C-5.96531 107.292 -1.29195 101.726 3.21006 92.5042C6.36132 86.0499 8.31358 79.9751 8.54121 79.2545C8.9387 78.9072 11.0809 76.9972 13.1065 74.4178C13.1161 74.3203 13.1251 74.2228 13.1498 74.1248Z" fill="black"/>
</g>
<path fill-rule="evenodd" clip-rule="evenodd" d="M38 0.560803C17.3563 0.560803 0.561305 17.3558 0.561305 38C0.561305 58.6437 17.3563 75.4387 38 75.4387C58.6437 75.4387 75.4387 58.6437 75.4387 38C75.4387 17.3558 58.6437 0.560803 38 0.560803ZM38 76C17.0467 76 0 58.9533 0 38C0 17.0467 17.0467 0 38 0C58.9533 0 76 17.0467 76 38C76 58.9533 58.9533 76 38 76Z" fill="black"/>
</svg>
