<svg width="76" height="76" viewBox="0 0 76 76" fill="none" xmlns="http://www.w3.org/2000/svg">
<path fill-rule="evenodd" clip-rule="evenodd" d="M75.7195 37.9995C75.7195 58.8312 58.832 75.7191 37.9999 75.7191C17.1677 75.7191 0.280273 58.8312 0.280273 37.9995C0.280273 17.1673 17.1677 0.279907 37.9999 0.279907C58.832 0.279907 75.7195 17.1673 75.7195 37.9995Z" fill="#EEF2F8"/>
<mask id="mask0_154_1847" style="mask-type:alpha" maskUnits="userSpaceOnUse" x="0" y="0" width="76" height="76">
<path fill-rule="evenodd" clip-rule="evenodd" d="M75.7195 37.9995C75.7195 58.8312 58.832 75.7191 37.9999 75.7191C17.1677 75.7191 0.280273 58.8312 0.280273 37.9995C0.280273 17.1673 17.1677 0.279907 37.9999 0.279907C58.832 0.279907 75.7195 17.1673 75.7195 37.9995Z" fill="white"/>
</mask>
<g mask="url(#mask0_154_1847)">
<path fill-rule="evenodd" clip-rule="evenodd" d="M31.5526 43.1314C31.5526 43.1314 34.3277 41.3183 33.8342 33.8308C33.8342 33.8308 38.223 35.8847 43.011 32.4119L44.1154 43.0449C44.1154 43.0449 40.7958 46.8156 37.315 46.4499C33.8342 46.0842 31.5526 43.1314 31.5526 43.1314Z" fill="#8B4500"/>
<path fill-rule="evenodd" clip-rule="evenodd" d="M33.9407 33.6032C36.7782 34.9311 39.7414 34.473 42.8636 32.2085C43.0201 32.0949 43.241 32.1934 43.261 32.3859L44.3654 43.0189C44.3726 43.0886 44.3504 43.1583 44.3041 43.2109C42.0416 45.7807 39.7002 46.9531 37.2888 46.6998C34.8987 46.4487 32.9161 45.3069 31.3539 43.285C31.2642 43.1689 31.2925 43.0011 31.4153 42.921C33.1661 41.7771 33.9071 38.7565 33.5835 33.8473C33.5709 33.6566 33.7676 33.5222 33.9407 33.6032ZM43.8537 42.9603L42.8049 32.8638L42.5977 33.0043C39.7187 34.9092 36.9254 35.3391 34.2409 34.2797L34.1094 34.2261L34.116 34.3414C34.3497 38.8491 33.6543 41.7799 31.9882 43.1248L31.914 43.1824L32.0334 43.3269C33.4175 44.967 35.1136 45.9138 37.1314 46.1754L37.3413 46.2C39.5709 46.4342 41.7631 45.3366 43.9269 42.8788L43.8537 42.9603Z" fill="black"/>
<path fill-rule="evenodd" clip-rule="evenodd" d="M37.3239 34.5226C32.2521 34.5226 28.1405 30.1628 28.1405 24.7839C28.1405 19.405 32.2521 15.0447 37.3239 15.0447C42.3958 15.0447 46.5074 19.405 46.5074 24.7839C46.5074 30.1628 42.3958 34.5226 37.3239 34.5226Z" fill="#8B4500"/>
<path fill-rule="evenodd" clip-rule="evenodd" d="M37.324 15.296C32.3989 15.296 28.3918 19.5522 28.3918 24.7839C28.3918 30.0156 32.3989 34.2713 37.324 34.2713C42.2491 34.2713 46.2561 30.0156 46.2561 24.7839C46.2561 19.5522 42.2491 15.296 37.324 15.296ZM37.324 34.7738C32.1215 34.7738 27.8893 30.2924 27.8893 24.7839C27.8893 19.2749 32.1215 14.7935 37.324 14.7935C42.5265 14.7935 46.7586 19.2749 46.7586 24.7839C46.7586 30.2924 42.5265 34.7738 37.324 34.7738Z" fill="black"/>
<path fill-rule="evenodd" clip-rule="evenodd" d="M37.055 28.2326C36.9153 28.2095 36.7826 28.306 36.7605 28.4462C36.6424 29.1793 35.8841 29.1512 35.7977 29.1437C35.6555 29.1256 35.5339 29.2396 35.5228 29.3808C35.5123 29.5226 35.6183 29.6462 35.7595 29.6577C35.7917 29.6597 35.8258 29.6612 35.8615 29.6612C36.3359 29.6612 37.1233 29.4321 37.268 28.5276C37.2907 28.3879 37.1957 28.2552 37.055 28.2326ZM32.16 21.105C32.1148 21.105 31.0665 21.0894 30.1349 21.8899C30.0268 21.9824 30.0148 22.1447 30.1067 22.2527C30.158 22.312 30.2298 22.3422 30.3022 22.3422C30.3615 22.3422 30.4213 22.3215 30.47 22.2798C31.2484 21.6115 32.1414 21.621 32.1484 21.6195C32.2871 21.61 32.4072 21.5095 32.4102 21.3683C32.4133 21.2261 32.3017 21.1085 32.16 21.105ZM38.256 21.8899C37.3243 21.0894 36.2746 21.1035 36.2309 21.105C36.0891 21.1085 35.9766 21.2271 35.9796 21.3688C35.9836 21.5115 36.1002 21.608 36.2434 21.6195C36.2484 21.6175 37.1359 21.6055 37.9208 22.2798C37.969 22.3215 38.0288 22.3422 38.0881 22.3422C38.1605 22.3422 38.2324 22.312 38.2836 22.2527C38.3756 22.1447 38.3635 21.9824 38.256 21.8899ZM31.6238 23.5055C31.3309 23.5055 31.0937 23.8824 31.0937 24.3482C31.0937 24.813 31.3309 25.1904 31.6238 25.1904C31.9163 25.1904 32.1535 24.813 32.1535 24.3482C32.1535 23.8824 31.9163 23.5055 31.6238 23.5055ZM36.767 23.5055C36.4741 23.5055 36.2374 23.8824 36.2374 24.3482C36.2374 24.813 36.4741 25.1904 36.767 25.1904C37.0595 25.1904 37.2967 24.813 37.2967 24.3482C37.2967 23.8824 37.0595 23.5055 36.767 23.5055ZM34.6846 27.1346L33.4012 26.9788L33.8037 25.4482C33.8399 25.311 33.758 25.1703 33.6208 25.1341C33.4841 25.0959 33.3424 25.1798 33.3062 25.3175L32.8283 27.1331C32.8092 27.205 32.8228 27.2813 32.8645 27.3432C32.9062 27.405 32.9721 27.4452 33.0459 27.4537L34.6233 27.6452C34.6334 27.6467 34.6439 27.6472 34.654 27.6472C34.7826 27.6472 34.8932 27.5517 34.9092 27.4215C34.9263 27.2798 34.8258 27.1522 34.6846 27.1346Z" fill="black"/>
<path fill-rule="evenodd" clip-rule="evenodd" d="M43.0522 32.9905C43.0748 32.975 43.0979 32.9609 43.1205 32.9453C43.0979 32.9604 43.0748 32.975 43.0522 32.9905ZM65.5417 34.5845H63.619C63.619 30.8056 60.5557 27.7427 56.7773 27.7427H55.1507C55.1507 23.5115 51.72 20.0814 47.4889 20.0814H46.3834C46.3839 20.0824 46.3844 20.0834 46.3849 20.0849C44.8316 16.8216 41.6502 14.5784 37.9678 14.5784C34.2869 14.5784 31.1066 16.8196 29.5528 20.0814C34.2557 19.9291 36.4733 16.712 36.4733 16.712C36.4733 16.712 35.6733 20.9055 41.7015 20.9869L42.1869 25.2407C42.6859 25.1467 43.2412 25.2075 43.9065 25.9879C44.1527 26.2774 44.3281 26.6442 44.3251 27.0241C44.318 28.0145 43.513 28.8141 42.5216 28.8141C42.4618 28.8141 42.4055 28.8026 42.3472 28.7966L42.5457 33.2197L42.711 33.2111C42.309 33.4624 41.8899 33.6865 41.4517 33.8709L41.5592 34.1368L44.4562 43.1719H65.5417C67.913 43.1719 69.8351 41.2498 69.8351 38.8785C69.8351 36.5066 67.913 34.5845 65.5417 34.5845ZM20.3644 27.7427H18.7372C14.9588 27.7427 11.8955 30.8056 11.8955 34.5845H9.97341C7.60206 34.5845 5.67944 36.5066 5.67944 38.8785C5.67944 41.2498 7.60206 43.1719 9.97341 43.1719H32.2734L35.1698 34.1368H35.1708C31.3272 32.8729 28.5357 29.0729 28.5357 24.5814C28.5357 22.9608 28.9076 21.4352 29.5528 20.0814H28.0262C23.7945 20.0814 20.3644 23.5115 20.3644 27.7427Z" fill="#4B2500"/>
<path fill-rule="evenodd" clip-rule="evenodd" d="M65.5412 42.9141H44.6437L41.7985 34.0408L41.7844 34.0061C42.1558 33.8377 42.5106 33.6423 42.8538 33.4307C42.8548 33.4302 42.8563 33.4302 42.8578 33.4292C42.8638 33.4252 42.8699 33.4212 42.8759 33.4177C45.2734 31.9322 46.9332 29.4548 47.4668 26.59C47.4684 26.5825 47.4694 26.5749 47.4709 26.5679C47.5075 26.3669 47.5412 26.1654 47.5668 25.9609C47.5774 25.8825 47.5834 25.8031 47.5915 25.7247C47.607 25.5805 47.6236 25.4362 47.6327 25.291C47.6488 25.0553 47.6573 24.8187 47.6573 24.5815C47.6573 24.2187 47.6382 23.8609 47.6035 23.5076C47.595 23.4207 47.5769 23.3357 47.5663 23.2493C47.5332 22.979 47.4965 22.7096 47.4432 22.4458C47.4281 22.3729 47.4065 22.3011 47.3905 22.2287C47.3276 21.9468 47.2578 21.6689 47.1734 21.3965C47.1583 21.3463 47.1387 21.2975 47.1221 21.2478C47.0256 20.9518 46.9181 20.6619 46.7975 20.3785C46.792 20.3654 46.7885 20.3518 46.7829 20.3383H47.4885C51.5719 20.3383 54.8935 23.6599 54.8935 27.7433C54.8935 27.885 55.0086 28.0001 55.1508 28.0001H56.7779C60.4081 28.0001 63.3618 30.9538 63.3618 34.5845C63.3618 34.7267 63.4769 34.8418 63.6191 34.8418H65.5412C67.7673 34.8418 69.5779 36.6523 69.5779 38.8785C69.5779 41.1031 67.7673 42.9141 65.5412 42.9141ZM44.5829 27.0257C44.5854 26.6156 44.4151 26.188 44.103 25.8217C43.4543 25.0604 42.8814 24.9176 42.4136 24.9523L41.9568 20.9579C41.9417 20.8292 41.8342 20.7317 41.7045 20.7297C39.6488 20.7021 38.1965 20.189 37.3895 19.2051C36.4895 18.1076 36.7236 16.7729 36.7261 16.7599C36.7482 16.6403 36.6839 16.5217 36.5729 16.4754C36.4598 16.4292 36.3307 16.4664 36.2618 16.5659C36.2407 16.596 34.195 19.479 29.9814 19.8001C31.6111 16.7267 34.6337 14.8357 37.9678 14.8357C41.6347 14.8357 44.797 17.1378 46.2648 20.4473C46.3533 20.6473 46.4357 20.8498 46.5116 21.0533C46.5613 21.1895 46.6091 21.3267 46.6538 21.4659C46.6864 21.5679 46.7216 21.6704 46.7508 21.7734C46.8186 22.0116 46.8769 22.2553 46.9276 22.5011C46.9427 22.5749 46.9578 22.6488 46.9714 22.7232C47.0201 22.9905 47.0608 23.2604 47.0879 23.5347C47.093 23.5815 47.096 23.6292 47.1 23.6769C47.1261 23.9754 47.1432 24.2759 47.1432 24.5815C47.1432 24.8086 47.1337 25.0337 47.1191 25.2579C47.1111 25.3769 47.0985 25.495 47.0859 25.6126C47.0769 25.7066 47.0678 25.7996 47.0568 25.8925C47.0347 26.0604 47.0091 26.2267 46.9794 26.392C46.9749 26.4192 46.9699 26.4463 46.9648 26.4724C46.4704 29.0925 44.9663 31.4297 42.7874 32.8639L42.6166 29.0694C43.701 29.0197 44.5739 28.1217 44.5829 27.0257ZM28.2784 24.5815C28.2784 29.0126 30.908 32.8845 34.8482 34.298L32.0854 42.9141H9.97338C7.74724 42.9141 5.93669 41.1031 5.93669 38.8785C5.93669 36.6523 7.74724 34.8418 9.97338 34.8418H11.896C12.0377 34.8418 12.1533 34.7267 12.1533 34.5845C12.1533 30.9538 15.107 28.0001 18.7372 28.0001H20.3643C20.5065 28.0001 20.6211 27.885 20.6211 27.7433C20.6211 23.6599 23.9432 20.3383 28.0256 20.3383H29.1533C28.5724 21.683 28.2784 23.1081 28.2784 24.5815ZM63.8719 34.3272C63.7362 30.5312 60.606 27.4855 56.7779 27.4855H55.404C55.2679 23.2377 51.7694 19.8242 47.4885 19.8242H46.5447C44.9221 16.5568 41.689 14.3212 37.9678 14.3212C34.3472 14.3212 31.0799 16.4267 29.3965 19.8242H28.0256C23.7457 19.8242 20.2472 23.2377 20.1111 27.4855H18.7372C14.9091 27.4855 11.7789 30.5312 11.6432 34.3272H9.97338C7.46383 34.3272 5.42212 36.3689 5.42212 38.8785C5.42212 41.3875 7.46383 43.4282 9.97338 43.4282H32.2734C32.3854 43.4282 32.4844 43.3563 32.5186 43.2498L35.4156 34.2151C35.4583 34.0805 35.3854 33.9367 35.2518 33.8925C31.3885 32.6222 28.793 28.88 28.793 24.5815C28.793 23.0996 29.108 21.6709 29.7246 20.3282C33.1874 20.1639 35.296 18.4056 36.1884 17.4543C36.2261 18.0212 36.401 18.8076 36.9859 19.5247C37.8618 20.5976 39.3694 21.1734 41.4714 21.2393L41.9317 25.2704C41.9392 25.3408 41.9769 25.4056 42.0347 25.4478C42.092 25.4905 42.1658 25.5056 42.2347 25.4935C42.6427 25.4166 43.104 25.4428 43.7111 26.1553C43.9432 26.4272 44.0699 26.7357 44.0684 27.0222C44.0618 27.8689 43.3679 28.5573 42.5216 28.5573C42.493 28.5573 42.4653 28.5523 42.4377 28.5488L42.3734 28.5408C42.2955 28.5307 42.2251 28.5584 42.1704 28.6096C42.1161 28.6614 42.0864 28.7332 42.09 28.8086L42.2864 33.1674C41.9844 33.3377 41.6759 33.4975 41.3518 33.6337C41.2221 33.689 41.1603 33.8378 41.2136 33.9674L44.2116 43.2498C44.2452 43.3563 44.3442 43.4282 44.4563 43.4282H65.5412C68.0508 43.4282 70.0925 41.3875 70.0925 38.8785C70.0925 36.3689 68.0508 34.3272 65.5412 34.3272H63.8719Z" fill="black"/>
<path fill-rule="evenodd" clip-rule="evenodd" d="M107.94 131.767L103.664 124.284C100.627 118.97 98.5315 113.155 97.6265 107.102C94.7044 87.5555 88.527 69.4479 81.9159 59.2464C79.5511 55.5977 76.9476 52.5479 74.3571 50.0218C68.0983 43.9168 57.5697 47.866 56.9265 56.5861C56.6636 60.1479 58.3119 63.5364 61.1742 65.6726C75.8496 76.6253 82.126 111.34 82.5702 115.977C83.0596 121.086 77.835 120.555 76.9807 131.17C76.032 142.958 81.1501 143.838 83.2687 142.657C85.3873 141.477 84.1124 131.951 84.1124 131.951C88.6707 138.16 85.629 147.709 88.9621 150.583C92.0586 153.254 94.9641 150.524 94.9641 150.524C100.027 152.106 102.096 148.02 102.096 148.02C107.914 147.168 107.279 141.607 107.279 141.607C110.781 137.733 107.94 131.767 107.94 131.767ZM20.6873 56.5861C20.044 47.866 9.5154 43.9168 3.25661 50.0218C0.666161 52.5479 -1.93736 55.5977 -4.30219 59.2464C-10.9132 69.4479 -17.0906 87.5555 -20.0122 107.102C-20.9173 113.155 -23.0131 118.97 -26.0503 124.284L-30.3262 131.767C-30.3262 131.767 -33.1669 137.733 -29.6654 141.607C-29.6654 141.607 -30.3001 147.168 -24.4825 148.02C-24.4825 148.02 -22.4136 152.106 -17.3504 150.524C-17.3504 150.524 -14.4449 153.254 -11.3479 150.583C-8.01525 147.709 -11.0565 138.16 -6.49817 131.951C-6.49817 131.951 -7.77354 141.477 -5.65445 142.657C-3.53585 143.838 1.58173 142.958 0.632988 131.17C-0.221285 120.555 -5.44591 121.086 -4.95646 115.977C-4.51224 111.34 1.76415 76.6253 16.44 65.6726C19.3023 63.5364 20.9501 60.1479 20.6873 56.5861Z" fill="#8B4500"/>
<path fill-rule="evenodd" clip-rule="evenodd" d="M101.785 129.936C104.914 135.782 106.415 138.864 107.024 141.648C107.058 141.959 107.481 146.828 102.278 147.726C102.92 145.33 102.598 140.616 98.4491 131.38C98.3913 131.25 98.2395 131.192 98.1094 131.251C97.9798 131.309 97.922 131.462 97.9802 131.591C102.731 142.167 102.272 146.539 101.576 148.204C101.494 148.4 101.406 148.56 101.318 148.702C101.115 148.944 100.854 149.215 100.531 149.476C100.482 149.494 100.446 149.527 100.417 149.566C99.3682 150.367 97.7084 151.02 95.3139 150.357C95.7074 149.255 96.6566 144.836 92.9431 132.978C92.9004 132.843 92.7561 132.766 92.621 132.809C92.4853 132.852 92.4099 132.996 92.4521 133.131C96.4828 146.002 94.9235 149.996 94.7546 150.367C94.4265 150.659 91.8767 152.758 89.1295 150.389C87.6622 149.123 87.4938 146.394 87.2988 143.234C87.0672 139.471 86.8034 135.207 84.3395 131.829C84.335 129.807 84.9762 128.946 84.9848 128.935C85.0722 128.824 85.0531 128.664 84.9421 128.575C84.8315 128.486 84.6692 128.505 84.5812 128.616C84.5275 128.684 83.2843 130.305 84.0968 134.325C84.0973 134.327 84.0988 134.329 84.0993 134.331C84.3436 137.451 84.3868 141.74 83.1431 142.433C82.4179 142.838 81.1431 143.034 79.939 142.261C78.6632 141.441 76.6154 138.912 77.237 131.19C77.7114 125.297 79.523 122.919 80.9792 121.007C82.136 119.489 83.0501 118.29 82.826 115.954C82.3606 111.09 75.929 76.3636 61.3275 65.4666C58.4797 63.3415 56.9305 60.0284 57.1828 56.6053C57.4717 52.6847 59.932 49.3857 63.6029 47.9952C67.2943 46.5947 71.3456 47.4435 74.1777 50.2063C77.0149 52.9746 79.5461 56.0631 81.6999 59.3862C88.5416 69.9435 94.5466 88.242 97.3717 107.14C98.2657 113.118 100.308 118.93 103.441 124.413L107.707 131.877C107.734 131.933 110.248 137.343 107.41 141.045C106.725 138.328 105.21 135.244 102.238 129.693C102.171 129.568 102.016 129.519 101.89 129.588C101.765 129.654 101.717 129.81 101.785 129.936ZM108.163 131.639L103.887 124.158C100.786 118.73 98.7647 112.98 97.8802 107.064C95.0451 88.0977 89.0104 69.7219 82.1315 59.1073C79.9571 55.751 77.4019 52.6324 74.537 49.8374C71.5607 46.9349 67.3008 46.045 63.4204 47.5133C59.5606 48.9761 56.9737 52.445 56.6702 56.5671C56.4044 60.1671 58.0305 63.648 61.0199 65.8781C75.4727 76.6651 81.8511 111.169 82.3139 116.002C82.5184 118.137 81.7009 119.211 80.5697 120.695C79.0732 122.66 77.2104 125.105 76.724 131.148C76.1134 138.738 77.9843 141.616 79.6611 142.694C81.0566 143.591 82.5441 143.356 83.3933 142.883C85.232 141.858 84.7757 135.627 84.4948 132.997C86.3441 136.108 86.5772 139.892 86.7853 143.266C86.9878 146.542 87.1617 149.371 88.7938 150.779C89.8607 151.699 90.9109 152.008 91.8406 152.008C93.4199 152.008 94.6511 151.115 95.024 150.812C97.6823 151.598 99.5406 150.854 100.719 149.953C100.791 149.926 101.325 149.702 101.798 148.905C102.024 148.625 102.178 148.389 102.258 148.256C107.648 147.393 107.593 142.522 107.544 141.696C111.006 137.738 108.201 131.717 108.163 131.639ZM16.2858 65.4666C1.68476 76.3636 -4.7469 111.09 -5.21273 115.954C-5.43685 118.29 -4.52278 119.489 -3.3655 121.007C-1.90972 122.919 -0.0976562 125.297 0.376213 131.19C0.998325 138.912 -1.04992 141.441 -2.3258 142.261C-3.52982 143.034 -4.80418 142.837 -5.52981 142.433C-6.77303 141.74 -6.72982 137.451 -6.4856 134.331C-6.48509 134.329 -6.48408 134.327 -6.48358 134.325C-5.67051 130.305 -6.91424 128.684 -6.9675 128.616C-7.05544 128.506 -7.21574 128.488 -7.3273 128.575C-7.43836 128.662 -7.45795 128.823 -7.37152 128.935C-7.36298 128.946 -6.72177 129.807 -6.72629 131.829C-9.18911 135.207 -9.45343 139.471 -9.68559 143.234C-9.88007 146.394 -10.0484 149.123 -11.5162 150.389C-14.2635 152.76 -16.8122 150.659 -17.1409 150.367C-17.3102 149.996 -18.869 146.002 -14.8389 133.131C-14.7961 132.996 -14.8715 132.852 -15.0072 132.809C-15.1434 132.766 -15.2876 132.842 -15.3298 132.978C-19.0434 144.836 -18.0941 149.255 -17.7002 150.357C-20.0972 151.021 -21.7578 150.367 -22.8065 149.566C-22.8352 149.525 -22.8719 149.491 -22.9211 149.473C-22.9211 149.473 -22.9221 149.473 -22.9226 149.472C-23.2422 149.214 -23.501 148.945 -23.702 148.705C-23.791 148.562 -23.8794 148.402 -23.9618 148.204C-24.6583 146.539 -25.1171 142.167 -20.3665 131.591C-20.3082 131.462 -20.3665 131.309 -20.4956 131.251C-20.6258 131.193 -20.7776 131.25 -20.8358 131.38C-24.9844 140.616 -25.306 145.33 -24.6643 147.727C-29.8613 146.829 -29.4452 141.971 -29.4111 141.649C-28.802 138.865 -27.301 135.783 -24.1709 129.936C-24.104 129.81 -24.1508 129.654 -24.2764 129.588C-24.402 129.519 -24.5573 129.568 -24.6246 129.693C-27.5965 135.244 -29.1116 138.327 -29.797 141.045C-32.6342 137.343 -30.1211 131.934 -30.103 131.894L-25.8272 124.413C-22.6935 118.93 -20.6519 113.118 -19.7585 107.14C-16.9333 88.242 -10.9278 69.9435 -4.0866 59.3862C-1.93233 56.0626 0.598831 52.9746 3.43602 50.2063C6.26768 47.4435 10.3204 46.5967 14.0104 47.9952C17.6817 49.3847 20.141 52.6847 20.4305 56.6053C20.6828 60.0284 19.1335 63.3415 16.2858 65.4666ZM14.1928 47.5133C10.3134 46.044 6.05361 46.9344 3.07672 49.8374C0.211899 52.6324 -2.34338 55.751 -4.51776 59.1073C-11.3972 69.7219 -17.4318 88.0977 -20.267 107.064C-21.1513 112.98 -23.1719 118.73 -26.2739 124.158L-30.5588 131.656C-30.5875 131.717 -33.3925 137.738 -29.9302 141.696C-29.9794 142.522 -30.0337 147.393 -24.6442 148.256C-24.5648 148.39 -24.4101 148.626 -24.1834 148.906C-23.7116 149.701 -23.1794 149.925 -23.1055 149.953C-21.9272 150.853 -20.069 151.597 -17.4102 150.812C-17.0374 151.115 -15.8062 152.008 -14.2268 152.008C-13.2977 152.008 -12.2474 151.699 -11.1801 150.779C-9.54841 149.371 -9.37403 146.542 -9.17203 143.266C-8.96399 139.892 -8.73082 136.108 -6.88157 132.997C-7.16298 135.627 -7.61826 141.858 -5.78057 142.883C-4.93082 143.356 -3.44338 143.592 -2.0474 142.694C-0.37052 141.616 1.50034 138.738 0.889286 131.148C0.402855 125.105 -1.45996 122.66 -2.95644 120.695C-4.0876 119.211 -4.90519 118.137 -4.70067 116.002C-4.23786 111.169 2.14104 76.6651 16.5933 65.8781C19.5828 63.648 21.2089 60.1671 20.9436 56.5671C20.6395 52.445 18.0531 48.9761 14.1928 47.5133Z" fill="black"/>
<path fill-rule="evenodd" clip-rule="evenodd" d="M100.627 103.537C100.627 103.537 97.8084 98.0691 91.5868 73.5154C85.3652 48.9616 62.6451 43.4943 62.6451 43.4943V43.4948C59.3592 42.4465 55.9396 41.7666 52.4446 41.4902C52.4285 41.4892 52.4129 41.4872 52.3969 41.4862C51.8652 41.4445 51.3315 41.4149 50.7963 41.3917C50.7421 41.3897 50.6878 41.3847 50.6335 41.3822C50.0471 41.3601 49.4587 41.348 48.8692 41.348H45.2381C45.2375 41.35 45.236 41.3515 45.235 41.353L45.2069 41.348C45.2069 41.348 45.2064 41.348 45.2064 41.3485L45.2034 41.348C44.231 43.3958 41.8235 44.8485 38.9979 44.8556C36.1727 44.8485 33.7652 43.3958 32.7928 41.348L32.7898 41.3485C32.7898 41.348 32.7893 41.348 32.7893 41.348L32.7612 41.353C32.7602 41.3515 32.7587 41.35 32.7581 41.348H29.127C28.5375 41.348 27.9491 41.3601 27.3627 41.3822C27.3084 41.3847 27.2541 41.3897 27.1999 41.3917C26.6647 41.4149 26.131 41.4445 25.5989 41.4862C25.5833 41.4872 25.5677 41.4892 25.5516 41.4902C22.0566 41.7666 18.6365 42.4465 15.3511 43.4948V43.4943C15.3511 43.4943 -7.36949 48.9616 -13.5906 73.5154C-19.8122 98.0691 -22.6313 103.537 -22.6313 103.537H-0.959435C-0.959435 103.537 2.81996 86.2314 9.51141 76.34C9.02197 84.636 7.49232 97.9445 7.49232 97.9445H70.5044C70.5044 97.9445 68.9742 84.636 68.4853 76.34C75.1762 86.2314 78.9556 103.537 78.9556 103.537H100.627Z" fill="#4B69FD"/>
<path fill-rule="evenodd" clip-rule="evenodd" d="M9.02246 82.8274L10.5551 67.4952L9.02246 82.8274Z" fill="#426AFF"/>
<path fill-rule="evenodd" clip-rule="evenodd" d="M68.8888 82.1581L67.4973 67.5073L68.8888 82.1581Z" fill="#426AFF"/>
<path fill-rule="evenodd" clip-rule="evenodd" d="M79.1613 103.28C78.71 101.305 74.9507 85.438 68.6979 76.1958C68.6668 76.149 68.6216 76.1159 68.5713 76.0983L67.7532 67.4832C67.7396 67.3415 67.618 67.242 67.4728 67.2516C67.3311 67.2646 67.2276 67.3902 67.2411 67.5315L68.6326 82.1827C68.6361 82.2214 68.6502 82.2561 68.6693 82.2882C68.7065 82.7209 68.7442 83.1556 68.7829 83.5913H9.21301C9.23512 83.3465 9.25673 83.1013 9.27783 82.8566C9.27783 82.8556 9.27884 82.8546 9.27884 82.8541L10.8115 67.5214C10.8256 67.3802 10.7226 67.2541 10.5808 67.2395C10.4406 67.2269 10.3135 67.3284 10.2994 67.4696L9.43764 76.0943C9.38186 76.1114 9.33211 76.145 9.29794 76.1958C3.04568 85.438 -0.714127 101.305 -1.16538 103.28H-22.2297C-21.5246 101.682 -18.6548 94.5485 -13.3413 73.5782C-7.31011 49.7732 14.614 43.9465 15.3919 43.748C15.405 43.746 15.417 43.7435 15.4291 43.74C18.721 42.6892 22.1331 42.0184 25.619 41.742C26.1477 41.7008 26.6788 41.6712 27.2115 41.6485L27.3728 41.6395C27.9557 41.6169 28.5406 41.6048 29.1271 41.6048H32.6331C33.7241 43.7345 36.2015 45.1053 38.9989 45.1124C41.7949 45.1053 44.2723 43.7345 45.3633 41.6048H48.8693C49.4557 41.6048 50.0406 41.6169 50.6236 41.6395L50.7859 41.649C51.3175 41.6711 51.8482 41.7008 52.3728 41.742C52.3738 41.742 52.4231 41.7465 52.4241 41.7465C55.8628 42.0184 59.2753 42.6892 62.5673 43.74C62.5788 43.7435 62.5914 43.746 62.604 43.748C63.3768 43.9445 85.3055 49.7706 91.3371 73.5782C96.6507 94.5485 99.5205 101.682 100.226 103.28H79.1613ZM7.78035 97.6877C7.88035 96.7993 8.19995 93.943 8.56226 90.3847H69.4341C69.7959 93.943 70.116 96.7993 70.216 97.6877H7.78035ZM69.0673 86.7244H8.92407L8.92909 86.6722C9.00949 85.8264 9.08989 84.9666 9.16728 84.1063H68.8281L69.0673 86.7244ZM8.87381 87.2516H69.1165L69.3557 89.8696H8.6311L8.87381 87.2516ZM100.856 103.418C100.828 103.365 97.9793 97.6973 91.8361 73.4516C85.6487 49.0294 62.9341 43.2988 62.705 43.243C62.704 43.243 62.7035 43.2425 62.7029 43.2425C59.3798 42.1842 55.9356 41.5083 52.4688 41.234C52.4673 41.234 52.419 41.2299 52.417 41.2299C51.8824 41.1877 51.3457 41.1581 50.8085 41.135L50.6432 41.1249C50.0537 41.1028 49.4622 41.0902 48.8693 41.0902H45.2381C45.2311 41.0902 45.2241 41.0902 45.2175 41.0908C45.106 41.0767 45.016 41.143 44.9708 41.237C44.005 43.2727 41.6602 44.5918 38.9989 44.5983C36.3361 44.5918 33.9914 43.2727 33.0251 41.237C32.9829 41.1475 32.8884 41.0902 32.7894 41.0902C32.7819 41.0897 32.7698 41.0897 32.7582 41.0902H29.1271C28.5336 41.0902 27.9427 41.1028 27.3532 41.1249L27.1889 41.1345C26.6507 41.1581 26.114 41.1877 25.5316 41.234C22.0607 41.5083 18.6165 42.1842 15.2934 43.2425C15.2929 43.2425 15.2919 43.243 15.2909 43.243C15.0623 43.2988 -7.65232 49.0294 -13.8403 73.4516C-19.9734 97.6581 -22.8317 103.365 -22.8598 103.419C-22.901 103.499 -22.8975 103.594 -22.8508 103.671C-22.8045 103.748 -22.7211 103.794 -22.6317 103.794H-0.959351C-0.838747 103.794 -0.733723 103.709 -0.708094 103.591C-0.671412 103.423 2.93412 87.141 9.19392 77.2928C9.06075 79.331 8.87432 81.6169 8.66879 83.9043L8.41251 86.6686C8.40346 86.7651 8.39392 86.8606 8.38487 86.9571C8.38487 86.9576 8.38437 86.9576 8.38437 86.9581L8.37984 87.0063C7.82406 92.7857 7.24567 97.834 7.23663 97.9154C7.22809 97.9887 7.25069 98.0616 7.29994 98.1164C7.34868 98.1707 7.41854 98.2023 7.4919 98.2023H70.5045C70.5773 98.2023 70.6477 98.1707 70.6964 98.1164C70.7452 98.0616 70.7683 97.9887 70.7598 97.9154C70.7452 97.7877 69.3401 85.5204 68.8019 77.2928C75.0617 87.141 78.6678 103.423 78.7045 103.591C78.7301 103.709 78.8346 103.794 78.9557 103.794H100.628C100.718 103.794 100.801 103.748 100.847 103.671C100.894 103.594 100.897 103.499 100.856 103.418Z" fill="black"/>
</g>
<path fill-rule="evenodd" clip-rule="evenodd" d="M38 0.560803C17.3563 0.560803 0.561305 17.3558 0.561305 38C0.561305 58.6437 17.3563 75.4387 38 75.4387C58.6437 75.4387 75.4387 58.6437 75.4387 38C75.4387 17.3558 58.6437 0.560803 38 0.560803ZM38 76C17.0467 76 0 58.9533 0 38C0 17.0467 17.0467 0 38 0C58.9533 0 76 17.0467 76 38C76 58.9533 58.9533 76 38 76Z" fill="black"/>
</svg>
