<svg width="76" height="76" viewBox="0 0 76 76" fill="none" xmlns="http://www.w3.org/2000/svg">
<path fill-rule="evenodd" clip-rule="evenodd" d="M75.7196 37.9995C75.7196 58.8312 58.8322 75.7191 38 75.7191C17.1678 75.7191 0.280396 58.8312 0.280396 37.9995C0.280396 17.1673 17.1678 0.279907 38 0.279907C58.8322 0.279907 75.7196 17.1673 75.7196 37.9995Z" fill="#EEF2F8"/>
<mask id="mask0_154_1903" style="mask-type:alpha" maskUnits="userSpaceOnUse" x="0" y="0" width="76" height="76">
<path fill-rule="evenodd" clip-rule="evenodd" d="M75.7196 37.9995C75.7196 58.8312 58.8322 75.7191 38 75.7191C17.1678 75.7191 0.280396 58.8312 0.280396 37.9995C0.280396 17.1673 17.1678 0.279907 38 0.279907C58.8322 0.279907 75.7196 17.1673 75.7196 37.9995Z" fill="white"/>
</mask>
<g mask="url(#mask0_154_1903)">
<path fill-rule="evenodd" clip-rule="evenodd" d="M31.5527 43.1315C31.5527 43.1315 34.3278 41.3184 33.8343 33.8309C33.8343 33.8309 38.2231 35.8849 43.0111 32.412L44.1155 43.045C44.1155 43.045 40.7959 46.8157 37.3151 46.45C33.8343 46.0844 31.5527 43.1315 31.5527 43.1315Z" fill="#DCAD7F"/>
<path fill-rule="evenodd" clip-rule="evenodd" d="M33.9409 33.6032C36.7783 34.9311 39.7416 34.4729 42.8637 32.2085C43.0203 32.0949 43.2411 32.1934 43.2611 32.3859L44.3655 43.0189C44.3728 43.0886 44.3505 43.1582 44.3042 43.2109C42.0418 45.7807 39.7003 46.9531 37.2889 46.6997C34.8988 46.4487 32.9162 45.3069 31.354 43.285C31.2643 43.1689 31.2927 43.0011 31.4154 42.921C33.1662 41.7771 33.9072 38.7565 33.5836 33.8473C33.5711 33.6566 33.7677 33.5222 33.9409 33.6032ZM43.8538 42.9603L42.805 32.8638L42.5978 33.0043C39.7188 34.9092 36.9255 35.3391 34.2411 34.2797L34.1096 34.2261L34.1161 34.3414C34.3499 38.8491 33.6544 41.7799 31.9883 43.1248L31.9141 43.1824L32.0335 43.3269C33.4176 44.967 35.1137 45.9138 37.1315 46.1754L37.3414 46.2C39.5711 46.4342 41.7633 45.3366 43.927 42.8788L43.8538 42.9603Z" fill="black"/>
<path fill-rule="evenodd" clip-rule="evenodd" d="M37.3242 34.5226C32.2523 34.5226 28.1407 30.1627 28.1407 24.7839C28.1407 19.405 32.2523 15.0447 37.3242 15.0447C42.396 15.0447 46.5076 19.405 46.5076 24.7839C46.5076 30.1627 42.396 34.5226 37.3242 34.5226Z" fill="#DCAD7F"/>
<path fill-rule="evenodd" clip-rule="evenodd" d="M37.3241 15.2959C32.399 15.2959 28.3919 19.5522 28.3919 24.7839C28.3919 30.0155 32.399 34.2713 37.3241 34.2713C42.2492 34.2713 46.2563 30.0155 46.2563 24.7839C46.2563 19.5522 42.2492 15.2959 37.3241 15.2959ZM37.3241 34.7738C32.1216 34.7738 27.8894 30.2924 27.8894 24.7839C27.8894 19.2748 32.1216 14.7935 37.3241 14.7935C42.5266 14.7935 46.7588 19.2748 46.7588 24.7839C46.7588 30.2924 42.5266 34.7738 37.3241 34.7738Z" fill="black"/>
<path fill-rule="evenodd" clip-rule="evenodd" d="M38.3081 24.6119H38.3251C38.4715 24.6119 38.59 24.494 38.59 24.3482C38.59 24.2024 38.4715 24.085 38.3251 24.085H38.2454L38.6298 23.7677C38.7426 23.6755 38.7586 23.5086 38.665 23.3973C38.5714 23.284 38.4048 23.2691 38.2925 23.3618L37.4158 24.085H35.823C35.6766 24.085 35.5581 24.2024 35.5581 24.3482C35.5581 24.494 35.6766 24.6119 35.823 24.6119H37.423L38.3029 25.266C38.3505 25.3016 38.4058 25.3186 38.4612 25.3186C38.5419 25.3186 38.6215 25.282 38.6733 25.2125C38.7607 25.0956 38.7369 24.9307 38.6195 24.8437L38.3081 24.6119ZM38.1104 29.1157C37.9822 29.0472 37.8223 29.0946 37.7525 29.2244C37.29 30.0856 36.7065 30.6151 36.0196 30.7985C35.0284 31.0643 34.1278 30.5142 34.1185 30.5085C33.9964 30.4328 33.8324 30.4693 33.7538 30.5919C33.6768 30.7155 33.7129 30.8778 33.8366 30.9545C33.8728 30.9767 34.5562 31.399 35.4541 31.399C35.675 31.399 35.9094 31.3733 36.1499 31.3099C36.9874 31.089 37.6837 30.4709 38.2196 29.4727C38.2884 29.3444 38.2398 29.1847 38.1104 29.1157ZM32.2221 21.1048C32.1807 21.1048 31.098 21.0877 30.1374 21.9093C30.0267 22.0046 30.0138 22.1704 30.1095 22.2812C30.1617 22.342 30.2357 22.3724 30.3102 22.3724C30.3712 22.3724 30.4328 22.3512 30.483 22.309C31.2801 21.6265 32.205 21.6337 32.2102 21.6322H32.2148C32.3587 21.6322 32.4777 21.5178 32.4802 21.3741C32.4833 21.2289 32.3685 21.1083 32.2221 21.1048ZM36.421 21.6322H36.4251C36.4339 21.6306 37.3547 21.627 38.1523 22.309C38.2025 22.3512 38.2641 22.3724 38.3251 22.3724C38.3996 22.3724 38.4736 22.3414 38.5259 22.2812C38.6215 22.1704 38.6086 22.0046 38.4979 21.9093C37.5373 21.0872 36.4608 21.1048 36.4137 21.1048C36.2679 21.1083 36.1525 21.2294 36.1556 21.3741C36.1587 21.5178 36.2772 21.6322 36.421 21.6322ZM31.6707 23.5648C31.3691 23.5648 31.1249 23.9516 31.1249 24.429C31.1249 24.9055 31.3691 25.2918 31.6707 25.2918C31.9717 25.2918 32.2164 24.9055 32.2164 24.429C32.2164 23.9516 31.9717 23.5648 31.6707 23.5648ZM34.7905 27.8105C34.9224 27.8105 35.0367 27.7127 35.0527 27.5787C35.0703 27.434 34.9669 27.3032 34.8225 27.2851L33.5003 27.125L33.9147 25.5565C33.9514 25.4159 33.8676 25.2717 33.7259 25.2346C33.5873 25.196 33.4398 25.2815 33.4026 25.4226L32.9106 27.2836C32.891 27.3572 32.9044 27.4355 32.9474 27.4989C32.9903 27.5618 33.0586 27.603 33.1346 27.6122L34.7584 27.8084C34.7688 27.81 34.7801 27.8105 34.7905 27.8105Z" fill="black"/>
<path fill-rule="evenodd" clip-rule="evenodd" d="M44.0674 4.24502C44.0674 0.571151 41.089 -2.40674 37.4151 -2.40674C33.7413 -2.40674 30.7628 0.571151 30.7628 4.24502C30.7628 7.91939 33.7413 10.8973 37.4151 10.8973C41.089 10.8973 44.0674 7.91939 44.0674 4.24502ZM56.5081 25.0199C50.2981 24.1727 53.0569 10.8973 41.1046 10.8973H37.4151H35.281C23.3282 10.8973 26.1407 24.1727 19.9312 25.0199C9.98142 26.3762 11.8548 36.3909 11.8548 36.3909H33.9167L34.6172 34.2055H34.6182C30.7744 32.9412 27.9829 29.1417 27.9829 24.6495C27.9829 22.4752 28.6447 20.4686 29.7558 18.8279H40.5548C41.487 18.8279 42.2714 19.5269 42.3775 20.4531L42.8629 24.7073C43.3624 24.6129 43.9172 24.6732 44.5825 25.4546C44.8292 25.744 45.0041 26.1108 45.0011 26.4907C44.994 27.4802 44.189 28.2807 43.1981 28.2807C43.1378 28.2807 43.081 28.2686 43.0232 28.2631L43.1327 32.7517L43.183 34.8055L43.2217 36.3909H64.584C64.584 36.3909 66.4579 26.3762 56.5081 25.0199Z" fill="#FECB51"/>
<path fill-rule="evenodd" clip-rule="evenodd" d="M64.3633 36.1337H43.4729L43.2869 28.5366C44.3744 28.4893 45.2503 27.5903 45.2583 26.4928C45.2613 26.0823 45.091 25.6542 44.7784 25.2878C44.1297 24.526 43.5482 24.3969 43.0889 24.419L42.6327 20.424C42.5126 19.3672 41.6186 18.5702 40.5553 18.5702H29.7557C29.6703 18.5702 29.5904 18.6124 29.5427 18.6828C28.3537 20.4386 27.7261 22.5024 27.7261 24.6496C27.7261 29.0819 30.3552 32.9533 34.2955 34.3664L33.7291 36.1337H12.0763C11.9522 35.2206 11.6085 31.5136 13.6592 28.6724C15.007 26.8054 17.1291 25.6612 19.9658 25.2748C22.6683 24.9059 23.7572 22.3029 24.9105 19.5461C26.5562 15.6129 28.4216 11.1547 35.2814 11.1547H41.1045C47.9658 11.1547 49.8482 15.614 51.5096 19.5481C52.6724 22.3039 53.7714 24.9059 56.4739 25.2748C59.3085 25.6612 61.4302 26.8034 62.7789 28.6694C64.8281 31.5061 64.4859 35.2186 64.3633 36.1337ZM31.0201 4.24561C31.0201 0.719477 33.8889 -2.14937 37.4151 -2.14937C40.9412 -2.14937 43.8101 0.719477 43.8101 4.24561C43.8101 7.77174 40.9412 10.6406 37.4151 10.6406C33.8889 10.6406 31.0201 7.77174 31.0201 4.24561ZM63.198 28.3717C61.7638 26.3853 59.5246 25.1717 56.5427 24.7652C54.1322 24.4361 53.1362 22.0783 51.9834 19.3486C50.3452 15.4687 48.307 10.6406 41.1045 10.6406H40.0221C42.5427 9.60892 44.3246 7.13254 44.3246 4.24561C44.3246 0.435557 41.2251 -2.66394 37.4151 -2.66394C33.605 -2.66394 30.5055 0.435557 30.5055 4.24561C30.5055 7.14259 32.3 9.6245 34.8337 10.6496C27.9969 10.8476 26.0251 15.5501 24.4366 19.3481C23.2934 22.0778 22.308 24.4361 19.8964 24.7652C16.9145 25.1717 14.6753 26.3853 13.2417 28.3717C10.7703 31.7965 11.5673 36.2498 11.6025 36.4377C11.6251 36.5598 11.7316 36.6478 11.8552 36.6478H33.9166C34.0281 36.6478 34.1276 36.5759 34.1618 36.4689L34.8633 34.2834C34.906 34.1498 34.8327 34.0051 34.6985 33.9613C30.8356 32.691 28.2402 28.9493 28.2402 24.6496C28.2402 22.6506 28.8115 20.73 29.8929 19.0843H40.5553C41.3573 19.0843 42.0312 19.6858 42.1211 20.4823L42.607 24.7361C42.6151 24.8074 42.6528 24.8722 42.7101 24.9145C42.7678 24.9567 42.8392 24.9727 42.9111 24.9602C43.3196 24.8813 43.7814 24.9109 44.3874 25.6215C44.6196 25.8939 44.7467 26.2019 44.7437 26.4893C44.7377 27.3351 44.0442 28.0235 43.198 28.0235C43.1699 28.0235 43.1432 28.0195 43.1166 28.016L43.0498 28.0074C42.9759 27.9989 42.9035 28.023 42.8487 28.0743C42.794 28.1245 42.7648 28.1949 42.7658 28.2692L42.9648 36.397C42.9683 36.5367 43.0824 36.6478 43.2221 36.6478H64.5839C64.708 36.6478 64.8141 36.5598 64.8367 36.4377C64.8724 36.2498 65.6698 31.7965 63.198 28.3717Z" fill="black"/>
<path fill-rule="evenodd" clip-rule="evenodd" d="M56.2843 98.9233H1.80394C1.80394 98.9233 7.21449 80.4524 7.77428 72.9896C7.77428 72.9896 -38.8696 65.1579 -51.1842 12.8206H-19.4398C-19.4398 12.8206 -4.90813 50.2203 32.0316 41.8278C33.0059 43.8801 35.422 45.3358 38.2557 45.3358C41.0899 45.3358 43.506 43.8801 44.4803 41.8278L49.0532 42.1012C55.824 42.5057 62.4869 44.1635 68.5517 47.2002C78.1235 51.9926 88.9818 61.3439 90.8009 79.3328C94.1592 112.543 70.6507 106.573 70.6507 106.573C70.6507 106.573 62.4411 104.427 56.2843 98.5504" fill="#FCBD21"/>
<path fill-rule="evenodd" clip-rule="evenodd" d="M84.7633 103.275C78.9106 108.323 70.7955 106.343 70.7156 106.324C70.6347 106.303 62.4975 104.124 56.4618 98.3645C56.4583 98.3615 56.4538 98.3605 56.4503 98.357C56.4467 98.354 56.4452 98.3495 56.4417 98.3465L42.4784 87.5681L59.5523 68.0555L76.7739 81.464C76.8859 81.551 77.0477 81.5304 77.1352 81.4193C77.2221 81.3068 77.202 81.1454 77.09 81.058L67.9508 73.9424L67.4865 68.6751C67.4739 68.5344 67.3493 68.4394 67.2076 68.4419C67.0658 68.454 66.9613 68.5786 66.9739 68.7203L67.3965 73.5108L59.6764 67.5002C59.5689 67.4158 59.4146 67.4314 59.3246 67.5339L41.9111 87.4349C41.8643 87.4887 41.8417 87.559 41.8488 87.6299C41.8558 87.7002 41.891 87.7651 41.9473 87.8083L56.0136 98.6661H2.14675C2.87489 96.1434 7.51257 79.8791 8.03016 73.0183C8.04071 72.9284 8.27941 70.7882 8.03016 68.6681C8.01308 68.5269 7.88443 68.4208 7.74423 68.4429C7.60303 68.459 7.50253 68.5867 7.51911 68.7279C7.71056 70.3575 7.60052 72.0404 7.54524 72.6841C5.73569 72.3304 -5.04622 69.9831 -16.9663 62.3032C-28.9163 54.6037 -44.4721 39.8208 -50.8585 13.0781H-19.6131C-19.0799 14.3685 -15.3367 23.0083 -7.73868 30.6525C-0.191444 38.2465 12.801 46.3841 31.8915 42.1233C32.996 44.2379 35.4684 45.5937 38.2558 45.5937C41.0558 45.5937 43.5382 44.2254 44.6352 42.0947L49.0382 42.3575C56.0221 42.7751 62.5488 44.4821 68.4367 47.4309C77.5091 51.9726 88.7085 61.1992 90.5452 79.358C91.7131 90.9108 89.7678 98.957 84.7633 103.275ZM91.0568 79.3068C89.197 60.9148 77.8548 51.5706 68.6674 46.9706C62.7166 43.9907 56.1226 42.2666 49.0689 41.8444L44.4955 41.5711C44.3935 41.5645 44.293 41.6223 44.2483 41.7168C43.2789 43.759 40.9266 45.0786 38.2558 45.0786C35.5854 45.0786 33.2337 43.759 32.2643 41.7168C32.2126 41.6088 32.0915 41.547 31.9749 41.5771C13.0156 45.8862 0.118607 37.8233 -7.36129 30.3022C-15.4849 22.1349 -19.1638 12.8203 -19.2 12.7278C-19.2382 12.6288 -19.3337 12.563 -19.4397 12.563H-51.1837C-51.2626 12.563 -51.3369 12.5997 -51.3857 12.661C-51.4344 12.7228 -51.4525 12.8032 -51.4344 12.8791C-45.0535 39.9987 -29.3098 54.9666 -17.2261 62.748C-5.14873 70.5248 5.78393 72.8676 7.49951 73.1992C6.8573 80.6947 1.61057 98.6686 1.5573 98.851C1.53418 98.9289 1.54976 99.0128 1.598 99.0771C1.64674 99.1419 1.72313 99.1806 1.80403 99.1806H56.2844C56.3638 99.1806 56.4347 99.1444 56.4819 99.0882C62.5724 104.68 70.5045 106.801 70.5874 106.823C70.6246 106.832 72.2714 107.235 74.6216 107.235C77.6005 107.235 81.7085 106.587 85.0955 103.668C90.2377 99.2349 92.2432 91.0384 91.0568 79.3068Z" fill="black"/>
<path fill-rule="evenodd" clip-rule="evenodd" d="M-33.8466 -9.05813C-34.525 -9.70587 -35.5089 -9.9913 -36.3979 -9.6918C-36.7833 -9.56115 -37.1441 -9.32597 -37.3773 -8.91793L-46.5612 -20.2059C-47.3466 -21.1888 -48.8421 -21.2275 -49.6532 -20.2662C-50.5341 -19.222 -51.3115 -17.7632 -50.7843 -16.1823C-49.7582 -13.1034 -48.9451 -11.8099 -48.9451 -11.8099C-50.0949 -12.1963 -51.3612 -11.7707 -52.0451 -10.7692L-52.2783 -10.428C-52.6552 -9.87622 -52.8145 -9.20486 -52.726 -8.54255L-52.4904 -6.7722L-53.0361 -6.69431C-53.9285 -6.56667 -54.714 -6.03853 -55.1682 -5.25914C-55.5456 -4.61291 -55.6632 -3.84758 -55.4969 -3.11793L-55.2888 -2.20084L-55.5773 -2.08577C-56.5602 -1.6928 -57.2758 -0.82597 -57.4753 0.213226C-57.5753 0.731819 -57.5446 1.2675 -57.3773 1.768C-56.6552 3.9283 -54.3044 9.64991 -49.9713 8.43383C-49.9713 8.43383 -49.4115 11.9836 -46.2401 12.8208H-22.8245L-22.5602 9.05242C-22.2547 4.70117 -23.9034 0.439859 -27.0577 -2.57321L-33.8466 -9.05813ZM47.5145 60.862L44.7482 55.7102C43.3281 53.066 39.9442 52.2117 37.4397 53.865C35.6517 52.5539 34.1341 51.6992 32.9814 51.1504C31.6683 50.5258 30.101 51.0353 29.4115 52.3157L29.3366 52.4549C28.5934 53.8343 29.1768 55.5333 30.5889 56.2132C37.4095 59.4956 39.4919 63.6605 39.4919 63.6605C36.5778 60.7459 31.8422 58.3781 28.6994 57.0112C26.9507 56.2509 25.1256 57.0836 24.1567 58.7981C24.1567 58.7981 24.1371 58.8288 24.106 58.8836C23.3165 60.2831 24.1557 62.0474 25.7286 62.3735L25.815 62.3921C23.8401 62.1625 23.1688 64.4379 23.1688 64.4379C22.4954 65.862 23.2386 67.5363 24.7341 68.0303C31.2075 70.1695 33.5216 72.9891 33.5216 72.9891C31.204 72.0137 29.1346 71.5841 27.5376 71.4097C25.7527 71.2152 24.1929 72.6002 24.1929 74.3956C24.1929 75.969 25.407 77.2765 26.9763 77.3911L33.3005 77.8554C34.006 77.9077 34.706 78.0198 35.3929 78.1911C37.6447 78.7544 39.6924 79.9399 41.3015 81.6127L44.4673 84.9032L55.7497 72.0087L47.5145 60.862Z" fill="#DCAD7F"/>
<path fill-rule="evenodd" clip-rule="evenodd" d="M-22.8164 9.03479L-23.0641 12.5629H-46.2058C-48.7531 11.8715 -49.5169 9.2765 -49.6797 8.57349C-49.1566 8.31469 -48.8088 7.94183 -48.6661 7.44937C-48.5621 7.09208 -48.5747 6.71268 -48.647 6.35087C-48.3827 6.55439 -48.0772 6.72977 -47.731 6.83881C-47.0028 7.06645 -46.2385 6.95791 -45.4591 6.51168C-44.6596 6.05439 -44.1837 5.45339 -44.045 4.72525C-43.9033 3.98103 -44.146 3.26293 -44.3978 2.76042C-42.4239 3.28806 -40.7611 1.73228 -40.7244 1.6956C-38.2757 -1.2436 -41.6325 -4.91697 -41.6742 -4.96119L-48.7415 -11.9707C-48.8516 -12.1552 -49.6103 -13.4732 -50.54 -16.2637C-50.945 -17.4773 -50.5802 -18.7677 -49.4566 -20.0999C-49.1244 -20.4933 -48.644 -20.728 -48.1174 -20.7079C-47.5867 -20.7009 -47.0928 -20.4592 -46.7606 -20.0436L-37.6722 -8.87325L-37.9933 -8.07023C-38.7299 -6.22802 -38.6214 -4.16571 -37.6943 -2.41094L-35.232 2.25037C-35.3465 2.59711 -35.5913 3.66092 -35.2033 5.68303C-35.1797 5.80665 -35.0717 5.89208 -34.951 5.89208C-34.935 5.89208 -34.9184 5.89057 -34.9023 5.88756C-34.7626 5.86092 -34.6712 5.72575 -34.6983 5.58706C-34.9395 4.32826 -34.9219 3.4755 -34.8571 2.96042L-33.8732 4.82223C-33.8269 4.90967 -33.738 4.95992 -33.6455 4.95992C-33.6048 4.95992 -33.5636 4.94987 -33.5254 4.93027C-33.3998 4.86344 -33.3521 4.70816 -33.4184 4.58253L-37.2395 -2.65114C-38.0958 -4.27174 -38.1963 -6.17677 -37.5154 -7.87928L-37.1475 -8.79888C-36.9717 -9.10189 -36.6923 -9.31998 -36.3154 -9.44762C-35.5576 -9.7044 -34.6581 -9.47827 -34.0239 -8.87224L-27.235 -2.38732C-24.1259 0.582533 -22.5154 4.74585 -22.8164 9.03479ZM-57.133 1.68655C-57.2837 1.23479 -57.3149 0.742331 -57.2229 0.26243C-57.0385 -0.695358 -56.3872 -1.4848 -55.4812 -1.84712L-55.3686 -1.89234L-49.8772 4.84333C-49.8425 4.91268 -49.734 5.12273 -49.543 5.39459C-49.2782 5.90112 -48.9762 6.67097 -49.1601 7.30615C-49.2757 7.70364 -49.5691 7.99258 -50.0556 8.18957C-54.1063 9.31469 -56.3541 4.01771 -57.133 1.68655ZM-54.946 -5.12953C-54.5284 -5.84511 -53.8194 -6.323 -52.9993 -6.43908L-52.5963 -6.49687L-45.2249 2.3961C-45.2249 2.3961 -45.2249 2.3961 -45.2244 2.3966C-45.1983 2.43027 -44.341 3.5368 -44.5506 4.63077C-44.6606 5.20414 -45.0521 5.68605 -45.7144 6.06444C-46.3636 6.4363 -46.9892 6.53127 -47.5742 6.34836C-48.2792 6.12776 -48.8018 5.54786 -49.1093 5.11369C-49.2817 4.79007 -49.4345 4.575 -49.4516 4.55138C-49.4531 4.54937 -49.4556 4.54836 -49.4576 4.54635C-49.4591 4.54384 -49.4591 4.54183 -49.4606 4.53982L-55.0511 -2.31797L-55.246 -3.17476C-55.3978 -3.8431 -55.2918 -4.53807 -54.946 -5.12953ZM-52.0656 -10.2823L-51.8325 -10.624C-51.2264 -11.5124 -50.0998 -11.8969 -49.0772 -11.5788L-42.0435 -4.6039C-42.0124 -4.56973 -38.9611 -1.2245 -41.0998 1.34384C-41.1737 1.41469 -42.9289 3.04484 -44.8651 2.02424L-52.245 -6.87978L-52.4712 -8.57677C-52.5511 -9.17626 -52.4068 -9.78229 -52.0656 -10.2823ZM-33.6686 -9.2441C-34.4511 -9.99134 -35.5279 -10.2572 -36.4797 -9.93506C-36.8556 -9.80842 -37.1606 -9.60943 -37.3913 -9.34209L-46.3601 -20.3667C-46.7872 -20.9009 -47.4254 -21.2129 -48.1103 -21.222C-48.7867 -21.2351 -49.4184 -20.9426 -49.8495 -20.4315C-51.0792 -18.9738 -51.4867 -17.4763 -51.0284 -16.1009C-50.3541 -14.0773 -49.7737 -12.822 -49.446 -12.1858C-50.5289 -12.3145 -51.6264 -11.8396 -52.2576 -10.9145L-52.4902 -10.5732C-52.9038 -9.96772 -53.0777 -9.23455 -52.9807 -8.50842L-52.7787 -6.99134L-53.0722 -6.94913C-54.0485 -6.80943 -54.8933 -6.24109 -55.3902 -5.38933C-55.8018 -4.6843 -55.9289 -3.85666 -55.7475 -3.06068L-55.5882 -2.35868L-55.6727 -2.3245C-56.742 -1.89636 -57.5104 -0.96571 -57.7279 0.165445C-57.8365 0.731777 -57.7998 1.31419 -57.6209 1.84937C-55.2767 8.86394 -51.8068 9.09912 -50.1696 8.74736C-49.9636 9.62726 -49.1124 12.3288 -46.3053 13.069C-46.2837 13.0745 -46.2616 13.078 -46.2395 13.078H-22.8244C-22.6892 13.078 -22.5772 12.9735 -22.5676 12.8388L-22.3033 9.07097C-21.9918 4.62826 -23.6596 0.316702 -26.8797 -2.75918L-33.6686 -9.2441ZM44.4583 84.5233L41.487 81.4344C39.8422 79.7248 37.7568 78.5173 35.4553 77.9419C34.7563 77.7671 34.0372 77.6515 33.3196 77.5987L26.9955 77.1349C25.5684 77.0304 24.4503 75.8274 24.4503 74.3957C24.4503 73.6178 24.7819 72.8736 25.3603 72.3545C25.8689 71.8992 26.5292 71.6495 27.2091 71.6495C27.3091 71.6495 27.4096 71.6545 27.5096 71.6655C29.4839 71.8806 31.4729 72.4057 33.4216 73.2258C33.5312 73.2716 33.6573 73.2379 33.7277 73.1424C33.7985 73.0485 33.7955 72.9173 33.7206 72.8253C33.6241 72.7083 31.2849 69.9243 24.8151 67.7867C24.1628 67.5706 23.6352 67.0887 23.3669 66.4625C23.0995 65.8404 23.1121 65.1595 23.4156 64.5103C23.4191 64.4987 23.7774 63.3198 24.6895 62.8349C25.0015 62.6691 25.3473 62.6032 25.7221 62.6349L26.296 62.754C26.3226 62.76 26.3483 62.758 26.3739 62.7555C28.8075 63.3193 33.9297 64.9344 37.3759 69.0223C37.4267 69.0826 37.4995 69.1138 37.5729 69.1138C37.6312 69.1138 37.69 69.0942 37.7382 69.0535C37.8473 68.9615 37.8608 68.7997 37.7694 68.6907C33.6814 63.8419 27.3211 62.3816 25.5392 62.057C24.9684 61.8696 24.5076 61.457 24.2533 60.8982C23.9734 60.2811 24.0015 59.5932 24.3302 59.0103L24.3809 58.9248C25.3337 57.2389 27.0282 56.5645 28.5965 57.2475C31.9211 58.6922 36.4784 61.0108 39.3101 63.8419C39.3995 63.9314 39.5407 63.9434 39.6422 63.8691C39.7447 63.7962 39.7784 63.6585 39.7221 63.5459C39.6357 63.3721 37.5221 59.2645 30.7005 55.9816C30.0699 55.6771 29.604 55.1485 29.3905 54.4897C29.1824 53.8495 29.2437 53.1696 29.5633 52.5766L29.6382 52.4379C30.2613 51.2806 31.6814 50.8168 32.8714 51.3831C33.5317 51.6977 34.2086 52.0676 34.895 52.4791C35.493 52.8836 42.4086 57.5811 48.1995 62.2213L55.4201 71.9952L44.4583 84.5233ZM41.4377 53.4258C42.7548 53.7585 43.8789 54.6349 44.5216 55.8319L47.1643 60.7464C43.7875 58.1103 40.2337 55.564 37.8719 53.9098C38.9508 53.3017 40.2302 53.1208 41.4377 53.4258ZM55.9573 71.856L47.7417 60.7399L44.9749 55.5887C44.2638 54.265 43.0206 53.2942 41.5633 52.9269C40.1648 52.5721 38.6759 52.8027 37.4498 53.5545C36.6764 52.9932 35.9111 52.4877 35.1568 52.0344C35.1488 52.0294 35.1397 52.0233 35.1382 52.0218C35.1342 52.0193 35.1297 52.0193 35.1262 52.0168C34.4367 51.6042 33.7568 51.2354 33.0925 50.9193C31.6548 50.2349 29.9387 50.7952 29.1854 52.1937L29.1101 52.3329C28.7236 53.051 28.6493 53.8736 28.901 54.6485C29.1553 55.4304 29.7297 56.0851 30.4774 56.4449C34.3673 58.3173 36.7055 60.4937 37.9804 61.9862C35.1779 59.7791 31.5668 57.9776 28.802 56.7756C27.007 55.9942 25.005 56.7746 23.9402 58.6595C23.9402 58.6595 23.9181 58.6942 23.8824 58.757C23.4719 59.4851 23.4362 60.3434 23.7849 61.1113C23.997 61.5781 24.3377 61.9691 24.7568 62.2439C24.6503 62.2816 24.5462 62.3284 24.4447 62.3826C23.3407 62.9711 22.9387 64.3088 22.9362 64.3279C22.588 65.064 22.5724 65.9163 22.8935 66.665C23.2201 67.4263 23.8618 68.0133 24.6538 68.2751C28.7689 69.6344 31.1935 71.2836 32.389 72.2741C30.7915 71.7047 29.1739 71.3289 27.5653 71.154C26.6362 71.052 25.7086 71.3505 25.0166 71.9716C24.3297 72.5882 23.9357 73.4716 23.9357 74.3957C23.9357 76.0947 25.2633 77.5233 26.9578 77.648L33.2819 78.1123C33.9704 78.1625 34.6598 78.2736 35.3307 78.4414C37.5382 78.9932 39.5387 80.151 41.1161 81.7912L44.2819 85.0821C44.3307 85.1324 44.3975 85.1605 44.4674 85.1605H44.4734C44.5452 85.1585 44.6136 85.1273 44.6608 85.0726L55.9437 72.1781C56.0236 72.0877 56.0292 71.953 55.9573 71.856Z" fill="black"/>
</g>
<path fill-rule="evenodd" clip-rule="evenodd" d="M38 0.560803C17.3563 0.560803 0.561305 17.3558 0.561305 38C0.561305 58.6437 17.3563 75.4387 38 75.4387C58.6437 75.4387 75.4387 58.6437 75.4387 38C75.4387 17.3558 58.6437 0.560803 38 0.560803ZM38 76C17.0467 76 0 58.9533 0 38C0 17.0467 17.0467 0 38 0C58.9533 0 76 17.0467 76 38C76 58.9533 58.9533 76 38 76Z" fill="black"/>
</svg>
