<svg width="76" height="76" viewBox="0 0 76 76" fill="none" xmlns="http://www.w3.org/2000/svg">
<path fill-rule="evenodd" clip-rule="evenodd" d="M75.7196 37.9995C75.7196 58.8312 58.8322 75.7191 38 75.7191C17.1678 75.7191 0.280396 58.8312 0.280396 37.9995C0.280396 17.1673 17.1678 0.279907 38 0.279907C58.8322 0.279907 75.7196 17.1673 75.7196 37.9995Z" fill="#EEF2F8"/>
<mask id="mask0_154_2015" style="mask-type:alpha" maskUnits="userSpaceOnUse" x="0" y="0" width="76" height="76">
<path fill-rule="evenodd" clip-rule="evenodd" d="M75.7196 37.9995C75.7196 58.8312 58.8322 75.7191 38 75.7191C17.1678 75.7191 0.280396 58.8312 0.280396 37.9995C0.280396 17.1673 17.1678 0.279907 38 0.279907C58.8322 0.279907 75.7196 17.1673 75.7196 37.9995Z" fill="white"/>
</mask>
<g mask="url(#mask0_154_2015)">
<path fill-rule="evenodd" clip-rule="evenodd" d="M31.5527 43.1315C31.5527 43.1315 34.3278 41.3184 33.8343 33.8309C33.8343 33.8309 38.2231 35.8849 43.0111 32.412L44.1155 43.045C44.1155 43.045 40.7959 46.8157 37.3151 46.45C33.8343 46.0844 31.5527 43.1315 31.5527 43.1315Z" fill="#DCAD7F"/>
<path fill-rule="evenodd" clip-rule="evenodd" d="M33.9409 33.6032C36.7783 34.9311 39.7416 34.4729 42.8637 32.2085C43.0203 32.0949 43.2411 32.1934 43.2611 32.3859L44.3655 43.0189C44.3728 43.0886 44.3505 43.1582 44.3042 43.2109C42.0418 45.7807 39.7003 46.9531 37.2889 46.6997C34.8988 46.4487 32.9162 45.3069 31.354 43.285C31.2643 43.1689 31.2927 43.0011 31.4154 42.921C33.1662 41.7771 33.9072 38.7565 33.5836 33.8473C33.5711 33.6566 33.7677 33.5222 33.9409 33.6032ZM43.8538 42.9603L42.805 32.8638L42.5978 33.0043C39.7188 34.9092 36.9255 35.3391 34.2411 34.2797L34.1096 34.2261L34.1161 34.3414C34.3499 38.8491 33.6544 41.7799 31.9883 43.1248L31.9141 43.1824L32.0335 43.3269C33.4176 44.967 35.1137 45.9138 37.1315 46.1754L37.3414 46.2C39.5711 46.4342 41.7633 45.3366 43.927 42.8788L43.8538 42.9603Z" fill="black"/>
<path fill-rule="evenodd" clip-rule="evenodd" d="M37.3241 34.5226C32.2522 34.5226 28.1406 30.1627 28.1406 24.7839C28.1406 19.405 32.2522 15.0447 37.3241 15.0447C42.3959 15.0447 46.5075 19.405 46.5075 24.7839C46.5075 30.1627 42.3959 34.5226 37.3241 34.5226Z" fill="#DCAD7F"/>
<path fill-rule="evenodd" clip-rule="evenodd" d="M37.3241 15.2959C32.399 15.2959 28.3919 19.5522 28.3919 24.7839C28.3919 30.0155 32.399 34.2713 37.3241 34.2713C42.2492 34.2713 46.2563 30.0155 46.2563 24.7839C46.2563 19.5522 42.2492 15.2959 37.3241 15.2959ZM37.3241 34.7738C32.1216 34.7738 27.8894 30.2924 27.8894 24.7839C27.8894 19.2748 32.1216 14.7935 37.3241 14.7935C42.5266 14.7935 46.7588 19.2748 46.7588 24.7839C46.7588 30.2924 42.5266 34.7738 37.3241 34.7738Z" fill="black"/>
<path fill-rule="evenodd" clip-rule="evenodd" d="M32.1946 25.3989C31.4971 26.0127 30.6991 25.4139 30.6655 25.3881C30.5519 25.3009 30.3906 25.3242 30.3057 25.4412C30.2202 25.5572 30.2424 25.7218 30.3554 25.8099C30.5881 25.9905 31.0152 26.2019 31.4931 26.2019C31.8308 26.2019 32.1936 26.0962 32.5298 25.7996C32.6373 25.7048 32.6499 25.5382 32.5574 25.4278C32.4655 25.3174 32.3027 25.3051 32.1946 25.3989ZM37.8881 25.3989C37.1911 26.0127 36.3926 25.4139 36.3589 25.3881C36.2454 25.3009 36.0841 25.3242 35.9986 25.4412C35.9137 25.5572 35.9358 25.7218 36.0484 25.8099C36.281 25.9905 36.7082 26.2019 37.1861 26.2019C37.5238 26.2019 37.8866 26.0962 38.2233 25.7996C38.3308 25.7048 38.3429 25.5382 38.2509 25.4278C38.1584 25.3174 37.9951 25.3051 37.8881 25.3989ZM34.9775 29.9544C34.7534 30.2773 34.5207 30.4439 34.2866 30.4495C33.8986 30.4578 33.5906 30.0565 33.5856 30.0508C33.4981 29.9369 33.3373 29.9157 33.2248 30.0045C33.1127 30.0942 33.0921 30.2592 33.1795 30.3748C33.1981 30.3995 33.6424 30.9771 34.273 30.9771H34.2946C34.7016 30.9694 35.0725 30.728 35.3966 30.2613C35.479 30.1422 35.4519 29.9771 35.3363 29.8926C35.2202 29.8079 35.0599 29.8358 34.9775 29.9544ZM30.4856 22.9533C31.2052 22.2045 32.0946 22.1364 32.1037 22.1359C32.2454 22.1261 32.3524 22.0013 32.3439 21.8558C32.3353 21.7114 32.2167 21.5933 32.0725 21.6088C32.0283 21.6114 30.9826 21.6841 30.1192 22.582C30.0192 22.6851 30.0202 22.8527 30.1217 22.9554C30.1715 23.0059 30.2368 23.0317 30.3022 23.0317C30.3685 23.0317 30.4348 23.0049 30.4856 22.9533ZM37.4519 22.8868C37.88 22.8868 38.168 22.8027 38.1901 22.796C38.3268 22.7547 38.4042 22.6083 38.364 22.4675C38.3243 22.3287 38.1821 22.2503 38.0449 22.2895C38.0363 22.2916 37.1856 22.5407 36.2534 22.0817C36.1253 22.0188 35.9715 22.074 35.9102 22.206C35.8484 22.337 35.9027 22.4948 36.0308 22.5582C36.5584 22.8171 37.063 22.8868 37.4519 22.8868ZM34.6212 27.5527C34.7499 27.5527 34.8604 27.4541 34.8765 27.321C34.8936 27.1756 34.7931 27.0441 34.6519 27.0266L33.368 26.8667L33.7705 25.2958C33.8067 25.155 33.7248 25.0106 33.5871 24.9735C33.4514 24.9368 33.3097 25.0209 33.273 25.1617L32.7951 27.025C32.776 27.0988 32.7896 27.1772 32.8313 27.2406C32.873 27.3036 32.9393 27.3448 33.0132 27.3541L34.5901 27.5506C34.6006 27.5521 34.6112 27.5527 34.6212 27.5527Z" fill="black"/>
<path fill-rule="evenodd" clip-rule="evenodd" d="M49.5899 28.1978C48.4361 30.3377 46.6256 31.8528 44.2507 31.8528L44.0517 27.4299C44.11 27.435 44.1663 27.4475 44.2261 27.4475C45.218 27.4475 46.0226 26.647 46.0296 25.6571C46.0326 25.2772 45.8577 24.9103 45.611 24.6214C44.9462 23.84 44.3909 23.7797 43.8914 23.8742L43.4055 19.6199C43.2995 18.6938 42.516 17.9938 41.5834 17.9938H30.7279H29.7998C29.7998 17.9938 31.6189 12.5114 41.0884 12.5114C46.7175 12.5114 49.1462 16.4244 50.1904 19.5988C51.1246 22.437 51.008 25.5681 49.5899 28.1978Z" fill="#EFF2F7"/>
<path fill-rule="evenodd" clip-rule="evenodd" d="M46.1824 14.2486C46.291 14.323 46.399 14.3998 46.5025 14.4787C43.5262 15.1476 42.2654 17.2913 42.0126 17.7843C41.8734 17.7556 41.7312 17.7365 41.5839 17.7365H40.3221C40.8824 16.7853 42.6885 14.2878 46.1824 14.2486ZM47.4005 15.2803C44.9834 16.2918 43.4689 17.9672 43.103 18.4029C42.9317 18.22 42.7297 18.0702 42.504 17.9591C42.8111 17.4074 44.1221 15.3898 47.0106 14.9039C47.1458 15.026 47.2749 15.1516 47.4005 15.2803ZM47.7568 15.6632C47.9246 15.8571 48.0824 16.0571 48.2322 16.2612C46.5332 17.5858 44.4674 19.0225 43.6593 19.5777C43.6262 19.3069 43.5417 19.0546 43.4181 18.828C43.4191 18.826 43.4211 18.826 43.4221 18.8245C43.4382 18.8044 45.0201 16.8094 47.6689 15.7245C47.7035 15.7099 47.7327 15.6888 47.7568 15.6632ZM48.9729 17.4245C48.9307 17.435 48.89 17.4521 48.8563 17.4838C46.8679 19.3828 44.2583 20.8923 43.8377 21.1295L43.7262 20.1551C44.2915 19.7692 46.6332 18.1586 48.5297 16.6818C48.69 16.925 48.8347 17.1732 48.9729 17.4245ZM49.6623 18.8998C47.7528 20.6787 44.7684 22.4918 44.0422 22.922L43.8965 21.6481H43.898C43.9402 21.6481 43.9829 21.638 44.0216 21.6164C44.0518 21.5998 46.9985 19.9672 49.2055 17.8617C49.3769 18.2074 49.5262 18.5546 49.6623 18.8998ZM49.9463 19.6792C50.0332 19.9426 50.0995 20.2084 50.1669 20.4747C48.6468 22.1446 46.3684 23.4823 45.502 23.9898L45.4 24.0496C44.9161 23.6456 44.4819 23.5607 44.1181 23.5853L44.105 23.4727C44.1146 23.4692 44.1246 23.4707 44.1342 23.4657C44.1699 23.4441 47.6262 21.4406 49.8558 19.421C49.8855 19.5069 49.9186 19.5938 49.9463 19.6792ZM50.3035 21.0818C50.3493 21.3134 50.3809 21.5451 50.4126 21.7762C49.1558 23.6978 47.3267 24.6727 46.3347 25.1978C46.2965 25.2184 46.2648 25.235 46.2292 25.2536C46.1568 24.9762 46.0176 24.7014 45.8076 24.4541C45.798 24.4431 45.789 24.435 45.7789 24.424C46.6307 23.925 48.7528 22.6762 50.3035 21.0818ZM49.3638 28.0757C48.188 30.2558 46.4664 31.494 44.4965 31.5894L44.4201 29.899C44.4508 29.9116 44.4829 29.9201 44.5176 29.9201C44.5332 29.9201 44.5483 29.9181 44.5638 29.9161C45.7654 29.697 48.3 28.9905 49.8995 26.8581C49.7468 27.2762 49.5739 27.6853 49.3638 28.0757ZM50.4302 24.7325C49.3086 28.1747 45.8945 29.1503 44.4719 29.4095C44.4452 29.4146 44.4221 29.4261 44.3995 29.4382L44.3498 28.332C44.3694 28.3365 44.388 28.3441 44.4091 28.3441H44.4136C45.6714 28.3189 48.7844 26.5647 50.4422 24.6094C50.4367 24.6501 50.4357 24.6918 50.4302 24.7325ZM46.2709 25.8169C46.3588 25.7682 46.4573 25.7149 46.5749 25.6521C47.4533 25.1883 49.1809 24.2637 50.4895 22.5536C50.5146 22.9235 50.5246 23.2918 50.5126 23.6571C49.1347 25.7883 45.5096 27.8069 44.404 27.829C44.3764 27.83 44.3518 27.838 44.3282 27.8466L44.3216 27.7024C45.3523 27.6551 46.1829 26.839 46.2709 25.8169ZM38.1312 17.7365C38.6714 16.7034 40.6206 13.7471 45.2799 13.7471C45.3081 13.7471 45.3362 13.7471 45.3648 13.7476C45.3819 13.7566 45.3975 13.7672 45.4146 13.7767C41.8136 14.1787 40.094 17.0546 39.7342 17.7365H38.1312ZM35.7357 17.7365C36.5483 16.5888 39.3191 13.2345 43.9824 13.2345C44.0272 13.2345 44.0739 13.2446 44.1176 13.236C44.1201 13.236 44.1221 13.2345 44.1251 13.2345C44.1729 13.2501 44.2191 13.2662 44.2659 13.2828C39.7437 13.7194 37.9211 16.9848 37.5593 17.7365H35.7357ZM33.4488 17.7365C34.4146 16.5124 37.6608 12.8963 42.3146 12.8591C37.9945 13.5898 35.5679 17.032 35.1131 17.7365H33.4488ZM31.2963 17.7365C32.2757 16.6697 35.1367 13.8682 38.8312 13.0174C35.4186 14.329 33.2342 17.1446 32.803 17.7365H31.2963ZM30.1932 17.7365C30.4314 17.2576 30.9882 16.3375 32.0867 15.4265C32.9709 14.6928 34.3307 13.8757 36.3246 13.3436C33.2081 14.7863 31.0515 17.2099 30.6073 17.7365H30.1932ZM49.0236 12.6566C48.3362 12.3481 47.6875 12.24 47.1126 12.2325C47.8739 12.0179 48.7854 11.9305 49.7201 12.2416C51.7452 12.9169 53.2935 15.2024 54.3206 19.0355C54.3518 19.1501 54.4558 19.226 54.5689 19.226C54.5915 19.226 54.6136 19.2225 54.6362 19.2174C54.7734 19.1803 54.8548 19.0395 54.8181 18.9019C53.7417 14.8893 52.0799 12.4833 49.8779 11.7516C48.3111 11.2305 46.8417 11.6792 45.896 12.1355C46.4101 11.534 47.204 10.835 48.2337 10.63C49.3759 10.4014 50.59 10.82 51.8463 11.8707C51.9543 11.9617 52.1176 11.9481 52.2086 11.838C52.2995 11.7285 52.2849 11.5662 52.1759 11.4752C50.7925 10.3189 49.4302 9.86517 48.1297 10.126C47.1025 10.3315 46.301 10.9451 45.7372 11.539C45.8367 10.9727 45.8563 10.3124 45.6538 9.65663C45.3794 8.76618 44.7513 8.06216 43.7875 7.56618C43.6613 7.50035 43.5071 7.5501 43.4417 7.67724C43.3764 7.80337 43.4262 7.95814 43.5528 8.02296C44.3875 8.45362 44.9287 9.05261 45.1613 9.80538C45.3518 10.4194 45.3116 11.0536 45.2025 11.5848C45.0995 11.0446 44.8965 10.5787 44.5684 10.2129C43.7538 9.30337 42.5347 9.31291 42.5101 9.29985C42.3679 9.30035 42.2538 9.41693 42.2543 9.55814C42.2548 9.69985 42.3694 9.81442 42.5111 9.81442H42.5121H42.5126C42.5307 9.81442 43.5272 9.82146 44.1855 10.5551C44.6623 11.0873 44.8478 11.8752 44.7407 12.8953C44.0975 12.6466 43.3844 12.4692 42.6081 12.3642C42.5789 12.3521 42.5483 12.3441 42.5146 12.3436H42.4558C42.0206 12.2908 41.5719 12.2541 41.0925 12.2541C41.0925 12.2541 41.092 12.2536 41.0915 12.2536H41.089H41.088C41.0623 12.2536 41.0377 12.2551 41.0116 12.2551C40.8513 12.2546 40.6915 12.2561 40.5337 12.2637C31.4731 12.4712 29.6309 17.6868 29.5561 17.9134C29.5294 17.9913 29.5435 18.0772 29.5912 18.1451C29.64 18.2119 29.7174 18.2511 29.7998 18.2511H41.5839C42.3855 18.2511 43.0593 18.8521 43.1503 19.6491L43.6362 23.9034C43.6442 23.9742 43.6814 24.0385 43.7392 24.0808C43.797 24.1235 43.8709 24.139 43.9397 24.1265C44.3498 24.0476 44.8096 24.0767 45.4161 24.7878C45.6478 25.0607 45.7749 25.3687 45.7729 25.6551C45.7664 26.5019 45.0724 27.1898 44.2262 27.1898C44.2 27.1898 44.1739 27.1858 44.1478 27.1823L44.0759 27.1737C44.0025 27.1707 43.9287 27.1923 43.8739 27.2431C43.8206 27.2943 43.7915 27.3667 43.795 27.4411L43.994 31.8643C43.9995 32.0015 44.1131 32.1095 44.2503 32.1095C46.5216 32.1095 48.4985 30.7638 49.8166 28.3199C50.3925 27.2521 50.7648 26.0737 50.9362 24.8456C50.9377 24.8406 50.9402 24.8355 50.9417 24.831C50.9508 24.8019 50.9518 24.7727 50.9508 24.7446C50.9925 24.4265 51.0186 24.1049 51.0327 23.7813C51.0488 23.7325 51.0523 23.6818 51.0392 23.634C51.0578 23.0189 51.0287 22.3978 50.9478 21.7752C50.9468 21.7702 50.9468 21.7652 50.9457 21.7602C50.8478 21.0099 50.6784 20.2586 50.4352 19.5179C50.3654 19.3069 50.29 19.0933 50.2086 18.8777C50.2086 18.8772 50.2081 18.8772 50.2081 18.8772C49.8618 17.9637 49.3985 17.027 48.792 16.1536C48.7915 16.1526 48.791 16.1511 48.79 16.1501L48.789 16.1486C48.0267 15.0536 47.0307 14.0642 45.7302 13.3556C46.2714 13.4893 47.0538 13.7838 47.8799 14.4526C49.2814 15.5863 51.092 18.038 51.7558 23.2747C51.7724 23.4049 51.8829 23.4993 52.0106 23.4993C52.0216 23.4993 52.0327 23.4988 52.0432 23.4973C52.1839 23.4792 52.2844 23.3506 52.2659 23.2104C51.5126 17.2737 49.3578 14.6933 47.5854 13.5732C48.0563 13.7521 48.5558 14.0104 49.0483 14.3858C50.997 15.8727 52.1819 18.5943 52.5709 22.4752C52.5834 22.6079 52.696 22.7069 52.8262 22.7069C52.8342 22.7069 52.8437 22.7064 52.8518 22.7054C52.9935 22.6913 53.097 22.5652 53.0819 22.424C52.6789 18.3883 51.4231 15.5441 49.3503 13.9697C48.3769 13.2305 47.397 12.9099 46.6061 12.7742C47.2307 12.7089 48.001 12.7596 48.8221 13.13C51.293 14.2456 53.193 17.7601 54.3171 23.2938C54.3422 23.4154 54.4493 23.4993 54.5689 23.4993C54.586 23.4993 54.6035 23.4978 54.6206 23.4943C54.7598 23.4662 54.8498 23.33 54.8211 23.1913C53.6453 17.3998 51.694 13.8556 49.0236 12.6566Z" fill="black"/>
<path fill-rule="evenodd" clip-rule="evenodd" d="M107.438 131.766L103.162 124.284C100.125 118.97 98.0287 113.156 97.1241 107.102C94.2015 87.5555 88.0246 69.448 81.4131 59.2465C79.0488 55.5972 76.4447 52.548 73.8548 50.0213C67.596 43.9168 57.0674 47.8661 56.4241 56.5857C56.1613 60.148 57.8091 63.5364 60.6719 65.6726C75.3473 76.6254 81.6236 111.34 82.0679 115.977C82.5568 121.086 77.3322 120.555 76.4784 131.169C75.5297 142.958 80.6478 143.838 82.7659 142.658C84.8849 141.477 83.6096 131.951 83.6096 131.951C88.1679 138.16 85.1267 147.709 88.4593 150.583C91.5563 153.255 94.4618 150.524 94.4618 150.524C99.5251 152.106 101.593 148.02 101.593 148.02C107.412 147.168 106.777 141.607 106.777 141.607C110.278 137.733 107.438 131.766 107.438 131.766ZM2.75429 50.0213C0.163841 52.548 -2.43968 55.5972 -4.80451 59.2465C-11.4156 69.448 -17.5929 87.5555 -20.5151 107.102C-21.42 113.156 -23.5155 118.97 -26.5526 124.284L-30.8285 131.766C-30.8285 131.766 -33.6692 137.733 -30.1677 141.607C-30.1677 141.607 -30.8029 147.168 -24.9848 148.02C-24.9848 148.02 -22.916 152.106 -17.8527 150.524C-17.8527 150.524 -14.9472 153.255 -11.8507 150.583C-8.51757 147.709 -11.5593 138.16 -7.00048 131.951C-7.00048 131.951 -8.27587 141.477 -6.15727 142.658C-4.03868 143.838 1.07941 142.958 0.130669 131.169C-0.723604 120.555 -5.94823 121.086 -5.45878 115.977C-5.01456 111.34 1.26183 76.6254 15.9372 65.6726C18.7995 63.5364 20.4478 60.148 20.1849 56.5857C19.5417 47.8661 9.01308 43.9168 2.75429 50.0213Z" fill="#DCAD7F"/>
<path fill-rule="evenodd" clip-rule="evenodd" d="M101.282 129.935C104.412 135.781 105.913 138.863 106.522 141.647C106.555 141.956 106.98 146.827 101.775 147.726C102.418 145.33 102.096 140.616 97.9473 131.38C97.8895 131.249 97.7372 131.191 97.6076 131.25C97.4779 131.308 97.4196 131.461 97.4779 131.591C102.229 142.167 101.77 146.539 101.073 148.204C100.992 148.399 100.904 148.559 100.816 148.7C100.614 148.943 100.351 149.214 100.027 149.476C99.9799 149.494 99.9443 149.526 99.9161 149.565C98.8669 150.366 97.2066 151.019 94.8116 150.356C95.2051 149.254 96.1548 144.836 92.4407 132.978C92.398 132.842 92.2548 132.765 92.1186 132.809C91.983 132.851 91.9076 132.996 91.9498 133.131C95.9789 145.998 94.4221 149.993 94.2528 150.366C93.9247 150.656 91.3749 152.757 88.6277 150.388C87.1598 149.122 86.9915 146.394 86.7965 143.234C86.5649 139.471 86.301 135.206 83.8372 131.829C83.8327 129.807 84.4739 128.946 84.4824 128.935C84.5699 128.824 84.5508 128.663 84.4402 128.575C84.3287 128.486 84.1669 128.504 84.0789 128.616C84.0252 128.683 82.7819 130.305 83.5945 134.324C83.595 134.326 83.5965 134.328 83.597 134.33C83.8412 137.45 83.8845 141.739 82.6407 142.432C81.9156 142.837 80.6418 143.034 79.4367 142.26C78.1608 141.44 76.1136 138.911 76.7347 131.189C77.2091 125.296 79.0211 122.918 80.4769 121.007C81.6337 119.488 82.5478 118.289 82.3237 115.952C81.8583 111.089 75.4262 76.363 60.8252 65.4661C57.9779 63.3404 56.4282 60.0279 56.6804 56.6048C56.9699 52.6842 59.4297 49.3847 63.1005 47.9947C66.792 46.5942 70.8438 47.4429 73.6754 50.2053C76.5131 52.9736 79.0438 56.062 81.1975 59.3852C88.0392 69.9429 94.0443 88.2404 96.8694 107.14C97.7634 113.118 99.8056 118.929 102.938 124.412L107.205 131.877C107.232 131.933 109.746 137.342 106.909 141.044C106.223 138.327 104.708 135.243 101.736 129.692C101.669 129.567 101.514 129.518 101.388 129.587C101.262 129.653 101.215 129.81 101.282 129.935ZM107.661 131.638L103.385 124.157C100.283 118.729 98.2624 112.979 97.3779 107.063C94.5428 88.0972 88.5081 69.7213 81.6292 59.1063C79.4548 55.7505 76.8995 52.6319 74.0347 49.8369C71.0583 46.9344 66.7985 46.0445 62.9181 47.5128C59.0583 48.9756 56.4714 52.4445 56.1679 56.5666C55.902 60.1666 57.5287 63.647 60.5176 65.8776C74.9704 76.6645 81.3488 111.168 81.8121 116.002C82.0166 118.137 81.199 119.21 80.0674 120.695C78.5709 122.66 76.7086 125.105 76.2222 131.148C75.6111 138.738 77.4819 141.615 79.1588 142.694C80.5548 143.591 82.0417 143.355 82.891 142.882C84.7297 141.858 84.2739 135.627 83.993 132.996C85.8417 136.108 86.0754 139.891 86.283 143.266C86.4855 146.541 86.6593 149.37 88.2915 150.778C89.3583 151.698 90.4086 152.007 91.3382 152.007C92.9176 152.007 94.1488 151.114 94.5216 150.811C97.1799 151.597 99.0382 150.853 100.216 149.952C100.288 149.926 100.823 149.702 101.296 148.904C101.522 148.624 101.676 148.389 101.756 148.255C107.145 147.392 107.091 142.522 107.042 141.696C110.504 137.738 107.699 131.716 107.661 131.638ZM15.7834 65.4661C1.18244 76.363 -5.24922 111.089 -5.71505 115.952C-5.93867 118.289 -5.0246 119.488 -3.86782 121.007C-2.41203 122.918 -0.599976 125.296 -0.126106 131.189C0.496006 138.911 -1.55224 141.44 -2.82812 142.26C-4.03214 143.033 -5.306 142.837 -6.03213 142.432C-7.27535 141.739 -7.23214 137.45 -6.98792 134.33C-6.98741 134.328 -6.9859 134.326 -6.9859 134.324C-6.17283 130.305 -7.41656 128.683 -7.46932 128.616C-7.55776 128.506 -7.71806 128.488 -7.82912 128.574C-7.94068 128.662 -7.95977 128.823 -7.87334 128.935C-7.8648 128.946 -7.22409 129.807 -7.22862 131.829C-9.69143 135.206 -9.95575 139.47 -10.1874 143.234C-10.3824 146.394 -10.5507 149.122 -12.0186 150.388C-14.7648 152.759 -17.3156 150.657 -17.6432 150.367C-17.8125 149.994 -19.3703 145.999 -15.3412 133.131C-15.2985 132.996 -15.3738 132.851 -15.5095 132.809C-15.6462 132.765 -15.7894 132.841 -15.8321 132.978C-19.5457 144.836 -18.5965 149.254 -18.2025 150.356C-20.5995 151.02 -22.2601 150.366 -23.3089 149.565C-23.3375 149.525 -23.3742 149.491 -23.4229 149.473C-23.4234 149.473 -23.4239 149.472 -23.4244 149.472C-23.744 149.213 -24.0033 148.945 -24.2043 148.704C-24.2928 148.561 -24.3817 148.401 -24.4641 148.204C-25.1606 146.539 -25.6194 142.167 -20.8688 131.591C-20.8105 131.461 -20.8688 131.308 -20.998 131.25C-21.128 131.192 -21.2797 131.25 -21.338 131.38C-25.4868 140.615 -25.8084 145.33 -25.1667 147.726C-30.3581 146.829 -29.9481 141.981 -29.9139 141.65C-29.3043 138.865 -27.8033 135.782 -24.6732 129.935C-24.6064 129.81 -24.6531 129.653 -24.7787 129.587C-24.9043 129.518 -25.0596 129.567 -25.127 129.692C-28.0983 135.243 -29.6134 138.327 -30.2993 141.044C-33.1365 137.342 -30.6234 131.934 -30.6054 131.893L-26.3295 124.412C-23.1958 118.929 -21.1541 113.118 -20.2603 107.14C-17.4357 88.2414 -11.4301 69.9429 -4.58892 59.3852C-2.43515 56.063 0.0960083 52.9746 2.9337 50.2058C5.76586 47.4429 9.81812 46.5962 13.5081 47.9947C17.1794 49.3842 19.6392 52.6842 19.9282 56.6048C20.1804 60.0279 18.6312 63.3409 15.7834 65.4661ZM13.6905 47.5128C9.81059 46.0434 5.55129 46.9334 2.5744 49.8374C-0.290924 52.6324 -2.8462 55.751 -5.02007 59.1063C-11.8995 69.7213 -17.9341 88.0972 -20.7693 107.063C-21.6536 112.979 -23.6742 118.729 -26.7762 124.157L-31.0611 131.656C-31.0898 131.716 -33.8948 137.738 -30.4325 141.696C-30.4817 142.522 -30.536 147.392 -25.1466 148.255C-25.0672 148.389 -24.9124 148.625 -24.6853 148.906C-24.2139 149.7 -23.6812 149.924 -23.6079 149.952C-22.4295 150.852 -20.5713 151.596 -17.9125 150.811C-17.5397 151.114 -16.3085 152.007 -14.7291 152.007C-13.7995 152.007 -12.7497 151.698 -11.6824 150.778C-10.0507 149.37 -9.87635 146.541 -9.67435 143.266C-9.4663 139.891 -9.23314 136.108 -7.38389 132.996C-7.6648 135.627 -8.12057 141.858 -6.28238 142.882C-5.43263 143.355 -3.9457 143.591 -2.54972 142.694C-0.872839 141.615 0.998024 138.738 0.386967 131.148C-0.0989609 125.105 -1.96178 122.66 -3.45876 120.696C-4.58992 119.21 -5.40701 118.137 -5.20299 116.002C-4.73967 111.168 1.63872 76.6645 16.091 65.8776C19.0804 63.647 20.7066 60.1666 20.4412 56.5666C20.1372 52.4439 17.5508 48.9756 13.6905 47.5128Z" fill="black"/>
<path fill-rule="evenodd" clip-rule="evenodd" d="M67.8336 72.2712V68.6154L74.1517 49.3948C66.6763 44.2254 57.7095 41.347 48.3668 41.347H44.7391C44.7381 41.3496 44.7366 41.3511 44.7356 41.3531L44.7044 41.347C43.7321 43.3953 41.3235 44.8486 38.4974 44.8546C35.6718 44.8486 33.2627 43.3953 32.2904 41.347L32.2592 41.3531C32.2582 41.3511 32.2567 41.3496 32.2557 41.347H28.6281C19.2853 41.347 10.318 44.2254 2.84314 49.3948L9.16123 68.6154V72.2712C9.16123 79.0832 8.14464 85.8571 6.14565 92.3692L4.43409 97.944H72.5607L70.8487 92.3692C68.8502 85.8571 67.8336 79.0832 67.8336 72.2712Z" fill="#FF5613"/>
<path fill-rule="evenodd" clip-rule="evenodd" d="M4.78241 97.6867H72.2126L70.603 92.4445C68.595 85.9007 67.5764 79.1133 67.5764 72.2711V68.6148C67.5764 68.5882 67.5809 68.561 67.5894 68.5344L73.8472 49.4972C66.3121 44.3329 57.5055 41.6042 48.3668 41.6042H44.8643C43.7729 43.7344 41.295 45.1053 38.498 45.1118C35.7 45.1053 33.2221 43.7344 32.1306 41.6042H28.6281C19.4899 41.6042 10.6834 44.3329 3.14774 49.4972L9.40552 68.5344C9.41406 68.561 9.41859 68.5882 9.41859 68.6148V72.2711C9.41859 79.1153 8.4 85.9027 6.39196 92.4445L4.78241 97.6867ZM72.5603 98.2012H4.43467C4.35276 98.2012 4.27637 98.1625 4.22763 98.0967C4.17889 98.0319 4.16482 97.947 4.18844 97.8686L5.89999 92.2942C7.89296 85.8007 8.90401 79.0635 8.90401 72.2711V68.656L2.59849 49.4751C2.56331 49.3661 2.60301 49.2475 2.69698 49.1831C10.3533 43.8882 19.3206 41.0897 28.6281 41.0897H32.2558C32.2859 41.0897 32.3151 41.0947 32.3422 41.1048C32.4196 41.1233 32.4909 41.1691 32.5231 41.2364C33.4889 43.2721 35.8347 44.5917 38.498 44.5972C41.1608 44.5917 43.506 43.2721 44.4724 41.2364C44.5181 41.1404 44.6151 41.0796 44.7221 41.0902C44.7276 41.0897 44.7332 41.0897 44.7392 41.0897H48.3668C57.6744 41.0897 66.6417 43.8882 74.298 49.1831C74.392 49.2475 74.4322 49.3661 74.3965 49.4751L68.091 68.656V72.2711C68.091 79.062 69.1015 85.7987 71.095 92.2942L72.8065 97.8686C72.8307 97.947 72.8161 98.0319 72.7678 98.0967C72.7186 98.1625 72.6422 98.2012 72.5603 98.2012Z" fill="black"/>
</g>
<path fill-rule="evenodd" clip-rule="evenodd" d="M38 0.560803C17.3563 0.560803 0.561305 17.3558 0.561305 38C0.561305 58.6437 17.3563 75.4387 38 75.4387C58.6437 75.4387 75.4387 58.6437 75.4387 38C75.4387 17.3558 58.6437 0.560803 38 0.560803ZM38 76C17.0467 76 0 58.9533 0 38C0 17.0467 17.0467 0 38 0C58.9533 0 76 17.0467 76 38C76 58.9533 58.9533 76 38 76Z" fill="black"/>
</svg>
