<svg width="76" height="76" viewBox="0 0 76 76" fill="none" xmlns="http://www.w3.org/2000/svg">
<path fill-rule="evenodd" clip-rule="evenodd" d="M75.7196 37.9995C75.7196 58.8312 58.8322 75.7191 38 75.7191C17.1678 75.7191 0.280396 58.8312 0.280396 37.9995C0.280396 17.1673 17.1678 0.279907 38 0.279907C58.8322 0.279907 75.7196 17.1673 75.7196 37.9995Z" fill="#EEF2F8"/>
<mask id="mask0_154_1567" style="mask-type:alpha" maskUnits="userSpaceOnUse" x="0" y="0" width="76" height="76">
<path fill-rule="evenodd" clip-rule="evenodd" d="M75.7196 37.9995C75.7196 58.8312 58.8322 75.7191 38 75.7191C17.1678 75.7191 0.280396 58.8312 0.280396 37.9995C0.280396 17.1673 17.1678 0.279907 38 0.279907C58.8322 0.279907 75.7196 17.1673 75.7196 37.9995Z" fill="white"/>
</mask>
<g mask="url(#mask0_154_1567)">
<path fill-rule="evenodd" clip-rule="evenodd" d="M31.5527 43.1314C31.5527 43.1314 34.3278 41.3183 33.8343 33.8308C33.8343 33.8308 38.2231 35.8847 43.0111 32.4119L44.1155 43.0449C44.1155 43.0449 40.7959 46.8156 37.3151 46.4499C33.8343 46.0842 31.5527 43.1314 31.5527 43.1314Z" fill="#FBEFE3"/>
<path fill-rule="evenodd" clip-rule="evenodd" d="M33.9409 33.6032C36.7783 34.9311 39.7416 34.473 42.8637 32.2085C43.0203 32.0949 43.2411 32.1934 43.2611 32.3859L44.3655 43.0189C44.3728 43.0886 44.3505 43.1583 44.3042 43.2109C42.0418 45.7807 39.7003 46.9531 37.2889 46.6998C34.8988 46.4487 32.9162 45.3069 31.354 43.285C31.2643 43.1689 31.2927 43.0011 31.4154 42.921C33.1662 41.7771 33.9072 38.7565 33.5836 33.8473C33.5711 33.6566 33.7677 33.5222 33.9409 33.6032ZM43.8538 42.9603L42.805 32.8638L42.5978 33.0043C39.7188 34.9092 36.9255 35.3391 34.2411 34.2797L34.1096 34.2261L34.1161 34.3414C34.3499 38.8491 33.6544 41.7799 31.9883 43.1248L31.9141 43.1824L32.0335 43.3269C33.4176 44.967 35.1137 45.9138 37.1315 46.1754L37.3414 46.2C39.5711 46.4342 41.7633 45.3366 43.927 42.8788L43.8538 42.9603Z" fill="black"/>
<path fill-rule="evenodd" clip-rule="evenodd" d="M37.3241 34.5226C32.2522 34.5226 28.1406 30.1628 28.1406 24.7839C28.1406 19.405 32.2522 15.0447 37.3241 15.0447C42.3959 15.0447 46.5075 19.405 46.5075 24.7839C46.5075 30.1628 42.3959 34.5226 37.3241 34.5226Z" fill="#FBEFE3"/>
<path fill-rule="evenodd" clip-rule="evenodd" d="M37.3241 15.296C32.399 15.296 28.3919 19.5522 28.3919 24.7839C28.3919 30.0156 32.399 34.2713 37.3241 34.2713C42.2492 34.2713 46.2563 30.0156 46.2563 24.7839C46.2563 19.5522 42.2492 15.296 37.3241 15.296ZM37.3241 34.7738C32.1216 34.7738 27.8894 30.2924 27.8894 24.7839C27.8894 19.2749 32.1216 14.7935 37.3241 14.7935C42.5266 14.7935 46.7588 19.2749 46.7588 24.7839C46.7588 30.2924 42.5266 34.7738 37.3241 34.7738Z" fill="black"/>
<path fill-rule="evenodd" clip-rule="evenodd" d="M37.0551 28.2326C36.9154 28.2095 36.7827 28.306 36.7606 28.4462C36.6425 29.1793 35.8842 29.1512 35.7978 29.1437C35.6556 29.1256 35.534 29.2396 35.5229 29.3808C35.5124 29.5226 35.6184 29.6462 35.7596 29.6577C35.7918 29.6597 35.8259 29.6612 35.8616 29.6612C36.336 29.6612 37.1234 29.4321 37.2682 28.5276C37.2908 28.3879 37.1958 28.2552 37.0551 28.2326ZM32.1601 21.105C32.1149 21.105 31.0667 21.0894 30.135 21.8899C30.027 21.9824 30.0149 22.1447 30.1069 22.2527C30.1581 22.312 30.23 22.3422 30.3023 22.3422C30.3616 22.3422 30.4214 22.3215 30.4702 22.2798C31.2486 21.6115 32.1415 21.621 32.1486 21.6195C32.2873 21.61 32.4074 21.5095 32.4104 21.3683C32.4134 21.2261 32.3018 21.1085 32.1601 21.105ZM38.2561 21.8899C37.3244 21.0894 36.2747 21.1035 36.231 21.105C36.0893 21.1085 35.9767 21.2271 35.9797 21.3688C35.9837 21.5115 36.1003 21.608 36.2435 21.6195C36.2486 21.6175 37.136 21.6055 37.9209 22.2798C37.9692 22.3215 38.029 22.3422 38.0883 22.3422C38.1606 22.3422 38.2325 22.312 38.2837 22.2527C38.3757 22.1447 38.3636 21.9824 38.2561 21.8899ZM31.6239 23.5055C31.331 23.5055 31.0938 23.8824 31.0938 24.3482C31.0938 24.813 31.331 25.1904 31.6239 25.1904C31.9164 25.1904 32.1536 24.813 32.1536 24.3482C32.1536 23.8824 31.9164 23.5055 31.6239 23.5055ZM36.7672 23.5055C36.4742 23.5055 36.2375 23.8824 36.2375 24.3482C36.2375 24.813 36.4742 25.1904 36.7672 25.1904C37.0596 25.1904 37.2968 24.813 37.2968 24.3482C37.2968 23.8824 37.0596 23.5055 36.7672 23.5055ZM34.6847 27.1346L33.4013 26.9788L33.8038 25.4482C33.84 25.311 33.7581 25.1703 33.6209 25.1341C33.4842 25.0959 33.3425 25.1798 33.3063 25.3175L32.8285 27.1331C32.8094 27.205 32.8229 27.2813 32.8646 27.3432C32.9063 27.405 32.9722 27.4452 33.046 27.4537L34.6234 27.6452C34.6335 27.6467 34.644 27.6472 34.6541 27.6472C34.7827 27.6472 34.8933 27.5517 34.9094 27.4215C34.9265 27.2798 34.8259 27.1522 34.6847 27.1346Z" fill="black"/>
<path fill-rule="evenodd" clip-rule="evenodd" d="M43.1151 27.7634C43.1734 27.7689 43.2297 27.781 43.289 27.781C44.2799 27.781 45.0834 26.9775 45.0834 25.9865C45.0834 24.9956 44.2799 24.1926 43.289 24.1926C43.1749 24.1926 43.0643 24.2056 42.9558 24.2257L42.1292 16.984C42.1292 16.984 46.398 14.5247 48.208 19.6755C50.0176 24.8262 49.0085 31.7222 43.3131 32.1639L43.1151 27.7634Z" fill="#4B2500"/>
<path fill-rule="evenodd" clip-rule="evenodd" d="M43.3788 28.03L43.5527 31.8884C45.2462 31.6924 46.5673 30.8834 47.4814 29.4814C48.9995 27.1526 49.1964 23.2456 47.9713 19.7587C47.4316 18.2235 46.619 17.2446 45.5557 16.8491C44.2211 16.3521 42.8397 16.916 42.3984 17.128L43.1768 23.9446C44.3778 23.8682 45.3351 24.8215 45.3351 25.9863C45.3351 27.0843 44.4653 27.9828 43.3788 28.03ZM43.3135 32.4151C43.2522 32.4151 43.1929 32.393 43.1472 32.3523C43.0959 32.307 43.0653 32.2432 43.0623 32.1754L42.8643 27.7748C42.8613 27.7019 42.8894 27.6315 42.9422 27.5808C42.9949 27.531 43.0678 27.5069 43.1397 27.5135L43.2085 27.5215C43.2351 27.525 43.2618 27.5295 43.2894 27.5295C44.1402 27.5295 44.8326 26.8371 44.8326 25.9863C44.8326 25.1356 44.1402 24.4436 43.2894 24.4436C43.1909 24.4436 43.0959 24.4552 43.0025 24.4727C42.9341 24.4868 42.8633 24.4697 42.807 24.428C42.7507 24.3868 42.7145 24.324 42.7065 24.2542L41.8799 17.0124C41.8683 16.913 41.917 16.816 42.004 16.7662C42.0804 16.7225 43.8944 15.6969 45.7266 16.3763C46.9386 16.826 47.8532 17.9074 48.4452 19.5923C49.7391 23.2753 49.5261 27.2647 47.902 29.7558C46.8673 31.3437 45.2869 32.2628 43.3326 32.4146C43.3266 32.4151 43.3196 32.4151 43.3135 32.4151Z" fill="black"/>
<path fill-rule="evenodd" clip-rule="evenodd" d="M47.4231 18.0754H30.4197L31.3036 14.3227C32.1363 10.7885 35.29 8.29102 38.9216 8.29102C42.5523 8.29102 45.7066 10.7885 46.5392 14.3227L47.4231 18.0754Z" fill="#213CC4"/>
<path fill-rule="evenodd" clip-rule="evenodd" d="M30.7366 17.8241H47.106L46.2944 14.3804C45.4849 10.9427 42.4527 8.54219 38.9216 8.54219C35.3899 8.54219 32.3577 10.9427 31.5481 14.3804L30.7366 17.8241ZM47.4231 18.3266H30.4195C30.3426 18.3266 30.2697 18.2914 30.2225 18.2316C30.1748 18.1708 30.1572 18.0924 30.1748 18.0176L31.0587 14.2648C31.922 10.5995 35.1552 8.03967 38.9216 8.03967C42.6874 8.03967 45.9205 10.5995 46.7839 14.2648L47.6678 18.0176C47.6854 18.0924 47.6678 18.1708 47.62 18.2316C47.5723 18.2914 47.4999 18.3266 47.4231 18.3266Z" fill="black"/>
<path fill-rule="evenodd" clip-rule="evenodd" d="M26.5213 18.0754C19.4474 18.0754 13.7133 17.4689 13.7133 16.7206C13.7133 15.9724 19.4474 15.3658 26.5213 15.3658C33.5949 15.3658 38.1321 16.0558 39.3291 16.7206L41.5567 18.0754H26.5213Z" fill="#CA3703"/>
<path fill-rule="evenodd" clip-rule="evenodd" d="M13.9947 16.7204C14.552 17.1862 19.1545 17.8239 26.5213 17.8239H40.6603L39.199 16.935C38.0598 16.3028 33.6 15.6169 26.5213 15.6169C19.1545 15.6169 14.552 16.2546 13.9947 16.7204ZM41.5568 18.3264H26.5213C23.0917 18.3264 19.8661 18.1852 17.4384 17.9284C13.462 17.5078 13.462 16.9762 13.462 16.7204C13.462 16.4651 13.462 15.9335 17.4384 15.5129C19.8661 15.2556 23.0917 15.1144 26.5213 15.1144C33.7286 15.1144 38.2085 15.8109 39.4512 16.5008L41.6874 17.8606C41.7834 17.9194 41.8291 18.0345 41.799 18.143C41.7683 18.2516 41.6693 18.3264 41.5568 18.3264Z" fill="black"/>
<path fill-rule="evenodd" clip-rule="evenodd" d="M107.438 131.766L103.162 124.284C100.125 118.97 98.0287 113.156 97.1241 107.102C94.2015 87.5555 88.0246 69.448 81.4131 59.2465C79.0488 55.5972 76.4447 52.548 73.8548 50.0213C67.596 43.9168 57.0674 47.8661 56.4241 56.5857C56.1613 60.148 57.8091 63.5364 60.6719 65.6726C75.3473 76.6254 81.6236 111.34 82.0679 115.977C82.5568 121.086 77.3322 120.555 76.4784 131.169C75.5297 142.958 80.6478 143.838 82.7659 142.658C84.8849 141.477 83.6096 131.951 83.6096 131.951C88.1679 138.16 85.1267 147.709 88.4593 150.583C91.5563 153.255 94.4618 150.524 94.4618 150.524C99.5251 152.106 101.593 148.02 101.593 148.02C107.412 147.168 106.777 141.607 106.777 141.607C110.278 137.733 107.438 131.766 107.438 131.766ZM2.75429 50.0213C0.163841 52.548 -2.43968 55.5972 -4.80451 59.2465C-11.4156 69.448 -17.5929 87.5555 -20.5151 107.102C-21.42 113.156 -23.5155 118.97 -26.5526 124.284L-30.8285 131.766C-30.8285 131.766 -33.6692 137.733 -30.1677 141.607C-30.1677 141.607 -30.8029 147.168 -24.9848 148.02C-24.9848 148.02 -22.916 152.106 -17.8527 150.524C-17.8527 150.524 -14.9472 153.255 -11.8507 150.583C-8.51757 147.709 -11.5593 138.16 -7.00048 131.951C-7.00048 131.951 -8.27587 141.477 -6.15727 142.658C-4.03868 143.838 1.07941 142.958 0.130669 131.169C-0.723604 120.555 -5.94823 121.086 -5.45878 115.977C-5.01456 111.34 1.26183 76.6254 15.9372 65.6726C18.7995 63.5364 20.4478 60.148 20.1849 56.5857C19.5417 47.8661 9.01308 43.9168 2.75429 50.0213Z" fill="#FBEFE3"/>
<path fill-rule="evenodd" clip-rule="evenodd" d="M101.282 129.935C104.412 135.781 105.913 138.863 106.522 141.647C106.555 141.956 106.98 146.827 101.775 147.726C102.418 145.33 102.096 140.616 97.9473 131.38C97.8895 131.249 97.7372 131.191 97.6076 131.25C97.4779 131.308 97.4196 131.461 97.4779 131.591C102.229 142.167 101.77 146.539 101.073 148.204C100.992 148.399 100.904 148.559 100.816 148.7C100.614 148.943 100.351 149.214 100.027 149.476C99.9799 149.494 99.9443 149.526 99.9161 149.565C98.8669 150.366 97.2066 151.019 94.8116 150.356C95.2051 149.254 96.1548 144.836 92.4407 132.978C92.398 132.842 92.2548 132.765 92.1186 132.809C91.983 132.851 91.9076 132.996 91.9498 133.131C95.9789 145.998 94.4221 149.993 94.2528 150.366C93.9247 150.656 91.3749 152.757 88.6277 150.388C87.1598 149.122 86.9915 146.394 86.7965 143.234C86.5649 139.471 86.301 135.206 83.8372 131.829C83.8327 129.807 84.4739 128.946 84.4824 128.935C84.5699 128.824 84.5508 128.663 84.4402 128.575C84.3287 128.486 84.1669 128.504 84.0789 128.616C84.0252 128.683 82.7819 130.305 83.5945 134.324C83.595 134.326 83.5965 134.328 83.597 134.33C83.8412 137.45 83.8845 141.739 82.6407 142.432C81.9156 142.837 80.6418 143.034 79.4367 142.26C78.1608 141.44 76.1136 138.911 76.7347 131.189C77.2091 125.296 79.0211 122.918 80.4769 121.007C81.6337 119.488 82.5478 118.289 82.3237 115.952C81.8583 111.089 75.4262 76.363 60.8252 65.4661C57.9779 63.3404 56.4282 60.0279 56.6804 56.6048C56.9699 52.6842 59.4297 49.3847 63.1005 47.9947C66.792 46.5942 70.8438 47.4429 73.6754 50.2053C76.5131 52.9736 79.0438 56.062 81.1975 59.3852C88.0392 69.9429 94.0443 88.2404 96.8694 107.14C97.7634 113.118 99.8056 118.929 102.938 124.412L107.205 131.877C107.232 131.933 109.746 137.342 106.909 141.044C106.223 138.327 104.708 135.243 101.736 129.692C101.669 129.567 101.514 129.518 101.388 129.587C101.262 129.653 101.215 129.81 101.282 129.935ZM107.661 131.638L103.385 124.157C100.283 118.729 98.2624 112.979 97.3779 107.063C94.5428 88.0972 88.5081 69.7213 81.6292 59.1063C79.4548 55.7505 76.8995 52.6319 74.0347 49.8369C71.0583 46.9344 66.7985 46.0445 62.9181 47.5128C59.0583 48.9756 56.4714 52.4445 56.1679 56.5666C55.902 60.1666 57.5287 63.647 60.5176 65.8776C74.9704 76.6645 81.3488 111.168 81.8121 116.002C82.0166 118.137 81.199 119.21 80.0674 120.695C78.5709 122.66 76.7086 125.105 76.2222 131.148C75.6111 138.738 77.4819 141.615 79.1588 142.694C80.5548 143.591 82.0417 143.355 82.891 142.882C84.7297 141.858 84.2739 135.627 83.993 132.996C85.8417 136.108 86.0754 139.891 86.283 143.266C86.4855 146.541 86.6593 149.37 88.2915 150.778C89.3583 151.698 90.4086 152.007 91.3382 152.007C92.9176 152.007 94.1488 151.114 94.5216 150.811C97.1799 151.597 99.0382 150.853 100.216 149.952C100.288 149.926 100.823 149.702 101.296 148.904C101.522 148.624 101.676 148.389 101.756 148.255C107.145 147.392 107.091 142.522 107.042 141.696C110.504 137.738 107.699 131.716 107.661 131.638ZM15.7834 65.4661C1.18244 76.363 -5.24922 111.089 -5.71505 115.952C-5.93867 118.289 -5.0246 119.488 -3.86782 121.007C-2.41203 122.918 -0.599976 125.296 -0.126106 131.189C0.496006 138.911 -1.55224 141.44 -2.82812 142.26C-4.03214 143.033 -5.306 142.837 -6.03213 142.432C-7.27535 141.739 -7.23214 137.45 -6.98792 134.33C-6.98741 134.328 -6.9859 134.326 -6.9859 134.324C-6.17283 130.305 -7.41656 128.683 -7.46932 128.616C-7.55776 128.506 -7.71806 128.488 -7.82912 128.574C-7.94068 128.662 -7.95977 128.823 -7.87334 128.935C-7.8648 128.946 -7.22409 129.807 -7.22862 131.829C-9.69143 135.206 -9.95575 139.47 -10.1874 143.234C-10.3824 146.394 -10.5507 149.122 -12.0186 150.388C-14.7648 152.759 -17.3156 150.657 -17.6432 150.367C-17.8125 149.994 -19.3703 145.999 -15.3412 133.131C-15.2985 132.996 -15.3738 132.851 -15.5095 132.809C-15.6462 132.765 -15.7894 132.841 -15.8321 132.978C-19.5457 144.836 -18.5965 149.254 -18.2025 150.356C-20.5995 151.02 -22.2601 150.366 -23.3089 149.565C-23.3375 149.525 -23.3742 149.491 -23.4229 149.473C-23.4234 149.473 -23.4239 149.472 -23.4244 149.472C-23.744 149.213 -24.0033 148.945 -24.2043 148.704C-24.2928 148.561 -24.3817 148.401 -24.4641 148.204C-25.1606 146.539 -25.6194 142.167 -20.8688 131.591C-20.8105 131.461 -20.8688 131.308 -20.998 131.25C-21.128 131.192 -21.2797 131.25 -21.338 131.38C-25.4868 140.615 -25.8084 145.33 -25.1667 147.726C-30.3581 146.829 -29.9481 141.981 -29.9139 141.65C-29.3043 138.865 -27.8033 135.782 -24.6732 129.935C-24.6064 129.81 -24.6531 129.653 -24.7787 129.587C-24.9043 129.518 -25.0596 129.567 -25.127 129.692C-28.0983 135.243 -29.6134 138.327 -30.2993 141.044C-33.1365 137.342 -30.6234 131.934 -30.6054 131.893L-26.3295 124.412C-23.1958 118.929 -21.1541 113.118 -20.2603 107.14C-17.4357 88.2414 -11.4301 69.9429 -4.58892 59.3852C-2.43515 56.063 0.0960083 52.9746 2.9337 50.2058C5.76586 47.4429 9.81812 46.5962 13.5081 47.9947C17.1794 49.3842 19.6392 52.6842 19.9282 56.6048C20.1804 60.0279 18.6312 63.3409 15.7834 65.4661ZM13.6905 47.5128C9.81059 46.0434 5.55129 46.9334 2.5744 49.8374C-0.290924 52.6324 -2.8462 55.751 -5.02007 59.1063C-11.8995 69.7213 -17.9341 88.0972 -20.7693 107.063C-21.6536 112.979 -23.6742 118.729 -26.7762 124.157L-31.0611 131.656C-31.0898 131.716 -33.8948 137.738 -30.4325 141.696C-30.4817 142.522 -30.536 147.392 -25.1466 148.255C-25.0672 148.389 -24.9124 148.625 -24.6853 148.906C-24.2139 149.7 -23.6812 149.924 -23.6079 149.952C-22.4295 150.852 -20.5713 151.596 -17.9125 150.811C-17.5397 151.114 -16.3085 152.007 -14.7291 152.007C-13.7995 152.007 -12.7497 151.698 -11.6824 150.778C-10.0507 149.37 -9.87635 146.541 -9.67435 143.266C-9.4663 139.891 -9.23314 136.108 -7.38389 132.996C-7.6648 135.627 -8.12057 141.858 -6.28238 142.882C-5.43263 143.355 -3.9457 143.591 -2.54972 142.694C-0.872839 141.615 0.998024 138.738 0.386967 131.148C-0.0989609 125.105 -1.96178 122.66 -3.45876 120.696C-4.58992 119.21 -5.40701 118.137 -5.20299 116.002C-4.73967 111.168 1.63872 76.6645 16.091 65.8776C19.0804 63.647 20.7066 60.1666 20.4412 56.5666C20.1372 52.4439 17.5508 48.9756 13.6905 47.5128Z" fill="black"/>
<path fill-rule="evenodd" clip-rule="evenodd" d="M67.8336 72.2712V68.6154L74.1517 49.3948C66.6763 44.2254 57.7095 41.347 48.3668 41.347H44.7391C44.7381 41.3496 44.7366 41.3511 44.7356 41.3531L44.7044 41.347C43.7321 43.3953 41.3235 44.8486 38.4974 44.8546C35.6718 44.8486 33.2627 43.3953 32.2904 41.347L32.2592 41.3531C32.2582 41.3511 32.2567 41.3496 32.2557 41.347H28.6281C19.2853 41.347 10.318 44.2254 2.84314 49.3948L9.16123 68.6154V72.2712C9.16123 79.0832 8.14464 85.8571 6.14565 92.3692L4.43409 97.944H72.5607L70.8487 92.3692C68.8502 85.8571 67.8336 79.0832 67.8336 72.2712Z" fill="#FF5613"/>
<path fill-rule="evenodd" clip-rule="evenodd" d="M4.78241 97.6867H72.2126L70.603 92.4445C68.595 85.9007 67.5764 79.1133 67.5764 72.2711V68.6148C67.5764 68.5882 67.5809 68.561 67.5894 68.5344L73.8472 49.4972C66.3121 44.3329 57.5055 41.6042 48.3668 41.6042H44.8643C43.7729 43.7344 41.295 45.1053 38.498 45.1118C35.7 45.1053 33.2221 43.7344 32.1306 41.6042H28.6281C19.4899 41.6042 10.6834 44.3329 3.14774 49.4972L9.40552 68.5344C9.41406 68.561 9.41859 68.5882 9.41859 68.6148V72.2711C9.41859 79.1153 8.4 85.9027 6.39196 92.4445L4.78241 97.6867ZM72.5603 98.2012H4.43467C4.35276 98.2012 4.27637 98.1625 4.22763 98.0967C4.17889 98.0319 4.16482 97.947 4.18844 97.8686L5.89999 92.2942C7.89296 85.8007 8.90401 79.0635 8.90401 72.2711V68.656L2.59849 49.4751C2.56331 49.3661 2.60301 49.2475 2.69698 49.1831C10.3533 43.8882 19.3206 41.0897 28.6281 41.0897H32.2558C32.2859 41.0897 32.3151 41.0947 32.3422 41.1048C32.4196 41.1233 32.4909 41.1691 32.5231 41.2364C33.4889 43.2721 35.8347 44.5917 38.498 44.5972C41.1608 44.5917 43.506 43.2721 44.4724 41.2364C44.5181 41.1404 44.6151 41.0796 44.7221 41.0902C44.7276 41.0897 44.7332 41.0897 44.7392 41.0897H48.3668C57.6744 41.0897 66.6417 43.8882 74.298 49.1831C74.392 49.2475 74.4322 49.3661 74.3965 49.4751L68.091 68.656V72.2711C68.091 79.062 69.1015 85.7987 71.095 92.2942L72.8065 97.8686C72.8307 97.947 72.8161 98.0319 72.7678 98.0967C72.7186 98.1625 72.6422 98.2012 72.5603 98.2012Z" fill="black"/>
</g>
<path fill-rule="evenodd" clip-rule="evenodd" d="M38 0.560803C17.3563 0.560803 0.561305 17.3558 0.561305 38C0.561305 58.6437 17.3563 75.4387 38 75.4387C58.6437 75.4387 75.4387 58.6437 75.4387 38C75.4387 17.3558 58.6437 0.560803 38 0.560803ZM38 76C17.0467 76 0 58.9533 0 38C0 17.0467 17.0467 0 38 0C58.9533 0 76 17.0467 76 38C76 58.9533 58.9533 76 38 76Z" fill="black"/>
</svg>
