<svg width="76" height="76" viewBox="0 0 76 76" fill="none" xmlns="http://www.w3.org/2000/svg">
<path fill-rule="evenodd" clip-rule="evenodd" d="M75.7195 37.9995C75.7195 58.8312 58.832 75.7191 37.9999 75.7191C17.1677 75.7191 0.280273 58.8312 0.280273 37.9995C0.280273 17.1673 17.1677 0.279907 37.9999 0.279907C58.832 0.279907 75.7195 17.1673 75.7195 37.9995Z" fill="#EEF2F8"/>
<mask id="mask0_154_1511" style="mask-type:alpha" maskUnits="userSpaceOnUse" x="0" y="0" width="76" height="76">
<path fill-rule="evenodd" clip-rule="evenodd" d="M75.7195 37.9995C75.7195 58.8312 58.832 75.7191 37.9999 75.7191C17.1677 75.7191 0.280273 58.8312 0.280273 37.9995C0.280273 17.1673 17.1677 0.279907 37.9999 0.279907C58.832 0.279907 75.7195 17.1673 75.7195 37.9995Z" fill="white"/>
</mask>
<g mask="url(#mask0_154_1511)">
<path fill-rule="evenodd" clip-rule="evenodd" d="M31.5527 43.1315C31.5527 43.1315 34.3278 41.3184 33.8343 33.8309C33.8343 33.8309 38.2231 35.8849 43.0111 32.412L44.1155 43.045C44.1155 43.045 40.7959 46.8157 37.3151 46.45C33.8343 46.0844 31.5527 43.1315 31.5527 43.1315Z" fill="#D96E05"/>
<path fill-rule="evenodd" clip-rule="evenodd" d="M33.9409 33.6032C36.7783 34.9311 39.7416 34.4729 42.8637 32.2085C43.0203 32.0949 43.2411 32.1934 43.2611 32.3859L44.3655 43.0189C44.3728 43.0886 44.3505 43.1582 44.3042 43.2109C42.0418 45.7807 39.7003 46.9531 37.2889 46.6997C34.8988 46.4487 32.9162 45.3069 31.354 43.285C31.2643 43.1689 31.2927 43.0011 31.4154 42.921C33.1662 41.7771 33.9072 38.7565 33.5836 33.8473C33.5711 33.6566 33.7677 33.5222 33.9409 33.6032ZM43.8538 42.9603L42.805 32.8638L42.5978 33.0043C39.7188 34.9092 36.9255 35.3391 34.2411 34.2797L34.1096 34.2261L34.1161 34.3414C34.3499 38.8491 33.6544 41.7799 31.9883 43.1248L31.9141 43.1824L32.0335 43.3269C33.4176 44.967 35.1137 45.9138 37.1315 46.1754L37.3414 46.2C39.5711 46.4342 41.7633 45.3366 43.927 42.8788L43.8538 42.9603Z" fill="black"/>
<path fill-rule="evenodd" clip-rule="evenodd" d="M37.3241 34.5226C32.2522 34.5226 28.1406 30.1627 28.1406 24.7839C28.1406 19.405 32.2522 15.0447 37.3241 15.0447C42.3959 15.0447 46.5075 19.405 46.5075 24.7839C46.5075 30.1627 42.3959 34.5226 37.3241 34.5226Z" fill="#D96E05"/>
<path fill-rule="evenodd" clip-rule="evenodd" d="M37.3241 15.2959C32.399 15.2959 28.3919 19.5522 28.3919 24.7839C28.3919 30.0155 32.399 34.2713 37.3241 34.2713C42.2492 34.2713 46.2563 30.0155 46.2563 24.7839C46.2563 19.5522 42.2492 15.2959 37.3241 15.2959ZM37.3241 34.7738C32.1216 34.7738 27.8894 30.2924 27.8894 24.7839C27.8894 19.2748 32.1216 14.7935 37.3241 14.7935C42.5266 14.7935 46.7588 19.2748 46.7588 24.7839C46.7588 30.2924 42.5266 34.7738 37.3241 34.7738Z" fill="black"/>
<path fill-rule="evenodd" clip-rule="evenodd" d="M36.2675 29.0522C36.1904 29.0141 36.1021 29.0295 36.0374 29.0902C34.7334 30.3108 33.405 29.3143 33.3491 29.2711C33.2445 29.1904 33.1039 29.2228 33.0347 29.3441C32.9651 29.4649 32.9926 29.6278 33.0964 29.7079C33.1114 29.7203 34.509 30.78 35.9563 29.7943C35.9328 30.2615 35.825 30.9588 35.4158 31.3418C35.0469 31.6861 34.4833 31.7216 33.738 31.444C33.6182 31.4009 33.491 31.4759 33.4524 31.6146C33.4143 31.7529 33.4799 31.9009 33.5992 31.9456C33.9761 32.0854 34.3184 32.1553 34.6265 32.1553C35.0544 32.1553 35.4144 32.0191 35.7027 31.7498C36.5424 30.9625 36.4116 29.3374 36.4059 29.2685C36.3974 29.1724 36.3442 29.0892 36.2675 29.0522ZM32.414 21.1052C32.3718 21.1104 31.4487 21.0888 30.6267 21.9069C30.5313 22.0015 30.5207 22.1675 30.6023 22.2775C30.6471 22.3386 30.7109 22.3695 30.7748 22.3695C30.8271 22.3695 30.8798 22.3484 30.9224 22.3063C31.6092 21.6223 32.3932 21.6361 32.4038 21.6315C32.5306 21.612 32.6321 21.5189 32.6348 21.374C32.6375 21.228 32.5386 21.1088 32.414 21.1052ZM37.7923 21.9075C36.9707 21.0888 36.0458 21.1088 36.0059 21.1052C35.8804 21.1088 35.782 21.228 35.7847 21.374C35.7873 21.5189 35.8929 21.611 36.0161 21.6315C36.0179 21.6191 36.8102 21.6233 37.4966 22.3058C37.5396 22.3484 37.5919 22.3695 37.6447 22.3695C37.7085 22.3695 37.7719 22.3386 37.8167 22.278C37.8983 22.1675 37.8877 22.0015 37.7923 21.9075ZM31.9404 23.5592C31.6824 23.5592 31.4731 23.9447 31.4731 24.4211C31.4731 24.897 31.6824 25.283 31.9404 25.283C32.1989 25.283 32.4082 24.897 32.4082 24.4211C32.4082 23.9447 32.1989 23.5592 31.9404 23.5592ZM36.479 23.5592C36.2205 23.5592 36.0112 23.9447 36.0112 24.4211C36.0112 24.897 36.2205 25.283 36.479 25.283C36.7371 25.283 36.9464 24.897 36.9464 24.4211C36.9464 23.9447 36.7371 23.5592 36.479 23.5592ZM33.1957 27.5977L34.5871 27.7936C34.5964 27.7951 34.6052 27.7956 34.6146 27.7956C34.7276 27.7956 34.8261 27.6969 34.8398 27.5638C34.8549 27.4194 34.7662 27.2883 34.6416 27.2709L33.5087 27.1121L33.8643 25.5461C33.8958 25.4058 33.8236 25.2619 33.7025 25.2249C33.5819 25.1884 33.4573 25.2722 33.4254 25.4125L33.0037 27.2698C32.9869 27.3439 32.9984 27.4215 33.0352 27.4847C33.072 27.5474 33.1305 27.5885 33.1957 27.5977Z" fill="black"/>
<path fill-rule="evenodd" clip-rule="evenodd" d="M59.8301 11.2468C46.8628 2.57091 37.0663 10.7805 37.0663 10.7805C26.4305 10.4076 25.696 19.1403 25.696 19.1403H29.4334C29.4334 19.1403 26.7714 20.6692 26.8649 26.9194C26.9538 32.8925 32.0305 32.6307 31.4602 41.4624C31.4064 42.294 31.7079 43.1146 32.2989 43.7026C32.2989 43.7026 33.7653 42.8398 34.207 41.4624C34.7753 39.69 35.3286 34.2543 35.3286 34.2543C31.4858 32.99 28.6938 29.1905 28.6938 24.6985C28.6938 22.7734 29.092 20.6659 29.9805 19.1403L44.2507 19.4563C42.105 21.3222 42.012 24.7734 42.8517 26.5186C43.6914 28.2644 42.8517 30.1629 42.8517 35.7754C42.8517 39.2091 44.2839 44.4312 46.0568 45.389C50.9085 48.0101 48.1688 56.1186 48.1688 56.1186H92.6678C92.6678 56.1186 94.0668 40.1664 83.0588 36.8081C63.701 30.9021 72.7975 19.9227 59.8301 11.2468Z" fill="#EE7A08"/>
<path fill-rule="evenodd" clip-rule="evenodd" d="M39.9723 8.86181C39.1447 9.25166 38.413 9.66955 37.7844 10.088C37.6075 10.2055 37.4487 10.3165 37.309 10.4192L37.0804 10.5921C32.3104 10.4475 29.1044 12.0748 27.1918 14.8788C26.551 15.8184 26.1056 16.8239 25.8206 17.8295C25.7207 18.182 25.6479 18.5096 25.598 18.8044L25.5722 18.9665C25.558 19.0633 25.5495 19.1369 25.5455 19.1851L25.5226 19.4574L28.8376 19.4571L28.7739 19.5257C28.5374 19.7849 28.2825 20.1281 28.03 20.567C27.169 22.0635 26.6713 24.1707 26.7135 26.989C26.7441 29.0447 27.243 30.3231 28.4903 32.1553L29.0777 32.9995C30.8967 35.6191 31.5601 37.6276 31.3092 41.5121C31.2505 42.4201 31.5821 43.3106 32.2215 43.9467L32.359 44.0834L32.5261 43.9849C33.5547 43.3794 34.2316 42.5844 34.5462 41.605C34.912 40.4628 35.2688 38.2312 35.6211 34.896L35.699 34.1447L35.507 34.0814C31.6967 32.8276 29.0449 29.0709 29.0449 24.7644L29.047 24.5207C29.0794 22.6541 29.4826 20.8289 30.2018 19.5027L30.225 19.4606L43.7532 19.7601L43.7236 19.7931C42.1432 21.5927 41.7869 24.567 42.6603 26.5533L42.815 26.8861C43.1608 27.6565 43.1422 28.1034 42.8874 31.3151C42.7633 32.8834 42.7 34.2281 42.7 35.8412C42.7 39.6794 44.2774 44.7251 46.0372 45.6759C47.713 46.5814 48.5648 48.2327 48.7502 50.4372C48.8638 51.7884 48.7191 53.2427 48.4085 54.6739C48.3417 54.9799 48.2713 55.2658 48.2005 55.5276L48.105 55.8653C48.0789 55.9533 48.0573 56.0226 48.0412 56.0714L47.9186 56.4357H92.9975L93.0291 56.0563C93.0346 55.9724 93.0412 55.8643 93.0472 55.7347C93.1864 52.8452 92.9186 49.4236 91.909 46.1472C90.4598 41.4462 87.7367 38.0945 83.4547 36.704L83.2316 36.6337C78.1919 35.096 74.8588 33.1553 72.6326 30.6739L72.4 30.4095C70.9598 28.7387 70.1482 27.1318 69.0145 24.0557L68.2638 21.9843C67.9115 21.0242 67.6985 20.4889 67.3914 19.7885C65.8241 16.2088 63.7035 13.5351 60.0693 11.1038C52.7336 6.19563 45.8552 6.09005 39.9723 8.86181ZM59.7899 11.5215C63.2578 13.8415 65.304 16.3737 66.8236 19.7476L66.9311 19.99C67.3055 20.8444 67.5397 21.4522 68.0703 22.9233L68.2663 23.4687C69.6346 27.2806 70.4954 29.0447 72.2583 31.0095C74.5512 33.5648 77.9633 35.5518 83.0849 37.1141C87.3161 38.405 89.9995 41.6593 91.4286 46.2955C92.3834 49.3915 92.6623 52.6342 92.5583 55.405L92.5331 55.9332H48.6085L48.6306 55.8573C48.7221 55.5357 48.814 55.1744 48.8995 54.7809C49.2201 53.3045 49.3693 51.803 49.2507 50.3955C49.0522 48.0362 48.1211 46.2307 46.2759 45.2337C44.7306 44.399 43.2025 39.5106 43.2025 35.8412C43.2025 34.4201 43.2522 33.2101 43.3497 31.8658L43.5045 29.8397C43.6432 27.8926 43.6045 27.4284 43.301 26.7404L43.1779 26.4756C42.2316 24.5086 42.6864 21.302 44.515 19.7118L45.0055 19.2854L30.4602 18.9631L30.4751 18.9549L30.0858 18.9546L29.9377 18.9517L29.9355 18.9546H26.0823L26.0934 18.8884C26.1404 18.611 26.2093 18.301 26.304 17.9666C26.5751 17.0102 26.9988 16.0537 27.607 15.162C29.4021 12.5301 32.3977 10.99 36.9095 11.0903L37.2537 11.1008L37.4145 10.9691C37.4417 10.9481 37.4733 10.9237 37.51 10.8959L37.7105 10.7488C37.8176 10.6723 37.9351 10.5912 38.0623 10.5064C38.6718 10.1011 39.3819 9.69532 40.1864 9.31643C45.9191 6.61558 52.611 6.71829 59.7899 11.5215ZM29.6642 19.446L29.6828 19.4099L29.6319 19.4402C29.5637 19.4842 29.4506 19.572 29.3057 19.7114C29.0213 19.985 28.7348 20.3496 28.4655 20.8176C27.6516 22.2322 27.1751 24.2502 27.2159 26.9815C27.2459 28.9935 27.7438 30.2015 29.0395 32.0673L29.6114 32.8889C31.4001 35.5126 32.0638 37.6246 31.8107 41.5442C31.7671 42.2191 31.9789 42.8809 32.3975 43.3935L32.4426 43.4462L32.5678 43.3643C33.2789 42.8814 33.7603 42.292 34.0186 41.593L34.0673 41.4513C34.401 40.4111 34.7351 38.3789 35.0653 35.3658L35.1578 34.4935L34.9985 34.4352C31.2275 33.0256 28.6223 29.2688 28.5442 24.9635L28.5424 24.7644C28.5424 22.8193 28.9315 20.893 29.6642 19.446Z" fill="black"/>
<path fill-rule="evenodd" clip-rule="evenodd" d="M92.0728 71.2741L85.4155 61.5656C76.9627 49.2369 62.9758 41.8681 48.0276 41.8681H44.3999L44.7085 38.948C44.7693 38.3746 44.3195 37.8756 43.7431 37.8756H34.8984C34.7085 38.2409 34.4904 38.5465 34.2879 38.7791C33.6004 39.5686 32.4532 39.149 31.4894 38.5455C31.4401 38.6967 31.423 38.861 31.4557 39.0304L32.0044 41.8681H30.0477C29.8421 42.7183 29.518 43.6862 29.0075 44.7932C26.5577 50.1038 18.4632 54.4419 18.4632 54.4419C18.4632 54.4419 15.4607 68.6801 9.34113 80.2731L6.2356 98.4651H70.1688L67.007 79.946L65.5406 68.9862L67.0311 71.9666C67.1467 72.1982 67.3833 72.3445 67.6426 72.3445H91.509C92.0592 72.3445 92.3838 71.7274 92.0728 71.2741Z" fill="#409B81"/>
<path fill-rule="evenodd" clip-rule="evenodd" d="M92.2854 71.1284L85.6281 61.4198C77.1231 49.0163 63.0673 41.6113 48.0276 41.6113H44.6859L44.9643 38.9751C45.001 38.6294 44.8884 38.2831 44.6562 38.0248C44.4236 37.766 44.0909 37.6178 43.7432 37.6178H32.4085C32.0406 37.6178 31.6954 37.7811 31.4618 38.064C31.2276 38.3485 31.1336 38.7178 31.203 39.0791L31.6929 41.6113H29.9361C29.9401 41.7831 29.9296 41.9555 29.903 42.1253H32.0045C32.0813 42.1253 32.1542 42.0912 32.203 42.0324C32.2517 41.9726 32.2713 41.8947 32.2567 41.8193L31.708 38.9816C31.6678 38.7716 31.7221 38.557 31.8582 38.3917C31.9944 38.2268 32.1949 38.1329 32.4085 38.1329H43.7432C43.9482 38.1329 44.1366 38.2163 44.2733 38.3691C44.4105 38.5208 44.4738 38.7178 44.4527 38.9208L44.1442 41.8409C44.1366 41.9138 44.1602 41.9861 44.209 42.0399C44.2577 42.0942 44.3271 42.1253 44.3999 42.1253H48.0276C62.8974 42.1253 76.7949 49.4469 85.2035 61.7108L91.8608 71.4193C91.9517 71.5525 91.9613 71.7168 91.8864 71.8595C91.8115 72.0022 91.6703 72.0866 91.509 72.0866H67.6427C67.4799 72.0866 67.3341 71.9967 67.2613 71.851L65.7708 68.8711C65.715 68.7585 65.5849 68.7017 65.4653 68.7404C65.3452 68.7771 65.2693 68.8957 65.2859 69.0203L66.7537 79.9892L69.8638 98.2078H6.54065L9.34316 81.7907C9.16929 81.7982 8.99642 81.7877 8.82708 81.757L5.98236 98.4213C5.96929 98.4967 5.9899 98.5726 6.03914 98.6304C6.08789 98.6887 6.15974 98.7218 6.23562 98.7218H70.1688C70.2452 98.7218 70.3165 98.6887 70.3658 98.6304C70.4145 98.5726 70.4356 98.4967 70.4226 98.4213L67.2623 79.9118L66.0005 70.4801L66.8009 72.0811C66.9613 72.4017 67.2839 72.6017 67.6427 72.6017H91.509C91.8592 72.6017 92.1783 72.4093 92.3417 72.0992C92.505 71.7892 92.4834 71.4173 92.2854 71.1284Z" fill="black"/>
<path fill-rule="evenodd" clip-rule="evenodd" d="M33.6391 41.755C33.4969 41.755 33.3818 41.6399 33.3818 41.4977V39.1676C33.3818 39.0248 33.4969 38.9103 33.6391 38.9103C33.7813 38.9103 33.8964 39.0248 33.8964 39.1676V41.4977C33.8964 41.6399 33.7813 41.755 33.6391 41.755Z" fill="black"/>
<path fill-rule="evenodd" clip-rule="evenodd" d="M35.3764 41.755C35.2342 41.755 35.1191 41.6399 35.1191 41.4977V39.1676C35.1191 39.0248 35.2342 38.9103 35.3764 38.9103C35.5186 38.9103 35.6337 39.0248 35.6337 39.1676V41.4977C35.6337 41.6399 35.5186 41.755 35.3764 41.755Z" fill="black"/>
<path fill-rule="evenodd" clip-rule="evenodd" d="M37.1146 41.755C36.9724 41.755 36.8573 41.6399 36.8573 41.4977V39.1676C36.8573 39.0248 36.9724 38.9103 37.1146 38.9103C37.2568 38.9103 37.3719 39.0248 37.3719 39.1676V41.4977C37.3719 41.6399 37.2568 41.755 37.1146 41.755Z" fill="black"/>
<path fill-rule="evenodd" clip-rule="evenodd" d="M38.8527 41.755C38.7105 41.755 38.5955 41.6399 38.5955 41.4977V39.1676C38.5955 39.0248 38.7105 38.9103 38.8527 38.9103C38.995 38.9103 39.11 39.0248 39.11 39.1676V41.4977C39.11 41.6399 38.995 41.755 38.8527 41.755Z" fill="black"/>
<path fill-rule="evenodd" clip-rule="evenodd" d="M40.5899 41.755C40.4477 41.755 40.3326 41.6399 40.3326 41.4977V39.1676C40.3326 39.0248 40.4477 38.9103 40.5899 38.9103C40.7321 38.9103 40.8472 39.0248 40.8472 39.1676V41.4977C40.8472 41.6399 40.7321 41.755 40.5899 41.755Z" fill="black"/>
<path fill-rule="evenodd" clip-rule="evenodd" d="M42.3281 41.755C42.1859 41.755 42.0708 41.6399 42.0708 41.4977V39.1676C42.0708 39.0248 42.1859 38.9103 42.3281 38.9103C42.4703 38.9103 42.5854 39.0248 42.5854 39.1676V41.4977C42.5854 41.6399 42.4703 41.755 42.3281 41.755Z" fill="black"/>
<path fill-rule="evenodd" clip-rule="evenodd" d="M89.2618 72.3444H68.2407C68.2407 72.3444 75.9743 84.9766 68.2623 89.3304C60.5507 93.6836 25.7015 82.1711 25.7015 82.1711C25.7015 82.1711 16.2482 79.061 15.502 83.0414C15.4196 83.4811 15.4221 83.8751 15.4919 84.2283C15.4919 84.2283 12.6723 83.5856 11.3196 81.9062H8.4472C15.1688 70.066 18.4633 54.4419 18.4633 54.4419C18.4633 54.4419 26.5578 50.1037 29.007 44.7932C31.4567 39.4826 29.7954 37.2042 29.7954 37.2042C29.7954 37.2042 32.9341 40.3339 34.2879 38.7791C35.6412 37.2238 37.7241 32.462 26.914 27.7766C16.1035 23.0897 8.61303 36.2103 6.29644 40.9203C3.97986 45.6309 -8.54627 72.3444 -8.54627 72.3444H-14.983C-14.983 72.3444 -23.0994 89.4153 -12.9307 93.7997C-6.19451 96.7042 -0.569382 93.7746 3.97283 88.4334C6.707 89.9922 10.7995 91.6947 16.9165 93.3806C16.9165 93.3806 24.4266 95.853 27.5985 97.5324C30.7703 99.2118 66.0949 115.972 83.913 102.819C101.731 89.665 89.2618 72.3444 89.2618 72.3444Z" fill="#D96E05"/>
<path fill-rule="evenodd" clip-rule="evenodd" d="M83.7608 102.611C65.3683 116.191 28.0874 97.4998 27.7191 97.3043C24.5643 95.6349 17.0728 93.1611 16.9854 93.1324C3.84319 89.5108 0.227613 85.8068 -0.757814 83.9214C-1.20455 83.0661 -1.19903 82.444 -1.16134 82.1636H2.62057C2.606 82.2515 2.60198 82.352 2.61756 82.4656C2.74821 83.4178 4.09997 84.5314 6.63565 85.7751C11.6341 88.2289 17.8532 90.1098 17.9156 90.1284C17.9407 90.1359 17.9653 90.1399 17.9899 90.1399C18.1005 90.1399 18.2025 90.0676 18.2362 89.956C18.2774 89.8209 18.2 89.6766 18.0638 89.6364C18.0025 89.6178 11.8231 87.7485 6.86178 85.3133C3.79193 83.8068 3.20651 82.8535 3.13113 82.4183C3.11002 82.2972 3.12962 82.2163 3.15274 82.1636H11.199C12.4482 83.6254 14.695 84.2877 15.2889 84.4425C16.0326 87.2907 20.7593 87.5193 20.9527 87.5259L24.4975 87.8374C24.505 87.8385 24.5125 87.8385 24.5201 87.8385C24.6522 87.8385 24.7643 87.7369 24.7764 87.6038C24.7889 87.4626 24.6839 87.3374 24.5422 87.3249L20.9854 87.0128C20.9382 87.0113 16.2598 86.7917 15.7442 84.1781C15.6784 83.8435 15.6819 83.4776 15.7547 83.0882C15.8603 82.5244 16.1603 82.1043 16.6703 81.8028C19.1738 80.3214 25.5568 82.3937 25.6211 82.4148C25.708 82.444 34.4542 85.3234 44.0301 87.6329C56.9372 90.746 65.1331 91.3917 68.3889 89.5545C70.0834 88.5977 71.1854 87.1761 71.6643 85.3284C72.9161 80.5028 69.6191 74.2319 68.6899 72.6013H89.1271C89.602 73.3008 92.2201 77.3515 93.0151 82.6867C94.1814 90.5133 91.0678 97.2173 83.7608 102.611ZM89.4703 72.1937C89.4226 72.1269 89.3442 72.0867 89.2618 72.0867H68.2407C68.1477 72.0867 68.0623 72.1369 68.0166 72.2188C67.9713 72.2998 67.9728 72.3988 68.0216 72.4781C68.0668 72.553 72.5316 79.9374 71.1663 85.2003C70.7236 86.9068 69.704 88.2209 68.1362 89.1063C60.611 93.356 26.1296 82.0405 25.7819 81.9264C25.5105 81.8369 19.112 79.7606 16.4085 81.3596C15.7723 81.7359 15.3819 82.2857 15.2492 82.9942C15.1919 83.2998 15.1718 83.5962 15.1889 83.8797C14.402 83.6475 12.5196 82.9862 11.5196 81.7455C11.4713 81.6842 11.3975 81.649 11.3196 81.649H-1.36736C-1.4744 81.649 -1.57088 81.7153 -1.60807 81.8158C-1.62214 81.852 -1.93973 82.7344 -1.23923 84.1098C-0.621637 85.3234 0.738161 86.8415 3.56379 88.4982C1.79444 90.5415 -0.133192 92.2138 -2.22415 93.2967C-5.60756 95.0485 -9.1749 95.1395 -12.8287 93.5636C-14.8819 92.6781 -16.3161 91.1842 -17.092 89.1219C-19.3694 83.0741 -15.3925 73.8726 -14.8181 72.6013H-8.54626C-8.44626 72.6013 -8.35581 72.5435 -8.3136 72.453C-8.18797 72.1862 4.23816 45.6882 6.52711 41.0334C9.18691 35.6274 16.4849 23.5344 26.8115 28.0123C31.6382 30.1043 34.4839 32.5098 35.0407 34.9686C35.4548 36.7977 34.5166 38.1244 34.0939 38.6098C33.9015 38.8304 33.6598 38.943 33.3553 38.954C31.9894 38.9791 29.997 37.0415 29.9769 37.0219L27.496 34.5374C27.4507 34.4922 27.3929 34.4706 27.3341 34.4666C25.0176 31.5882 20.7095 30.2857 20.6472 30.2676C20.511 30.2269 20.3683 30.3063 20.3286 30.442C20.2879 30.5781 20.3663 30.7208 20.5025 30.7611C20.5864 30.7852 28.905 33.2987 28.2191 38.9671C27.7397 42.9319 26.81 45.3535 25.601 45.7852C24.9879 46.0048 24.2603 45.7173 23.4397 44.9314C23.4266 44.9183 23.4105 44.9128 23.396 44.9033C23.9573 43.251 23.9743 40.9289 23.4427 37.9475C22.6749 33.6405 16.6733 33.4399 16.613 33.4384C16.4678 33.4299 16.3527 33.5475 16.3497 33.6892C16.3457 33.8309 16.4578 33.9485 16.6 33.9525C16.6563 33.9545 22.2422 34.144 22.9387 38.05C23.9407 43.6711 22.9462 46.7962 20.0045 47.3339C19.4809 47.3786 18.0377 47.3379 17.6311 46.5852C17.6196 46.5636 17.6025 46.5475 17.5864 46.5304C18.6161 44.8691 19.2316 42.4786 19.3603 40.7771C19.6477 36.9751 13.8748 36.0882 13.6291 36.052C13.4879 36.0319 13.3583 36.1289 13.3372 36.2691C13.3166 36.4103 13.414 36.541 13.5547 36.5616C13.61 36.5691 19.0985 37.4133 18.8472 40.7379C18.6598 43.2219 17.3532 47.1822 15.4819 47.8465C14.7286 48.1163 13.9291 47.8088 13.106 46.9384C10.7814 44.4832 14.3693 40.4003 14.4055 40.3595C14.5 40.2535 14.4904 40.0907 14.3849 39.9962C14.2784 39.9023 14.1161 39.9118 14.0216 40.0168C13.9633 40.0827 13.4301 40.6897 12.9 41.5681C12.8814 41.5294 12.8563 41.4932 12.8186 41.4671C12.3909 41.1716 12.5909 40.0832 12.6944 39.7254C12.7341 39.5892 12.6552 39.4465 12.5191 39.4073C12.3829 39.3686 12.2402 39.4455 12.2005 39.5822C12.1487 39.7595 11.7186 41.3334 12.5261 41.8902C12.5708 41.9214 12.6216 41.9359 12.6718 41.9359C12.6784 41.9359 12.6839 41.9319 12.6904 41.9314C11.8427 43.4716 11.1703 45.642 12.7321 47.2922C13.4668 48.0686 14.205 48.458 14.9357 48.458C15.1764 48.458 15.416 48.4158 15.6542 48.3309C16.2698 48.1128 16.8135 47.6204 17.2854 46.9766C17.8377 47.743 19.0482 47.8585 19.6804 47.8585C19.898 47.8585 20.0462 47.846 20.0738 47.8435C21.5497 47.5741 22.5889 46.7555 23.195 45.4033C23.8975 46.0465 24.5633 46.3731 25.1839 46.3731C25.3854 46.3731 25.5824 46.3389 25.7743 46.2701C27.2166 45.754 28.211 43.3178 28.7301 39.0284C28.8618 37.9399 28.6884 36.9636 28.3196 36.0912L29.596 37.3686C29.6884 37.5063 31.0683 39.7113 28.7738 44.6862C26.3889 49.8555 18.4221 54.1716 18.3417 54.2148C18.2748 54.251 18.2271 54.3148 18.2115 54.3887C18.1698 54.5877 15.4894 67.0304 10.1603 78.0349C10.2904 78.1857 10.401 78.3455 10.4849 78.5173C15.6764 67.9133 18.4005 55.9269 18.6899 54.6113C19.6914 54.0611 26.9065 49.9616 29.2407 44.9008C30.815 41.4892 30.7291 39.2897 30.4372 38.1113C31.207 38.7259 32.3728 39.5143 33.3733 39.4681C33.8221 39.452 34.195 39.2771 34.4819 38.9475C34.9558 38.4028 36.009 36.9143 35.5427 34.8545C34.9397 32.1922 32.0713 29.7309 27.0161 27.5394C22.2764 25.4852 17.6427 26.5269 13.2442 30.6364C9.73967 33.9113 7.24218 38.4138 6.0658 40.8063C3.86379 45.2837 -7.70003 69.9344 -8.71008 72.0867H-14.9829C-15.0824 72.0867 -15.1729 72.144 -15.2156 72.2339C-15.4156 72.655 -20.0885 82.6214 -17.5739 89.3028C-16.7473 91.5008 -15.2191 93.0932 -13.0322 94.0359C-11.2352 94.8113 -9.45681 95.1982 -7.70807 95.1982C-5.75932 95.1982 -3.84676 94.7163 -1.98747 93.7535C0.185398 92.6279 2.18289 90.8852 4.01153 88.7555C6.7849 90.3108 10.8643 91.9792 16.8367 93.6249C16.9115 93.6495 24.3618 96.1098 27.4784 97.7601C27.7502 97.9033 47.998 108.054 66.1357 108.053C72.7497 108.053 79.0849 106.703 84.0663 103.025C101.883 89.8726 89.5965 72.3691 89.4703 72.1937Z" fill="black"/>
<path fill-rule="evenodd" clip-rule="evenodd" d="M26.4331 78.3876L17.4532 50.1072H-25.3706L-15.274 81.9062H33.6391V78.3876H26.4331Z" fill="#EFF2F7"/>
<path fill-rule="evenodd" clip-rule="evenodd" d="M-15.086 81.649H33.3819V78.6449H26.4331C26.3205 78.6449 26.2216 78.5726 26.1879 78.4655L17.2648 50.3645H-25.0193L-15.086 81.649ZM33.6386 82.163H-15.2744C-15.3865 82.163 -15.4855 82.0912 -15.5192 81.9841L-25.6163 50.1851C-25.6409 50.1063 -25.6268 50.0213 -25.5781 49.9555C-25.5304 49.8892 -25.453 49.85 -25.3711 49.85H17.4532C17.5653 49.85 17.6643 49.9223 17.6984 50.0294L26.621 78.1304H33.6386C33.7813 78.1304 33.8964 78.246 33.8964 78.3877V81.9063C33.8964 82.0485 33.7813 82.163 33.6386 82.163Z" fill="black"/>
<path fill-rule="evenodd" clip-rule="evenodd" d="M27.423 82.1635C27.313 82.1635 27.211 82.0926 27.1768 81.9821L23.4833 69.9474C23.4416 69.8122 23.518 69.6685 23.6542 69.6268C23.7904 69.5826 23.9336 69.6605 23.9753 69.7971L27.6687 81.8313C27.7105 81.9665 27.6341 82.1107 27.4984 82.1524C27.4733 82.16 27.4476 82.1635 27.423 82.1635Z" fill="black"/>
</g>
<path fill-rule="evenodd" clip-rule="evenodd" d="M38 0.560803C17.3563 0.560803 0.561305 17.3558 0.561305 38C0.561305 58.6437 17.3563 75.4387 38 75.4387C58.6437 75.4387 75.4387 58.6437 75.4387 38C75.4387 17.3558 58.6437 0.560803 38 0.560803ZM38 76C17.0467 76 0 58.9533 0 38C0 17.0467 17.0467 0 38 0C58.9533 0 76 17.0467 76 38C76 58.9533 58.9533 76 38 76Z" fill="black"/>
</svg>
