<svg width="76" height="76" viewBox="0 0 76 76" fill="none" xmlns="http://www.w3.org/2000/svg">
<path fill-rule="evenodd" clip-rule="evenodd" d="M75.7196 37.9995C75.7196 58.8312 58.8322 75.7191 38 75.7191C17.1678 75.7191 0.280396 58.8312 0.280396 37.9995C0.280396 17.1673 17.1678 0.279907 38 0.279907C58.8322 0.279907 75.7196 17.1673 75.7196 37.9995Z" fill="#EEF2F8"/>
<mask id="mask0_154_1959" style="mask-type:alpha" maskUnits="userSpaceOnUse" x="0" y="0" width="76" height="76">
<path fill-rule="evenodd" clip-rule="evenodd" d="M75.7196 37.9995C75.7196 58.8312 58.8322 75.7191 38 75.7191C17.1678 75.7191 0.280396 58.8312 0.280396 37.9995C0.280396 17.1673 17.1678 0.279907 38 0.279907C58.8322 0.279907 75.7196 17.1673 75.7196 37.9995Z" fill="white"/>
</mask>
<g mask="url(#mask0_154_1959)">
<path fill-rule="evenodd" clip-rule="evenodd" d="M31.5527 43.1313C31.5527 43.1313 34.3278 41.3183 33.8343 33.8308C33.8343 33.8308 38.2231 35.8847 43.0111 32.4119L44.1155 43.0449C44.1155 43.0449 40.7959 46.8156 37.3151 46.4499C33.8343 46.0842 31.5527 43.1313 31.5527 43.1313Z" fill="#D96E05"/>
<path fill-rule="evenodd" clip-rule="evenodd" d="M33.9409 33.6032C36.7783 34.9311 39.7416 34.4729 42.8637 32.2085C43.0203 32.0949 43.2411 32.1934 43.2611 32.3859L44.3655 43.0189C44.3728 43.0886 44.3505 43.1582 44.3042 43.2109C42.0418 45.7807 39.7003 46.9531 37.2889 46.6997C34.8988 46.4487 32.9162 45.3069 31.354 43.285C31.2643 43.1689 31.2927 43.0011 31.4154 42.921C33.1662 41.7771 33.9072 38.7565 33.5836 33.8473C33.5711 33.6566 33.7677 33.5222 33.9409 33.6032ZM43.8538 42.9603L42.805 32.8638L42.5978 33.0043C39.7188 34.9092 36.9255 35.3391 34.2411 34.2797L34.1096 34.2261L34.1161 34.3414C34.3499 38.8491 33.6544 41.7799 31.9883 43.1248L31.9141 43.1824L32.0335 43.3269C33.4176 44.967 35.1137 45.9138 37.1315 46.1754L37.3414 46.2C39.5711 46.4342 41.7633 45.3366 43.927 42.8788L43.8538 42.9603Z" fill="black"/>
<path fill-rule="evenodd" clip-rule="evenodd" d="M37.3241 34.5226C32.2522 34.5226 28.1406 30.1628 28.1406 24.7839C28.1406 19.405 32.2522 15.0447 37.3241 15.0447C42.3959 15.0447 46.5075 19.405 46.5075 24.7839C46.5075 30.1628 42.3959 34.5226 37.3241 34.5226Z" fill="#D96E05"/>
<path fill-rule="evenodd" clip-rule="evenodd" d="M37.3241 15.2959C32.399 15.2959 28.3919 19.5522 28.3919 24.7839C28.3919 30.0155 32.399 34.2713 37.3241 34.2713C42.2492 34.2713 46.2563 30.0155 46.2563 24.7839C46.2563 19.5522 42.2492 15.2959 37.3241 15.2959ZM37.3241 34.7738C32.1216 34.7738 27.8894 30.2924 27.8894 24.7839C27.8894 19.2748 32.1216 14.7935 37.3241 14.7935C42.5266 14.7935 46.7588 19.2748 46.7588 24.7839C46.7588 30.2924 42.5266 34.7738 37.3241 34.7738Z" fill="black"/>
<path fill-rule="evenodd" clip-rule="evenodd" d="M34.7899 27.8113C34.779 27.8113 34.7687 27.8108 34.7578 27.8092L33.1346 27.613C33.0585 27.6037 32.9902 27.5625 32.9473 27.4997C32.9044 27.4358 32.8909 27.358 32.9106 27.2844L33.402 25.4229C33.4398 25.2823 33.5841 25.1978 33.7258 25.2354C33.8671 25.272 33.9514 25.4167 33.9141 25.5568L33.4998 27.1257L34.8214 27.2854C34.9668 27.3034 35.0703 27.4348 35.0527 27.5795C35.0361 27.7129 34.9218 27.8113 34.7899 27.8113Z" fill="black"/>
<path fill-rule="evenodd" clip-rule="evenodd" d="M37.5103 24.4291C37.5103 24.9066 37.2661 25.2928 36.965 25.2928C36.6635 25.2928 36.4193 24.9066 36.4193 24.4291C36.4193 23.9521 36.6635 23.5653 36.965 23.5653C37.2661 23.5653 37.5103 23.9521 37.5103 24.4291Z" fill="black"/>
<path fill-rule="evenodd" clip-rule="evenodd" d="M32.2158 24.4291C32.2158 24.9066 31.9716 25.2928 31.67 25.2928C31.3689 25.2928 31.1248 24.9066 31.1248 24.4291C31.1248 23.9521 31.3689 23.5653 31.67 23.5653C31.9716 23.5653 32.2158 23.9521 32.2158 24.4291Z" fill="black"/>
<path fill-rule="evenodd" clip-rule="evenodd" d="M38.3251 22.3732C38.2636 22.3732 38.2025 22.3521 38.1529 22.3094C37.35 21.6243 36.4365 21.6305 36.4251 21.6331C36.2761 21.6423 36.1582 21.5198 36.1551 21.3745C36.1525 21.2288 36.2673 21.1093 36.4132 21.1056C36.4577 21.1025 37.5362 21.0881 38.4974 21.9102C38.6086 22.0044 38.621 22.1708 38.5258 22.2816C38.4736 22.3418 38.3996 22.3732 38.3251 22.3732Z" fill="black"/>
<path fill-rule="evenodd" clip-rule="evenodd" d="M30.3098 22.3734C30.2353 22.3734 30.1614 22.342 30.1091 22.2812C30.0139 22.171 30.0263 22.0046 30.1375 21.9098C31.0987 21.0888 32.1757 21.1037 32.2223 21.1058C32.3681 21.1094 32.483 21.2289 32.4798 21.3746C32.4773 21.5199 32.3531 21.6435 32.2104 21.6332C32.2052 21.6404 31.2854 21.6239 30.4821 22.31C30.4324 22.3523 30.3714 22.3734 30.3098 22.3734Z" fill="black"/>
<path fill-rule="evenodd" clip-rule="evenodd" d="M34.8175 30.8983C33.7953 30.8983 33.0307 30.3987 33.0189 30.3909C32.8978 30.309 32.8658 30.1468 32.9464 30.0257C33.0282 29.9042 33.1921 29.8722 33.3137 29.9526C33.3789 29.9964 34.9282 30.9951 36.4501 29.7713C36.5639 29.6796 36.7299 29.6982 36.822 29.811C36.9141 29.9237 36.8965 30.0906 36.7827 30.1813C36.1056 30.7262 35.4175 30.8983 34.8175 30.8983Z" fill="black"/>
<path fill-rule="evenodd" clip-rule="evenodd" d="M31.5527 43.1313C31.5527 43.1313 34.3278 41.3183 33.8343 33.8308C33.8343 33.8308 38.2231 35.8847 43.0111 32.4119L44.1155 43.0449C44.1155 43.0449 40.7959 46.8156 37.3151 46.4499C33.8343 46.0842 31.5527 43.1313 31.5527 43.1313Z" fill="#D96E05"/>
<path fill-rule="evenodd" clip-rule="evenodd" d="M33.9409 33.6032C36.7783 34.9311 39.7416 34.4729 42.8637 32.2085C43.0203 32.0949 43.2411 32.1934 43.2611 32.3859L44.3655 43.0189C44.3728 43.0886 44.3505 43.1582 44.3042 43.2109C42.0418 45.7807 39.7003 46.9531 37.2889 46.6997C34.8988 46.4487 32.9162 45.3069 31.354 43.285C31.2643 43.1689 31.2927 43.0011 31.4154 42.921C33.1662 41.7771 33.9072 38.7565 33.5836 33.8473C33.5711 33.6566 33.7677 33.5222 33.9409 33.6032ZM43.8538 42.9603L42.805 32.8638L42.5978 33.0043C39.7188 34.9092 36.9255 35.3391 34.2411 34.2797L34.1096 34.2261L34.1161 34.3414C34.3499 38.8491 33.6544 41.7799 31.9883 43.1248L31.9141 43.1824L32.0335 43.3269C33.4176 44.967 35.1137 45.9138 37.1315 46.1754L37.3414 46.2C39.5711 46.4342 41.7633 45.3366 43.927 42.8788L43.8538 42.9603Z" fill="black"/>
<path fill-rule="evenodd" clip-rule="evenodd" d="M49.9321 24.0107C49.4733 28.2218 47.098 32.2788 43.212 32.2788L43.013 27.8559C43.0713 27.862 43.1276 27.8735 43.1879 27.8735C44.1794 27.8735 44.9839 27.0735 44.9914 26.0836C44.9939 25.7037 44.8191 25.3373 44.5728 25.0474C43.9075 24.267 43.3522 24.2062 42.8527 24.3001L42.3668 20.0464C42.2613 19.1202 41.4774 18.4207 40.5447 18.4207H29.6893C29.6893 18.4207 27.4803 6.21924 30.0089 6.6504C32.5371 7.08205 32.323 8.77753 34.3583 6.56849C36.3934 4.35994 38.1211 5.57452 39.2924 7.11673C40.4643 8.65793 43.0522 3.94436 44.8929 5.66748C47.1713 7.80014 46.0683 9.46648 50.0145 8.80869C52.3407 8.42175 49.9839 23.7514 49.9321 24.0107Z" fill="#4B69FD"/>
<path fill-rule="evenodd" clip-rule="evenodd" d="M43.2823 28.1291L43.4577 32.0166C47.1451 31.8432 49.2632 27.7718 49.6763 23.9828C49.6778 23.9763 49.6788 23.9683 49.6798 23.9612C49.8708 22.9602 51.6401 10.5482 50.2642 9.13962C50.1813 9.0552 50.116 9.05269 50.0567 9.06274C47.3497 9.515 46.8406 8.8964 46.112 7.66927C45.7929 7.13309 45.4316 6.52505 44.7165 5.8557C43.9567 5.14465 43.0311 5.74565 41.806 6.67329C40.8165 7.42354 39.7939 8.20093 39.0869 7.27279C38.2838 6.215 37.4743 5.65922 36.6813 5.62203C35.9818 5.58937 35.2627 5.96625 34.5472 6.74213C33.1517 8.25721 32.6547 8.08083 31.7493 7.57429C31.3312 7.34012 30.8106 7.04867 29.9654 6.90444C29.8167 6.88032 29.7056 6.9155 29.5996 7.02304C28.4418 8.19238 29.3945 15.2627 29.9046 18.1632H40.5451C41.6085 18.1632 42.5014 18.9602 42.6225 20.017L43.0788 24.012C43.5381 23.9899 44.119 24.1195 44.7683 24.8808C45.0808 25.2482 45.2512 25.6758 45.2482 26.0864C45.2401 27.1818 44.3673 28.0793 43.2823 28.1291ZM43.2115 32.5367C43.0738 32.5367 42.9607 32.4287 42.9552 32.291L42.7557 27.8673C42.7522 27.7929 42.7818 27.7205 42.8361 27.6693C42.8904 27.6175 42.9612 27.5924 43.0396 27.5999L43.106 27.609C43.1326 27.6125 43.1602 27.6165 43.1879 27.6165C44.0341 27.6165 44.7276 26.9286 44.7336 26.0818C44.7361 25.7954 44.609 25.4874 44.3763 25.2145C43.7718 24.5039 43.309 24.4748 42.8999 24.5532C42.8291 24.5658 42.7572 24.5497 42.6999 24.5075C42.6426 24.4652 42.6044 24.4004 42.5969 24.3291L42.111 20.0758C42.02 19.2788 41.3467 18.6773 40.5451 18.6773H29.689C29.5644 18.6773 29.4579 18.5889 29.4358 18.4663C29.2478 17.4271 27.6443 8.26726 29.2337 6.66073C29.4574 6.4351 29.7378 6.34364 30.0518 6.39691C30.984 6.5562 31.5714 6.88535 32.0006 7.12555C32.7376 7.53761 32.9869 7.67731 34.1683 6.39389C34.9924 5.49992 35.8557 5.05319 36.7054 5.10796C37.6582 5.15319 38.5969 5.77731 39.4974 6.96123C39.8532 7.42957 40.4055 7.08987 41.4959 6.26324C42.5813 5.44063 43.9331 4.4165 45.0688 5.48032C45.8366 6.19942 46.2346 6.86826 46.5542 7.40696C47.1924 8.47982 47.4838 8.97027 49.9723 8.5552C50.2215 8.51449 50.4507 8.59289 50.6346 8.78233C52.3155 10.5145 50.2738 23.5276 50.1869 24.0457C49.7386 28.1371 47.3657 32.5367 43.2115 32.5367Z" fill="black"/>
<path fill-rule="evenodd" clip-rule="evenodd" d="M69.5146 73.1871C69.5146 73.1871 68.0523 72.5273 65.8055 71.4585L65.4493 68.7967L74.498 75.7168L69.5146 73.1871ZM96.103 79.5535C94.8081 73.3102 90.3357 67.0082 85.2317 61.5484L85.2372 61.5459C76.7839 49.2178 62.8844 41.6786 47.9362 41.6786H44.3091C43.3377 43.7243 40.9327 45.1766 38.1106 45.1851C35.289 45.1766 32.8839 43.7243 31.9131 41.6786H28.2854C23.9372 41.6786 19.5372 42.2831 15.2749 43.4439C4.51609 46.3736 -4.39094 53.5605 -9.77738 63.0379C-9.77888 63.0404 -9.78039 63.0424 -9.7824 63.0439C-11.908 65.8273 -13.1548 69.3806 -13.8653 72.9675C-13.8688 72.9801 -13.8723 72.9911 -13.8754 73.0037C-13.8754 73.0037 -13.8764 73.0148 -13.8764 73.0183C-15.4663 81.1022 -14.3321 89.3454 -14.3311 89.3545L-14.3316 89.3535L-15.5121 82.6555L-30.1162 85.4339C-30.1292 85.4057 -32.1564 85.8489 -32.1564 85.8489C-31.7689 87.7183 -31.3463 89.5766 -30.8735 91.3846C-28.3197 101.149 -22.8232 106.25 -14.8517 106.692C3.17087 107.69 8.37237 80.1359 8.37237 80.1359L10.7724 68.7967L9.30554 79.7575L6.14424 98.2756H70.0779L69.4236 94.4454C72.0166 95.9208 74.3623 97.0138 76.3261 97.9625C87.396 103.311 99.7312 97.0474 96.103 79.5535Z" fill="#FF5613"/>
<path fill-rule="evenodd" clip-rule="evenodd" d="M66.0417 71.2862C68.1899 72.3063 69.606 72.9465 69.6201 72.9525C69.6236 72.9546 69.6276 72.9561 69.6306 72.9576L72.1165 74.2199L65.7864 69.3787L66.0417 71.2862ZM74.4974 75.9737C74.4582 75.9737 74.4181 75.9651 74.3814 75.946L69.403 73.4194C69.3025 73.3737 67.8502 72.7164 65.6949 71.6907C65.616 71.6536 65.5618 71.5792 65.5502 71.4928L65.1939 68.8309C65.1804 68.7279 65.2301 68.6264 65.3195 68.5747C65.41 68.5219 65.5221 68.5284 65.605 68.5922L74.6537 75.5118C74.7593 75.5928 74.7859 75.741 74.715 75.8541C74.6668 75.9304 74.5834 75.9737 74.4974 75.9737ZM-31.8529 86.046C-31.4458 87.9912 -31.0438 89.7189 -30.6252 91.3194C-28.1167 100.908 -22.8051 105.994 -14.8377 106.435C2.74969 107.417 8.06728 80.3616 8.11904 80.0882L10.5206 68.7435C10.5492 68.6088 10.6809 68.5199 10.816 68.543C10.9522 68.5666 11.0457 68.6937 11.0271 68.8309L9.56025 79.7917L6.44919 98.0184H69.7723L69.1703 94.4887C69.1532 94.3912 69.1944 94.2917 69.2758 94.235C69.3572 94.1777 69.4648 94.1721 69.5507 94.2224C71.7995 95.5013 73.8467 96.4852 75.6527 97.353L76.4376 97.7309C81.9045 100.372 87.7276 100.118 91.6356 97.0696C95.9854 93.6752 97.4824 87.4731 95.8507 79.6063C94.7331 74.2164 91.0969 68.1998 85.0432 61.7244C85.0216 61.7008 85.0045 61.6737 84.9929 61.645C76.508 49.3023 62.6598 41.9365 47.9361 41.9365H44.4683C43.3788 44.0626 40.904 45.434 38.111 45.443C35.317 45.434 32.8427 44.0626 31.7527 41.9365H28.2849C23.9763 41.9365 19.6221 42.5274 15.3427 43.6922C4.79241 46.5651 -4.0498 53.4802 -9.55433 63.1651C-9.56136 63.1787 -9.57393 63.1953 -9.58398 63.2078C-11.4513 65.6536 -12.8091 68.9566 -13.6136 73.0179C-13.6136 73.0345 -13.6207 73.052 -13.6242 73.0686C-15.1764 80.9601 -14.1227 88.9807 -14.0769 89.3184C-14.0578 89.4576 -14.1538 89.5867 -14.292 89.6078C-14.4312 89.6319 -14.5604 89.537 -14.585 89.3993L-15.7202 82.9571L-30.0685 85.6867C-30.087 85.6902 -30.1056 85.6912 -30.1247 85.6912C-30.2755 85.7108 -31.074 85.8777 -31.8529 86.046ZM-13.9126 106.975C-14.2272 106.975 -14.5433 106.967 -14.8659 106.949C-23.082 106.494 -28.5514 101.279 -31.1227 91.45C-31.5614 89.7726 -31.982 87.9576 -32.4087 85.9013C-32.4373 85.7631 -32.3494 85.6279 -32.2112 85.5978C-30.9755 85.3279 -30.4247 85.2073 -30.1624 85.1907L-30.1644 85.1812L-15.5599 82.4028C-15.4925 82.3912 -15.4227 82.4048 -15.3659 82.444C-15.3091 82.4827 -15.2709 82.543 -15.2589 82.6108L-14.9528 84.348C-15.0443 81.2425 -14.9372 77.0812 -14.1292 72.9691C-14.1277 72.951 -14.1232 72.9319 -14.1181 72.9144C-13.298 68.7787 -11.9081 65.4043 -9.98699 62.8882C-4.4287 53.1063 4.52407 46.1048 15.2075 43.1958C19.5306 42.0184 23.9306 41.4214 28.2849 41.4214H31.9125C32.012 41.4214 32.1025 41.4792 32.1452 41.5681C33.11 43.6008 35.4517 44.9199 38.111 44.9284C40.7693 44.9199 43.111 43.6008 44.0763 41.5681C44.119 41.4792 44.2095 41.4214 44.3085 41.4214H47.9361C62.8477 41.4214 76.8713 48.8907 85.4492 61.4003C85.4517 61.4053 85.4547 61.4093 85.4572 61.4139C91.5537 67.9445 95.2196 74.0294 96.3547 79.5018C98.0281 87.5701 96.4648 93.953 91.9522 97.4747C87.8889 100.646 81.8582 100.921 76.214 98.1943L75.4301 97.8169C73.7432 97.0068 71.8467 96.0948 69.7683 94.935L70.3306 98.2324C70.3437 98.3068 70.3231 98.3837 70.2738 98.4415C70.2251 98.4988 70.1532 98.533 70.0773 98.533H6.14417C6.06829 98.533 5.99643 98.4988 5.94719 98.4415C5.89844 98.3837 5.87784 98.3068 5.8904 98.2324L9.05171 79.7144L9.61452 75.5053L8.62356 80.1892C8.57281 80.4566 3.36226 106.974 -13.9126 106.975Z" fill="black"/>
<path fill-rule="evenodd" clip-rule="evenodd" d="M31.3995 78.2092L22.2101 40.3776L-29.5221 52.9429L-20.3326 90.7751L-20.196 90.7414L-20.5935 115.527L-17.4437 114.761L-17.0457 89.9766L28.2493 78.9745L39.9724 100.815L43.1226 100.05L31.3995 78.2092Z" fill="#FCBD21"/>
<path fill-rule="evenodd" clip-rule="evenodd" d="M-29.2118 53.1319L-20.1438 90.4641L31.0884 78.0194L22.0206 40.6872L-29.2118 53.1319ZM-20.3332 91.0319C-20.4493 91.0319 -20.5543 90.9535 -20.583 90.8354L-29.7726 53.0033C-29.7886 52.9369 -29.7776 52.8676 -29.7424 52.8088C-29.7067 52.7505 -29.6494 52.7088 -29.5831 52.6927L22.1492 40.1269C22.2889 40.0942 22.4261 40.1786 22.4598 40.3163L31.6492 78.148C31.6653 78.2148 31.6547 78.2847 31.619 78.343C31.5834 78.4008 31.5266 78.4425 31.4598 78.459L-20.2719 91.0249C-20.2925 91.0294 -20.3131 91.0319 -20.3332 91.0319Z" fill="black"/>
<path fill-rule="evenodd" clip-rule="evenodd" d="M-15.5718 55.5705L11.0196 49.1112L9.70206 43.6876L-16.8894 50.1464L-15.5718 55.5705Z" fill="#EEF2F8"/>
<path fill-rule="evenodd" clip-rule="evenodd" d="M-16.5789 50.3359L-15.383 55.26L10.7085 48.9223L9.51251 43.9977L-16.5789 50.3359ZM-15.5724 55.8279C-15.688 55.8279 -15.7935 55.7485 -15.8222 55.6314L-17.1397 50.2073C-17.1558 50.1409 -17.1448 50.0711 -17.1096 50.0123C-17.0739 49.9545 -17.0166 49.9128 -16.9503 49.8962L9.64066 43.4369C9.78036 43.4068 9.91805 43.4882 9.95171 43.6264L11.2693 49.0505C11.2854 49.1168 11.2743 49.1867 11.2391 49.245C11.2035 49.3032 11.1462 49.345 11.0804 49.362L-15.5111 55.8208C-15.5317 55.8254 -15.5523 55.8279 -15.5724 55.8279Z" fill="black"/>
<path fill-rule="evenodd" clip-rule="evenodd" d="M-6.85624 87.5017L19.7352 81.0424L18.4176 75.6188L-8.17383 82.0776L-6.85624 87.5017Z" fill="#EEF2F8"/>
<path fill-rule="evenodd" clip-rule="evenodd" d="M-7.86286 82.2671L-6.66738 87.1912L19.4241 80.8535L18.2286 75.9289L-7.86286 82.2671ZM-6.85632 87.7591C-6.90306 87.7591 -6.94979 87.7465 -6.99049 87.7214C-7.04828 87.6862 -7.08999 87.6289 -7.10657 87.5626L-8.42366 82.1384C-8.45733 82.0003 -8.37241 81.8606 -8.23472 81.8274L18.3567 75.3681C18.4231 75.3535 18.4929 75.3626 18.5512 75.3987C18.61 75.4339 18.6517 75.4912 18.6673 75.5575L19.9849 80.9817C20.0186 81.1199 19.9336 81.259 19.7959 81.2932L-6.79552 87.752C-6.81562 87.7565 -6.83622 87.7591 -6.85632 87.7591Z" fill="black"/>
<path fill-rule="evenodd" clip-rule="evenodd" d="M33.2724 49.0318C34.3518 50.6776 35.4744 52.3886 36.688 54.0218C41.8438 60.959 54.0845 66.3514 54.0845 66.3514L48.6744 81.3755C48.6744 81.3755 38.8443 74.0821 34.6257 73.4263C32.6779 73.1233 30.1679 74.7268 27.7865 76.2479C25.0111 78.0208 22.4106 79.6826 21.0764 78.0856C18.5905 75.1097 24.3332 70.7836 25.8382 69.7283C24.0191 70.9509 15.5342 76.3856 13.2211 72.9886C10.987 69.7072 19.6272 65.9268 19.6272 65.9268C19.6272 65.9268 10.4438 69.9389 9.25079 65.6228C8.05481 61.2936 19.9086 59.0836 19.9086 59.0836L13.8845 59.1363C9.69653 58.9253 9.93271 56.8057 9.93271 56.8057C9.79803 51.5152 25.8247 51.7178 25.8247 51.7178C25.8247 51.7178 16.9458 41.1544 22.4397 39.961C26.7141 39.0323 29.7674 43.6876 33.2724 49.0318ZM-25.3257 63.1183L-14.5985 61.7273C-13.2985 61.5655 -12.0944 62.4348 -11.8387 63.7198C-11.5899 64.9705 -12.3231 66.2082 -13.5397 66.5916L-23.6458 69.6831L-15.3794 68.7364C-14.0608 68.5972 -12.8532 69.4856 -12.5949 70.7866C-12.307 72.2313 -13.2934 73.6208 -14.7527 73.8263L-22.8764 75.0158C-22.719 76.8233 -19.8512 76.5982 -17.5542 76.4178C-16.8397 76.3615 -16.1804 76.3097 -15.6748 76.3248C-14.7276 76.3529 -13.9291 77.0333 -13.7442 77.963C-13.5658 78.858 -13.9974 79.7715 -14.816 80.175C-15.8894 80.7042 -17.7567 81.3961 -20.9165 82.0243C-21.189 82.0781 -21.4654 82.1017 -21.7423 82.1233H-21.7428C-21.8699 82.1328 -21.998 82.1364 -22.1262 82.1394C-22.283 82.7152 -22.2659 83.3454 -22.0518 83.9002L-30.1161 85.4343C-30.1242 85.4173 -30.9086 85.5811 -31.5026 85.7082C-32.1323 82.6766 -32.6706 79.6188 -33.1836 76.7052C-33.593 74.3801 -33.9862 72.1459 -34.397 70.0896C-34.3684 70.1414 -34.3324 70.1921 -34.2965 70.2429C-34.2859 70.2575 -34.2753 70.2725 -34.2649 70.2876C-34.6669 69.1499 -35.0247 67.9353 -35.3307 66.6429V66.6424C-35.3597 66.5203 -35.3874 66.3972 -35.4151 66.2735C-35.4398 66.1635 -35.4644 66.0539 -35.49 65.9449C-35.5114 65.8469 -35.5343 65.7509 -35.5572 65.6554C-35.5889 65.5233 -35.6204 65.3916 -35.6478 65.2539C-36.395 61.4972 -35.5237 58.0811 -34.1212 55.2992C-33.9453 54.9519 -33.7619 54.6137 -33.5719 54.2861C-32.2423 51.9951 -30.6101 50.2183 -29.4021 49.1519C-27.9684 47.8871 -25.7071 48.4725 -25.0267 50.2595L-24.9584 50.4384C-24.5609 51.4841 -24.8573 52.6429 -25.6518 53.4308C-27.3312 55.0961 -28.2769 57.9695 -28.2769 57.9695L-17.9135 56.1801C-16.615 55.9559 -15.3748 56.8077 -15.1175 58.0997C-14.8678 59.3564 -15.6371 60.5911 -16.8753 60.9213L-25.3257 63.1183Z" fill="#D96E05"/>
<path fill-rule="evenodd" clip-rule="evenodd" d="M48.5492 80.9641C46.8869 79.751 38.5482 73.7756 34.6653 73.1721C34.4894 73.1445 34.31 73.1319 34.1276 73.1319C32.1864 73.1319 29.8829 74.6043 27.6482 76.0314C24.9809 77.7349 22.4618 79.3425 21.2739 77.9204C20.8131 77.3691 20.6412 76.754 20.7482 76.041C21.1206 73.552 24.7839 70.7882 25.9653 69.955C26.1724 69.8148 26.302 69.7249 26.3377 69.6998C26.3502 69.6907 26.3578 69.6781 26.3683 69.6676C26.9412 69.3063 27.596 68.9616 28.2296 68.7781C28.3663 68.7384 28.4452 68.5957 28.406 68.4595C28.3658 68.3239 28.2246 68.2445 28.0869 68.2842C27.0402 68.5867 25.9759 69.2706 25.2452 69.8108C23.2442 71.1093 17.9306 74.3058 14.9497 73.7716C14.2708 73.648 13.7754 73.345 13.4342 72.844C13.1105 72.3686 13.0296 71.8721 13.1869 71.3254C13.9347 68.7259 19.6729 66.1877 19.7306 66.1626C19.7407 66.158 19.7477 66.15 19.7568 66.144C21.2331 65.4595 23.4412 64.5606 25.8834 63.9962C26.0216 63.9641 26.1075 63.8259 26.0759 63.6877C26.0437 63.549 25.9075 63.4631 25.7668 63.4947C23.206 64.0867 20.903 65.0389 19.402 65.743C18.5412 66.1013 13.2502 68.2078 10.7105 66.9972C10.0809 66.6972 9.68441 66.2249 9.49949 65.554C9.33969 64.9776 9.42963 64.4289 9.77436 63.8771C11.6206 60.9219 19.8728 59.352 19.9563 59.3364C19.994 59.3294 20.0271 59.3128 20.0568 59.2912C20.3583 59.2611 20.6864 59.2264 21.0512 59.1872C21.9713 59.0897 23.1166 58.9681 24.5121 58.8475C24.6533 58.8359 24.7583 58.7113 24.7462 58.5696C24.7337 58.4274 24.6115 58.3254 24.4678 58.3354C23.0673 58.4555 21.9191 58.5776 20.997 58.6756C20.4035 58.7389 19.904 58.7922 19.4779 58.8304L13.8975 58.8791C11.8563 58.7761 10.9548 58.2103 10.5583 57.7535C10.1527 57.2867 10.1869 56.8505 10.1899 56.7992C10.1734 56.1525 10.4191 55.5802 10.9402 55.0525C13.8693 52.0857 24.1382 51.9746 25.6387 51.9746C25.7643 51.9746 25.8171 51.9746 25.8251 51.9751C25.9246 51.9751 26.0151 51.9178 26.0573 51.8284C26.1005 51.7369 26.0869 51.6294 26.0221 51.5525C25.9618 51.4807 19.9995 44.3364 21.0161 41.358C21.2211 40.758 21.7045 40.3837 22.494 40.2118C26.594 39.3269 29.5899 43.8862 33.0568 49.1721C34.1417 50.8259 35.2633 52.5359 36.4819 54.1751C41.2382 60.5746 52.0844 65.7183 53.7623 66.4872L48.5492 80.9641ZM54.1884 66.1158C54.0663 66.0626 41.9497 60.6701 36.895 53.8686C35.6849 52.241 34.5678 50.5374 33.4874 48.8902C29.9156 43.4455 26.8281 38.7374 22.3854 39.7093C21.4176 39.9193 20.7935 40.4183 20.5296 41.1917C19.5603 44.0309 23.9764 49.8319 25.2819 51.4595C22.8844 51.4736 13.506 51.7214 10.5744 54.6907C9.95777 55.3153 9.65577 56.0294 9.67687 56.7771C9.67436 56.8043 9.61103 57.4339 10.1537 58.0721C10.8221 58.858 12.0728 59.3023 13.8869 59.3927L17.5548 59.3616C14.8779 60.0651 10.6713 61.4706 9.33817 63.6043C8.91908 64.2756 8.80602 64.9781 9.00351 65.6907C9.22763 66.5028 9.72762 67.0987 10.4894 67.4616C12.0839 68.2224 14.5643 67.8193 16.5548 67.2696C14.912 68.2887 13.1201 69.6977 12.6924 71.1827C12.4929 71.8761 12.5995 72.5324 13.009 73.1329C13.4256 73.746 14.0482 74.1309 14.8578 74.2776C17.0713 74.6822 20.3417 73.239 22.8291 71.8686C21.606 73.0641 20.4538 74.5319 20.2392 75.9641C20.111 76.8194 20.3261 77.5887 20.8789 78.2505C22.3578 80.0209 25.0623 78.2932 27.9251 76.4651C30.2894 74.954 32.7342 73.3892 34.5864 73.6807C38.694 74.3194 48.4236 81.5098 48.5211 81.5817C48.5658 81.6153 48.6201 81.6324 48.6749 81.6324C48.6995 81.6324 48.7246 81.6294 48.7487 81.6219C48.8271 81.5982 48.8889 81.5395 48.9166 81.4626L54.3266 66.4384C54.3724 66.3113 54.3121 66.1706 54.1884 66.1158ZM-13.6151 66.345L-23.721 69.4369C-23.8481 69.4761 -23.925 69.6053 -23.8974 69.7349C-23.8707 69.8656 -23.7476 69.947 -23.6164 69.9389L-15.3528 68.9922C-14.1528 68.8686 -13.0814 69.6595 -12.8473 70.8369C-12.7221 71.4656 -12.8578 72.0993 -13.2287 72.6224C-13.6 73.145 -14.1538 73.4822 -14.7895 73.5716L-22.9134 74.7611C-23.0481 74.7812 -23.1446 74.9023 -23.1325 75.0379C-22.9531 77.0998 -19.9483 76.8626 -17.5342 76.6741C-16.8347 76.6194 -16.1729 76.5631 -15.6824 76.5817C-14.8523 76.6073 -14.1593 77.1952 -13.9965 78.0128C-13.8397 78.8018 -14.2236 79.5957 -14.9302 79.9445C-15.9025 80.4239 -17.7392 81.1299 -20.9669 81.7716C-21.2165 81.8219 -21.4747 81.8445 -21.7627 81.8671C-27.3682 82.3038 -32.8471 76.0204 -35.0803 66.5837L-35.2386 65.8887C-35.2607 65.7877 -35.2843 65.6892 -35.3079 65.5897C-35.3386 65.4626 -35.3687 65.3359 -35.3953 65.2043C-36.0396 61.9646 -35.533 58.6716 -33.8913 55.4153C-33.718 55.0716 -33.5366 54.7384 -33.3491 54.4153C-31.8069 51.757 -29.9562 49.9842 -29.2315 49.345C-28.6195 48.8058 -27.8109 48.6093 -27.0144 48.8058C-26.2129 49.0033 -25.5602 49.5812 -25.2672 50.351L-25.1989 50.5304C-24.8481 51.4515 -25.0974 52.5183 -25.833 53.248C-27.5366 54.9374 -28.4818 57.7696 -28.521 57.8892C-28.5491 57.9751 -28.5305 58.0691 -28.4712 58.1369C-28.4124 58.2058 -28.322 58.2369 -28.233 58.2234L-17.8699 56.4339C-16.699 56.2309 -15.602 56.9852 -15.3699 58.15C-15.1473 59.2706 -15.8377 60.3781 -16.9402 60.6716L-25.3903 62.8686C-25.5215 62.9033 -25.6034 63.0334 -25.5778 63.1671C-25.5521 63.3008 -25.428 63.3902 -25.2923 63.3731L-14.5669 61.9827C-13.4055 61.8379 -12.3191 62.6229 -12.091 63.7701C-11.8674 64.8942 -12.5236 66.0018 -13.6151 66.345ZM-14.6317 61.4721L-21.2969 62.3364L-16.8091 61.1696C-15.4437 60.8058 -14.59 59.4354 -14.8653 58.0495C-15.1523 56.6093 -16.5096 55.6797 -17.9573 55.9264L-27.8828 57.6405C-27.5577 56.7977 -26.7149 54.8475 -25.4702 53.6133C-24.5903 52.7405 -24.2948 51.4585 -24.718 50.347L-24.7863 50.1681C-25.1396 49.2405 -25.926 48.5445 -26.8908 48.3058C-27.8551 48.0691 -28.8325 48.3068 -29.5717 48.9596C-30.3149 49.6148 -32.2139 51.4334 -33.7943 54.157C-33.9863 54.4892 -34.1727 54.8314 -34.3501 55.1827C-36.0456 58.545 -36.5667 61.95 -35.8999 65.3048C-35.8722 65.443 -35.8406 65.5766 -35.8084 65.7103C-35.7853 65.8053 -35.7622 65.9008 -35.7411 65.9988C-35.7411 66.0008 -35.7406 66.0018 -35.7401 66.0038L-35.5808 66.7023C-33.3652 76.0671 -27.9677 82.4023 -22.3104 82.4023C-22.1149 82.4023 -21.918 82.3952 -21.722 82.3792C-21.4175 82.356 -21.1431 82.3319 -20.8664 82.2761C-17.5839 81.6234 -15.7025 80.8988 -14.7025 80.4058C-13.7875 79.9545 -13.29 78.9294 -13.492 77.9123C-13.7015 76.8585 -14.596 76.0998 -15.6669 76.0676C-16.1865 76.0505 -16.8603 76.1048 -17.5744 76.1606C-19.6427 76.3239 -22.1903 76.5229 -22.5752 75.2319L-14.7166 74.0812C-13.9402 73.9721 -13.2633 73.5601 -12.8096 72.9209C-12.3553 72.2812 -12.1895 71.5058 -12.3427 70.7359C-12.6287 69.2962 -13.9493 68.3349 -15.4086 68.4807L-20.8885 69.1083L-13.4623 66.8364C-12.1181 66.4133 -11.3116 65.0525 -11.5864 63.6696C-11.8669 62.259 -13.201 61.2937 -14.6317 61.4721Z" fill="black"/>
<path fill-rule="evenodd" clip-rule="evenodd" d="M70.7955 95.4495C70.7528 95.4495 70.7091 95.4389 70.6694 95.4163C60.8226 89.863 48.0211 83.0736 47.893 83.0052C47.8317 82.9731 47.7865 82.9178 47.7669 82.851C47.7473 82.7841 47.7553 82.7128 47.789 82.6525C49.3468 79.8706 54.2146 65.1479 54.2638 64.9992C54.288 64.9268 54.3432 64.8686 54.4151 64.8399C54.4865 64.8118 54.5674 64.8178 54.6342 64.856L65.9312 71.2344C66.0553 71.3042 66.099 71.461 66.0292 71.5851C65.9588 71.7082 65.8025 71.7525 65.6784 71.6826L54.6538 65.458C53.9533 67.5696 49.9372 79.6002 48.3618 82.6716C50.1302 83.6108 61.794 89.8203 70.9221 94.968C71.0458 95.0379 71.0895 95.1947 71.0196 95.3188C70.9724 95.4022 70.8855 95.4495 70.7955 95.4495Z" fill="black"/>
<path fill-rule="evenodd" clip-rule="evenodd" d="M82.9156 82.1494C82.8372 82.1494 82.7603 82.1142 82.7101 82.0469C79.6669 78.0147 71.1207 74.2841 71.0347 74.2464C70.9046 74.1906 70.8448 74.0389 70.9011 73.9087C70.9573 73.7781 71.1076 73.7178 71.2392 73.7745C71.595 73.9288 79.9955 77.5962 83.1207 81.7379C83.2061 81.8504 83.1835 82.0122 83.0704 82.0977C83.0237 82.1323 82.9694 82.1494 82.9156 82.1494Z" fill="black"/>
</g>
<path fill-rule="evenodd" clip-rule="evenodd" d="M38 0.560803C17.3563 0.560803 0.561305 17.3558 0.561305 38C0.561305 58.6437 17.3563 75.4387 38 75.4387C58.6437 75.4387 75.4387 58.6437 75.4387 38C75.4387 17.3558 58.6437 0.560803 38 0.560803ZM38 76C17.0467 76 0 58.9533 0 38C0 17.0467 17.0467 0 38 0C58.9533 0 76 17.0467 76 38C76 58.9533 58.9533 76 38 76Z" fill="black"/>
</svg>
