<svg width="76" height="76" viewBox="0 0 76 76" fill="none" xmlns="http://www.w3.org/2000/svg">
<path fill-rule="evenodd" clip-rule="evenodd" d="M75.7195 37.9995C75.7195 58.8312 58.832 75.7191 37.9999 75.7191C17.1677 75.7191 0.280273 58.8312 0.280273 37.9995C0.280273 17.1673 17.1677 0.279907 37.9999 0.279907C58.832 0.279907 75.7195 17.1673 75.7195 37.9995Z" fill="#EEF2F8"/>
<mask id="mask0_154_1455" style="mask-type:alpha" maskUnits="userSpaceOnUse" x="0" y="0" width="76" height="76">
<path fill-rule="evenodd" clip-rule="evenodd" d="M75.7195 37.9995C75.7195 58.8312 58.832 75.7191 37.9999 75.7191C17.1677 75.7191 0.280273 58.8312 0.280273 37.9995C0.280273 17.1673 17.1677 0.279907 37.9999 0.279907C58.832 0.279907 75.7195 17.1673 75.7195 37.9995Z" fill="white"/>
</mask>
<g mask="url(#mask0_154_1455)">
<path fill-rule="evenodd" clip-rule="evenodd" d="M31.5527 43.1315C31.5527 43.1315 34.3278 41.3184 33.8343 33.8309C33.8343 33.8309 38.2231 35.8849 43.0111 32.412L44.1155 43.045C44.1155 43.045 40.7959 46.8157 37.3151 46.45C33.8343 46.0844 31.5527 43.1315 31.5527 43.1315Z" fill="#DCAD7F"/>
<path fill-rule="evenodd" clip-rule="evenodd" d="M33.9409 33.6032C36.7783 34.9311 39.7416 34.4729 42.8637 32.2085C43.0203 32.0949 43.2411 32.1934 43.2611 32.3859L44.3655 43.0189C44.3728 43.0886 44.3505 43.1582 44.3042 43.2109C42.0418 45.7807 39.7003 46.9531 37.2889 46.6997C34.8988 46.4487 32.9162 45.3069 31.354 43.285C31.2643 43.1689 31.2927 43.0011 31.4154 42.921C33.1662 41.7771 33.9072 38.7565 33.5836 33.8473C33.5711 33.6566 33.7677 33.5222 33.9409 33.6032ZM43.8538 42.9603L42.805 32.8638L42.5978 33.0043C39.7188 34.9092 36.9255 35.3391 34.2411 34.2797L34.1096 34.2261L34.1161 34.3414C34.3499 38.8491 33.6544 41.7799 31.9883 43.1248L31.9141 43.1824L32.0335 43.3269C33.4176 44.967 35.1137 45.9138 37.1315 46.1754L37.3414 46.2C39.5711 46.4342 41.7633 45.3366 43.927 42.8788L43.8538 42.9603Z" fill="black"/>
<path fill-rule="evenodd" clip-rule="evenodd" d="M37.3241 34.5226C32.2522 34.5226 28.1406 30.1627 28.1406 24.7839C28.1406 19.405 32.2522 15.0447 37.3241 15.0447C42.3959 15.0447 46.5075 19.405 46.5075 24.7839C46.5075 30.1627 42.3959 34.5226 37.3241 34.5226Z" fill="#DCAD7F"/>
<path fill-rule="evenodd" clip-rule="evenodd" d="M37.3241 15.2959C32.399 15.2959 28.3919 19.5522 28.3919 24.7839C28.3919 30.0155 32.399 34.2713 37.3241 34.2713C42.2492 34.2713 46.2563 30.0155 46.2563 24.7839C46.2563 19.5522 42.2492 15.2959 37.3241 15.2959ZM37.3241 34.7738C32.1216 34.7738 27.8894 30.2924 27.8894 24.7839C27.8894 19.2748 32.1216 14.7935 37.3241 14.7935C42.5266 14.7935 46.7588 19.2748 46.7588 24.7839C46.7588 30.2924 42.5266 34.7738 37.3241 34.7738Z" fill="black"/>
<path fill-rule="evenodd" clip-rule="evenodd" d="M32.1946 25.3989C31.4971 26.0127 30.6991 25.4139 30.6655 25.3881C30.5519 25.3009 30.3906 25.3242 30.3057 25.4412C30.2202 25.5572 30.2424 25.7218 30.3554 25.8099C30.5881 25.9905 31.0152 26.2019 31.4931 26.2019C31.8308 26.2019 32.1936 26.0962 32.5298 25.7996C32.6373 25.7048 32.6499 25.5382 32.5574 25.4278C32.4655 25.3174 32.3027 25.3051 32.1946 25.3989ZM37.8881 25.3989C37.1911 26.0127 36.3926 25.4139 36.3589 25.3881C36.2454 25.3009 36.0841 25.3242 35.9986 25.4412C35.9137 25.5572 35.9358 25.7218 36.0484 25.8099C36.281 25.9905 36.7082 26.2019 37.1861 26.2019C37.5238 26.2019 37.8866 26.0962 38.2233 25.7996C38.3308 25.7048 38.3429 25.5382 38.2509 25.4278C38.1584 25.3174 37.9951 25.3051 37.8881 25.3989ZM34.9775 29.9544C34.7534 30.2773 34.5207 30.4439 34.2866 30.4495C33.8986 30.4578 33.5906 30.0565 33.5856 30.0508C33.4981 29.9369 33.3373 29.9157 33.2248 30.0045C33.1127 30.0942 33.0921 30.2592 33.1795 30.3748C33.1981 30.3995 33.6424 30.9771 34.273 30.9771H34.2946C34.7016 30.9694 35.0725 30.728 35.3966 30.2613C35.479 30.1422 35.4519 29.9771 35.3363 29.8926C35.2202 29.8079 35.0599 29.8358 34.9775 29.9544ZM30.4856 22.9533C31.2052 22.2045 32.0946 22.1364 32.1037 22.1359C32.2454 22.1261 32.3524 22.0013 32.3439 21.8558C32.3353 21.7114 32.2167 21.5933 32.0725 21.6088C32.0283 21.6114 30.9826 21.6841 30.1192 22.582C30.0192 22.6851 30.0202 22.8527 30.1217 22.9554C30.1715 23.0059 30.2368 23.0317 30.3022 23.0317C30.3685 23.0317 30.4348 23.0049 30.4856 22.9533ZM37.4519 22.8868C37.88 22.8868 38.168 22.8027 38.1901 22.796C38.3268 22.7547 38.4042 22.6083 38.364 22.4675C38.3243 22.3287 38.1821 22.2503 38.0449 22.2895C38.0363 22.2916 37.1856 22.5407 36.2534 22.0817C36.1253 22.0188 35.9715 22.074 35.9102 22.206C35.8484 22.337 35.9027 22.4948 36.0308 22.5582C36.5584 22.8171 37.063 22.8868 37.4519 22.8868ZM34.6212 27.5527C34.7499 27.5527 34.8604 27.4541 34.8765 27.321C34.8936 27.1756 34.7931 27.0441 34.6519 27.0266L33.368 26.8667L33.7705 25.2958C33.8067 25.155 33.7248 25.0106 33.5871 24.9735C33.4514 24.9368 33.3097 25.0209 33.273 25.1617L32.7951 27.025C32.776 27.0988 32.7896 27.1772 32.8313 27.2406C32.873 27.3036 32.9393 27.3448 33.0132 27.3541L34.5901 27.5506C34.6006 27.5521 34.6112 27.5527 34.6212 27.5527Z" fill="black"/>
<path fill-rule="evenodd" clip-rule="evenodd" d="M65.3033 18.9322C66.0299 17.7563 65.6656 16.2136 64.4892 15.4875C64.3485 15.4006 64.2023 15.3307 64.0531 15.2749C64.1621 15.1875 64.2616 15.084 64.3395 14.9578C64.7043 14.3674 64.5214 13.5935 63.9309 13.2282C63.7124 13.094 63.4696 13.0347 63.2309 13.0423C63.2767 12.9905 63.3214 12.9362 63.3591 12.8754C63.7234 12.2845 63.541 11.5106 62.9505 11.1458C62.9068 11.1192 62.8611 11.1016 62.8159 11.0805C62.9857 10.9805 63.137 10.8433 63.248 10.6644C63.6129 10.0739 63.4299 9.29956 62.8395 8.93473C62.4139 8.67192 61.8943 8.69755 61.4998 8.95132C61.5189 8.9287 61.5445 8.91313 61.5601 8.887C61.742 8.59303 61.6506 8.2076 61.3571 8.02669C61.3013 7.99202 61.241 7.97644 61.1807 7.96137C61.7003 7.44428 61.8139 6.62066 61.4073 5.97443C60.936 5.22519 59.946 5.00006 59.1973 5.47192C59.1867 5.47896 59.1787 5.4875 59.1686 5.49453C59.1711 5.49252 59.1727 5.4875 59.1752 5.48549C59.6541 5.18448 59.7983 4.55132 59.4968 4.07242C59.236 3.65835 58.733 3.51514 58.2913 3.67242C58.444 3.47041 58.4686 3.19051 58.3259 2.96388C58.142 2.67142 57.7561 2.58398 57.4636 2.7674C57.1717 2.95132 57.0842 3.33775 57.2681 3.62971C57.2887 3.66237 57.0923 3.62971 56.75 3.55232C57.1465 3.03524 57.2063 2.30961 56.839 1.72619C56.3676 0.977448 55.3787 0.752322 54.6294 1.22418C54.0752 1.57242 53.8103 2.20509 53.8998 2.81363C53.735 2.7684 53.5681 2.72267 53.3998 2.67594C54.0284 1.8679 54.1274 0.726695 53.55 -0.190391C52.8139 -1.36024 51.2681 -1.7115 50.0978 -0.974813C49.9581 -0.886873 49.8315 -0.785869 49.7154 -0.676322C49.6847 -0.813508 49.636 -0.948179 49.5571 -1.07331C49.1872 -1.66024 48.4114 -1.83712 47.8239 -1.46728C47.6068 -1.33059 47.447 -1.13763 47.349 -0.920543C47.3224 -0.984864 47.2938 -1.04818 47.2551 -1.10899C46.8857 -1.69642 46.1098 -1.8723 45.5224 -1.50296C45.4792 -1.47582 45.4435 -1.44215 45.4043 -1.41049C45.3892 -1.60748 45.333 -1.80396 45.2209 -1.98185C44.851 -2.56929 44.0752 -2.74567 43.4877 -2.37582C43.4807 -2.3718 43.4752 -2.36527 43.4681 -2.36074C43.4917 -2.62456 43.4365 -2.89743 43.2847 -3.13964C42.9149 -3.72657 42.139 -3.90295 41.5515 -3.5331C41.3345 -3.39692 41.1747 -3.20446 41.0767 -2.98637C41.0495 -3.05069 41.0214 -3.11451 40.9827 -3.17532C40.6134 -3.76225 39.837 -3.93914 39.25 -3.56878C38.9948 -3.40848 38.8224 -3.16878 38.7335 -2.90346C38.2078 -3.22758 37.5129 -3.12708 37.1088 -2.63763C36.9742 -2.47481 36.8938 -2.28788 36.8536 -2.09441C36.8189 -2.13059 36.7877 -2.16828 36.7485 -2.20094C36.2129 -2.64265 35.4209 -2.56627 34.9797 -2.0311C34.934 -1.97532 34.8973 -1.91552 34.8626 -1.85572C34.7933 -2.08386 34.6591 -2.29491 34.4611 -2.45823C33.9254 -2.89994 33.1335 -2.82406 32.6923 -2.28838C32.5978 -2.17431 32.5317 -2.04667 32.484 -1.91502C32.383 -2.03813 32.2704 -2.15471 32.1428 -2.26024C31.0759 -3.13964 29.4985 -2.98788 28.6186 -1.92155C28.195 -1.40798 28.0161 -0.775317 28.0578 -0.159237C27.7377 -0.38185 27.4875 -0.557729 27.3679 -0.655719C26.685 -1.21954 25.6754 -1.12205 25.1126 -0.439638C24.5493 0.243779 24.6463 1.25283 25.3292 1.81614C25.3337 1.82016 25.3438 1.82569 25.3493 1.82971C25.1513 1.80358 25.0247 1.77091 25.0101 1.7277C24.899 1.40056 24.5438 1.22569 24.2171 1.33674C23.89 1.4478 23.7151 1.80308 23.8267 2.12971C23.8362 2.15885 23.8573 2.17946 23.8709 2.20609C23.5433 1.87041 23.0428 1.72971 22.5689 1.89051C21.9121 2.11413 21.5608 2.8277 21.784 3.48499C21.8518 3.68448 21.9689 3.85132 22.1121 3.9875C22.0634 3.99755 22.0146 4.00458 21.9664 4.02066C21.3096 4.24428 20.9578 4.95785 21.1815 5.61514C21.2046 5.68297 21.2357 5.74579 21.2689 5.80659C21.0382 5.74579 20.788 5.74931 20.5448 5.83172C19.888 6.05483 19.5362 6.7689 19.7598 7.42619C19.8347 7.64529 19.9669 7.82619 20.1307 7.9679C20.0166 7.96689 19.9015 7.98549 19.7975 8.04981C19.5036 8.23122 19.4131 8.61664 19.5945 8.91061C19.6106 8.93624 19.6357 8.95182 19.6548 8.97494C19.2603 8.72117 18.7407 8.69554 18.3151 8.95835C17.7247 9.32318 17.5417 10.097 17.9066 10.688C18.0171 10.8669 18.1684 11.0041 18.3387 11.1041C18.2935 11.1252 18.2473 11.1428 18.2041 11.1694C17.6136 11.5337 17.4307 12.3081 17.7955 12.8986C17.8332 12.9599 17.8779 13.0141 17.9237 13.0659C17.685 13.0584 17.4417 13.1177 17.2237 13.2518C16.6332 13.6171 16.4503 14.391 16.8151 14.9815C16.893 15.1076 16.992 15.2106 17.1015 15.2986C16.9523 15.3543 16.8061 15.4237 16.6654 15.5106C15.489 16.2372 15.1247 17.78 15.8513 18.9558C16.2036 19.5272 16.7498 19.9021 17.3523 20.0584C17.0498 20.2744 16.799 20.4528 16.6463 20.5473C15.8935 21.0126 15.6603 21.9996 16.1252 22.7528C16.4282 23.2428 16.9518 23.5076 17.488 23.5081C17.4855 23.8282 17.489 24.089 17.489 24.187C17.489 24.5322 17.7689 24.8121 18.1141 24.8121C18.1448 24.8121 18.1714 24.7991 18.2005 24.7945C17.7774 24.9965 17.483 25.4252 17.483 25.9257C17.483 26.6197 18.0453 27.182 18.7392 27.182C18.9503 27.182 19.1458 27.1252 19.3206 27.0332C19.3146 27.0825 19.3056 27.1307 19.3056 27.182C19.3056 27.8759 19.8679 28.4388 20.5624 28.4388C20.6337 28.4388 20.7031 28.4287 20.7719 28.4171C20.6397 28.6161 20.5624 28.8543 20.5624 29.1106C20.5624 29.8046 21.1247 30.3674 21.8186 30.3674C21.9669 30.3674 22.1071 30.3367 22.2387 30.29C22.2081 30.4463 22.19 30.6071 22.19 30.7724C22.19 32.1553 23.3111 33.2759 24.6935 33.2759C25.3327 33.2759 25.9101 33.0292 26.3523 32.6347C26.4036 32.9518 26.4417 33.2282 26.4417 33.4121C26.4417 34.2975 27.1593 35.0151 28.0443 35.0151C28.3845 35.0151 28.6985 34.9071 28.9583 34.7262C28.9307 34.8302 28.9111 34.9372 28.9111 35.0493C28.9111 35.7433 29.4734 36.3056 30.1679 36.3056C30.4076 36.3056 30.6297 36.2352 30.8206 36.1182C30.7382 36.5272 30.9141 36.9558 31.3021 37.1594C31.7468 37.393 32.2809 37.2352 32.5493 36.8222C32.5701 36.8352 32.5827 36.8558 32.6048 36.8674C33.0767 37.1151 33.6596 36.9337 33.9068 36.4624C34.048 36.1945 34.0375 35.8965 33.9269 35.6383H34.3325L34.7802 34.2413H34.7812C30.9372 32.9769 28.1458 29.1774 28.1458 24.6855C28.1458 21.7764 29.3237 19.1664 31.1925 17.3383C31.499 17.8634 32.0629 18.2202 32.7149 18.2202C33.3229 18.2202 33.8586 17.9136 34.1772 17.4463C34.3882 17.6081 34.6495 17.7076 34.9365 17.7076C35.4309 17.7076 35.8541 17.4197 36.0596 17.0046C36.2516 17.1237 36.4757 17.1955 36.7184 17.1955C36.9098 17.1955 37.0892 17.1493 37.2516 17.0734C37.3078 17.7151 37.8405 18.2202 38.4968 18.2202C39.1907 18.2202 39.7531 17.6579 39.7531 16.9639C39.7531 16.8609 39.7998 16.7372 39.8711 16.6031C40.2385 17.2594 40.9314 17.7076 41.736 17.7076C42.0978 17.7076 42.433 17.6101 42.732 17.4523C42.6395 17.691 42.5842 17.9488 42.5842 18.2202C42.5842 19.0704 43.0827 19.7991 43.7998 20.1458C43.3033 20.3131 42.943 20.778 42.943 21.3312C42.943 22.0252 43.5053 22.5875 44.1993 22.5875C44.351 22.5875 44.4943 22.5568 44.6289 22.5076C44.3651 22.8166 44.1993 23.2131 44.1993 23.6513C44.1993 23.8337 44.235 24.0066 44.2867 24.1724C44.2571 24.1704 44.2289 24.1634 44.1993 24.1634C43.5053 24.1634 42.943 24.7257 42.943 25.4197C42.943 25.8292 43.141 26.1885 43.444 26.4177C43.141 26.6478 42.943 27.0071 42.943 27.4161C42.943 27.8689 43.1842 28.2619 43.543 28.4835C43.1787 28.6207 42.9169 28.9669 42.9169 29.3795C42.9169 29.7609 43.143 30.0835 43.4646 30.2403C43.3279 30.4066 43.235 30.6111 43.235 30.8433C43.235 31.1242 43.3591 31.3714 43.55 31.5473C43.4505 31.5121 43.347 31.484 43.235 31.484C42.7023 31.484 42.2706 31.9156 42.2706 32.4478C42.2706 32.8523 42.5209 33.1965 42.8737 33.3398C42.7586 33.384 42.6581 33.4121 42.5842 33.4121C42.0516 33.4121 41.6194 33.8443 41.6194 34.3764C41.6194 34.9096 42.0516 35.3413 42.5842 35.3413C42.5948 35.3413 42.6093 35.3352 42.6209 35.3332C42.6088 35.3945 42.5842 35.4518 42.5842 35.5166C42.5842 36.0493 43.0159 36.4815 43.5485 36.4815C43.8179 36.4815 44.0606 36.3694 44.2355 36.1915C44.3214 36.6357 44.6943 36.9779 45.1636 36.9779C45.6048 36.9779 45.9606 36.6764 46.0757 36.2724C46.348 36.4855 46.6862 36.6171 47.0581 36.6171C47.9435 36.6171 48.6606 35.9001 48.6606 35.0151C48.6606 34.9991 48.6566 34.984 48.6561 34.9684C48.6566 34.9749 48.6606 34.9825 48.6606 34.9885C48.6606 35.5548 49.1194 36.0136 49.6857 36.0136C50.1747 36.0136 50.5641 35.6644 50.6666 35.2071C50.7556 35.4433 50.9797 35.6136 51.2475 35.6136C51.5928 35.6136 51.8727 35.3342 51.8727 34.9885C51.8727 34.9141 51.9219 34.7523 51.9802 34.5674C52.2681 34.8433 52.6566 35.0151 53.0867 35.0151C53.9716 35.0151 54.6892 34.2975 54.6892 33.4121C54.6892 33.2724 54.7591 33.0021 54.8646 32.6624C55.2988 33.0257 55.8505 33.2528 56.4611 33.2528C57.8435 33.2528 58.9646 32.1322 58.9646 30.7493C58.9646 30.584 58.9465 30.4227 58.9159 30.2664C59.0475 30.3131 59.1877 30.3438 59.336 30.3438C60.0299 30.3438 60.5923 29.7815 60.5923 29.0875C60.5923 28.8307 60.5149 28.593 60.3827 28.394C60.4515 28.4056 60.5204 28.4151 60.5923 28.4151C61.2862 28.4151 61.8485 27.8523 61.8485 27.1584C61.8485 27.1076 61.84 27.0594 61.834 27.0096C62.0083 27.1016 62.2043 27.1584 62.4154 27.1584C63.1093 27.1584 63.6717 26.596 63.6717 25.9021C63.6717 25.4016 63.3772 24.9729 62.9541 24.7709C62.9832 24.7754 63.0098 24.7885 63.0405 24.7885C63.3857 24.7885 63.6656 24.5086 63.6656 24.1634C63.6656 23.8187 62.9299 23.8654 63.0405 23.5383C63.0586 23.4835 63.0722 23.4337 63.0897 23.38C63.7958 23.6533 64.6169 23.3965 65.0294 22.7297C65.4943 21.9764 65.2611 20.989 64.5078 20.5242C64.2566 20.3684 63.9797 20.298 63.7043 20.2915C63.7068 20.2116 63.7048 20.1362 63.7043 20.0594C64.345 19.9202 64.9315 19.5342 65.3033 18.9322Z" fill="#040226"/>
<path fill-rule="evenodd" clip-rule="evenodd" d="M30.8207 35.8609C30.8725 35.8609 30.9243 35.8759 30.968 35.9066C31.0519 35.9654 31.0931 36.0684 31.073 36.1689C31.0097 36.483 31.1499 36.789 31.4218 36.9317C31.7414 37.1 32.1328 36.9915 32.3333 36.6815C32.4107 36.5634 32.5687 36.5292 32.6873 36.6046C32.7024 36.6141 32.7416 36.6468 32.7546 36.6593C32.8923 36.7272 33.0828 36.7448 33.2637 36.689C33.4441 36.6327 33.5918 36.5101 33.6792 36.3428C33.7752 36.1609 33.7787 35.9458 33.6903 35.7397C33.6561 35.6604 33.6647 35.5684 33.7119 35.496C33.7596 35.4242 33.84 35.3815 33.9265 35.3815H34.1446L34.4586 34.4026C30.5177 32.9885 27.8886 29.1171 27.8886 24.6852C27.8886 21.8415 29.0273 19.0963 31.0127 17.1541C31.0695 17.0998 31.1469 17.0732 31.2268 17.0837C31.3052 17.0938 31.3745 17.1405 31.4147 17.2088C31.6906 17.6807 32.177 17.9636 32.7154 17.9636C33.2149 17.9636 33.6818 17.7159 33.9647 17.3008C34.0044 17.243 34.0667 17.2038 34.136 17.1928C34.2074 17.1802 34.2772 17.1993 34.3335 17.2415C34.8265 17.6184 35.5611 17.4335 35.829 16.8907C35.8612 16.8259 35.9189 16.7767 35.9888 16.7576C36.0591 16.738 36.134 16.748 36.1948 16.7862C36.4848 16.9651 36.8245 16.9897 37.1421 16.84C37.2174 16.8038 37.3069 16.8083 37.3797 16.85C37.4526 16.8923 37.5003 16.9666 37.5079 17.05C37.5531 17.5711 37.9787 17.9636 38.4968 17.9636C39.0481 17.9636 39.4963 17.5149 39.4963 16.9641C39.4963 16.8254 39.5431 16.6717 39.6446 16.4822C39.6883 16.3993 39.7742 16.347 39.8687 16.346C39.9712 16.3656 40.0501 16.3958 40.0958 16.4777C40.5792 17.342 41.6828 17.7179 42.6119 17.2249C42.7064 17.1737 42.8225 17.1892 42.9029 17.2596C42.9828 17.3315 43.0104 17.445 42.9717 17.545C42.8853 17.7691 42.8415 17.9968 42.8415 18.2204C42.8415 18.9455 43.2521 19.5948 43.9124 19.9144C44.0064 19.9596 44.0637 20.0581 44.0571 20.1621C44.0506 20.2666 43.9813 20.3561 43.8823 20.3897C43.4742 20.5269 43.2003 20.9053 43.2003 21.3315C43.2003 21.9938 43.8385 22.5249 44.5405 22.2661C44.6496 22.2264 44.7737 22.2646 44.84 22.3611C44.9074 22.4571 44.9008 22.5862 44.8245 22.6752C44.5838 22.9561 44.4566 23.2933 44.4566 23.6505C44.4566 23.7887 44.4807 23.9304 44.5325 24.0958C44.5571 24.1767 44.541 24.2651 44.4883 24.3325C44.436 24.3983 44.3566 24.4385 44.2692 24.4289C44.2632 24.4284 44.2204 24.4234 44.2139 24.4224H44.2099C43.6461 24.4224 43.2003 24.8701 43.2003 25.4199C43.2003 25.7315 43.3456 26.0209 43.5993 26.2134C43.6637 26.2616 43.7008 26.338 43.7008 26.4184C43.7008 26.4983 43.6637 26.5747 43.5993 26.6229C43.3456 26.8154 43.2003 27.1048 43.2003 27.4164C43.2003 27.7626 43.3787 28.0797 43.6777 28.2641C43.7617 28.3159 43.8084 28.4103 43.7993 28.5078C43.7898 28.6053 43.726 28.689 43.634 28.7237C43.3546 28.8292 43.1742 29.087 43.1742 29.3799C43.1742 29.6473 43.3285 29.8875 43.5772 30.0081C43.6476 30.0428 43.6988 30.1081 43.7159 30.1845C43.7325 30.2614 43.7134 30.3433 43.6637 30.4041C43.5501 30.5418 43.4923 30.69 43.4923 30.8438C43.4923 31.0377 43.5747 31.2201 43.725 31.3588C43.8144 31.4413 43.834 31.5759 43.7707 31.6804C43.7079 31.785 43.5807 31.8307 43.4652 31.7895C43.3958 31.7659 43.3144 31.7407 43.235 31.7407C42.8451 31.7407 42.528 32.0588 42.528 32.4483C42.528 32.7357 42.7019 32.9915 42.9707 33.1011C43.0687 33.1408 43.132 33.2367 43.131 33.3423C43.13 33.4478 43.0647 33.5423 42.9662 33.5799C42.8039 33.6423 42.6858 33.6699 42.5843 33.6699C42.1943 33.6699 41.8767 33.9865 41.8767 34.3769C41.8767 34.7588 42.1812 35.0709 42.5596 35.083C42.5707 35.0804 42.5818 35.0784 42.5883 35.0774C42.6692 35.0644 42.7526 35.0965 42.8089 35.1583C42.8657 35.2186 42.8898 35.3026 42.8732 35.384C42.8682 35.4101 42.8611 35.4357 42.8541 35.4614C42.8486 35.481 42.8415 35.5081 42.8415 35.5161C42.8415 35.9061 43.1586 36.2242 43.5486 36.2242C43.7385 36.2242 43.9174 36.1483 44.0521 36.0106C44.1189 35.9423 44.2184 35.9171 44.3094 35.9453C44.4014 35.9734 44.4697 36.0483 44.4878 36.1428C44.5536 36.483 44.832 36.7211 45.1637 36.7211C45.4732 36.7211 45.74 36.5121 45.8285 36.2016C45.8521 36.1196 45.9149 36.0543 45.9963 36.0277C46.0782 36.0011 46.1677 36.0176 46.2345 36.0699C46.4772 36.2598 46.7622 36.3598 47.0586 36.3598C47.7993 36.3598 48.4024 35.7573 48.4034 35.0161C48.4019 35.0071 48.4003 34.9975 48.3998 34.9905L48.4034 34.99V34.989H48.4039C48.4124 34.8588 48.5129 34.7387 48.6436 34.7312C48.7833 34.7176 48.9008 34.8081 48.9119 34.9473C48.9124 34.9513 48.9124 34.9558 48.9124 34.9608L48.9129 34.9603C48.9149 34.9724 48.9179 35.0021 48.9179 35.0141C48.9179 35.0222 48.9179 35.0307 48.9179 35.0377C48.9637 35.4558 49.2903 35.7563 49.6858 35.7563C50.0355 35.7563 50.3355 35.5071 50.4159 35.1508C50.4405 35.0392 50.535 34.9573 50.6491 34.9498C50.7652 34.9387 50.8677 35.0101 50.9079 35.1166C50.9627 35.2629 51.0958 35.3563 51.2476 35.3563C51.4506 35.3563 51.6159 35.192 51.6159 34.989C51.6159 34.8855 51.6541 34.7448 51.735 34.489C51.7621 34.4051 51.8305 34.3407 51.9164 34.3186C52.0024 34.296 52.0938 34.3206 52.1581 34.382C52.4109 34.6242 52.741 34.7578 53.0868 34.7578C53.829 34.7578 54.432 34.1543 54.432 33.4126C54.432 33.2543 54.4883 33.0066 54.6189 32.586C54.6446 32.5036 54.7094 32.4397 54.7923 32.4161C54.8742 32.392 54.9637 32.4106 55.0295 32.4649C55.4446 32.8121 55.94 32.995 56.4611 32.995C57.6998 32.995 58.7074 31.988 58.7074 30.7493C58.7074 30.6071 58.6928 30.4654 58.6632 30.3156C58.6456 30.2247 58.6777 30.1317 58.7481 30.0709C58.8174 30.0101 58.9144 29.992 59.0024 30.0242C59.7245 30.2794 60.335 29.7448 60.335 29.087C60.335 28.891 60.2777 28.7 60.1682 28.536C60.1119 28.4506 60.1114 28.3395 60.1672 28.2536C60.223 28.1676 60.3235 28.1214 60.4255 28.14C60.4802 28.149 60.5355 28.1581 60.5923 28.1581C61.1431 28.1581 61.5918 27.7098 61.5918 27.1591C61.5918 27.133 61.5878 27.1083 61.5843 27.0837C61.5712 26.9887 61.6104 26.8737 61.6893 26.8189C61.7682 26.7631 61.8682 26.7375 61.9541 26.7822C62.638 27.1415 63.4144 26.6088 63.4149 25.9023C63.4149 25.5159 63.1958 25.1717 62.8431 25.0033C62.729 24.9485 62.6712 24.8189 62.7079 24.6973C62.7436 24.5757 62.8617 24.5003 62.9888 24.5164C62.9998 24.5179 63.0461 24.5279 63.0571 24.5309C63.2431 24.5309 63.4084 24.3661 63.4084 24.1636C63.3933 24.1581 63.2853 24.1124 63.2215 24.0852C63.0551 24.0149 62.6647 23.8495 62.7963 23.4561L62.8456 23.3003C62.8672 23.233 62.9154 23.1782 62.9792 23.147C63.0436 23.1184 63.1169 23.1149 63.1823 23.14C63.7868 23.3732 64.4712 23.144 64.8104 22.5943C65.2003 21.9631 65.0039 21.1325 64.3732 20.7425C64.1742 20.6199 63.9466 20.5551 63.6983 20.5485C63.63 20.547 63.5652 20.5184 63.5174 20.4686C63.4707 20.4189 63.4456 20.3531 63.4471 20.2847C63.4491 20.2269 63.4481 20.1712 63.4476 20.1164L63.4471 20.0606C63.4466 19.9385 63.531 19.833 63.6501 19.8078C64.2536 19.6767 64.7632 19.3179 65.0848 18.7973C65.7355 17.7435 65.4079 16.3571 64.3541 15.7063C64.236 15.6325 64.1074 15.5701 63.9627 15.5159C63.8757 15.4827 63.8134 15.4063 63.7988 15.3149C63.7848 15.2239 63.8199 15.1315 63.8923 15.0742C63.9898 14.9958 64.0647 14.9134 64.121 14.8229C64.4104 14.3541 64.2642 13.737 63.7958 13.4475C63.6285 13.344 63.4355 13.2928 63.24 13.2998C63.126 13.3073 63.0426 13.2455 62.9988 13.1531C62.9546 13.0601 62.9702 12.95 63.0375 12.8732C63.0737 12.8315 63.1099 12.7892 63.14 12.7405C63.43 12.2717 63.2838 11.6546 62.8154 11.3651C62.7923 11.3505 62.7672 11.3405 62.7431 11.3299C62.6551 11.2902 62.5807 11.1988 62.5747 11.1023C62.5687 11.0063 62.6024 10.9083 62.6853 10.8591C62.8315 10.7727 62.9471 10.6616 63.0295 10.5289C63.1697 10.3018 63.2129 10.0335 63.1516 9.77366C63.0903 9.51386 62.9315 9.29426 62.7044 9.15406C62.3752 8.94954 61.9672 8.95607 61.6395 9.16763C61.533 9.23597 61.3918 9.21688 61.3079 9.1219C61.2235 9.02743 61.221 8.88522 61.3019 8.78773C61.3089 8.77818 61.3421 8.74452 61.3506 8.73648C61.3933 8.66763 61.4094 8.56864 61.3868 8.47366C61.3642 8.37818 61.3059 8.29628 61.222 8.24552C61.1998 8.23195 61.1611 8.2219 61.1169 8.21035C61.0275 8.18723 60.9571 8.11788 60.9325 8.02844C60.9089 7.93949 60.9335 7.84401 60.9993 7.77869C61.4481 7.33246 61.5265 6.64602 61.1898 6.11135C60.9978 5.80683 60.6998 5.59527 60.3496 5.51638C59.9983 5.43698 59.639 5.49829 59.335 5.68974L59.3225 5.69728C59.3189 5.69929 59.3159 5.7008 59.3129 5.70281L59.3124 5.7023C59.2009 5.75959 59.0531 5.73849 58.9777 5.63798C58.9104 5.54954 58.8998 5.43748 58.9551 5.35155C58.9767 5.31839 59.0094 5.28522 59.0431 5.26512C59.3968 5.04251 59.5044 4.56814 59.2787 4.20984C59.0928 3.91236 58.722 3.79326 58.3772 3.91487C58.2712 3.95256 58.1511 3.91688 58.0838 3.82391C58.0164 3.73246 58.0179 3.60733 58.0863 3.51688C58.1807 3.39276 58.1893 3.22894 58.1084 3.1008C58.0003 2.92894 57.7727 2.87718 57.6008 2.98522C57.4295 3.09326 57.3777 3.3204 57.4858 3.49276C57.541 3.5812 57.5385 3.69979 57.4787 3.78472C57.3596 3.95306 57.1918 3.91537 56.6933 3.80281C56.6079 3.78371 56.5385 3.7219 56.5084 3.63999C56.4787 3.55758 56.4928 3.46512 56.5461 3.39628C56.8878 2.95004 56.9184 2.33396 56.6214 1.86311C56.43 1.55909 56.132 1.34753 55.7812 1.26814C55.4305 1.18874 55.0707 1.25055 54.7667 1.4415C54.3174 1.72442 54.0767 2.24804 54.1546 2.77618C54.1667 2.86211 54.1355 2.94803 54.0707 3.00532C54.0054 3.06311 53.9154 3.08321 53.8325 3.0611L53.331 2.92391C53.2481 2.9013 53.1823 2.83849 53.1556 2.75708C53.1285 2.67567 53.1441 2.58572 53.1968 2.51738C53.7772 1.77266 53.832 0.738989 53.3325 -0.0534728C52.6727 -1.10121 51.2833 -1.41679 50.235 -0.757493C50.1169 -0.683122 50.0049 -0.595684 49.8913 -0.489151C49.824 -0.42483 49.729 -0.401714 49.6395 -0.43086C49.5511 -0.457995 49.4843 -0.530358 49.4642 -0.62081C49.437 -0.742418 49.3963 -0.845935 49.3395 -0.93689C49.0461 -1.40171 48.4285 -1.54192 47.9611 -1.24996C47.7953 -1.14543 47.6652 -0.994678 47.5838 -0.814779C47.5415 -0.720809 47.4571 -0.659504 47.3456 -0.663021C47.2431 -0.665031 47.1516 -0.726337 47.1119 -0.821312C47.0903 -0.872066 47.0687 -0.923322 47.0375 -0.971563C46.8953 -1.1982 46.6737 -1.35498 46.4134 -1.41428C46.1521 -1.47408 45.8853 -1.42734 45.6596 -1.28563C45.638 -1.27207 45.6194 -1.25548 45.6008 -1.23991C45.527 -1.17709 45.4089 -1.14845 45.3204 -1.18714C45.2315 -1.22433 45.1556 -1.29468 45.1481 -1.39116C45.135 -1.56051 45.0863 -1.71277 45.0034 -1.84443C44.7094 -2.31126 44.0913 -2.45046 43.625 -2.158C43.5416 -2.10473 43.428 -2.09669 43.3441 -2.14794C43.2601 -2.1982 43.2039 -2.28563 43.2124 -2.38312C43.232 -2.60624 43.1818 -2.82031 43.0672 -3.00222C42.9245 -3.22835 42.7034 -3.38563 42.4426 -3.44443C42.1823 -3.50423 41.9149 -3.458 41.6888 -3.31578C41.523 -3.21126 41.3923 -3.06101 41.3114 -2.88161C41.2692 -2.78764 41.1797 -2.70423 41.0732 -2.72935C40.9707 -2.73136 40.8787 -2.79317 40.8395 -2.88764C40.8184 -2.93789 40.7963 -2.98915 40.7657 -3.03689C40.623 -3.26403 40.4008 -3.42081 40.1411 -3.48011C39.8813 -3.54041 39.6129 -3.49367 39.3873 -3.35146C39.1948 -3.22985 39.0531 -3.04694 38.9777 -2.82232C38.9531 -2.74795 38.8953 -2.68915 38.8214 -2.66202C38.7481 -2.63538 38.6662 -2.64393 38.5988 -2.68463C38.1757 -2.94594 37.6209 -2.85448 37.3074 -2.47357C37.2084 -2.35448 37.1405 -2.20875 37.1054 -2.04192C37.0858 -1.94744 37.0154 -1.87307 36.9235 -1.84694C36.832 -1.8193 36.7325 -1.84845 36.6667 -1.91779C36.6225 -1.96503 36.6059 -1.98513 36.5853 -2.00171C36.3792 -2.17257 36.1184 -2.24996 35.8536 -2.22634C35.5878 -2.20021 35.3481 -2.07257 35.1782 -1.86704C35.1415 -1.82232 35.1129 -1.77458 35.0853 -1.72684C35.0335 -1.6389 34.933 -1.58915 34.833 -1.60021C34.7315 -1.61176 34.6466 -1.68312 34.6169 -1.78061C34.5586 -1.96955 34.4486 -2.13488 34.2978 -2.2595C34.0913 -2.42985 33.834 -2.50976 33.5657 -2.48413C33.3003 -2.4585 33.0606 -2.33086 32.8908 -2.12483C32.8225 -2.04242 32.7692 -1.94493 32.7265 -1.82785C32.6953 -1.74091 32.6194 -1.67759 32.5283 -1.66202C32.4368 -1.64594 32.3444 -1.68011 32.2861 -1.75146C32.1871 -1.87156 32.0871 -1.97307 31.979 -2.06202C31.0238 -2.84895 29.6057 -2.71377 28.8172 -1.75749C28.4539 -1.31679 28.2755 -0.755482 28.3147 -0.176588C28.3213 -0.0780954 28.271 0.0158744 28.1851 0.0646181C28.0991 0.113864 27.9936 0.108839 27.9112 0.0520544C27.5544 -0.195684 27.3243 -0.358498 27.2042 -0.457493C26.9273 -0.686639 26.577 -0.791161 26.2202 -0.759C25.8625 -0.724327 25.5393 -0.552971 25.3107 -0.275584C24.8393 0.296778 24.9207 1.14603 25.4931 1.61788C25.5831 1.68974 25.6228 1.81839 25.5775 1.92492C25.5323 2.03095 25.4283 2.09477 25.3162 2.08472C25.0645 2.05206 24.8328 2.00633 24.767 1.80984C24.7353 1.71688 24.6695 1.642 24.581 1.59879C24.4931 1.55457 24.3931 1.54753 24.3001 1.5807C24.2072 1.61236 24.1318 1.67869 24.0886 1.76612C24.0449 1.85406 24.0383 1.95407 24.07 2.04703C24.0765 2.05608 24.0951 2.07969 24.1001 2.08974C24.1579 2.20281 24.1243 2.3415 24.0207 2.41537C23.9172 2.48874 23.7755 2.47618 23.6866 2.38623C23.4132 2.10633 23.0177 2.00884 22.6519 2.13447C22.3991 2.2204 22.1951 2.39929 22.0775 2.63899C21.9594 2.87768 21.9419 3.14904 22.0278 3.4018C22.078 3.54904 22.1655 3.68371 22.2891 3.8008C22.3584 3.86663 22.3856 3.96562 22.3599 4.05758C22.3333 4.15004 22.2579 4.21989 22.1645 4.23899C22.1001 4.25205 22.075 4.25557 22.0499 4.26411C21.7966 4.35055 21.5926 4.52944 21.4745 4.76914C21.3569 5.00834 21.3393 5.27969 21.4253 5.53195C21.4434 5.58622 21.469 5.63597 21.4951 5.68371C21.5439 5.77467 21.5343 5.88522 21.471 5.96562C21.4072 6.04653 21.3027 6.07919 21.2032 6.05507C21.0127 6.00532 20.8132 6.01185 20.6278 6.07567C20.375 6.1611 20.171 6.3405 20.0529 6.57969C19.9353 6.81889 19.9177 7.08974 20.0032 7.34251C20.0594 7.50733 20.1589 7.65205 20.2991 7.77266C20.3805 7.84301 20.4097 7.95708 20.3715 8.05808C20.3333 8.15909 20.2218 8.22844 20.1288 8.22492C20.0489 8.23095 19.9831 8.23798 19.9323 8.26914C19.7604 8.37567 19.7067 8.60281 19.8132 8.77517C19.8951 8.87266 19.9132 9.03145 19.8288 9.12793C19.7454 9.22291 19.6238 9.25959 19.5157 9.19125C19.1871 8.97919 18.779 8.97416 18.4509 9.17668C17.9821 9.46713 17.8363 10.0837 18.1253 10.5526C18.2072 10.6852 18.3233 10.7963 18.4695 10.8827C18.5519 10.9315 18.6006 11.0224 18.5956 11.1179C18.5906 11.2139 18.5328 11.2988 18.4454 11.3385C18.3866 11.3646 18.363 11.3737 18.3403 11.3877C17.871 11.6782 17.7248 12.2948 18.0147 12.7636C18.0444 12.8113 18.0805 12.8546 18.1172 12.8968C18.1846 12.9737 18.2001 13.0837 18.1559 13.1762C18.1122 13.2686 18.0253 13.3239 17.9147 13.3234C17.7177 13.3093 17.5263 13.3671 17.3589 13.4712C17.1318 13.6114 16.973 13.8315 16.9117 14.0913C16.8504 14.3505 16.8936 14.6189 17.0338 14.8465C17.0901 14.937 17.165 15.0194 17.263 15.0983C17.3348 15.1561 17.37 15.2475 17.3559 15.339C17.3413 15.4309 17.2785 15.5068 17.1916 15.54C17.0509 15.5918 16.9192 15.6561 16.8006 15.7294C15.7469 16.3802 15.4192 17.7666 16.07 18.8209C16.373 19.3108 16.8514 19.6621 17.4172 19.8098C17.5137 19.8345 17.5871 19.9139 17.6052 20.0119C17.6233 20.1098 17.5831 20.2093 17.5017 20.2681C17.1916 20.4887 16.9368 20.6701 16.7821 20.7661C16.1509 21.1556 15.9549 21.9867 16.3444 22.6174C16.5891 23.0139 17.0167 23.25 17.4891 23.251C17.5574 23.251 17.6228 23.2792 17.6715 23.3279C17.7197 23.3762 17.7459 23.442 17.7454 23.5108C17.7439 23.742 17.7449 23.9415 17.7459 24.0711L17.7464 24.1872C17.7464 24.3897 17.9117 24.5546 18.1142 24.5546C18.2413 24.536 18.3851 24.6038 18.4228 24.7254C18.4604 24.8475 18.4268 24.9711 18.3117 25.0264C17.9594 25.1948 17.7403 25.5395 17.7403 25.9254C17.7403 26.4762 18.1886 26.9249 18.7393 26.9249C18.8961 26.9249 19.0514 26.8847 19.2011 26.8053C19.2856 26.7621 19.3881 26.7661 19.467 26.8219C19.5459 26.8757 19.5881 26.9696 19.5765 27.0641C19.567 27.1315 19.563 27.1566 19.563 27.1817C19.563 27.733 20.0112 28.1812 20.562 28.1812C20.6197 28.1812 20.6745 28.1727 20.7293 28.1636C20.8313 28.1455 20.9323 28.1913 20.9876 28.2772C21.0434 28.3631 21.0429 28.4742 20.9866 28.5596C20.877 28.7247 20.8197 28.9146 20.8197 29.1101C20.8197 29.7689 21.4368 30.3046 22.1519 30.0483C22.2383 30.0166 22.3358 30.0342 22.4062 30.094C22.4765 30.1548 22.5087 30.2478 22.4911 30.3387C22.4625 30.4885 22.4474 30.6342 22.4474 30.7729C22.4474 32.0116 23.4549 33.0196 24.6936 33.0196C25.2363 33.0196 25.7645 32.8146 26.1816 32.4428C26.2519 32.3804 26.3509 32.3614 26.4388 32.393C26.5273 32.4237 26.5916 32.5005 26.6067 32.593C26.6549 32.8915 26.6991 33.198 26.6991 33.4126C26.6991 34.1543 27.3027 34.7578 28.0444 34.7578C28.3187 34.7578 28.5841 34.6739 28.8107 34.5151C28.9001 34.4543 29.0177 34.4543 29.1057 34.5156C29.1946 34.5774 29.2343 34.6885 29.2067 34.793C29.1805 34.8905 29.1685 34.9714 29.1685 35.0493C29.1685 35.6 29.6167 36.0488 30.168 36.0488C30.3494 36.0488 30.5243 35.998 30.6861 35.8985C30.7273 35.8729 30.774 35.8609 30.8207 35.8609ZM31.7403 37.5257C31.5514 37.5257 31.3604 37.4815 31.1826 37.3875C30.8393 37.2076 30.6152 36.8804 30.5579 36.5101C30.4303 36.5448 30.2991 36.5634 30.168 36.5634C29.373 36.5634 28.7187 35.9473 28.6584 35.1669C28.4625 35.2367 28.2559 35.2719 28.0444 35.2719C27.0192 35.2719 26.1846 34.4377 26.1846 33.4121C26.1846 33.3287 26.175 33.2206 26.1609 33.1016C25.7207 33.3825 25.2127 33.5337 24.6936 33.5337C23.1715 33.5337 21.9328 32.2945 21.9328 30.7724C21.9328 30.7217 21.9343 30.6704 21.9378 30.6186C21.0509 30.7006 20.3052 29.9855 20.3052 29.1106C20.3052 28.9649 20.3263 28.8212 20.367 28.6835C19.6961 28.5963 19.162 28.0691 19.0645 27.4018C18.9574 27.4264 18.8494 27.439 18.7393 27.439C17.9047 27.439 17.2258 26.7601 17.2258 25.9254C17.2258 25.542 17.3675 25.1857 17.6152 24.9139C17.3841 24.7546 17.2318 24.4882 17.2318 24.1872V24.0747C17.2308 23.9913 17.2303 23.8787 17.2303 23.748C16.6831 23.6727 16.2001 23.3631 15.9067 22.8882C15.368 22.0154 15.6393 20.8671 16.5112 20.3284C16.5861 20.2822 16.6851 20.2144 16.8027 20.133C16.3207 19.9073 15.9147 19.5485 15.6323 19.0913C14.8323 17.7963 15.2348 16.0918 16.5303 15.2912C16.573 15.2651 16.6177 15.24 16.663 15.2149C16.6393 15.1832 16.6172 15.15 16.5966 15.1174C16.3841 14.7722 16.3182 14.3666 16.4107 13.9727C16.5037 13.5797 16.7444 13.2455 17.0886 13.033C17.2132 12.9566 17.3464 12.8993 17.4846 12.8611C17.2067 12.245 17.3745 11.5134 17.8906 11.0802C17.8127 11.0018 17.7454 10.9159 17.6881 10.8229C17.2494 10.1129 17.4705 9.17818 18.18 8.73899C18.5062 8.53748 18.8831 8.47065 19.2454 8.53899C19.2594 8.25859 19.4062 7.98924 19.6625 7.83095C19.665 7.82944 19.667 7.82844 19.6695 7.82693C19.6062 7.72743 19.5549 7.6214 19.5162 7.50834C19.3861 7.12542 19.4127 6.71487 19.5916 6.35205C19.77 5.98974 20.0795 5.71838 20.4625 5.58823C20.6001 5.5415 20.7429 5.51437 20.8866 5.50884C20.8207 5.18221 20.864 4.84552 21.0132 4.5415C21.1589 4.24552 21.3916 4.01035 21.6805 3.86311C21.6228 3.77014 21.576 3.67115 21.5408 3.56763C21.4102 3.18522 21.4373 2.77417 21.6157 2.41135C21.7946 2.04854 22.1037 1.77718 22.4866 1.64703C22.8489 1.52391 23.2318 1.54301 23.5685 1.68974C23.5836 1.63849 23.6027 1.58773 23.6273 1.53849C23.7313 1.32743 23.9112 1.16914 24.1343 1.09326C24.2725 1.04703 24.4167 1.03547 24.5564 1.05658C24.4047 0.494266 24.5192 -0.124328 24.9142 -0.603222C25.2303 -0.986639 25.6765 -1.22382 26.171 -1.27106C26.666 -1.32031 27.1484 -1.16955 27.5318 -0.854479C27.5911 -0.805735 27.6916 -0.731363 27.8122 -0.645433C27.871 -1.17357 28.0795 -1.67207 28.4202 -2.08563C29.3886 -3.2595 31.1318 -3.42684 32.3067 -2.459C32.3459 -2.42584 32.3841 -2.39217 32.4223 -2.35749C32.4444 -2.38965 32.4685 -2.42182 32.4936 -2.45197C32.7511 -2.76403 33.1144 -2.95699 33.5169 -2.99568C33.9199 -3.03337 34.3129 -2.91377 34.625 -2.65649C34.737 -2.56453 34.835 -2.45649 34.9149 -2.33739C35.1576 -2.56553 35.4677 -2.70574 35.8044 -2.7384C36.132 -2.76855 36.4551 -2.69518 36.732 -2.52734C36.7812 -2.62583 36.8405 -2.71729 36.9104 -2.80172C37.324 -3.30322 38.0124 -3.47408 38.6064 -3.25096C38.728 -3.47056 38.8998 -3.65247 39.1129 -3.78664C39.4551 -4.00222 39.8596 -4.07257 40.2546 -3.98212C40.5853 -3.90674 40.8737 -3.72785 41.0858 -3.47156C41.1807 -3.5791 41.2913 -3.67357 41.4144 -3.75096C41.7566 -3.96704 42.1611 -4.03639 42.5566 -3.94644C42.9511 -3.85649 43.2868 -3.6188 43.5024 -3.27659C43.6034 -3.11579 43.6722 -2.9399 43.7059 -2.75548C43.9632 -2.83789 44.231 -2.84795 44.4933 -2.78865C44.8873 -2.6987 45.2235 -2.46151 45.4385 -2.1188C45.4968 -2.02684 45.5441 -1.92785 45.5797 -1.82483C45.8757 -1.95649 46.2054 -1.98865 46.5275 -1.91629C46.8576 -1.84041 47.1466 -1.66202 47.3581 -1.40523C47.4536 -1.51327 47.5637 -1.60775 47.6868 -1.68513C48.3948 -2.12935 49.33 -1.91629 49.7747 -1.21026C49.7958 -1.17709 49.8154 -1.14292 49.8335 -1.10724C49.8757 -1.13739 49.9179 -1.16604 49.9611 -1.19317C51.2496 -2.00322 52.9566 -1.61579 53.7682 -0.327845C54.0702 0.152054 54.2079 0.703813 54.1843 1.24954C54.2767 1.15859 54.3802 1.07718 54.4928 1.00683C54.9129 0.741503 55.4119 0.656578 55.8953 0.766126C56.3797 0.876678 56.7923 1.16864 57.0566 1.58874C57.24 1.87969 57.3335 2.21085 57.3385 2.54251C57.7481 2.29326 58.2863 2.41839 58.5436 2.82643C58.6456 2.98824 58.6898 3.17165 58.6767 3.35306C59.0938 3.3611 59.4848 3.57015 59.7144 3.93547C59.9174 4.25809 59.9586 4.63798 59.8591 4.97869C60.0596 4.95607 60.2627 4.96914 60.4637 5.01437C60.9481 5.12442 61.3601 5.41688 61.625 5.83698C62.0275 6.47668 62.0014 7.27165 61.5868 7.87467C61.737 7.99678 61.8421 8.16412 61.8873 8.35557C61.9003 8.40934 61.9079 8.46361 61.9104 8.51839C62.2742 8.45256 62.6541 8.51839 62.9747 8.71537C63.6848 9.15457 63.9054 10.0892 63.4672 10.7993C63.4094 10.8918 63.3415 10.9777 63.2647 11.0566C63.7807 11.4902 63.9486 12.2214 63.6702 12.838C63.8089 12.8752 63.9421 12.933 64.0662 13.0093C64.7762 13.4485 64.9973 14.3832 64.5586 15.0933C64.5375 15.1264 64.5154 15.1596 64.4918 15.1912C64.537 15.2154 64.5813 15.2415 64.6245 15.2681C65.9194 16.0686 66.322 17.7732 65.5225 19.0676C65.2255 19.5475 64.7998 19.9159 64.2928 20.138C64.4149 20.1807 64.532 20.236 64.6431 20.3048C65.5159 20.8435 65.7873 21.9923 65.2481 22.8646C64.9049 23.4199 64.3064 23.74 63.6833 23.7455C63.8124 23.833 63.923 23.9616 63.923 24.1636C63.923 24.4656 63.7697 24.733 63.537 24.8918C63.7843 25.1656 63.929 25.5249 63.929 25.9023C63.929 26.737 63.2501 27.4159 62.4154 27.4159C62.3059 27.4159 62.1973 27.4033 62.0903 27.3787C61.9928 28.0455 61.4586 28.5732 60.7883 28.6604C60.8285 28.7975 60.8496 28.9413 60.8496 29.0875C60.8496 29.9619 60.0938 30.6724 59.2174 30.596C59.2204 30.6473 59.222 30.6985 59.222 30.7498C59.222 32.2714 57.9833 33.5096 56.4611 33.5096C55.9436 33.5096 55.4481 33.3649 55.0094 33.0865C54.9596 33.2749 54.9466 33.3669 54.9466 33.4121C54.9466 34.4377 54.1124 35.2719 53.0868 35.2719C52.7461 35.2719 52.4174 35.1794 52.13 35.0056C52.123 35.4825 51.73 35.8714 51.2476 35.8714C51.0566 35.8714 50.8777 35.8106 50.7315 35.7041C50.5024 36.0513 50.1169 36.2709 49.6858 36.2709C49.3044 36.2709 48.9612 36.1031 48.726 35.8377C48.4215 36.4518 47.7888 36.8749 47.0586 36.8749C46.7531 36.8749 46.4576 36.799 46.1888 36.6533C45.9732 37.0116 45.5923 37.2347 45.1637 37.2347C44.7109 37.2347 44.3159 36.9875 44.1099 36.6011C43.9385 36.6905 43.7471 36.7387 43.5486 36.7387C42.8933 36.7387 42.3571 36.2201 42.328 35.5719C41.7772 35.4538 41.3627 34.9634 41.3627 34.3774C41.3627 33.8121 41.7481 33.3352 42.2702 33.196C42.1069 32.9865 42.0134 32.7262 42.0134 32.4478C42.0134 31.8387 42.4622 31.3322 43.0456 31.2407C43.0008 31.1146 42.9777 30.9804 42.9777 30.8433C42.9777 30.6614 43.0225 30.4835 43.1079 30.3166C42.826 30.0885 42.6596 29.7488 42.6596 29.3799C42.6596 29.0106 42.823 28.6749 43.0958 28.449C42.8345 28.1722 42.6858 27.8068 42.6858 27.4164C42.6858 27.0435 42.8215 26.6928 43.0662 26.4184C42.8215 26.144 42.6858 25.7928 42.6858 25.4199C42.6858 24.6651 43.241 24.038 43.9642 23.9239C43.9496 23.8309 43.9421 23.74 43.9421 23.6505C43.9421 23.3722 44.0024 23.0973 44.1159 22.8425C43.3199 22.7993 42.6858 22.138 42.6858 21.3315C42.6858 20.8521 42.9139 20.4119 43.2838 20.132C42.6843 19.6837 42.327 18.9852 42.327 18.2204C42.327 18.1078 42.3355 17.9938 42.3526 17.8807C41.4998 18.1164 40.5802 17.832 39.9923 17.2023C39.8777 17.9244 39.2506 18.4777 38.4968 18.4777C37.8199 18.4777 37.2471 18.0375 37.0566 17.4134C36.7571 17.4842 36.4421 17.4586 36.1561 17.341C35.7325 17.9274 34.8843 18.136 34.236 17.7892C33.8531 18.2239 33.3008 18.4777 32.7154 18.4777C32.1122 18.4777 31.5408 18.2003 31.1589 17.738C29.4042 19.5686 28.4032 22.0827 28.4032 24.6852C28.4032 28.984 30.9986 32.7262 34.8617 33.9965C34.9963 34.0407 35.0697 34.185 35.0265 34.3196L34.5772 35.7171C34.5431 35.8232 34.4441 35.895 34.3325 35.895H34.2596C34.2873 36.1327 34.2456 36.3719 34.135 36.582C33.9833 36.8709 33.7285 37.083 33.4164 37.1799C33.1501 37.2644 32.8687 37.2528 32.6129 37.1533C32.379 37.3945 32.063 37.5257 31.7403 37.5257Z" fill="black"/>
<path fill-rule="evenodd" clip-rule="evenodd" d="M31.9678 41.3098C32.9421 43.3626 35.3582 44.8184 38.1919 44.8184C41.0261 44.8184 43.4422 43.3626 44.4165 41.3098H48.0442C62.9924 41.3098 76.9793 48.6787 85.4326 61.0068L92.8236 71.7857H67.2366L65.5572 68.4279L69.5014 97.9068H6.2522L11.4763 67.3078L11.9115 45.0435L31.9678 41.3098Z" fill="#4B69FD"/>
<path fill-rule="evenodd" clip-rule="evenodd" d="M6.5572 97.6496H69.2075L65.3024 68.4616C65.2858 68.337 65.3617 68.2189 65.4818 68.1817C65.6024 68.143 65.7311 68.1998 65.7879 68.3124L67.3959 71.5289H92.3351L85.2205 61.1531C76.8115 48.8887 62.914 41.5671 48.0441 41.5671H44.5768C43.4818 43.7033 40.9969 45.0752 38.1924 45.0752C35.4014 45.0752 32.9265 43.7169 31.8245 41.5978L12.1647 45.2576L11.7336 67.3134L6.5572 97.6496ZM69.5014 98.1636H6.25218C6.1763 98.1636 6.10444 98.1305 6.0552 98.0727C6.00695 98.0149 5.98585 97.9385 5.99891 97.8636L11.2225 67.2646L11.6542 45.0385C11.6567 44.9164 11.7446 44.8124 11.8647 44.7908L31.921 41.0571C32.0341 41.035 32.1502 41.0943 32.2004 41.1993C33.1698 43.2415 35.522 44.5611 38.1924 44.5611C40.8632 44.5611 43.215 43.2415 44.1843 41.1993C44.2266 41.1093 44.3175 41.0526 44.4165 41.0526H48.0441C63.0833 41.0526 77.1401 48.4576 85.6451 60.8616L93.0356 71.64C93.0899 71.7189 93.0954 71.8214 93.0512 71.9058C93.007 71.9898 92.919 72.043 92.8235 72.043H67.2366C67.1396 72.043 67.0502 71.9877 67.0064 71.9008L66.017 69.9209L69.7567 97.8727C69.7663 97.946 69.7441 98.0204 69.6954 98.0762C69.6461 98.132 69.5758 98.1636 69.5014 98.1636Z" fill="black"/>
<path fill-rule="evenodd" clip-rule="evenodd" d="M31.3155 30.7118H-34.1543L-28.0372 42.4038H-28.0377V81.3359H25.1989V42.4043L25.1994 42.4038L31.3155 30.7118Z" fill="#FCBD21"/>
<path fill-rule="evenodd" clip-rule="evenodd" d="M25.0435 42.1464H-27.8816L-33.7293 30.969H30.8908L25.0435 42.1464ZM24.9415 81.0791H12.5204V75.7354C12.5204 75.5932 12.4054 75.4776 12.2631 75.4776H-15.1017C-15.2434 75.4776 -15.3585 75.5932 -15.3585 75.7354V81.0791H-27.7801V42.6605H24.9415V81.0791ZM-14.8444 81.06H12.0059V75.9927H-14.8444V81.06ZM31.5355 30.5781C31.4888 30.5017 31.4053 30.454 31.3154 30.454H-34.1539C-34.2439 30.454 -34.3273 30.5017 -34.374 30.5781C-34.4208 30.6555 -34.4233 30.7509 -34.3816 30.8303L-28.2946 42.466V81.3359C-28.2946 81.4786 -28.1796 81.5932 -28.0374 81.5932H25.1993C25.341 81.5932 25.4561 81.4786 25.4561 81.3359V42.467L31.5435 30.8303C31.5853 30.7509 31.5822 30.6555 31.5355 30.5781ZM-44.2163 20.1901C-44.3168 20.0891 -44.4796 20.0891 -44.5801 20.1901C-44.6806 20.2901 -44.6806 20.453 -44.5801 20.5535L-36.4007 28.7334C-36.3504 28.7831 -36.2841 28.8082 -36.2188 28.8082C-36.1529 28.8082 -36.0871 28.7831 -36.0369 28.7334C-35.9364 28.6323 -35.9364 28.4695 -36.0369 28.3695L-44.2163 20.1901ZM-33.4791 28.0454C-33.3374 28.0454 -33.2223 27.9308 -33.2223 27.7886V16.2208C-33.2223 16.0786 -33.3374 15.9635 -33.4791 15.9635C-33.6218 15.9635 -33.7369 16.0786 -33.7369 16.2208V27.7886C-33.7369 27.9308 -33.6218 28.0454 -33.4791 28.0454ZM-36.9193 30.7032H-48.4866C-48.6288 30.7032 -48.7439 30.8183 -48.7439 30.96C-48.7439 31.1022 -48.6288 31.2178 -48.4866 31.2178H-36.9193C-36.7766 31.2178 -36.6615 31.1022 -36.6615 30.96C-36.6615 30.8183 -36.7766 30.7032 -36.9193 30.7032Z" fill="black"/>
<path fill-rule="evenodd" clip-rule="evenodd" d="M-17.4192 52.4228L-28.2118 51.6952L-19.4946 51.1882C-18.2162 51.1067 -17.2207 50.0459 -17.2207 48.7645C-17.2207 47.4469 -18.271 46.3691 -19.588 46.3364L-30.1017 46.0696C-30.1017 46.0696 -28.6138 43.4359 -26.6419 42.1304C-25.7087 41.5123 -25.1922 40.4344 -25.3786 39.3304L-25.4103 39.1414C-25.7289 37.256 -27.8329 36.2409 -29.4856 37.2022C-32.6696 39.0535 -38.7515 44.1158 -38.7515 51.7766C-38.7515 63.9238 -33.3736 71.0982 -27.5746 71.0982C-24.353 71.0982 -22.3871 70.7841 -21.2309 70.4741C-20.3494 70.2379 -19.7484 69.4263 -19.7484 68.5138C-19.7484 67.566 -20.3981 66.7434 -21.3218 66.5304C-23.3977 66.0525 -28.3897 66.2067 -28.1299 63.8424L-19.9298 64.26C-18.4589 64.3429 -17.2207 63.1731 -17.2207 61.6997C-17.2207 60.3736 -18.2318 59.266 -19.5524 59.1459L-27.8449 58.462L-17.3293 57.4007C-16.0614 57.262 -15.1011 56.1912 -15.1011 54.9158C-15.1011 53.6057 -16.1127 52.5178 -17.4192 52.4228ZM89.2788 71.7856H68.2577C68.2577 71.7856 75.9914 84.4183 68.2798 88.7716C60.5678 93.1253 25.7185 81.6123 25.7185 81.6123C25.7185 81.6123 16.2652 78.5022 15.519 82.4826C15.4366 82.9223 15.4391 83.3168 15.5084 83.6701C15.5084 83.6701 12.6893 83.0268 11.3366 81.348H-1.35035C-1.35035 81.348 -3.54282 87.1786 16.9336 92.8223C16.9336 92.8223 24.4436 95.2942 27.6155 96.9736C30.7873 98.653 66.1125 115.414 83.9306 102.26C101.749 89.1062 89.2788 71.7856 89.2788 71.7856Z" fill="#DCAD7F"/>
<path fill-rule="evenodd" clip-rule="evenodd" d="M83.7778 102.053C65.3853 115.632 28.1039 96.9414 27.7356 96.7459C24.5813 95.0766 17.0893 92.6027 17.0019 92.574C3.85968 88.9524 0.244605 85.2484 -0.740823 83.363C-1.18756 82.5077 -1.18253 81.8861 -1.14434 81.6052H2.63757C2.62299 81.6931 2.61897 81.7936 2.63455 81.9072C2.76521 82.8595 4.11697 83.973 6.65215 85.2168C11.6506 87.6705 17.8702 89.5514 17.9325 89.57C17.9572 89.5776 17.9823 89.5816 18.0064 89.5816C18.1175 89.5816 18.2195 89.5092 18.2532 89.3977C18.2939 89.2625 18.2165 89.1183 18.0808 89.0781C18.019 89.0595 11.8401 87.1901 6.87877 84.755C3.80892 83.2484 3.2235 82.2952 3.14812 81.86C3.12702 81.7389 3.14661 81.658 3.16973 81.6052H11.216C12.4657 83.067 14.7119 83.7298 15.3059 83.8846C16.0496 86.7323 20.7763 86.961 20.9697 86.9675L24.5145 87.2791C24.522 87.2801 24.5295 87.2801 24.5371 87.2801C24.6692 87.2801 24.7813 87.1786 24.7934 87.0454C24.8059 86.9042 24.7009 86.7791 24.5592 86.7665L21.0024 86.4544C20.9547 86.4529 16.2773 86.2333 15.7612 83.6203C15.6954 83.2861 15.6989 82.9198 15.7717 82.5298C15.8773 81.966 16.1768 81.5459 16.6868 81.2444C19.1908 79.7635 25.5738 81.8354 25.6376 81.8565C25.725 81.8856 34.4707 84.765 44.0471 87.0745C56.9532 90.1881 65.1491 90.8344 68.4059 88.9962C70.0999 88.0394 71.2024 86.6173 71.6818 84.77C72.9331 79.9434 69.6361 73.6735 68.7069 72.0429H89.1441C89.6195 72.7439 92.2441 76.8087 93.0351 82.1469C94.1929 89.966 91.0783 96.663 83.7778 102.053ZM89.4878 71.6354C89.4396 71.5685 89.3617 71.5283 89.2788 71.5283H68.2582C68.1652 71.5283 68.0793 71.5786 68.0336 71.6605C67.9883 71.7414 67.9898 71.8404 68.0386 71.9198C68.0843 71.9946 72.5491 79.3786 71.1833 84.6419C70.7401 86.3484 69.7205 87.6625 68.1532 88.5479C60.628 92.7972 26.1466 81.4821 25.7989 81.368C25.5275 81.2781 19.129 79.2022 16.4255 80.8012C15.7888 81.1776 15.3989 81.7273 15.2662 82.4359C15.2089 82.7419 15.1888 83.0384 15.2059 83.3218C14.419 83.0891 12.5371 82.4283 11.5366 81.1871C11.4883 81.1258 11.4145 81.0906 11.3366 81.0906H-1.35088C-1.45791 81.0906 -1.55389 81.157 -1.59158 81.2575C-1.60565 81.2936 -1.92273 82.1761 -1.22273 83.5514C0.00289619 85.9575 4.13606 89.562 16.8531 93.0665C16.9285 93.0911 24.3788 95.5514 27.4949 97.2017C27.7667 97.3449 48.015 107.496 66.1527 107.495C72.7667 107.494 79.1019 106.144 84.0828 102.467C101.9 89.3142 89.614 71.8107 89.4878 71.6354Z" fill="black"/>
</g>
<path fill-rule="evenodd" clip-rule="evenodd" d="M38 0.560803C17.3563 0.560803 0.561305 17.3558 0.561305 38C0.561305 58.6437 17.3563 75.4387 38 75.4387C58.6437 75.4387 75.4387 58.6437 75.4387 38C75.4387 17.3558 58.6437 0.560803 38 0.560803ZM38 76C17.0467 76 0 58.9533 0 38C0 17.0467 17.0467 0 38 0C58.9533 0 76 17.0467 76 38C76 58.9533 58.9533 76 38 76Z" fill="black"/>
</svg>
