<svg width="76" height="76" viewBox="0 0 76 76" fill="none" xmlns="http://www.w3.org/2000/svg">
<path fill-rule="evenodd" clip-rule="evenodd" d="M75.7195 37.9995C75.7195 58.8312 58.832 75.7191 37.9999 75.7191C17.1677 75.7191 0.280273 58.8312 0.280273 37.9995C0.280273 17.1673 17.1677 0.279907 37.9999 0.279907C58.832 0.279907 75.7195 17.1673 75.7195 37.9995Z" fill="#EEF2F8"/>
<mask id="mask0_154_1791" style="mask-type:alpha" maskUnits="userSpaceOnUse" x="0" y="0" width="76" height="76">
<path fill-rule="evenodd" clip-rule="evenodd" d="M75.7195 37.9995C75.7195 58.8312 58.832 75.7191 37.9999 75.7191C17.1677 75.7191 0.280273 58.8312 0.280273 37.9995C0.280273 17.1673 17.1677 0.279907 37.9999 0.279907C58.832 0.279907 75.7195 17.1673 75.7195 37.9995Z" fill="white"/>
</mask>
<g mask="url(#mask0_154_1791)">
<path fill-rule="evenodd" clip-rule="evenodd" d="M31.5525 43.1314C31.5525 43.1314 34.3276 41.3183 33.834 33.8308C33.834 33.8308 38.2228 35.8847 43.0109 32.4119L44.1153 43.0449C44.1153 43.0449 40.7957 46.8156 37.3149 46.4499C33.834 46.0842 31.5525 43.1314 31.5525 43.1314Z" fill="#DCAD7F"/>
<path fill-rule="evenodd" clip-rule="evenodd" d="M33.9406 33.6032C36.7781 34.9311 39.7413 34.473 42.8634 32.2085C43.02 32.0949 43.2409 32.1934 43.2609 32.3859L44.3653 43.0189C44.3725 43.0886 44.3503 43.1583 44.3039 43.2109C42.0415 45.7807 39.7001 46.9531 37.2887 46.6998C34.8986 46.4487 32.916 45.3069 31.3537 43.285C31.2641 43.1689 31.2924 43.0011 31.4151 42.921C33.166 41.7771 33.907 38.7565 33.5834 33.8473C33.5708 33.6566 33.7674 33.5222 33.9406 33.6032ZM43.8535 42.9603L42.8048 32.8638L42.5976 33.0043C39.7186 34.9092 36.9253 35.3391 34.2408 34.2797L34.1093 34.2261L34.1159 34.3414C34.3496 38.8491 33.6542 41.7799 31.9881 43.1248L31.9138 43.1824L32.0333 43.3269C33.4173 44.967 35.1135 45.9138 37.1313 46.1754L37.3412 46.2C39.5708 46.4342 41.763 45.3366 43.9268 42.8788L43.8535 42.9603Z" fill="black"/>
<path fill-rule="evenodd" clip-rule="evenodd" d="M37.3238 34.5226C32.252 34.5226 28.1404 30.1628 28.1404 24.7839C28.1404 19.405 32.252 15.0447 37.3238 15.0447C42.3957 15.0447 46.5072 19.405 46.5072 24.7839C46.5072 30.1628 42.3957 34.5226 37.3238 34.5226Z" fill="#DCAD7F"/>
<path fill-rule="evenodd" clip-rule="evenodd" d="M37.3239 15.296C32.3987 15.296 28.3917 19.5522 28.3917 24.7839C28.3917 30.0156 32.3987 34.2713 37.3239 34.2713C42.249 34.2713 46.256 30.0156 46.256 24.7839C46.256 19.5522 42.249 15.296 37.3239 15.296ZM37.3239 34.7738C32.1213 34.7738 27.8892 30.2924 27.8892 24.7839C27.8892 19.2749 32.1213 14.7935 37.3239 14.7935C42.5264 14.7935 46.7585 19.2749 46.7585 24.7839C46.7585 30.2924 42.5264 34.7738 37.3239 34.7738Z" fill="black"/>
<path fill-rule="evenodd" clip-rule="evenodd" d="M37.0549 28.2326C36.9152 28.2095 36.7825 28.306 36.7604 28.4462C36.6423 29.1793 35.884 29.1512 35.7976 29.1437C35.6554 29.1256 35.5337 29.2396 35.5227 29.3808C35.5121 29.5226 35.6182 29.6462 35.7594 29.6577C35.7915 29.6597 35.8257 29.6612 35.8614 29.6612C36.3358 29.6612 37.1232 29.4321 37.2679 28.5276C37.2905 28.3879 37.1956 28.2552 37.0549 28.2326ZM32.1599 21.105C32.1146 21.105 31.0664 21.0894 30.1347 21.8899C30.0267 21.9824 30.0146 22.1447 30.1066 22.2527C30.1579 22.312 30.2297 22.3422 30.3021 22.3422C30.3614 22.3422 30.4212 22.3215 30.4699 22.2798C31.2483 21.6115 32.1413 21.621 32.1483 21.6195C32.287 21.61 32.4071 21.5095 32.4101 21.3683C32.4131 21.2261 32.3016 21.1085 32.1599 21.105ZM38.2559 21.8899C37.3242 21.0894 36.2744 21.1035 36.2307 21.105C36.089 21.1085 35.9765 21.2271 35.9795 21.3688C35.9835 21.5115 36.1001 21.608 36.2433 21.6195C36.2483 21.6175 37.1358 21.6055 37.9207 22.2798C37.9689 22.3215 38.0287 22.3422 38.088 22.3422C38.1604 22.3422 38.2322 22.312 38.2835 22.2527C38.3755 22.1447 38.3634 21.9824 38.2559 21.8899ZM31.6237 23.5055C31.3307 23.5055 31.0935 23.8824 31.0935 24.3482C31.0935 24.813 31.3307 25.1904 31.6237 25.1904C31.9162 25.1904 32.1533 24.813 32.1533 24.3482C32.1533 23.8824 31.9162 23.5055 31.6237 23.5055ZM36.7669 23.5055C36.4739 23.5055 36.2373 23.8824 36.2373 24.3482C36.2373 24.813 36.4739 25.1904 36.7669 25.1904C37.0594 25.1904 37.2966 24.813 37.2966 24.3482C37.2966 23.8824 37.0594 23.5055 36.7669 23.5055ZM34.6845 27.1346L33.4011 26.9788L33.8036 25.4482C33.8398 25.311 33.7579 25.1703 33.6207 25.1341C33.484 25.0959 33.3423 25.1798 33.3061 25.3175L32.8282 27.1331C32.8091 27.205 32.8227 27.2813 32.8644 27.3432C32.9061 27.405 32.9719 27.4452 33.0458 27.4537L34.6232 27.6452C34.6332 27.6467 34.6438 27.6472 34.6538 27.6472C34.7825 27.6472 34.893 27.5517 34.9091 27.4215C34.9262 27.2798 34.8257 27.1522 34.6845 27.1346Z" fill="black"/>
<path fill-rule="evenodd" clip-rule="evenodd" d="M44.0669 4.24502C44.0669 0.571151 41.0885 -2.40674 37.4147 -2.40674C33.7408 -2.40674 30.7623 0.571151 30.7623 4.24502C30.7623 7.91939 33.7408 10.8973 37.4147 10.8973C41.0885 10.8973 44.0669 7.91939 44.0669 4.24502ZM56.5076 25.0199C50.2976 24.1727 53.0564 10.8973 41.1041 10.8973H37.4147H35.2805C23.3277 10.8973 26.1402 24.1727 19.9307 25.0199C9.98093 26.3762 11.8543 36.3909 11.8543 36.3909H33.9162L34.6167 34.2055H34.6177C30.7739 32.9412 27.9824 29.1417 27.9824 24.6495C27.9824 22.4752 28.6442 20.4686 29.7553 18.8279H40.5544C41.4865 18.8279 42.2709 19.5269 42.377 20.4531L42.8624 24.7073C43.3619 24.6129 43.9167 24.6732 44.582 25.4546C44.8287 25.744 45.0036 26.1108 45.0006 26.4907C44.9935 27.4802 44.1885 28.2807 43.1976 28.2807C43.1373 28.2807 43.0805 28.2686 43.0227 28.2631L43.1322 32.7517L43.1825 34.8055L43.2212 36.3909H64.5835C64.5835 36.3909 66.4574 26.3762 56.5076 25.0199Z" fill="#EE7A08"/>
<path fill-rule="evenodd" clip-rule="evenodd" d="M64.363 36.1337H43.4725L43.2866 28.5366C44.374 28.4893 45.2499 27.5903 45.2579 26.4928C45.2609 26.0823 45.0906 25.6542 44.778 25.2878C44.1293 24.526 43.5479 24.3969 43.0886 24.419L42.6323 20.424C42.5122 19.3672 41.6182 18.5702 40.5549 18.5702H29.7554C29.6699 18.5702 29.59 18.6124 29.5423 18.6828C28.3534 20.4386 27.7257 22.5024 27.7257 24.6496C27.7257 29.0819 30.3549 32.9533 34.2951 34.3664L33.7288 36.1337H12.076C11.9518 35.2206 11.6081 31.5136 13.6589 28.6724C15.0066 26.8054 17.1287 25.6612 19.9654 25.2748C22.6679 24.9059 23.7569 22.3029 24.9101 19.5461C26.5559 15.6129 28.4212 11.1547 35.281 11.1547H41.1042C47.9655 11.1547 49.8479 15.614 51.5092 19.5481C52.672 22.3039 53.771 24.9059 56.4735 25.2748C59.3082 25.6612 61.4298 26.8034 62.7785 28.6694C64.8278 31.5061 64.4856 35.2186 64.363 36.1337ZM31.0197 4.24561C31.0197 0.719477 33.8886 -2.14937 37.4147 -2.14937C40.9408 -2.14937 43.8097 0.719477 43.8097 4.24561C43.8097 7.77174 40.9408 10.6406 37.4147 10.6406C33.8886 10.6406 31.0197 7.77174 31.0197 4.24561ZM63.1976 28.3717C61.7635 26.3853 59.5243 25.1717 56.5423 24.7652C54.1318 24.4361 53.1358 22.0783 51.9831 19.3486C50.3449 15.4687 48.3067 10.6406 41.1042 10.6406H40.0217C42.5423 9.60892 44.3243 7.13254 44.3243 4.24561C44.3243 0.435557 41.2248 -2.66394 37.4147 -2.66394C33.6047 -2.66394 30.5051 0.435557 30.5051 4.24561C30.5051 7.14259 32.2996 9.6245 34.8333 10.6496C27.9966 10.8476 26.0247 15.5501 24.4363 19.3481C23.2931 22.0778 22.3076 24.4361 19.8961 24.7652C16.9142 25.1717 14.675 26.3853 13.2413 28.3717C10.7699 31.7965 11.5669 36.2498 11.6021 36.4377C11.6247 36.5598 11.7312 36.6478 11.8549 36.6478H33.9162C34.0278 36.6478 34.1273 36.5759 34.1614 36.4689L34.863 34.2834C34.9057 34.1498 34.8323 34.0051 34.6981 33.9613C30.8353 32.691 28.2398 28.9493 28.2398 24.6496C28.2398 22.6506 28.8111 20.73 29.8926 19.0843H40.5549C41.3569 19.0843 42.0308 19.6858 42.1207 20.4823L42.6067 24.7361C42.6147 24.8074 42.6524 24.8722 42.7097 24.9145C42.7675 24.9567 42.8388 24.9727 42.9107 24.9602C43.3192 24.8813 43.781 24.9109 44.3871 25.6215C44.6192 25.8939 44.7464 26.2019 44.7434 26.4893C44.7373 27.3351 44.0439 28.0235 43.1976 28.0235C43.1695 28.0235 43.1429 28.0195 43.1162 28.016L43.0494 28.0074C42.9755 27.9989 42.9032 28.023 42.8484 28.0743C42.7936 28.1245 42.7645 28.1949 42.7655 28.2692L42.9645 36.397C42.968 36.5367 43.082 36.6478 43.2217 36.6478H64.5836C64.7077 36.6478 64.8137 36.5598 64.8363 36.4377C64.872 36.2498 65.6695 31.7965 63.1976 28.3717Z" fill="black"/>
<path fill-rule="evenodd" clip-rule="evenodd" d="M69.5142 73.1876C69.5142 73.1876 68.0519 72.5278 65.8052 71.459L65.4489 68.7972L74.4976 75.7173L69.5142 73.1876ZM85.2313 61.5489L85.2368 61.5464C76.7836 49.2183 62.8841 41.6791 47.9358 41.6791H44.3087C43.3373 43.7248 40.9323 45.1771 38.1102 45.1856C35.2886 45.1771 32.8836 43.7248 31.9127 41.6791H28.2851C23.9368 41.6791 19.5368 42.2836 15.2745 43.4444C4.51573 46.3741 -4.39131 53.561 -9.77774 63.0384C-9.77925 63.0409 -9.78076 63.0429 -9.78277 63.0444C-11.9084 65.8278 -13.1551 69.3811 -13.8657 72.968C-13.8692 72.9806 -13.8727 72.9916 -13.8757 73.0042C-13.8757 73.0042 -13.8767 73.0153 -13.8767 73.0188C-15.4667 81.1027 -14.3325 89.3459 -14.3315 89.355L-15.5124 82.656L-30.1165 85.4344C-30.1296 85.4062 -32.1567 85.8494 -32.1567 85.8494C-31.7693 87.7188 -31.3467 89.5771 -30.8738 91.3851C-28.3201 101.15 -22.8236 106.251 -14.8521 106.692C3.1705 107.691 8.37201 80.1364 8.37201 80.1364L10.772 68.7972L9.30518 79.758L6.14387 98.7786H70.0775L69.4233 94.4459C72.0162 95.9213 74.362 97.0143 76.3258 97.963C87.3956 103.311 99.7308 97.0479 96.1027 79.554C94.8077 73.3107 90.3353 67.0087 85.2313 61.5489Z" fill="#FF5613"/>
<path fill-rule="evenodd" clip-rule="evenodd" d="M66.0414 71.2862C68.1897 72.3063 69.6057 72.9465 69.6198 72.9525C69.6233 72.9546 69.6273 72.9561 69.6304 72.9576L72.1163 74.2199L65.7861 69.3787L66.0414 71.2862ZM74.4972 75.9737C74.458 75.9737 74.4178 75.9651 74.3811 75.946L69.4027 73.4194C69.3022 73.3737 67.85 72.7164 65.6947 71.6907C65.6158 71.6536 65.5615 71.5792 65.55 71.4928L65.1937 68.8309C65.1801 68.7279 65.2299 68.6264 65.3193 68.5747C65.4098 68.5219 65.5218 68.5284 65.6047 68.5922L74.6535 75.5118C74.759 75.5928 74.7856 75.741 74.7148 75.8541C74.6665 75.9304 74.5831 75.9737 74.4972 75.9737ZM-30.6255 91.3194C-28.1169 100.908 -22.8054 105.994 -14.838 106.435C2.74945 107.417 8.06704 80.3616 8.1188 80.0882L10.5203 68.7435C10.549 68.6088 10.6806 68.5199 10.8158 68.543C10.952 68.5666 11.0454 68.6937 11.0268 68.8309L9.56 79.7917L6.44895 98.5209H69.7721L69.1701 94.4887C69.153 94.3912 69.1942 94.2917 69.2756 94.235C69.357 94.1777 69.4645 94.1721 69.5505 94.2224C71.7992 95.5013 73.8465 96.4852 75.6525 97.353L76.4374 97.7309C81.9042 100.372 87.7274 100.118 91.6354 97.0696C95.9851 93.6752 97.4821 87.4731 95.8505 79.6063C94.7329 74.2164 91.0967 68.1998 85.0429 61.7244C85.0213 61.7008 85.0042 61.6737 84.9927 61.645C76.5077 49.3023 62.6595 41.9365 47.9359 41.9365H44.468C43.3786 44.0626 40.9037 45.434 38.1108 45.443C35.3168 45.434 32.8424 44.0626 31.7525 41.9365H28.2846C23.9761 41.9365 19.6218 42.5274 15.3424 43.6922C4.79216 46.5651 -4.05005 53.4802 -9.55457 63.1651C-9.56161 63.1787 -9.57417 63.1953 -9.58422 63.2078C-11.4516 65.6536 -12.8093 68.9566 -13.6139 73.0179C-13.6139 73.0345 -13.6209 73.052 -13.6244 73.0686C-15.1767 80.9601 -14.1229 88.9807 -14.0772 89.3184C-14.0581 89.4576 -14.1541 89.5867 -14.2923 89.6078C-14.4315 89.6319 -14.5606 89.537 -14.5852 89.3993L-15.7204 82.9571L-30.0687 85.6867C-30.0873 85.6902 -30.1059 85.6912 -30.125 85.6912C-30.2757 85.7108 -31.0742 85.8777 -31.8531 86.046C-31.4461 87.9912 -31.0441 89.7189 -30.6255 91.3194ZM-14.8661 106.949C-23.0823 106.494 -28.5516 101.279 -31.123 91.45C-31.5617 89.7726 -31.9823 87.9576 -32.4089 85.9013C-32.4375 85.7631 -32.3496 85.6279 -32.2114 85.5978C-30.9757 85.3279 -30.425 85.2073 -30.1627 85.1907L-30.1647 85.1812L-15.5601 82.4028C-15.4928 82.3912 -15.4229 82.4048 -15.3661 82.444C-15.3093 82.4827 -15.2712 82.543 -15.2591 82.6108L-14.9531 84.348C-15.0445 81.2425 -14.9375 77.0812 -14.1294 72.9691C-14.1279 72.951 -14.1234 72.9319 -14.1184 72.9144C-13.2983 68.7787 -11.9083 65.4043 -9.98724 62.8882C-4.42894 53.1063 4.52382 46.1048 15.2072 43.1958C19.5304 42.0184 23.9304 41.4214 28.2846 41.4214H31.9123C32.0118 41.4214 32.1022 41.4792 32.1449 41.5681C33.1097 43.6008 35.4515 44.9199 38.1108 44.9284C40.7691 44.9199 43.1108 43.6008 44.0761 41.5681C44.1188 41.4792 44.2093 41.4214 44.3082 41.4214H47.9359C62.8475 41.4214 76.8711 48.8907 85.449 61.4003C85.4515 61.4053 85.4545 61.4093 85.457 61.4139C91.5535 67.9445 95.2193 74.0294 96.3545 79.5018C98.0279 87.5701 96.4645 93.953 91.952 97.4747C87.8886 100.646 81.858 100.921 76.2138 98.1943L75.4299 97.8169C73.7429 97.0068 71.8464 96.0948 69.768 94.935L70.3304 98.735C70.3434 98.8093 70.3228 98.8862 70.2736 98.944C70.2248 99.0013 70.153 99.0355 70.0771 99.0355H6.14392C6.06805 99.0355 5.99619 99.0013 5.94694 98.944C5.8982 98.8862 5.87759 98.8093 5.89016 98.735L9.05146 79.7144L9.61427 75.5053L8.62332 80.1892C8.57257 80.4566 3.36201 106.974 -13.9129 106.975C-14.2274 106.975 -14.5435 106.967 -14.8661 106.949Z" fill="black"/>
<path fill-rule="evenodd" clip-rule="evenodd" d="M-33.8303 51.5013C-23.5188 63.0184 -21.5859 81.9164 -21.2347 89.6812L-21.1619 93.1797L-16.6784 93.351L-13.2608 91.2455L-9.36183 92.1922L-5.9573 90.0943L-5.95329 90.0923L-2.05781 91.0355L-2.05027 91.0304L-2.04122 91.0324L1.37234 88.9314L5.2628 89.8757L5.26832 89.8716L5.27485 89.8736L8.6829 87.7737L12.5789 88.7169L12.5869 88.7123L12.5955 88.7144L16.0085 86.6139L16.0136 86.6149L19.8995 87.5576L23.3151 85.4526L27.2161 86.3988L30.6327 84.2938L32.8849 84.6199C32.8849 84.6199 24.0422 59.1983 32.0538 41.0661L24.608 36.7013C24.608 36.7013 24.6065 36.7088 24.607 36.7093C24.6065 36.7088 24.608 36.7013 24.608 36.7013L5.99245 39.2747L-9.59801 41.744L-28.0978 45.049C-28.0978 45.049 -28.0863 45.0696 -28.0819 45.0787C-28.0863 45.0696 -28.0978 45.049 -28.0978 45.049L-33.8303 51.5013Z" fill="#EFF2F7"/>
<path fill-rule="evenodd" clip-rule="evenodd" d="M24.5546 36.9681L6.02748 39.5304L-9.55794 41.9987L-27.9651 45.2862L-33.4865 51.5013C-23.2345 63.1173 -21.3231 82.044 -20.9785 89.6686L-20.9097 92.9324L-16.7474 93.0907L-13.3961 91.0264C-13.3378 90.9907 -13.2675 90.9796 -13.2007 90.9957L-9.40568 91.9163L-6.09261 89.8746C-6.03382 89.8389 -5.95945 89.8269 -5.89312 89.842L-2.09311 90.7621L1.23704 88.7123C1.29533 88.6771 1.36618 88.6661 1.43251 88.6817L5.22548 89.6023L8.54809 87.5545C8.60638 87.5194 8.67673 87.5083 8.74356 87.5234L12.5436 88.444L15.8737 86.3942C15.928 86.3611 15.9923 86.35 16.0551 86.3611L19.8551 87.2817L23.1798 85.2334C23.238 85.1977 23.3089 85.1867 23.3757 85.2023L27.1717 86.1229L30.4978 84.0746C30.5496 84.0435 30.6104 84.0309 30.6697 84.0389L32.5099 84.3058C31.4421 80.9998 24.4637 57.9349 31.7265 41.1726L24.5546 36.9681ZM5.9516 39.0209L24.5727 36.446C24.5893 36.444 24.6059 36.4435 24.6225 36.4445C24.623 36.4445 24.6235 36.4445 24.624 36.444C24.6245 36.444 24.6245 36.4445 24.625 36.4445C24.6642 36.4475 24.7029 36.4585 24.7375 36.4796L32.1843 40.844C32.2968 40.9103 32.3421 41.0505 32.2893 41.1706C24.4109 58.9993 33.0396 84.2822 33.128 84.5354C33.1571 84.6209 33.1406 84.7143 33.0833 84.7842C33.026 84.854 32.9365 84.8857 32.8481 84.8746L30.6883 84.5611L27.3506 86.6178C27.2918 86.6535 27.2215 86.6646 27.1546 86.6485L23.3581 85.7284L20.0335 87.7766C19.9752 87.8123 19.9049 87.8234 19.838 87.8073L16.0521 86.8887L12.7295 88.9334C12.6918 88.9565 12.6476 88.9716 12.6044 88.9711C12.5752 88.9746 12.5461 88.9731 12.5184 88.9671L8.72648 88.0495L5.4099 90.0927C5.37222 90.1158 5.33 90.1299 5.28628 90.1304C5.25764 90.1334 5.22899 90.1319 5.20135 90.1259L1.41592 89.2078L-1.90719 91.2515C-1.94487 91.2751 -1.9886 91.2897 -2.03232 91.2892C-2.06146 91.2927 -2.09111 91.2912 -2.11824 91.2852L-5.9107 90.3676L-9.22679 92.4108C-9.28508 92.4465 -9.35593 92.458 -9.42226 92.442L-13.2177 91.5214L-16.5439 93.5696C-16.5866 93.5962 -16.6368 93.6108 -16.6886 93.6073L-21.1717 93.4369C-21.3078 93.4319 -21.4163 93.3214 -21.4196 93.1857L-21.4926 89.6857C-21.8361 82.0847 -23.7463 63.15 -34.0225 51.6731C-34.1097 51.5756 -34.1101 51.4279 -34.0233 51.3304L-28.2902 44.8781C-28.2515 44.8339 -28.199 44.8053 -28.1431 44.7952L-9.64337 41.4907L5.9516 39.0209Z" fill="black"/>
<path fill-rule="evenodd" clip-rule="evenodd" d="M24.5678 36.447C24.5959 36.4425 24.6251 36.4425 24.6547 36.448C24.7944 36.4736 24.8869 36.6083 24.8612 36.7475C24.813 37.0108 20.1055 63.2169 26.2974 82.3621L32.9597 84.3736C33.0954 84.4148 33.1723 84.5581 33.1316 84.6942C33.0899 84.8309 32.9472 84.9068 32.8105 84.8656L26.02 82.8153C25.9396 82.7912 25.8758 82.7289 25.8497 82.649C19.5547 63.3681 24.3065 36.9194 24.3552 36.655C24.3758 36.544 24.4633 36.4636 24.5678 36.447Z" fill="black"/>
<path d="M-6.36642 62.7595C-6.49858 61.9374 -5.93878 61.1641 -5.11667 61.0319L8.05921 58.9163C8.88132 58.7841 9.65469 59.3434 9.78685 60.1656L9.86021 60.6238C9.99237 61.446 9.43258 62.2193 8.61097 62.3515L-4.56541 64.4671C-5.38752 64.5992 -6.16089 64.0394 -6.29255 63.2178L-6.36642 62.7595Z" fill="#954000"/>
<path fill-rule="evenodd" clip-rule="evenodd" d="M-4.68848 67.1676L9.25123 64.9596C9.79494 68.3923 7.45324 71.6154 4.02057 72.1591L2.51153 72.3983C-0.921138 72.942 -4.14476 70.6003 -4.68848 67.1676Z" fill="#FFBA00"/>
<path fill-rule="evenodd" clip-rule="evenodd" d="M-4.79419 67.4073C-4.15851 70.8937 -0.851477 73.252 2.66762 72.6947L4.17666 72.4555L4.32893 72.4294C7.81536 71.7942 10.1736 68.4872 9.61636 64.9686L9.57717 64.7203L-4.61128 66.9676L-4.57158 67.2158L-4.81982 67.255L-4.79419 67.4073ZM4.09827 71.959L2.58872 72.1982L2.43897 72.2198C-0.700222 72.6384 -3.62434 70.5565 -4.26907 67.4731L-4.27862 67.4239L9.15405 65.2962L9.15957 65.3465C9.5048 68.5279 7.29375 71.453 4.09827 71.959Z" fill="black"/>
<path fill-rule="evenodd" clip-rule="evenodd" d="M8.30902 59.0109L-5.63069 61.2184C-6.03471 58.6681 -4.29501 56.2742 -1.74526 55.8707L2.96128 55.1249C5.51052 54.7214 7.90499 56.4606 8.30902 59.0109Z" fill="#FFBA00"/>
<path fill-rule="evenodd" clip-rule="evenodd" d="M-5.76205 61.3057L-5.72286 61.554L8.46508 59.3067L8.42589 59.059L8.67413 59.0193L8.65051 58.8836C8.16257 56.2711 5.67966 54.5067 3.03845 54.9248L-1.66758 55.6705L-1.80376 55.6937C-4.41633 56.1816 -6.18065 58.664 -5.76205 61.3057ZM8.13142 58.8509L-5.29823 60.9781L-5.30979 60.8409C-5.46959 58.5771 -3.87311 56.5283 -1.58919 56.1665L3.11684 55.4213L3.24599 55.4027C5.52388 55.1092 7.64247 56.6123 8.1294 58.8424L8.13142 58.8509Z" fill="black"/>
<path fill-rule="evenodd" clip-rule="evenodd" d="M8.58479 62.5615L-4.29008 64.6007C-5.31018 64.7625 -6.26747 64.067 -6.42877 63.0474C-6.59058 62.0273 -5.89511 61.0696 -4.87501 60.9082L7.99987 58.8691C9.01947 58.7077 9.97725 59.4037 10.1386 60.4233C10.2999 61.4429 9.60439 62.4002 8.58479 62.5615ZM-4.36847 64.1047L8.5059 62.0655C9.25163 61.9474 9.76017 61.2474 9.64208 60.5022C9.52399 59.756 8.82399 59.2474 8.07826 59.3655L-4.79611 61.4047C-5.54235 61.5228 -6.05038 62.2228 -5.93229 62.9691C-5.8142 63.7143 -5.1147 64.2228 -4.36847 64.1047Z" fill="black"/>
<path fill-rule="evenodd" clip-rule="evenodd" d="M2.63567 64.2214L8.55979 63.2832C8.8427 63.2384 9.03667 62.9796 8.99295 62.7053C8.94974 62.4319 8.68541 62.2455 8.4025 62.2902L2.47839 63.2289C2.19547 63.2736 2.00099 63.5324 2.04471 63.8058C2.08793 64.0801 2.35275 64.2661 2.63567 64.2214Z" fill="#FF4200"/>
<path fill-rule="evenodd" clip-rule="evenodd" d="M1.94566 63.6087C2.01149 64.0248 2.40245 64.3087 2.81853 64.2429L8.66024 63.3178L8.72858 63.3037C9.10647 63.2082 9.35622 62.8379 9.2939 62.4449C9.22808 62.0293 8.83763 61.7454 8.42155 61.8112L2.57984 62.7364L2.51199 62.7504C2.1336 62.8459 1.88385 63.2163 1.94566 63.6087ZM8.58185 62.8213L2.74014 63.7464L2.6929 63.7499C2.56978 63.7469 2.46225 63.6565 2.44215 63.5303C2.41954 63.3886 2.51652 63.2555 2.65873 63.2328L8.50044 62.3077L8.54717 62.3047C8.67029 62.3072 8.77783 62.3977 8.79743 62.5238C8.82004 62.6655 8.72356 62.7992 8.58185 62.8213Z" fill="black"/>
<path fill-rule="evenodd" clip-rule="evenodd" d="M-4.21626 65.3068L1.70836 64.3681C1.99128 64.3234 2.18525 64.0646 2.14153 63.7907C2.09831 63.5169 1.834 63.3309 1.55108 63.3757L-4.37354 64.3138C-4.65646 64.3586 -4.84992 64.6174 -4.80671 64.8912C-4.76349 65.1651 -4.49917 65.3515 -4.21626 65.3068Z" fill="#FF4200"/>
<path fill-rule="evenodd" clip-rule="evenodd" d="M-4.90564 64.6942C-4.83931 65.1103 -4.44936 65.3942 -4.03328 65.3283L1.80843 64.4032L1.87677 64.3892C2.25516 64.2937 2.50441 63.9233 2.44209 63.5304C2.37627 63.1148 1.98581 62.8309 1.57024 62.8967L-4.27198 63.8218L-4.33982 63.8359C-4.71821 63.9314 -4.96745 64.3017 -4.90564 64.6942ZM1.73003 63.9067L-4.11168 64.8319L-4.1584 64.8349C-4.28152 64.8324 -4.38906 64.7419 -4.40916 64.6153C-4.43127 64.4741 -4.33479 64.3404 -4.19308 64.3183L1.64863 63.3932L1.69536 63.3897C1.81847 63.3927 1.92601 63.4831 1.94612 63.6087C1.96823 63.751 1.87174 63.8841 1.73003 63.9067Z" fill="black"/>
<path fill-rule="evenodd" clip-rule="evenodd" d="M10.4702 64.349C10.4848 64.4414 11.2707 64.9686 11.1793 64.9902C9.97071 65.2766 9.73655 64.0907 8.51042 64.2846C7.28328 64.4791 7.45815 65.5806 6.23152 65.7751C5.00489 65.9696 4.83051 64.8676 3.60438 65.0615C2.37775 65.256 2.55212 66.358 1.32599 66.552C0.0983553 66.7465 -0.0760207 65.6444 -1.30416 65.8389C-2.5323 66.0339 -2.35793 67.1354 -3.58607 67.3299C-4.81471 67.5248 -6.82627 66.3394 -6.82627 66.3394C-6.84084 66.247 -5.74386 65.9902 -5.772 65.9002C-5.88556 65.5354 -6.55441 65.3595 -6.46295 65.3379C-5.25441 65.0515 -5.02024 66.2379 -3.79361 66.0434C-2.56647 65.8495 -2.74135 64.747 -1.51472 64.553C-0.288587 64.3585 -0.113707 65.461 1.11242 65.2666C2.33906 65.0726 2.16418 63.9701 3.39081 63.7756C4.61845 63.5811 4.79282 64.6836 6.02096 64.4892C7.2491 64.2947 7.07473 63.1922 8.30287 62.9977C9.53101 62.8032 9.65363 63.8188 10.8928 63.7158L10.4702 64.349Z" fill="#009E80"/>
<path fill-rule="evenodd" clip-rule="evenodd" d="M11.432 64.9279C11.4616 65.0686 11.3737 65.2028 11.237 65.2344C10.6486 65.3741 10.2943 65.2601 9.71591 64.8837L9.57671 64.7937C9.17018 64.5395 8.93752 64.4716 8.54958 64.5329C8.1139 64.6018 7.92495 64.746 7.56566 65.1882L7.48174 65.2902C7.09732 65.746 6.81792 65.9365 6.27068 66.0234C5.68425 66.1164 5.3536 66.0003 4.78123 65.6294L4.68224 65.5666C4.26967 65.3093 4.04757 65.246 3.64355 65.3098C3.20787 65.3792 3.01893 65.5229 2.66013 65.9651L2.57571 66.0671C2.19129 66.5229 1.91239 66.7133 1.36515 66.8003C0.778216 66.8932 0.447568 66.7772 -0.125296 66.4068L-0.224294 66.3435C-0.637359 66.0862 -0.859972 66.0234 -1.265 66.0872C-1.70118 66.1566 -1.89062 66.3008 -2.25042 66.743L-2.33435 66.845C-2.71977 67.3008 -2.99917 67.4917 -3.54691 67.5782C-3.85545 67.6269 -4.21022 67.6023 -4.6057 67.5163C-4.96901 67.4369 -5.35896 67.3073 -5.76349 67.14C-6.05796 67.0179 -6.34339 66.8827 -6.60922 66.7445C-6.66248 66.7169 -6.71123 66.6907 -6.75495 66.6671L-6.95394 66.556C-7.01877 66.5179 -7.06299 66.4525 -7.07455 66.3787C-7.09113 66.2751 -7.05193 66.1983 -6.99213 66.14C-6.96701 66.1158 -6.93987 66.0967 -6.90821 66.0792C-6.86851 66.0565 -6.81877 66.0349 -6.75595 66.0108L-6.68812 65.9852L-6.15746 65.8093L-6.2052 65.7761L-6.26299 65.7405C-6.29665 65.7204 -6.31726 65.7088 -6.34892 65.6927L-6.49967 65.6194C-6.55093 65.5947 -6.57605 65.5817 -6.60319 65.5631L-6.62881 65.546C-6.665 65.5169 -6.7047 65.4646 -6.71827 65.3917C-6.75244 65.2118 -6.64188 65.1219 -6.52128 65.0937C-5.93234 64.954 -5.57806 65.0676 -4.99917 65.445L-4.85998 65.5344C-4.45395 65.7887 -4.22078 65.8571 -3.83284 65.7957C-3.39716 65.7264 -3.20821 65.5822 -2.84942 65.14L-2.765 65.038C-2.38058 64.5822 -2.10168 64.3912 -1.55445 64.3048C-0.968014 64.2118 -0.637362 64.3279 -0.0644984 64.6988L0.0339937 64.7616C0.446557 65.0194 0.668672 65.0827 1.07319 65.0184C1.50837 64.9495 1.69732 64.8053 2.05661 64.3631L2.14053 64.2611C2.52495 63.8053 2.80385 63.6143 3.35158 63.5274C3.93802 63.4349 4.26867 63.5505 4.84204 63.9214L4.94103 63.9847C5.35359 64.242 5.57621 64.3053 5.98123 64.241C6.41792 64.1721 6.60686 64.0279 6.96666 63.5852L7.05108 63.4832C7.43601 63.0274 7.71541 62.8365 8.26365 62.7495C8.85209 62.6566 9.19078 62.7671 9.72998 63.1113L9.87319 63.2018C10.2456 63.4294 10.4762 63.4983 10.8722 63.4656C11.0817 63.4485 11.2184 63.6807 11.1018 63.8555L10.7928 64.3189L11.1908 64.6344L11.3043 64.7319C11.33 64.756 11.3511 64.7777 11.3682 64.7988C11.3993 64.837 11.4209 64.8736 11.432 64.9279ZM-4.49866 67.0254C-4.15897 67.0993 -3.86399 67.1199 -3.6258 67.0822C-3.18912 67.0128 -3.00017 66.8686 -2.64037 66.4264L-2.55595 66.3244C-2.17103 65.8686 -1.89163 65.6777 -1.34339 65.5912C-0.756457 65.4983 -0.425296 65.6138 0.147568 65.9847L0.246559 66.0475C0.659122 66.3048 0.881735 66.3681 1.28626 66.3038C1.72194 66.2349 1.91088 66.0907 2.26968 65.6485L2.3541 65.547C2.73802 65.0912 3.01741 64.9003 3.56465 64.8138C4.15108 64.7209 4.48174 64.8365 5.0541 65.2078L5.1531 65.2706C5.56566 65.5279 5.78777 65.5912 6.19229 65.5269C6.62746 65.4581 6.81641 65.3138 7.17521 64.8716L7.25963 64.7701C7.64405 64.3143 7.92344 64.1234 8.47068 64.0364C9.04053 63.9465 9.38475 64.0681 9.94757 64.4349L10.0817 64.5214C10.23 64.6138 10.3541 64.6807 10.4712 64.7244L10.5119 64.7385L10.4199 64.6621C10.2822 64.544 10.239 64.4983 10.2219 64.3882C10.2119 64.3254 10.226 64.2616 10.2611 64.2093L10.429 63.9581L10.3822 63.951C10.1255 63.9068 9.8948 63.8038 9.6144 63.6324L9.36717 63.4772C8.98023 63.2405 8.75359 63.1807 8.34204 63.246C7.90586 63.3148 7.71641 63.4591 7.35661 63.9018L7.27269 64.0038C6.88727 64.4596 6.60787 64.6505 6.06013 64.7375C5.47269 64.8304 5.14204 64.7143 4.56867 64.3435L4.46968 64.2807C4.05712 64.0229 3.8345 63.9601 3.42998 64.0239C2.9943 64.0927 2.80586 64.237 2.44656 64.6797L2.36264 64.7812C1.97822 65.2375 1.69933 65.4279 1.15159 65.5148C0.565157 65.6078 0.234501 65.4917 -0.337861 65.1204L-0.436859 65.0576C-0.849422 64.8003 -1.07153 64.737 -1.47555 64.8008C-1.91123 64.8701 -2.10018 65.0138 -2.45897 65.4565L-2.54339 65.5586C-2.92781 66.0143 -3.2067 66.2053 -3.75444 66.2917C-4.32379 66.3822 -4.66852 66.2601 -5.23133 65.8932L-5.3655 65.8073C-5.4248 65.7701 -5.48007 65.737 -5.53283 65.7078L-5.60369 65.6711L-5.59163 65.6892C-5.57957 65.7108 -5.56852 65.7329 -5.55847 65.7555L-5.53234 65.8254C-5.49817 65.9349 -5.53434 66.0254 -5.59716 66.0917C-5.62279 66.1189 -5.65093 66.1395 -5.6841 66.1586C-5.72379 66.1817 -5.77304 66.2038 -5.83635 66.2284C-5.86952 66.241 -5.90269 66.253 -5.94188 66.2671L-6.24289 66.3671L-6.18359 66.3968C-6.05243 66.4616 -5.91726 66.5254 -5.77957 66.5862L-5.57103 66.6756C-5.19213 66.8324 -4.82982 66.953 -4.49866 67.0254Z" fill="black"/>
<path fill-rule="evenodd" clip-rule="evenodd" d="M33.272 49.0318C34.3514 50.6776 35.474 52.3886 36.6876 54.0218C41.8434 60.959 54.0841 66.3514 54.0841 66.3514L48.674 81.3755C48.674 81.3755 38.8439 74.0821 34.6253 73.4263C32.6776 73.1233 30.1675 74.7268 27.7861 76.2479C25.0107 78.0208 22.4102 79.6826 21.0761 78.0856C18.5901 75.1097 24.3328 70.7836 25.8379 69.7283C24.0188 70.9509 15.5338 76.3856 13.2208 72.9886C10.9866 69.7072 19.6268 65.9268 19.6268 65.9268C19.6268 65.9268 10.4434 69.9389 9.25043 65.6228C8.05445 61.2936 19.9082 59.0836 19.9082 59.0836L13.8841 59.1363C9.69616 58.9253 9.93234 56.8057 9.93234 56.8057C9.79767 51.5152 25.8243 51.7178 25.8243 51.7178C25.8243 51.7178 16.9454 41.1544 22.4394 39.961C26.7137 39.0323 29.767 43.6876 33.272 49.0318ZM-25.3261 63.1183L-14.5988 61.7273C-13.2988 61.5655 -12.0948 62.4348 -11.839 63.7198C-11.5903 64.9705 -12.3234 66.2082 -13.54 66.5916L-23.6462 69.6831L-15.3797 68.7364C-14.0611 68.5972 -12.8536 69.4856 -12.5953 70.7866C-12.3074 72.2313 -13.2938 73.6208 -14.7531 73.8263L-22.8768 75.0158C-22.7193 76.8233 -19.8516 76.5982 -17.5546 76.4178C-16.84 76.3615 -16.1807 76.3097 -15.6752 76.3248C-14.728 76.3529 -13.9295 77.0333 -13.7445 77.963C-13.5662 78.858 -13.9978 79.7715 -14.8164 80.175C-15.8898 80.7042 -17.7571 81.3961 -20.9169 82.0243C-21.1894 82.0781 -21.4658 82.1017 -21.7426 82.1233H-21.7431C-21.8703 82.1328 -21.9984 82.1364 -22.1266 82.1394C-22.2833 82.7152 -22.2663 83.3454 -22.0522 83.9002L-30.1165 85.4343C-30.1245 85.4173 -30.909 85.5811 -31.5029 85.7082C-32.1326 82.6766 -32.6709 79.6188 -33.184 76.7052C-33.5933 74.3801 -33.9866 72.1459 -34.3974 70.0896C-34.3687 70.1414 -34.3328 70.1921 -34.2969 70.2429C-34.2863 70.2575 -34.2757 70.2725 -34.2653 70.2876C-34.6673 69.1499 -35.025 67.9353 -35.3311 66.6429V66.6424C-35.36 66.5203 -35.3878 66.3972 -35.4155 66.2735C-35.4401 66.1635 -35.4648 66.0539 -35.4904 65.9449C-35.5117 65.8469 -35.5347 65.7509 -35.5576 65.6554C-35.5892 65.5233 -35.6208 65.3916 -35.6482 65.2539C-36.3954 61.4972 -35.524 58.0811 -34.1215 55.2992C-33.9457 54.9519 -33.7622 54.6137 -33.5723 54.2861C-32.2426 51.9951 -30.6105 50.2183 -29.4024 49.1519C-27.9688 47.8871 -25.7075 48.4725 -25.0271 50.2595L-24.9587 50.4384C-24.5612 51.4841 -24.8577 52.6429 -25.6522 53.4308C-27.3316 55.0961 -28.2773 57.9695 -28.2773 57.9695L-17.9139 56.1801C-16.6154 55.9559 -15.3752 56.8077 -15.1179 58.0997C-14.8682 59.3564 -15.6375 60.5911 -16.8757 60.9213L-25.3261 63.1183Z" fill="#DCAD7F"/>
<path fill-rule="evenodd" clip-rule="evenodd" d="M48.549 80.9641C46.8867 79.751 38.548 73.7756 34.6651 73.1721C34.4892 73.1445 34.3098 73.1319 34.1274 73.1319C32.1862 73.1319 29.8827 74.6043 27.648 76.0314C24.9806 77.7349 22.4616 79.3425 21.2736 77.9204C20.8128 77.3691 20.6409 76.754 20.748 76.041C21.1203 73.552 24.7837 70.7882 25.9651 69.955C26.1721 69.8148 26.3018 69.7249 26.3374 69.6998C26.35 69.6907 26.3575 69.6781 26.3681 69.6676C26.941 69.3063 27.5957 68.9616 28.2294 68.7781C28.3661 68.7384 28.445 68.5957 28.4058 68.4595C28.3656 68.3239 28.2244 68.2445 28.0867 68.2842C27.0399 68.5867 25.9756 69.2706 25.245 69.8108C23.244 71.1093 17.9304 74.3058 14.9495 73.7716C14.2706 73.648 13.7751 73.345 13.4339 72.844C13.1103 72.3686 13.0294 71.8721 13.1867 71.3254C13.9344 68.7259 19.6726 66.1877 19.7304 66.1626C19.7404 66.158 19.7475 66.15 19.7565 66.144C21.2329 65.4595 23.4409 64.5606 25.8832 63.9962C26.0213 63.9641 26.1073 63.8259 26.0756 63.6877C26.0435 63.549 25.9073 63.4631 25.7666 63.4947C23.2058 64.0867 20.9028 65.0389 19.4018 65.743C18.5409 66.1013 13.25 68.2078 10.7103 66.9972C10.0806 66.6972 9.68417 66.2249 9.49924 65.554C9.33944 64.9776 9.42939 64.4289 9.77411 63.8771C11.6203 60.9219 19.8726 59.352 19.956 59.3364C19.9937 59.3294 20.0269 59.3128 20.0565 59.2912C20.358 59.2611 20.6862 59.2264 21.051 59.1872C21.9711 59.0897 23.1163 58.9681 24.5118 58.8475C24.653 58.8359 24.758 58.7113 24.746 58.5696C24.7334 58.4274 24.6113 58.3254 24.4676 58.3354C23.0671 58.4555 21.9188 58.5776 20.9967 58.6756C20.4033 58.7389 19.9038 58.7922 19.4776 58.8304L13.8972 58.8791C11.856 58.7761 10.9545 58.2103 10.558 57.7535C10.1525 57.2867 10.1867 56.8505 10.1897 56.7992C10.1731 56.1525 10.4188 55.5802 10.9399 55.0525C13.8691 52.0857 24.1379 51.9746 25.6384 51.9746C25.7641 51.9746 25.8168 51.9746 25.8249 51.9751C25.9244 51.9751 26.0148 51.9178 26.057 51.8284C26.1002 51.7369 26.0867 51.6294 26.0219 51.5525C25.9615 51.4807 19.9992 44.3364 21.0158 41.358C21.2208 40.758 21.7043 40.3837 22.4937 40.2118C26.5937 39.3269 29.5897 43.8862 33.0565 49.1721C34.1415 50.8259 35.2631 52.5359 36.4817 54.1751C41.2379 60.5746 52.0842 65.7183 53.7621 66.4872L48.549 80.9641ZM54.1882 66.1158C54.0661 66.0626 41.9495 60.6701 36.8947 53.8686C35.6847 52.241 34.5676 50.5374 33.4872 48.8902C29.9153 43.4455 26.8279 38.7374 22.3852 39.7093C21.4173 39.9193 20.7932 40.4183 20.5294 41.1917C19.56 44.0309 23.9761 49.8319 25.2817 51.4595C22.8842 51.4736 13.5058 51.7214 10.5741 54.6907C9.95753 55.3153 9.65552 56.0294 9.67662 56.7771C9.67411 56.8043 9.61079 57.4339 10.1535 58.0721C10.8218 58.858 12.0726 59.3023 13.8867 59.3927L17.5545 59.3616C14.8776 60.0651 10.6711 61.4706 9.33792 63.6043C8.91883 64.2756 8.80577 64.9781 9.00326 65.6907C9.22738 66.5028 9.72738 67.0987 10.4892 67.4616C12.0837 68.2224 14.5641 67.8193 16.5545 67.2696C14.9118 68.2887 13.1198 69.6977 12.6922 71.1827C12.4927 71.8761 12.5992 72.5324 13.0088 73.1329C13.4254 73.746 14.048 74.1309 14.8575 74.2776C17.0711 74.6822 20.3414 73.239 22.8289 71.8686C21.6058 73.0641 20.4535 74.5319 20.2389 75.9641C20.1108 76.8194 20.3259 77.5887 20.8786 78.2505C22.3575 80.0209 25.0621 78.2932 27.9249 76.4651C30.2892 74.954 32.7339 73.3892 34.5862 73.6807C38.6937 74.3194 48.4234 81.5098 48.5209 81.5817C48.5656 81.6153 48.6199 81.6324 48.6746 81.6324C48.6992 81.6324 48.7244 81.6294 48.7485 81.6219C48.8269 81.5982 48.8887 81.5395 48.9163 81.4626L54.3264 66.4384C54.3721 66.3113 54.3118 66.1706 54.1882 66.1158ZM-13.6153 66.345L-23.7212 69.4369C-23.8484 69.4761 -23.9252 69.6053 -23.8976 69.7349C-23.871 69.8656 -23.7478 69.947 -23.6167 69.9389L-15.353 68.9922C-14.153 68.8686 -13.0817 69.6595 -12.8475 70.8369C-12.7224 71.4656 -12.858 72.0993 -13.2289 72.6224C-13.6003 73.145 -14.154 73.4822 -14.7897 73.5716L-22.9137 74.7611C-23.0484 74.7812 -23.1448 74.9023 -23.1328 75.0379C-22.9534 77.0998 -19.9485 76.8626 -17.5344 76.6741C-16.8349 76.6194 -16.1731 76.5631 -15.6827 76.5817C-14.8525 76.6073 -14.1596 77.1952 -13.9967 78.0128C-13.84 78.8018 -14.2239 79.5957 -14.9304 79.9445C-15.9028 80.4239 -17.7395 81.1299 -20.9671 81.7716C-21.2167 81.8219 -21.475 81.8445 -21.7629 81.8671C-27.3685 82.3038 -32.8474 76.0204 -35.0805 66.5837L-35.2388 65.8887C-35.2609 65.7877 -35.2845 65.6892 -35.3082 65.5897C-35.3388 65.4626 -35.369 65.3359 -35.3956 65.2043C-36.0398 61.9646 -35.5333 58.6716 -33.8916 55.4153C-33.7182 55.0716 -33.5368 54.7384 -33.3494 54.4153C-31.8071 51.757 -29.9564 49.9842 -29.2318 49.345C-28.6197 48.8058 -27.8112 48.6093 -27.0147 48.8058C-26.2132 49.0033 -25.5604 49.5812 -25.2674 50.351L-25.1991 50.5304C-24.8484 51.4515 -25.0976 52.5183 -25.8333 53.248C-27.5368 54.9374 -28.482 57.7696 -28.5212 57.8892C-28.5494 57.9751 -28.5308 58.0691 -28.4715 58.1369C-28.4127 58.2058 -28.3222 58.2369 -28.2333 58.2234L-17.8701 56.4339C-16.6993 56.2309 -15.6023 56.9852 -15.3701 58.15C-15.1475 59.2706 -15.8379 60.3781 -16.9405 60.6716L-25.3906 62.8686C-25.5217 62.9033 -25.6036 63.0334 -25.578 63.1671C-25.5524 63.3008 -25.4283 63.3902 -25.2926 63.3731L-14.5671 61.9827C-13.4058 61.8379 -12.3194 62.6229 -12.0912 63.7701C-11.8676 64.8942 -12.5239 66.0018 -13.6153 66.345ZM-14.6319 61.4721L-21.2971 62.3364L-16.8093 61.1696C-15.444 60.8058 -14.5902 59.4354 -14.8656 58.0495C-15.1525 56.6093 -16.5098 55.6797 -17.9576 55.9264L-27.883 57.6405C-27.5579 56.7977 -26.7152 54.8475 -25.4705 53.6133C-24.5906 52.7405 -24.2951 51.4585 -24.7182 50.347L-24.7865 50.1681C-25.1398 49.2405 -25.9262 48.5445 -26.8911 48.3058C-27.8554 48.0691 -28.8328 48.3068 -29.572 48.9596C-30.3152 49.6148 -32.2142 51.4334 -33.7946 54.157C-33.9865 54.4892 -34.173 54.8314 -34.3504 55.1827C-36.0458 58.545 -36.5669 61.95 -35.9001 65.3048C-35.8725 65.443 -35.8408 65.5766 -35.8087 65.7103C-35.7855 65.8053 -35.7624 65.9008 -35.7413 65.9988C-35.7413 66.0008 -35.7408 66.0018 -35.7403 66.0038L-35.581 66.7023C-33.3654 76.0671 -27.968 82.4023 -22.3107 82.4023C-22.1152 82.4023 -21.9182 82.3952 -21.7222 82.3792C-21.4177 82.356 -21.1433 82.3319 -20.8666 82.2761C-17.5842 81.6234 -15.7028 80.8988 -14.7028 80.4058C-13.7877 79.9545 -13.2902 78.9294 -13.4922 77.9123C-13.7018 76.8585 -14.5962 76.0998 -15.6671 76.0676C-16.1867 76.0505 -16.8606 76.1048 -17.5746 76.1606C-19.643 76.3239 -22.1906 76.5229 -22.5755 75.2319L-14.7168 74.0812C-13.9405 73.9721 -13.2636 73.5601 -12.8098 72.9209C-12.3555 72.2812 -12.1897 71.5058 -12.343 70.7359C-12.6289 69.2962 -13.9495 68.3349 -15.4088 68.4807L-20.8887 69.1083L-13.4626 66.8364C-12.1184 66.4133 -11.3118 65.0525 -11.5867 63.6696C-11.8671 62.259 -13.2013 61.2937 -14.6319 61.4721Z" fill="black"/>
<path fill-rule="evenodd" clip-rule="evenodd" d="M70.7953 95.4495C70.7525 95.4495 70.7088 95.4389 70.6691 95.4163C60.8224 89.863 48.0209 83.0736 47.8928 83.0052C47.8314 82.9731 47.7862 82.9178 47.7666 82.851C47.747 82.7841 47.7551 82.7128 47.7887 82.6525C49.3465 79.8706 54.2144 65.1479 54.2636 64.9992C54.2877 64.9268 54.343 64.8686 54.4149 64.8399C54.4862 64.8118 54.5671 64.8178 54.634 64.856L65.9309 71.2344C66.0551 71.3042 66.0988 71.461 66.0289 71.5851C65.9586 71.7082 65.8023 71.7525 65.6782 71.6826L54.6536 65.458C53.953 67.5696 49.937 79.6002 48.3616 82.6716C50.1299 83.6108 61.7938 89.8203 70.9219 94.968C71.0455 95.0379 71.0892 95.1947 71.0194 95.3188C70.9721 95.4022 70.8852 95.4495 70.7953 95.4495Z" fill="black"/>
<path fill-rule="evenodd" clip-rule="evenodd" d="M82.9154 82.1494C82.837 82.1494 82.7601 82.1142 82.7099 82.0469C79.6666 78.0147 71.1204 74.2841 71.0345 74.2464C70.9043 74.1906 70.8445 74.0389 70.9008 73.9087C70.9571 73.7781 71.1073 73.7178 71.239 73.7745C71.5948 73.9288 79.9953 77.5962 83.1204 81.7379C83.2058 81.8504 83.1832 82.0122 83.0702 82.0977C83.0234 82.1323 82.9692 82.1494 82.9154 82.1494Z" fill="black"/>
</g>
<path fill-rule="evenodd" clip-rule="evenodd" d="M38 0.560803C17.3563 0.560803 0.561305 17.3558 0.561305 38C0.561305 58.6437 17.3563 75.4387 38 75.4387C58.6437 75.4387 75.4387 58.6437 75.4387 38C75.4387 17.3558 58.6437 0.560803 38 0.560803ZM38 76C17.0467 76 0 58.9533 0 38C0 17.0467 17.0467 0 38 0C58.9533 0 76 17.0467 76 38C76 58.9533 58.9533 76 38 76Z" fill="black"/>
</svg>
