<svg width="76" height="76" viewBox="0 0 76 76" fill="none" xmlns="http://www.w3.org/2000/svg">
<path fill-rule="evenodd" clip-rule="evenodd" d="M75.7197 37.9995C75.7197 58.8312 58.8323 75.7191 38.0001 75.7191C17.168 75.7191 0.280518 58.8312 0.280518 37.9995C0.280518 17.1673 17.168 0.279907 38.0001 0.279907C58.8323 0.279907 75.7197 17.1673 75.7197 37.9995Z" fill="#EEF2F8"/>
<mask id="mask0_154_1399" style="mask-type:alpha" maskUnits="userSpaceOnUse" x="0" y="0" width="76" height="76">
<path fill-rule="evenodd" clip-rule="evenodd" d="M75.7197 37.9995C75.7197 58.8312 58.8323 75.7191 38.0001 75.7191C17.168 75.7191 0.280518 58.8312 0.280518 37.9995C0.280518 17.1673 17.168 0.279907 38.0001 0.279907C58.8323 0.279907 75.7197 17.1673 75.7197 37.9995Z" fill="white"/>
</mask>
<g mask="url(#mask0_154_1399)">
<path fill-rule="evenodd" clip-rule="evenodd" d="M31.553 43.1315C31.553 43.1315 34.3281 41.3184 33.8345 33.8309C33.8345 33.8309 38.2233 35.8849 43.0114 32.412L44.1158 43.045C44.1158 43.045 40.7961 46.8157 37.3153 46.45C33.8345 46.0844 31.553 43.1315 31.553 43.1315Z" fill="#DCAD7F"/>
<path fill-rule="evenodd" clip-rule="evenodd" d="M33.9411 33.6034C36.7786 34.9313 39.7418 34.4731 42.8639 32.2086C43.0205 32.095 43.2414 32.1936 43.2614 32.386L44.3658 43.019C44.373 43.0887 44.3508 43.1584 44.3044 43.211C42.042 45.7809 39.7006 46.9532 37.2891 46.6999C34.8991 46.4488 32.9165 45.307 31.3542 43.2851C31.2646 43.169 31.2929 43.0013 31.4156 42.9211C33.1665 41.7772 33.9075 38.7566 33.5839 33.8474C33.5713 33.6567 33.7679 33.5223 33.9411 33.6034ZM43.854 42.9604L42.8053 32.8639L42.5981 33.0044C39.7191 34.9093 36.9258 35.3392 34.2413 34.2798L34.1098 34.2262L34.1164 34.3415C34.3501 38.8492 33.6547 41.7801 31.9885 43.1249L31.9143 43.1825L32.0338 43.327C33.4178 44.9671 35.114 45.9139 37.1318 46.1755L37.3417 46.2001C39.5713 46.4343 41.7635 45.3367 43.9273 42.8789L43.854 42.9604Z" fill="black"/>
<path fill-rule="evenodd" clip-rule="evenodd" d="M37.3243 34.5226C32.2524 34.5226 28.1409 30.1628 28.1409 24.7839C28.1409 19.405 32.2524 15.0447 37.3243 15.0447C42.3962 15.0447 46.5077 19.405 46.5077 24.7839C46.5077 30.1628 42.3962 34.5226 37.3243 34.5226Z" fill="#DCAD7F"/>
<path fill-rule="evenodd" clip-rule="evenodd" d="M37.3243 15.2961C32.3992 15.2961 28.3922 19.5524 28.3922 24.784C28.3922 30.0157 32.3992 34.2715 37.3243 34.2715C42.2495 34.2715 46.2565 30.0157 46.2565 24.784C46.2565 19.5524 42.2495 15.2961 37.3243 15.2961ZM37.3243 34.774C32.1218 34.774 27.8896 30.2926 27.8896 24.784C27.8896 19.275 32.1218 14.7936 37.3243 14.7936C42.5269 14.7936 46.759 19.275 46.759 24.784C46.759 30.2926 42.5269 34.774 37.3243 34.774Z" fill="black"/>
<path fill-rule="evenodd" clip-rule="evenodd" d="M37.0553 28.2327C36.9156 28.2096 36.783 28.3061 36.7609 28.4463C36.6428 29.1795 35.8845 29.1513 35.7981 29.1438C35.6558 29.1257 35.5342 29.2398 35.5232 29.381C35.5126 29.5227 35.6187 29.6463 35.7599 29.6579C35.792 29.6599 35.8262 29.6614 35.8619 29.6614C36.3362 29.6614 37.1237 29.4322 37.2684 28.5277C37.291 28.388 37.196 28.2553 37.0553 28.2327ZM32.1604 21.1051C32.1151 21.1051 31.0669 21.0895 30.1352 21.89C30.0272 21.9825 30.0151 22.1448 30.1071 22.2528C30.1584 22.3121 30.2302 22.3423 30.3026 22.3423C30.3619 22.3423 30.4217 22.3217 30.4704 22.28C31.2488 21.6116 32.1418 21.6212 32.1488 21.6197C32.2875 21.6101 32.4076 21.5096 32.4106 21.3684C32.4136 21.2262 32.3021 21.1086 32.1604 21.1051ZM38.2563 21.89C37.3247 21.0895 36.2749 21.1036 36.2312 21.1051C36.0895 21.1086 35.9769 21.2272 35.98 21.3689C35.984 21.5116 36.1006 21.6081 36.2438 21.6197C36.2488 21.6176 37.1362 21.6056 37.9212 22.28C37.9694 22.3217 38.0292 22.3423 38.0885 22.3423C38.1609 22.3423 38.2327 22.3121 38.284 22.2528C38.3759 22.1448 38.3639 21.9825 38.2563 21.89ZM31.6242 23.5056C31.3312 23.5056 31.094 23.8825 31.094 24.3483C31.094 24.8131 31.3312 25.1905 31.6242 25.1905C31.9166 25.1905 32.1538 24.8131 32.1538 24.3483C32.1538 23.8825 31.9166 23.5056 31.6242 23.5056ZM36.7674 23.5056C36.4744 23.5056 36.2378 23.8825 36.2378 24.3483C36.2378 24.8131 36.4744 25.1905 36.7674 25.1905C37.0599 25.1905 37.297 24.8131 37.297 24.3483C37.297 23.8825 37.0599 23.5056 36.7674 23.5056ZM34.685 27.1347L33.4016 26.979L33.8041 25.4483C33.8403 25.3111 33.7584 25.1704 33.6212 25.1342C33.4845 25.096 33.3428 25.18 33.3066 25.3176L32.8287 27.1332C32.8096 27.2051 32.8232 27.2815 32.8649 27.3433C32.9066 27.4051 32.9724 27.4453 33.0463 27.4538L34.6237 27.6453C34.6337 27.6468 34.6443 27.6473 34.6543 27.6473C34.783 27.6473 34.8935 27.5518 34.9096 27.4217C34.9267 27.28 34.8262 27.1523 34.685 27.1347Z" fill="black"/>
<path fill-rule="evenodd" clip-rule="evenodd" d="M50.3611 19.2102C49.5707 16.7678 47.4687 14.4847 43.9983 13.5868C44.1556 13.074 44.2405 12.5285 44.2405 11.9637C44.2405 8.95536 41.841 6.51652 38.8817 6.51652C37.1722 6.51652 35.6526 7.33371 34.6717 8.60089C33.5978 5.95773 31.0393 4.09607 28.0513 4.09607C26.7559 4.09607 25.5443 4.45054 24.4961 5.0619C23.676 3.12155 21.7805 1.76245 19.5714 1.76245C16.6116 1.76245 14.2126 4.20129 14.2126 7.20908C14.2126 10.2174 16.6116 12.6557 19.5714 12.6557C20.0584 12.6557 20.5277 12.5837 20.976 12.4601C21.4925 15.9654 24.4589 18.6565 28.0513 18.6565C28.6428 18.6565 29.6986 18.606 29.6986 18.606H29.8704C30.7835 19.9104 32.279 20.7639 33.9737 20.7639C35.4727 20.7639 36.8144 20.0948 37.7365 19.0391C38.329 20.2276 39.5295 21.0509 40.9305 21.0509C41.6873 21.0509 42.3873 20.8104 42.9662 20.4043L43.4179 24.4245C43.9039 24.331 44.4446 24.3912 45.0923 25.164C45.332 25.4505 45.5028 25.8132 45.4998 26.1891C45.4928 27.1687 44.7094 27.9604 43.7441 27.9604C43.6853 27.9604 43.6305 27.9486 43.5737 27.9435L43.7672 32.3203C46.0797 32.3203 47.8425 30.8203 48.9662 28.7038C50.3466 26.1007 51.2707 22.0188 50.3611 19.2102Z" fill="#FF5613"/>
<path fill-rule="evenodd" clip-rule="evenodd" d="M38.8857 6.77203C41.7018 6.77203 43.9932 9.10102 43.9932 11.9633C43.9932 12.4904 43.9153 13.0108 43.7621 13.5104C43.742 13.5773 43.749 13.6498 43.7827 13.7111C43.8163 13.7724 43.8731 13.8168 43.94 13.8342C47.0058 14.6274 49.2606 16.6157 50.1264 19.29C51.0098 22.0195 50.1023 26.0309 48.7485 28.5821C47.6048 30.7384 45.9294 31.9645 44.0113 32.059L43.841 28.2133C44.8967 28.1638 45.747 27.2756 45.755 26.1913C45.7581 25.7857 45.5917 25.3618 45.2877 24.9987C44.656 24.2448 44.0937 24.1089 43.6425 24.1381L43.2199 20.3753C43.2098 20.2859 43.1545 20.2094 43.0741 20.1721C42.9932 20.1343 42.9003 20.1435 42.8274 20.194C42.2666 20.5873 41.6118 20.7957 40.9344 20.7957C39.6782 20.7957 38.54 20.0781 37.9646 18.9233C37.9269 18.8482 37.8555 18.7961 37.7726 18.7854C37.6907 18.7767 37.6078 18.8063 37.5525 18.8692C36.6425 19.9111 35.3395 20.5087 33.9776 20.5087C32.4349 20.5087 30.9771 19.742 30.0787 18.458C30.0314 18.3906 29.9555 18.3502 29.8741 18.3502H29.7023C29.6802 18.3512 28.6339 18.4008 28.0545 18.4008C24.6651 18.4008 21.7304 15.8307 21.2284 12.4224C21.2174 12.3499 21.1771 12.2861 21.1174 12.2462C21.057 12.2064 20.9832 12.1941 20.9138 12.2135C20.4651 12.3372 20.0148 12.4005 19.5746 12.4005C16.7586 12.4005 14.4676 10.0715 14.4676 7.20921C14.4676 4.34645 16.7586 2.01796 19.5746 2.01796C21.6189 2.01796 23.4611 3.25193 24.2686 5.16263C24.2967 5.22956 24.352 5.28112 24.4199 5.30363C24.4882 5.3276 24.5621 5.31946 24.6249 5.28318C25.6701 4.67383 26.856 4.35157 28.0545 4.35157C30.8631 4.35157 33.3706 6.05801 34.443 8.69806C34.4771 8.78233 34.5525 8.84107 34.641 8.85384C34.7279 8.8661 34.8179 8.82982 34.8731 8.75886C35.8505 7.49625 37.3128 6.77203 38.8857 6.77203ZM43.7711 32.5755C45.9832 32.5755 47.9078 31.2434 49.1907 28.8248C50.5957 26.177 51.5319 21.997 50.6038 19.1301C49.7073 16.3609 47.4224 14.2862 44.3138 13.4067C44.4344 12.9368 44.4957 12.4526 44.4957 11.9633C44.4957 8.81911 41.9792 6.26127 38.8857 6.26127C37.2942 6.26127 35.8063 6.93544 34.742 8.12499C33.5133 5.50891 30.9309 3.84082 28.0545 3.84082C26.8596 3.84082 25.6761 4.13911 24.6153 4.70605C23.6766 2.75343 21.7274 1.5072 19.5746 1.5072C16.4817 1.5072 13.9651 4.06504 13.9651 7.20921C13.9651 10.3534 16.4817 12.9112 19.5746 12.9112C19.9711 12.9112 20.3746 12.8647 20.7771 12.7738C21.4299 16.2924 24.5108 18.9115 28.0545 18.9115C28.6455 18.9115 29.6706 18.863 29.7143 18.861H29.7465C30.744 20.215 32.3158 21.0194 33.9776 21.0194C35.3671 21.0194 36.7008 20.4571 37.6887 19.4652C38.3897 20.6093 39.6043 21.3064 40.9344 21.3064C41.5777 21.3064 42.2038 21.1435 42.7651 20.832L43.1721 24.4537C43.1802 24.5242 43.2163 24.588 43.2726 24.6299C43.3289 24.6723 43.3993 24.6886 43.4686 24.6753C43.8666 24.6003 44.3148 24.6253 44.9053 25.3296C45.1309 25.5998 45.2545 25.9042 45.2525 26.1872C45.2465 27.0243 44.5711 27.7051 43.7475 27.7051C43.7209 27.7051 43.6957 27.701 43.6701 27.6975L43.6013 27.6893C43.5254 27.6832 43.457 27.7072 43.4043 27.7583C43.3515 27.8093 43.3234 27.8808 43.3264 27.9549L43.5204 32.3313C43.5264 32.468 43.6369 32.5755 43.7711 32.5755Z" fill="black"/>
<path fill-rule="evenodd" clip-rule="evenodd" d="M69.5147 73.1879C69.5147 73.1879 68.0524 72.5281 65.8057 71.4592L65.4494 68.7974L74.4981 75.7175L69.5147 73.1879ZM85.2318 61.5492L85.2373 61.5467C76.7841 49.2185 62.8846 41.6793 47.9363 41.6793H44.3092C43.3378 43.725 40.9328 45.1773 38.1107 45.1859C35.2891 45.1773 32.8841 43.725 31.9132 41.6793H28.2856C23.9373 41.6793 19.5373 42.2838 15.275 43.4446C4.51622 46.3743 -4.39082 53.5612 -9.77725 63.0386C-9.77876 63.0411 -9.78027 63.0431 -9.78228 63.0446C-11.9079 65.8281 -13.1546 69.3813 -13.8652 72.9683C-13.8687 72.9808 -13.8722 72.9919 -13.8752 73.0044C-13.8752 73.0044 -13.8762 73.0155 -13.8762 73.019C-15.4662 81.1029 -14.332 89.3462 -14.331 89.3552L-15.5119 82.6562L-30.116 85.4346C-30.1291 85.4065 -32.1562 85.8497 -32.1562 85.8497C-31.7688 87.719 -31.3462 89.5773 -30.8733 91.3854C-28.3196 101.15 -22.8231 106.251 -14.8516 106.692C3.17099 107.691 8.3725 80.1366 8.3725 80.1366L10.7725 68.7974L9.30567 79.7582L6.14436 98.7788H70.078L69.4238 94.4462C72.0167 95.9215 74.3625 97.0145 76.3263 97.9632C87.3961 103.311 99.7313 97.0482 96.1032 79.5542C94.8082 73.311 90.3358 67.009 85.2318 61.5492Z" fill="#FF5613"/>
<path fill-rule="evenodd" clip-rule="evenodd" d="M66.0419 71.2863C68.1901 72.3064 69.6062 72.9466 69.6203 72.9527C69.6238 72.9547 69.6278 72.9562 69.6309 72.9577L72.1168 74.22L65.7866 69.3788L66.0419 71.2863ZM74.4977 75.9738C74.4585 75.9738 74.4183 75.9652 74.3816 75.9461L69.4032 73.4195C69.3027 73.3738 67.8504 72.7165 65.6952 71.6909C65.6163 71.6537 65.562 71.5793 65.5505 71.4929L65.1942 68.8311C65.1806 68.728 65.2303 68.6265 65.3198 68.5748C65.4102 68.522 65.5223 68.5285 65.6052 68.5924L74.654 75.512C74.7595 75.5929 74.7861 75.7411 74.7153 75.8542C74.667 75.9306 74.5836 75.9738 74.4977 75.9738ZM-30.625 91.3195C-28.1164 100.908 -22.8049 105.994 -14.8375 106.436C2.74994 107.417 8.06753 80.3617 8.11929 80.0883L10.5208 68.7436C10.5494 68.6089 10.6811 68.52 10.8163 68.5431C10.9525 68.5667 11.0459 68.6939 11.0273 68.8311L9.56049 79.7919L6.44944 98.521H69.7726L69.1705 94.4888C69.1535 94.3914 69.1947 94.2919 69.2761 94.2351C69.3575 94.1778 69.465 94.1723 69.551 94.2225C71.7997 95.5014 73.8469 96.4853 75.653 97.3532L76.4379 97.7311C81.9047 100.372 87.7278 100.118 91.6359 97.0698C95.9856 93.6753 97.4826 87.4733 95.851 79.6064C94.7334 74.2165 91.0972 68.1999 85.0434 61.7245C85.0218 61.7009 85.0047 61.6738 84.9932 61.6451C76.5082 49.3024 62.66 41.9366 47.9364 41.9366H44.4685C43.3791 44.0627 40.9042 45.4341 38.1113 45.4431C35.3173 45.4341 32.8429 44.0627 31.753 41.9366H28.2851C23.9766 41.9366 19.6223 42.5275 15.3429 43.6924C4.79265 46.5652 -4.04956 53.4803 -9.55408 63.1652C-9.56112 63.1788 -9.57368 63.1954 -9.58373 63.2079C-11.4511 65.6537 -12.8089 68.9567 -13.6134 73.018C-13.6134 73.0346 -13.6204 73.0522 -13.6239 73.0688C-15.1762 80.9602 -14.1224 88.9808 -14.0767 89.3185C-14.0576 89.4577 -14.1536 89.5868 -14.2918 89.6079C-14.431 89.6321 -14.5601 89.5371 -14.5847 89.3994L-15.7199 82.9572L-30.0682 85.6868C-30.0868 85.6904 -30.1054 85.6914 -30.1245 85.6914C-30.2752 85.711 -31.0737 85.8778 -31.8526 86.0461C-31.4456 87.9914 -31.0436 89.719 -30.625 91.3195ZM-14.8656 106.949C-23.0818 106.494 -28.5511 101.279 -31.1225 91.4502C-31.5612 89.7728 -31.9818 87.9577 -32.4084 85.9014C-32.4371 85.7632 -32.3491 85.628 -32.2109 85.5979C-30.9752 85.328 -30.4245 85.2074 -30.1622 85.1909L-30.1642 85.1813L-15.5596 82.4029C-15.4923 82.3914 -15.4224 82.4049 -15.3656 82.4441C-15.3089 82.4828 -15.2707 82.5431 -15.2586 82.611L-14.9526 84.3481C-15.044 81.2426 -14.937 77.0813 -14.129 72.9692C-14.1275 72.9512 -14.1229 72.9321 -14.1179 72.9145C-13.2978 68.7788 -11.9079 65.4044 -9.98675 62.8883C-4.42846 53.1064 4.52431 46.1049 15.2077 43.1959C19.5308 42.0185 23.9308 41.4215 28.2851 41.4215H31.9128C32.0123 41.4215 32.1027 41.4793 32.1454 41.5682C33.1102 43.6009 35.452 44.92 38.1113 44.9285C40.7695 44.92 43.1113 43.6009 44.0766 41.5682C44.1193 41.4793 44.2097 41.4215 44.3087 41.4215H47.9364C62.8479 41.4215 76.8716 48.8909 85.4494 61.4004C85.452 61.4054 85.455 61.4095 85.4575 61.414C91.554 67.9446 95.2198 74.0295 96.355 79.5019C98.0284 87.5703 96.465 93.9532 91.9525 97.4748C87.8891 100.646 81.8585 100.922 76.2143 98.1944L75.4303 97.817C73.7434 97.0069 71.8469 96.0949 69.7685 94.9351L70.3309 98.7351C70.3439 98.8095 70.3233 98.8863 70.2741 98.9441C70.2253 99.0014 70.1535 99.0356 70.0776 99.0356H6.14441C6.06853 99.0356 5.99668 99.0014 5.94743 98.9441C5.89869 98.8863 5.87808 98.8095 5.89064 98.7351L9.05195 79.7145L9.61476 75.5054L8.62381 80.1894C8.57306 80.4567 3.3625 106.974 -13.9124 106.975C-14.2269 106.975 -14.543 106.967 -14.8656 106.949Z" fill="black"/>
<path fill-rule="evenodd" clip-rule="evenodd" d="M-33.8301 51.5015C-23.5186 63.0186 -21.5857 81.9166 -21.2345 89.6814L-21.1617 93.1799L-16.6782 93.3513L-13.2606 91.2458L-9.36158 92.1925L-5.95706 90.0945L-5.95304 90.0925L-2.05756 91.0357L-2.05003 91.0307L-2.04098 91.0327L1.37259 88.9317L5.26304 89.8759L5.26857 89.8719L5.2751 89.8739L8.68314 87.7739L12.5791 88.7171L12.5872 88.7126L12.5957 88.7146L16.0088 86.6141L16.0138 86.6151L19.8997 87.5578L23.3153 85.4528L27.2163 86.399L30.6329 84.294L32.8852 84.6201C32.8852 84.6201 24.0424 59.1985 32.054 41.0664L24.6083 36.7015C24.6083 36.7015 24.6068 36.7091 24.6073 36.7096C24.6068 36.7091 24.6083 36.7015 24.6083 36.7015L5.99269 39.2749L-9.59776 41.7442L-28.0975 45.0493C-28.0975 45.0493 -28.0861 45.0699 -28.0816 45.0789C-28.0861 45.0699 -28.0975 45.0493 -28.0975 45.0493L-33.8301 51.5015Z" fill="#EFF2F7"/>
<path fill-rule="evenodd" clip-rule="evenodd" d="M24.5551 36.9683L6.02797 39.5306L-9.55745 41.999L-27.9646 45.2864L-33.486 51.5015C-23.234 63.1176 -21.3226 82.0442 -20.9781 89.6688L-20.9092 92.9327L-16.7469 93.091L-13.3956 91.0266C-13.3374 90.991 -13.267 90.9799 -13.2002 90.996L-9.4052 91.9166L-6.09212 89.8749C-6.03333 89.8392 -5.95896 89.8271 -5.89263 89.8422L-2.09263 90.7623L1.23753 88.7126C1.29581 88.6774 1.36666 88.6663 1.433 88.6819L5.22597 89.6025L8.54858 87.5548C8.60687 87.5196 8.67722 87.5085 8.74405 87.5236L12.5441 88.4442L15.8742 86.3945C15.9285 86.3613 15.9928 86.3503 16.0556 86.3613L19.8556 87.2819L23.1802 85.2337C23.2385 85.198 23.3094 85.1869 23.3762 85.2025L27.1722 86.1231L30.4983 84.0749C30.5501 84.0437 30.6109 84.0312 30.6702 84.0392L32.5104 84.306C31.4426 81 24.4642 57.9352 31.727 41.1729L24.5551 36.9683ZM5.95209 39.0211L24.5732 36.4462C24.5898 36.4442 24.6064 36.4437 24.6229 36.4447C24.6235 36.4447 24.624 36.4447 24.6245 36.4442C24.625 36.4442 24.625 36.4447 24.6255 36.4447C24.6647 36.4477 24.7034 36.4588 24.738 36.4799L32.1848 40.8442C32.2973 40.9105 32.3426 41.0507 32.2898 41.1709C24.4114 58.9995 33.04 84.2824 33.1285 84.5357C33.1576 84.6211 33.141 84.7146 33.0838 84.7844C33.0265 84.8543 32.937 84.8859 32.8486 84.8749L30.6888 84.5613L27.3511 86.6181C27.2923 86.6538 27.2219 86.6648 27.1551 86.6487L23.3586 85.7286L20.034 87.7769C19.9757 87.8126 19.9054 87.8236 19.8385 87.8075L16.0526 86.8889L12.73 88.9337C12.6923 88.9568 12.6481 88.9719 12.6049 88.9714C12.5757 88.9749 12.5466 88.9734 12.5189 88.9673L8.72697 88.0497L5.41039 90.093C5.3727 90.1161 5.33049 90.1301 5.28677 90.1306C5.25813 90.1337 5.22948 90.1322 5.20184 90.1261L1.41641 89.208L-1.9067 91.2518C-1.94439 91.2754 -1.98811 91.2899 -2.03183 91.2894C-2.06097 91.293 -2.09062 91.2915 -2.11775 91.2854L-5.91021 90.3678L-9.2263 92.4111C-9.28459 92.4467 -9.35544 92.4583 -9.42178 92.4422L-13.2173 91.5216L-16.5434 93.5698C-16.5861 93.5965 -16.6363 93.6111 -16.6881 93.6075L-21.1712 93.4372C-21.3073 93.4322 -21.4158 93.3216 -21.4191 93.1859L-21.4921 89.6859C-21.8356 82.0849 -23.7458 63.1502 -34.022 51.6734C-34.1092 51.5759 -34.1096 51.4281 -34.0228 51.3307L-28.2897 44.8784C-28.251 44.8342 -28.1985 44.8055 -28.1426 44.7955L-9.64288 41.4909L5.95209 39.0211Z" fill="black"/>
<path fill-rule="evenodd" clip-rule="evenodd" d="M24.5683 36.4474C24.5964 36.4428 24.6256 36.4428 24.6552 36.4484C24.7949 36.474 24.8874 36.6087 24.8617 36.7479C24.8135 37.0112 20.106 63.2172 26.2979 82.3624L32.9602 84.374C33.0959 84.4152 33.1728 84.5584 33.1321 84.6946C33.0904 84.8313 32.9477 84.9072 32.811 84.866L26.0205 82.8157C25.9401 82.7916 25.8763 82.7293 25.8502 82.6494C19.5552 63.3685 24.307 36.9197 24.3557 36.6554C24.3763 36.5443 24.4637 36.4639 24.5683 36.4474Z" fill="black"/>
<path d="M-6.36593 62.7599C-6.49809 61.9378 -5.93829 61.1644 -5.11618 61.0323L8.0597 58.9167C8.88181 58.7845 9.65518 59.3438 9.78734 60.1659L9.8607 60.6242C9.99286 61.4463 9.43307 62.2197 8.61146 62.3519L-4.56493 64.4674C-5.38704 64.5996 -6.1604 64.0398 -6.29206 63.2182L-6.36593 62.7599Z" fill="#954000"/>
<path fill-rule="evenodd" clip-rule="evenodd" d="M-4.68799 67.1679L9.25171 64.9598C9.79543 68.3925 7.45372 71.6156 4.02106 72.1593L2.51201 72.3985C-0.92065 72.9422 -4.14427 70.6005 -4.68799 67.1679Z" fill="#FFBA00"/>
<path fill-rule="evenodd" clip-rule="evenodd" d="M-4.7937 67.4075C-4.15802 70.8939 -0.850989 73.2522 2.66811 72.695L4.17715 72.4558L4.32941 72.4296C7.81584 71.7945 10.1741 68.4874 9.61684 64.9688L9.57765 64.7206L-4.61079 66.9678L-4.57109 67.2161L-4.81934 67.2553L-4.7937 67.4075ZM4.09876 71.9593L2.58921 72.1985L2.43946 72.2201C-0.699734 72.6387 -3.62385 70.5568 -4.26858 67.4733L-4.27813 67.4241L9.15453 65.2965L9.16006 65.3467C9.50529 68.5281 7.29424 71.4532 4.09876 71.9593Z" fill="black"/>
<path fill-rule="evenodd" clip-rule="evenodd" d="M8.3095 59.0111L-5.6302 61.2186C-6.03422 58.6684 -4.29452 56.2744 -1.74478 55.8709L2.96176 55.1252C5.51101 54.7217 7.90548 56.4609 8.3095 59.0111Z" fill="#FFBA00"/>
<path fill-rule="evenodd" clip-rule="evenodd" d="M-5.76157 61.306L-5.72237 61.5542L8.46557 59.307L8.42638 59.0592L8.67461 59.0195L8.651 58.8839C8.16306 56.2713 5.68014 54.507 3.03894 54.9251L-1.66709 55.6708L-1.80327 55.6939C-4.41584 56.1819 -6.18016 58.6643 -5.76157 61.306ZM8.13191 58.8512L-5.29774 60.9783L-5.3093 60.8411C-5.4691 58.5773 -3.87262 56.5286 -1.5887 56.1668L3.11733 55.4215L3.24648 55.403C5.52437 55.1095 7.64296 56.6125 8.12989 58.8427L8.13191 58.8512Z" fill="black"/>
<path fill-rule="evenodd" clip-rule="evenodd" d="M8.58528 62.5619L-4.28959 64.6011C-5.30969 64.7629 -6.26698 64.0674 -6.42829 63.0478C-6.59009 62.0277 -5.89462 61.0699 -4.87452 60.9086L8.00036 58.8694C9.01995 58.7081 9.97774 59.4041 10.139 60.4237C10.3004 61.4433 9.60488 62.4006 8.58528 62.5619ZM-4.36798 64.1051L8.50639 62.0659C9.25212 61.9478 9.76066 61.2478 9.64257 60.5026C9.52448 59.7564 8.82448 59.2478 8.07875 59.3659L-4.79563 61.4051C-5.54186 61.5232 -6.04989 62.2232 -5.9318 62.9694C-5.81371 63.7146 -5.11421 64.2232 -4.36798 64.1051Z" fill="black"/>
<path fill-rule="evenodd" clip-rule="evenodd" d="M2.63591 64.2216L8.56003 63.2834C8.84295 63.2387 9.03692 62.9799 8.9932 62.7055C8.94998 62.4322 8.68566 62.2457 8.40274 62.2904L2.47863 63.2291C2.19571 63.2739 2.00124 63.5326 2.04496 63.806C2.08817 64.0804 2.353 64.2663 2.63591 64.2216Z" fill="#FF4200"/>
<path fill-rule="evenodd" clip-rule="evenodd" d="M1.94615 63.6091C2.01198 64.0252 2.40293 64.3091 2.81902 64.2433L8.66072 63.3181L8.72907 63.3041C9.10696 63.2086 9.3567 62.8382 9.29439 62.4453C9.22856 62.0297 8.83812 61.7458 8.42203 61.8116L2.58033 62.7367L2.51248 62.7508C2.13409 62.8463 1.88434 63.2166 1.94615 63.6091ZM8.58234 62.8217L2.74063 63.7468L2.69339 63.7503C2.57027 63.7473 2.46274 63.6568 2.44264 63.5307C2.42002 63.389 2.51701 63.2558 2.65922 63.2332L8.50093 62.3081L8.54766 62.3051C8.67078 62.3076 8.77832 62.398 8.79791 62.5242C8.82053 62.6659 8.72405 62.7995 8.58234 62.8217Z" fill="black"/>
<path fill-rule="evenodd" clip-rule="evenodd" d="M-4.21577 65.3071L1.70885 64.3684C1.99177 64.3236 2.18574 64.0648 2.14202 63.791C2.0988 63.5171 1.83449 63.3312 1.55157 63.3759L-4.37305 64.3141C-4.65597 64.3588 -4.84944 64.6176 -4.80622 64.8915C-4.763 65.1653 -4.49868 65.3518 -4.21577 65.3071Z" fill="#FF4200"/>
<path fill-rule="evenodd" clip-rule="evenodd" d="M-4.90515 64.6945C-4.83882 65.1106 -4.44887 65.3945 -4.03279 65.3287L1.80891 64.4036L1.87726 64.3895C2.25565 64.294 2.50489 63.9237 2.44258 63.5307C2.37675 63.1151 1.9863 62.8312 1.57072 62.8971L-4.27149 63.8222L-4.33933 63.8363C-4.71772 63.9317 -4.96696 64.3021 -4.90515 64.6945ZM1.73052 63.9071L-4.11119 64.8322L-4.15792 64.8352C-4.28103 64.8327 -4.38857 64.7423 -4.40867 64.6156C-4.43079 64.4744 -4.3343 64.3408 -4.19259 64.3187L1.64912 63.3935L1.69585 63.39C1.81896 63.393 1.9265 63.4835 1.9466 63.6091C1.96871 63.7513 1.87223 63.8845 1.73052 63.9071Z" fill="black"/>
<path fill-rule="evenodd" clip-rule="evenodd" d="M10.4707 64.3493C10.4853 64.4418 11.2712 64.9689 11.1797 64.9905C9.9712 65.277 9.73703 64.091 8.5109 64.285C7.28377 64.4795 7.45864 65.581 6.23201 65.7755C5.00537 65.9699 4.831 64.8679 3.60487 65.0619C2.37824 65.2564 2.55261 66.3584 1.32648 66.5524C0.0988436 66.7468 -0.0755324 65.6448 -1.30367 65.8393C-2.53181 66.0343 -2.35744 67.1358 -3.58558 67.3302C-4.81423 67.5252 -6.82578 66.3398 -6.82578 66.3398C-6.84036 66.2473 -5.74337 65.9905 -5.77151 65.9006C-5.88508 65.5358 -6.55392 65.3599 -6.46246 65.3383C-5.25392 65.0519 -5.01975 66.2383 -3.79312 66.0438C-2.56598 65.8498 -2.74086 64.7473 -1.51423 64.5534C-0.288098 64.3589 -0.113218 65.4614 1.11291 65.2669C2.33955 65.073 2.16467 63.9704 3.3913 63.776C4.61894 63.5815 4.79331 64.684 6.02145 64.4895C7.24959 64.2951 7.07522 63.1926 8.30336 62.9981C9.5315 62.8036 9.65412 63.8192 10.8933 63.7162L10.4707 64.3493Z" fill="#009E80"/>
<path fill-rule="evenodd" clip-rule="evenodd" d="M11.4325 64.9281C11.4621 65.0689 11.3742 65.203 11.2375 65.2347C10.6491 65.3744 10.2948 65.2603 9.7164 64.8839L9.5772 64.794C9.17067 64.5397 8.93801 64.4719 8.55007 64.5332C8.11439 64.602 7.92544 64.7462 7.56614 65.1885L7.48223 65.2905C7.09781 65.7462 6.81841 65.9367 6.27117 66.0236C5.68474 66.1166 5.35408 66.0005 4.78172 65.6297L4.68272 65.5668C4.27016 65.3096 4.04806 65.2462 3.64404 65.3101C3.20836 65.3794 3.01941 65.5231 2.66062 65.9653L2.5762 66.0673C2.19178 66.5231 1.91288 66.7136 1.36564 66.8005C0.778705 66.8935 0.448057 66.7774 -0.124807 66.407L-0.223805 66.3437C-0.636871 66.0864 -0.859484 66.0236 -1.26451 66.0874C-1.70069 66.1568 -1.89014 66.301 -2.24994 66.7432L-2.33386 66.8452C-2.71929 67.301 -2.99868 67.492 -3.54642 67.5784C-3.85496 67.6271 -4.20973 67.6025 -4.60521 67.5166C-4.96853 67.4372 -5.35848 67.3075 -5.763 67.1402C-6.05747 67.0181 -6.3429 66.8829 -6.60873 66.7447C-6.66199 66.7171 -6.71074 66.691 -6.75446 66.6673L-6.95345 66.5563C-7.01828 66.5181 -7.0625 66.4528 -7.07406 66.3789C-7.09064 66.2754 -7.05145 66.1985 -6.99165 66.1402C-6.96652 66.1161 -6.93938 66.097 -6.90772 66.0794C-6.86802 66.0568 -6.81828 66.0352 -6.75546 66.0111L-6.68763 65.9854L-6.15697 65.8096L-6.20471 65.7764L-6.2625 65.7407C-6.29617 65.7206 -6.31677 65.7091 -6.34843 65.693L-6.49919 65.6196C-6.55044 65.595 -6.57556 65.5819 -6.6027 65.5633L-6.62833 65.5462C-6.66451 65.5171 -6.70421 65.4648 -6.71778 65.392C-6.75195 65.2121 -6.6414 65.1221 -6.52079 65.094C-5.93185 64.9543 -5.57757 65.0679 -4.99868 65.4452L-4.85949 65.5347C-4.45346 65.789 -4.22029 65.8573 -3.83235 65.796C-3.39667 65.7266 -3.20772 65.5824 -2.84893 65.1402L-2.76451 65.0382C-2.38009 64.5824 -2.10119 64.3915 -1.55396 64.305C-0.967526 64.2121 -0.636874 64.3282 -0.0640101 64.699L0.034482 64.7618C0.447045 65.0196 0.66916 65.0829 1.07368 65.0186C1.50886 64.9498 1.6978 64.8055 2.0571 64.3633L2.14102 64.2613C2.52544 63.8055 2.80433 63.6146 3.35207 63.5276C3.93851 63.4352 4.26916 63.5508 4.84253 63.9216L4.94152 63.9849C5.35408 64.2422 5.5767 64.3055 5.98172 64.2412C6.41841 64.1724 6.60735 64.0281 6.96715 63.5854L7.05157 63.4834C7.43649 63.0276 7.7159 62.8367 8.26414 62.7498C8.85258 62.6568 9.19127 62.7673 9.73047 63.1116L9.87368 63.202C10.246 63.4297 10.4767 63.4985 10.8727 63.4658C11.0822 63.4488 11.2189 63.6809 11.1023 63.8558L10.7933 64.3191L11.1913 64.6347L11.3048 64.7322C11.3305 64.7563 11.3516 64.7779 11.3687 64.799C11.3998 64.8372 11.4214 64.8739 11.4325 64.9281ZM-4.49818 67.0256C-4.15848 67.0995 -3.8635 67.1201 -3.62531 67.0824C-3.18863 67.0131 -2.99968 66.8689 -2.63989 66.4266L-2.55546 66.3246C-2.17054 65.8689 -1.89114 65.6779 -1.3429 65.5915C-0.755969 65.4985 -0.424808 65.6141 0.148057 65.9849L0.247047 66.0478C0.65961 66.305 0.882223 66.3684 1.28675 66.304C1.72242 66.2352 1.91137 66.091 2.27016 65.6488L2.35459 65.5472C2.7385 65.0915 3.0179 64.9005 3.56514 64.8141C4.15157 64.7211 4.48222 64.8367 5.05459 65.2081L5.15358 65.2709C5.56615 65.5282 5.78825 65.5915 6.19278 65.5271C6.62795 65.4583 6.8169 65.3141 7.1757 64.8719L7.26012 64.7704C7.64454 64.3146 7.92393 64.1236 8.47117 64.0367C9.04102 63.9467 9.38524 64.0683 9.94806 64.4352L10.0822 64.5216C10.2305 64.6141 10.3546 64.6809 10.4717 64.7246L10.5124 64.7387L10.4204 64.6623C10.2827 64.5442 10.2395 64.4985 10.2224 64.3885C10.2124 64.3256 10.2264 64.2618 10.2616 64.2096L10.4295 63.9583L10.3827 63.9513C10.1259 63.907 9.89529 63.804 9.61489 63.6327L9.36765 63.4774C8.98072 63.2407 8.75408 63.1809 8.34253 63.2462C7.90634 63.3151 7.7169 63.4593 7.3571 63.902L7.27318 64.004C6.88776 64.4598 6.60835 64.6508 6.06062 64.7377C5.47318 64.8307 5.14252 64.7146 4.56916 64.3437L4.47017 64.2809C4.0576 64.0231 3.83499 63.9603 3.43047 64.0241C2.99479 64.093 2.80635 64.2372 2.44705 64.6799L2.36313 64.7814C1.9787 65.2377 1.69982 65.4281 1.15208 65.5151C0.565645 65.608 0.234989 65.492 -0.337372 65.1206L-0.43637 65.0578C-0.848933 64.8005 -1.07104 64.7372 -1.47506 64.801C-1.91074 64.8704 -2.09969 65.0141 -2.45848 65.4568L-2.5429 65.5588C-2.92733 66.0146 -3.20621 66.2055 -3.75395 66.292C-4.3233 66.3824 -4.66803 66.2603 -5.23084 65.8935L-5.36501 65.8075C-5.42431 65.7704 -5.47958 65.7372 -5.53235 65.708L-5.6032 65.6714L-5.59114 65.6895C-5.57908 65.7111 -5.56803 65.7332 -5.55798 65.7558L-5.53185 65.8256C-5.49768 65.9352 -5.53386 66.0256 -5.59667 66.092C-5.6223 66.1191 -5.65044 66.1397 -5.68361 66.1588C-5.72331 66.1819 -5.77255 66.204 -5.83587 66.2286C-5.86903 66.2412 -5.9022 66.2533 -5.9414 66.2673L-6.2424 66.3673L-6.1831 66.397C-6.05194 66.4618 -5.91677 66.5256 -5.77909 66.5864L-5.57054 66.6759C-5.19164 66.8327 -4.82933 66.9533 -4.49818 67.0256Z" fill="black"/>
<path fill-rule="evenodd" clip-rule="evenodd" d="M33.2725 49.0322C34.3519 50.6779 35.4745 52.389 36.6881 54.0221C41.8439 60.9593 54.0846 66.3518 54.0846 66.3518L48.6745 81.3759C48.6745 81.3759 38.8444 74.0824 34.6258 73.4267C32.678 73.1237 30.168 74.7272 27.7866 76.2483C25.0112 78.0211 22.4107 79.683 21.0765 78.086C18.5906 75.1101 24.3333 70.784 25.8384 69.7287C24.0193 70.9513 15.5343 76.386 13.2213 72.989C10.9871 69.7076 19.6273 65.9272 19.6273 65.9272C19.6273 65.9272 10.4439 69.9392 9.25092 65.6232C8.05494 61.294 19.9087 59.084 19.9087 59.084L13.8846 59.1367C9.69665 58.9257 9.93283 56.8061 9.93283 56.8061C9.79816 51.5156 25.8248 51.7181 25.8248 51.7181C25.8248 51.7181 16.9459 41.1548 22.4399 39.9613C26.7142 39.0327 29.7675 43.688 33.2725 49.0322ZM-25.3256 63.1186L-14.5983 61.7277C-13.2983 61.5659 -12.0943 62.4352 -11.8385 63.7201C-11.5898 64.9709 -12.323 66.2086 -13.5395 66.592L-23.6457 69.6834L-15.3792 68.7367C-14.0606 68.5975 -12.8531 69.486 -12.5948 70.787C-12.3069 72.2317 -13.2933 73.6211 -14.7526 73.8267L-22.8763 75.0161C-22.7188 76.8237 -19.8511 76.5985 -17.5541 76.4181C-16.8395 76.3618 -16.1802 76.3101 -15.6747 76.3252C-14.7275 76.3533 -13.929 77.0337 -13.7441 77.9634C-13.5657 78.8583 -13.9973 79.7719 -14.8159 80.1754C-15.8893 80.7046 -17.7566 81.3965 -20.9164 82.0247C-21.1889 82.0784 -21.4653 82.1021 -21.7421 82.1237H-21.7427C-21.8698 82.1332 -21.9979 82.1367 -22.1261 82.1397C-22.2829 82.7156 -22.2658 83.3458 -22.0517 83.9005L-30.116 85.4347C-30.1241 85.4176 -30.9085 85.5814 -31.5025 85.7086C-32.1322 82.6769 -32.6704 79.6191 -33.1835 76.7056C-33.5929 74.3804 -33.9861 72.1463 -34.3969 70.09C-34.3682 70.1417 -34.3323 70.1925 -34.2964 70.2433C-34.2858 70.2578 -34.2752 70.2729 -34.2648 70.288C-34.6668 69.1503 -35.0246 67.9357 -35.3306 66.6433V66.6427C-35.3595 66.5206 -35.3873 66.3975 -35.415 66.2739C-35.4396 66.1639 -35.4643 66.0543 -35.4899 65.9453C-35.5112 65.8473 -35.5342 65.7513 -35.5571 65.6558C-35.5887 65.5236 -35.6203 65.392 -35.6477 65.2543C-36.3949 61.4975 -35.5236 58.0814 -34.121 55.2995C-33.9452 54.9523 -33.7617 54.6141 -33.5718 54.2865C-32.2421 51.9955 -30.61 50.2186 -29.402 49.1523C-27.9683 47.8875 -25.707 48.4729 -25.0266 50.2598L-24.9582 50.4387C-24.5607 51.4845 -24.8572 52.6432 -25.6517 53.4312C-27.3311 55.0965 -28.2768 57.9699 -28.2768 57.9699L-17.9134 56.1804C-16.6149 55.9563 -15.3747 56.8081 -15.1174 58.1C-14.8677 59.3568 -15.637 60.5915 -16.8752 60.9216L-25.3256 63.1186Z" fill="#DCAD7F"/>
<path fill-rule="evenodd" clip-rule="evenodd" d="M48.5495 80.9642C46.8872 79.7511 38.5485 73.7758 34.6656 73.1722C34.4897 73.1446 34.3103 73.132 34.1279 73.132C32.1867 73.132 29.8831 74.6044 27.6485 76.0315C24.9811 77.7351 22.462 79.3426 21.2741 77.9205C20.8133 77.3692 20.6414 76.7542 20.7485 76.0411C21.1208 73.5521 24.7842 70.7883 25.9656 69.9552C26.1726 69.8149 26.3022 69.725 26.3379 69.6999C26.3505 69.6908 26.358 69.6783 26.3686 69.6677C26.9414 69.3064 27.5962 68.9617 28.2299 68.7783C28.3666 68.7386 28.4455 68.5959 28.4063 68.4597C28.3661 68.324 28.2249 68.2446 28.0872 68.2843C27.0404 68.5868 25.9761 69.2707 25.2455 69.8109C23.2445 71.1094 17.9309 74.3059 14.95 73.7717C14.2711 73.6481 13.7756 73.3451 13.4344 72.8441C13.1108 72.3687 13.0299 71.8722 13.1872 71.3255C13.9349 68.726 19.6731 66.1878 19.7309 66.1627C19.7409 66.1582 19.748 66.1501 19.757 66.1441C21.2334 65.4597 23.4414 64.5607 25.8836 63.9964C26.0218 63.9642 26.1078 63.826 26.0761 63.6878C26.044 63.5491 25.9078 63.4632 25.7671 63.4949C23.2063 64.0868 20.9032 65.0391 19.4022 65.7431C18.5414 66.1014 13.2505 68.2079 10.7108 66.9974C10.0811 66.6974 9.68465 66.225 9.49973 65.5541C9.33993 64.9778 9.42988 64.429 9.7746 63.8773C11.6208 60.922 19.8731 59.3521 19.9565 59.3366C19.9942 59.3295 20.0274 59.3129 20.057 59.2913C20.3585 59.2612 20.6867 59.2265 21.0515 59.1873C21.9716 59.0898 23.1168 58.9682 24.5123 58.8476C24.6535 58.8361 24.7585 58.7114 24.7465 58.5697C24.7339 58.4275 24.6118 58.3255 24.4681 58.3356C23.0676 58.4557 21.9193 58.5778 20.9972 58.6758C20.4037 58.7391 19.9043 58.7923 19.4781 58.8305L13.8977 58.8793C11.8565 58.7763 10.955 58.2104 10.5585 57.7536C10.153 57.2868 10.1872 56.8506 10.1902 56.7994C10.1736 56.1526 10.4193 55.5803 10.9404 55.0526C13.8696 52.0858 24.1384 51.9748 25.6389 51.9748C25.7645 51.9748 25.8173 51.9747 25.8254 51.9752C25.9249 51.9752 26.0153 51.918 26.0575 51.8285C26.1007 51.7371 26.0872 51.6295 26.0223 51.5526C25.962 51.4808 19.9997 44.3366 21.0163 41.3582C21.2213 40.7582 21.7048 40.3838 22.4942 40.2119C26.5942 39.327 29.5902 43.8863 33.057 49.1722C34.1419 50.826 35.2635 52.5361 36.4821 54.1753C41.2384 60.5748 52.0847 65.7185 53.7626 66.4873L48.5495 80.9642ZM54.1887 66.116C54.0666 66.0627 41.95 60.6702 36.8952 53.8687C35.6852 52.2411 34.5681 50.5376 33.4877 48.8903C29.9158 43.4456 26.8284 38.7376 22.3857 39.7094C21.4178 39.9195 20.7937 40.4185 20.5299 41.1918C19.5605 44.031 23.9766 49.832 25.2821 51.4597C22.8847 51.4737 13.5063 51.7215 10.5746 54.6908C9.95802 55.3155 9.65601 56.0295 9.67711 56.7773C9.6746 56.8044 9.61128 57.434 10.154 58.0722C10.8223 58.8582 12.0731 59.3024 13.8872 59.3928L17.555 59.3617C14.8781 60.0652 10.6716 61.4707 9.33841 63.6044C8.91932 64.2758 8.80626 64.9783 9.00375 65.6908C9.22787 66.5029 9.72786 67.0989 10.4897 67.4617C12.0841 68.2225 14.5645 67.8195 16.555 67.2697C14.9123 68.2888 13.1203 69.6979 12.6927 71.1828C12.4932 71.8763 12.5997 72.5325 13.0093 73.133C13.4259 73.7461 14.0485 74.131 14.858 74.2778C17.0716 74.6823 20.3419 73.2391 22.8294 71.8687C21.6063 73.0642 20.454 74.532 20.2394 75.9642C20.1113 76.8195 20.3264 77.5888 20.8791 78.2506C22.358 80.021 25.0625 78.2933 27.9254 76.4652C30.2897 74.9542 32.7344 73.3893 34.5867 73.6808C38.6942 74.3195 48.4239 81.5099 48.5213 81.5818C48.5661 81.6155 48.6203 81.6325 48.6751 81.6325C48.6997 81.6325 48.7249 81.6295 48.749 81.622C48.8274 81.5984 48.8892 81.5396 48.9168 81.4627L54.3269 66.4386C54.3726 66.3114 54.3123 66.1707 54.1887 66.116ZM-13.6148 66.3451L-23.7207 69.4371C-23.8479 69.4763 -23.9248 69.6054 -23.8971 69.7351C-23.8705 69.8657 -23.7474 69.9471 -23.6162 69.9391L-15.3525 68.9923C-14.1525 68.8687 -13.0812 69.6597 -12.847 70.8371C-12.7219 71.4657 -12.8576 72.0994 -13.2284 72.6225C-13.5998 73.1451 -14.1535 73.4823 -14.7892 73.5717L-22.9132 74.7612C-23.0479 74.7813 -23.1443 74.9024 -23.1323 75.0381C-22.9529 77.0999 -19.948 76.8627 -17.5339 76.6743C-16.8344 76.6195 -16.1726 76.5632 -15.6822 76.5818C-14.852 76.6074 -14.1591 77.1954 -13.9963 78.0129C-13.8395 78.8019 -14.2234 79.5959 -14.9299 79.9446C-15.9023 80.424 -17.739 81.13 -20.9666 81.7717C-21.2162 81.822 -21.4745 81.8446 -21.7624 81.8672C-27.368 82.3039 -32.8469 76.0205 -35.08 66.5838L-35.2383 65.8888C-35.2604 65.7878 -35.284 65.6893 -35.3077 65.5898C-35.3383 65.4627 -35.3685 65.3361 -35.3951 65.2044C-36.0393 61.9647 -35.5328 58.6717 -33.8911 55.4155C-33.7177 55.0717 -33.5363 54.7386 -33.3489 54.4155C-31.8067 51.7572 -29.9559 49.9843 -29.2313 49.3451C-28.6192 48.8059 -27.8107 48.6094 -27.0142 48.8059C-26.2127 49.0034 -25.5599 49.5813 -25.267 50.3511L-25.1986 50.5305C-24.8479 51.4516 -25.0971 52.5185 -25.8328 53.2481C-27.5363 54.9376 -28.4815 57.7697 -28.5207 57.8893C-28.5489 57.9753 -28.5303 58.0692 -28.471 58.1371C-28.4122 58.2059 -28.3217 58.2371 -28.2328 58.2235L-17.8696 56.434C-16.6988 56.231 -15.6018 56.9853 -15.3696 58.1501C-15.147 59.2707 -15.8375 60.3783 -16.94 60.6717L-25.3901 62.8687C-25.5212 62.9034 -25.6031 63.0335 -25.5775 63.1672C-25.5519 63.3009 -25.4278 63.3903 -25.2921 63.3732L-14.5666 61.9828C-13.4053 61.8381 -12.3189 62.623 -12.0907 63.7702C-11.8671 64.8943 -12.5234 66.0019 -13.6148 66.3451ZM-14.6314 61.4722L-21.2966 62.3366L-16.8088 61.1697C-15.4435 60.8059 -14.5897 59.4356 -14.8651 58.0496C-15.152 56.6094 -16.5093 55.6798 -17.9571 55.9265L-27.8825 57.6406C-27.5574 56.7979 -26.7147 54.8476 -25.47 53.6134C-24.5901 52.7406 -24.2946 51.4587 -24.7177 50.3471L-24.7861 50.1682C-25.1393 49.2406 -25.9258 48.5446 -26.8906 48.3059C-27.8549 48.0692 -28.8323 48.3069 -29.5715 48.9597C-30.3147 49.615 -32.2137 51.4335 -33.7941 54.1572C-33.9861 54.4893 -34.1725 54.8315 -34.3499 55.1828C-36.0454 58.5451 -36.5665 61.9501 -35.8996 65.3049C-35.872 65.4431 -35.8403 65.5768 -35.8082 65.7104C-35.7851 65.8054 -35.7619 65.9009 -35.7408 65.9989C-35.7408 66.0009 -35.7403 66.0019 -35.7398 66.0039L-35.5805 66.7024C-33.365 76.0672 -27.9675 82.4024 -22.3102 82.4024C-22.1147 82.4024 -21.9177 82.3954 -21.7217 82.3793C-21.4172 82.3562 -21.1428 82.332 -20.8661 82.2763C-17.5837 81.6235 -15.7023 80.8989 -14.7023 80.4059C-13.7872 79.9547 -13.2897 78.9295 -13.4917 77.9124C-13.7013 76.8587 -14.5958 76.0999 -15.6666 76.0677C-16.1862 76.0506 -16.8601 76.1049 -17.5741 76.1607C-19.6425 76.324 -22.1901 76.523 -22.575 75.232L-14.7164 74.0813C-13.94 73.9722 -13.2631 73.5602 -12.8093 72.921C-12.355 72.2813 -12.1892 71.5059 -12.3425 70.7361C-12.6284 69.2964 -13.949 68.3351 -15.4083 68.4808L-20.8882 69.1084L-13.4621 66.8366C-12.1179 66.4134 -11.3113 65.0526 -11.5862 63.6697C-11.8666 62.2592 -13.2008 61.2938 -14.6314 61.4722Z" fill="black"/>
<path fill-rule="evenodd" clip-rule="evenodd" d="M70.7957 95.4497C70.753 95.4497 70.7093 95.4391 70.6696 95.4165C60.8229 89.8633 48.0214 83.0738 47.8932 83.0055C47.8319 82.9733 47.7867 82.918 47.7671 82.8512C47.7475 82.7844 47.7556 82.713 47.7892 82.6527C49.347 79.8708 54.2148 65.1482 54.2641 64.9994C54.2882 64.9271 54.3435 64.8688 54.4153 64.8402C54.4867 64.812 54.5676 64.818 54.6344 64.8562L65.9314 71.2346C66.0555 71.3045 66.0993 71.4613 66.0294 71.5854C65.9591 71.7085 65.8028 71.7527 65.6787 71.6829L54.654 65.4582C53.9535 67.5698 49.9375 79.6005 48.3621 82.6718C50.1304 83.611 61.7942 89.8206 70.9224 94.9683C71.046 95.0381 71.0897 95.1949 71.0199 95.3191C70.9726 95.4025 70.8857 95.4497 70.7957 95.4497Z" fill="black"/>
<path fill-rule="evenodd" clip-rule="evenodd" d="M82.9159 82.1497C82.8375 82.1497 82.7606 82.1145 82.7103 82.0471C79.6671 78.015 71.1209 74.2843 71.035 74.2466C70.9048 74.1909 70.845 74.0391 70.9013 73.909C70.9576 73.7783 71.1078 73.718 71.2395 73.7748C71.5953 73.9291 79.9958 77.5964 83.1209 81.7381C83.2063 81.8507 83.1837 82.0125 83.0706 82.0979C83.0239 82.1326 82.9697 82.1497 82.9159 82.1497Z" fill="black"/>
</g>
<path fill-rule="evenodd" clip-rule="evenodd" d="M38 0.560803C17.3563 0.560803 0.561305 17.3558 0.561305 38C0.561305 58.6437 17.3563 75.4387 38 75.4387C58.6437 75.4387 75.4387 58.6437 75.4387 38C75.4387 17.3558 58.6437 0.560803 38 0.560803ZM38 76C17.0467 76 0 58.9533 0 38C0 17.0467 17.0467 0 38 0C58.9533 0 76 17.0467 76 38C76 58.9533 58.9533 76 38 76Z" fill="black"/>
</svg>
