<svg width="76" height="76" viewBox="0 0 76 76" fill="none" xmlns="http://www.w3.org/2000/svg">
<path fill-rule="evenodd" clip-rule="evenodd" d="M75.7196 37.9995C75.7196 58.8312 58.8322 75.7191 38 75.7191C17.1678 75.7191 0.280396 58.8312 0.280396 37.9995C0.280396 17.1673 17.1678 0.279907 38 0.279907C58.8322 0.279907 75.7196 17.1673 75.7196 37.9995Z" fill="#EEF2F8"/>
<mask id="mask0_154_1623" style="mask-type:alpha" maskUnits="userSpaceOnUse" x="0" y="0" width="76" height="76">
<path fill-rule="evenodd" clip-rule="evenodd" d="M75.7196 37.9995C75.7196 58.8312 58.8322 75.7191 38 75.7191C17.1678 75.7191 0.280396 58.8312 0.280396 37.9995C0.280396 17.1673 17.1678 0.279907 38 0.279907C58.8322 0.279907 75.7196 17.1673 75.7196 37.9995Z" fill="white"/>
</mask>
<g mask="url(#mask0_154_1623)">
<path fill-rule="evenodd" clip-rule="evenodd" d="M31.5527 43.1313C31.5527 43.1313 34.3278 41.3183 33.8343 33.8308C33.8343 33.8308 38.2231 35.8847 43.0111 32.4119L44.1155 43.0449C44.1155 43.0449 40.7959 46.8156 37.3151 46.4499C33.8343 46.0842 31.5527 43.1313 31.5527 43.1313Z" fill="#D96E05"/>
<path fill-rule="evenodd" clip-rule="evenodd" d="M33.9409 33.6032C36.7783 34.9311 39.7416 34.4729 42.8637 32.2085C43.0203 32.0949 43.2411 32.1934 43.2611 32.3859L44.3655 43.0189C44.3728 43.0886 44.3505 43.1582 44.3042 43.2109C42.0418 45.7807 39.7003 46.9531 37.2889 46.6997C34.8988 46.4487 32.9162 45.3069 31.354 43.285C31.2643 43.1689 31.2927 43.0011 31.4154 42.921C33.1662 41.7771 33.9072 38.7565 33.5836 33.8473C33.5711 33.6566 33.7677 33.5222 33.9409 33.6032ZM43.8538 42.9603L42.805 32.8638L42.5978 33.0043C39.7188 34.9092 36.9255 35.3391 34.2411 34.2797L34.1096 34.2261L34.1161 34.3414C34.3499 38.8491 33.6544 41.7799 31.9883 43.1248L31.9141 43.1824L32.0335 43.3269C33.4176 44.967 35.1137 45.9138 37.1315 46.1754L37.3414 46.2C39.5711 46.4342 41.7633 45.3366 43.927 42.8788L43.8538 42.9603Z" fill="black"/>
<path fill-rule="evenodd" clip-rule="evenodd" d="M37.3241 34.5226C32.2522 34.5226 28.1406 30.1628 28.1406 24.7839C28.1406 19.405 32.2522 15.0447 37.3241 15.0447C42.3959 15.0447 46.5075 19.405 46.5075 24.7839C46.5075 30.1628 42.3959 34.5226 37.3241 34.5226Z" fill="#D96E05"/>
<path fill-rule="evenodd" clip-rule="evenodd" d="M37.3241 15.2959C32.399 15.2959 28.3919 19.5522 28.3919 24.7839C28.3919 30.0155 32.399 34.2713 37.3241 34.2713C42.2492 34.2713 46.2563 30.0155 46.2563 24.7839C46.2563 19.5522 42.2492 15.2959 37.3241 15.2959ZM37.3241 34.7738C32.1216 34.7738 27.8894 30.2924 27.8894 24.7839C27.8894 19.2748 32.1216 14.7935 37.3241 14.7935C42.5266 14.7935 46.7588 19.2748 46.7588 24.7839C46.7588 30.2924 42.5266 34.7738 37.3241 34.7738Z" fill="black"/>
<path fill-rule="evenodd" clip-rule="evenodd" d="M32.3974 24.1004C32.3539 24.0896 31.3043 23.8382 30.1859 24.4277C30.0566 24.4955 30.0075 24.6544 30.0763 24.7829C30.1234 24.8718 30.2154 24.9232 30.3106 24.9232C30.352 24.9232 30.3944 24.9129 30.4343 24.8918C31.3659 24.4015 32.2598 24.6086 32.2691 24.6107C32.4124 24.6472 32.5546 24.5603 32.5893 24.4184C32.6245 24.2781 32.5386 24.1353 32.3974 24.1004ZM37.9588 24.3805C36.8166 23.8382 35.7799 24.1322 35.736 24.145C35.5963 24.1856 35.5166 24.3311 35.5575 24.4709C35.5978 24.6097 35.7427 24.6883 35.8855 24.6498C35.8938 24.6472 36.7788 24.4031 37.7306 24.8553C37.7674 24.8723 37.8062 24.881 37.8445 24.881C37.9433 24.881 38.0379 24.8255 38.0835 24.7315C38.1466 24.6004 38.0907 24.4426 37.9588 24.3805ZM36.5207 28.9375C36.4442 28.9236 36.3671 28.9462 36.3081 28.9945C35.0081 30.0758 33.3161 29.6 33.2995 29.5958C33.2064 29.5686 33.1055 29.5938 33.0373 29.6632C32.9684 29.732 32.9431 29.8317 32.9715 29.9247C33.2452 30.8246 34.1531 32.3551 35.7448 32.3551C35.9274 32.3551 36.1182 32.3346 36.3184 32.2914C36.8957 32.1665 37.1461 31.8392 37.2537 31.5868C37.6572 30.6432 36.8026 29.2186 36.7033 29.0587C36.6635 28.9935 36.5962 28.9493 36.5207 28.9375ZM30.3685 22.371C30.4296 22.371 30.4911 22.3499 30.5413 22.3077C31.3442 21.6232 32.2634 21.6278 32.2691 21.6319C32.4206 21.6365 32.536 21.5188 32.5386 21.3739C32.5417 21.2295 32.4263 21.1098 32.2804 21.1062C32.2344 21.1021 31.1574 21.0887 30.1963 21.9079C30.0851 22.003 30.0727 22.169 30.1673 22.2789C30.2201 22.3396 30.2941 22.371 30.3685 22.371ZM38.5563 21.9079C37.5946 21.0887 36.5155 21.101 36.4715 21.1062C36.3262 21.1098 36.2108 21.2295 36.2134 21.3739C36.2165 21.5188 36.3433 21.6355 36.4835 21.6319C36.4918 21.6288 37.4084 21.6237 38.2112 22.3077C38.2609 22.3499 38.3225 22.371 38.3835 22.371C38.458 22.371 38.5325 22.3396 38.5847 22.2789C38.6799 22.169 38.6669 22.003 38.5563 21.9079ZM33.193 27.5997L34.8167 27.7945C34.8276 27.796 34.8379 27.7965 34.8483 27.7965C34.9807 27.7965 35.0951 27.6984 35.1116 27.5653C35.1287 27.4209 35.0257 27.2903 34.8804 27.2729L33.5582 27.113L33.9731 25.5476C34.0103 25.4073 33.926 25.2639 33.7848 25.2264C33.6441 25.1888 33.4982 25.2731 33.4609 25.4145L32.9684 27.2718C32.9493 27.3448 32.9628 27.4234 33.0057 27.4861C33.0486 27.5494 33.1169 27.5905 33.193 27.5997Z" fill="black"/>
<path fill-rule="evenodd" clip-rule="evenodd" d="M35.6366 14.9153C17.4921 15.7881 18.0243 29.9432 18.0243 29.9432C8.44691 32.9909 10.9967 41.3553 10.9967 41.3553H32.4158L34.6849 34.2794H34.6854C30.8419 33.0156 28.0504 29.2156 28.0504 24.7243C28.0504 19.8695 31.3117 15.8258 35.6366 14.9153ZM58.513 29.9432C58.513 29.9432 59.0803 14.873 39.113 14.873C39.113 14.873 38.509 17.1057 41.2034 18.0208C41.2034 18.0208 40.5306 21.0474 42.7728 22.8404C45.015 24.6349 39.315 24.6218 41.9406 33.5397L40.9416 34.0321L43.3075 41.3553H65.5406C65.5406 41.3553 68.0904 32.9909 58.513 29.9432Z" fill="#FECB51"/>
<path fill-rule="evenodd" clip-rule="evenodd" d="M27.793 24.7241C27.793 29.1559 30.4221 33.0272 34.3627 34.4408L32.2282 41.0981H11.193C10.8774 39.8518 9.54676 32.9106 18.102 30.1885C18.2126 30.1538 18.2855 30.0498 18.2814 29.9337C18.2618 29.39 18.002 17.093 33.5698 15.3372C30.1272 16.9488 27.793 20.6061 27.793 24.7241ZM35.6235 14.6588C18.6086 15.4774 17.7965 28.0241 17.7674 29.7569C8.27037 32.893 10.7246 41.3448 10.7508 41.4302C10.7834 41.5388 10.8834 41.6126 10.9965 41.6126H32.4156C32.5277 41.6126 32.6266 41.5408 32.6607 41.4337L34.9296 34.3579C34.9728 34.2227 34.8999 34.079 34.7658 34.0353C30.903 32.7654 28.3076 29.0237 28.3076 24.7241C28.3076 20.0875 31.4121 16.0679 35.6894 15.1669C35.8205 15.1397 35.9085 15.0156 35.8914 14.8829C35.8743 14.7488 35.7441 14.6357 35.6235 14.6588ZM65.3447 41.0981H43.4944L41.2552 34.1649L42.0537 33.7709C42.1663 33.7157 42.2225 33.588 42.1874 33.4674C40.6055 28.095 42.0864 26.0744 42.9713 24.8674C43.516 24.1246 43.9864 23.4819 42.9331 22.6397C40.8472 20.9709 41.4482 18.105 41.4542 18.0759C41.4823 17.9483 41.41 17.8191 41.2859 17.7769C39.2788 17.096 39.2612 15.6528 39.3266 15.1302C46.0085 15.1669 51.0597 16.9101 54.3411 20.3136C58.4039 24.5262 58.2577 29.8805 58.2562 29.9337C58.2517 30.0498 58.3245 30.1538 58.4351 30.1885C66.9899 32.9106 65.6597 39.8518 65.3447 41.0981ZM58.7703 29.7569C58.7562 28.7282 58.4823 23.8719 54.7175 19.9628C51.3004 16.4146 46.0502 14.6156 39.1125 14.6156C38.9959 14.6156 38.8944 14.6935 38.8642 14.8055C38.8577 14.8297 38.2617 17.1633 40.912 18.188C40.7979 18.9483 40.606 21.4367 42.6115 23.0417C43.2798 23.5764 43.1266 23.7854 42.5562 24.5633C41.6271 25.8312 40.0793 27.9427 41.6331 33.4046L40.8281 33.8016C40.7135 33.8579 40.6577 33.99 40.6969 34.1111L43.0627 41.4347C43.0969 41.5408 43.1959 41.6126 43.3075 41.6126H65.5406C65.6537 41.6126 65.7537 41.5388 65.7864 41.4302C65.8125 41.3448 68.2673 32.893 58.7703 29.7569Z" fill="black"/>
<path fill-rule="evenodd" clip-rule="evenodd" d="M45.296 18.6341H28.205L29.0934 14.8623C29.9301 11.31 33.1005 8.79944 36.7507 8.79944C40.4 8.79944 43.5708 11.31 44.4075 14.8623L45.296 18.6341Z" fill="#409B81"/>
<path fill-rule="evenodd" clip-rule="evenodd" d="M24.2866 18.6341C17.177 18.6341 11.4127 18.0246 11.4127 17.2723C11.4127 16.5206 17.177 15.9105 24.2866 15.9105C31.3966 15.9105 35.9572 16.6045 37.1603 17.2723L39.3995 18.6341H24.2866Z" fill="#FF4200"/>
<path fill-rule="evenodd" clip-rule="evenodd" d="M39.4712 18.3774L37.2853 17.0473C36.3441 16.5247 33.5562 15.9995 29.1435 15.7709L29.344 14.9211C30.157 11.4684 33.2029 9.05681 36.7501 9.05681C40.2984 9.05681 43.3441 11.4684 44.1572 14.9211L44.9712 18.3774H39.4712ZM11.7033 17.2724C12.2832 16.8051 16.9073 16.1684 24.2867 16.1684C31.4002 16.1684 35.8818 16.8568 37.027 17.492L38.4818 18.3774H24.2867C16.9078 18.3774 12.2832 17.7392 11.7033 17.2724ZM45.5466 18.5759L44.6582 14.8035C43.7898 11.1166 40.5381 8.54224 36.7501 8.54224C32.9627 8.54224 29.7113 11.1166 28.843 14.8035L28.6203 15.7478C27.3068 15.688 25.8661 15.6533 24.2867 15.6533C20.8389 15.6533 17.5962 15.7955 15.1565 16.0533C11.1555 16.4769 11.1555 16.9945 11.1555 17.2724C11.1555 17.5503 11.1555 18.0679 15.1565 18.4915C17.5967 18.7493 20.8389 18.8915 24.2867 18.8915H39.3994H45.2964C45.3748 18.8915 45.4491 18.8553 45.4979 18.794C45.5466 18.7322 45.5642 18.6523 45.5466 18.5759Z" fill="black"/>
<path fill-rule="evenodd" clip-rule="evenodd" d="M69.5146 73.1876C69.5146 73.1876 68.0523 72.5278 65.8055 71.459L65.4493 68.7972L74.498 75.7173L69.5146 73.1876ZM85.2317 61.5489L85.2372 61.5464C76.7839 49.2183 62.8844 41.6791 47.9362 41.6791H44.3091C43.3377 43.7248 40.9327 45.1771 38.1106 45.1856C35.289 45.1771 32.8839 43.7248 31.9131 41.6791H28.2854C23.9372 41.6791 19.5372 42.2836 15.2749 43.4444C4.51609 46.3741 -4.39094 53.561 -9.77738 63.0384C-9.77888 63.0409 -9.78039 63.0429 -9.7824 63.0444C-11.908 65.8278 -13.1548 69.3811 -13.8653 72.968C-13.8688 72.9806 -13.8723 72.9916 -13.8754 73.0042C-13.8754 73.0042 -13.8764 73.0153 -13.8764 73.0188C-15.4663 81.1027 -14.3321 89.3459 -14.3311 89.355L-15.5121 82.656L-30.1162 85.4344C-30.1292 85.4062 -32.1564 85.8494 -32.1564 85.8494C-31.7689 87.7188 -31.3463 89.5771 -30.8735 91.3851C-28.3197 101.15 -22.8232 106.251 -14.8517 106.692C3.17087 107.691 8.37237 80.1364 8.37237 80.1364L10.7724 68.7972L9.30554 79.758L6.14424 98.7786H70.0779L69.4236 94.4459C72.0166 95.9213 74.3623 97.0143 76.3261 97.963C87.396 103.311 99.7312 97.0479 96.103 79.554C94.8081 73.3107 90.3357 67.0087 85.2317 61.5489Z" fill="#FF5613"/>
<path fill-rule="evenodd" clip-rule="evenodd" d="M66.0417 71.2862C68.1899 72.3063 69.606 72.9465 69.6201 72.9525C69.6236 72.9546 69.6276 72.9561 69.6306 72.9576L72.1165 74.2199L65.7864 69.3787L66.0417 71.2862ZM74.4974 75.9737C74.4582 75.9737 74.4181 75.9651 74.3814 75.946L69.403 73.4194C69.3025 73.3737 67.8502 72.7164 65.6949 71.6907C65.616 71.6536 65.5618 71.5792 65.5502 71.4928L65.1939 68.8309C65.1804 68.7279 65.2301 68.6264 65.3195 68.5747C65.41 68.5219 65.5221 68.5284 65.605 68.5922L74.6537 75.5118C74.7593 75.5928 74.7859 75.741 74.715 75.8541C74.6668 75.9304 74.5834 75.9737 74.4974 75.9737ZM-30.6252 91.3194C-28.1167 100.908 -22.8051 105.994 -14.8377 106.435C2.74969 107.417 8.06728 80.3616 8.11904 80.0882L10.5206 68.7435C10.5492 68.6088 10.6809 68.5199 10.816 68.543C10.9522 68.5666 11.0457 68.6937 11.0271 68.8309L9.56025 79.7917L6.44919 98.5209H69.7723L69.1703 94.4887C69.1532 94.3912 69.1944 94.2917 69.2758 94.235C69.3572 94.1777 69.4648 94.1721 69.5507 94.2224C71.7995 95.5013 73.8467 96.4852 75.6527 97.353L76.4376 97.7309C81.9045 100.372 87.7276 100.118 91.6356 97.0696C95.9854 93.6752 97.4824 87.4731 95.8507 79.6063C94.7331 74.2164 91.0969 68.1998 85.0432 61.7244C85.0216 61.7008 85.0045 61.6737 84.9929 61.645C76.508 49.3023 62.6598 41.9365 47.9361 41.9365H44.4683C43.3788 44.0626 40.904 45.434 38.111 45.443C35.317 45.434 32.8427 44.0626 31.7527 41.9365H28.2849C23.9763 41.9365 19.6221 42.5274 15.3427 43.6922C4.79241 46.5651 -4.0498 53.4802 -9.55433 63.1651C-9.56136 63.1787 -9.57393 63.1953 -9.58398 63.2078C-11.4513 65.6536 -12.8091 68.9566 -13.6136 73.0179C-13.6136 73.0345 -13.6207 73.052 -13.6242 73.0686C-15.1764 80.9601 -14.1227 88.9807 -14.0769 89.3184C-14.0578 89.4576 -14.1538 89.5867 -14.292 89.6078C-14.4312 89.6319 -14.5604 89.537 -14.585 89.3993L-15.7202 82.9571L-30.0685 85.6867C-30.087 85.6902 -30.1056 85.6912 -30.1247 85.6912C-30.2755 85.7108 -31.074 85.8777 -31.8529 86.046C-31.4458 87.9912 -31.0438 89.7189 -30.6252 91.3194ZM-14.8659 106.949C-23.082 106.494 -28.5514 101.279 -31.1227 91.45C-31.5614 89.7726 -31.982 87.9576 -32.4087 85.9013C-32.4373 85.7631 -32.3494 85.6279 -32.2112 85.5978C-30.9755 85.3279 -30.4247 85.2073 -30.1624 85.1907L-30.1644 85.1812L-15.5599 82.4028C-15.4925 82.3912 -15.4227 82.4048 -15.3659 82.444C-15.3091 82.4827 -15.2709 82.543 -15.2589 82.6108L-14.9528 84.348C-15.0443 81.2425 -14.9372 77.0812 -14.1292 72.9691C-14.1277 72.951 -14.1232 72.9319 -14.1181 72.9144C-13.298 68.7787 -11.9081 65.4043 -9.98699 62.8882C-4.4287 53.1063 4.52407 46.1048 15.2075 43.1958C19.5306 42.0184 23.9306 41.4214 28.2849 41.4214H31.9125C32.012 41.4214 32.1025 41.4792 32.1452 41.5681C33.11 43.6008 35.4517 44.9199 38.111 44.9284C40.7693 44.9199 43.111 43.6008 44.0763 41.5681C44.119 41.4792 44.2095 41.4214 44.3085 41.4214H47.9361C62.8477 41.4214 76.8713 48.8907 85.4492 61.4003C85.4517 61.4053 85.4547 61.4093 85.4572 61.4139C91.5537 67.9445 95.2196 74.0294 96.3547 79.5018C98.0281 87.5701 96.4648 93.953 91.9522 97.4747C87.8889 100.646 81.8582 100.921 76.214 98.1943L75.4301 97.8169C73.7432 97.0068 71.8467 96.0948 69.7683 94.935L70.3306 98.735C70.3437 98.8093 70.3231 98.8862 70.2738 98.944C70.2251 99.0013 70.1532 99.0355 70.0773 99.0355H6.14417C6.06829 99.0355 5.99643 99.0013 5.94719 98.944C5.89844 98.8862 5.87784 98.8093 5.8904 98.735L9.05171 79.7144L9.61452 75.5053L8.62356 80.1892C8.57281 80.4566 3.36226 106.974 -13.9126 106.975C-14.2272 106.975 -14.5433 106.967 -14.8659 106.949Z" fill="black"/>
<path fill-rule="evenodd" clip-rule="evenodd" d="M-33.8303 51.5013C-23.5188 63.0184 -21.5859 81.9164 -21.2347 89.6812L-21.1619 93.1797L-16.6784 93.351L-13.2608 91.2455L-9.36183 92.1922L-5.9573 90.0943L-5.95329 90.0923L-2.05781 91.0355L-2.05027 91.0304L-2.04122 91.0324L1.37234 88.9314L5.2628 89.8757L5.26832 89.8716L5.27485 89.8736L8.6829 87.7737L12.5789 88.7169L12.5869 88.7123L12.5955 88.7144L16.0085 86.6139L16.0136 86.6149L19.8995 87.5576L23.3151 85.4526L27.2161 86.3988L30.6327 84.2938L32.8849 84.6199C32.8849 84.6199 24.0422 59.1983 32.0538 41.0661L24.608 36.7013C24.608 36.7013 24.6065 36.7088 24.607 36.7093C24.6065 36.7088 24.608 36.7013 24.608 36.7013L5.99245 39.2747L-9.59801 41.744L-28.0978 45.049C-28.0978 45.049 -28.0863 45.0696 -28.0819 45.0787C-28.0863 45.0696 -28.0978 45.049 -28.0978 45.049L-33.8303 51.5013Z" fill="#EFF2F7"/>
<path fill-rule="evenodd" clip-rule="evenodd" d="M24.5547 36.9681L6.02761 39.5304L-9.55782 41.9987L-27.965 45.2862L-33.4864 51.5013C-23.2344 63.1173 -21.323 82.044 -20.9784 89.6686L-20.9096 92.9324L-16.7473 93.0907L-13.396 91.0264C-13.3377 90.9907 -13.2674 90.9796 -13.2005 90.9957L-9.40556 91.9163L-6.09249 89.8746C-6.0337 89.8389 -5.95933 89.8269 -5.893 89.842L-2.09299 90.7621L1.23716 88.7123C1.29545 88.6771 1.3663 88.6661 1.43263 88.6817L5.2256 89.6023L8.54821 87.5545C8.6065 87.5194 8.67685 87.5083 8.74369 87.5234L12.5437 88.444L15.8738 86.3942C15.9281 86.3611 15.9924 86.35 16.0552 86.3611L19.8552 87.2817L23.1799 85.2334C23.2382 85.1977 23.309 85.1867 23.3759 85.2023L27.1718 86.1229L30.498 84.0746C30.5497 84.0435 30.6105 84.0309 30.6698 84.0389L32.51 84.3058C31.4422 80.9998 24.4638 57.9349 31.7266 41.1726L24.5547 36.9681ZM5.95173 39.0209L24.5728 36.446C24.5894 36.444 24.606 36.4435 24.6226 36.4445C24.6231 36.4445 24.6236 36.4445 24.6241 36.444C24.6246 36.444 24.6246 36.4445 24.6251 36.4445C24.6643 36.4475 24.703 36.4585 24.7377 36.4796L32.1844 40.844C32.297 40.9103 32.3422 41.0505 32.2894 41.1706C24.411 58.9993 33.0397 84.2822 33.1281 84.5354C33.1573 84.6209 33.1407 84.7143 33.0834 84.7842C33.0261 84.854 32.9367 84.8857 32.8482 84.8746L30.6884 84.5611L27.3507 86.6178C27.2919 86.6535 27.2216 86.6646 27.1547 86.6485L23.3583 85.7284L20.0336 87.7766C19.9754 87.8123 19.905 87.8234 19.8382 87.8073L16.0522 86.8887L12.7296 88.9334C12.6919 88.9565 12.6477 88.9716 12.6045 88.9711C12.5753 88.9746 12.5462 88.9731 12.5186 88.9671L8.7266 88.0495L5.41002 90.0927C5.37234 90.1158 5.33012 90.1299 5.2864 90.1304C5.25776 90.1334 5.22911 90.1319 5.20148 90.1259L1.41605 89.2078L-1.90707 91.2515C-1.94475 91.2751 -1.98848 91.2897 -2.0322 91.2892C-2.06134 91.2927 -2.09098 91.2912 -2.11812 91.2852L-5.91058 90.3676L-9.22667 92.4108C-9.28496 92.4465 -9.35581 92.458 -9.42214 92.442L-13.2176 91.5214L-16.5437 93.5696C-16.5865 93.5962 -16.6367 93.6108 -16.6885 93.6073L-21.1715 93.4369C-21.3077 93.4319 -21.4162 93.3214 -21.4194 93.1857L-21.4925 89.6857C-21.836 82.0847 -23.7462 63.15 -34.0223 51.6731C-34.1095 51.5756 -34.11 51.4279 -34.0232 51.3304L-28.2901 44.8781C-28.2513 44.8339 -28.1989 44.8053 -28.1429 44.7952L-9.64325 41.4907L5.95173 39.0209Z" fill="black"/>
<path fill-rule="evenodd" clip-rule="evenodd" d="M24.5678 36.447C24.5959 36.4425 24.6251 36.4425 24.6547 36.448C24.7944 36.4736 24.8869 36.6083 24.8612 36.7475C24.813 37.0108 20.1055 63.2169 26.2974 82.3621L32.9597 84.3736C33.0954 84.4148 33.1723 84.5581 33.1316 84.6942C33.0899 84.8309 32.9472 84.9068 32.8105 84.8656L26.02 82.8153C25.9396 82.7912 25.8758 82.7289 25.8497 82.649C19.5547 63.3681 24.3065 36.9194 24.3552 36.655C24.3758 36.544 24.4633 36.4636 24.5678 36.447Z" fill="black"/>
<path d="M-6.36642 62.7595C-6.49858 61.9374 -5.93878 61.1641 -5.11667 61.0319L8.05921 58.9163C8.88132 58.7841 9.65469 59.3434 9.78685 60.1656L9.86021 60.6238C9.99237 61.446 9.43258 62.2193 8.61097 62.3515L-4.56541 64.4671C-5.38752 64.5992 -6.16089 64.0394 -6.29255 63.2178L-6.36642 62.7595Z" fill="#954000"/>
<path fill-rule="evenodd" clip-rule="evenodd" d="M-4.68848 67.1676L9.25123 64.9596C9.79494 68.3923 7.45324 71.6154 4.02057 72.1591L2.51153 72.3983C-0.921138 72.942 -4.14476 70.6003 -4.68848 67.1676Z" fill="#FFBA00"/>
<path fill-rule="evenodd" clip-rule="evenodd" d="M-4.79395 67.4073C-4.15827 70.8937 -0.851233 73.252 2.66786 72.6947L4.1769 72.4555L4.32917 72.4294C7.8156 71.7942 10.1739 68.4872 9.6166 64.9686L9.57741 64.7203L-4.61103 66.9676L-4.57134 67.2158L-4.81958 67.255L-4.79395 67.4073ZM4.09852 71.959L2.58896 72.1982L2.43922 72.2198C-0.699978 72.6384 -3.6241 70.5565 -4.26882 67.4731L-4.27838 67.4239L9.15429 65.2962L9.15982 65.3465C9.50504 68.5279 7.29399 71.453 4.09852 71.959Z" fill="black"/>
<path fill-rule="evenodd" clip-rule="evenodd" d="M8.30902 59.0109L-5.63069 61.2184C-6.03471 58.6681 -4.29501 56.2742 -1.74526 55.8707L2.96128 55.1249C5.51052 54.7214 7.90499 56.4606 8.30902 59.0109Z" fill="#FFBA00"/>
<path fill-rule="evenodd" clip-rule="evenodd" d="M-5.76181 61.3057L-5.72261 61.554L8.46533 59.3067L8.42614 59.059L8.67437 59.0193L8.65075 58.8836C8.16281 56.2711 5.6799 54.5067 3.03869 54.9248L-1.66733 55.6705L-1.80352 55.6937C-4.41608 56.1816 -6.1804 58.664 -5.76181 61.3057ZM8.13166 58.8509L-5.29799 60.9781L-5.30954 60.8409C-5.46934 58.5771 -3.87286 56.5283 -1.58894 56.1665L3.11709 55.4213L3.24624 55.4027C5.52413 55.1092 7.64271 56.6123 8.12965 58.8424L8.13166 58.8509Z" fill="black"/>
<path fill-rule="evenodd" clip-rule="evenodd" d="M8.58492 62.5615L-4.28996 64.6007C-5.31006 64.7625 -6.26735 64.067 -6.42865 63.0474C-6.59046 62.0273 -5.89499 61.0696 -4.87489 60.9082L7.99999 58.8691C9.01959 58.7077 9.97738 59.4037 10.1387 60.4233C10.3 61.4429 9.60451 62.4002 8.58492 62.5615ZM-4.36835 64.1047L8.50602 62.0655C9.25175 61.9474 9.7603 61.2474 9.6422 60.5022C9.52411 59.756 8.82411 59.2474 8.07839 59.3655L-4.79599 61.4047C-5.54222 61.5228 -6.05026 62.2228 -5.93217 62.9691C-5.81408 63.7143 -5.11458 64.2228 -4.36835 64.1047Z" fill="black"/>
<path fill-rule="evenodd" clip-rule="evenodd" d="M2.63567 64.2214L8.55979 63.2832C8.8427 63.2384 9.03667 62.9796 8.99295 62.7053C8.94974 62.4319 8.68541 62.2455 8.4025 62.2902L2.47839 63.2289C2.19547 63.2736 2.00099 63.5324 2.04471 63.8058C2.08793 64.0801 2.35275 64.2661 2.63567 64.2214Z" fill="#FF4200"/>
<path fill-rule="evenodd" clip-rule="evenodd" d="M1.94566 63.6087C2.01149 64.0248 2.40245 64.3087 2.81853 64.2429L8.66024 63.3178L8.72858 63.3037C9.10647 63.2082 9.35622 62.8379 9.2939 62.4449C9.22808 62.0293 8.83763 61.7454 8.42155 61.8112L2.57984 62.7364L2.51199 62.7504C2.1336 62.8459 1.88385 63.2163 1.94566 63.6087ZM8.58185 62.8213L2.74014 63.7464L2.6929 63.7499C2.56978 63.7469 2.46225 63.6565 2.44215 63.5303C2.41954 63.3886 2.51652 63.2555 2.65873 63.2328L8.50044 62.3077L8.54717 62.3047C8.67029 62.3072 8.77783 62.3977 8.79743 62.5238C8.82004 62.6655 8.72356 62.7992 8.58185 62.8213Z" fill="black"/>
<path fill-rule="evenodd" clip-rule="evenodd" d="M-4.21613 65.3068L1.70849 64.3681C1.9914 64.3234 2.18537 64.0646 2.14165 63.7907C2.09844 63.5169 1.83412 63.3309 1.55121 63.3757L-4.37342 64.3138C-4.65634 64.3586 -4.8498 64.6174 -4.80659 64.8912C-4.76337 65.1651 -4.49905 65.3515 -4.21613 65.3068Z" fill="#FF4200"/>
<path fill-rule="evenodd" clip-rule="evenodd" d="M-4.90552 64.6942C-4.83919 65.1103 -4.44924 65.3942 -4.03316 65.3283L1.80855 64.4032L1.87689 64.3892C2.25528 64.2937 2.50453 63.9233 2.44222 63.5304C2.37639 63.1148 1.98594 62.8309 1.57036 62.8967L-4.27186 63.8218L-4.33969 63.8359C-4.71809 63.9314 -4.96733 64.3017 -4.90552 64.6942ZM1.73015 63.9067L-4.11156 64.8319L-4.15828 64.8349C-4.2814 64.8324 -4.38894 64.7419 -4.40904 64.6153C-4.43115 64.4741 -4.33466 64.3404 -4.19296 64.3183L1.64875 63.3932L1.69548 63.3897C1.81859 63.3927 1.92614 63.4831 1.94624 63.6087C1.96835 63.751 1.87186 63.8841 1.73015 63.9067Z" fill="black"/>
<path fill-rule="evenodd" clip-rule="evenodd" d="M10.4703 64.349C10.4849 64.4414 11.2708 64.9686 11.1794 64.9902C9.97083 65.2766 9.73667 64.0907 8.51054 64.2846C7.2834 64.4791 7.45827 65.5806 6.23164 65.7751C5.00501 65.9696 4.83064 64.8676 3.60451 65.0615C2.37787 65.256 2.55225 66.358 1.32612 66.552C0.0984774 66.7465 -0.0758986 65.6444 -1.30404 65.8389C-2.53218 66.0339 -2.35781 67.1354 -3.58595 67.3299C-4.81459 67.5248 -6.82615 66.3394 -6.82615 66.3394C-6.84072 66.247 -5.74373 65.9902 -5.77187 65.9002C-5.88544 65.5354 -6.55429 65.3595 -6.46283 65.3379C-5.25429 65.0515 -5.02012 66.2379 -3.79348 66.0434C-2.56635 65.8495 -2.74123 64.747 -1.5146 64.553C-0.288465 64.3585 -0.113585 65.461 1.11255 65.2666C2.33918 65.0726 2.1643 63.9701 3.39094 63.7756C4.61858 63.5811 4.79294 64.6836 6.02108 64.4892C7.24923 64.2947 7.07485 63.1922 8.30299 62.9977C9.53114 62.8032 9.65375 63.8188 10.8929 63.7158L10.4703 64.349Z" fill="#009E80"/>
<path fill-rule="evenodd" clip-rule="evenodd" d="M11.4322 64.9279C11.4619 65.0686 11.3739 65.2028 11.2373 65.2344C10.6488 65.3741 10.2945 65.2601 9.71615 64.8837L9.57695 64.7937C9.17042 64.5395 8.93776 64.4716 8.54982 64.5329C8.11415 64.6018 7.9252 64.746 7.5659 65.1882L7.48198 65.2902C7.09756 65.746 6.81816 65.9365 6.27093 66.0234C5.68449 66.1164 5.35384 66.0003 4.78148 65.6294L4.68248 65.5666C4.26992 65.3093 4.04781 65.246 3.64379 65.3098C3.20811 65.3792 3.01917 65.5229 2.66038 65.9651L2.57595 66.0671C2.19153 66.5229 1.91263 66.7133 1.3654 66.8003C0.778461 66.8932 0.447813 66.7772 -0.125051 66.4068L-0.22405 66.3435C-0.637115 66.0862 -0.859728 66.0234 -1.26475 66.0872C-1.70093 66.1566 -1.89038 66.3008 -2.25018 66.743L-2.3341 66.845C-2.71953 67.3008 -2.99892 67.4917 -3.54666 67.5782C-3.85521 67.6269 -4.20998 67.6023 -4.60545 67.5163C-4.96877 67.4369 -5.35872 67.3073 -5.76324 67.14C-6.05772 67.0179 -6.34314 66.8827 -6.60897 66.7445C-6.66224 66.7169 -6.71099 66.6907 -6.7547 66.6671L-6.9537 66.556C-7.01852 66.5179 -7.06275 66.4525 -7.0743 66.3787C-7.09089 66.2751 -7.05169 66.1983 -6.99189 66.14C-6.96676 66.1158 -6.93963 66.0967 -6.90797 66.0792C-6.86827 66.0565 -6.81852 66.0349 -6.75571 66.0108L-6.68787 65.9852L-6.15722 65.8093L-6.20496 65.7761L-6.26274 65.7405C-6.29641 65.7204 -6.31702 65.7088 -6.34867 65.6927L-6.49943 65.6194C-6.55069 65.5947 -6.57581 65.5817 -6.60294 65.5631L-6.62857 65.546C-6.66475 65.5169 -6.70445 65.4646 -6.71802 65.3917C-6.75219 65.2118 -6.64164 65.1219 -6.52104 65.0937C-5.93209 64.954 -5.57782 65.0676 -4.99892 65.445L-4.85973 65.5344C-4.4537 65.7887 -4.22053 65.8571 -3.83259 65.7957C-3.39691 65.7264 -3.20797 65.5822 -2.84917 65.14L-2.76475 65.038C-2.38033 64.5822 -2.10144 64.3912 -1.5542 64.3048C-0.96777 64.2118 -0.637118 64.3279 -0.0642543 64.6988L0.0342379 64.7616C0.446801 65.0194 0.668916 65.0827 1.07344 65.0184C1.50861 64.9495 1.69756 64.8053 2.05686 64.3631L2.14077 64.2611C2.52519 63.8053 2.80409 63.6143 3.35183 63.5274C3.93826 63.4349 4.26892 63.5505 4.84228 63.9214L4.94127 63.9847C5.35384 64.242 5.57645 64.3053 5.98148 64.241C6.41816 64.1721 6.60711 64.0279 6.9669 63.5852L7.05133 63.4832C7.43625 63.0274 7.71565 62.8365 8.26389 62.7495C8.85234 62.6566 9.19103 62.7671 9.73022 63.1113L9.87344 63.2018C10.2458 63.4294 10.4765 63.4983 10.8724 63.4656C11.082 63.4485 11.2187 63.6807 11.1021 63.8555L10.793 64.3189L11.191 64.6344L11.3046 64.7319C11.3302 64.756 11.3513 64.7777 11.3684 64.7988C11.3996 64.837 11.4212 64.8736 11.4322 64.9279ZM-4.49842 67.0254C-4.15872 67.0993 -3.86375 67.1199 -3.62556 67.0822C-3.18887 67.0128 -2.99993 66.8686 -2.64013 66.4264L-2.55571 66.3244C-2.17078 65.8686 -1.89139 65.6777 -1.34315 65.5912C-0.756213 65.4983 -0.425052 65.6138 0.147812 65.9847L0.246803 66.0475C0.659366 66.3048 0.881979 66.3681 1.2865 66.3038C1.72218 66.2349 1.91113 66.0907 2.26992 65.6485L2.35434 65.547C2.73826 65.0912 3.01766 64.9003 3.56489 64.8138C4.15132 64.7209 4.48198 64.8365 5.05434 65.2078L5.15334 65.2706C5.5659 65.5279 5.78801 65.5912 6.19253 65.5269C6.62771 65.4581 6.81666 65.3138 7.17545 64.8716L7.25987 64.7701C7.6443 64.3143 7.92369 64.1234 8.47092 64.0364C9.04077 63.9465 9.385 64.0681 9.94781 64.4349L10.082 64.5214C10.2302 64.6138 10.3543 64.6807 10.4714 64.7244L10.5121 64.7385L10.4202 64.6621C10.2825 64.544 10.2393 64.4983 10.2222 64.3882C10.2121 64.3254 10.2262 64.2616 10.2614 64.2093L10.4292 63.9581L10.3825 63.951C10.1257 63.9068 9.89504 63.8038 9.61464 63.6324L9.36741 63.4772C8.98048 63.2405 8.75384 63.1807 8.34228 63.246C7.9061 63.3148 7.71665 63.4591 7.35685 63.9018L7.27294 64.0038C6.88751 64.4596 6.60811 64.6505 6.06037 64.7375C5.47293 64.8304 5.14228 64.7143 4.56891 64.3435L4.46992 64.2807C4.05736 64.0229 3.83475 63.9601 3.43022 64.0239C2.99454 64.0927 2.8061 64.237 2.44681 64.6797L2.36288 64.7812C1.97846 65.2375 1.69957 65.4279 1.15183 65.5148C0.565401 65.6078 0.234745 65.4917 -0.337616 65.1204L-0.436615 65.0576C-0.849177 64.8003 -1.07129 64.737 -1.47531 64.8008C-1.91099 64.8701 -2.09993 65.0138 -2.45873 65.4565L-2.54315 65.5586C-2.92757 66.0143 -3.20646 66.2053 -3.7542 66.2917C-4.32354 66.3822 -4.66827 66.2601 -5.23109 65.8932L-5.36526 65.8073C-5.42455 65.7701 -5.47983 65.737 -5.53259 65.7078L-5.60345 65.6711L-5.59139 65.6892C-5.57933 65.7108 -5.56827 65.7329 -5.55822 65.7555L-5.53209 65.8254C-5.49792 65.9349 -5.5341 66.0254 -5.59691 66.0917C-5.62254 66.1189 -5.65069 66.1395 -5.68385 66.1586C-5.72355 66.1817 -5.77279 66.2038 -5.83611 66.2284C-5.86928 66.241 -5.90244 66.253 -5.94164 66.2671L-6.24265 66.3671L-6.18334 66.3968C-6.05219 66.4616 -5.91702 66.5254 -5.77933 66.5862L-5.57078 66.6756C-5.19189 66.8324 -4.82958 66.953 -4.49842 67.0254Z" fill="black"/>
<path fill-rule="evenodd" clip-rule="evenodd" d="M33.2724 49.0318C34.3518 50.6776 35.4744 52.3886 36.688 54.0218C41.8438 60.959 54.0845 66.3514 54.0845 66.3514L48.6744 81.3755C48.6744 81.3755 38.8443 74.0821 34.6257 73.4263C32.6779 73.1233 30.1679 74.7268 27.7865 76.2479C25.0111 78.0208 22.4106 79.6826 21.0764 78.0856C18.5905 75.1097 24.3332 70.7836 25.8382 69.7283C24.0191 70.9509 15.5342 76.3856 13.2211 72.9886C10.987 69.7072 19.6272 65.9268 19.6272 65.9268C19.6272 65.9268 10.4438 69.9389 9.25079 65.6228C8.05481 61.2936 19.9086 59.0836 19.9086 59.0836L13.8845 59.1363C9.69653 58.9253 9.93271 56.8057 9.93271 56.8057C9.79803 51.5152 25.8247 51.7178 25.8247 51.7178C25.8247 51.7178 16.9458 41.1544 22.4397 39.961C26.7141 39.0323 29.7674 43.6876 33.2724 49.0318ZM-25.3257 63.1183L-14.5985 61.7273C-13.2985 61.5655 -12.0944 62.4348 -11.8387 63.7198C-11.5899 64.9705 -12.3231 66.2082 -13.5397 66.5916L-23.6458 69.6831L-15.3794 68.7364C-14.0608 68.5972 -12.8532 69.4856 -12.5949 70.7866C-12.307 72.2313 -13.2934 73.6208 -14.7527 73.8263L-22.8764 75.0158C-22.719 76.8233 -19.8512 76.5982 -17.5542 76.4178C-16.8397 76.3615 -16.1804 76.3097 -15.6748 76.3248C-14.7276 76.3529 -13.9291 77.0333 -13.7442 77.963C-13.5658 78.858 -13.9974 79.7715 -14.816 80.175C-15.8894 80.7042 -17.7567 81.3961 -20.9165 82.0243C-21.189 82.0781 -21.4654 82.1017 -21.7423 82.1233H-21.7428C-21.8699 82.1328 -21.998 82.1364 -22.1262 82.1394C-22.283 82.7152 -22.2659 83.3454 -22.0518 83.9002L-30.1161 85.4343C-30.1242 85.4173 -30.9086 85.5811 -31.5026 85.7082C-32.1323 82.6766 -32.6706 79.6188 -33.1836 76.7052C-33.593 74.3801 -33.9862 72.1459 -34.397 70.0896C-34.3684 70.1414 -34.3324 70.1921 -34.2965 70.2429C-34.2859 70.2575 -34.2753 70.2725 -34.2649 70.2876C-34.6669 69.1499 -35.0247 67.9353 -35.3307 66.6429V66.6424C-35.3597 66.5203 -35.3874 66.3972 -35.4151 66.2735C-35.4398 66.1635 -35.4644 66.0539 -35.49 65.9449C-35.5114 65.8469 -35.5343 65.7509 -35.5572 65.6554C-35.5889 65.5233 -35.6204 65.3916 -35.6478 65.2539C-36.395 61.4972 -35.5237 58.0811 -34.1212 55.2992C-33.9453 54.9519 -33.7619 54.6137 -33.5719 54.2861C-32.2423 51.9951 -30.6101 50.2183 -29.4021 49.1519C-27.9684 47.8871 -25.7071 48.4725 -25.0267 50.2595L-24.9584 50.4384C-24.5609 51.4841 -24.8573 52.6429 -25.6518 53.4308C-27.3312 55.0961 -28.2769 57.9695 -28.2769 57.9695L-17.9135 56.1801C-16.615 55.9559 -15.3748 56.8077 -15.1175 58.0997C-14.8678 59.3564 -15.6371 60.5911 -16.8753 60.9213L-25.3257 63.1183Z" fill="#D96E05"/>
<path fill-rule="evenodd" clip-rule="evenodd" d="M48.5492 80.9641C46.8869 79.751 38.5482 73.7756 34.6653 73.1721C34.4894 73.1445 34.31 73.1319 34.1276 73.1319C32.1864 73.1319 29.8829 74.6043 27.6482 76.0314C24.9809 77.7349 22.4618 79.3425 21.2739 77.9204C20.8131 77.3691 20.6412 76.754 20.7482 76.041C21.1206 73.552 24.7839 70.7882 25.9653 69.955C26.1724 69.8148 26.302 69.7249 26.3377 69.6998C26.3502 69.6907 26.3578 69.6781 26.3683 69.6676C26.9412 69.3063 27.596 68.9616 28.2296 68.7781C28.3663 68.7384 28.4452 68.5957 28.406 68.4595C28.3658 68.3239 28.2246 68.2445 28.0869 68.2842C27.0402 68.5867 25.9759 69.2706 25.2452 69.8108C23.2442 71.1093 17.9306 74.3058 14.9497 73.7716C14.2708 73.648 13.7754 73.345 13.4342 72.844C13.1105 72.3686 13.0296 71.8721 13.1869 71.3254C13.9347 68.7259 19.6729 66.1877 19.7306 66.1626C19.7407 66.158 19.7477 66.15 19.7568 66.144C21.2331 65.4595 23.4412 64.5606 25.8834 63.9962C26.0216 63.9641 26.1075 63.8259 26.0759 63.6877C26.0437 63.549 25.9075 63.4631 25.7668 63.4947C23.206 64.0867 20.903 65.0389 19.402 65.743C18.5412 66.1013 13.2502 68.2078 10.7105 66.9972C10.0809 66.6972 9.68441 66.2249 9.49949 65.554C9.33969 64.9776 9.42963 64.4289 9.77436 63.8771C11.6206 60.9219 19.8728 59.352 19.9563 59.3364C19.994 59.3294 20.0271 59.3128 20.0568 59.2912C20.3583 59.2611 20.6864 59.2264 21.0512 59.1872C21.9713 59.0897 23.1166 58.9681 24.5121 58.8475C24.6533 58.8359 24.7583 58.7113 24.7462 58.5696C24.7337 58.4274 24.6115 58.3254 24.4678 58.3354C23.0673 58.4555 21.9191 58.5776 20.997 58.6756C20.4035 58.7389 19.904 58.7922 19.4779 58.8304L13.8975 58.8791C11.8563 58.7761 10.9548 58.2103 10.5583 57.7535C10.1527 57.2867 10.1869 56.8505 10.1899 56.7992C10.1734 56.1525 10.4191 55.5802 10.9402 55.0525C13.8693 52.0857 24.1382 51.9746 25.6387 51.9746C25.7643 51.9746 25.8171 51.9746 25.8251 51.9751C25.9246 51.9751 26.0151 51.9178 26.0573 51.8284C26.1005 51.7369 26.0869 51.6294 26.0221 51.5525C25.9618 51.4807 19.9995 44.3364 21.0161 41.358C21.2211 40.758 21.7045 40.3837 22.494 40.2118C26.594 39.3269 29.5899 43.8862 33.0568 49.1721C34.1417 50.8259 35.2633 52.5359 36.4819 54.1751C41.2382 60.5746 52.0844 65.7183 53.7623 66.4872L48.5492 80.9641ZM54.1884 66.1158C54.0663 66.0626 41.9497 60.6701 36.895 53.8686C35.6849 52.241 34.5678 50.5374 33.4874 48.8902C29.9156 43.4455 26.8281 38.7374 22.3854 39.7093C21.4176 39.9193 20.7935 40.4183 20.5296 41.1917C19.5603 44.0309 23.9764 49.8319 25.2819 51.4595C22.8844 51.4736 13.506 51.7214 10.5744 54.6907C9.95777 55.3153 9.65577 56.0294 9.67687 56.7771C9.67436 56.8043 9.61103 57.4339 10.1537 58.0721C10.8221 58.858 12.0728 59.3023 13.8869 59.3927L17.5548 59.3616C14.8779 60.0651 10.6713 61.4706 9.33817 63.6043C8.91908 64.2756 8.80602 64.9781 9.00351 65.6907C9.22763 66.5028 9.72762 67.0987 10.4894 67.4616C12.0839 68.2224 14.5643 67.8193 16.5548 67.2696C14.912 68.2887 13.1201 69.6977 12.6924 71.1827C12.4929 71.8761 12.5995 72.5324 13.009 73.1329C13.4256 73.746 14.0482 74.1309 14.8578 74.2776C17.0713 74.6822 20.3417 73.239 22.8291 71.8686C21.606 73.0641 20.4538 74.5319 20.2392 75.9641C20.111 76.8194 20.3261 77.5887 20.8789 78.2505C22.3578 80.0209 25.0623 78.2932 27.9251 76.4651C30.2894 74.954 32.7342 73.3892 34.5864 73.6807C38.694 74.3194 48.4236 81.5098 48.5211 81.5817C48.5658 81.6153 48.6201 81.6324 48.6749 81.6324C48.6995 81.6324 48.7246 81.6294 48.7487 81.6219C48.8271 81.5982 48.8889 81.5395 48.9166 81.4626L54.3266 66.4384C54.3724 66.3113 54.3121 66.1706 54.1884 66.1158ZM-13.6151 66.345L-23.721 69.4369C-23.8481 69.4761 -23.925 69.6053 -23.8974 69.7349C-23.8707 69.8656 -23.7476 69.947 -23.6164 69.9389L-15.3528 68.9922C-14.1528 68.8686 -13.0814 69.6595 -12.8473 70.8369C-12.7221 71.4656 -12.8578 72.0993 -13.2287 72.6224C-13.6 73.145 -14.1538 73.4822 -14.7895 73.5716L-22.9134 74.7611C-23.0481 74.7812 -23.1446 74.9023 -23.1325 75.0379C-22.9531 77.0998 -19.9483 76.8626 -17.5342 76.6741C-16.8347 76.6194 -16.1729 76.5631 -15.6824 76.5817C-14.8523 76.6073 -14.1593 77.1952 -13.9965 78.0128C-13.8397 78.8018 -14.2236 79.5957 -14.9302 79.9445C-15.9025 80.4239 -17.7392 81.1299 -20.9669 81.7716C-21.2165 81.8219 -21.4747 81.8445 -21.7627 81.8671C-27.3682 82.3038 -32.8471 76.0204 -35.0803 66.5837L-35.2386 65.8887C-35.2607 65.7877 -35.2843 65.6892 -35.3079 65.5897C-35.3386 65.4626 -35.3687 65.3359 -35.3953 65.2043C-36.0396 61.9646 -35.533 58.6716 -33.8913 55.4153C-33.718 55.0716 -33.5366 54.7384 -33.3491 54.4153C-31.8069 51.757 -29.9562 49.9842 -29.2315 49.345C-28.6195 48.8058 -27.8109 48.6093 -27.0144 48.8058C-26.2129 49.0033 -25.5602 49.5812 -25.2672 50.351L-25.1989 50.5304C-24.8481 51.4515 -25.0974 52.5183 -25.833 53.248C-27.5366 54.9374 -28.4818 57.7696 -28.521 57.8892C-28.5491 57.9751 -28.5305 58.0691 -28.4712 58.1369C-28.4124 58.2058 -28.322 58.2369 -28.233 58.2234L-17.8699 56.4339C-16.699 56.2309 -15.602 56.9852 -15.3699 58.15C-15.1473 59.2706 -15.8377 60.3781 -16.9402 60.6716L-25.3903 62.8686C-25.5215 62.9033 -25.6034 63.0334 -25.5778 63.1671C-25.5521 63.3008 -25.428 63.3902 -25.2923 63.3731L-14.5669 61.9827C-13.4055 61.8379 -12.3191 62.6229 -12.091 63.7701C-11.8674 64.8942 -12.5236 66.0018 -13.6151 66.345ZM-14.6317 61.4721L-21.2969 62.3364L-16.8091 61.1696C-15.4437 60.8058 -14.59 59.4354 -14.8653 58.0495C-15.1523 56.6093 -16.5096 55.6797 -17.9573 55.9264L-27.8828 57.6405C-27.5577 56.7977 -26.7149 54.8475 -25.4702 53.6133C-24.5903 52.7405 -24.2948 51.4585 -24.718 50.347L-24.7863 50.1681C-25.1396 49.2405 -25.926 48.5445 -26.8908 48.3058C-27.8551 48.0691 -28.8325 48.3068 -29.5717 48.9596C-30.3149 49.6148 -32.2139 51.4334 -33.7943 54.157C-33.9863 54.4892 -34.1727 54.8314 -34.3501 55.1827C-36.0456 58.545 -36.5667 61.95 -35.8999 65.3048C-35.8722 65.443 -35.8406 65.5766 -35.8084 65.7103C-35.7853 65.8053 -35.7622 65.9008 -35.7411 65.9988C-35.7411 66.0008 -35.7406 66.0018 -35.7401 66.0038L-35.5808 66.7023C-33.3652 76.0671 -27.9677 82.4023 -22.3104 82.4023C-22.1149 82.4023 -21.918 82.3952 -21.722 82.3792C-21.4175 82.356 -21.1431 82.3319 -20.8664 82.2761C-17.5839 81.6234 -15.7025 80.8988 -14.7025 80.4058C-13.7875 79.9545 -13.29 78.9294 -13.492 77.9123C-13.7015 76.8585 -14.596 76.0998 -15.6669 76.0676C-16.1865 76.0505 -16.8603 76.1048 -17.5744 76.1606C-19.6427 76.3239 -22.1903 76.5229 -22.5752 75.2319L-14.7166 74.0812C-13.9402 73.9721 -13.2633 73.5601 -12.8096 72.9209C-12.3553 72.2812 -12.1895 71.5058 -12.3427 70.7359C-12.6287 69.2962 -13.9493 68.3349 -15.4086 68.4807L-20.8885 69.1083L-13.4623 66.8364C-12.1181 66.4133 -11.3116 65.0525 -11.5864 63.6696C-11.8669 62.259 -13.201 61.2937 -14.6317 61.4721Z" fill="black"/>
<path fill-rule="evenodd" clip-rule="evenodd" d="M70.7955 95.4495C70.7528 95.4495 70.7091 95.4389 70.6694 95.4163C60.8226 89.863 48.0211 83.0736 47.893 83.0052C47.8317 82.9731 47.7865 82.9178 47.7669 82.851C47.7473 82.7841 47.7553 82.7128 47.789 82.6525C49.3468 79.8706 54.2146 65.1479 54.2638 64.9992C54.288 64.9268 54.3432 64.8686 54.4151 64.8399C54.4865 64.8118 54.5674 64.8178 54.6342 64.856L65.9312 71.2344C66.0553 71.3042 66.099 71.461 66.0292 71.5851C65.9588 71.7082 65.8025 71.7525 65.6784 71.6826L54.6538 65.458C53.9533 67.5696 49.9372 79.6002 48.3618 82.6716C50.1302 83.6108 61.794 89.8203 70.9221 94.968C71.0458 95.0379 71.0895 95.1947 71.0196 95.3188C70.9724 95.4022 70.8855 95.4495 70.7955 95.4495Z" fill="black"/>
<path fill-rule="evenodd" clip-rule="evenodd" d="M82.9156 82.1494C82.8372 82.1494 82.7603 82.1142 82.7101 82.0469C79.6669 78.0147 71.1207 74.2841 71.0347 74.2464C70.9046 74.1906 70.8448 74.0389 70.9011 73.9087C70.9573 73.7781 71.1076 73.7178 71.2392 73.7745C71.595 73.9288 79.9955 77.5962 83.1207 81.7379C83.2061 81.8504 83.1835 82.0122 83.0704 82.0977C83.0237 82.1323 82.9694 82.1494 82.9156 82.1494Z" fill="black"/>
</g>
<path fill-rule="evenodd" clip-rule="evenodd" d="M38 0.560803C17.3563 0.560803 0.561305 17.3558 0.561305 38C0.561305 58.6437 17.3563 75.4387 38 75.4387C58.6437 75.4387 75.4387 58.6437 75.4387 38C75.4387 17.3558 58.6437 0.560803 38 0.560803ZM38 76C17.0467 76 0 58.9533 0 38C0 17.0467 17.0467 0 38 0C58.9533 0 76 17.0467 76 38C76 58.9533 58.9533 76 38 76Z" fill="black"/>
</svg>
