<svg width="32" height="32" viewBox="0 0 32 32" fill="none" xmlns="http://www.w3.org/2000/svg">
<path d="M12.3719 7.57036C13.1737 7.57036 13.8237 6.92034 13.8237 6.11851C13.8237 5.31667 13.1737 4.66666 12.3719 4.66666C11.5701 4.66666 10.92 5.31667 10.92 6.11851C10.92 6.92034 11.5701 7.57036 12.3719 7.57036Z" fill="black"/>
<path d="M15.5555 17.6296H13.4814V9.33331H10.3703C10.0953 9.33331 9.83152 9.44257 9.63704 9.63705C9.44256 9.83154 9.3333 10.0953 9.3333 10.3703C9.3333 10.6454 9.44256 10.9092 9.63704 11.1036C9.83152 11.2981 10.0953 11.4074 10.3703 11.4074H11.4074V17.6296H9.3333C9.05826 17.6296 8.79449 17.7389 8.60001 17.9333C8.40552 18.1278 8.29626 18.3916 8.29626 18.6666C8.29626 18.9417 8.40552 19.2055 8.60001 19.3999C8.79449 19.5944 9.05826 19.7037 9.3333 19.7037H15.5555C15.8306 19.7037 16.0943 19.5944 16.2888 19.3999C16.4833 19.2055 16.5926 18.9417 16.5926 18.6666C16.5926 18.3916 16.4833 18.1278 16.2888 17.9333C16.0943 17.7389 15.8306 17.6296 15.5555 17.6296Z" fill="black"/>
<path d="M12.4444 0C9.98317 0 7.57716 0.729854 5.53069 2.09727C3.48421 3.46468 1.88917 5.40824 0.947282 7.68216C0.005392 9.95608 -0.241049 12.4582 0.239122 14.8722C0.719294 17.2862 1.90451 19.5036 3.6449 21.244C5.38528 22.9844 7.60267 24.1696 10.0167 24.6498C12.4306 25.1299 14.9328 24.8835 17.2067 23.9416C19.4807 22.9997 21.4242 21.4047 22.7916 19.3582C24.159 17.3117 24.8889 14.9057 24.8889 12.4444C24.8889 9.14397 23.5778 5.97868 21.244 3.64489C18.9102 1.31111 15.7449 0 12.4444 0ZM12.4444 22.8148C10.3934 22.8148 8.38838 22.2066 6.68298 21.0671C4.97758 19.9276 3.64839 18.3079 2.86348 16.413C2.07857 14.5181 1.8732 12.4329 2.27334 10.4213C2.67349 8.40963 3.66117 6.56181 5.11149 5.11148C6.56181 3.66116 8.40963 2.67348 10.4213 2.27334C12.4329 1.87319 14.5181 2.07856 16.413 2.86347C18.308 3.64838 19.9276 4.97758 21.0671 6.68297C22.2066 8.38837 22.8148 10.3934 22.8148 12.4444C22.8148 13.8063 22.5466 15.1548 22.0254 16.413C21.5043 17.6712 20.7404 18.8144 19.7774 19.7774C18.8144 20.7404 17.6712 21.5043 16.413 22.0254C15.1548 22.5466 13.8063 22.8148 12.4444 22.8148Z" fill="black"/>
</svg>
