<svg width="32" height="32" viewBox="0 0 32 32" fill="none" xmlns="http://www.w3.org/2000/svg">
<path d="M27 7.75H22.75L21.7375 4.9125C21.6675 4.71834 21.5394 4.55051 21.3704 4.43193C21.2015 4.31335 21.0001 4.24982 20.7938 4.25H11.2063C10.7844 4.25 10.4062 4.51563 10.2656 4.9125L9.25 7.75H5C3.61875 7.75 2.5 8.86875 2.5 10.25V24.5C2.5 25.8813 3.61875 27 5 27H27C28.3813 27 29.5 25.8813 29.5 24.5V10.25C29.5 8.86875 28.3813 7.75 27 7.75ZM27.25 24.5C27.25 24.6375 27.1375 24.75 27 24.75H5C4.8625 24.75 4.75 24.6375 4.75 24.5V10.25C4.75 10.1125 4.8625 10 5 10H10.8344L11.3687 8.50625L12.0844 6.5H19.9125L20.6281 8.50625L21.1625 10H27C27.1375 10 27.25 10.1125 27.25 10.25V24.5ZM16 12C13.2375 12 11 14.2375 11 17C11 19.7625 13.2375 22 16 22C18.7625 22 21 19.7625 21 17C21 14.2375 18.7625 12 16 12ZM16 20C14.3438 20 13 18.6562 13 17C13 15.3438 14.3438 14 16 14C17.6562 14 19 15.3438 19 17C19 18.6562 17.6562 20 16 20Z" fill="black"/>
</svg>
