<svg width="36" height="36" viewBox="0 0 36 36" fill="none" xmlns="http://www.w3.org/2000/svg">
<path d="M20.1489 18.257L27.4947 10.9282C27.8164 10.6066 27.9971 10.1703 27.9971 9.71532C27.9971 9.26039 27.8164 8.82409 27.4947 8.50241C27.173 8.18072 26.7367 8 26.2818 8C25.8269 8 25.3906 8.18072 25.0689 8.50241L17.7401 15.8482L10.4114 8.50241C10.0897 8.18072 9.6534 8 9.19846 8C8.74353 8 8.30723 8.18072 7.98555 8.50241C7.66386 8.82409 7.48314 9.26039 7.48314 9.71532C7.48314 10.1703 7.66386 10.6066 7.98555 10.9282L15.3314 18.257L7.98555 25.5857C7.82543 25.7446 7.69834 25.9335 7.61161 26.1417C7.52488 26.3498 7.48022 26.5731 7.48022 26.7987C7.48022 27.0242 7.52488 27.2475 7.61161 27.4556C7.69834 27.6638 7.82543 27.8528 7.98555 28.0116C8.14436 28.1717 8.3333 28.2988 8.54148 28.3855C8.74965 28.4722 8.97294 28.5169 9.19846 28.5169C9.42398 28.5169 9.64727 28.4722 9.85545 28.3855C10.0636 28.2988 10.2526 28.1717 10.4114 28.0116L17.7401 20.6657L25.0689 28.0116C25.2277 28.1717 25.4166 28.2988 25.6248 28.3855C25.833 28.4722 26.0563 28.5169 26.2818 28.5169C26.5073 28.5169 26.7306 28.4722 26.9388 28.3855C27.147 28.2988 27.3359 28.1717 27.4947 28.0116C27.6548 27.8528 27.7819 27.6638 27.8687 27.4556C27.9554 27.2475 28 27.0242 28 26.7987C28 26.5731 27.9554 26.3498 27.8687 26.1417C27.7819 25.9335 27.6548 25.7446 27.4947 25.5857L20.1489 18.257Z" fill="black"/>
</svg>
