<svg width="30" height="30" viewBox="0 0 30 30" fill="none" xmlns="http://www.w3.org/2000/svg">
<path d="M15 29C22.732 29 29 22.732 29 15C29 7.26801 22.732 1 15 1C7.26801 1 1 7.26801 1 15C1 22.732 7.26801 29 15 29Z" stroke="black" stroke-width="2" stroke-linecap="round" stroke-linejoin="round"/>
<path d="M13.4444 27.4445V24.3333C13.4444 23.5082 13.1167 22.7169 12.5332 22.1335C11.9498 21.55 11.1585 21.2222 10.3333 21.2222C9.50822 21.2222 8.71689 20.8945 8.13345 20.311C7.55 19.7276 7.22222 18.9362 7.22222 18.1111C7.22222 17.286 6.89445 16.4947 6.311 15.9112C5.72755 15.3278 4.93623 15 4.11111 15H1M8.77778 2.55557V5.66668C8.77778 6.4918 9.10556 7.28312 9.689 7.86657C10.2724 8.45002 11.0638 8.77779 11.8889 8.77779H13.4444C14.2696 8.77779 15.0609 9.10557 15.6443 9.68902C16.2278 10.2725 16.5556 11.0638 16.5556 11.8889C16.5556 12.714 16.8833 13.5053 17.4668 14.0888C18.0502 14.6722 18.8415 15 19.6667 15C20.4918 15 21.2831 14.6722 21.8666 14.0888C22.45 13.5053 22.7778 12.714 22.7778 11.8889C22.7778 11.0638 23.1056 10.2725 23.689 9.68902C24.2724 9.10557 25.0638 8.77779 25.8889 8.77779H27.4444L8.77778 2.55557ZM27.4444 21.2222H22.7778C21.9527 21.2222 21.1613 21.55 20.5779 22.1335C19.9944 22.7169 19.6667 23.5082 19.6667 24.3333V27.4445L27.4444 21.2222Z" stroke="black" stroke-width="2" stroke-linecap="round" stroke-linejoin="round"/>
</svg>
