<svg width="28" height="28" viewBox="0 0 28 28" fill="none" xmlns="http://www.w3.org/2000/svg">
<path d="M14.0016 1.17137e-06C6.26567 -0.00312697 0 6.25941 0 13.9891C0 20.1014 3.91956 25.2973 9.37817 27.2055C10.1133 27.39 10.0007 26.8676 10.0007 26.511V24.0867C5.75578 24.5841 5.58373 21.775 5.29907 21.3058C4.72349 20.3235 3.36275 20.0733 3.76941 19.6041C4.73601 19.1067 5.72137 19.7292 6.86314 21.4153C7.68897 22.6384 9.29997 22.4319 10.1164 22.2286C10.2947 21.4935 10.6763 20.8366 11.2019 20.3267C6.80371 19.5384 4.97062 16.8544 4.97062 13.6637C4.97062 12.1153 5.48051 10.692 6.48151 9.54396C5.84337 7.65144 6.54095 6.03106 6.63479 5.79019C8.45224 5.62753 10.3416 7.0915 10.4887 7.20724C11.5209 6.92884 12.7003 6.78181 14.0203 6.78181C15.3467 6.78181 16.5291 6.93509 17.5708 7.21663C17.9243 6.9476 19.676 5.69009 21.3652 5.84337C21.4559 6.08424 22.1379 7.66708 21.5373 9.53458C22.5508 10.6857 23.0669 12.1216 23.0669 13.6731C23.0669 16.8701 21.2213 19.5571 16.8106 20.3329C17.1884 20.7045 17.4884 21.1475 17.693 21.6363C17.8977 22.125 18.0028 22.6497 18.0025 23.1795V26.6987C18.0275 26.9802 18.0025 27.2586 18.4717 27.2586C24.0116 25.3911 28 20.1577 28 13.9922C28 6.25941 21.7312 1.17137e-06 14.0016 1.17137e-06V1.17137e-06Z" fill="black"/>
</svg>
