<svg width="32" height="32" viewBox="0 0 32 32" fill="none" xmlns="http://www.w3.org/2000/svg">
<path d="M27.4286 11.8462C27.4275 10.6902 27.0975 9.55563 26.473 8.56067C25.8485 7.56571 24.9523 6.74675 23.8777 6.18908C24.6876 5.39305 25.1407 4.33352 25.1429 3.23077H22.8571C22.8565 3.80183 22.6155 4.34934 22.187 4.75314C21.7585 5.15694 21.1775 5.38405 20.5714 5.38462C18.7753 5.38686 17.0518 6.05262 15.7708 7.23897C14.4898 8.42532 13.7535 10.0377 13.72 11.7298C12.2547 10.3235 11.4322 8.43238 11.4286 6.46154C11.4256 5.50912 11.0873 4.58455 10.4669 3.83268C9.84645 3.08082 8.97884 2.54416 8 2.30677V0H5.71429V2.30677C4.73545 2.54416 3.86784 3.08082 3.24739 3.83268C2.62694 4.58455 2.28872 5.50912 2.28571 6.46154V11.8462H0V12.9231C0 16.9217 1.68571 20.7566 4.68629 23.5841C7.68687 26.4115 11.7565 28 16 28C20.2435 28 24.3131 26.4115 27.3137 23.5841C30.3143 20.7566 32 16.9217 32 12.9231V11.8462H27.4286ZM20.5714 7.53846C21.7834 7.53989 22.9453 7.99419 23.8022 8.80173C24.6592 9.60927 25.1413 10.7041 25.1429 11.8462H16C16.0015 10.7041 16.4836 9.60927 17.3406 8.80173C18.1976 7.99419 19.3595 7.53989 20.5714 7.53846ZM4.57143 6.46154C4.57143 5.8903 4.81224 5.34246 5.2409 4.93854C5.66955 4.53462 6.25093 4.30769 6.85714 4.30769C7.46335 4.30769 8.04473 4.53462 8.47339 4.93854C8.90204 5.34246 9.14286 5.8903 9.14286 6.46154C9.14742 8.38023 9.75682 10.2544 10.8937 11.8462H4.57143V6.46154ZM16 25.8462C12.5617 25.8421 9.25013 24.623 6.71956 22.4297C4.18899 20.2363 2.62355 17.2283 2.33257 14H29.6686C29.3776 17.2285 27.812 20.2366 25.2812 22.43C22.7504 24.6234 19.4385 25.8424 16 25.8462Z" fill="black"/>
</svg>
