<svg width="28" height="28" viewBox="0 0 28 28" fill="none" xmlns="http://www.w3.org/2000/svg">
<path d="M25.8809 13.8086L15.3152 3.24845L14.607 2.54024C14.4457 2.37994 14.2275 2.28998 14 2.28998C13.7726 2.28998 13.5543 2.37994 13.393 2.54024L2.11916 13.8086C1.95381 13.9733 1.82314 14.1695 1.73485 14.3855C1.64655 14.6015 1.60244 14.8331 1.60509 15.0664C1.61603 16.0289 2.4172 16.7973 3.3797 16.7973H4.54181V25.7031H23.4582V16.7973H24.6449C25.1125 16.7973 25.5527 16.6141 25.8836 16.2832C26.0465 16.1208 26.1756 15.9277 26.2634 15.7151C26.3511 15.5025 26.3959 15.2746 26.3949 15.0445C26.3949 14.5797 26.2117 14.1395 25.8809 13.8086ZM15.5313 23.7344H12.4688V18.1563H15.5313V23.7344ZM21.4895 14.8285V23.7344H17.2813V17.5C17.2813 16.8957 16.7918 16.4063 16.1875 16.4063H11.8125C11.2082 16.4063 10.7188 16.8957 10.7188 17.5V23.7344H6.51056V14.8285H3.88556L14.0027 4.71954L14.6344 5.35118L24.1172 14.8285H21.4895Z" fill="black"/>
</svg>
