<svg width="32" height="32" viewBox="0 0 32 32" fill="none" xmlns="http://www.w3.org/2000/svg">
<path d="M9.86675 13.3333H11.9867V20C11.9867 20.7333 12.5867 21.3333 13.3201 21.3333H18.6534C19.3867 21.3333 19.9867 20.7333 19.9867 20V13.3333H22.1067C23.2934 13.3333 23.8934 11.8933 23.0534 11.0533L16.9334 4.93332C16.8101 4.80972 16.6635 4.71165 16.5022 4.64474C16.3409 4.57784 16.168 4.5434 15.9934 4.5434C15.8188 4.5434 15.6459 4.57784 15.4846 4.64474C15.3233 4.71165 15.1768 4.80972 15.0534 4.93332L8.93341 11.0533C8.09341 11.8933 8.68008 13.3333 9.86675 13.3333ZM6.66675 25.3333C6.66675 26.0667 7.26675 26.6667 8.00008 26.6667H24.0001C24.7334 26.6667 25.3334 26.0667 25.3334 25.3333C25.3334 24.6 24.7334 24 24.0001 24H8.00008C7.26675 24 6.66675 24.6 6.66675 25.3333Z" fill="black"/>
</svg>
