<svg width="220" height="201" viewBox="0 0 220 201" fill="none" xmlns="http://www.w3.org/2000/svg">
<path fill-rule="evenodd" clip-rule="evenodd" d="M101.899 63.4964C108.196 63.1351 100.202 57.4062 99.4531 61.8356C99.401 62.9309 100.886 63.5444 101.899 63.4964ZM83.8536 119.717C81.9493 113.873 80.6003 104.933 74.1756 102.108C72.7723 102.692 68.051 102.329 68.9276 104.372C75.6169 110.241 79.4304 120.317 73.956 127.895C73.4993 128.57 72.5118 129.428 73.2962 130.124C79.755 132.218 83.366 124.532 83.8536 119.717ZM60.3406 128.941C73.111 129.446 72.3256 119.573 66.7308 112.077C65.0613 108.463 60.441 109.074 57.0708 107.886C50.8827 106.166 46.9957 113.211 47.2759 118.007C48.7194 123.352 53.7115 129.318 60.3406 128.941ZM113.617 62.7628C113.575 62.7628 113.533 62.7624 113.491 62.7624C116.773 22.8037 88.1483 33.3084 87.1608 64.7415C87.334 73.3271 85.5839 71.0113 94.6475 74.1937C95.9128 74.6007 96.9285 74.5009 96.6574 73.1103C96.2254 64.9084 90.6721 57.0189 96.317 49.356C96.9978 47.8219 100.293 47.6935 100.448 49.6499C100.323 51.9495 95.7829 58.0404 100.945 57.2714C104.9 56.7056 111.029 61.4305 107.483 64.551C105.238 66.5722 99.408 64.5189 99.3063 68.1595C99.5499 70.5103 99.3168 74.7361 102.355 75.4423C116.796 75.4277 113.269 74.1165 113.617 62.7628ZM121.073 71.1737C122.803 87.6131 93.3129 81.504 83.9282 76.6469C75.2603 66.8797 87.7881 64.1744 65.0884 71.8886C62.6621 73.2785 47.6579 75.6555 49.3295 78.005C64.7332 82.8603 81.1794 86.3994 95.5072 93.5636C97.0221 94.5682 98.5522 95.7009 100.509 94.751C106.709 92.2103 113.091 90.1171 119.799 89.0532C122.448 88.3254 151.885 83.5923 145.567 80.6925C137.425 77.4036 130.25 72.4388 122.496 68.4635C120.833 67.8105 121.199 70.9552 121.073 71.1737ZM45.2006 108.695C54.3709 102.694 67.369 96.3176 78.5696 98.192C85.9486 102.965 88.8017 112.238 88.8795 120.196C86.4211 135.993 73.3036 133.482 60.4368 133.705C53.2996 135.823 47.4657 127.107 46.556 129.466C46.3972 131.896 45.7501 134.796 48.9957 135.63C56.6955 139.735 64.4248 143.794 72.0806 147.968C78.6597 151.824 85.322 155.549 92.2504 158.855C94.0427 155.292 92.2634 150.606 93.3108 146.682C95.226 134.312 94.5662 121.798 95.108 109.346C94.2934 106.118 97.6213 101.59 94.9552 99.2199C79.4818 91.2805 61.6661 87.6902 44.9496 82.4263C43.6755 82.0741 43.2266 83.3204 43.3854 84.2975C45.2569 92.3406 42.5317 100.902 45.2006 108.695ZM154.568 111.384C154.521 111.385 154.473 111.385 154.425 111.386C153.945 103.689 154.377 95.9906 154.543 88.2904C154.833 85.0626 150.61 86.914 148.692 87.2323C139.675 90.239 130.232 91.708 120.911 93.668C115.09 94.8832 109.292 96.1944 103.47 97.4045C100.033 98.0371 100.916 101.863 100.592 104.258C105.343 175.329 72.8494 159.707 142.6 148.246C146.347 146.648 153.719 147.225 155.087 143.242C154.845 132.62 154.34 122.015 154.568 111.384ZM162.134 114.92C161.58 122.759 161.889 133.086 161.079 141.289C160.657 143.035 163.762 142.126 163.208 143.644C161.881 145.454 161.712 150.154 158.957 150.034C141.442 153.571 123.24 158.348 105.382 161.993C102.119 162.274 98.7736 165.294 95.6034 163.914C93.7114 163.415 91.3266 164.161 89.5343 162.886C79.2917 157.98 69.0504 153.05 59.0028 147.815C54.2829 144.297 42.2264 140.797 41.1523 135.414C41.2477 121.992 30.4753 80.0661 45.0059 73.6201C55.7126 68.6981 67.2127 65.5378 78.4165 61.7533C82.0729 60.2639 80.6647 54.943 82.6981 52.0092C85.6487 44.1061 90.4194 36.1573 98.8021 32.2756C107.663 27.2985 116.664 35.6064 118.685 43.3597C119.97 48.0033 120.524 52.7432 120.81 57.5151C120.915 58.9057 120.464 60.7548 122.221 61.4023C159.049 81.0192 160.215 73.6013 162.134 114.92Z" fill="black"/>
<path fill-rule="evenodd" clip-rule="evenodd" d="M158.998 60.0649C166.513 62.3465 184.543 58.3936 186.658 67.1125C186.812 68.3611 185.429 69.4039 184.359 68.6698C176.312 64.9339 166.579 66.5668 158.199 63.4601C155.46 62.6409 155.972 59.5802 158.998 60.0649Z" fill="black"/>
<path fill-rule="evenodd" clip-rule="evenodd" d="M177.515 101.898C177.395 106.423 172.907 122.72 167.134 115.337C166.658 110.768 170.049 106.471 171.136 102.051C173.183 93.2808 176.182 93.7084 177.515 101.898Z" fill="black"/>
<path fill-rule="evenodd" clip-rule="evenodd" d="M200.17 101.717C203.471 102.166 226.494 105.156 218.185 110.328C214.078 110.963 179.888 102.874 200.17 101.717Z" fill="black"/>
<path fill-rule="evenodd" clip-rule="evenodd" d="M13.7733 105.532C17.0741 105.98 40.0972 108.97 31.7885 114.142C27.6807 114.777 -6.50858 106.689 13.7733 105.532Z" fill="black"/>
<path fill-rule="evenodd" clip-rule="evenodd" d="M62.932 51.7808C58.2628 50.3892 41.4341 49.2403 40.1965 45.1531C43.0137 40.825 59.7385 46.1307 64.5359 47.4376C67.0419 49.1294 66.6706 52.4818 62.932 51.7808Z" fill="black"/>
<path fill-rule="evenodd" clip-rule="evenodd" d="M203.198 149.383C203.217 151.364 200.47 153.613 198.745 152.056C193.609 146.684 183.277 146.336 180.071 139.141C179.884 137.88 181.71 137.47 182.658 138.158C188.617 142.491 200.77 142.181 203.198 149.383Z" fill="black"/>
<path fill-rule="evenodd" clip-rule="evenodd" d="M157.68 41.8364C155.839 45.5923 143.504 61.1136 139.053 58.7531C136.797 57.7886 138.187 55.3727 139.311 54.0958C142.886 51.3804 153.301 38.1604 157.68 41.8364Z" fill="black"/>
<path fill-rule="evenodd" clip-rule="evenodd" d="M66.2209 14.749C63.0376 13.5975 36.8373 13.9129 41.8486 8.96937C45.5906 7.48865 86.2242 11.3841 66.2209 14.749Z" fill="black"/>
<path fill-rule="evenodd" clip-rule="evenodd" d="M46.65 191.46C42.5283 190.198 29.9808 187.176 30.6766 182.175C35.0335 179.541 43.8069 184.532 48.5507 185.898C52.5448 187.351 51.4476 192.472 46.65 191.46Z" fill="black"/>
<path fill-rule="evenodd" clip-rule="evenodd" d="M90.947 0C98.4918 1.27837 81.1918 15.1925 78.1782 10.8668C77.0892 6.02482 85.9312 0.0662669 90.947 0Z" fill="black"/>
<path fill-rule="evenodd" clip-rule="evenodd" d="M61.8114 161.079C59.4589 163.829 51.8766 175.352 47.748 172.088C44.547 169.364 60.1603 153.197 61.8114 161.079Z" fill="black"/>
<path fill-rule="evenodd" clip-rule="evenodd" d="M67.6602 28.2426C66.0278 33.1988 65.2888 40.5184 60.4307 43.4312C52.6951 44.8058 65.7 18.8589 67.6602 28.2426Z" fill="black"/>
<path fill-rule="evenodd" clip-rule="evenodd" d="M205.363 72.2256C208.395 73.2448 205.836 76.1402 203.816 76.7947C198.082 78.7431 192.565 83.9555 186.452 83.6495C185.528 81.2296 202.45 71.9419 205.363 72.2256Z" fill="black"/>
<path fill-rule="evenodd" clip-rule="evenodd" d="M18.9665 76.0401C21.9984 77.0593 19.4387 79.9546 17.4187 80.6092C11.6848 82.5576 6.16764 87.7699 0.0545946 87.464C-0.868793 85.044 16.0533 75.7564 18.9665 76.0401Z" fill="black"/>
<path fill-rule="evenodd" clip-rule="evenodd" d="M152.188 170.631C148.409 170.222 145.536 170.169 142.667 168.304C139.334 169.069 135.691 164.986 136.411 162.09C136.77 161.483 137.363 161.778 137.768 162.011C140.952 163.846 144.607 164.336 148.129 165.199C150.511 165.337 156.271 169.717 152.188 170.631Z" fill="black"/>
<path fill-rule="evenodd" clip-rule="evenodd" d="M83.6533 200.971C77.3464 199.853 75.4864 181.057 83.6417 188.939C82.8891 192.116 89.4887 201.596 83.6533 200.971Z" fill="black"/>
<path fill-rule="evenodd" clip-rule="evenodd" d="M172.417 4.78194C169.783 9.55765 162.909 11.5639 158.556 14.9747C157.724 15.6775 156.197 14.9688 156.433 13.9639C159.644 9.53007 164.632 6.13564 168.882 2.51395C170.222 1.65155 172.62 3.44992 172.417 4.78194Z" fill="black"/>
<path fill-rule="evenodd" clip-rule="evenodd" d="M9.97712 46.0271C14.5558 46.4809 20.9917 49.4153 21.6331 53.6549C18.676 56.2879 0.829389 47.9559 9.97712 46.0271Z" fill="black"/>
<path fill-rule="evenodd" clip-rule="evenodd" d="M201.964 129.381C202.601 126.358 201.981 120.512 205.145 119.009C210.018 119.165 206.711 130.245 206.278 133.193C203.524 136.923 201.635 131.868 201.964 129.381Z" fill="black"/>
<path fill-rule="evenodd" clip-rule="evenodd" d="M167.089 170.463C168.054 167.066 171.415 158.549 175.991 159.226C179.774 160.874 168.28 178.114 167.089 170.463Z" fill="black"/>
<path fill-rule="evenodd" clip-rule="evenodd" d="M137.495 193.263C141.813 194.663 150.152 193.852 151.577 198.731C150.474 201.848 126.981 195.982 137.495 193.263Z" fill="black"/>
<path fill-rule="evenodd" clip-rule="evenodd" d="M43.1565 152.042C40.2024 152.263 30.1864 151.029 36.8405 147.847C45.6828 144.656 58.0719 151.255 43.1565 152.042Z" fill="black"/>
<path fill-rule="evenodd" clip-rule="evenodd" d="M110.704 172.648C109.101 169.372 117.557 162.324 118.988 167.326C119.081 171.385 110.433 182.776 110.704 172.648Z" fill="black"/>
<path fill-rule="evenodd" clip-rule="evenodd" d="M179.295 46.0501C175.283 52.4524 171.259 36.4919 171.158 33.7946C174.234 29.7063 178.737 43.8726 179.295 46.0501Z" fill="black"/>
<path fill-rule="evenodd" clip-rule="evenodd" d="M145.634 26.8904C145.219 39.1911 138.88 29.4299 139.401 23.3894C140.005 19.3553 146.589 20.7558 145.634 26.8904Z" fill="black"/>
<path fill-rule="evenodd" clip-rule="evenodd" d="M71.2205 165.106C71.2032 164.026 72.1554 161.951 73.5958 163.069C75.7021 165.651 82.3801 169.671 80.5783 172.994C76.1992 174.236 71.7859 168.755 71.2205 165.106Z" fill="black"/>
<path fill-rule="evenodd" clip-rule="evenodd" d="M49.8778 32.2953C46.9279 32.2544 33.6881 29.5894 40.1917 26.0028C43.0076 25.2652 57.7051 31.0334 49.8778 32.2953Z" fill="black"/>
<path fill-rule="evenodd" clip-rule="evenodd" d="M49.6054 66.453C45.6065 72.0821 40.2365 55.9224 46.0796 55.4359C49.3305 57.727 48.253 62.8964 49.6054 66.453Z" fill="black"/>
<path fill-rule="evenodd" clip-rule="evenodd" d="M113.217 21.6149C114.812 21.9478 123.381 22.3416 120.042 25.2746C116.036 25.6741 111.918 26.5381 107.943 25.2836C104.28 22.0733 110.53 21.7665 113.217 21.6149Z" fill="black"/>
<path fill-rule="evenodd" clip-rule="evenodd" d="M17.3101 142.762C16.8689 150.523 8.36544 132.445 12.1958 131.47C16.6974 132.009 16.5644 139.401 17.3101 142.762Z" fill="black"/>
<path fill-rule="evenodd" clip-rule="evenodd" d="M20.0912 167.834C15.0932 166.581 10.7495 166.249 18.4419 163.837C20.8003 161.936 23.2391 163.064 25.6686 163.238C30.2406 165.441 22.5182 167.932 20.0912 167.834Z" fill="black"/>
<path fill-rule="evenodd" clip-rule="evenodd" d="M78.3542 38.3983C90.1873 39.5732 75.4012 43.2001 74.2775 40.4316C74.1347 38.9252 76.7254 38.4938 78.3542 38.3983Z" fill="black"/>
<path fill-rule="evenodd" clip-rule="evenodd" d="M122.114 140.3C119.442 139.886 113.272 142.389 112.698 139.351C112.285 138.347 112.162 136.999 113.49 136.536C123.948 134.517 134.799 134.729 145.197 131.978C155.871 139.185 126.35 140.505 122.114 140.3Z" fill="black"/>
<path fill-rule="evenodd" clip-rule="evenodd" d="M144.711 109.384C144.125 113.578 144.412 127.618 137.082 120.67C137.468 117.712 136.318 99.9418 141.042 101.862C145.562 103.508 144.188 105.833 144.711 109.384Z" fill="black"/>
<path fill-rule="evenodd" clip-rule="evenodd" d="M121.569 116.274C123.314 123.353 115.649 126.47 113.34 119.12C112.912 116.161 113.046 104.862 117.436 105.563C120.794 108.219 121.573 112.592 121.569 116.274Z" fill="black"/>
</svg>
