<?xml version="1.0" encoding="UTF-8"?><svg id="Layer_1" xmlns="http://www.w3.org/2000/svg" viewBox="0 0 259.04 394.4"><defs><style>.cls-1{fill:#66b653;}.cls-2{fill:#f7901e;}</style></defs><path class="cls-2" d="M46.45,198.15c5.66-25.2,15.19-50.51,26.97-73.5,9.99-19.47,24.24-38.69,45.09-47.29,18.93-7.81,41.81-5.71,57.26,8.5,19.99,18.38,14.24,51.21,11.85,75.39-1.66,16.76-4.5,33.35-8.05,49.81-3.08,14.29-6.71,28.72-6.69,43.44,.06,32.7,25.66,49.66,52.01,63.04,.77,.39,3.03,1.85,4.54,4.61,3.95,7.26-1.42,17.01-2.22,18.41,0,0-2.34,5-6.55,7.69-10.79,6.91-31.31,2.61-43.4,1.82-27.69-1.82-55.21-6.66-79.92-19.81-49.63-26.41-62.53-80.23-50.89-132.09Z"/><path class="cls-1" d="M193.52,70.68c0-1.68-.48-2.75-1.12-3.46-5.38-5.96-28.68,7.53-32.11,9.55,.88-12.39,1.76-24.77,2.64-37.16-1.44,.25-2.67,.69-3.73,1.24-11.73,6.09-9.54,29.14-9.35,30.96-2.97-6.2-10.95-20.52-26.91-26.47-2.71-1.01-5.35-1.67-7.85-2.08,6.99,11.32,13.98,22.64,20.97,33.96,1.18,1.9,2.37,3.83,3.99,5.38,15.97,15.29,39.28-2.48,53.48-11.91Z"/></svg>