<svg width="78" height="78" viewBox="0 0 78 78" fill="none" xmlns="http://www.w3.org/2000/svg">
<path d="M77.0969 32.7028C75.0158 16.1163 64.4831 3.8557 50.1311 1.46318C43.2023 0.303175 32.9246 -0.389616 23.3088 2.88901C13.8525 6.11126 7.25057 12.3785 3.68649 21.5136C-1.94267 35.9331 -0.172598 52.6887 8.19141 64.2083C13.5415 71.563 26.2669 77.5 38.8568 77.5C45.4268 77.5 51.9649 75.8889 57.3948 71.998C73.5088 64.7077 78.8988 47.0498 77.0969 32.7028Z" fill="#35572F"/>
<path d="M35.7791 57.4005C35.5168 57.3996 35.2601 57.3328 35.0296 57.2071C31.5373 55.3302 28.5394 52.3737 25.6371 49.514C24.0392 47.8771 22.36 46.3232 20.6059 44.8579C20.1586 44.5002 19.9346 43.9274 20.0183 43.3571C20.1012 42.7868 20.4799 42.3051 21.011 42.0924C21.5412 41.8805 22.144 41.9708 22.5913 42.3284C24.4012 43.7865 26.1633 45.5507 27.8696 47.2101C30.1555 49.6332 32.6831 51.8123 35.4124 53.711C39.8455 48.1607 43.2342 41.4504 46.5192 34.9495C48.9112 30.3014 51.3032 25.5003 54.1018 21.11C54.5834 20.3729 55.5634 20.1642 56.2977 20.6444C57.0328 21.1237 57.2481 22.1113 56.7809 22.858C54.0731 27.2475 51.5878 31.7724 49.3338 36.4156C45.7538 43.4884 42.0542 50.811 36.9592 56.8365C36.6634 57.1862 36.2336 57.3916 35.7791 57.4005Z" fill="white"/>
</svg>
