<svg width="242" height="111" viewBox="0 0 242 111" fill="none" xmlns="http://www.w3.org/2000/svg">
<path d="M219.184 11.7426C218.085 11.638 216.985 11.5389 215.886 11.4343C214.407 11.2967 212.944 11.4123 211.493 11.7206C209.882 12.0619 208.491 12.8162 207.315 13.9723C206.375 14.8971 205.627 15.9652 204.962 17.0938C204.126 18.5086 203.439 20.0005 202.851 21.5365C201.916 23.9753 201.081 26.4472 200.602 29.0292C200.371 30.2514 200.239 31.4845 200.135 32.7177C199.965 34.7877 199.855 36.8632 199.684 38.9332C199.536 40.7389 199.349 42.5336 199.167 44.3338C199.025 45.7322 198.86 47.1305 198.711 48.5289C198.436 51.1604 198.057 53.7809 197.623 56.3904C197.012 60.0569 196.298 63.7069 195.457 67.3294C194.846 69.9389 194.11 72.5153 193.076 74.9927C192.482 76.4186 191.812 77.8059 190.96 79.0941C189.013 82.0284 186.957 84.8802 184.538 87.4511C182.191 89.945 179.657 92.2297 176.902 94.2667C175.577 95.2466 174.176 96.0834 172.702 96.8046C171.619 97.3331 170.547 97.8781 169.492 98.4562C168.288 99.1113 167.045 99.6949 165.803 100.273C165.682 100.328 165.566 100.405 165.434 100.433C163.983 100.719 162.664 101.396 161.267 101.858C160.47 102.123 159.734 102.519 159.03 102.97C158.81 103.114 158.601 103.295 158.425 103.493C157.436 104.655 158.189 106.136 159.288 106.378C160.399 106.626 161.504 106.885 162.653 106.879C164.159 106.874 165.665 106.857 167.172 106.885C169.849 106.94 172.526 106.951 175.198 107.116C177.441 107.254 179.679 107.281 181.922 107.265C184.434 107.243 186.941 107.121 189.437 106.852C191.097 106.676 192.752 106.406 194.407 106.191C195.237 106.081 196.067 106.004 196.902 105.916C199.833 105.602 202.708 104.985 205.55 104.215C206.226 104.033 206.903 103.829 207.59 103.703C208.095 103.609 208.557 103.444 208.992 103.191C210.404 102.365 211.817 101.528 213.373 100.983C213.621 100.895 213.846 100.735 214.06 100.576C216.292 98.9131 218.458 97.1789 220.383 95.153C220.542 94.9878 220.674 94.7952 220.822 94.6135C220.536 94.2997 220.152 94.3768 219.794 94.3492C218.81 94.2722 217.903 93.9473 217.078 93.4298C216.622 93.1436 216.342 92.7142 216.633 92.1581C216.93 91.5966 217.43 91.5911 217.925 91.8498C218.667 92.2352 219.426 92.571 220.256 92.7142C220.993 92.8408 220.998 93.584 221.378 94.0189C222.439 92.9674 223.379 91.8168 224.203 90.5781C223.318 90.1597 222.312 90.2863 221.4 89.9395C220.245 89.5046 219.03 89.2293 217.914 88.6623C217.617 88.5136 217.309 88.3705 217.056 88.1393C216.611 87.7319 216.243 87.2364 216.622 86.6474C217.029 86.0253 217.59 86.24 218.118 86.5593C219.591 87.4511 221.218 88.0127 222.862 88.4476C223.824 88.7008 224.407 89.0807 224.616 90.0331C224.901 89.8404 225.061 89.5376 225.248 89.2679C228.107 85.1995 230.514 80.8888 232.406 76.2754C234.429 71.3482 236.1 66.2944 237.744 61.235C238.349 59.3798 238.717 57.4749 238.816 55.5261C238.882 54.1828 239.058 52.8615 239.261 51.5347C239.635 49.1509 240.141 46.7947 240.553 44.4219C240.828 42.8419 241.213 41.2784 241.345 39.6709C241.543 37.2926 241.565 34.9198 241.334 32.5471C241.125 30.367 240.685 28.2419 239.871 26.205C238.294 22.2577 235.853 18.96 232.406 16.4441C231.62 15.8716 230.767 15.4036 229.915 14.9467C228.689 15.9982 227.315 16.5818 225.649 16.5267C223.956 16.4662 222.609 15.8551 221.674 14.4237C221.163 13.6364 220.602 12.8932 219.976 12.1996C219.761 11.9628 219.591 11.6215 219.173 11.7536L219.184 11.7426Z" fill="#DD6026"/>
<path d="M219.184 11.7426C219.866 12.3427 220.421 13.0474 220.949 13.7796C221.24 14.187 221.515 14.6054 221.806 15.0128C222.598 16.1358 223.764 16.5983 225.055 16.7414C225.88 16.835 226.716 16.7689 227.54 16.5818C228.568 16.3505 229.404 15.8771 229.926 14.9302C229.948 14.5393 230.146 14.2585 230.405 13.9668C231.911 12.2766 233.06 10.3553 233.972 8.29082C234.242 7.67423 234.44 7.03562 234.566 6.37499C234.654 5.90704 234.66 5.4446 234.495 4.98766C234.11 3.90863 233.076 3.50674 232.065 4.05176C231.642 4.28299 231.312 4.6133 231.031 4.99317C230.674 5.47763 230.328 5.9731 230.02 6.4906C229.421 7.49806 228.854 8.52205 228.272 9.54052C228.173 9.71118 228.123 9.91488 227.92 10.036C227.7 9.99746 227.755 9.79376 227.744 9.65613C227.694 9.05606 227.667 8.45048 227.623 7.8504C227.485 6.07771 227.265 4.31602 226.798 2.59837C226.633 1.98178 226.424 1.38171 226.045 0.858705C225.693 0.379746 225.253 0.0494321 224.638 0.00538995C224.022 -0.0386522 223.527 0.187063 223.159 0.688043C222.856 1.10094 222.697 1.57989 222.604 2.07537C222.34 3.4627 222.279 4.86654 222.312 6.27589C222.323 6.6998 222.312 7.12921 222.312 7.55862C222.048 7.60266 221.993 7.36594 221.894 7.2173C220.982 5.89052 220.086 4.55825 219.168 3.23698C218.689 2.54882 218.162 1.8992 217.562 1.31014C217.227 0.97982 216.87 0.677033 216.452 0.456822C215.044 -0.280884 213.796 0.390756 213.648 1.97627C213.593 2.54882 213.72 3.11036 213.873 3.66089C214.099 4.47567 214.445 5.2354 214.858 5.96209C215.704 7.45402 216.771 8.7918 217.865 10.1021C218.315 10.6361 218.832 11.115 219.184 11.7316V11.7426Z" fill="#79AD50"/>
<path d="M224.626 90.0331C224.583 89.7688 224.736 89.5266 224.654 89.2403C224.495 88.6733 224.28 88.4145 223.703 88.387C223.324 88.3705 222.977 88.2824 222.636 88.1558C221.482 87.7263 220.322 87.2969 219.173 86.851C218.805 86.7079 218.436 86.5317 218.145 86.2344C218.002 86.0913 217.837 85.9812 217.623 85.9647C217.139 85.9261 216.672 85.9426 216.369 86.3941C216.05 86.862 216.105 87.3465 216.386 87.8089C216.617 88.1888 216.952 88.453 217.342 88.6677C218.607 89.3724 219.987 89.7633 221.361 90.1817C221.454 90.2092 221.564 90.2037 221.652 90.2423C222.471 90.6166 223.335 90.6276 224.203 90.5726C224.412 90.4459 224.544 90.2588 224.621 90.0275L224.626 90.0331Z" fill="#AA4C24"/>
<path d="M221.383 94.0189C221.383 93.8538 221.4 93.6831 221.372 93.518C221.279 92.9234 220.927 92.5105 220.339 92.4444C219.481 92.3398 218.744 92.0095 218.019 91.5746C217.205 91.0846 216.237 91.6021 216.193 92.538C216.166 93.05 216.49 93.4354 216.908 93.6666C217.903 94.2281 218.953 94.6686 220.135 94.6245C220.372 94.6135 220.603 94.6245 220.839 94.6245C221.075 94.4704 221.268 94.2777 221.389 94.0245L221.383 94.0189Z" fill="#AA4C24"/>
<path d="M210.306 37.6835C210.267 38.7681 210.575 39.737 211.196 40.6123C211.845 41.5207 212.686 42.0657 213.841 41.862C215.034 41.6528 215.836 40.9316 216.139 39.759C216.507 38.3276 216.435 36.9403 215.688 35.6025C215.396 35.085 215.122 34.6281 214.583 34.3748C214.017 34.1106 213.445 34.0886 212.829 34.2097C211.306 34.5015 210.416 35.4594 210.311 37.0009C210.295 37.2321 210.311 37.4688 210.311 37.689L210.306 37.6835Z" fill="#010100"/>
<path d="M213.571 48.9637C216.391 48.8371 218.733 47.7801 220.382 45.4018C220.866 44.7082 221.135 43.9209 221.306 43.0951C221.372 42.7758 221.306 42.4896 221.163 42.2253C220.696 41.4105 219.668 41.2398 219.046 42.1592C218.92 42.3464 218.848 42.5831 218.799 42.8089C218.524 44.031 217.743 44.8733 216.732 45.523C215.308 46.4313 213.752 46.624 212.119 46.2662C211.861 46.2111 211.608 46.1175 211.339 46.123C210.817 46.134 210.327 46.4588 210.19 46.9323C210.047 47.4113 210.129 47.8572 210.509 48.2205C210.707 48.4077 210.943 48.5178 211.201 48.6004C211.971 48.8536 212.752 48.9913 213.571 48.9693V48.9637Z" fill="#030100"/>
<path d="M225.759 85.5683C226.023 85.5683 226.292 85.5903 226.551 85.4857C226.93 85.3371 227.221 84.9517 227.194 84.5553C227.167 84.1369 227.018 83.7736 226.606 83.5809C226.518 83.5369 226.413 83.5148 226.32 83.4928C224.77 83.1735 223.428 82.2927 221.911 81.8798C221.691 81.8192 221.482 81.6871 221.301 81.544C221.009 81.3127 220.679 81.3017 220.344 81.3403C219.404 81.4504 218.997 82.4799 219.585 83.2341C219.899 83.636 220.284 83.9553 220.778 84.1204C222.109 84.5609 223.445 84.9958 224.77 85.4472C225.099 85.5573 225.424 85.5518 225.759 85.5628V85.5683Z" fill="#AA4C24"/>
<path d="M182.02 99.4361C182.07 99.0287 181.867 98.7094 181.487 98.4837C181.399 98.4342 181.311 98.3901 181.218 98.3461C179.843 97.6579 178.464 96.9752 177.095 96.2706C176.693 96.0614 176.281 95.9788 175.836 96.0228C175.055 96.0944 174.599 96.9753 174.984 97.6579C175.154 97.9662 175.407 98.1644 175.715 98.313C176.974 98.9296 178.211 99.5958 179.541 100.064C179.92 100.196 180.283 100.372 180.663 100.493C181.361 100.713 182.004 100.229 182.015 99.4416L182.02 99.4361Z" fill="#AA4C24"/>
<path d="M179.151 93.595C178.42 93.6005 178.139 93.7932 177.969 94.4098C177.804 95.0098 178.029 95.5053 178.612 95.8191C178.755 95.8962 178.914 95.9622 179.074 96.0118C180.184 96.3696 181.278 96.755 182.323 97.278C182.774 97.5037 183.186 97.4267 183.538 97.1349C184.22 96.5733 184.11 95.8136 183.351 95.3126C182.801 94.9493 182.185 94.685 181.586 94.3988C181.075 94.1565 180.547 93.9583 180.03 93.7216C179.745 93.5895 179.448 93.595 179.151 93.5895V93.595Z" fill="#AA4C24"/>
<path d="M210.608 29.6512C210.674 30.0751 210.663 30.7193 210.899 31.3193C211.114 31.8533 211.46 32.2277 212.07 32.2773C212.702 32.3268 213.17 32.0625 213.439 31.479C213.61 31.1156 213.703 30.7193 213.714 30.3119C213.73 29.6017 213.593 28.9135 213.335 28.2529C213.126 27.7079 212.724 27.3831 212.114 27.3776C211.526 27.3776 211.004 27.7079 210.784 28.2694C210.641 28.6438 210.547 29.0401 210.602 29.6512H210.608Z" fill="#070200"/>
<path d="M219.409 30.7578C219.376 30.2183 219.404 29.6788 219.167 29.1778C218.914 28.6272 218.486 28.352 217.914 28.3685C217.441 28.385 217.073 28.5887 216.853 29.0016C216.308 30.0201 216.171 31.0826 216.616 32.1726C216.875 32.8113 217.43 33.2131 217.969 33.1911C218.59 33.1636 219.09 32.7287 219.31 32.0295C219.442 31.6056 219.415 31.1762 219.415 30.7523L219.409 30.7578Z" fill="#060200"/>
<path d="M213.972 37.6614C213.961 37.5623 213.961 37.2925 213.895 37.0393C213.829 36.7916 213.62 36.6815 213.362 36.676C213.098 36.6649 212.873 36.7916 212.823 37.0228C212.658 37.8045 212.796 38.5367 213.279 39.1864C213.406 39.3515 213.648 39.291 213.763 39.0873C213.994 38.6909 213.961 38.256 213.972 37.6614V37.6614Z" fill="#D35E26"/>
<path d="M33.9648 7.58264C33.8242 8.54717 33.6836 9.51171 33.543 10.4762C33.3461 10.4762 33.2196 10.5044 33.1141 10.4762C31.6448 10.0468 30.1472 9.70884 28.6216 9.53283C28.4599 9.51171 28.3053 9.42723 28.1436 9.37091C29.0786 8.84992 30.1262 8.6387 31.1386 8.32892C32.0666 8.04027 33.0227 7.82906 33.9648 7.58264V7.58264Z" fill="#C63827"/>
<path d="M41.0589 6.51252C39.9481 7.44186 38.8373 8.37823 37.7265 9.30756C37.2765 9.68774 36.8266 10.0679 36.3133 10.4904C36.0462 9.81447 36.3063 9.25828 36.3485 8.68801C36.3907 8.13182 36.4399 7.58267 36.4821 7.02648C37.4312 6.89271 38.3803 6.75894 39.3224 6.61814C39.8989 6.53365 40.4754 6.44212 41.0589 6.50549V6.51252Z" fill="#C53827"/>
<path d="M45.9382 6.14647C47.5623 6.18871 49.1933 6.17463 50.8174 6.28024C52.6945 6.39992 54.5717 6.57592 56.4348 6.82234C59.486 7.22364 62.5162 7.76576 65.4901 8.56836C70.4958 9.91308 75.157 11.9689 79.2699 15.1793C81.9555 17.2703 84.2967 19.7063 86.448 22.3323C89.7383 26.3453 92.8388 30.4921 95.651 34.8572C99.1662 40.3135 102.007 46.1148 104.088 52.261C105.297 55.8375 106.056 59.5267 106.583 63.2651C106.956 65.8982 107.118 68.5525 107.223 71.2067C107.329 73.868 107.195 76.5152 106.612 79.1272C105.662 83.3584 103.56 86.9068 100.383 89.8356C96.6915 93.2361 92.3607 95.4679 87.5378 96.7985C85.0841 97.4744 82.5883 97.7419 80.0432 97.58C78.4122 97.4744 76.8303 97.1083 75.2484 96.7281C73.0901 96.2001 70.9247 95.6932 68.7241 95.3975C64.9979 94.9047 61.2999 94.9821 57.63 95.8551C55.1341 96.4465 52.9266 97.6434 50.8877 99.1782C49.6503 100.107 48.5114 101.142 47.3865 102.198C46.3249 103.191 45.2633 104.198 44.1665 105.148C42.3738 106.704 40.2646 107.549 37.9234 107.915C33.8739 108.549 29.986 107.915 26.2246 106.451C19.8269 103.952 14.6524 99.8963 10.9052 94.0809C7.36179 88.5894 4.92221 82.6403 3.52313 76.2617C2.59511 72.0375 1.86393 67.771 1.2804 63.4834C0.795293 59.9139 0.507031 56.3233 0.5 52.7186C0.5 49.6702 0.795298 46.6428 1.15385 43.6225C1.55459 40.2924 2.27872 37.0397 3.24893 33.8434C3.59343 32.6958 3.97308 31.5552 4.37382 30.4288C4.94329 28.8095 5.79399 27.3099 6.64468 25.8314C7.36883 24.5782 8.15625 23.3532 9.021 22.1774C10.4833 20.192 12.1847 18.4671 14.104 16.9394C17.2326 14.4471 20.6495 12.4335 24.3194 10.8494C24.8959 10.6453 25.4091 10.9621 25.9434 11.0607C27.919 11.4338 29.8383 12.0393 31.8139 12.4476C32.2147 12.5321 32.7349 12.6025 32.7982 13.1235C32.8474 13.5389 32.4748 13.7994 32.1654 14.0317C30.6047 15.2356 29.1001 16.4958 27.7011 17.8898C27.5815 18.0095 27.448 18.1222 27.3425 18.2559C26.998 18.6995 26.2528 19.1149 26.8293 19.7485C27.3495 20.3188 27.9542 19.8259 28.4182 19.4669C29.7399 18.446 31.1179 17.4956 32.3553 16.3762C34.6753 14.2852 37.4946 13.8134 40.4333 13.6515C41.502 13.5952 42.5706 13.6586 43.6392 13.6304C44.1454 13.6163 44.7852 13.6515 44.7782 12.9264C44.7782 12.3068 44.2157 12.1097 43.6814 12.0463C42.662 11.9266 41.6285 12.0393 40.6021 11.9759C40.1943 11.9548 39.6529 12.0322 39.5053 11.5324C39.3787 11.124 39.7865 10.8565 40.0748 10.603C41.5934 9.28648 43.1752 8.04033 44.6797 6.70265C45.0242 6.39992 45.3969 6.07606 45.9242 6.14647H45.9382Z" fill="#C73426"/>
<path d="M45.9382 6.14642C44.2298 7.56858 42.5143 8.99074 40.813 10.427C40.4052 10.772 39.9201 11.0465 39.6037 11.483C39.7935 11.7858 40.0255 11.6872 40.2154 11.6872C41.2418 11.6872 42.2683 11.6661 43.2947 11.6872C43.6744 11.6872 44.0681 11.7435 44.4337 11.8421C44.9821 11.997 45.3406 12.5039 45.3125 12.9686C45.2773 13.5247 44.8415 13.9542 44.1946 13.9894C43.5549 14.0246 42.908 14.0176 42.2683 13.9964C40.9817 13.9612 39.7092 14.0105 38.4296 14.1513C37.3539 14.271 36.3626 14.6723 35.3081 14.8554C34.8792 14.9328 34.4714 15.2708 34.0988 15.5524C32.4256 16.8126 30.7664 18.101 29.1001 19.3753C28.7275 19.664 28.3619 19.9667 27.9682 20.2201C27.3706 20.5933 26.7308 20.4666 26.3793 19.9526C26.1403 19.6006 26.0911 19.2204 26.3231 18.8684C26.5129 18.5868 26.7449 18.3333 26.991 18.094C28.6572 16.4887 30.3797 14.9469 32.2357 13.567C32.4045 13.4403 32.6084 13.3487 32.6505 13.1023C32.6084 12.8841 32.4045 12.9122 32.2568 12.877C30.2672 12.3912 28.2775 11.8914 26.2739 11.4408C25.606 11.2929 24.924 11.2085 24.3264 10.8424C24.2913 10.7227 24.242 10.603 24.2139 10.4763C23.996 9.51172 24.5303 8.864 25.4935 8.96961C26.0419 9.03297 26.5832 9.18083 27.1246 9.27235C27.462 9.32868 27.7995 9.34275 28.144 9.37795C29.3743 9.21602 30.5625 9.46947 31.7436 9.75813C33.1848 10.1101 33.1919 10.1101 33.4661 8.72319C33.5504 8.30077 33.6067 7.88539 33.9652 7.59674C34.0426 7.2236 34.0988 6.84342 34.1902 6.47732C34.2746 6.13938 34.4293 5.84367 34.7386 5.65358C35.2589 5.32972 36.0041 5.50574 36.2642 6.06897C36.3978 6.36467 36.4119 6.72372 36.4751 7.05462C36.9954 8.15996 36.5947 9.19491 36.3275 10.1172C37.8039 8.96257 39.1327 7.3644 41.052 6.53363C42.2753 5.63246 43.5056 4.72426 44.729 3.82309C44.968 3.64708 45.207 3.47107 45.4672 3.33026C46.0366 3.02048 46.6202 3.09793 46.9717 3.51331C47.3232 3.92869 47.3232 4.53416 46.9365 5.02699C46.6202 5.42125 46.2687 5.78735 45.9312 6.16049L45.9382 6.14642Z" fill="#006937"/>
<path d="M67.4727 39.9262C67.5922 39.9262 67.8523 39.9051 68.1054 39.9262C69.5959 40.0459 70.4115 41.2075 70.0037 42.6226C69.5045 44.3827 66.6431 46.347 64.555 45.7838C61.9678 45.0797 62.1295 42.6438 63.2895 41.4962C64.4004 40.3979 65.7362 39.8065 67.4727 39.9191V39.9262Z" fill="#030100"/>
<path d="M65.7577 56.4711C64.0915 56.4781 62.6713 55.9008 61.4972 54.718C61.1809 54.4012 60.984 54.0492 61.0262 53.5775C61.1035 52.7678 61.9402 52.3173 62.6221 52.7326C62.8401 52.8664 63.0299 53.0424 63.2197 53.2114C64.7524 54.6335 67.438 54.3097 68.7879 53.1973C69.3152 52.7608 69.7932 52.275 70.1729 51.6977C70.3135 51.4865 70.4541 51.2612 70.651 51.1063C70.9603 50.8669 71.3118 50.7402 71.7196 50.9303C72.1555 51.1274 72.3875 51.4372 72.4086 51.916C72.4226 52.3173 72.2891 52.6622 72.0711 52.9931C70.5666 55.2531 68.4996 56.4711 65.7577 56.4641V56.4711Z" fill="#040100"/>
<path d="M61.1031 32.4493C61.1453 33.3646 60.843 34.2446 60.2876 35.0332C59.8236 35.695 59.1978 36.1103 58.3542 36.1103C57.5105 36.1103 56.8848 35.7231 56.4419 35.0191C56.2099 34.6459 56.0693 34.2306 56.0341 33.8081C55.9216 32.5479 56.1255 31.3229 56.695 30.1964C57.0676 29.4642 57.8339 29.1615 58.5932 29.0207C59.2681 28.8939 59.8236 29.2671 60.2805 29.7599C60.9695 30.5062 61.1312 31.4144 61.0961 32.4493H61.1031Z" fill="#030100"/>
<path d="M67.7332 31.6044C67.698 30.9497 67.8668 30.3231 68.0566 29.7106C68.2113 29.2036 68.5347 28.8094 69.062 28.6193C69.301 28.5348 69.5471 28.4574 69.7791 28.3377C70.4891 27.9716 71.1078 28.1757 71.6843 28.6193C72.2538 29.0558 72.5561 29.6472 72.7249 30.3371C73.0694 31.7452 72.4226 33.6532 71.3047 34.491C70.3767 35.1809 69.3151 35.0824 68.5487 34.2305C68.3167 33.977 68.1199 33.6954 68.0214 33.3575C67.9441 33.1111 67.8457 32.8717 67.8105 32.6182C67.7613 32.2803 67.7613 31.9353 67.7402 31.5974L67.7332 31.6044Z" fill="#040100"/>
<path d="M67.4378 42.4185C66.8894 43.0732 66.2215 43.4675 65.3848 43.552C65.2302 43.5661 65.0263 43.552 64.9771 43.3549C64.949 43.2493 64.9841 43.0944 65.0474 43.0099C65.3848 42.5523 65.8629 42.2777 66.3832 42.0876C66.7839 41.9397 67.0933 42.1721 67.4378 42.4255V42.4185Z" fill="#C03426"/>
<path d="M190.859 32.9823C191.727 34.9781 192.14 37.064 192.184 39.2404C192.245 42.475 191.661 45.6144 190.806 48.7145C189.913 51.9555 188.484 54.9606 186.726 57.8121C185.53 59.7547 184.312 61.6754 183.105 63.6125C180.904 67.1565 179.098 70.8979 177.487 74.7378C176.539 76.9909 175.585 79.2385 174.48 81.4202C172.877 84.5982 170.928 87.5248 168.434 90.0744C166.882 91.6625 165.174 93.0653 163.369 94.3483C158.263 97.9599 152.834 101.017 147.191 103.687C144.465 104.976 141.588 105.804 138.675 106.533C134.133 107.673 129.544 108.568 124.934 109.382C122.694 109.778 120.438 110.061 118.161 110.223C117.077 110.3 115.993 110.43 114.909 110.496C113.098 110.606 111.282 110.619 109.473 110.432C108.227 110.301 106.982 110.17 105.747 109.953C103.43 109.54 101.375 108.602 99.512 107.134C98.011 105.954 96.9068 104.532 96.1183 102.825C95.8822 102.313 95.6571 101.802 95.4428 101.28C94.5159 99.0183 94.359 96.684 94.7498 94.2763C94.9674 92.9424 95.0714 91.5861 95.1916 90.2409C95.3119 88.8793 95.0798 87.5378 94.8314 86.207C94.3293 83.5129 93.8164 80.8242 93.3035 78.13C93.0126 76.6037 92.6675 75.0934 92.5069 73.5459C92.2994 71.575 92.1787 69.6045 92.3019 67.6189C92.4603 65.069 92.8732 62.5692 93.4811 60.0974C94.3762 56.4712 96.1201 53.2776 98.4802 50.4072C100.639 47.7855 103.121 45.5289 106.034 43.7682C107.104 43.1167 108.175 42.4651 109.24 41.8027C111.55 40.3647 114.053 39.3564 116.594 38.4242C117.159 38.2153 117.675 37.9464 118.175 37.6232C119.42 36.8151 120.681 36.0342 121.888 35.1608C123.041 34.3306 124.188 33.5003 125.239 32.5339C125.701 32.1074 126.207 31.7462 126.767 31.4504C127.174 31.2407 127.522 30.9222 127.903 30.6635C134.672 25.969 137.608 24.0239 146.303 21.2759C149.196 20.3617 152.126 19.5779 155.109 19.0332C156.828 18.7212 158.558 18.4689 160.299 18.3036C161.941 18.1432 163.584 17.9936 165.237 18.0124C167.795 18.0463 170.286 18.4814 172.732 19.204C175.935 20.1527 179.024 21.3722 181.921 23.052C182.434 23.3475 182.959 23.6322 183.401 24.0359C183.328 24.5782 182.845 24.7387 182.486 24.9975C180.958 26.0973 180.658 27.6154 181.898 29.054C183.79 31.25 186.129 32.6722 189.142 32.7354C189.717 32.7489 190.33 32.5728 190.859 32.9769L190.859 32.9823Z" fill="#FEBD11"/>
<path d="M190.859 32.9816C190.171 32.9892 189.482 32.9859 188.789 33.0043C187.884 33.0217 187.028 32.8169 186.206 32.4548C185.152 31.9885 184.146 31.4356 183.212 30.7582C182.623 30.3321 182.089 29.8411 181.653 29.2584C180.991 28.3652 180.741 27.3818 181.022 26.2815C181.133 25.8479 181.34 25.507 181.721 25.2483C182.292 24.8657 182.841 24.445 183.401 24.0461C184.835 23.2715 186.361 22.7632 187.971 22.5484C189.641 22.323 191.316 22.2496 192.996 22.3933C194.307 22.5026 195.623 22.5632 196.906 22.9166C197.994 23.2202 199.005 23.6809 199.923 24.3419C202.1 25.9152 202.35 29.1942 199.816 30.9676C198.989 31.5443 198.066 31.8872 197.079 32.029C195.127 32.3128 193.17 32.5639 191.212 32.8314C191.093 32.8471 190.978 32.9279 190.859 32.9816V32.9816Z" fill="#48873E"/>
<path d="M153.505 42.974C153.516 44.0269 153.295 44.8779 152.869 45.679C152.552 46.269 152.121 46.7608 151.545 47.1108C150.578 47.6977 149.402 47.6487 148.489 46.9823C147.647 46.365 147.19 45.4946 147 44.506C146.82 43.5609 146.846 42.6113 147.138 41.6738C147.38 40.8989 147.784 40.2442 148.383 39.699C149.482 38.6948 151.022 38.6641 152.133 39.6571C152.964 40.3937 153.334 41.3615 153.475 42.4366C153.506 42.6647 153.5 42.898 153.505 42.9795L153.505 42.974Z" fill="#010100"/>
<path d="M143.081 38.9736C141.071 38.9911 139.539 37.4155 139.337 35.3631C139.275 34.7388 139.711 34.2144 140.33 34.0709C140.872 33.9432 141.424 34.2443 141.665 34.8261C141.74 35.0056 141.788 35.2012 141.83 35.3913C141.889 35.6575 142.012 35.886 142.185 36.0876C142.54 36.5072 143 36.6288 143.516 36.4413C144.336 36.1467 144.767 35.5138 144.998 34.7172C145.07 34.4625 145.093 34.1967 145.17 33.9474C145.357 33.3513 145.884 32.9686 146.41 33.0199C146.995 33.077 147.486 33.5894 147.548 34.2084C147.558 34.3061 147.563 34.4092 147.546 34.5068C147.266 36.432 146.349 37.8983 144.519 38.7036C144.057 38.9077 143.569 38.965 143.071 38.9681L143.081 38.9736Z" fill="#020200"/>
<path d="M158.905 33.4213C158.772 35.0161 158.132 36.3318 156.773 37.2479C155.99 37.776 155.133 37.9239 154.223 37.7784C153.514 37.6665 152.93 37.3001 152.467 36.7498C151.869 36.0415 151.607 35.2045 151.574 34.2872C151.564 34.0212 151.609 33.761 151.729 33.5173C151.97 33.0409 152.421 32.7663 152.935 32.8284C153.439 32.8905 153.79 33.169 153.945 33.6527C154.025 33.9027 154.035 34.1741 154.093 34.4295C154.135 34.6196 154.172 34.8206 154.258 34.9892C154.452 35.3483 154.809 35.4531 155.184 35.2921C155.77 35.0398 156.108 34.5693 156.317 33.9896C156.443 33.6429 156.461 33.2848 156.501 32.9214C156.58 32.1946 157.075 31.7628 157.747 31.7877C158.408 31.8126 158.856 32.2868 158.912 33.0197C158.922 33.15 158.911 33.2856 158.91 33.4159L158.905 33.4213Z" fill="#020200"/>
<path d="M149.876 53.9949C148.793 53.9247 147.695 53.4581 146.816 52.5205C146.487 52.1717 146.256 51.7744 146.388 51.2703C146.576 50.5549 147.429 49.9837 148.267 50.5521C148.429 50.6614 148.569 50.8086 148.709 50.9449C149.454 51.6648 150.597 51.5889 151.282 51.1851C151.929 50.8029 152.392 50.2624 152.753 49.6183C152.911 49.3315 153.043 49.0174 153.245 48.7687C153.621 48.3038 154.174 48.2033 154.666 48.4607C155.207 48.7455 155.459 49.2894 155.315 49.8639C154.796 51.9399 152.483 53.8663 150.358 53.9972C150.261 54.0022 150.158 53.9963 149.876 53.9949V53.9949Z" fill="#020200"/>
<path d="M180.543 41.6809C180.792 41.6604 181.019 41.7645 181.203 41.9771C181.445 42.255 181.568 42.5975 181.718 42.9238C181.777 43.0543 181.744 43.179 181.689 43.2981C181.454 43.8397 181.051 44.2068 180.497 44.3941C179.775 44.6348 179.009 43.9528 179.04 43.1227C179.065 42.363 179.751 41.6934 180.543 41.6863L180.543 41.6809Z" fill="#D6AC29"/>
<path d="M184.949 47.3891C184.884 47.3725 184.819 47.3668 184.759 47.3394C183.715 46.8948 183.493 45.8735 184.223 44.9327C184.48 44.6029 184.908 44.5019 185.282 44.5688C185.796 44.6635 186.136 45.0504 186.263 45.5611C186.412 46.1534 185.643 47.2676 185.041 47.3733C185.008 47.3786 184.976 47.3784 184.943 47.3837L184.949 47.3891Z" fill="#D6AC29"/>
<path d="M184.199 39.8367C184.197 39.0769 184.454 38.6386 185.04 38.4189C185.572 38.2152 186.145 38.473 186.311 39.0219C186.444 39.4729 186.447 39.9342 186.245 40.3783C186.031 40.8494 185.515 41.1617 185.06 41.0944C184.551 41.016 184.244 40.6401 184.198 40.0429C184.198 39.9778 184.198 39.9127 184.199 39.8421L184.199 39.8367Z" fill="#D6AB29"/>
<path d="M149.336 43.3611C149.339 42.7479 149.493 42.2168 149.804 41.7462C150.099 41.308 150.446 41.3205 150.714 41.7505C150.946 42.1261 151.025 42.5443 151.056 42.9677C151.096 43.5323 150.953 44.0743 150.669 44.5668C150.537 44.7941 150.374 45.0321 150.076 45.0036C149.821 44.9806 149.703 44.7576 149.606 44.5509C149.419 44.1647 149.318 43.7518 149.336 43.3611V43.3611Z" fill="#F5B816"/>
</svg>
