<svg width="158" height="163" viewBox="0 0 158 163" fill="none" xmlns="http://www.w3.org/2000/svg">
<path d="M103.923 47.5121C103.964 47.3095 104.107 47.1428 104.301 47.0728C105.767 46.5451 107.266 46.1163 108.78 45.7913C108.852 45.7747 108.926 45.7573 109.023 45.7344C110.271 45.4397 110.701 45.3653 111.335 45.4048C112.231 45.4605 112.983 45.844 113.616 46.6272C114.526 47.753 115.128 49.25 115.435 50.9256C115.611 51.9143 115.421 53.3255 114.921 54.1256C114.362 55.0332 113.452 55.8387 112.138 56.7168C111.904 56.8737 111.659 57.0313 111.376 57.2086C111.265 57.278 111.152 57.3483 111.012 57.4352C110.962 57.466 110.728 57.6103 110.665 57.6493C110.14 57.9737 109.698 58.2685 108.828 58.864C108.733 58.9291 108.733 58.9291 108.638 58.9944C107.318 59.898 106.622 60.3453 105.756 60.8109C104.374 61.5166 103.066 62.3593 101.853 63.3263C101.424 63.6676 100.803 63.2895 100.909 62.7521L103.923 47.5121Z" fill="#FBD2AE"/>
<path d="M107.713 82.3444C111.579 81.6729 118.786 79.454 120.173 78.0178C121.528 76.6318 122.03 74.7332 122.01 72.1552C122.004 71.4175 121.966 70.7575 121.874 69.5991L121.844 69.2311C121.622 66.7938 121.161 64.3913 120.466 62.0518C119.66 59.222 118.406 58.5765 114.941 58.7645C111.357 59.0007 107.801 59.4961 104.295 60.2471C103.991 60.3123 103.79 60.6033 103.837 60.911L107.031 81.8535C107.08 82.1794 107.388 82.4008 107.713 82.3444Z" fill="#FBD2AE"/>
<path d="M120.475 68.3591C119.584 68.4769 118.553 68.6011 117.321 68.7406C116.407 68.8441 115.478 68.9455 114.059 69.0981C110.096 69.5241 109.298 69.6119 107.82 69.7937C107.497 69.8333 107.268 70.1268 107.308 70.4492C107.347 70.7716 107.641 71.0009 107.963 70.9613C109.433 70.7806 110.23 70.6929 114.185 70.2677C115.606 70.1149 116.536 70.0133 117.453 69.9095C118.692 69.7693 119.73 69.6442 120.629 69.5254C120.951 69.4828 121.178 69.1873 121.135 68.8652C121.093 68.5432 120.797 68.3166 120.475 68.3591Z" fill="#FCB7A0"/>
<path d="M99.6178 75.1493C97.4488 72.4459 95.2798 70.466 93.0128 69.2932C89.8337 67.6452 86.1789 66.5836 82.815 66.4611C78.802 66.315 75.3741 67.4844 72.9272 70.1246C72.3922 70.7031 71.9654 71.4307 71.5629 72.4074L69.8594 66.8665C69.7359 66.4647 69.243 66.3184 68.9203 66.5878C67.7938 67.5282 66.1651 69.8136 64.1418 73.1193C62.7804 75.3437 61.483 77.6227 60.1732 80.0115C59.8375 80.6249 59.4925 81.3111 59.1372 82.0687C58.2632 83.9327 57.345 86.1868 56.3329 88.8987C55.8524 90.1861 55.369 91.5263 54.7981 93.1425C54.5621 93.8107 53.6777 96.3331 53.4762 96.9027C50.6483 104.895 48.9487 113.654 47.063 127.565C46.6931 130.298 46.3923 134.356 46.1523 139.394C45.9906 142.789 45.866 153.779 45.7738 157.415C45.7416 158.688 45.7157 159.87 45.6955 160.93C45.6885 161.302 45.6827 161.631 45.678 161.916C45.6763 162.015 45.6754 162.073 45.6738 162.176C45.6727 162.25 45.6727 162.25 45.6719 162.265C45.6679 162.593 45.9321 162.861 46.26 162.862L93.0007 162.912C93.3258 162.912 93.5895 162.649 93.5895 162.324C93.5895 149.807 94.2554 126.163 95.4353 120.635C96.3821 116.21 98.1118 110.781 100.064 105.917C100.981 103.629 102.072 101.154 103.542 97.9737C103.983 97.9056 104.421 97.8193 104.855 97.715C106.95 97.1983 107.566 97.0365 108.643 96.6877C112.82 95.3361 115.327 93.4168 115.773 90.3065C116.137 87.7778 114.979 84.3676 113.178 82.6402C111.886 81.4026 110.093 81.0796 107.71 81.3615C106.999 81.4456 106.307 81.5696 105.305 81.778C105.154 81.8095 104.652 81.915 104.581 81.9298C104.481 81.9508 104.389 81.9697 104.304 81.9872C102.475 79.0256 101.165 77.0776 99.6178 75.1493Z" fill="#FBD2AE"/>
<path d="M100.337 87.1058C96.7465 87.4806 94.6751 90.416 95.7192 93.7486C95.7276 93.7755 96.1032 95.0731 96.2461 95.505C96.635 96.6798 97.0441 97.4844 97.612 97.9654C99.1729 99.2894 100.7 99.5437 102.838 99.017C103.154 98.9393 103.346 98.6206 103.269 98.3052C103.191 97.9898 102.872 97.7971 102.557 97.8748C100.761 98.3171 99.6213 98.1272 98.3726 97.068C98.0198 96.7692 97.6872 96.1149 97.3629 95.1353C97.2284 94.729 96.8571 93.4462 96.8422 93.3983C96.0257 90.7921 97.59 88.5753 100.459 88.2758C100.782 88.2421 101.017 87.9528 100.983 87.6297C100.949 87.3066 100.66 87.072 100.337 87.1058Z" fill="#FCB7A0"/>
<path d="M97.437 88.8228L97.435 88.8231C94.3985 89.3558 85.5344 89.8022 81.5896 89.7141C81.1862 89.7054 80.7794 89.7009 80.1981 89.6974C80.0991 89.6968 80.0198 89.6963 79.8413 89.6954C75.9801 89.6745 74.3434 89.537 72.5448 88.8651C70.1067 87.9542 68.5352 86.1395 67.8559 83.1386C67.1285 79.9233 66.6088 76.4598 66.1399 72.0771C65.9651 70.4427 65.8741 69.4942 65.5573 66.0876C65.4925 65.391 65.4465 64.9001 65.4001 64.4128C64.9866 60.0512 64.6133 55.2352 64.0785 47.6666C64.1292 48.3837 63.5737 40.4738 63.4254 38.4149C63.2189 35.5477 63.0419 33.2037 62.8702 31.092C62.4432 25.7729 62.3802 20.4529 63.0912 18.32C63.9567 15.6571 66.2842 13.7351 69.0482 13.391C76.074 12.3372 84.9037 11.5402 89.5875 11.6377C90.0065 11.6465 90.377 11.6503 91.1815 11.6556C93.5533 11.6714 94.6581 11.6997 96.0548 11.8142C100.479 12.1766 103.568 13.3112 105.344 15.7503C106.312 17.0826 106.885 19.0064 107.243 21.5998C107.332 22.2491 107.407 22.9276 107.48 23.7147C107.507 24.0164 107.534 24.3199 107.567 24.7132C107.56 24.6406 107.627 25.4409 107.644 25.6449C107.666 25.8998 107.685 26.112 107.704 26.3093C107.718 26.4658 107.718 26.4658 107.732 26.6224C108.323 33.0795 108.341 33.2657 108.585 35.6779C108.751 37.3211 108.915 38.8409 109.084 40.2929C110.622 53.3 111.543 64.272 111.888 74.9137C112.045 79.7164 111.329 82.9822 108.838 85.1207C107.657 86.1298 105.732 86.939 103.208 87.6203C102.169 87.9008 101.071 88.1476 99.881 88.3795C99.433 88.4668 98.9923 88.5481 98.4943 88.6366C98.2898 88.6729 97.5812 88.797 97.437 88.8228Z" fill="#1A4E66"/>
<path d="M96.1305 86.3675C92.6437 86.7545 89.1363 86.9254 85.6284 86.8792C80.5082 86.7674 76.1996 87.4497 74.8086 81.3061C73.5704 75.8359 73.1146 68.7511 72.5823 63.1456C71.7176 54.0287 71.0236 41.3825 70.2795 32.2185C70.0795 29.7481 69.5001 21.2575 70.4559 19.0312C71.4118 16.8049 73.7557 16.1138 75.4409 15.7962C79.4906 15.0139 84.4255 14.4051 89.0575 14.5021C93.2719 14.5904 100.166 14.1522 102.977 18.0313C104.63 20.3076 104.768 25.866 105.036 28.557C105.436 32.742 105.809 37.0564 106.312 41.3031C107.547 51.7553 108.518 63.6544 108.862 74.2419C108.959 77.1828 108.774 80.9649 106.271 83.1118C103.933 85.1087 98.151 86.1204 96.1305 86.3675Z" fill="white"/>
<path d="M68.1909 15.1689C66.7505 16.1322 66.2876 18.5871 66.353 22.4624C66.3696 23.4457 66.4166 24.4176 66.5026 25.768C66.5148 25.9593 66.5667 26.755 66.5792 26.9529C66.6059 27.3752 66.6238 27.6885 66.6362 27.963C66.7523 30.4758 66.9277 33.3907 67.1957 37.4117C67.2334 37.9775 67.2732 38.5699 67.3188 39.2436C67.3488 39.6876 67.5281 42.3258 67.5781 43.067C67.6743 44.4946 67.7482 45.6138 67.8132 46.637C68.4184 56.2634 69.3334 66.5325 70.5593 77.9104C70.8952 81.0542 71.5977 83.999 72.6595 86.0576C72.8084 86.3463 73.1631 86.4597 73.4518 86.3107C73.7405 86.1618 73.8539 85.8071 73.705 85.5184C72.7228 83.614 72.0509 80.7973 71.729 77.7849C70.5048 66.4227 69.5913 56.1704 68.9872 46.5628C68.9221 45.5375 68.8482 44.4169 68.7518 42.9878C68.7018 42.2463 68.5225 39.6079 68.4925 39.1642C68.447 38.4909 68.4072 37.8989 68.3695 37.3335C68.102 33.3198 67.9269 30.4116 67.8114 27.9092C67.7986 27.6268 67.7803 27.3073 67.7532 26.8787C67.7406 26.6793 67.6888 25.8833 67.6766 25.6932C67.5917 24.3596 67.5455 23.4035 67.5292 22.4425C67.4711 18.9983 67.8881 16.7866 68.8448 16.1468C69.1149 15.9662 69.1874 15.6009 69.0068 15.3309C68.8262 15.0608 68.4609 14.9883 68.1909 15.1689Z" fill="#0D323F"/>
<path d="M60.6753 98.6987C60.2297 98.6883 59.9571 98.2055 60.1784 97.8187C60.9416 96.4843 61.81 95.0724 62.8862 93.3981C63.3282 92.7104 63.7866 92.0069 64.3962 91.0781C64.591 90.7815 65.3049 89.6955 65.2481 89.7818C65.5891 89.2629 65.8434 88.875 66.09 88.4972C66.7196 87.5327 67.234 86.7329 67.7079 85.9782C71.3943 80.1061 75.2324 75.4222 79.37 72.1958C81.7398 70.3482 84.5502 70.8242 86.3289 73.3402C87.2609 74.6559 87.304 76.1472 86.6851 77.9225C86.4418 78.6203 86.1428 79.2686 85.6124 80.3092C84.9277 81.6526 84.9297 81.6486 84.7346 82.0926C84.0255 83.7065 83.5699 86.4855 83.4692 89.0749C83.4272 90.1811 83.5561 91.4425 83.837 92.8779C84.0549 93.9915 84.349 95.149 84.7618 96.5835C84.8482 96.8835 84.9375 97.1884 85.0505 97.5702C85.0801 97.6704 85.2737 98.3226 85.3278 98.5059C85.4407 98.8882 85.1485 99.2698 84.75 99.2606L60.6753 98.6987Z" fill="#FBD2AE"/>
<path d="M65.6667 35.4781C65.5543 33.8312 65.4699 32.1974 65.4148 30.5924C65.4036 30.2678 65.1314 30.0136 64.8067 30.0248C64.4821 30.0359 64.2279 30.3082 64.2391 30.6328C64.2947 32.2512 64.3798 33.8982 64.493 35.5582C64.5151 35.8823 64.7958 36.1271 65.1199 36.105C65.444 36.0829 65.6888 35.8022 65.6667 35.4781Z" fill="#0D323F"/>
<path d="M66.2626 43.5781C66.1169 42.0042 66.0035 40.333 65.9174 38.5426C65.9017 38.2181 65.6261 37.9677 65.3016 37.9834C64.9771 37.999 64.7267 38.2747 64.7423 38.5991C64.8293 40.406 64.9439 42.0943 65.0912 43.6865C65.1211 44.0099 65.4076 44.2479 65.7311 44.218C66.0545 44.188 66.2925 43.9015 66.2626 43.5781Z" fill="#0D323F"/>
<path d="M83.34 90.2935C83.5324 92.3097 84.0082 93.8922 84.9608 96.1784C85.0132 96.3043 85.0665 96.4311 85.1385 96.6022C85.1826 96.7069 85.1826 96.7069 85.2264 96.8108C85.2701 96.9144 85.2878 96.9564 85.3133 97.0174C85.4519 97.3472 85.5523 97.5901 85.647 97.8264C85.7678 98.128 86.1102 98.2745 86.4117 98.1537C86.7133 98.0329 86.8598 97.6905 86.739 97.389C86.6414 97.1454 86.5388 96.8971 86.3979 96.5617C86.3721 96.5003 86.3543 96.4579 86.3105 96.354C86.2666 96.2499 86.2666 96.2499 86.2227 96.1456C86.1511 95.9758 86.0985 95.8502 86.0467 95.726C85.1355 93.539 84.69 92.0577 84.511 90.1818C84.4802 89.8584 84.193 89.6213 83.8696 89.6521C83.5463 89.683 83.3091 89.9701 83.34 90.2935Z" fill="#FCB7A0"/>
<path d="M60.6966 96.9527C61.4439 95.6462 62.2971 94.2589 63.3557 92.6122C63.7965 91.9264 64.2544 91.2239 64.8641 90.2953C65.0591 89.9984 65.7709 88.9159 65.7193 88.9944C66.0621 88.4729 66.3181 88.0825 66.5666 87.702C67.202 86.7287 67.7218 85.9205 68.2013 85.1566C68.3741 84.8815 68.291 84.5184 68.0159 84.3457C67.7407 84.173 67.3777 84.256 67.205 84.5312C66.7297 85.2884 66.2135 86.091 65.5816 87.0589C65.3339 87.4382 65.0785 87.8277 64.7363 88.3482C64.7881 88.2694 64.076 89.3523 63.8808 89.6496C63.2691 90.5811 62.8094 91.2865 62.3661 91.9761C61.2974 93.6385 60.4342 95.0421 59.6755 96.3686C59.5142 96.6506 59.6121 97.01 59.894 97.1712C60.176 97.3325 60.5354 97.2347 60.6966 96.9527Z" fill="#FCB7A0"/>
<path d="M85.1264 114.142C85.7288 114.28 86.3188 114.467 86.8907 114.701C87.1914 114.824 87.5348 114.68 87.6579 114.379C87.781 114.079 87.637 113.735 87.3364 113.612C86.7052 113.354 86.054 113.147 85.3892 112.995C85.0726 112.922 84.7571 113.12 84.6845 113.437C84.6119 113.754 84.8098 114.069 85.1264 114.142Z" fill="#FCB7A0"/>
<path d="M156.694 138.214C156.289 137.927 155.807 137.771 155.311 137.767C155.714 136.82 155.782 135.765 155.503 134.776C155.187 133.707 154.377 132.856 153.326 132.488C151.585 131.849 150.221 132.561 149.162 133.626C149.383 131.795 149.053 129.939 148.215 128.297C148.118 128.123 145.862 124.062 143.548 123.471C141.654 122.982 140.095 123.291 138.916 124.391C136.363 126.767 136.304 132.432 136.733 136.117C136.391 135.998 136.031 135.942 135.669 135.952C133.716 135.99 131.031 137.717 130.249 139.446C129.954 140.099 129.613 141.049 130.093 141.799C130.572 142.549 131.613 142.681 133.034 142.66C134.225 142.66 135.419 142.66 136.563 142.687C137.445 142.704 138.357 142.719 139.271 142.719C140.186 142.719 141.036 142.704 141.918 142.66L143.095 142.601C145.9 142.466 149.397 142.307 151.918 141.907L152.685 141.79C155.2 141.416 157.185 141.119 157.167 139.24C157.18 138.842 157.005 138.462 156.694 138.214Z" fill="#91D5DD"/>
<path d="M30.3148 112.027C30.0387 111.898 29.7373 111.832 29.4325 111.833C29.5653 111.302 29.4994 110.74 29.2472 110.254C28.7296 109.278 27.4826 108.716 25.9474 108.783C23.8888 108.875 21.9271 110.045 20.4831 111.551L20.589 111.257C21.1243 109.766 21.6742 108.222 21.1125 106.201C20.5802 104.298 19.5803 102.14 16.457 102.281C13.613 102.41 10.6368 104.393 8.49284 107.575C6.72826 110.222 5.90773 113.148 6.23124 115.559C5.04604 115.197 3.76552 115.319 2.66973 115.898C1.49335 116.486 0.784577 117.43 0.834574 118.289C0.85516 118.68 1.05809 119.4 2.17271 119.815C2.72883 119.99 3.31065 120.068 3.89317 120.047C4.54313 120.047 5.24013 119.989 5.89303 119.936C6.4224 119.891 6.92236 119.85 7.29586 119.85H15.3894C16.2158 119.85 17.0569 119.865 17.948 119.883C21.8919 119.956 26.3651 120.039 30.0648 118.689L30.1383 118.656C31.3382 118.024 32.0352 116.742 32.0058 115.227C31.9764 113.783 31.2941 112.498 30.3148 112.027Z" fill="#91D5DD"/>
<path d="M105.309 136.29C112.153 129.17 117.3 110.41 102.662 107.125C101.695 106.907 100.73 106.737 99.7715 106.607C97.9574 111.162 96.5011 115.851 95.4159 120.633C94.6336 124.297 94.1454 132.102 93.869 139.669C90.1986 141.519 86.896 145.675 85.9843 148.554C85.6578 145.804 81.7081 142.208 76.8908 142.996C72.0735 143.784 66.9092 149.728 66.571 153.43C65.3622 147.054 57.5128 142.037 51.5927 140.922C49.7577 140.587 47.8733 140.635 46.0578 141.063C46.2725 136.108 46.5901 130.923 47.043 127.564C47.6312 123.212 48.2958 118.574 49.1458 113.927H49.0928C45.7343 114.192 42.0345 114.986 39.1641 116.742C35.5409 118.962 31.5618 122.565 29.8178 126.535C27.8738 130.964 26.0769 137.481 27.7591 143.61C23.5976 141.211 18.8715 143.005 17.5216 146.072C15.4894 150.68 17.7157 157.606 23.7535 159.715C29.7913 161.824 38.5936 163 48.937 163H82.5227C94.7924 163 104.83 162.271 108.871 161.268C117.755 159.056 123.773 154.695 125.884 146.663C128.543 136.508 116.817 126.347 105.309 136.29Z" fill="#91D5DD"/>
<path d="M76.8163 142.412C72.7623 143.076 68.1352 147.402 66.5509 151.283C64.3703 146.047 57.9333 141.514 51.722 140.344C47.5098 139.551 42.9646 140.852 39.4156 143.601C39.1588 143.8 39.1119 144.17 39.3109 144.426C39.5098 144.683 39.8793 144.73 40.1361 144.531C43.4319 141.978 47.642 140.773 51.5043 141.5C58.0799 142.738 64.9685 148.027 66.0136 153.54C66.1407 154.21 67.1152 154.163 67.1773 153.484C67.5152 149.784 72.7232 144.274 77.0064 143.573C79.0875 143.233 81.1353 143.757 82.803 144.928C84.2806 145.966 85.2763 147.407 85.4207 148.623C85.4954 149.252 86.3746 149.335 86.5656 148.732C87.3419 146.278 89.8669 143.035 92.6351 141.106C95.8557 138.862 98.8501 138.637 101.081 140.878C101.31 141.109 101.682 141.11 101.913 140.88C102.143 140.651 102.144 140.279 101.915 140.049C99.2129 137.334 95.6016 137.606 91.9626 140.141C89.5306 141.835 87.2895 144.454 86.0847 146.836C84.6829 144.002 80.7387 141.77 76.8163 142.412Z" fill="#1A4E66"/>
<path d="M91.3862 61.4414C89.9998 61.6064 89.4068 61.6723 88.6478 61.7387C88.0041 61.7948 87.337 61.8352 86.4592 61.8755C86.2224 61.8864 86.0468 61.894 85.6019 61.9129C84.8816 61.9436 84.5449 61.9589 84.1414 61.9805C83.8066 61.9987 83.471 61.9987 83.1469 61.9809C82.4631 61.9689 81.8968 61.4463 81.8293 60.7575C81.6779 58.6019 81.4434 54.5919 81.3994 53.3301C81.3792 52.7539 81.3524 51.6551 81.3169 50.0301C81.3255 48.5873 82.2616 47.3139 83.6313 46.877C84.6879 46.5196 85.7695 46.2407 86.8691 46.0424C87.0454 46.0117 87.1722 45.9894 87.5108 45.9296C89.3719 45.6011 90.2261 45.4724 91.2942 45.3918C93.064 45.2596 94.2336 45.3221 95.2152 45.8001C96.4677 46.4099 97.0678 47.137 97.3533 48.4732C97.6149 49.6922 97.7389 50.6783 97.9528 52.8935C97.9702 53.0735 97.9779 53.1538 97.9876 53.2534C98.0603 54.0001 98.113 54.4991 98.1752 55.0046C98.216 55.3379 98.2619 55.8042 98.3136 56.3975C98.3397 56.6975 98.367 57.027 98.3964 57.3935C98.439 57.9249 98.5626 59.5366 98.5652 59.5716C98.5974 60.1844 98.1368 60.7118 97.5331 60.7616C97.3252 60.7845 97.0818 60.8118 96.7541 60.849C96.6007 60.8665 96.0008 60.9348 95.8631 60.9505L95.7713 60.9609C94.773 61.0742 94.1514 61.1419 93.7172 61.1827C93.0677 61.2446 92.5356 61.3047 91.3862 61.4414Z" fill="#EAF3F3"/>
<path d="M88.9339 57.9652C88.7713 57.9799 88.6279 57.8593 88.6144 57.6966C88.6104 57.6486 88.6029 57.5586 88.5924 57.4325C88.5749 57.2224 88.5554 56.9883 88.5342 56.7362C88.4737 56.0158 88.4127 55.2955 88.3548 54.6232C88.3466 54.5284 88.3466 54.5284 88.3384 54.4337C88.2375 53.2659 88.1591 52.3939 88.112 51.9288C87.9629 50.4579 88.4871 49.4673 89.543 49.3942C90.5888 49.3218 91.4029 50.0353 91.5463 51.202C91.5983 51.6304 91.6614 52.2792 91.7335 53.1088C91.7582 53.3939 91.7838 53.6978 91.8101 54.0182C91.8706 54.7564 91.932 55.5472 91.991 56.338C92.0117 56.6148 92.0306 56.8718 92.0474 57.1025C92.0574 57.2409 92.0645 57.3398 92.0683 57.3926C92.0796 57.5525 91.9609 57.692 91.8014 57.7064L88.9339 57.9652Z" fill="#3B3B3B"/>
<path d="M86.3305 40.4246C86.7039 40.0295 87.197 39.7684 87.7339 39.6817C87.8856 39.6708 87.996 39.658 88.3754 39.6104C88.6287 39.5786 88.7719 39.5621 88.9275 39.5485C89.4895 39.4994 89.895 39.5286 90.2218 39.6633C91.1057 40.0274 91.4217 40.5608 91.4693 41.7238C91.4913 42.248 91.5581 43.1244 91.6582 44.2573C91.6731 44.4257 91.6886 44.5984 91.7047 44.7749C91.7577 45.357 91.8145 45.9551 91.8713 46.5361C91.8911 46.7395 91.9096 46.9262 91.9262 47.0922C91.9361 47.1918 91.9432 47.2624 91.947 47.2998C91.9649 47.4763 92.1338 47.5969 92.3065 47.5566L94.3475 47.0801C94.4855 47.0479 94.581 46.9218 94.5744 46.7802C94.5729 46.7469 94.5729 46.7469 94.5659 46.5977C94.5591 46.4526 94.5515 46.291 94.5431 46.1169C94.5194 45.6195 94.4949 45.1221 94.4713 44.6578C94.4648 44.5311 94.4585 44.4085 94.4523 44.2902C94.4064 43.4127 94.3712 42.8227 94.3498 42.6062C94.1876 40.9517 93.6421 39.0464 92.9784 38.2139C91.8809 36.8315 90.3671 36.4913 87.9053 36.9614C86.3653 37.2555 85.6219 37.449 84.9386 37.7914C84.0524 38.2353 83.5108 38.882 83.3002 39.8336C83.1855 40.3523 83.1132 40.8655 83.0775 41.3961C82.9994 42.5553 83.0097 42.698 83.3381 46.0852C83.4422 47.1582 83.5104 48.0195 83.5583 48.9614C83.5705 49.2014 83.8497 49.3263 84.0367 49.1754C84.0958 49.1277 84.1672 49.0769 84.2499 49.0237C84.459 48.8893 84.7325 48.7442 85.0536 48.5939C85.3427 48.4586 85.6536 48.3267 85.9646 48.204C86.0736 48.1609 86.1747 48.1222 86.2653 48.0883C86.3193 48.0681 86.3576 48.0541 86.3774 48.047C86.5087 48 86.5889 47.8673 86.5695 47.7292C86.5648 47.6959 86.5561 47.6332 86.5437 47.5451C86.5232 47.3983 86.5004 47.2339 86.4758 47.0559C86.4055 46.5476 86.3351 46.0326 86.2695 45.5428C86.2577 45.4548 86.2577 45.4548 86.246 45.3667C86.099 44.264 86.0021 43.4807 85.9774 43.1706C85.8561 41.6968 85.909 40.9943 86.3305 40.4246Z" fill="#EAF3F3"/>
<path d="M106.319 7.5147L109.351 1.04753C109.524 0.679872 109.365 0.242087 108.998 0.0697103C108.63 -0.102666 108.192 0.0556412 108.02 0.4233L104.988 6.89047C104.815 7.25813 104.974 7.69592 105.341 7.86829C105.709 8.04067 106.147 7.88236 106.319 7.5147Z" fill="#CCC9C6"/>
<path d="M118.266 4.41667L111.793 9.04868C111.462 9.28499 111.386 9.74425 111.623 10.0745C111.859 10.4047 112.318 10.4808 112.648 10.2445L119.121 5.61252C119.452 5.37621 119.528 4.91695 119.292 4.58673C119.055 4.25651 118.596 4.18037 118.266 4.41667Z" fill="#CCC9C6"/>
<path d="M114.623 17.9105L120.52 17.7958C120.926 17.7879 121.248 17.4524 121.24 17.0464C121.232 16.6404 120.897 16.3177 120.491 16.3256L114.594 16.4403C114.188 16.4482 113.866 16.7837 113.874 17.1897C113.881 17.5957 114.217 17.9184 114.623 17.9105Z" fill="#CCC9C6"/>
</svg>
