<svg width="122" height="165" viewBox="0 0 122 165" fill="none" xmlns="http://www.w3.org/2000/svg">
<path d="M117.664 18.8131C119.833 20.469 121.557 22.5017 122.932 24.8587C124.97 28.3647 126.243 32.1598 127.196 36.077C128.191 40.1722 128.456 44.3358 128.266 48.5327C128.138 51.3904 127.973 54.2375 127.83 57.0959C127.577 62.3211 127.876 67.5216 128.449 72.7112C128.783 75.7578 129.107 78.8017 129.225 81.866C129.404 86.3252 129.05 90.7203 127.869 95.0353C127.135 97.7222 126.116 100.302 124.918 102.809C121.519 109.881 117.428 116.543 112.866 122.912C110.662 125.989 108.011 128.651 105.26 131.229C100.974 135.249 96.4864 139.031 91.9258 142.737C89.7104 144.538 87.4083 146.224 85.0102 147.792C83.8675 148.538 82.7575 149.343 81.6082 150.076C79.6899 151.303 77.7065 152.425 75.6077 153.324C74.1616 153.941 72.7154 154.559 71.2287 155.074C68.4353 156.037 65.6098 156.264 62.6714 155.792C60.3062 155.417 58.2285 154.533 56.3226 153.144C55.7521 152.728 55.1935 152.306 54.6403 151.865C52.2449 149.953 50.6499 147.492 49.6109 144.616C49.0365 143.022 48.3238 141.473 47.6356 139.927C46.9376 138.362 45.8653 137.034 44.7816 135.728C42.5887 133.084 40.3872 130.452 38.1824 127.814C36.933 126.32 35.6339 124.876 34.5144 123.279C33.0855 121.247 31.7519 119.162 30.6767 116.912C29.2962 114.023 28.2253 111.033 27.3853 107.954C26.1566 103.436 26.1227 98.8735 26.9618 94.2888C27.7311 90.0996 29.0778 86.1129 31.1997 82.4062C31.977 81.039 32.7542 79.6718 33.5189 78.2959C35.176 75.3108 37.3069 72.6784 39.5253 70.1066C40.0172 69.533 40.4194 68.9235 40.7709 68.2642C41.6437 66.6192 42.5508 64.9941 43.3425 63.3006C44.1009 61.6875 44.8533 60.0777 45.4165 58.3779C45.6639 57.6283 45.9985 56.924 46.4319 56.2584C46.751 55.78 46.9389 55.2185 47.1986 54.7029C51.7618 45.4288 53.7961 41.5063 61.6577 33.189C64.2733 30.4218 67.0095 27.7747 69.9495 25.357C71.6452 23.9657 73.3889 22.6334 75.197 21.39C76.9011 20.2115 78.6118 19.0449 80.436 18.0565C83.2621 16.5323 86.2594 15.4885 89.3828 14.7868C93.475 13.8703 97.6061 13.3206 101.807 13.3923C102.551 13.4026 103.299 13.3943 104.031 13.5664C104.281 14.205 103.849 14.6757 103.613 15.1782C102.608 17.3156 103.204 19.1614 105.441 19.9804C108.854 21.231 112.287 21.3604 115.63 19.5905C116.269 19.2548 116.834 18.6875 117.661 18.8071L117.664 18.8131Z" fill="#FEBD11"/>
<path d="M117.664 18.8132C116.914 19.2417 116.157 19.6582 115.407 20.1018C114.425 20.6734 113.362 20.9711 112.24 21.0762C110.799 21.2092 109.359 21.2173 107.921 21.0457C107.016 20.9383 106.131 20.7266 105.297 20.3546C104.026 19.7806 103.152 18.8561 102.791 17.479C102.647 16.9366 102.667 16.4365 102.927 15.9209C103.32 15.1534 103.666 14.3573 104.037 13.5785C105.138 11.8544 106.501 10.3667 108.137 9.14827C109.831 7.88186 111.624 6.77903 113.553 5.91132C115.058 5.23087 116.539 4.4935 118.161 4.09763C119.539 3.76619 120.929 3.6535 122.339 3.81707C125.686 4.21174 127.959 7.65067 126.26 11.1397C125.705 12.2759 124.902 13.2149 123.906 13.9727C121.938 15.4752 119.944 16.9453 117.96 18.4332C117.838 18.5232 117.762 18.6815 117.664 18.8132V18.8132Z" fill="#48873E"/>
<path d="M82.7839 52.559C83.438 53.7053 83.7145 54.7722 83.7351 55.91C83.7469 56.7499 83.5745 57.5513 83.156 58.2863C82.4526 59.5197 81.1332 60.1837 79.7259 60.0109C78.4256 59.8491 77.3942 59.1743 76.5828 58.2077C75.8095 57.2823 75.2594 56.2262 75.0078 55.0214C74.8011 54.0248 74.8452 53.061 75.1696 52.0983C75.7634 50.3273 77.433 49.3542 79.2576 49.7632C80.6181 50.0627 81.6131 50.8972 82.4234 51.9887C82.5969 52.2193 82.732 52.4789 82.7871 52.565L82.7839 52.559Z" fill="#010100"/>
<path d="M68.912 54.5403C66.7173 55.7869 64.077 54.996 62.6048 52.8711C62.1561 52.2251 62.3148 51.3847 62.9056 50.8499C63.4229 50.3789 64.2111 50.3721 64.8303 50.8622C65.0219 51.013 65.1936 51.198 65.3561 51.3803C65.5824 51.6363 65.8572 51.8112 66.1692 51.9267C66.8151 52.1692 67.3938 52.0215 67.8452 51.5013C68.5647 50.6783 68.6518 49.7219 68.42 48.7081C68.3434 48.3854 68.2065 48.0802 68.1391 47.7602C67.9809 46.9931 68.3261 46.2518 68.9338 45.9874C69.6102 45.6927 70.4608 45.9545 70.9062 46.5945C70.9772 46.6953 71.0454 46.8052 71.0866 46.9223C71.9529 49.202 71.8405 51.368 70.324 53.3673C69.9421 53.8725 69.4418 54.2332 68.8968 54.5409L68.912 54.5403Z" fill="#020200"/>
<path d="M82.8834 38.7999C83.7105 40.6275 83.8102 42.4594 82.8779 44.2925C82.3411 45.3488 81.4913 46.0339 80.4048 46.4299C79.5585 46.7404 78.6951 46.6953 77.8513 46.3754C76.7634 45.9647 75.9663 45.2076 75.3703 44.2234C75.1977 43.9379 75.088 43.6256 75.0715 43.2853C75.0451 42.6165 75.3725 42.0404 75.9747 41.7943C76.565 41.5549 77.1197 41.6456 77.5844 42.0809C77.8247 42.3059 78.0006 42.5973 78.2203 42.8413C78.3828 43.0237 78.5458 43.2212 78.7429 43.3535C79.1739 43.6288 79.6295 43.5256 79.9423 43.1205C80.4318 42.4862 80.516 41.7643 80.3915 41.002C80.3187 40.5452 80.1201 40.142 79.9421 39.7197C79.5861 38.8752 79.866 38.1 80.6181 37.7172C81.3583 37.3409 82.1383 37.5871 82.6466 38.3556C82.7373 38.4921 82.8073 38.6477 82.886 38.7907L82.8834 38.7999Z" fill="#020200"/>
<path d="M85.5214 66.8456C84.2901 67.43 82.8015 67.5892 81.266 67.0987C80.6925 66.9174 80.1968 66.6233 80.0349 65.9904C79.8046 65.0922 80.3926 63.9455 81.6574 64.057C81.9018 64.0778 82.1453 64.1534 82.3823 64.2172C83.6376 64.5512 84.8459 63.7698 85.3508 62.9096C85.8272 62.0962 86.0058 61.2214 86.0088 60.2958C86.0078 59.8848 85.9607 59.4604 86.0303 59.0649C86.1595 58.3261 86.705 57.8783 87.4015 57.86C88.168 57.8419 88.7761 58.2838 88.9688 59.0008C89.6647 61.5916 88.3027 65.1131 86.0518 66.5537C85.9478 66.6186 85.8313 66.675 85.5214 66.8456V66.8456Z" fill="#020200"/>
<path d="M111.651 34.6384C111.912 34.4637 112.225 34.4392 112.556 34.5601C112.991 34.7164 113.335 35.0165 113.698 35.2822C113.843 35.3892 113.882 35.5459 113.895 35.7098C113.967 36.4468 113.749 37.0948 113.255 37.6379C112.61 38.3423 111.354 38.063 110.882 37.1348C110.447 36.2874 110.791 35.1351 111.655 34.6444L111.651 34.6384Z" fill="#D6AC29"/>
<path d="M119.964 38.2013C119.882 38.2228 119.807 38.2562 119.725 38.2625C118.31 38.4127 117.443 37.4301 117.671 35.9536C117.751 35.4359 118.159 35.0636 118.61 34.9088C119.232 34.6985 119.84 34.915 120.291 35.3965C120.816 35.9543 120.651 37.6444 120.055 38.1277C120.023 38.1533 119.987 38.173 119.954 38.1986L119.964 38.2013Z" fill="#D6AC29"/>
<path d="M114.537 30.387C114.072 29.5559 114.087 28.919 114.596 28.3204C115.055 27.7726 115.841 27.705 116.357 28.2053C116.778 28.6179 117.063 29.1212 117.111 29.7313C117.164 30.3777 116.788 31.0349 116.248 31.2389C115.642 31.4637 115.076 31.2395 114.662 30.6134C114.623 30.5419 114.583 30.4704 114.541 30.3929L114.537 30.387Z" fill="#D6AB29"/>
<path d="M78.4469 55.5281C78.0762 54.8546 77.9217 54.1787 77.9761 53.4733C78.0322 52.8135 78.4202 52.6155 78.9773 52.9223C79.4599 53.1925 79.8018 53.6022 80.0934 54.0474C80.4821 54.641 80.6552 55.3222 80.6437 56.0351C80.6384 56.3641 80.6039 56.7247 80.2598 56.8753C79.9665 57.0056 79.701 56.8334 79.4691 56.666C79.0276 56.3576 78.6651 55.967 78.4469 55.5281V55.5281Z" fill="#F5B816"/>
</svg>
