<svg width="207" height="115" viewBox="0 0 207 115" fill="none" xmlns="http://www.w3.org/2000/svg">
<path d="M33.0278 29.3098C32.8103 29.8193 32.5928 30.3288 32.3752 30.8384C32.2669 30.8097 32.1932 30.8068 32.1393 30.776C31.3932 30.3262 30.6183 29.9226 29.8044 29.6039C29.7185 29.5688 29.6456 29.4998 29.5648 29.4454C30.1551 29.2952 30.7622 29.3315 31.3642 29.3086C31.9168 29.285 32.4736 29.3081 33.0278 29.3098V29.3098Z" fill="#C63827"/>
<path d="M37.0866 29.754C36.3403 30.1031 35.5931 30.4559 34.8468 30.805C34.544 30.9484 34.2412 31.0918 33.8974 31.2492C33.8486 30.839 34.0725 30.5712 34.1786 30.264C34.2826 29.9646 34.3895 29.67 34.4935 29.3705C35.0352 29.4351 35.5769 29.4997 36.1157 29.5594C36.4452 29.5969 36.7757 29.6305 37.0876 29.7502L37.0866 29.754Z" fill="#C53827"/>
<path d="M39.8246 30.2626C40.7121 30.5221 41.6116 30.7517 42.4899 31.046C43.5054 31.3849 44.5127 31.7548 45.502 32.1613C47.1226 32.8257 48.7112 33.5645 50.231 34.4382C52.7899 35.9055 55.056 37.7133 56.8526 40.0757C58.0266 41.6155 58.9609 43.2946 59.763 45.0506C60.9904 47.7344 62.0939 50.464 63.0071 53.2717C64.1485 56.7812 64.8685 60.3821 65.1205 64.0621C65.2662 66.2033 65.148 68.3409 64.8949 70.4717C64.7174 71.9728 64.4207 73.4547 64.0931 74.9285C63.7644 76.4061 63.3063 77.8413 62.6057 79.1916C61.4686 81.3784 59.7964 83.0223 57.6223 84.1692C55.0972 85.5006 52.39 86.0968 49.5428 86.1262C48.0945 86.1406 46.6823 85.9244 45.3055 85.4651C44.4233 85.1698 43.6061 84.7384 42.7909 84.2994C41.68 83.6952 40.5622 83.1016 39.3943 82.6189C37.4156 81.806 35.3695 81.3104 33.2233 81.2561C31.7641 81.2179 30.3755 81.5544 29.0306 82.101C28.2147 82.4316 27.4377 82.8346 26.6653 83.2512C25.9369 83.6422 25.2065 84.0409 24.4649 84.4036C23.2523 84.9977 21.969 85.155 20.6276 85.0155C18.3073 84.7745 16.2601 83.8606 14.4032 82.5087C11.246 80.2045 8.98806 77.2233 7.77112 73.4827C6.6193 69.9497 6.14134 66.3259 6.29831 62.6174C6.40144 60.1613 6.61903 57.7106 6.92093 55.2698C7.17264 53.2379 7.53574 51.223 8.05562 49.2413C8.49857 47.5663 9.10092 45.9458 9.73707 44.3384C10.4414 42.5669 11.3125 40.885 12.3108 39.2699C12.6671 38.6894 13.0417 38.118 13.4259 37.5573C13.9745 36.7504 14.6605 36.0502 15.3434 35.3616C15.9239 34.7784 16.5352 34.2198 17.1818 33.6996C18.275 32.8215 19.4618 32.1213 20.7398 31.5611C22.8234 30.6468 24.9961 30.0376 27.2456 29.7012C27.5925 29.6729 27.8289 29.9216 28.1086 30.0535C29.1414 30.546 30.1095 31.158 31.1372 31.6698C31.3455 31.7745 31.6215 31.8889 31.5806 32.1844C31.5473 32.4198 31.3045 32.5087 31.1005 32.5913C30.0667 33.0258 29.0558 33.4993 28.0834 34.0617C28.0002 34.1101 27.9104 34.1525 27.8329 34.2107C27.5789 34.4043 27.1085 34.5241 27.3337 34.9561C27.5371 35.3452 27.9414 35.1624 28.2489 35.0326C29.1245 34.664 30.0208 34.3422 30.8643 33.9072C32.4447 33.0958 34.0645 33.2468 35.7051 33.5854C36.3013 33.71 36.8801 33.9003 37.4722 34.0403C37.7528 34.1062 38.0997 34.2187 38.2012 33.8192C38.2912 33.4788 38.0103 33.2886 37.7255 33.176C37.182 32.9619 36.597 32.8735 36.0414 32.6893C35.8201 32.6184 35.5109 32.5821 35.5023 32.286C35.492 32.0432 35.7553 31.9555 35.9507 31.8582C36.9776 31.3558 38.0291 30.9012 39.0513 30.3851C39.2848 30.2689 39.5369 30.1452 39.8168 30.2606L39.8246 30.2626Z" fill="#C73426"/>
<path d="M39.8245 30.2627C38.6779 30.7955 37.5273 31.3274 36.3825 31.869C36.108 31.9992 35.8011 32.0795 35.5636 32.2733C35.6241 32.4673 35.7661 32.4469 35.8705 32.4745C36.4353 32.6238 37.0032 32.7616 37.5649 32.9225C37.7738 32.9778 37.9823 33.066 38.1691 33.1734C38.4484 33.3383 38.572 33.669 38.489 33.9202C38.3889 34.2207 38.0866 34.3933 37.7256 34.3185C37.3684 34.2447 37.0136 34.1467 36.6646 34.0421C35.9618 33.8355 35.2544 33.6774 34.5299 33.5686C33.9206 33.4779 33.3169 33.5541 32.71 33.5013C32.4628 33.4814 32.1893 33.6078 31.9433 33.7083C30.8395 34.1573 29.7394 34.6238 28.6374 35.0816C28.3904 35.186 28.1452 35.2991 27.8918 35.3811C27.5087 35.4992 27.1751 35.3365 27.0564 35.0029C26.976 34.7747 27.0042 34.5586 27.183 34.399C27.3283 34.2719 27.4928 34.1664 27.663 34.0706C28.8131 33.4311 29.9849 32.8345 31.2067 32.3463C31.3179 32.3012 31.4434 32.2806 31.5024 32.1513C31.5109 32.0253 31.3946 32.0111 31.3185 31.9703C30.2943 31.4138 29.2722 30.8497 28.2351 30.3106C27.8891 30.1321 27.5261 29.9865 27.2505 29.6984C27.2485 29.6275 27.2388 29.5546 27.2418 29.4809C27.262 28.9192 27.6501 28.641 28.1648 28.8392C28.4573 28.9538 28.7337 29.1138 29.0183 29.2428C29.1958 29.3229 29.3794 29.3797 29.5639 29.4492C30.2644 29.5392 30.8813 29.8514 31.4893 30.1819C32.2312 30.585 32.235 30.586 32.5874 29.8638C32.6952 29.644 32.7865 29.4239 33.0258 29.3175C33.1225 29.1237 33.2087 28.923 33.3122 28.7351C33.4077 28.5617 33.5358 28.4217 33.7336 28.3623C34.067 28.26 34.4515 28.4652 34.5128 28.8125C34.5433 28.9944 34.4989 29.1938 34.4856 29.3848C34.6113 30.0679 34.2404 30.5782 33.9594 31.0461C34.9395 30.6265 35.9029 29.9417 37.0797 29.7645C37.8837 29.4473 38.6927 29.1273 39.4967 28.8101C39.6538 28.7482 39.811 28.6863 39.9745 28.6467C40.3329 28.5594 40.6427 28.6868 40.7758 28.9662C40.9089 29.2456 40.8209 29.5783 40.5365 29.7928C40.3052 29.9634 40.0585 30.1135 39.8186 30.2694L39.8245 30.2627Z" fill="#006937"/>
<path d="M46.7656 51.957C46.8313 51.9744 46.9775 52.0007 47.1137 52.0491C47.9165 52.3317 48.1964 53.0887 47.7664 53.8069C47.236 54.7014 45.3762 55.3644 44.3091 54.7511C42.9877 53.9878 43.4307 52.6728 44.2357 52.2111C45.0065 51.7692 45.8275 51.6386 46.7666 51.9532L46.7656 51.957Z" fill="#030100"/>
<path d="M43.4177 60.7984C42.4998 60.5598 41.8023 60.036 41.3281 59.2152C41.2001 58.9951 41.1429 58.773 41.2346 58.52C41.3948 58.0864 41.9206 57.9605 42.2355 58.288C42.336 58.3932 42.4149 58.5175 42.4948 58.638C43.1315 59.6424 44.6563 59.8553 45.5607 59.4404C45.9142 59.2773 46.2479 59.08 46.5407 58.818C46.6487 58.7224 46.7588 58.6191 46.8897 58.5626C47.0946 58.4761 47.3065 58.4576 47.5032 58.6214C47.7145 58.7931 47.7971 58.9971 47.7391 59.2632C47.6886 59.4858 47.5649 59.6559 47.3969 59.806C46.2407 60.8289 44.9264 61.1974 43.4187 60.7945L43.4177 60.7984Z" fill="#040100"/>
<path d="M44.3471 46.9219C44.2374 47.4309 43.9431 47.8705 43.523 48.223C43.1715 48.5191 42.7668 48.6563 42.3026 48.5335C41.8384 48.4108 41.5504 48.107 41.4089 47.6557C41.3355 47.4169 41.3185 47.1682 41.3605 46.9309C41.4817 46.2221 41.7719 45.5787 42.2489 45.0426C42.5604 44.6945 43.026 44.6396 43.4643 44.6727C43.854 44.7013 44.1054 44.9871 44.2853 45.3244C44.556 45.8347 44.513 46.3573 44.3433 46.9209L44.3471 46.9219Z" fill="#030100"/>
<path d="M48.1179 47.4223C48.1937 47.0574 48.3775 46.7376 48.571 46.4287C48.7298 46.1727 48.965 46.0031 49.2828 45.9754C49.4266 45.9637 49.5732 45.957 49.7183 45.925C50.1622 45.8271 50.4729 46.0293 50.7257 46.3569C50.9756 46.6796 51.056 47.0486 51.0486 47.4523C51.0336 48.2761 50.4005 49.2303 49.6637 49.528C49.0528 49.7721 48.4829 49.5635 48.1851 48.9839C48.0942 48.8109 48.0268 48.6275 48.0218 48.4275C48.015 48.2808 47.9956 48.135 48.0131 47.9906C48.0351 47.7977 48.0853 47.6082 48.1228 47.4194L48.1179 47.4223Z" fill="#040100"/>
<path d="M46.3841 53.3213C45.9873 53.6013 45.5625 53.7207 45.0898 53.6454C45.0027 53.6307 44.8925 53.5933 44.8941 53.4778C44.894 53.4157 44.9358 53.3357 44.9829 53.2985C45.2351 53.0961 45.538 53.0148 45.8519 52.986C46.0939 52.9631 46.2304 53.1358 46.3831 53.3252L46.3841 53.3213Z" fill="#C03426"/>
<path d="M148.115 57.3603C148.283 58.9448 148.113 60.4918 147.665 62.0207C146.996 64.2921 145.897 66.3549 144.617 68.3307C143.28 70.3964 141.62 72.1794 139.763 73.7826C138.5 74.8751 137.226 75.9477 135.957 77.034C133.639 79.0232 131.553 81.2371 129.582 83.5626C128.423 84.9265 127.262 86.2854 126.01 87.565C124.19 89.4303 122.184 91.044 119.88 92.2743C118.445 93.041 116.943 93.644 115.399 94.1419C111.035 95.5383 106.568 96.4762 102.035 97.0971C99.8458 97.3965 97.6532 97.3406 95.456 97.208C92.0307 97.0032 88.6258 96.6173 85.2241 96.1698C83.571 95.953 81.932 95.6531 80.3046 95.2652C79.5299 95.0796 78.7431 94.9318 77.9708 94.7386C76.6808 94.4171 75.4088 94.0262 74.1854 93.4967C73.3433 93.131 72.5012 92.7653 71.6861 92.3414C70.1568 91.5429 68.9267 90.4356 67.9477 89C67.1579 87.8461 66.6987 86.6104 66.5232 85.2446C66.4707 84.8357 66.4257 84.4293 66.3908 84.0177C66.2405 82.2345 66.6443 80.5704 67.4471 78.9758C67.8928 78.0926 68.2638 77.1688 68.6438 76.2561C69.0274 75.3322 69.1602 74.3446 69.2794 73.3609C69.5211 71.3696 69.754 69.3797 69.9882 67.3861C70.1206 66.2565 70.2116 65.1262 70.4398 64.0106C70.7283 62.5891 71.0774 61.1869 71.6004 59.828C72.2721 58.0829 73.1106 56.4288 74.0793 54.8373C75.5028 52.5031 77.4243 50.658 79.7057 49.1742C81.7913 47.8195 84.0226 46.791 86.4463 46.2036C87.3381 45.9847 88.2299 45.7657 89.1203 45.538C91.0515 45.0431 93.023 44.8906 95.0041 44.7995C95.4447 44.7781 95.8647 44.704 96.2854 44.5886C97.3333 44.2987 98.3866 44.0314 99.4226 43.6876C100.411 43.362 101.396 43.0352 102.343 42.592C102.76 42.3962 103.193 42.2555 103.649 42.1722C103.98 42.1156 104.294 41.97 104.617 41.8733C110.381 40.0874 112.862 39.3762 119.544 39.3733C121.767 39.3724 123.988 39.4708 126.193 39.7477C127.464 39.9086 128.729 40.1136 129.982 40.3816C131.165 40.6315 132.346 40.889 133.498 41.2661C135.278 41.8532 136.924 42.7057 138.475 43.749C140.505 45.1169 142.396 46.6486 144.052 48.4594C144.346 48.7788 144.649 49.093 144.87 49.4723C144.7 49.8348 144.327 49.8404 144.019 49.942C142.709 50.3731 142.165 51.3668 142.715 52.6441C143.555 54.5938 144.877 56.1019 146.969 56.8097C147.368 56.9458 147.835 56.9579 148.116 57.3565L148.115 57.3603Z" fill="#FEBD11"/>
<path d="M148.115 57.3603C147.632 57.214 147.152 57.0601 146.663 56.9201C146.026 56.7329 145.474 56.4015 144.979 55.9676C144.344 55.4098 143.763 54.8024 143.259 54.1237C142.941 53.6966 142.676 53.2362 142.499 52.7333C142.232 51.9639 142.274 51.2223 142.713 50.5163C142.885 50.2379 143.106 50.0456 143.428 49.9489C143.912 49.8076 144.388 49.6349 144.867 49.4798C146.041 49.2551 147.219 49.2363 148.392 49.4411C149.609 49.6517 150.796 49.9694 151.938 50.4396C152.83 50.8047 153.737 51.137 154.556 51.6663C155.25 52.1179 155.856 52.6622 156.352 53.3259C157.527 54.9037 156.981 57.2477 154.819 57.9274C154.115 58.148 153.394 58.1841 152.673 58.0656C151.246 57.8336 149.822 57.5777 148.395 57.3332C148.308 57.3179 148.21 57.3492 148.115 57.3603V57.3603Z" fill="#48873E"/>
<path d="M119.805 56.1067C119.582 56.8442 119.24 57.3895 118.766 57.8548C118.414 58.1969 118.005 58.4453 117.525 58.5627C116.72 58.7593 115.909 58.4661 115.417 57.7998C114.964 57.1834 114.837 56.4752 114.921 55.7431C115.003 55.0438 115.231 54.3867 115.641 53.7965C115.98 53.3089 116.407 52.9409 116.945 52.6922C117.935 52.2334 119.018 52.5511 119.576 53.4891C119.995 54.1864 120.04 54.9433 119.903 55.725C119.874 55.8911 119.819 56.0525 119.804 56.1105L119.805 56.1067Z" fill="#010100"/>
<path d="M113.399 51.0178C111.989 50.5872 111.265 49.1499 111.576 47.6728C111.67 47.2233 112.09 46.9533 112.554 46.9893C112.961 47.0197 113.28 47.3514 113.321 47.8106C113.334 47.9524 113.324 48.0995 113.312 48.2416C113.294 48.4403 113.33 48.627 113.407 48.8057C113.563 49.177 113.858 49.3632 114.26 49.3459C114.897 49.3209 115.338 48.974 115.675 48.4689C115.781 48.3069 115.856 48.1264 115.964 47.9693C116.226 47.5945 116.679 47.4435 117.035 47.595C117.432 47.7637 117.662 48.2296 117.569 48.6753C117.555 48.7458 117.536 48.8189 117.502 48.8834C116.883 50.1656 115.919 50.9871 114.463 51.1461C114.095 51.1868 113.741 51.1193 113.392 51.0116L113.399 51.0178Z" fill="#020200"/>
<path d="M125.681 50.6278C125.238 51.712 124.501 52.4893 123.349 52.8294C122.686 53.0256 122.054 52.9401 121.45 52.6381C120.979 52.4037 120.652 52.0194 120.449 51.5332C120.187 50.9069 120.188 50.2651 120.366 49.6173C120.418 49.4296 120.506 49.2577 120.644 49.1141C120.917 48.8346 121.293 48.7423 121.639 48.899C121.977 49.0533 122.161 49.325 122.163 49.6968C122.164 49.8889 122.111 50.0805 122.096 50.2716C122.084 50.4137 122.065 50.5621 122.088 50.6988C122.145 50.992 122.371 51.1439 122.669 51.114C123.134 51.0671 123.474 50.8132 123.747 50.4545C123.912 50.2403 124.003 49.9943 124.111 49.7493C124.326 49.2594 124.767 49.0671 125.232 49.2325C125.688 49.3955 125.897 49.8251 125.775 50.3491C125.753 50.4423 125.715 50.5344 125.686 50.6252L125.681 50.6278Z" fill="#020200"/>
<path d="M114.844 63.0006C114.102 62.7128 113.437 62.1453 113.029 61.2972C112.876 60.9812 112.802 60.6529 113.005 60.3303C113.294 59.8722 114.016 59.6615 114.476 60.2427C114.566 60.3547 114.631 60.4883 114.699 60.6144C115.061 61.2809 115.878 61.4799 116.445 61.3489C116.981 61.2245 117.424 60.9493 117.818 60.5791C117.992 60.4138 118.153 60.2235 118.348 60.0943C118.714 59.8526 119.122 59.9044 119.41 60.1924C119.725 60.5103 119.782 60.9455 119.555 61.315C118.735 62.6498 116.695 63.4851 115.181 63.1084C115.111 63.0904 115.041 63.0636 114.844 63.0006V63.0006Z" fill="#020200"/>
<path d="M138.99 61.1602C139.169 61.2008 139.305 61.3236 139.386 61.5123C139.495 61.7597 139.505 62.0259 139.538 62.2868C139.551 62.3909 139.5 62.4706 139.436 62.5417C139.152 62.8679 138.79 63.0354 138.361 63.0442C137.804 63.0532 137.418 62.4083 137.623 61.8357C137.807 61.311 138.434 60.9946 138.989 61.164L138.99 61.1602Z" fill="#D6AC29"/>
<path d="M140.814 66.1155C140.772 66.0897 140.728 66.0713 140.693 66.0391C140.061 65.4988 140.13 64.7368 140.848 64.241C141.099 64.0673 141.421 64.0911 141.668 64.2201C142.006 64.3995 142.159 64.7445 142.135 65.1291C142.109 65.5753 141.326 66.1837 140.882 66.1248C140.858 66.1213 140.836 66.114 140.812 66.1105L140.814 66.1155Z" fill="#D6AC29"/>
<path d="M141.951 60.6783C142.117 60.1476 142.393 59.8981 142.851 59.8739C143.268 59.8489 143.612 60.1552 143.607 60.5748C143.601 60.919 143.502 61.2417 143.262 61.5071C143.009 61.7889 142.58 61.8932 142.277 61.746C141.938 61.5791 141.806 61.249 141.905 60.8221C141.92 60.7767 141.934 60.7313 141.95 60.6821L141.951 60.6783Z" fill="#D6AB29"/>
<path d="M116.806 55.4585C116.943 55.0311 117.167 54.6944 117.488 54.4343C117.791 54.1934 118.03 54.2785 118.124 54.6379C118.203 54.951 118.166 55.2605 118.094 55.5628C117.999 55.9658 117.779 56.3126 117.472 56.5938C117.33 56.7236 117.164 56.8536 116.962 56.7681C116.789 56.696 116.755 56.5143 116.733 56.3487C116.687 56.0377 116.707 55.7272 116.806 55.4585V55.4585Z" fill="#F5B816"/>
<path d="M184.514 17.5475C183.523 17.3291 182.531 17.1158 181.54 16.8975C180.206 16.6066 178.86 16.5482 177.501 16.6665C175.994 16.7971 174.641 17.3284 173.439 18.2496C172.478 18.9868 171.677 19.8758 170.944 20.8293C170.024 22.0244 169.23 23.3063 168.522 24.6394C167.397 26.7561 166.359 28.9139 165.634 31.212C165.287 32.2993 165.028 33.4077 164.795 34.5191C164.408 36.3854 164.076 38.2634 163.689 40.1296C163.352 41.7577 162.981 43.3713 162.614 44.9907C162.328 46.2483 162.021 47.5034 161.729 48.7604C161.185 51.1264 160.546 53.4706 159.858 55.7987C158.891 59.0698 157.832 62.3142 156.66 65.5194C155.811 67.8278 154.851 70.0919 153.632 72.2326C152.931 73.4648 152.164 74.6533 151.243 75.7312C149.14 78.1859 146.946 80.5531 144.452 82.6239C142.033 84.6326 139.466 86.4298 136.726 87.9767C135.408 88.7209 134.036 89.3262 132.611 89.8181C131.565 90.1782 130.526 90.5546 129.499 90.963C128.327 91.4249 127.129 91.8173 125.931 92.2048C125.815 92.2414 125.701 92.2986 125.577 92.3089C124.221 92.4072 122.942 92.8763 121.617 93.1412C120.861 93.2926 120.144 93.5712 119.452 93.9036C119.236 94.0093 119.025 94.1514 118.842 94.3122C117.81 95.2594 118.331 96.6926 119.307 97.0362C120.292 97.3862 121.271 97.7455 122.319 97.8691C123.694 98.0327 125.07 98.1863 126.441 98.38C128.876 98.7298 131.317 99.0395 133.735 99.489C135.766 99.8654 137.803 100.141 139.851 100.377C142.145 100.638 144.445 100.808 146.751 100.842C148.285 100.867 149.825 100.807 151.358 100.797C152.128 100.789 152.893 100.812 153.665 100.825C156.373 100.867 159.064 100.628 161.743 100.244C162.38 100.154 163.019 100.044 163.66 100.006C164.132 99.9772 164.572 99.8785 164.996 99.6965C166.377 99.1025 167.759 98.4985 169.239 98.1762C169.474 98.1237 169.698 98.0035 169.911 97.8821C172.133 96.6177 174.302 95.2806 176.284 93.6508C176.448 93.5182 176.589 93.3575 176.745 93.2087C176.519 92.8909 176.16 92.918 175.837 92.8529C174.948 92.6726 174.157 92.2752 173.463 91.7116C173.079 91.3998 172.871 90.9773 173.199 90.5035C173.532 90.0252 173.989 90.0762 174.412 90.3673C175.045 90.8013 175.7 91.1921 176.441 91.4154C177.099 91.6132 177.021 92.2907 177.318 92.7293C178.403 91.8903 179.389 90.9476 180.28 89.9117C179.519 89.4316 178.588 89.4343 177.794 89.0163C176.79 88.4909 175.712 88.1042 174.758 87.4629C174.504 87.2942 174.239 87.1294 174.034 86.8905C173.673 86.4696 173.393 85.9771 173.805 85.4831C174.245 84.962 174.733 85.2203 175.178 85.5702C176.423 86.5474 177.844 87.241 179.295 87.8211C180.144 88.1595 180.633 88.5707 180.717 89.4615C180.999 89.318 181.178 89.0601 181.379 88.8353C184.441 85.4498 187.119 81.7933 189.36 77.8031C191.756 73.5419 193.845 69.126 195.909 64.702C196.668 63.0799 197.217 61.3863 197.525 59.6223C197.736 58.4063 198.044 57.2226 198.378 56.0369C198.985 53.9076 199.71 51.8182 200.351 49.7033C200.778 48.295 201.304 46.914 201.604 45.4647C202.05 43.3207 202.336 41.1621 202.39 38.9751C202.443 36.9662 202.28 34.9815 201.765 33.0352C200.768 29.2634 198.91 25.9867 196.047 23.3095C195.394 22.7 194.669 22.1784 193.943 21.6669C192.708 22.4873 191.389 22.865 189.876 22.6284C188.338 22.3837 187.178 21.6764 186.486 20.2681C186.107 19.4938 185.679 18.7542 185.185 18.0522C185.016 17.8126 184.898 17.4827 184.503 17.5563L184.514 17.5475Z" fill="#DD6026"/>
<path d="M184.514 17.5474C185.068 18.1703 185.496 18.8742 185.896 19.6002C186.116 20.0038 186.32 20.4157 186.54 20.8193C187.136 21.9308 188.148 22.4825 189.31 22.7575C190.052 22.935 190.821 22.9684 191.594 22.8902C192.558 22.7947 193.373 22.457 193.955 21.653C194.019 21.2995 194.231 21.0659 194.499 20.8291C196.062 19.4583 197.325 17.837 198.388 16.0589C198.702 15.5274 198.954 14.9679 199.143 14.3804C199.276 13.964 199.333 13.5435 199.233 13.1088C199.003 12.083 198.105 11.6013 197.122 11.9844C196.71 12.1477 196.372 12.4116 196.074 12.7262C195.694 13.1274 195.322 13.5399 194.984 13.9768C194.325 14.8273 193.694 15.6966 193.048 16.559C192.939 16.7033 192.871 16.8833 192.672 16.9708C192.476 16.9111 192.549 16.7318 192.554 16.6052C192.576 16.0531 192.619 15.4985 192.646 14.947C192.718 13.3171 192.715 11.6879 192.48 10.0712C192.399 9.49116 192.275 8.92124 191.988 8.40244C191.721 7.92682 191.356 7.57675 190.8 7.46772C190.243 7.35868 189.767 7.50888 189.375 7.92394C189.053 8.26616 188.854 8.68454 188.713 9.12535C188.317 10.3594 188.105 11.6312 187.978 12.9185C187.941 13.3058 187.882 13.6957 187.834 14.0868C187.589 14.0974 187.565 13.8756 187.492 13.7292C186.808 12.4186 186.139 11.1049 185.449 9.79874C185.09 9.11843 184.681 8.46769 184.201 7.86411C183.932 7.52572 183.64 7.20995 183.283 6.96262C182.082 6.13319 180.869 6.60523 180.556 8.03269C180.442 8.548 180.495 9.0736 180.573 9.59224C180.688 10.3596 180.919 11.0903 181.214 11.7983C181.819 13.2519 182.642 14.5897 183.494 15.9055C183.845 16.4424 184.263 16.9364 184.515 17.5374L184.514 17.5474Z" fill="#79AD50"/>
<path d="M180.727 89.4627C180.716 89.2171 180.884 89.0137 180.841 88.7438C180.759 88.2095 180.592 87.9498 180.068 87.8601C179.724 87.8026 179.418 87.6836 179.122 87.5302C178.117 87.0098 177.107 86.4889 176.109 85.9541C175.789 85.7825 175.472 85.5809 175.24 85.2775C175.125 85.1311 174.987 85.0124 174.794 84.9733C174.357 84.8841 173.929 84.8468 173.602 85.2241C173.259 85.6146 173.255 86.062 173.459 86.5146C173.627 86.8864 173.904 87.1647 174.236 87.4039C175.31 88.1872 176.525 88.6977 177.732 89.2326C177.814 89.2681 177.915 89.2754 177.991 89.3204C178.696 89.753 179.482 89.8597 180.28 89.9067C180.485 89.8148 180.626 89.6591 180.722 89.4571L180.727 89.4627Z" fill="#AA4C24"/>
<path d="M177.323 92.73C177.341 92.5796 177.376 92.426 177.369 92.2725C177.35 91.7205 177.075 91.3051 176.546 91.179C175.776 90.9878 175.141 90.6045 174.528 90.1271C173.84 89.5898 172.9 89.9528 172.755 90.8003C172.673 91.2635 172.926 91.6508 173.281 91.9082C174.126 92.531 175.034 93.0497 176.117 93.1419C176.334 93.1583 176.543 93.1942 176.759 93.2206C176.992 93.1067 177.189 92.9527 177.327 92.7356L177.323 92.73Z" fill="#AA4C24"/>
<path d="M173.516 40.1803C173.36 41.1638 173.533 42.0807 174.001 42.9475C174.491 43.8475 175.198 44.438 176.273 44.3817C177.385 44.3247 178.198 43.7577 178.604 42.7235C179.1 41.4611 179.19 40.1895 178.658 38.8874C178.45 38.3835 178.25 37.9365 177.787 37.6455C177.3 37.3415 176.781 37.2574 176.206 37.2988C174.785 37.3941 173.865 38.1669 173.598 39.5592C173.557 39.7679 173.545 39.9854 173.521 40.1859L173.516 40.1803Z" fill="#010100"/>
<path d="M175.234 50.8199C177.82 51.0203 180.075 50.3197 181.845 48.3382C182.363 47.7605 182.697 47.0737 182.945 46.3406C183.041 46.0572 183.013 45.7891 182.912 45.5324C182.577 44.738 181.658 44.4675 180.989 45.2353C180.852 45.3916 180.761 45.5993 180.69 45.7993C180.303 46.8817 179.497 47.5614 178.502 48.0399C177.101 48.7078 175.661 48.7092 174.212 48.2005C173.982 48.1215 173.762 48.0079 173.516 47.9828C173.038 47.9343 172.556 48.1754 172.377 48.5912C172.193 49.0115 172.219 49.4269 172.524 49.8002C172.684 49.9929 172.887 50.1196 173.113 50.2237C173.787 50.5405 174.484 50.7533 175.233 50.8249L175.234 50.8199Z" fill="#030100"/>
<path d="M182.259 85.5231C182.499 85.5526 182.743 85.6028 182.99 85.5365C183.353 85.4435 183.661 85.1252 183.681 84.7611C183.702 84.3769 183.608 84.0294 183.253 83.8077C183.178 83.7578 183.085 83.726 183.002 83.6955C181.624 83.2311 180.499 82.2787 179.161 81.7328C178.967 81.6531 178.792 81.5094 178.642 81.3587C178.402 81.1155 178.103 81.0685 177.792 81.0661C176.923 81.0611 176.437 81.9532 176.889 82.706C177.13 83.1071 177.445 83.441 177.878 83.6468C179.042 84.1969 180.212 84.7425 181.37 85.302C181.658 85.4392 181.955 85.4705 182.259 85.5181L182.259 85.5231Z" fill="#AA4C24"/>
<path d="M140.816 93.2579C140.907 92.8924 140.757 92.5788 140.436 92.3308C140.362 92.2758 140.286 92.2259 140.206 92.1753C139.029 91.3947 137.847 90.6185 136.677 89.8234C136.335 89.588 135.968 89.4666 135.557 89.4569C134.837 89.4347 134.322 90.1859 134.597 90.8507C134.718 91.1506 134.926 91.3594 135.191 91.5292C136.27 92.2317 137.324 92.9769 138.485 93.552C138.816 93.7148 139.127 93.9159 139.46 94.0687C140.072 94.3474 140.713 93.9781 140.811 93.2623L140.816 93.2579Z" fill="#AA4C24"/>
<path d="M138.852 87.6168C138.184 87.5399 137.907 87.6841 137.683 88.2266C137.465 88.7547 137.615 89.2312 138.112 89.5822C138.234 89.6684 138.372 89.7464 138.511 89.8094C139.484 90.2596 140.439 90.733 141.333 91.3263C141.719 91.5823 142.104 91.5583 142.457 91.3319C143.142 90.8968 143.127 90.1925 142.491 89.6513C142.03 89.2588 141.498 88.9492 140.983 88.6214C140.544 88.3436 140.085 88.104 139.64 87.8306C139.394 87.6782 139.123 87.65 138.852 87.6118L138.852 87.6168Z" fill="#AA4C24"/>
<path d="M174.69 32.8985C174.703 33.292 174.621 33.8774 174.769 34.4504C174.905 34.9608 175.179 35.3405 175.73 35.454C176.301 35.5699 176.757 35.3815 177.068 34.8802C177.264 34.5683 177.394 34.2177 177.449 33.8479C177.544 33.2029 177.495 32.5608 177.333 31.9302C177.204 31.4104 176.874 31.0696 176.318 30.9963C175.781 30.9305 175.268 31.1729 175.005 31.6597C174.833 31.9847 174.703 32.3352 174.685 32.8979L174.69 32.8985Z" fill="#070200"/>
<path d="M182.594 34.8916C182.624 34.3965 182.71 33.9082 182.55 33.4255C182.381 32.8957 182.02 32.597 181.497 32.5481C181.064 32.5102 180.705 32.6545 180.459 33.0059C179.848 33.8726 179.604 34.825 179.889 35.8676C180.053 36.4782 180.514 36.9064 181.008 36.9466C181.578 36.9911 182.083 36.651 182.362 36.0388C182.529 35.6675 182.552 35.2733 182.6 34.8872L182.594 34.8916Z" fill="#060200"/>
<path d="M176.863 40.5707C176.864 40.4793 176.894 40.2336 176.863 39.9955C176.83 39.7625 176.652 39.6388 176.417 39.6049C176.177 39.5653 175.958 39.6554 175.887 39.8605C175.649 40.554 175.692 41.2363 176.061 41.8821C176.158 42.0467 176.385 42.0186 176.513 41.846C176.768 41.5108 176.787 41.111 176.863 40.5707V40.5707Z" fill="#D35E26"/>
</svg>
