<svg width="37" height="36" viewBox="0 0 37 36" fill="none" xmlns="http://www.w3.org/2000/svg">
<path d="M18.1107 36C28.0518 36 36.1107 27.9411 36.1107 18C36.1107 8.05887 28.0518 0 18.1107 0C8.16953 0 0.110657 8.05887 0.110657 18C0.110657 27.9411 8.16953 36 18.1107 36Z" fill="#FCD400"/>
<path d="M17.7727 22.6173C16.9684 22.6307 16.1861 22.3517 15.5723 21.8314C14.3228 20.7108 13.6835 19.0609 13.8513 17.3914C14.1067 15.2106 15.3287 13.8943 17.482 13.4621C18.7983 13.2067 20.6254 13.1792 21.8592 13.855C22.2368 14.0719 22.3668 14.554 22.1499 14.9316C21.933 15.3092 21.4509 15.4393 21.0733 15.2224C20.2875 14.7745 18.8061 14.7862 17.7688 14.9866C16.2875 15.2735 15.5763 16.0397 15.4112 17.5446C15.3126 18.6884 15.7476 19.8134 16.59 20.5937C17.5802 21.4189 19.0065 20.8845 20.7629 20.0947L21.313 19.8511C21.5731 19.7242 21.8824 19.7509 22.1169 19.9202C22.3515 20.0896 22.4741 20.3745 22.436 20.6613C22.3979 20.9481 22.205 21.191 21.9338 21.2931L21.4034 21.5289C20.3936 22.024 19.0694 22.6173 17.7727 22.6173Z" fill="#040404"/>
<path d="M18.9161 26.0235C18.4941 26.0239 18.1472 25.6907 18.1303 25.2691C18.1303 25.2495 18.0517 23.3556 17.9142 22.1846C17.8812 21.9041 18.0006 21.6271 18.2273 21.4581C18.4537 21.2892 18.7535 21.2538 19.0132 21.3658C19.2725 21.4774 19.4529 21.7194 19.4859 22C19.6313 23.2298 19.7098 25.1237 19.7138 25.2063C19.7224 25.4149 19.6478 25.618 19.5059 25.7713C19.3645 25.9245 19.168 26.0153 18.9594 26.0235H18.9161Z" fill="#040404"/>
<path d="M18.2246 14.9548C17.8042 14.9552 17.4576 14.6243 17.4388 14.2043C17.3798 12.8841 17.4388 10.8291 17.4388 10.7426C17.4459 10.4617 17.6022 10.2059 17.849 10.0719C18.0954 9.9375 18.3952 9.94498 18.6349 10.0915C18.8741 10.2377 19.0176 10.501 19.0105 10.7819C19.0105 10.8016 18.9594 12.8723 19.0105 14.1375C19.0282 14.5701 18.6926 14.9355 18.26 14.9548H18.2246Z" fill="#040404"/>
<path d="M23.2501 32.2122C22.8592 32.2122 22.5275 31.9246 22.4721 31.5375C22.4171 31.1505 22.6548 30.7815 23.0301 30.6719C25.9063 29.8232 28.2835 27.7839 29.8985 24.778C31.8631 21.0884 32.3739 16.4519 31.1676 12.9666C31.0254 12.5564 31.2427 12.1089 31.6529 11.9666C32.0631 11.8244 32.5106 12.0417 32.6529 12.4519C33.9967 16.334 33.4584 21.4656 31.2855 25.5206C29.4662 28.9155 26.7629 31.222 23.4741 32.2004C23.4002 32.2138 23.3252 32.2177 23.2501 32.2122Z" fill="#040404"/>
<path d="M18.594 33.5524C18.1598 33.5949 17.7739 33.2774 17.7315 32.8432C17.689 32.4094 18.0065 32.0232 18.4407 31.9807L18.6961 31.9297C18.9743 31.8664 19.2651 31.9591 19.4552 32.1717C19.6458 32.3843 19.7059 32.6833 19.6128 32.9528C19.5197 33.2224 19.2875 33.4204 19.0065 33.4699L18.7472 33.521C18.6977 33.5375 18.6462 33.5481 18.594 33.5524Z" fill="#040404"/>
<path d="M5.69846 10.7544C5.41123 10.754 5.14717 10.5968 5.00965 10.345C4.87212 10.0927 4.88312 9.78585 5.03833 9.5442C6.56643 7.34027 8.55425 5.4943 10.8654 4.13359C13.0521 3.01729 15.4537 2.38624 17.9067 2.2829C18.3405 2.26875 18.704 2.60942 18.7181 3.04321C18.7322 3.47739 18.3916 3.84046 17.9578 3.85461C15.7539 3.95205 13.5959 4.51708 11.6277 5.51276C9.54443 6.74537 7.74954 8.40942 6.36251 10.3929C6.21752 10.6189 5.96683 10.7552 5.69846 10.7544Z" fill="#040404"/>
</svg>
