<?xml version="1.0" encoding="UTF-8"?><svg id="Layer_1" xmlns="http://www.w3.org/2000/svg" viewBox="0 0 297.2 349.43"><defs><style>.cls-1{fill:#ffcb48;}.cls-2{fill:#427839;}</style></defs><path class="cls-1" d="M109.07,318.8c10.62-1.48,18.85-8.28,25.96-15.85,6-6.39,17.1-22.29,27.15-14.55,9.44,7.28,15.55,13.76,28.58,11.7,11.86-1.87,20.83-10.07,26.83-20.1,13.55-22.68,18.79-52.15,20.27-78.14,3.15-55.18-3.51-71-11.51-80.09-2.49-2.83-4.84-4.87-6.41-6.14-2.56-22.57-9.46-46.48-32-56.61-21.16-9.51-45.31-3.57-63.43,9.61-43.11,31.35-58.43,87.56-63.22,138.03-2.34,24.67-5.43,52.55,1.49,76.72,5.74,20.06,23.92,38.53,46.29,35.4Z"/><path class="cls-2" d="M138.05,40.08c-14.21-6.8-30.74-8.65-46.1-5.14,11.2,14.43,27.53,23.8,43.43,32.8,5.3,3,10.73,6.05,16.72,7.09,35.08,6.09-1.91-28.94-14.05-34.75Z"/></svg>