<svg width="108" height="14" viewBox="0 0 108 14" fill="none" xmlns="http://www.w3.org/2000/svg">
<path fill-rule="evenodd" clip-rule="evenodd" d="M0.00965946 11.1392C-0.304774 7.55452 7.12786 0.670315 12.0023 6.44215C13.5236 8.50463 13.8103 11.0121 16.733 12.6454C17.8846 13.2531 19.4373 12.9016 20.01 11.8532C22.0357 8.65879 22.1662 4.94112 26.1666 2.24831C28.7131 0.621992 33.0651 1.12029 34.3294 3.18141C36.075 5.65391 36.677 8.51127 39.1265 10.7698C40.6908 9.33505 40.9583 7.44977 42.0567 5.8577C43.2238 2.57293 50.2726 -2.30548 54.8894 2.54342C56.9581 5.09126 57.4195 8.10032 59.7612 10.5521C62.1829 8.64705 65.1597 1.33706 69.0929 1.05848C74.1322 0.40679 75.0802 3.58675 76.2181 5.59803C76.8907 6.25157 78.4271 10.7384 79.5285 10.3402C82.5847 7.09406 88.3421 -2.41126 96.48 2.88065C98.7065 4.9863 99.7088 7.56409 101.394 9.84819C105.348 9.31412 105.661 6.50042 106.644 4.65499C106.743 4.40521 106.404 3.71792 107.693 4.02183C107.84 4.05646 108.013 4.20034 107.999 4.28427C107.518 6.57989 106.957 10.257 102.319 10.9981C100.86 10.9206 99.1786 10.5611 98.6665 9.63413C97.0106 7.20935 97.2272 4.02015 93.3997 2.27522C89.1239 1.78301 86.4985 4.96064 84.9724 6.78705C83.1816 8.49273 82.2787 13.0719 77.3994 10.8267C72.9414 8.74408 75.5003 4.78729 72.0617 2.26456C68.237 -0.0810674 65.923 6.77166 64.3766 8.03461C63.5826 9.09457 62.8432 10.1721 61.9095 11.193C61.217 11.9501 58.2011 11.8511 57.3895 10.9579C54.8719 8.22964 54.4693 5.03761 52.6184 2.19178C51.3649 0.412063 49.3308 0.977217 47.5017 2.03577C43.4718 4.3795 43.8671 7.83702 41.5966 10.6623C40.5051 11.809 36.8896 11.7522 36.2672 10.3545C34.7497 8.68804 33.3164 -0.475268 27.9308 2.41117C22.2127 4.7587 24.7642 15.6405 15.503 13.1252C11.5901 11.6439 12.125 8.2535 10.2565 6.02322C6.17301 1.45458 -0.144791 9.15741 1.10498 11.622C1.12906 12.1606 2.0079 12.6541 1.71424 13.2068C1.47805 13.1632 1.07693 13.1497 1.0313 13.0713C0.617073 12.3591 0.264876 11.6355 0.00965946 11.1392Z" fill="#FDFFFE"/>
</svg>
