<?xml version="1.0" encoding="UTF-8"?>
<svg id="Layer_2" data-name="Layer 2" xmlns="http://www.w3.org/2000/svg" viewBox="0 0 213.59 353.82">
  <defs>
    <style>
      .cls-1 {
        fill: #66b653;
      }

      .cls-2 {
        fill: #f7901e;
      }
    </style>
  </defs>
  <g id="Layer_1-2" data-name="Layer 1">
    <g>
      <path class="cls-2" d="M4.44,179.82c6.35-28.55,17.08-57.24,30.38-83.3,11.26-22.08,27.36-43.87,50.96-53.66,21.42-8.88,47.34-6.56,64.87,9.5,22.68,20.77,16.24,57.96,13.59,85.35-1.84,18.99-5.02,37.77-9.01,56.43-3.46,16.19-7.54,32.54-7.48,49.21,.14,37.03,29.17,56.18,59.05,71.27,.87,.44,3.44,2.09,5.15,5.21,4.49,8.21-1.57,19.27-2.47,20.85,0,0-2.63,5.66-7.4,8.73-12.21,7.85-35.45,3.03-49.15,2.16-31.36-2-62.54-7.42-90.56-22.26C6.11,299.5-8.62,238.58,4.44,179.82Z"/>
      <path class="cls-1" d="M170.71,35.12c-.01-1.9-.55-3.12-1.28-3.92-6.11-6.74-32.46,8.59-36.34,10.88,.97-14.03,1.94-28.06,2.9-42.09-1.63,.29-3.02,.79-4.22,1.42-13.27,6.93-10.74,33.02-10.52,35.08-3.37-7.02-12.45-23.21-30.53-29.92-3.07-1.14-6.06-1.88-8.9-2.34,7.94,12.8,15.89,25.61,23.83,38.41,1.34,2.15,2.69,4.33,4.53,6.08,18.12,17.28,44.48-2.9,60.54-13.61Z"/>
    </g>
  </g>
</svg>