<?xml version="1.0" encoding="UTF-8"?>
<svg id="Layer_2" data-name="Layer 2" xmlns="http://www.w3.org/2000/svg" viewBox="0 0 208.12 212.7">
  <defs>
    <style>
      .cls-1 {
        fill: #326e36;
      }

      .cls-2 {
        fill: #cc2127;
      }
    </style>
  </defs>
  <g id="Layer_1-2" data-name="Layer 1">
    <g>
      <path class="cls-2" d="M73.28,.94C24.35,5.34,10.07,54.55,4.01,95.85c-3.56,24.26-6.82,51.9-.15,75.91,5.41,19.45,20.77,39.66,42.58,40.89,11.3,.64,20.09-5.91,26.15-14.85,7.05-10.4,12.2-20.46,22.68-28.05,15.4-11.16,31.38,5.76,72.7,2.12,5.13-.45,9.31-1.08,11.97-1.52,18.34-6.25,27.37-24.79,28.1-43.66,.95-24.42-8.92-47.55-20.59-68.48-10.51-18.85-23.38-37.41-42.88-47.8C123.99-.56,96.15-1.11,73.28,.94Z"/>
      <path class="cls-1" d="M66.97,32.01c.99-1.38,2.19-2.73,3.66-3.96,8.49-7.15,19.97-5.52,23.14-4.96-4.66-1.96-9.58-4.29-14.65-7.04-2.21-1.2-4.33-2.41-6.36-3.64,3.54-1.42,6.33-1.5,8.13-1.35,8.66,.71,13.05,8.24,19.38,6.37,1.27-.38,2.02-.96,2.71-1.42,4.2-2.84,12.24-5.58,29.03-5.52-1.51,1.42-3.56,3.04-6.23,4.4-6.45,3.3-12.63,3.14-15.66,2.85,4.86,6.74,9.14,13.89,12.77,21.36-1.76-.83-3.61-1.81-5.5-2.99-6.37-3.95-10.92-8.62-14.07-12.56-2.79,15.92-4.61,19.5-5.79,19.44-1.17-.06-2.56-3.75-2.32-7.11,.28-4.04,2.81-6.34,1.9-7.52-.92-1.18-4.27,.2-4.95,.28-8.41,1.05-16.8,2.24-25.19,3.36Z"/>
    </g>
  </g>
</svg>