<svg width="68" height="58" viewBox="0 0 68 58" fill="none" xmlns="http://www.w3.org/2000/svg">
<path fill-rule="evenodd" clip-rule="evenodd" d="M32.5884 20.2547C32.5884 20.2547 34.1588 19.2287 33.8795 14.9915C33.8795 14.9915 36.3632 16.1538 39.0728 14.1885L39.6978 20.2058C39.6978 20.2058 37.8192 22.3397 35.8493 22.1327C33.8795 21.9258 32.5884 20.2547 32.5884 20.2547Z" fill="#FBEFE3"/>
<path fill-rule="evenodd" clip-rule="evenodd" d="M33.9394 14.863C35.5452 15.6144 37.2221 15.3552 38.9889 14.0737C39.0775 14.0094 39.2025 14.0652 39.2138 14.1741L39.8388 20.1914C39.8429 20.2308 39.8303 20.2702 39.8041 20.3C38.5238 21.7543 37.1987 22.4178 35.8341 22.2744C34.4816 22.1323 33.3596 21.4861 32.4755 20.3419C32.4248 20.2763 32.4408 20.1813 32.5102 20.136C33.5011 19.4886 33.9204 17.7792 33.7373 15.0011C33.7302 14.8931 33.8414 14.8171 33.9394 14.863ZM39.5492 20.1582L38.9557 14.4445L38.8385 14.524C37.2092 15.602 35.6285 15.8453 34.1093 15.2458L34.0349 15.2155L34.0386 15.2807C34.1709 17.8317 33.7773 19.4902 32.8345 20.2513L32.7925 20.2839L32.8601 20.3657C33.6433 21.2938 34.6032 21.8296 35.745 21.9776L35.8638 21.9916C37.1256 22.1241 38.3662 21.503 39.5907 20.1121L39.5492 20.1582Z" fill="black"/>
<path fill-rule="evenodd" clip-rule="evenodd" d="M35.8542 15.383C32.984 15.383 30.6572 12.9158 30.6572 9.87183C30.6572 6.82788 32.984 4.36035 35.8542 4.36035C38.7244 4.36035 41.0512 6.82788 41.0512 9.87183C41.0512 12.9158 38.7244 15.383 35.8542 15.383Z" fill="#FBEFE3"/>
<path fill-rule="evenodd" clip-rule="evenodd" d="M35.8543 4.50263C33.0671 4.50263 30.7995 6.91129 30.7995 9.87193C30.7995 12.8326 33.0671 15.2409 35.8543 15.2409C38.6415 15.2409 40.9091 12.8326 40.9091 9.87193C40.9091 6.91129 38.6415 4.50263 35.8543 4.50263ZM35.8543 15.5253C32.9102 15.5253 30.5151 12.9893 30.5151 9.87193C30.5151 6.75432 32.9102 4.21826 35.8543 4.21826C38.7984 4.21826 41.1935 6.75432 41.1935 9.87193C41.1935 12.9893 38.7984 15.5253 35.8543 15.5253Z" fill="black"/>
<path fill-rule="evenodd" clip-rule="evenodd" d="M35.7018 11.8238C35.6228 11.8107 35.5477 11.8653 35.5352 11.9446C35.4684 12.3595 35.0392 12.3436 34.9903 12.3393C34.9098 12.3291 34.841 12.3936 34.8348 12.4736C34.8288 12.5537 34.8888 12.6237 34.9687 12.6302C34.9869 12.6314 35.0063 12.6322 35.0264 12.6322C35.2949 12.6322 35.7405 12.5026 35.8224 11.9907C35.8352 11.9116 35.7815 11.8366 35.7018 11.8238ZM32.9317 7.79017C32.9061 7.79017 32.3129 7.78135 31.7857 8.23436C31.7246 8.28669 31.7177 8.37854 31.7698 8.43968C31.7988 8.47324 31.8394 8.4903 31.8804 8.4903C31.914 8.4903 31.9478 8.47864 31.9754 8.45504C32.4159 8.07682 32.9212 8.08222 32.9252 8.08137C33.0037 8.07597 33.0716 8.01909 33.0734 7.93918C33.0751 7.8587 33.0119 7.79216 32.9317 7.79017ZM36.3815 8.23436C35.8543 7.78135 35.2602 7.78932 35.2355 7.79017C35.1553 7.79216 35.0916 7.85927 35.0933 7.93947C35.0955 8.02023 35.1615 8.07483 35.2426 8.08137C35.2454 8.08023 35.7476 8.07341 36.1918 8.45504C36.2191 8.47864 36.253 8.4903 36.2865 8.4903C36.3275 8.4903 36.3681 8.47324 36.3971 8.43968C36.4492 8.37854 36.4424 8.28669 36.3815 8.23436ZM32.6283 9.14863C32.4625 9.14863 32.3283 9.36191 32.3283 9.62553C32.3283 9.88858 32.4625 10.1021 32.6283 10.1021C32.7938 10.1021 32.928 9.88858 32.928 9.62553C32.928 9.36191 32.7938 9.14863 32.6283 9.14863ZM35.5389 9.14863C35.3731 9.14863 35.2392 9.36191 35.2392 9.62553C35.2392 9.88858 35.3731 10.1021 35.5389 10.1021C35.7044 10.1021 35.8386 9.88858 35.8386 9.62553C35.8386 9.36191 35.7044 9.14863 35.5389 9.14863ZM34.3604 11.2024L33.6341 11.1142L33.8619 10.248C33.8824 10.1704 33.836 10.0908 33.7584 10.0703C33.6811 10.0487 33.6009 10.0962 33.5804 10.1741L33.31 11.2015C33.2991 11.2422 33.3068 11.2854 33.3304 11.3204C33.354 11.3554 33.3913 11.3781 33.4331 11.383L34.3257 11.4913C34.3314 11.4922 34.3374 11.4925 34.3431 11.4925C34.4159 11.4925 34.4785 11.4384 34.4876 11.3648C34.4972 11.2846 34.4403 11.2123 34.3604 11.2024Z" fill="black"/>
<path fill-rule="evenodd" clip-rule="evenodd" d="M42.3408 11.842C41.6879 13.053 40.6633 13.9104 39.319 13.9104L39.2067 11.4075C39.2397 11.4103 39.2715 11.4174 39.3054 11.4174C39.8667 11.4174 40.3217 10.9644 40.326 10.4042C40.3277 10.1892 40.2285 9.98164 40.0891 9.81812C39.7126 9.37591 39.3984 9.34179 39.116 9.39525L38.841 6.98801C38.781 6.46362 38.3376 6.06748 37.8098 6.06748H32.6847C31.5258 6.06748 30.6266 5.05994 30.7555 3.90879C31.0242 1.50183 32.3136 -1.63796 37.6935 1.7245C40.3951 3.41255 42.0897 5.17966 42.6806 6.97578C43.2093 8.58194 43.1433 10.3539 42.3408 11.842Z" fill="#EE7A08"/>
<path fill-rule="evenodd" clip-rule="evenodd" d="M39.3593 11.5619L39.4582 13.7616C40.5736 13.7078 41.5473 13.0068 42.2124 11.7729C42.9595 10.3875 43.0798 8.6556 42.5423 7.0213C41.9664 5.27182 40.3091 3.53115 37.6166 1.84793C35.4488 0.493166 33.7687 0.0873604 32.6245 0.641893C31.4381 1.21576 31.032 2.744 30.9001 3.9253C30.8432 4.43348 31.0058 4.94336 31.3462 5.32386C31.6866 5.70407 32.1741 5.92218 32.6842 5.92218H37.81C38.412 5.92218 38.9173 6.3732 38.9856 6.97125L39.2438 9.23203C39.5077 9.21469 39.8325 9.29232 40.1999 9.72372C40.3768 9.93132 40.4732 10.1733 40.4715 10.4057C40.4669 11.0256 39.9729 11.5335 39.3593 11.5619ZM39.3189 14.0562C39.2413 14.0562 39.177 13.995 39.1739 13.9171L39.0612 11.4138C39.0593 11.372 39.0757 11.331 39.1059 11.302C39.1369 11.2727 39.1795 11.2599 39.2202 11.2622L39.2603 11.2673C39.2754 11.2693 39.2902 11.2716 39.3055 11.2716C39.7844 11.2716 40.1768 10.8823 40.1803 10.4031C40.182 10.241 40.11 10.0667 39.9784 9.91226C39.6351 9.50958 39.3741 9.4948 39.1429 9.53831C39.1042 9.54599 39.0621 9.5366 39.0294 9.51243C38.997 9.48854 38.9756 9.45186 38.9711 9.41148L38.6961 7.00452C38.6449 6.5535 38.2639 6.2131 37.81 6.2131H32.6842C32.0913 6.2131 31.5245 5.96001 31.1295 5.51809C30.7337 5.0756 30.5446 4.48324 30.6106 3.89259C30.811 2.09448 31.464 0.879917 32.498 0.3797C33.7392 -0.221187 35.5131 0.19002 37.7707 1.60109C40.5229 3.321 42.2209 5.11427 42.819 6.93058C43.3815 8.64053 43.2538 10.4557 42.4689 11.9114C41.7233 13.2946 40.6045 14.0562 39.3189 14.0562Z" fill="black"/>
<path fill-rule="evenodd" clip-rule="evenodd" d="M51.8926 34.8749L54.2009 40.5561L67.3226 36.7756L63.1403 30.6755C58.3565 23.6989 50.4412 19.5288 41.9819 19.5288H39.9289C39.3792 20.6865 38.0185 21.5081 36.4215 21.5135C34.8244 21.5081 33.4637 20.6865 32.9142 19.5288H30.8613C22.402 19.5288 13.5943 23.5715 8.81055 30.5481L4.94531 36.5891L18.6653 41.0362L20.9503 34.8749L20.1205 41.0777L18.3312 51.5575H54.5117L52.7224 41.0774L51.8926 34.8749Z" fill="#EFF2F7"/>
<path fill-rule="evenodd" clip-rule="evenodd" d="M18.5036 51.4117H54.339L52.5787 41.1016L51.748 34.894C51.7386 34.8212 51.7841 34.753 51.8549 34.7342C51.9266 34.7146 51.9997 34.7521 52.0273 34.8198L54.2864 40.3799L67.0884 36.6913L63.0198 30.758C58.2614 23.8179 50.3967 19.6742 41.9817 19.6742H40.0192C39.4024 20.8777 38.0021 21.6535 36.4216 21.6592C34.8402 21.6535 33.4396 20.8777 32.8234 19.6742H30.8609C22.1021 19.6742 13.4938 23.9751 8.9304 30.6306L5.16896 36.5087L18.577 40.8548L20.8136 34.8243C20.8392 34.7547 20.9137 34.7163 20.9851 34.7336C21.0573 34.7513 21.1042 34.8204 21.0943 34.894L20.2645 41.0971L18.5036 51.4117ZM54.5116 51.7029H18.331C18.2881 51.7029 18.2474 51.6838 18.2195 51.6511C18.1919 51.6187 18.1803 51.5752 18.1877 51.5328L19.9767 41.0533L20.6327 36.1492L18.8014 41.0866C18.7744 41.1599 18.6942 41.1981 18.6202 41.1747L4.89994 36.7274C4.857 36.7134 4.82316 36.6805 4.8078 36.6384C4.79273 36.5954 4.79785 36.5485 4.8223 36.5107L8.68782 30.4697C13.3067 23.7334 22.0088 19.3833 30.8609 19.3833H32.9138C32.9701 19.3833 33.0213 19.4157 33.0455 19.4663C33.5912 20.6164 34.9164 21.3628 36.4216 21.368C37.9256 21.3628 39.2511 20.6164 39.7971 19.4663C39.8213 19.4157 39.8725 19.3833 39.9288 19.3833H41.9817C50.4928 19.3833 58.4471 23.5739 63.2601 30.5931L67.4424 36.693C67.4689 36.7316 67.4751 36.7808 67.4595 36.8246C67.4436 36.8687 67.4077 36.9026 67.3628 36.9154L54.2411 40.6961C54.1692 40.7175 54.0938 40.6799 54.066 40.6111L52.1885 35.9903L52.8665 41.0579L54.6549 51.5328C54.662 51.5752 54.6503 51.6187 54.6228 51.6511C54.5952 51.6838 54.5542 51.7029 54.5116 51.7029Z" fill="black"/>
<path fill-rule="evenodd" clip-rule="evenodd" d="M30.545 41.0692L22.9977 39.171C22.3903 39.018 22.0214 38.4015 22.1741 37.7938L26.2763 21.486C26.429 20.8783 27.0455 20.5097 27.6532 20.6624L35.2005 22.5609C35.808 22.7136 36.1768 23.3302 36.0238 23.9379L31.922 40.2457C31.7693 40.8534 31.1527 41.2222 30.545 41.0692Z" fill="#FF5613"/>
<path fill-rule="evenodd" clip-rule="evenodd" d="M27.3743 20.7731C27.1977 20.7731 27.024 20.8206 26.8687 20.9136C26.6418 21.0496 26.4814 21.2651 26.4171 21.5213L22.3153 37.8294C22.1825 38.3584 22.5044 38.8964 23.0331 39.0295L30.5804 40.9277C30.8363 40.9923 31.1025 40.9533 31.3291 40.8177C31.5561 40.682 31.7162 40.4662 31.7807 40.2102L35.8826 23.9021C36.0154 23.3732 35.6935 22.8349 35.1645 22.7018L27.6175 20.8036C27.537 20.7831 27.4554 20.7731 27.3743 20.7731ZM30.8238 41.2496C30.7192 41.2496 30.6137 41.2365 30.5093 41.2104L22.9622 39.3122C22.2777 39.1398 21.8609 38.4428 22.0329 37.7583L26.1347 21.4502C26.2183 21.1187 26.4259 20.8394 26.7191 20.6637C27.0126 20.4885 27.3567 20.4379 27.6886 20.5209L35.2356 22.4191C35.9201 22.5917 36.337 23.2887 36.165 23.9729L32.0631 40.2813C31.9795 40.6129 31.7719 40.8919 31.4787 41.0676C31.2774 41.1879 31.0524 41.2493 30.8238 41.2496Z" fill="black"/>
<path fill-rule="evenodd" clip-rule="evenodd" d="M27.1897 22.5889C27.1021 22.9376 27.3137 23.291 27.662 23.3786C28.0107 23.4665 28.3642 23.2549 28.4518 22.9063C28.5396 22.5579 28.3281 22.2042 27.9794 22.1166C27.631 22.0287 27.2773 22.2403 27.1897 22.5889Z" fill="#EEF2F8"/>
<path fill-rule="evenodd" clip-rule="evenodd" d="M27.3311 22.6242C27.2981 22.755 27.3183 22.891 27.3874 23.007C27.4568 23.1227 27.5668 23.2046 27.6977 23.2373C27.8288 23.2706 27.9644 23.2504 28.0801 23.1813C28.1962 23.1119 28.2781 23.0019 28.3108 22.8708C28.3438 22.74 28.3239 22.6043 28.2545 22.4883C28.1851 22.3723 28.075 22.2907 27.9442 22.258C27.6738 22.1877 27.3988 22.3546 27.3311 22.6242ZM27.8228 23.5445C27.7574 23.5445 27.6917 23.5362 27.6268 23.5194C27.4204 23.468 27.2469 23.3389 27.1374 23.1563C27.0285 22.9737 26.997 22.7599 27.0487 22.5534C27.1559 22.1274 27.5893 21.8698 28.0153 21.9753C28.2215 22.027 28.3952 22.1561 28.5041 22.339C28.6136 22.5216 28.6452 22.7357 28.5932 22.9419C28.5414 23.1481 28.4123 23.3221 28.2297 23.4313C28.1046 23.5061 27.9647 23.5445 27.8228 23.5445Z" fill="black"/>
<path fill-rule="evenodd" clip-rule="evenodd" d="M11.0632 34.6309C10.359 37.5167 10.3005 38.3249 10.3005 38.3249L5.86222 36.8866C5.86222 36.8866 -4.56365 51.454 4.09454 56.8742C12.7524 62.2941 19.4395 40.6139 19.4395 40.6139C19.4395 40.6139 20.7635 39.4741 22.0142 37.8876C22.0204 37.8446 22.0222 37.8017 22.033 37.7587L23.932 30.2083C23.7594 29.8545 23.5925 29.7035 23.5925 29.7035C23.5925 29.7035 23.7557 29.8065 24.0014 29.9333L24.9208 26.2779C24.0452 25.7214 22.751 25.2152 20.8474 24.8467C14.3011 23.5798 11.767 31.745 11.0632 34.6309ZM66.3489 37.056L54.6662 40.4222L55.4087 42.1626C55.4087 42.1626 47.5955 36.8834 45.2022 34.8419C42.8089 32.8006 41.1197 27.3807 39.9933 25.6912C38.8671 24.0021 36.4738 24.1428 35.8405 24.8643C35.207 25.586 35.6995 26.1138 35.6995 26.1138C35.6995 26.1138 31.8283 23.7908 30.4203 25.48C29.0127 27.1694 31.4762 28.8589 31.4762 28.8589C31.4762 28.8589 27.464 27.0992 26.825 28.9997C26.1863 30.9002 28.5904 31.956 28.5904 31.956C28.2031 31.8594 27.8109 32.034 27.4995 32.2518C27.0221 32.5859 26.6927 33.1166 26.6663 33.699C26.587 35.457 28.9328 35.9612 29.6929 36.0781C28.1323 35.9291 27.7455 37.6219 27.7455 37.6219C27.4992 40.0511 30.2796 39.91 30.2796 39.91C36.1573 39.3822 39.7823 42.3739 39.7823 42.3739C39.7823 42.3739 48.7219 57.5075 59.9138 56.0998C71.106 54.6922 66.3489 37.056 66.3489 37.056Z" fill="#FBEFE3"/>
<path fill-rule="evenodd" clip-rule="evenodd" d="M29.0991 35.9585C29.0991 35.9585 32.2557 36.4289 33.9102 36.9805L29.0991 35.9585Z" fill="#E5AB78"/>
<path fill-rule="evenodd" clip-rule="evenodd" d="M31.4761 28.8589C31.4761 28.8589 34.4916 29.6964 36.4214 31.1893L31.4761 28.8589Z" fill="#E5AB78"/>
<path fill-rule="evenodd" clip-rule="evenodd" d="M35.6997 26.1138C35.6997 26.1138 37.2194 26.8233 38.6441 28.1564L35.6997 26.1138Z" fill="#E5AB78"/>
<path fill-rule="evenodd" clip-rule="evenodd" d="M65.3227 52.7576C64.0993 54.5804 62.273 55.6562 59.8954 55.9554C48.933 57.3374 39.9962 42.4503 39.9074 42.2999C39.8989 42.2851 39.8878 42.2723 39.8747 42.2615C39.8409 42.2334 36.7108 39.7024 31.6512 39.7024C31.2064 39.7024 30.746 39.722 30.2722 39.765C30.2594 39.765 28.9843 39.819 28.3041 39.1021C27.9668 38.7469 27.8274 38.2541 27.8872 37.6546C27.9025 37.5881 28.2532 36.1383 29.6082 36.2131C29.7783 36.2404 29.8903 36.2515 29.9139 36.2538C29.9324 36.2547 29.95 36.2518 29.9668 36.247C31.0238 36.4276 32.7796 36.7571 33.8639 37.1189C33.8792 37.1237 33.8949 37.126 33.91 37.126C33.9708 37.126 34.0277 37.0873 34.0479 37.0267C34.0735 36.9505 34.0322 36.868 33.956 36.8425C32.3837 36.3183 29.4393 35.8631 29.1458 35.8184C28.1994 35.5867 26.7522 35.0179 26.8117 33.7055C26.835 33.1914 27.1233 32.6923 27.5832 32.3709C27.944 32.1187 28.2708 32.026 28.5549 32.0974C28.56 32.0985 28.5648 32.0974 28.5699 32.0982C28.5742 32.0988 28.5782 32.1011 28.5825 32.1011C28.6115 32.103 31.5212 32.274 35.0372 34.1221C35.0588 34.1335 35.0819 34.1386 35.1046 34.1386C35.1569 34.1386 35.2078 34.1107 35.2337 34.061C35.2713 33.9899 35.244 33.9014 35.1726 33.8642C31.7842 32.0831 28.9365 31.8349 28.6271 31.8127C28.4022 31.7069 26.4036 30.7105 26.9629 29.0457C27.0619 28.752 27.2519 28.5461 27.5436 28.417C28.8034 27.8593 31.3915 28.9806 31.4174 28.9923C31.4211 28.9937 31.4248 28.9934 31.4285 28.9945C31.4316 28.9957 31.4339 28.9979 31.437 28.9991C31.4669 29.0073 34.448 29.8471 36.3323 31.3048C36.3587 31.325 36.39 31.3349 36.4213 31.3349C36.4645 31.3349 36.5077 31.3159 36.5365 31.2786C36.5856 31.2149 36.574 31.1237 36.5106 31.0742C34.6351 29.6233 31.8138 28.8032 31.5403 28.7258C31.3861 28.6149 30.2827 27.7876 30.1454 26.7898C30.0862 26.3615 30.2165 25.952 30.5321 25.5735C31.844 23.9995 35.5872 26.2156 35.6245 26.2384C35.627 26.2398 35.6296 26.2401 35.6319 26.2412C35.6341 26.2423 35.6355 26.2446 35.6378 26.2455C35.6529 26.2526 37.1544 26.9621 38.5441 28.2626C38.5723 28.2887 38.6081 28.3018 38.6437 28.3018C38.6826 28.3018 38.7213 28.2864 38.75 28.2557C38.8049 28.1969 38.8021 28.105 38.7432 28.0498C37.4086 26.8014 36.0143 26.1033 35.7905 25.9958C35.7214 25.9088 35.4638 25.5138 35.9498 24.9604C36.2282 24.6433 36.8877 24.4602 37.5906 24.5077C38.5473 24.5714 39.3788 25.0318 39.8722 25.7717C40.2407 26.3245 40.6755 27.2954 41.1792 28.4192C42.2072 30.7139 43.4869 33.5704 45.1075 34.9528C47.1184 36.6681 53.0066 40.7037 54.8011 41.9257C54.8349 41.9493 54.8761 41.9777 54.9285 42.0124C55.1724 42.1785 55.3169 42.2763 55.3274 42.2831C55.3536 42.3011 55.384 42.309 55.4142 42.3079C56.0992 42.6912 57.2091 43.1826 58.3998 43.1826C58.5087 43.1826 58.6185 43.1786 58.7286 43.1698C58.8085 43.1636 58.8685 43.0936 58.8622 43.0134C58.8557 42.9335 58.7877 42.8763 58.7055 42.88C57.4477 42.9762 56.2164 42.4208 55.506 42.0192L54.8645 40.5163L66.2446 37.2377C66.5586 38.5001 68.6914 47.7389 65.3227 52.7576ZM66.4201 36.9295C66.3862 36.9101 66.3461 36.9064 66.3083 36.9164L54.6259 40.2823C54.5858 40.2939 54.5525 40.3221 54.5346 40.3593C54.5167 40.3974 54.5158 40.4407 54.5323 40.4791L55.0792 41.761C54.9603 41.6834 54.8929 41.6333 54.8895 41.6308C54.8849 41.6274 54.8798 41.6265 54.8753 41.6239C52.9853 40.3363 47.2648 36.4102 45.2966 34.731C43.7258 33.3913 42.4609 30.5686 41.4448 28.3001C40.9357 27.1643 40.4964 26.1838 40.1145 25.6105C39.5705 24.7943 38.6576 24.2867 37.61 24.2173C36.8092 24.1627 36.0712 24.3803 35.7308 24.7681C35.3833 25.1643 35.3407 25.5166 35.389 25.7737C34.3516 25.2248 31.524 23.9292 30.3083 25.3869C29.9378 25.8314 29.7859 26.3171 29.857 26.8307C29.9463 27.4765 30.3715 28.0402 30.752 28.4283C29.8431 28.1212 28.3533 27.7407 27.4262 28.1505C27.0602 28.3123 26.8117 28.5825 26.6871 28.9533C26.2025 30.3948 27.3577 31.3802 28.0527 31.8232C27.8482 31.8755 27.6358 31.9788 27.4162 32.1323C26.8827 32.5052 26.548 33.0884 26.5207 33.6924C26.4568 35.1106 27.8138 35.7581 28.8319 36.0434C27.8792 36.4295 27.6062 37.5787 27.6005 37.6074C27.5288 38.3135 27.6949 38.8843 28.0936 39.3037C28.8671 40.1173 30.2287 40.0585 30.2924 40.055C35.8238 39.5557 39.3822 42.2445 39.6706 42.4711C40.0616 43.1183 48.1888 56.3367 58.4541 56.3367C58.9416 56.3367 59.4352 56.3066 59.9318 56.2443C62.397 55.934 64.2921 54.8156 65.5647 52.9194C69.2411 47.4417 66.5171 37.122 66.4892 37.0182C66.479 36.9807 66.4542 36.9485 66.4201 36.9295Z" fill="black"/>
<path fill-rule="evenodd" clip-rule="evenodd" d="M24.0575 30.1257C24.0703 30.1317 24.0848 30.1385 24.0978 30.1445L24.1703 29.8561C23.882 29.7131 23.6789 29.5862 23.671 29.5808C23.6707 29.5808 23.6707 29.5806 23.6704 29.5803L21.9957 28.511C21.9653 28.492 21.9306 28.4868 21.8976 28.4917C20.2653 27.1847 17.7255 26.9916 17.6891 26.9893C17.6067 26.9822 17.5398 27.0445 17.5342 27.1247C17.5288 27.2049 17.5893 27.2746 17.6698 27.28C17.719 27.2834 22.6228 27.6542 22.937 30.8699C23.1568 33.1193 22.9393 34.5711 22.3242 34.9575C22.0128 35.154 21.5751 35.0841 21.0254 34.7499C21.0169 34.7445 21.007 34.7431 20.9979 34.7403C21.1059 33.7583 20.8315 32.4735 20.1732 30.8907C19.2222 28.6046 15.8814 29.2282 15.8478 29.2345C15.769 29.2504 15.7176 29.3263 15.7329 29.4057C15.7483 29.4842 15.8245 29.5345 15.9035 29.5206C15.9348 29.5146 19.0448 28.9364 19.9073 31.0093C21.1483 33.9926 20.9808 35.8408 19.4216 36.4977C19.1383 36.5873 18.3341 36.7392 18.0184 36.374C18.0093 36.3638 17.998 36.3569 17.9869 36.3498C18.3529 35.3056 18.4004 33.909 18.2633 32.9533C17.9573 30.8182 14.6597 31.034 14.5189 31.044C14.4387 31.0496 14.3784 31.1193 14.3841 31.1995C14.3901 31.2797 14.462 31.3408 14.54 31.3343C14.5721 31.3315 17.7076 31.127 17.9752 32.9948C18.1751 34.3899 17.9377 36.738 16.9853 37.3341C16.602 37.5738 16.1228 37.5027 15.5614 37.1228C13.9769 36.0504 15.4596 33.3562 15.4747 33.3289C15.5139 33.259 15.4889 33.1702 15.419 33.1307C15.3484 33.0915 15.26 33.1165 15.2208 33.1867C15.1963 33.2302 14.9762 33.6306 14.7908 34.1809C14.7757 34.1616 14.7575 34.1448 14.7331 34.1351C14.4609 34.0242 14.4382 33.3983 14.4518 33.1881C14.4569 33.1077 14.3961 33.0386 14.3159 33.0335C14.2357 33.0335 14.1666 33.0889 14.1612 33.1688C14.1543 33.2735 14.1091 34.1954 14.6233 34.4044C14.6412 34.4118 14.66 34.4152 14.6785 34.4152C14.6935 34.4152 14.7063 34.4073 14.7205 34.4027C14.4396 35.3579 14.3315 36.6422 15.3982 37.3639C15.7946 37.6324 16.1626 37.7666 16.4993 37.7666C16.7277 37.7666 16.9415 37.7046 17.1397 37.5809C17.4517 37.3855 17.6911 37.0494 17.8728 36.6385C18.0964 36.8375 18.4092 36.8975 18.7032 36.8975C19.1147 36.8975 19.4878 36.7818 19.5219 36.7707C20.3048 36.4411 20.7789 35.8613 20.9484 35.0394C21.3121 35.249 21.6414 35.3579 21.9306 35.3579C22.1325 35.3579 22.3157 35.307 22.4792 35.2038C22.6873 35.0733 22.8551 34.8591 22.9854 34.5674L23.2572 33.487C23.3411 32.794 23.3312 31.9113 23.2268 30.8418C23.1662 30.2241 22.9509 29.7057 22.6407 29.2683L23.5015 29.8183C23.5339 29.8499 23.7793 30.1095 23.9613 30.6876L24.0867 30.1886C24.0771 30.1672 24.0674 30.1453 24.0575 30.1257Z" fill="black"/>
<path fill-rule="evenodd" clip-rule="evenodd" d="M22.174 37.7942L22.3108 37.2502C20.9813 39.083 19.3695 40.4821 19.3445 40.5034C19.3237 40.5216 19.3081 40.545 19.3004 40.5711C19.256 40.715 14.793 54.9748 8.5871 57.283C7.10322 57.835 5.61736 57.6556 4.17131 56.7507C2.43667 55.6647 1.35974 54.1159 0.970431 52.1472C-0.214278 46.1548 5.27554 37.9896 5.91965 37.0582L10.0835 38.4076C8.75971 44.2566 7.04322 45.8378 7.02502 45.8545C6.96473 45.9074 6.95904 45.9996 7.01194 46.0596C7.04066 46.0926 7.08076 46.1091 7.12114 46.1091C7.15526 46.1091 7.18939 46.0971 7.21669 46.0729C7.29518 46.0047 9.02816 44.4267 10.3733 38.4491C10.3758 38.4474 10.3789 38.4474 10.3818 38.4457C10.4188 38.4207 10.4424 38.3803 10.4455 38.3356C10.4461 38.3308 10.4714 38.0316 10.6343 37.2033C10.6448 37.1512 10.6551 37.1012 10.665 37.0486C10.7782 36.4886 10.9483 35.7148 11.2042 34.6652C12.0121 31.3531 14.5678 23.781 20.8195 24.9899C22.6458 25.3431 24.0597 25.8587 25.0121 26.5107L25.0886 26.207C24.1098 25.5615 22.7038 25.0579 20.875 24.7038C18.0042 24.1484 15.5714 25.2905 13.6439 28.0987C12.1082 30.337 11.279 33.1307 10.9215 34.5967C10.6073 35.8846 10.4219 36.7571 10.3118 37.3327C10.2578 37.6031 10.2032 37.8676 10.1475 38.1221L5.90714 36.748C5.84685 36.7284 5.78088 36.7503 5.74362 36.8017C5.68021 36.8905 -0.591076 45.7485 0.684918 52.2032C1.09015 54.2539 2.21116 55.8671 4.01689 56.9972C4.96529 57.591 5.93074 57.8885 6.90331 57.8885C7.49652 57.8885 8.09257 57.7776 8.6889 57.5558C11.3566 56.5636 14.0013 53.4141 16.549 48.1952C18.3324 44.5427 19.4372 41.1049 19.566 40.6971C19.7909 40.5006 21.0032 39.4197 22.1495 37.96C22.1549 37.9048 22.1601 37.8496 22.174 37.7942Z" fill="black"/>
</svg>
