<svg width="168" height="169" viewBox="0 0 168 169" fill="none" xmlns="http://www.w3.org/2000/svg">
<path d="M81.9263 50.6951C81.644 50.3941 81.7018 49.9111 82.0472 49.6849C82.0818 49.6623 82.0818 49.6623 82.2455 49.5553C82.407 49.4497 82.5943 49.3271 82.8056 49.1893C83.4089 48.795 84.0819 48.3555 84.8074 47.8824C86.8806 46.5304 88.9594 45.1787 90.9077 43.9168L91.0499 43.8247C94.8325 41.3758 97.6345 39.583 99.0546 38.7127C99.5948 38.3808 100.168 38.0131 100.903 37.5301C101.209 37.3288 102.504 36.4714 102.845 36.2478C105.794 34.3108 107.731 33.2007 109.759 32.4134C110.663 32.0623 111.532 31.8065 112.376 31.6497C117.11 30.77 120.229 36.1399 118.407 40.3999C117.945 41.4815 117.221 42.6411 116.258 43.8809C115.206 45.2365 113.892 46.6603 112.322 48.1867C111.046 49.4278 110.178 50.2131 107.965 52.1707C106.698 53.2895 104.841 54.8322 102.535 56.6931C102.384 56.815 102.232 56.9379 102.078 57.0618C100.397 58.4135 98.5979 59.8402 96.7981 61.2527C96.1683 61.747 95.5836 62.2041 95.0587 62.613C94.875 62.7565 94.7116 62.8834 94.5711 62.9927C94.4867 63.0581 94.4282 63.1033 94.398 63.1269C94.127 63.3369 93.7406 63.3063 93.5064 63.0558L81.9263 50.6951Z" fill="#FCB7A0"/>
<path d="M96.2563 67.1517C95.9936 65.2147 95.5787 63.2714 94.9166 60.6594C94.7967 60.1867 94.7728 60.0937 94.4718 58.9307C92.5833 51.6192 89.2239 48.8637 82.3473 49.5666C77.101 50.1024 72.5543 51.2601 63.9001 53.9548C63.2241 54.1654 62.6362 54.3441 61.4718 54.6936C61.2562 54.7584 61.2562 54.7584 61.04 54.8235C54.9569 56.6515 52.1201 57.7255 49.2652 59.5894C45.47 62.0665 43.135 65.407 42.3162 70.064C41.6162 74.0154 41.3561 78.102 41.3299 83.6648C41.3242 84.8879 41.3276 85.8685 41.3405 88.0587C41.3525 90.0362 41.3558 90.9069 41.3528 91.9951C41.3515 93.4813 41.3325 95.5007 41.2731 101.04L41.2718 101.181C41.2143 106.541 41.1934 108.826 41.1934 110.357V167.261C41.1934 167.628 41.4907 167.926 41.8577 167.926H103.097C103.464 167.926 103.761 167.628 103.761 167.261V84.7288C103.761 84.5391 103.761 84.3976 103.762 84.0156C103.77 81.2109 103.732 79.742 103.545 77.9648C103.039 73.1533 101.553 69.8182 98.5315 68.2595C97.8548 67.8788 97.0945 67.6377 96.3085 67.5543C96.2919 67.4208 96.2746 67.2866 96.2563 67.1517Z" fill="#FCB7A0"/>
<path d="M51.4865 73.0896C52.195 73.5175 52.792 73.9965 53.5354 74.705C53.6879 74.8499 53.8457 75.0037 54.05 75.2053C54.1134 75.2678 54.4825 75.6328 54.5928 75.7414C54.8542 75.9989 55.2748 75.9956 55.5322 75.7341C55.7897 75.4727 55.7863 75.0522 55.5249 74.7947C55.4163 74.6874 55.0479 74.323 54.9831 74.2592C54.7735 74.0526 54.6107 73.8938 54.4519 73.7427C53.644 72.973 52.9754 72.4362 52.1731 71.9522C51.8592 71.7625 51.4506 71.8635 51.2613 72.1774C51.0716 72.4917 51.1726 72.8999 51.4865 73.0896Z" fill="#DC8173"/>
<path d="M72.9527 52.9433C74.876 53.2489 77.882 55.7052 78.9121 57.686C80.4678 60.6797 81.7782 64.9639 82.8921 70.0421C82.9575 70.3427 83.01 70.6095 83.1083 71.1357C83.2226 71.7449 83.2648 71.9625 83.3322 72.2797C83.3708 72.4618 83.4096 72.6335 83.4498 72.7999C83.5362 73.1567 83.8953 73.376 84.2517 73.2896C84.6085 73.2032 84.8277 72.8441 84.7414 72.4877C84.7042 72.3339 84.668 72.1738 84.6318 72.0033C84.5673 71.7004 84.5265 71.4891 84.4145 70.8908C84.3135 70.3524 84.2594 70.076 84.1899 69.7581C83.0529 64.5736 81.7138 60.1963 80.0911 57.0734C78.8786 54.7411 75.5331 52.0079 73.1613 51.6312C72.7988 51.5734 72.4584 51.8205 72.4009 52.183C72.3434 52.5454 72.5902 52.8859 72.9527 52.9433Z" fill="#DC8173"/>
<path d="M71.069 89.8768C73.9056 87.3634 73.9182 77.4197 71.1099 67.1437C69.7529 62.1835 65.4939 56.9529 61.0552 55.3975C60.709 55.276 60.33 55.4583 60.2084 55.8045C60.0872 56.1509 60.2695 56.53 60.6157 56.6512C64.6073 58.0504 68.5789 62.9279 69.8283 67.4942C72.5074 77.2974 72.4951 86.8379 70.188 88.8822C69.9133 89.1257 69.8877 89.5456 70.1312 89.82C70.3747 90.0947 70.7946 90.1199 71.069 89.8768Z" fill="#DC8173"/>
<path d="M74.373 117.676C72.5217 117.206 70.8126 117.239 69.3519 117.948C69.0218 118.108 68.8842 118.505 69.0443 118.836C69.2045 119.166 69.6018 119.304 69.932 119.143C71.0697 118.592 72.4719 118.564 74.0461 118.964C74.4016 119.054 74.7633 118.839 74.8537 118.483C74.9437 118.128 74.7288 117.766 74.373 117.676Z" fill="#DC8173"/>
<path d="M89.4251 86.7974C90.226 86.5297 89.8879 85.3298 89.065 85.5198C88.2402 85.7105 87.5609 85.9298 86.4371 86.3656C85.5541 86.6529 84.8652 86.8911 84.2466 87.128C83.462 87.4316 82.782 87.706 82.1728 87.9717C81.4662 88.181 80.8762 88.2936 80.2348 88.3524C78.341 88.5258 77.6022 87.7648 76.5379 85.1474C76.5116 85.083 76.2751 84.497 76.203 84.3206C75.3144 82.1358 75.5356 80.4264 76.7123 78.8631C77.65 77.6167 78.8608 76.7006 81.6286 74.9496L82.006 74.7107C82.1714 74.6061 82.3047 74.5214 82.4329 74.4397C83.7068 73.6285 85.0917 72.807 86.8487 71.8084C87.3307 71.5343 87.8263 71.255 88.4707 70.8935C88.5425 70.853 89.7317 70.187 90.0749 69.994C92.3128 68.7343 94.6561 68.0018 95.9676 67.9832C96.3343 67.9779 96.6277 67.6763 96.6223 67.3096C96.617 66.9425 96.3154 66.6492 95.9487 66.6545C94.3947 66.6764 91.8415 67.4747 89.4235 68.836C89.0816 69.028 87.8931 69.694 87.8207 69.7345C87.1742 70.0973 86.6766 70.3777 86.1919 70.653C84.4174 71.6619 83.0149 72.4937 81.719 73.3192C81.5918 73.4002 81.4596 73.484 81.2955 73.5879L80.9184 73.8265C78.0098 75.6664 76.7202 76.6424 75.6506 78.0642C74.1929 80.0012 73.9079 82.2039 74.9726 84.8229C75.044 84.997 75.2795 85.5806 75.3068 85.6477C75.9047 87.118 76.3123 87.8883 76.9511 88.5461C77.5248 89.137 78.2161 89.5054 79.0505 89.6416C78.6702 89.8958 78.2905 90.1711 77.8928 90.4781C74.0192 93.4851 71.9789 96.694 69.3818 102.868C69.2393 103.206 69.3984 103.596 69.7366 103.738C70.0748 103.88 70.4641 103.721 70.6066 103.383C73.1229 97.4012 75.0543 94.3637 78.7064 91.5288C79.9667 90.5558 81.03 89.9257 82.6202 89.2264C83.4331 88.9809 84.3785 88.6228 85.6677 88.1016C86.1331 87.9133 86.5324 87.7541 86.8845 87.6173C87.1516 87.5309 88.9405 86.9592 89.4251 86.7974Z" fill="#DC8173"/>
<path d="M76.6686 86.8034C71.4402 88.9091 67.1906 89.6592 63.0913 88.8633C59.7655 88.2155 57.6272 85.4268 56.4971 80.919C55.6413 77.5051 55.4387 73.4201 55.6822 69.3113C55.7038 68.9449 55.4244 68.6306 55.058 68.6087C54.6919 68.5871 54.3774 68.8665 54.3558 69.2329C54.105 73.4647 54.3139 77.6738 55.2082 81.2422C56.4502 86.1971 58.9081 89.4021 62.8379 90.1678C67.2324 91.0208 71.7206 90.2289 77.1649 88.0358C77.5054 87.8986 77.6701 87.5116 77.5329 87.1714C77.3961 86.8309 77.0087 86.6662 76.6686 86.8034Z" fill="#DC8173"/>
<path d="M83.7221 49.4902C89.463 49.4477 92.645 51.8142 94.0578 57.4807C94.1565 57.8717 94.3047 58.4806 94.5329 59.4283L94.5395 59.4566C94.5927 59.6761 94.7754 60.4359 94.7684 60.4073C94.8548 60.7664 94.9139 61.0115 94.9637 61.2168C95.0501 61.5736 95.4095 61.7925 95.766 61.7062C96.1227 61.6195 96.3416 61.2604 96.2549 60.9039C96.2054 60.6993 96.1467 60.4548 96.0603 60.0964C96.0673 60.1249 95.8845 59.3652 95.8314 59.1456L95.8248 59.1171C95.5952 58.1647 95.4464 57.5531 95.3467 57.1575C93.7831 50.8864 90.056 48.1143 83.7121 48.1615C83.3451 48.1641 83.0501 48.4638 83.0528 48.8308C83.0554 49.1976 83.355 49.4929 83.7221 49.4902Z" fill="#DC8173"/>
<path d="M136.552 143.49C133.469 140.992 130.994 141.121 128.689 142.234C129.332 141.131 129.819 139.943 130.137 138.706C131.097 135.5 131.198 132.098 130.429 128.84C129.307 124.19 126.775 120.725 122.859 118.559C115.823 114.649 109.538 114.789 103.758 116.626V138.308C102.549 137.752 101.293 137.307 100.004 136.979C87.2979 133.504 73.7247 145.735 67.7054 155.385C67.4862 151.399 65.4332 149.546 62.5897 148.297C59.4306 146.915 53.2452 147.243 48.8703 148.592C46.2134 149.383 43.642 150.436 41.1934 151.735V128.897C40.7018 129.528 40.2168 130.182 39.6886 130.89C36.8915 134.717 34.1842 140.879 32.9219 146.147C31.148 143.31 28.3344 140.364 25.1154 139.749C23.0825 139.364 21.1724 139.952 19.4417 141.493C14.7145 145.709 15.226 154.449 17.4485 160.039C13.2296 159.093 4.6724 159.202 1.23092 162.577C0.141343 163.644 -0.227386 164.66 0.1347 165.6C1.05486 167.999 6.61571 168.487 8.96428 168.59C13.0336 168.759 19.9466 168.613 26.0456 168.48C29.3974 168.411 32.5664 168.341 34.822 168.337C39.1172 168.337 44.7877 168.424 51.3517 168.533C58.9921 168.66 67.6655 168.806 75.8241 168.806C85.0257 168.806 92.708 168.787 98.8714 168.749C102.672 168.749 105.768 168.72 108.066 168.72C113.611 168.72 122.892 168.72 129.835 166.434C134.818 164.79 140.269 160.122 140.525 154.694C140.697 151.197 140.146 146.42 136.552 143.49Z" fill="#91D5DD"/>
<path d="M166.439 133.517C165.556 133.139 164.559 133.123 163.665 133.474C164.413 130.628 163.938 127.599 162.353 125.12C160.598 122.396 157.58 120.75 154.34 120.748C151.158 120.715 148.428 122.077 147.062 124.402C146.199 125.927 145.93 127.717 146.308 129.428C144.388 127.767 142.697 127.382 141.266 128.269C140.278 128.824 139.588 129.789 139.382 130.903C139.268 131.665 139.372 132.443 139.681 133.149C139.081 133.183 138.509 133.417 138.057 133.813C137.128 134.621 136.764 135.9 137.126 137.075C137.525 138.284 138.678 139.042 140.289 139.155H140.365C143.614 139.155 146.926 139.434 150.128 139.703C153.331 139.972 156.682 140.254 159.998 140.254C160.992 140.254 161.989 140.227 162.987 140.171C164.718 140.071 167.937 139.882 168 136.537C168.01 134.587 167.027 133.796 166.439 133.517Z" fill="#91D5DD"/>
<path d="M62.8569 147.682C59.6606 146.3 53.4094 146.491 48.6747 147.951C43.7617 149.447 39.5522 151.392 37.371 153.744C37.1215 154.013 37.1375 154.434 37.4066 154.683C37.6756 154.933 38.0958 154.917 38.3453 154.648C40.3145 152.524 44.3669 150.651 49.0641 149.221C53.5254 147.846 59.4676 147.664 62.3264 148.9C65.3868 150.244 66.8584 152.08 67.0421 155.415C67.0777 156.063 67.9258 156.281 68.2692 155.73C71.4981 150.554 76.4411 145.331 81.7186 141.806C87.9196 137.665 94.1647 136.063 99.8289 137.613C103.391 138.584 105.446 139.693 107.395 141.903C109.205 143.933 110.334 146.475 110.628 149.176C110.908 151.326 110.704 154.075 110.096 155.453C109.948 155.789 110.1 156.181 110.436 156.329C110.772 156.477 111.164 156.325 111.312 155.989C112.033 154.354 112.254 151.374 111.947 149.018C111.625 146.056 110.381 143.256 108.39 141.021C106.248 138.594 103.97 137.364 100.179 136.331C94.0946 134.666 87.4744 136.365 80.9808 140.701C76.0534 143.992 71.426 148.701 68.1261 153.522C67.5016 150.731 65.7642 148.958 62.8569 147.682Z" fill="#1A4E66"/>
<path d="M151.374 21.7158C150.68 18.4272 150.025 15.3179 148.205 12.2086C145.674 7.89013 139.731 8.8867 135.389 9.64077C130.669 10.4447 118.78 13.162 114.375 14.5406L113.425 14.8329C109.382 16.0753 105.562 17.2512 104.891 20.696C104.253 23.9781 104.735 27.6554 105.16 30.8975C105.24 31.5088 105.319 32.1067 105.389 32.688C105.436 33.0834 105.479 33.4919 105.525 33.9072L105.595 34.5118C107.801 33.183 110.106 32.0702 112.375 31.645C114.278 31.244 116.243 31.9728 117.424 33.5185C118.945 35.4761 119.324 38.0894 118.421 40.3982C117.604 42.3116 116.002 44.3578 114.205 46.2845C115.75 46.2091 117.288 46.0214 118.806 45.7231L119.055 45.68C121.63 45.2381 126.556 44.3512 130.652 43.3879C132.253 43.0092 134.206 42.5806 136.093 42.1687C139.395 41.4479 142.514 40.7636 144.066 40.2885L144.73 40.0826C148.035 39.086 152.563 37.724 152.869 34.0334C153.171 30.4192 152.437 26.6455 151.66 23.0712C151.567 22.626 151.47 22.1809 151.374 21.7158Z" fill="#EBE8E5"/>
<path d="M148.281 33.0569C148.145 32.9506 144.959 30.3994 143.352 29.4028C142.312 28.7583 141.169 28.094 140.063 27.4528C138.614 26.6124 137.126 25.7487 135.811 24.895C139.428 20.7127 142.355 15.7299 143.949 12.7734C144.061 12.5638 144.053 12.3107 143.928 12.1087C143.803 11.9067 143.579 11.7871 143.342 11.7948C143.104 11.8024 142.889 11.936 142.777 12.1456C140.827 15.7631 136.841 22.4933 132.077 26.8682C130.084 28.7019 128.695 29.0241 126.157 28.2401C123.045 27.2801 120.058 25.948 117.168 24.6591L116.504 24.3602C114.534 23.4832 109.93 20.9486 109.883 20.9253C109.565 20.7655 109.176 20.8861 109.004 21.1984C108.832 21.511 108.937 21.9036 109.242 22.088C109.435 22.1943 113.943 24.6724 115.963 25.5727L116.627 25.8716C118.085 26.536 119.563 27.1804 121.078 27.8016C120.65 28.3963 120.195 29.0008 119.72 29.632C118.876 30.7415 118.005 31.8942 117.245 33.0801L117.162 33.2097C117.251 33.306 117.338 33.409 117.424 33.512C117.637 33.7834 117.828 34.071 117.996 34.3723L118.361 33.7977C119.095 32.6549 119.952 31.5255 120.776 30.4326C121.331 29.7018 121.852 29.0042 122.344 28.3066C123.467 28.7417 124.603 29.1503 125.765 29.5091C126.61 29.7905 127.492 29.9439 128.383 29.9642C130.024 29.9642 131.396 29.2998 132.977 27.8448C133.642 27.2369 134.286 26.5792 134.917 25.8982C136.302 26.8051 137.87 27.7186 139.395 28.6022C140.491 29.24 141.627 29.8978 142.651 30.5322C144.185 31.4856 147.421 34.0634 147.451 34.09C147.569 34.1833 147.715 34.2335 147.866 34.2328C148.148 34.2325 148.399 34.0544 148.492 33.7887C148.585 33.5226 148.501 33.2266 148.281 33.0502V33.0569Z" fill="#CCC9C6"/>
<path d="M150.281 3.52858C149.44 1.69158 147.7 0.435903 145.501 0.0871047C144.283 -0.105067 143.037 0.0219959 141.883 0.455835C140.048 1.1034 138.617 2.56424 138.006 4.41221C137.226 6.91027 137.86 10.3916 140.581 12.1921C141.676 12.9481 142.974 13.3581 144.305 13.368C145.897 13.3464 147.435 12.788 148.67 11.7835C149.833 10.7946 150.605 9.42361 150.849 7.9168C151.057 6.42959 150.861 4.91381 150.281 3.52858Z" fill="#FC6E47"/>
<path d="M144.239 6.16575C144.23 6.6926 144.212 7.25633 144.187 7.83002C144.175 8.11902 144.161 8.39208 144.148 8.64023C144.14 8.78838 144.134 8.89535 144.13 8.95248C144.108 9.31856 144.386 9.6338 144.753 9.65606C145.119 9.67865 145.434 9.39994 145.456 9.03387C145.46 8.97374 145.467 8.86346 145.475 8.71132C145.488 8.45885 145.502 8.18147 145.515 7.88749C145.54 7.3025 145.558 6.72715 145.567 6.18768C145.582 5.29608 145.569 4.56726 145.522 4.04638C145.477 3.56238 144.946 3.288 144.526 3.53216C143.705 4.00918 142.916 4.53902 142.163 5.11803C141.872 5.34159 141.817 5.75882 142.041 6.04982C142.265 6.34048 142.682 6.39496 142.973 6.17107C143.385 5.85416 143.808 5.55319 144.243 5.26817C144.245 5.5419 144.244 5.8422 144.239 6.16575Z" fill="white"/>
</svg>
