<svg width="57" height="58" viewBox="0 0 57 58" fill="none" xmlns="http://www.w3.org/2000/svg">
<path d="M28.5 57.5C44.2401 57.5 57 44.7401 57 29C57 13.2599 44.2401 0.5 28.5 0.5C12.7599 0.5 0 13.2599 0 29C0 44.7401 12.7599 57.5 28.5 57.5Z" fill="#FCD400"/>
<path d="M27.965 36.3107C26.6915 36.3318 25.4529 35.8901 24.4811 35.0664C22.5027 33.2921 21.4905 30.6797 21.7561 28.0363C22.1605 24.5834 24.0954 22.4993 27.5047 21.8149C29.5888 21.4105 32.4817 21.367 34.4352 22.4371C35.0331 22.7805 35.239 23.5438 34.8956 24.1417C34.5522 24.7396 33.7888 24.9455 33.191 24.6021C31.9467 23.8929 29.6013 23.9115 27.9588 24.2288C25.6134 24.683 24.4873 25.8961 24.226 28.2789C24.0699 30.0899 24.7586 31.8711 26.0924 33.1067C27.6602 34.4132 29.9185 33.567 32.6995 32.3166L33.5705 31.9308C33.9823 31.7299 34.472 31.7722 34.8434 32.0403C35.2148 32.3085 35.4089 32.7595 35.3485 33.2137C35.2882 33.6678 34.9827 34.0523 34.5535 34.2141L33.7136 34.5874C32.1147 35.3713 30.0181 36.3107 27.965 36.3107Z" fill="#E2B420"/>
<path d="M29.7753 41.7036C29.1071 41.7043 28.5578 41.1767 28.531 40.5091C28.531 40.478 28.4066 37.4793 28.1889 35.6254C28.1366 35.1812 28.3257 34.7426 28.6847 34.4751C29.0431 34.2075 29.5178 34.1516 29.929 34.3289C30.3396 34.5055 30.6252 34.8888 30.6774 35.333C30.9076 37.2803 31.032 40.2789 31.0382 40.4096C31.0519 40.74 30.9337 41.0616 30.7091 41.3042C30.4852 41.5469 30.1741 41.6906 29.8438 41.7036H29.7753Z" fill="#E2B420"/>
<path d="M28.6804 24.1783C28.0147 24.1789 27.466 23.6551 27.4361 22.99C27.3428 20.8997 27.4361 17.6459 27.4361 17.509C27.4473 17.0642 27.6949 16.6592 28.0856 16.447C28.4757 16.2343 28.9504 16.2461 29.3299 16.4782C29.7088 16.7096 29.9359 17.1264 29.9247 17.5713C29.9247 17.6024 29.8438 20.881 29.9247 22.8843C29.9527 23.5693 29.4214 24.1478 28.7364 24.1783H28.6804Z" fill="#E2B420"/>
<path d="M36.6375 51.5027C36.0185 51.5027 35.4934 51.0473 35.4057 50.4345C35.3186 49.8217 35.695 49.2375 36.2891 49.0639C40.8431 47.7201 44.607 44.4912 47.164 39.7319C50.2747 33.89 51.0835 26.5489 49.1735 21.0305C48.9483 20.381 49.2923 19.6724 49.9419 19.4472C50.5914 19.222 51.3 19.566 51.5252 20.2155C53.6529 26.3622 52.8006 34.4873 49.3602 40.9077C46.4797 46.283 42.1994 49.9349 36.9921 51.484C36.8752 51.5052 36.7563 51.5114 36.6375 51.5027Z" fill="#E2B420"/>
<path d="M29.2652 53.6248C28.5777 53.692 27.9668 53.1893 27.8996 52.5018C27.8324 51.815 28.3351 51.2034 29.0225 51.1362L29.4269 51.0554C29.8674 50.9552 30.3278 51.102 30.6289 51.4386C30.9306 51.7752 31.0258 52.2486 30.8784 52.6754C30.7309 53.1022 30.3632 53.4157 29.9184 53.4941L29.5078 53.575C29.4294 53.6011 29.3479 53.6179 29.2652 53.6248Z" fill="#E2B420"/>
<path d="M8.84737 17.5278C8.39259 17.5272 7.97451 17.2783 7.75676 16.8795C7.53901 16.4801 7.55643 15.9942 7.80217 15.6116C10.2217 12.1221 13.369 9.19929 17.0284 7.04483C20.4906 5.27735 24.2931 4.27819 28.1771 4.11456C28.8639 4.09217 29.4394 4.63156 29.4618 5.31839C29.4842 6.00585 28.9448 6.58071 28.258 6.6031C24.7684 6.75739 21.3517 7.65202 18.2354 9.22851C14.9368 11.1802 12.0949 13.8149 9.89878 16.9554C9.66922 17.3132 9.27229 17.529 8.84737 17.5278Z" fill="#E2B420"/>
</svg>
