<svg width="390" height="238" viewBox="0 0 390 238" fill="none" xmlns="http://www.w3.org/2000/svg">
<mask id="mask0_258_5344" style="mask-type:alpha" maskUnits="userSpaceOnUse" x="-45" y="93" width="463" height="245">
<path d="M339.864 298.383C367.878 282.412 394.081 260.989 408.231 232.011C422.379 203.031 422.079 165.472 401.25 140.854C383.307 119.644 354.481 111.637 327.213 106.317C237.802 88.8779 145.084 88.5627 55.5584 105.395C30.5295 110.1 4.72284 116.636 -14.6673 133.145C-44.103 158.207 -52.0585 203.087 -38.7793 239.395C-25.5002 275.703 5.96167 303.383 41.4933 318.617C76.3156 333.548 114.77 337.628 152.342 337.695C192.974 337.769 232.108 337.759 271.629 326.744C295.415 320.116 318.409 310.613 339.864 298.383Z" fill="white"/>
</mask>
<g mask="url(#mask0_258_5344)">
<path d="M339.864 298.383C367.878 282.412 394.081 260.989 408.231 232.011C422.379 203.031 422.079 165.472 401.25 140.854C383.307 119.644 354.481 111.637 327.213 106.317C237.802 88.8779 145.084 88.5627 55.5584 105.395C30.5295 110.1 4.72284 116.636 -14.6673 133.145C-44.103 158.207 -52.0585 203.087 -38.7793 239.395C-25.5002 275.703 5.96167 303.383 41.4933 318.617C76.3156 333.548 114.77 337.628 152.342 337.695C192.974 337.769 232.108 337.759 271.629 326.744C295.415 320.116 318.409 310.613 339.864 298.383Z" fill="#533F2C"/>
<path d="M342.382 183.275L340.61 183.81C329.555 187.236 321.256 191.53 293.025 207.307C270.074 220.132 256.112 245.712 258.228 269.869C260.542 296.281 280.991 315.29 316.479 319.093C352.297 322.93 383.016 308.595 400.342 282.982C416.752 258.723 417.728 228.881 401.687 207.493C395.587 199.36 389.544 193.233 383.403 188.911C370.954 180.149 358.059 178.653 342.382 183.275ZM382.617 190.026C388.633 194.26 394.576 200.286 400.595 208.311C416.267 229.207 415.312 258.417 399.212 282.218C382.168 307.413 351.939 321.52 316.624 317.736C281.761 314.001 261.842 295.485 259.587 269.75C257.519 246.135 271.203 221.064 293.69 208.498L301.938 203.902C324.858 191.184 332.088 187.733 342.768 184.584C358.066 180.073 370.53 181.519 382.617 190.026Z" fill="white"/>
<path d="M347.285 140.484C336.097 143.671 323.972 148.616 309.294 155.781L303.538 158.62C295.645 162.549 290.105 165.53 263.328 179.988C224.402 201.006 200.715 242.937 204.303 282.52C208.224 325.768 242.868 356.884 303.083 363.117C363.899 369.413 416.039 345.903 445.449 303.897C473.296 264.121 474.951 215.209 447.752 180.169C437.392 166.822 427.134 156.773 416.719 149.691C395.648 135.361 373.846 132.918 347.285 140.484ZM415.952 150.819C426.24 157.815 436.396 167.765 446.675 181.006C473.485 215.545 471.852 263.805 444.331 303.114C415.207 344.713 363.55 368.005 303.223 361.76C243.626 355.59 209.521 324.958 205.662 282.396C202.124 243.37 225.52 201.952 263.977 181.188L290.529 166.894C298.697 162.541 302.117 160.829 308.667 157.607C323.833 150.149 336.25 145.046 347.659 141.796C373.852 134.335 395.237 136.731 415.952 150.819Z" fill="white"/>
<path d="M339.503 212.762L338.122 213.161C331.792 215.054 326.812 217.509 310.554 226.124C297.017 233.297 288.776 247.614 290.027 261.155C291.396 275.975 303.483 286.629 324.383 288.752C345.446 290.892 363.525 282.892 373.729 268.589C383.414 255.014 383.99 238.292 374.508 226.303C370.919 221.766 367.359 218.344 363.737 215.926C356.379 211.015 348.751 210.176 339.503 212.762ZM362.98 217.061C366.475 219.393 369.932 222.718 373.438 227.15C382.521 238.634 381.968 254.692 372.619 267.797C362.702 281.697 345.101 289.486 324.521 287.395C304.235 285.334 292.69 275.158 291.385 261.03C290.186 248.052 298.13 234.251 311.193 227.329L317.467 224.019C329.544 217.687 333.744 215.81 339.595 214.153L339.87 214.076C348.756 211.592 355.974 212.386 362.98 217.061Z" fill="white"/>
<path d="M337.687 233.779L337.004 233.934C333.499 234.751 330.802 235.794 321.855 239.519C314.341 242.647 309.732 248.939 310.439 254.956C311.213 261.537 317.947 266.201 329.469 267.12C341.027 268.043 350.967 264.587 356.604 258.378C362.027 252.406 362.354 244.967 357.016 239.665C355.034 237.697 353.066 236.21 351.062 235.159C346.991 233.024 342.78 232.66 337.687 233.779ZM350.428 236.367C352.306 237.352 354.165 238.756 356.054 240.633C360.843 245.389 360.553 252 355.594 257.461C350.256 263.34 340.734 266.651 329.578 265.76C318.635 264.887 312.479 260.623 311.794 254.797C311.165 249.449 315.384 243.691 322.379 240.778L326.399 239.114C332.613 236.563 334.826 235.804 337.98 235.112C342.778 234.058 346.664 234.393 350.428 236.367Z" fill="white"/>
<path d="M246.836 -72.4578C192.264 -61.5434 120.938 -12.6951 68.0728 46.4547C14.3227 106.595 -4.70912 159.729 26.9625 178.474C71.7287 204.968 133.321 204.968 211.715 178.533C292.882 136.59 342.555 96.4873 360.826 58.1174C375.202 27.9283 374.566 -10.2867 357.893 -37.5247C338.404 -69.3625 300.327 -83.156 246.836 -72.4578ZM356.729 -36.8124C373.151 -9.98459 373.779 27.7429 359.595 57.5308C341.483 95.5643 292.014 135.503 211.183 177.281C133.227 203.56 72.0284 203.56 27.6574 177.3C-2.86867 159.233 15.8737 106.907 69.09 47.3639C121.776 -11.5853 192.867 -60.2727 247.103 -71.1199C300.065 -81.7121 337.559 -68.1295 356.729 -36.8124Z" fill="white"/>
<path d="M231.884 -40.4933C191.916 -32.1929 139.709 4.93389 101.014 49.8903C61.6344 95.6427 47.6841 136.085 70.9838 150.404C103.788 170.564 148.904 170.564 206.299 150.467C265.732 118.579 302.094 88.0956 315.478 58.9104C326.014 35.9364 325.548 6.8593 313.325 -13.8749C299.029 -38.1266 271.091 -48.6357 231.884 -40.4933ZM312.15 -13.1821C324.136 7.15105 324.594 35.7583 314.238 58.3416C301.008 87.1909 264.847 117.505 205.751 149.222C148.804 169.153 104.098 169.153 71.6981 149.242C49.5001 135.6 63.1816 95.9366 102.048 50.7804C140.564 6.03118 192.536 -30.9282 232.161 -39.1575C270.824 -47.1869 298.167 -36.9016 312.15 -13.1821Z" fill="white"/>
<path d="M216.993 -4.63555C190.915 0.673221 156.885 24.3945 131.662 53.1196C105.929 82.425 96.7942 108.382 112.167 117.643C133.592 130.549 163.032 130.549 200.457 117.704L202.765 116.482C240.168 96.5388 263.11 77.4616 271.677 59.1495C278.57 44.415 278.265 25.7696 270.263 12.4629C260.899 -3.10675 242.61 -9.85025 216.993 -4.63555ZM269.094 13.1661C276.852 26.0668 277.149 44.2331 270.441 58.5714C261.856 76.9208 238.35 96.2371 199.918 116.455C162.935 129.14 133.897 129.14 112.871 116.474C98.6231 107.891 107.478 82.7284 132.687 54.0198C157.731 25.4985 191.526 1.94116 217.265 -3.29862C242.345 -8.40408 260.046 -1.87749 269.094 13.1661Z" fill="white"/>
<path d="M200.8 32.7181C189.834 35.429 175.611 47.468 165.069 62.0456L164.344 63.0618C154.094 77.5877 150.577 90.3377 157.043 95.0676C166.095 101.689 178.502 101.689 194.198 95.1467C210.452 84.7757 220.368 74.8813 224.035 65.3632C226.93 57.8489 226.802 48.3531 223.435 41.5549C219.462 33.5324 211.652 30.0356 200.8 32.7181ZM222.213 42.1604C225.402 48.601 225.525 57.7008 222.762 64.8727C219.221 74.0631 209.495 83.7681 193.569 93.9421C178.376 100.263 166.456 100.263 157.849 93.9664C152.143 89.7926 155.79 77.2064 166.175 62.845C176.545 48.5044 190.537 36.6604 201.127 34.0426C211.365 31.5119 218.527 34.7184 222.213 42.1604Z" fill="white"/>
<path d="M493.69 -127.006C424.291 -102.588 384.325 -32.6715 389.887 41.6733C392.536 77.0804 405.677 109.721 427.795 134.068C451.876 160.575 485.5 176.283 526.623 178.568C567.321 180.829 597.488 162.265 615.396 127.398C631.361 96.3124 636.573 53.6041 630.686 9.8105C624.865 -33.4922 608.736 -73.5992 585.884 -99.8013C560.522 -128.882 528.658 -139.31 493.69 -127.006ZM584.856 -98.9046C607.517 -72.9212 623.546 -33.0624 629.334 9.99224C635.186 53.5285 630.008 95.9605 614.182 126.774C596.513 161.176 566.841 179.436 526.699 177.205C485.93 174.941 452.642 159.39 428.805 133.151C406.899 109.038 393.874 76.6856 391.247 41.5715C385.729 -32.1888 425.36 -101.518 494.143 -125.719C528.552 -137.826 559.842 -127.586 584.856 -98.9046Z" fill="white"/>
<path d="M354.225 102.415C348.361 109.583 348.686 115.914 354.13 120.753C358.508 124.644 366.09 127.315 373.786 128.084C387.923 129.498 397.838 116.751 393.608 102.651C389.205 87.973 366.465 87.4562 354.225 102.415ZM392.302 103.043C396.258 116.231 387.072 128.042 373.922 126.727C366.487 125.983 359.168 123.406 355.036 119.733C350.153 115.392 349.87 109.894 355.281 103.279C366.903 89.0754 388.257 89.5607 392.302 103.043Z" fill="white"/>
<path d="M-37.0578 250.924C-93.9549 272.66 -125.022 315.88 -126.52 367.17C-127.911 414.827 -102.976 462.493 -61.7467 489.528C-15.093 520.121 45.019 535.889 92.5947 526.122C151.162 514.098 187.333 466.192 191.713 379.844C196.197 291.44 173.443 242.706 126.441 227.038C87.8252 214.166 34.97 223.408 -37.0578 250.924ZM126.009 228.332C172.328 243.772 194.807 291.917 190.35 379.775C186 465.534 150.242 512.894 92.3203 524.786C45.1351 534.473 -14.6242 518.797 -60.9985 488.387C-101.832 461.611 -126.534 414.393 -125.156 367.21C-123.675 316.474 -92.956 273.739 -36.5709 252.199C35.1802 224.788 87.7836 215.59 126.009 228.332Z" fill="white"/>
</g>
<path d="M267.42 44.4941C268.982 46.9447 269.961 49.608 270.471 52.4669C271.222 56.7169 271.102 60.9744 270.615 65.2362C270.107 69.6915 268.842 73.9467 267.109 78.0676C265.932 80.8745 264.721 83.6571 263.527 86.459C261.354 91.5839 259.743 96.8872 258.41 102.28C257.624 105.445 256.83 108.604 255.822 111.707C254.363 116.226 252.394 120.485 249.626 124.36C247.904 126.774 245.937 128.975 243.817 131.039C237.817 136.853 231.276 142.002 224.371 146.687C221.034 148.949 217.404 150.634 213.704 152.197C207.937 154.637 202.057 156.765 196.131 158.79C193.252 159.775 190.329 160.613 187.353 161.298C185.936 161.622 184.529 162.018 183.11 162.328C180.739 162.848 178.342 163.241 175.912 163.367C174.238 163.452 172.564 163.537 170.887 163.506C167.737 163.441 164.826 162.63 162.059 161.079C159.83 159.835 158.076 158.19 156.679 156.102C156.261 155.477 155.857 154.85 155.465 154.207C153.771 151.417 153.079 148.374 153.096 145.12C153.106 143.317 152.962 141.509 152.842 139.711C152.718 137.892 152.133 136.172 151.529 134.47C150.306 131.024 149.07 127.586 147.833 124.142C147.131 122.191 146.362 120.272 145.828 118.266C145.145 115.712 144.576 113.14 144.327 110.498C144.007 107.105 144.034 103.726 144.325 100.343C144.755 95.3795 146.398 90.811 148.922 86.5409C151.231 82.6401 154.043 79.1538 157.529 76.2318C158.809 75.152 160.089 74.0722 161.36 72.9792C164.115 70.6071 167.214 68.7613 170.379 67.008C171.082 66.616 171.709 66.1551 172.303 65.6258C173.781 64.3038 175.285 63.0143 176.7 61.6139C178.052 60.2817 179.396 58.9506 180.584 57.4601C181.107 56.8024 181.701 56.222 182.379 55.7166C182.874 55.3561 183.268 54.8644 183.718 54.4449C191.692 46.8602 195.169 43.6905 206.092 38.2731C209.726 36.4707 213.437 34.8326 217.267 33.4984C219.475 32.732 221.71 32.0423 223.976 31.4648C226.114 30.914 228.255 30.3776 230.443 30.0608C233.832 29.577 237.215 29.6359 240.598 30.0827C245.03 30.671 249.366 31.6398 253.544 33.255C254.284 33.5383 255.036 33.8051 255.705 34.2457C255.721 34.9755 255.115 35.2868 254.695 35.7019C252.903 37.4669 252.822 39.5293 254.759 41.1689C257.715 43.6719 261.104 45.0625 265.099 44.5234C265.861 44.4226 266.635 44.0638 267.419 44.487L267.42 44.4941Z" fill="#FEBD11"/>
<path d="M267.453 44.4919C266.544 44.6442 265.634 44.782 264.72 44.9497C263.527 45.1596 262.354 45.0663 261.192 44.7589C259.701 44.3622 258.257 43.8413 256.881 43.1415C256.015 42.7016 255.207 42.1649 254.509 41.4869C253.448 40.4466 252.913 39.2021 253.057 37.6937C253.113 37.0993 253.317 36.6071 253.766 36.1875C254.441 35.5653 255.08 34.8974 255.738 34.2559C257.473 32.9385 259.384 31.9534 261.469 31.3375C263.63 30.6953 265.829 30.2524 268.079 30.0948C269.835 29.968 271.588 29.7758 273.357 29.9765C274.859 30.152 276.291 30.5502 277.642 31.2317C280.846 32.8556 281.857 37.1257 278.876 39.9866C277.903 40.9175 276.754 41.5602 275.478 41.951C272.956 42.7284 270.421 43.464 267.888 44.221C267.733 44.2663 267.599 44.3965 267.453 44.4919V44.4919Z" fill="#48873E"/>
<path d="M220.127 65.3839C220.36 66.7689 220.245 67.9358 219.848 69.0795C219.551 69.9225 219.084 70.6594 218.395 71.2396C217.238 72.2128 215.674 72.3911 214.329 71.7015C213.088 71.0622 212.304 70.0096 211.847 68.7463C211.413 67.5381 211.25 66.2814 211.441 64.986C211.601 63.9149 211.999 62.9687 212.677 62.1266C213.922 60.5764 215.95 60.218 217.626 61.2967C218.877 62.0956 219.566 63.2945 219.976 64.682C220.065 64.976 220.104 65.2848 220.128 65.3911L220.127 65.3839Z" fill="#010100"/>
<path d="M205.518 62.2717C202.864 62.7102 200.512 60.9502 199.819 58.2872C199.608 57.4772 200.075 56.6962 200.863 56.3792C201.554 56.0988 202.345 56.3817 202.785 57.0987C202.921 57.3196 203.025 57.5675 203.121 57.8093C203.253 58.1481 203.464 58.4237 203.734 58.6538C204.291 59.1332 204.924 59.1984 205.567 58.8447C206.59 58.2872 207.028 57.3641 207.169 56.2664C207.211 55.9159 207.186 55.5609 207.236 55.2165C207.359 54.3923 207.977 53.7788 208.683 53.7379C209.468 53.6923 210.223 54.2662 210.433 55.0691C210.467 55.1957 210.495 55.3306 210.493 55.4627C210.523 58.0577 209.614 60.1796 207.362 61.619C206.794 61.9832 206.161 62.1597 205.503 62.2667L205.518 62.2717Z" fill="#020200"/>
<path d="M225.288 51.6817C225.444 53.8107 224.87 55.6768 223.264 57.1648C222.339 58.0225 221.236 58.3944 220.004 58.3907C219.043 58.3898 218.195 58.0275 217.468 57.3981C216.531 56.5882 216.011 55.5393 215.776 54.3374C215.708 53.9889 215.713 53.6367 215.822 53.2908C216.041 52.6132 216.58 52.1581 217.274 52.1337C217.952 52.1115 218.474 52.4059 218.779 53.0114C218.937 53.3243 219.006 53.6799 219.136 54.0044C219.232 54.2462 219.322 54.5034 219.471 54.7078C219.801 55.1411 220.295 55.2054 220.757 54.9158C221.48 54.4622 221.829 53.7723 221.985 52.9653C222.08 52.4823 222.029 52.0067 222.006 51.5196C221.96 50.5454 222.525 49.8741 223.418 49.7681C224.297 49.6643 224.988 50.1968 225.214 51.151C225.254 51.3206 225.267 51.5017 225.294 51.6735L225.288 51.6817Z" fill="#020200"/>
<path d="M217.615 80.6533C216.168 80.7846 214.619 80.3966 213.263 79.3425C212.755 78.9507 212.367 78.4749 212.438 77.7832C212.538 76.8015 213.547 75.8724 214.772 76.4485C215.009 76.5591 215.225 76.7241 215.439 76.8748C216.572 77.6697 218.069 77.3333 218.89 76.6597C219.666 76.0223 220.166 75.2143 220.509 74.291C220.659 73.8801 220.768 73.439 220.983 73.0696C221.384 72.3791 222.094 72.1324 222.798 72.37C223.572 72.6336 224.018 73.2983 223.947 74.0852C223.692 76.9285 221.035 79.945 218.253 80.5567C218.125 80.5834 217.987 80.5969 217.615 80.6533V80.6533Z" fill="#020200"/>
<path d="M255.611 58.0827C255.936 58.0041 256.258 58.0945 256.545 58.3367C256.923 58.6528 257.156 59.0787 257.423 59.4776C257.528 59.6375 257.51 59.8086 257.462 59.9768C257.263 60.7391 256.807 61.3061 256.114 61.6673C255.21 62.1337 254.055 61.3933 253.924 60.293C253.8 59.2868 254.568 58.2626 255.612 58.0898L255.611 58.0827Z" fill="#D6AC29"/>
<path d="M262.62 64.6914C262.531 64.6829 262.444 64.6888 262.36 64.665C260.888 64.2948 260.381 62.9951 261.152 61.6045C261.422 61.1169 261.968 60.8952 262.475 60.9062C263.175 60.9247 263.704 61.3644 263.979 62.011C264.299 62.7606 263.513 64.3878 262.739 64.6514C262.697 64.6651 262.654 64.6716 262.612 64.6853L262.62 64.6914Z" fill="#D6AC29"/>
<path d="M260.064 54.8969C259.904 53.8961 260.152 53.2655 260.882 52.8549C261.543 52.4766 262.354 52.6978 262.687 53.3869C262.956 53.9537 263.056 54.5609 262.881 55.1878C262.696 55.8527 262.079 56.3709 261.463 56.3762C260.774 56.3781 260.29 55.9462 260.106 55.1688C260.092 55.0829 260.079 54.997 260.065 54.904L260.064 54.8969Z" fill="#D6AB29"/>
<path d="M214.696 66.7552C214.573 65.9467 214.667 65.2151 214.98 64.5307C215.279 63.8925 215.74 63.8374 216.184 64.3484C216.568 64.7954 216.759 65.3301 216.888 65.8817C217.058 66.6171 216.981 67.3609 216.708 68.0684C216.582 68.395 216.415 68.7424 216.015 68.7663C215.674 68.7887 215.472 68.5192 215.301 68.2669C214.973 67.7968 214.754 67.2737 214.696 66.7552V66.7552Z" fill="#F5B816"/>
<path d="M84.2834 43.9431C83.8677 45.0285 83.4521 46.114 83.0364 47.1994C82.8067 47.1479 82.6517 47.1476 82.536 47.0872C80.9335 46.2032 79.2742 45.4183 77.5399 44.8144C77.3567 44.7475 77.1983 44.6088 77.0243 44.5009C78.2513 44.1394 79.5287 44.1676 80.7909 44.072C81.949 43.979 83.1198 43.9833 84.2834 43.9431V43.9431Z" fill="#C63827"/>
<path d="M92.8402 44.5537C91.3016 45.3444 89.7612 46.1433 88.2226 46.934C87.5984 47.2586 86.9742 47.5832 86.2651 47.9405C86.1297 47.0842 86.5783 46.5051 86.7763 45.8527C86.9705 45.2166 87.1712 44.5905 87.3655 43.9544C88.5079 44.0471 89.6503 44.1397 90.7863 44.2223C91.481 44.2748 92.1776 44.3191 92.842 44.5455L92.8402 44.5537Z" fill="#C53827"/>
<path d="M98.6292 45.4041C100.513 45.8781 102.42 46.2884 104.288 46.8361C106.447 47.4664 108.591 48.1622 110.701 48.9363C114.157 50.2014 117.551 51.6248 120.812 53.3365C126.302 56.2106 131.205 59.8218 135.167 64.633C137.755 67.7684 139.852 71.2151 141.677 74.8332C144.47 80.3631 147.006 85.9989 149.149 91.8133C151.828 99.0812 153.629 106.574 154.454 114.27C154.932 118.747 154.856 123.238 154.496 127.726C154.244 130.887 153.74 134.017 153.171 137.133C152.6 140.257 151.754 143.302 150.391 146.188C148.18 150.863 144.802 154.442 140.33 157.018C135.136 160.009 129.5 161.473 123.526 161.759C120.486 161.904 117.504 161.562 114.577 160.708C112.701 160.159 110.95 159.319 109.204 158.463C106.823 157.284 104.428 156.128 101.938 155.208C97.7184 153.66 93.383 152.783 88.873 152.838C85.8064 152.873 82.9183 153.688 80.1388 154.941C78.4526 155.698 76.8536 156.605 75.2656 157.539C73.7679 158.416 72.2665 159.31 70.7389 160.129C68.2411 161.47 65.5596 161.902 62.7323 161.715C57.8417 161.393 53.4703 159.639 49.4632 156.951C42.6498 152.37 37.6696 146.298 34.8139 138.551C32.1115 131.235 30.8166 123.675 30.8478 115.888C30.8667 110.73 31.1264 105.575 31.5638 100.433C31.9288 96.1534 32.529 91.9004 33.461 87.7045C34.2561 84.1576 35.3903 80.7125 36.5965 77.2922C37.9327 73.5224 39.6261 69.9274 41.5919 66.4623C42.2932 65.2172 43.0337 63.9895 43.7952 62.7837C44.882 61.0486 46.2658 59.5263 47.6441 58.0287C48.816 56.76 50.0543 55.5407 51.3701 54.3989C53.5943 52.4714 56.0295 50.9096 58.6676 49.6341C62.9683 47.5528 67.4805 46.1038 72.176 45.2207C72.902 45.134 73.4182 45.6369 74.016 45.8913C76.2239 46.8423 78.3056 48.0488 80.5043 49.0407C80.9499 49.2438 81.5386 49.4618 81.4766 50.0845C81.4257 50.5807 80.9229 50.7863 80.5014 50.9757C78.3661 51.9682 76.2818 53.0409 74.2857 54.2968C74.115 54.4048 73.9297 54.5009 73.7718 54.629C73.2541 55.0549 72.2762 55.3433 72.7836 56.2313C73.2419 57.0309 74.076 56.6157 74.7111 56.3193C76.5197 55.4773 78.3755 54.7319 80.1113 53.7531C83.364 51.9272 86.7767 52.1158 90.2481 52.6962C91.5097 52.9102 92.7402 53.2635 93.9945 53.5102C94.5888 53.6263 95.3262 53.8346 95.5071 52.989C95.6687 52.2682 95.0638 51.8917 94.4569 51.6782C93.2986 51.2723 92.0632 51.133 90.882 50.7908C90.4117 50.6595 89.7598 50.608 89.7179 49.9878C89.6768 49.4796 90.2224 49.275 90.6248 49.0555C92.7402 47.9209 94.9111 46.8848 97.0156 45.722C97.4966 45.4599 98.0158 45.1806 98.6128 45.4004L98.6292 45.4041Z" fill="#C73426"/>
<path d="M98.6291 45.4041C96.2647 46.6119 93.892 47.8178 91.5321 49.0438C90.9663 49.3385 90.3287 49.5311 89.8456 49.9562C89.9882 50.3581 90.2846 50.3041 90.5061 50.3537C91.7038 50.6222 92.9071 50.8662 94.0993 51.1593C94.5423 51.2586 94.987 51.4271 95.3879 51.6374C95.9874 51.9611 96.2736 52.6447 96.1196 53.1779C95.9335 53.8159 95.3128 54.2015 94.5489 54.0733C93.7932 53.9469 93.0403 53.7695 92.2992 53.5776C90.8071 53.2 89.3094 52.9245 87.7796 52.7536C86.4932 52.6115 85.2318 52.8191 83.9535 52.7562C83.4329 52.7341 82.8689 53.0206 82.3607 53.2508C80.0795 54.2794 77.8074 55.3444 75.5307 56.3912C75.0206 56.6296 74.5151 56.8862 73.9895 57.0781C73.1949 57.3559 72.4814 57.0411 72.2053 56.3511C72.0182 55.879 72.0599 55.4238 72.4225 55.0749C72.7174 54.7969 73.0543 54.5628 73.4038 54.3486C75.7668 52.9168 78.1789 51.5735 80.7046 50.4535C80.9345 50.3502 81.1963 50.297 81.3098 50.0213C81.3175 49.7564 81.0722 49.7358 80.9091 49.6562C78.7142 48.5705 76.5229 47.4685 74.3024 46.4201C73.5616 46.0733 72.7879 45.7967 72.1861 45.2144C72.1763 45.0659 72.1501 44.9138 72.1503 44.759C72.1476 43.5797 72.94 42.9659 74.0364 43.3407C74.6597 43.5579 75.2529 43.8715 75.8607 44.1196C76.2398 44.2735 76.6298 44.3781 77.0226 44.5092C78.5005 44.6426 79.8208 45.2483 81.1238 45.8931C82.7137 46.6797 82.7219 46.6816 83.4036 45.1396C83.6123 44.6702 83.7862 44.2016 84.2799 43.9595C84.4675 43.5456 84.6323 43.118 84.8344 42.7159C85.021 42.3448 85.2786 42.0412 85.6892 41.901C86.3807 41.6603 87.2044 42.06 87.361 42.7834C87.4398 43.1623 87.3625 43.5838 87.3501 43.9853C87.6688 45.4075 86.9313 46.5068 86.379 47.51C88.4029 46.5528 90.3703 45.0409 92.8266 44.5764C94.4891 43.8479 96.1616 43.1131 97.8241 42.3846C98.1489 42.2423 98.4738 42.1001 98.814 42.0043C99.5593 41.7928 100.22 42.0356 100.522 42.6108C100.824 43.1861 100.666 43.8905 100.086 44.3628C99.6141 44.7387 99.1084 45.0728 98.6173 45.4186L98.6291 45.4041Z" fill="#006937"/>
<path d="M114.946 90.3399C115.086 90.3712 115.395 90.4146 115.685 90.5054C117.393 91.0346 118.041 92.5995 117.196 94.1393C116.155 96.0566 112.303 97.5935 110.014 96.392C107.178 94.896 108.003 92.1041 109.655 91.0723C111.238 90.085 112.951 89.7464 114.948 90.3317L114.946 90.3399Z" fill="#030100"/>
<path d="M108.629 109.141C106.683 108.713 105.176 107.67 104.115 105.987C103.828 105.536 103.69 105.075 103.862 104.537C104.164 103.615 105.258 103.31 105.945 103.971C106.164 104.184 106.34 104.438 106.518 104.685C107.935 106.74 111.153 107.066 113.019 106.125C113.748 105.755 114.432 105.315 115.026 104.742C115.245 104.533 115.468 104.308 115.738 104.179C116.161 103.982 116.605 103.926 117.031 104.254C117.488 104.597 117.678 105.019 117.578 105.581C117.489 106.052 117.244 106.418 116.903 106.746C114.558 108.982 111.828 109.858 108.631 109.133L108.629 109.141Z" fill="#040100"/>
<path d="M109.464 79.9743C109.274 81.0503 108.692 81.9951 107.838 82.7673C107.124 83.4159 106.286 83.7355 105.301 83.5148C104.317 83.2941 103.688 82.6799 103.354 81.7449C103.181 81.2501 103.125 80.73 103.194 80.2293C103.392 78.7336 103.949 77.3616 104.908 76.1999C105.533 75.4455 106.507 75.2937 107.429 75.3285C108.25 75.3576 108.801 75.9371 109.205 76.63C109.815 77.6786 109.767 78.7776 109.456 79.9725L109.464 79.9743Z" fill="#030100"/>
<path d="M117.42 80.7257C117.55 79.9547 117.91 79.2698 118.292 78.6068C118.604 78.0575 119.084 77.6834 119.749 77.6001C120.05 77.5644 120.358 77.5386 120.66 77.46C121.584 77.2198 122.252 77.6192 122.809 78.2861C123.36 78.9429 123.558 79.7101 123.575 80.557C123.61 82.2854 122.358 84.3361 120.835 85.0185C119.572 85.5785 118.359 85.1861 117.687 83.9945C117.482 83.6389 117.326 83.2597 117.299 82.8408C117.273 82.5339 117.221 82.2296 117.246 81.9255C117.277 81.5194 117.367 81.1181 117.43 80.7194L117.42 80.7257Z" fill="#040100"/>
<path d="M114.255 93.2305C113.444 93.8489 112.562 94.1329 111.564 94.0123C111.38 93.9883 111.146 93.9185 111.14 93.6763C111.134 93.5461 111.216 93.3751 111.312 93.2933C111.825 92.8491 112.454 92.6547 113.111 92.5697C113.617 92.5025 113.917 92.8537 114.253 93.2387L114.255 93.2305Z" fill="#C03426"/>
<path d="M333.561 52.75C332.181 51.9416 330.798 51.1404 329.419 50.3321C327.561 49.2488 325.571 48.5068 323.479 48.0234C321.157 47.4859 318.872 47.6227 316.624 48.416C314.827 49.0513 313.196 49.9913 311.636 51.0609C309.678 52.4008 307.868 53.9321 306.161 55.5815C303.45 58.2001 300.849 60.9223 298.65 64.0067C297.603 65.464 296.68 66.9961 295.792 68.545C294.309 71.1479 292.902 73.795 291.418 76.3979C290.125 78.6687 288.787 80.9016 287.453 83.145C286.415 84.8864 285.347 86.6144 284.302 88.3524C282.34 91.6259 280.247 94.8212 278.089 97.9685C275.057 102.391 271.897 106.727 268.589 110.951C266.2 113.991 263.665 116.91 260.801 119.519C259.154 121.021 257.429 122.425 255.527 123.59C251.187 126.238 246.752 128.712 242.013 130.596C237.414 132.424 232.696 133.864 227.841 134.845C225.506 135.318 223.157 135.556 220.784 135.599C219.04 135.628 217.302 135.686 215.564 135.798C213.585 135.919 211.599 135.923 209.617 135.92C209.424 135.918 209.226 135.949 209.036 135.904C206.957 135.392 204.813 135.472 202.698 135.223C201.491 135.082 200.283 135.151 199.084 135.311C198.709 135.364 198.324 135.474 197.972 135.626C195.966 136.54 196.054 138.937 197.35 139.925C198.657 140.928 199.95 141.941 201.461 142.636C203.442 143.549 205.429 144.447 207.39 145.403C210.871 147.11 214.379 148.76 217.785 150.608C220.646 152.158 223.566 153.561 226.52 154.909C229.832 156.415 233.196 157.788 236.637 158.96C238.923 159.743 241.259 160.401 243.562 161.131C244.719 161.494 245.855 161.901 247.006 162.296C251.043 163.675 255.193 164.625 259.393 165.353C260.391 165.529 261.402 165.675 262.381 165.929C263.102 166.116 263.809 166.182 264.533 166.116C266.89 165.899 269.254 165.668 271.628 165.905C272.006 165.941 272.399 165.87 272.778 165.792C276.72 164.981 280.618 164.037 284.377 162.562C284.687 162.444 284.977 162.272 285.282 162.126C285.098 161.541 284.546 161.406 284.094 161.152C282.849 160.45 281.856 159.471 281.088 158.291C280.664 157.638 280.557 156.905 281.278 156.356C282.009 155.803 282.669 156.101 283.161 156.742C283.901 157.699 284.692 158.602 285.695 159.296C286.585 159.911 286.14 160.887 286.373 161.687C288.406 160.96 290.34 160.03 292.176 158.913C291.269 157.826 289.871 157.377 288.884 156.366C287.634 155.092 286.206 153.99 285.086 152.566C284.787 152.191 284.47 151.816 284.279 151.359C283.942 150.554 283.76 149.681 284.617 149.142C285.529 148.577 286.135 149.201 286.633 149.94C288.024 152.007 289.819 153.735 291.712 155.308C292.821 156.227 293.354 157.079 293.049 158.453C293.542 158.375 293.935 158.077 294.345 157.838C300.573 154.264 306.357 150.097 311.647 145.219C317.301 140.011 322.57 134.423 327.806 128.81C329.729 126.754 331.372 124.488 332.688 121.999C333.592 120.283 334.626 118.662 335.701 117.052C337.642 114.163 339.74 111.39 341.725 108.539C343.047 106.641 344.504 104.831 345.655 102.809C347.362 99.8199 348.835 96.7304 349.976 93.4863C351.028 90.5077 351.744 87.46 351.916 84.2992C352.247 78.1734 351.049 72.3699 348.056 66.9743C347.372 65.7454 346.538 64.6129 345.698 63.4949C343.449 64.1212 341.289 64.0448 339.136 62.9554C336.951 61.8419 335.554 60.2201 335.199 57.7773C335.007 56.4355 334.723 55.1211 334.322 53.8311C334.185 53.3906 334.169 52.8401 333.54 52.7577L333.561 52.75Z" fill="#DD6026"/>
<path d="M333.561 52.7499C334.091 53.951 334.391 55.2117 334.638 56.4916C334.773 57.2024 334.879 57.9174 335.013 58.6282C335.369 60.5804 336.618 61.8971 338.226 62.8734C339.252 63.4995 340.389 63.9235 341.585 64.1824C343.075 64.5079 344.46 64.3992 345.722 63.4799C345.989 62.9821 346.42 62.7358 346.936 62.5121C349.942 61.2219 352.62 59.4111 355.074 57.2687C355.803 56.6269 356.451 55.9126 357.019 55.1259C357.419 54.5676 357.708 53.9662 357.769 53.2679C357.921 51.6218 356.809 50.4649 355.149 50.5598C354.453 50.6036 353.819 50.8341 353.22 51.1596C352.456 51.5749 351.7 52.0113 350.981 52.5C349.581 53.4515 348.215 54.4448 346.83 55.4208C346.596 55.5835 346.407 55.8197 346.066 55.8538C345.801 55.6691 345.997 55.4363 346.067 55.2496C346.367 54.4346 346.699 53.6259 347.007 52.8143C347.905 50.4121 348.688 47.9739 349.12 45.4422C349.279 44.5351 349.37 43.6228 349.19 42.7071C349.02 41.8658 348.644 41.1652 347.862 40.7315C347.081 40.2978 346.294 40.2908 345.506 40.721C344.857 41.0763 344.357 41.6052 343.932 42.1961C342.742 43.8492 341.808 45.6482 340.994 47.5114C340.75 48.0725 340.475 48.6273 340.213 49.1889C339.84 49.0853 339.912 48.7422 339.873 48.4873C339.482 46.1948 339.116 43.9052 338.715 41.6165C338.506 40.4244 338.209 39.2525 337.781 38.1161C337.541 37.4793 337.257 36.8651 336.842 36.3219C335.444 34.4975 333.397 34.6136 332.237 36.5964C331.817 37.3116 331.641 38.1232 331.508 38.9372C331.308 40.1404 331.3 41.3455 331.399 42.5476C331.603 45.0159 332.189 47.4168 332.827 49.7985C333.094 50.7722 333.481 51.7142 333.568 52.7355L333.561 52.7499Z" fill="#79AD50"/>
<path d="M293.063 158.459C293.167 158.087 293.516 157.864 293.582 157.439C293.718 156.6 293.594 156.131 292.853 155.742C292.365 155.489 291.964 155.162 291.594 154.789C290.339 153.522 289.078 152.252 287.841 150.967C287.445 150.555 287.068 150.099 286.867 149.532C286.766 149.258 286.617 149.013 286.345 148.861C285.734 148.515 285.11 148.251 284.439 148.657C283.736 149.074 283.513 149.741 283.6 150.517C283.671 151.155 283.951 151.705 284.333 152.224C285.564 153.918 287.137 155.272 288.686 156.659C288.792 156.752 288.94 156.812 289.032 156.916C289.88 157.906 291.006 158.448 292.18 158.906C292.531 158.868 292.818 158.704 293.06 158.449L293.063 158.459Z" fill="#AA4C24"/>
<path d="M286.38 161.69C286.481 161.474 286.606 161.261 286.671 161.029C286.91 160.194 286.699 159.439 285.967 158.993C284.905 158.333 284.139 157.451 283.451 156.439C282.681 155.301 281.096 155.387 280.469 156.584C280.122 157.237 280.313 157.939 280.721 158.496C281.685 159.838 282.795 161.056 284.374 161.72C284.691 161.85 284.987 162.006 285.297 162.15C285.701 162.093 286.071 161.958 286.384 161.701L286.38 161.69Z" fill="#AA4C24"/>
<path d="M306.121 81.2511C305.41 82.6459 305.225 84.1011 305.508 85.6253C305.806 87.2094 306.579 88.436 308.218 88.8748C309.912 89.3298 311.404 88.877 312.515 87.5281C313.869 85.8812 314.619 84.0233 314.452 81.8171C314.385 80.9624 314.302 80.1969 313.749 79.5367C313.166 78.8452 312.429 78.4672 311.547 78.2495C309.371 77.7009 307.619 78.4097 306.544 80.3617C306.381 80.654 306.259 80.9737 306.125 81.2617L306.121 81.2511Z" fill="#010100"/>
<path d="M303.543 97.9977C307.322 99.5547 311.04 99.6029 314.652 97.5001C315.709 96.8885 316.542 96.0235 317.268 95.0476C317.549 94.6703 317.636 94.2557 317.61 93.8228C317.492 92.4718 316.246 91.6207 314.871 92.4436C314.592 92.6111 314.354 92.8771 314.151 93.142C313.047 94.5724 311.51 95.1971 309.786 95.4288C307.365 95.747 305.205 95.0487 303.28 93.5834C302.974 93.3536 302.699 93.0767 302.342 92.9194C301.65 92.6148 300.81 92.7407 300.341 93.2759C299.862 93.815 299.699 94.4485 299.976 95.1554C300.122 95.5211 300.365 95.8094 300.654 96.0753C301.51 96.8765 302.451 97.5334 303.54 98.0049L303.543 97.9977Z" fill="#030100"/>
<path d="M297.267 153.312C297.613 153.473 297.954 153.667 298.356 153.688C298.945 153.725 299.562 153.399 299.767 152.864C299.985 152.3 300.012 151.734 299.588 151.23C299.499 151.119 299.375 151.026 299.266 150.94C297.425 149.576 296.201 147.605 294.46 146.138C294.208 145.924 294.014 145.624 293.863 145.326C293.622 144.846 293.195 144.63 292.732 144.475C291.431 144.045 290.27 145.143 290.583 146.489C290.75 147.206 291.061 147.858 291.61 148.376C293.088 149.765 294.577 151.15 296.042 152.549C296.408 152.895 296.837 153.086 297.27 153.305L297.267 153.312Z" fill="#AA4C24"/>
<path d="M231.414 144.732C231.727 144.229 231.654 143.687 231.294 143.161C231.208 143.042 231.12 142.931 231.024 142.816C229.639 141.077 228.243 139.341 226.875 137.583C226.475 137.065 225.984 136.705 225.373 136.49C224.304 136.107 223.169 136.98 223.259 138.108C223.295 138.615 223.507 139.029 223.82 139.412C225.098 140.987 226.316 142.614 227.778 144.038C228.195 144.443 228.564 144.895 228.988 145.285C229.771 145.999 230.91 145.758 231.404 144.736L231.414 144.732Z" fill="#AA4C24"/>
<path d="M231.202 135.34C230.239 134.901 229.753 134.982 229.154 135.684C228.573 136.368 228.567 137.154 229.141 137.92C229.282 138.108 229.451 138.292 229.63 138.454C230.87 139.6 232.072 140.772 233.124 142.094C233.579 142.665 234.167 142.816 234.806 142.649C236.043 142.331 236.361 141.271 235.67 140.152C235.169 139.341 234.522 138.619 233.909 137.879C233.386 137.25 232.814 136.668 232.279 136.043C231.984 135.696 231.591 135.522 231.205 135.333L231.202 135.34Z" fill="#AA4C24"/>
<path d="M311.406 70.9317C311.234 71.5263 310.828 72.362 310.773 73.2911C310.729 74.1204 310.956 74.8216 311.727 75.2591C312.527 75.71 313.301 75.6499 314.01 75.0513C314.455 74.6802 314.818 74.2189 315.081 73.6929C315.535 72.7742 315.773 71.7903 315.836 70.7685C315.893 69.9282 315.564 69.2583 314.766 68.8783C313.994 68.519 313.108 68.632 312.477 69.232C312.062 69.6343 311.698 70.0956 311.398 70.9283L311.406 70.9317Z" fill="#070200"/>
<path d="M322.286 77.7549C322.571 77.0292 322.935 76.3404 322.93 75.5408C322.933 74.6664 322.537 74.0445 321.777 73.7169C321.146 73.4497 320.539 73.4911 319.999 73.8968C318.665 74.8962 317.838 76.2018 317.759 77.8993C317.709 78.8923 318.194 79.757 318.914 80.0573C319.747 80.4007 320.668 80.1376 321.382 79.3575C321.813 78.8838 322.038 78.3054 322.296 77.751L322.286 77.7549Z" fill="#060200"/>
<path d="M310.948 83.4622C310.993 83.3259 311.158 82.9731 311.225 82.6016C311.289 82.2373 311.082 81.9658 310.746 81.8007C310.406 81.6252 310.034 81.6531 309.828 81.9252C309.136 82.8468 308.871 83.8883 309.11 85.0334C309.176 85.3266 309.53 85.3951 309.806 85.1993C310.35 84.8219 310.571 84.233 310.948 83.4622V83.4622Z" fill="#D35E26"/>
</svg>
