<svg width="351" height="192" viewBox="0 0 351 192" fill="none" xmlns="http://www.w3.org/2000/svg">
<path d="M248.42 44.4941C249.982 46.9447 250.961 49.608 251.471 52.4669C252.222 56.7169 252.102 60.9744 251.615 65.2362C251.107 69.6915 249.842 73.9467 248.109 78.0676C246.932 80.8745 245.721 83.6571 244.527 86.459C242.354 91.5839 240.743 96.8872 239.41 102.28C238.624 105.445 237.83 108.604 236.822 111.707C235.363 116.226 233.394 120.485 230.626 124.36C228.904 126.774 226.937 128.975 224.817 131.039C218.817 136.853 212.276 142.002 205.371 146.687C202.034 148.949 198.404 150.634 194.704 152.197C188.937 154.637 183.057 156.765 177.131 158.79C174.252 159.775 171.329 160.613 168.353 161.298C166.936 161.622 165.529 162.018 164.11 162.328C161.739 162.848 159.342 163.241 156.912 163.367C155.238 163.452 153.564 163.537 151.887 163.506C148.737 163.441 145.826 162.63 143.059 161.079C140.83 159.835 139.076 158.19 137.679 156.102C137.261 155.477 136.857 154.85 136.465 154.207C134.771 151.417 134.079 148.374 134.096 145.12C134.106 143.317 133.962 141.509 133.842 139.711C133.718 137.892 133.133 136.172 132.529 134.47C131.306 131.024 130.07 127.586 128.833 124.142C128.131 122.191 127.362 120.272 126.828 118.266C126.145 115.712 125.576 113.14 125.327 110.498C125.007 107.105 125.034 103.726 125.325 100.343C125.755 95.3795 127.398 90.811 129.922 86.5409C132.231 82.6401 135.043 79.1538 138.529 76.2318C139.809 75.152 141.089 74.0722 142.36 72.9792C145.115 70.6071 148.214 68.7613 151.379 67.008C152.082 66.616 152.709 66.1551 153.303 65.6258C154.781 64.3038 156.285 63.0143 157.7 61.6139C159.052 60.2817 160.396 58.9506 161.584 57.4601C162.107 56.8024 162.701 56.222 163.379 55.7166C163.874 55.3561 164.268 54.8644 164.718 54.4449C172.692 46.8602 176.169 43.6905 187.092 38.2731C190.726 36.4707 194.437 34.8326 198.267 33.4984C200.475 32.732 202.71 32.0423 204.976 31.4648C207.114 30.914 209.255 30.3776 211.443 30.0608C214.832 29.577 218.215 29.6359 221.598 30.0827C226.03 30.671 230.366 31.6398 234.544 33.255C235.284 33.5383 236.036 33.8051 236.705 34.2457C236.721 34.9755 236.115 35.2868 235.695 35.7019C233.903 37.4669 233.822 39.5293 235.759 41.1689C238.715 43.6719 242.104 45.0625 246.099 44.5234C246.861 44.4226 247.635 44.0638 248.419 44.487L248.42 44.4941Z" fill="#FEBD11"/>
<path d="M248.453 44.4919C247.544 44.6442 246.634 44.782 245.72 44.9497C244.527 45.1596 243.354 45.0663 242.192 44.7589C240.701 44.3622 239.257 43.8413 237.881 43.1415C237.015 42.7016 236.207 42.1649 235.509 41.4869C234.448 40.4466 233.913 39.2021 234.057 37.6937C234.113 37.0993 234.317 36.6071 234.766 36.1875C235.441 35.5653 236.08 34.8974 236.738 34.2559C238.473 32.9385 240.384 31.9534 242.469 31.3375C244.63 30.6953 246.829 30.2524 249.079 30.0948C250.835 29.968 252.588 29.7758 254.357 29.9765C255.859 30.152 257.291 30.5502 258.642 31.2317C261.846 32.8556 262.857 37.1257 259.876 39.9866C258.903 40.9175 257.754 41.5602 256.478 41.951C253.956 42.7284 251.421 43.464 248.888 44.221C248.733 44.2663 248.599 44.3965 248.453 44.4919V44.4919Z" fill="#48873E"/>
<path d="M201.127 65.3839C201.36 66.7689 201.245 67.9358 200.848 69.0795C200.551 69.9225 200.084 70.6594 199.395 71.2396C198.238 72.2128 196.674 72.3911 195.329 71.7015C194.088 71.0622 193.304 70.0096 192.847 68.7463C192.413 67.5381 192.25 66.2814 192.441 64.986C192.601 63.9149 192.999 62.9687 193.677 62.1266C194.922 60.5764 196.95 60.218 198.626 61.2967C199.877 62.0956 200.566 63.2945 200.976 64.682C201.065 64.976 201.104 65.2848 201.128 65.3911L201.127 65.3839Z" fill="#010100"/>
<path d="M186.518 62.2717C183.864 62.7102 181.512 60.9502 180.819 58.2872C180.608 57.4772 181.075 56.6962 181.863 56.3792C182.554 56.0988 183.345 56.3817 183.785 57.0987C183.921 57.3196 184.025 57.5675 184.121 57.8093C184.253 58.1481 184.464 58.4237 184.734 58.6538C185.291 59.1332 185.924 59.1984 186.567 58.8447C187.59 58.2872 188.028 57.3641 188.169 56.2664C188.211 55.9159 188.186 55.5609 188.236 55.2165C188.359 54.3923 188.977 53.7788 189.683 53.7379C190.468 53.6923 191.223 54.2662 191.433 55.0691C191.467 55.1957 191.495 55.3306 191.493 55.4627C191.523 58.0577 190.614 60.1796 188.362 61.619C187.794 61.9832 187.161 62.1597 186.503 62.2667L186.518 62.2717Z" fill="#020200"/>
<path d="M206.288 51.6817C206.444 53.8107 205.87 55.6768 204.264 57.1648C203.339 58.0225 202.236 58.3944 201.004 58.3907C200.043 58.3898 199.195 58.0275 198.468 57.3981C197.531 56.5882 197.011 55.5393 196.776 54.3374C196.708 53.9889 196.713 53.6367 196.822 53.2908C197.041 52.6132 197.58 52.1581 198.274 52.1337C198.952 52.1115 199.474 52.4059 199.779 53.0114C199.937 53.3243 200.006 53.6799 200.136 54.0044C200.232 54.2462 200.322 54.5034 200.471 54.7078C200.801 55.1411 201.295 55.2054 201.757 54.9158C202.48 54.4622 202.829 53.7723 202.985 52.9653C203.08 52.4823 203.029 52.0067 203.006 51.5196C202.96 50.5454 203.525 49.8741 204.418 49.7681C205.297 49.6643 205.988 50.1968 206.214 51.151C206.254 51.3206 206.267 51.5017 206.294 51.6735L206.288 51.6817Z" fill="#020200"/>
<path d="M198.615 80.6533C197.168 80.7846 195.619 80.3966 194.263 79.3425C193.755 78.9507 193.367 78.4749 193.438 77.7832C193.538 76.8015 194.547 75.8724 195.772 76.4485C196.009 76.5591 196.225 76.7241 196.439 76.8748C197.572 77.6697 199.069 77.3333 199.89 76.6597C200.666 76.0223 201.166 75.2143 201.509 74.291C201.659 73.8801 201.768 73.439 201.983 73.0696C202.384 72.3791 203.094 72.1324 203.798 72.37C204.572 72.6336 205.018 73.2983 204.947 74.0852C204.692 76.9285 202.035 79.945 199.253 80.5567C199.125 80.5834 198.987 80.5969 198.615 80.6533V80.6533Z" fill="#020200"/>
<path d="M236.611 58.0827C236.936 58.0041 237.258 58.0945 237.545 58.3367C237.923 58.6528 238.156 59.0787 238.423 59.4776C238.528 59.6375 238.51 59.8086 238.462 59.9768C238.263 60.7391 237.807 61.3061 237.114 61.6673C236.21 62.1337 235.055 61.3933 234.924 60.293C234.8 59.2868 235.568 58.2626 236.612 58.0898L236.611 58.0827Z" fill="#D6AC29"/>
<path d="M243.62 64.6914C243.531 64.6829 243.444 64.6888 243.36 64.665C241.888 64.2948 241.381 62.9951 242.152 61.6045C242.422 61.1169 242.968 60.8952 243.475 60.9062C244.175 60.9247 244.704 61.3644 244.979 62.011C245.299 62.7606 244.513 64.3878 243.739 64.6514C243.697 64.6651 243.654 64.6716 243.612 64.6853L243.62 64.6914Z" fill="#D6AC29"/>
<path d="M241.064 54.8969C240.904 53.8961 241.152 53.2655 241.882 52.8549C242.543 52.4766 243.354 52.6978 243.687 53.3869C243.956 53.9537 244.056 54.5609 243.881 55.1878C243.696 55.8527 243.079 56.3709 242.463 56.3762C241.774 56.3781 241.29 55.9462 241.106 55.1688C241.092 55.0829 241.079 54.997 241.065 54.904L241.064 54.8969Z" fill="#D6AB29"/>
<path d="M195.696 66.7552C195.573 65.9467 195.667 65.2151 195.98 64.5307C196.279 63.8925 196.74 63.8374 197.184 64.3484C197.568 64.7954 197.759 65.3301 197.888 65.8817C198.058 66.6171 197.981 67.3609 197.708 68.0684C197.582 68.395 197.415 68.7424 197.015 68.7663C196.674 68.7887 196.472 68.5192 196.301 68.2669C195.973 67.7968 195.754 67.2737 195.696 66.7552V66.7552Z" fill="#F5B816"/>
<path d="M65.2834 43.9431C64.8677 45.0285 64.4521 46.114 64.0364 47.1994C63.8067 47.1479 63.6517 47.1476 63.536 47.0872C61.9335 46.2032 60.2742 45.4183 58.5399 44.8144C58.3567 44.7475 58.1983 44.6088 58.0243 44.5009C59.2513 44.1394 60.5287 44.1676 61.7909 44.072C62.949 43.979 64.1198 43.9833 65.2834 43.9431V43.9431Z" fill="#C63827"/>
<path d="M73.8402 44.5537C72.3016 45.3444 70.7612 46.1433 69.2226 46.934C68.5984 47.2586 67.9742 47.5832 67.2651 47.9405C67.1297 47.0842 67.5783 46.5051 67.7763 45.8527C67.9705 45.2166 68.1712 44.5905 68.3655 43.9544C69.5079 44.0471 70.6503 44.1397 71.7863 44.2223C72.481 44.2748 73.1776 44.3191 73.842 44.5455L73.8402 44.5537Z" fill="#C53827"/>
<path d="M79.6292 45.4041C81.5132 45.8781 83.4201 46.2884 85.2876 46.8361C87.4468 47.4664 89.5913 48.1622 91.701 48.9363C95.1567 50.2014 98.5511 51.6248 101.812 53.3365C107.302 56.2106 112.205 59.8218 116.167 64.633C118.755 67.7684 120.852 71.2151 122.677 74.8332C125.47 80.3631 128.006 85.9989 130.149 91.8133C132.828 99.0812 134.629 106.574 135.454 114.27C135.932 118.747 135.856 123.238 135.496 127.726C135.244 130.887 134.74 134.017 134.171 137.133C133.6 140.257 132.754 143.302 131.391 146.188C129.18 150.863 125.802 154.442 121.33 157.018C116.136 160.009 110.5 161.473 104.526 161.759C101.486 161.904 98.504 161.562 95.5765 160.708C93.7008 160.159 91.9504 159.319 90.2038 158.463C87.823 157.284 85.4284 156.128 82.9378 155.208C78.7184 153.66 74.383 152.783 69.873 152.838C66.8064 152.873 63.9183 153.688 61.1388 154.941C59.4526 155.698 57.8536 156.605 56.2656 157.539C54.7679 158.416 53.2665 159.31 51.7389 160.129C49.2411 161.47 46.5596 161.902 43.7323 161.715C38.8417 161.393 34.4703 159.639 30.4632 156.951C23.6498 152.37 18.6696 146.298 15.8139 138.551C13.1115 131.235 11.8166 123.675 11.8478 115.888C11.8667 110.73 12.1264 105.575 12.5638 100.433C12.9288 96.1534 13.529 91.9004 14.461 87.7045C15.2561 84.1576 16.3903 80.7125 17.5965 77.2922C18.9327 73.5224 20.6261 69.9274 22.5919 66.4623C23.2932 65.2172 24.0337 63.9895 24.7952 62.7837C25.882 61.0486 27.2658 59.5263 28.6441 58.0287C29.816 56.76 31.0543 55.5407 32.3701 54.3989C34.5943 52.4714 37.0295 50.9096 39.6676 49.6341C43.9683 47.5528 48.4805 46.1038 53.176 45.2207C53.902 45.134 54.4182 45.6369 55.016 45.8913C57.2239 46.8423 59.3056 48.0488 61.5043 49.0407C61.9499 49.2438 62.5386 49.4618 62.4766 50.0845C62.4257 50.5807 61.9229 50.7863 61.5014 50.9757C59.3661 51.9682 57.2818 53.0409 55.2857 54.2968C55.115 54.4048 54.9297 54.5009 54.7718 54.629C54.2541 55.0549 53.2762 55.3433 53.7836 56.2313C54.2419 57.0309 55.076 56.6157 55.7111 56.3193C57.5197 55.4773 59.3755 54.7319 61.1113 53.7531C64.364 51.9272 67.7767 52.1158 71.2481 52.6962C72.5097 52.9102 73.7402 53.2635 74.9945 53.5102C75.5888 53.6263 76.3262 53.8346 76.5071 52.989C76.6687 52.2682 76.0638 51.8917 75.4569 51.6782C74.2986 51.2723 73.0632 51.133 71.882 50.7908C71.4117 50.6595 70.7598 50.608 70.7179 49.9878C70.6768 49.4796 71.2224 49.275 71.6248 49.0555C73.7402 47.9209 75.9111 46.8848 78.0156 45.722C78.4966 45.4599 79.0158 45.1806 79.6128 45.4004L79.6292 45.4041Z" fill="#C73426"/>
<path d="M79.6291 45.4041C77.2647 46.6119 74.892 47.8178 72.5321 49.0438C71.9663 49.3385 71.3287 49.5311 70.8456 49.9562C70.9882 50.3581 71.2846 50.3041 71.5061 50.3537C72.7038 50.6222 73.9071 50.8662 75.0993 51.1593C75.5423 51.2586 75.987 51.4271 76.3879 51.6374C76.9874 51.9611 77.2736 52.6447 77.1196 53.1779C76.9335 53.8159 76.3128 54.2015 75.5489 54.0733C74.7932 53.9469 74.0403 53.7695 73.2992 53.5776C71.8071 53.2 70.3094 52.9245 68.7796 52.7536C67.4932 52.6115 66.2318 52.8191 64.9535 52.7562C64.4329 52.7341 63.8689 53.0206 63.3607 53.2508C61.0795 54.2794 58.8074 55.3444 56.5307 56.3912C56.0206 56.6296 55.5151 56.8862 54.9895 57.0781C54.1949 57.3559 53.4814 57.0411 53.2053 56.3511C53.0182 55.879 53.0599 55.4238 53.4225 55.0749C53.7174 54.7969 54.0543 54.5628 54.4038 54.3486C56.7668 52.9168 59.1789 51.5735 61.7046 50.4535C61.9345 50.3502 62.1963 50.297 62.3098 50.0213C62.3175 49.7564 62.0722 49.7358 61.9091 49.6562C59.7142 48.5705 57.5229 47.4685 55.3024 46.4201C54.5616 46.0733 53.7879 45.7967 53.1861 45.2144C53.1763 45.0659 53.1501 44.9138 53.1503 44.759C53.1476 43.5797 53.94 42.9659 55.0364 43.3407C55.6597 43.5579 56.2529 43.8715 56.8607 44.1196C57.2398 44.2735 57.6298 44.3781 58.0226 44.5092C59.5005 44.6426 60.8208 45.2483 62.1238 45.8931C63.7137 46.6797 63.7219 46.6816 64.4036 45.1396C64.6123 44.6702 64.7862 44.2016 65.2799 43.9595C65.4675 43.5456 65.6323 43.118 65.8344 42.7159C66.021 42.3448 66.2786 42.0412 66.6892 41.901C67.3807 41.6603 68.2044 42.06 68.361 42.7834C68.4398 43.1623 68.3625 43.5838 68.3501 43.9853C68.6688 45.4075 67.9313 46.5068 67.379 47.51C69.4029 46.5528 71.3703 45.0409 73.8266 44.5764C75.4891 43.8479 77.1616 43.1131 78.8241 42.3846C79.1489 42.2423 79.4738 42.1001 79.814 42.0043C80.5593 41.7928 81.22 42.0356 81.5219 42.6108C81.8237 43.1861 81.6658 43.8905 81.0861 44.3628C80.6141 44.7387 80.1084 45.0728 79.6173 45.4186L79.6291 45.4041Z" fill="#006937"/>
<path d="M95.9462 90.3399C96.0857 90.3712 96.3947 90.4146 96.6845 90.5054C98.3925 91.0346 99.0411 92.5995 98.1962 94.1393C97.1547 96.0566 93.3034 97.5935 91.0138 96.392C88.1785 94.896 89.0025 92.1041 90.6555 91.0723C92.2381 90.085 93.9511 89.7464 95.948 90.3317L95.9462 90.3399Z" fill="#030100"/>
<path d="M89.6288 109.141C87.6827 108.713 86.1761 107.67 85.1146 105.987C84.8281 105.536 84.6902 105.075 84.8624 104.537C85.1639 103.615 86.2577 103.31 86.9451 103.971C87.1645 104.184 87.3401 104.438 87.5175 104.685C88.935 106.74 92.1533 107.066 94.0185 106.125C94.7476 105.755 95.4322 105.315 96.0258 104.742C96.245 104.533 96.4678 104.308 96.7379 104.179C97.1613 103.982 97.6045 103.926 98.0308 104.254C98.488 104.597 98.6779 105.019 98.5776 105.581C98.4894 106.052 98.2435 106.418 97.9029 106.746C95.5578 108.982 92.8283 109.858 89.6306 109.133L89.6288 109.141Z" fill="#040100"/>
<path d="M90.4638 79.9743C90.2743 81.0503 89.692 81.9951 88.8382 82.7673C88.1241 83.4159 87.2857 83.7355 86.3012 83.5148C85.3168 83.2941 84.6876 82.6799 84.3544 81.7449C84.181 81.2501 84.1253 80.73 84.1945 80.2293C84.3919 78.7336 84.9494 77.3616 85.9077 76.1999C86.5335 75.4455 87.5066 75.2937 88.4294 75.3285C89.25 75.3576 89.8007 75.9371 90.2054 76.63C90.8147 77.6786 90.7665 78.7776 90.4556 79.9725L90.4638 79.9743Z" fill="#030100"/>
<path d="M98.4202 80.7257C98.55 79.9547 98.9103 79.2698 99.2916 78.6068C99.6043 78.0575 100.084 77.6834 100.749 77.6001C101.05 77.5644 101.358 77.5386 101.66 77.46C102.584 77.2198 103.252 77.6192 103.809 78.2861C104.36 78.9429 104.558 79.7101 104.575 80.557C104.61 82.2854 103.358 84.3361 101.835 85.0185C100.572 85.5785 99.3589 85.1861 98.6869 83.9945C98.4823 83.6389 98.326 83.2597 98.2993 82.8408C98.2733 82.5339 98.2209 82.2296 98.246 81.9255C98.2767 81.5194 98.3667 81.1181 98.4303 80.7194L98.4202 80.7257Z" fill="#040100"/>
<path d="M95.2551 93.2305C94.4444 93.8489 93.5622 94.1329 92.5639 94.0123C92.3798 93.9883 92.1456 93.9185 92.1395 93.6763C92.1343 93.5461 92.2157 93.3751 92.3115 93.2933C92.8247 92.8491 93.4542 92.6547 94.1108 92.5697C94.617 92.5025 94.9174 92.8537 95.2532 93.2387L95.2551 93.2305Z" fill="#C03426"/>
<path d="M314.561 52.75C313.181 51.9416 311.798 51.1404 310.419 50.3321C308.561 49.2488 306.571 48.5068 304.479 48.0234C302.157 47.4859 299.872 47.6227 297.624 48.416C295.827 49.0513 294.196 49.9913 292.636 51.0609C290.678 52.4008 288.868 53.9321 287.161 55.5815C284.45 58.2001 281.849 60.9223 279.65 64.0067C278.603 65.464 277.68 66.9961 276.792 68.545C275.309 71.1479 273.902 73.795 272.418 76.3979C271.125 78.6687 269.787 80.9016 268.453 83.145C267.415 84.8864 266.347 86.6144 265.302 88.3524C263.34 91.6259 261.247 94.8212 259.089 97.9685C256.057 102.391 252.897 106.727 249.589 110.951C247.2 113.991 244.665 116.91 241.801 119.519C240.154 121.021 238.429 122.425 236.527 123.59C232.187 126.238 227.752 128.712 223.013 130.596C218.414 132.424 213.696 133.864 208.841 134.845C206.506 135.318 204.157 135.556 201.784 135.599C200.04 135.628 198.302 135.686 196.564 135.798C194.585 135.919 192.599 135.923 190.617 135.92C190.424 135.918 190.226 135.949 190.036 135.904C187.957 135.392 185.813 135.472 183.698 135.223C182.491 135.082 181.283 135.151 180.084 135.311C179.709 135.364 179.324 135.474 178.972 135.626C176.966 136.54 177.054 138.937 178.35 139.925C179.657 140.928 180.95 141.941 182.461 142.636C184.442 143.549 186.429 144.447 188.39 145.403C191.871 147.11 195.379 148.76 198.785 150.608C201.646 152.158 204.566 153.561 207.52 154.909C210.832 156.415 214.196 157.788 217.637 158.96C219.923 159.743 222.259 160.401 224.562 161.131C225.719 161.494 226.855 161.901 228.006 162.296C232.043 163.675 236.193 164.625 240.393 165.353C241.391 165.529 242.402 165.675 243.381 165.929C244.102 166.116 244.809 166.182 245.533 166.116C247.89 165.899 250.254 165.668 252.628 165.905C253.006 165.941 253.399 165.87 253.778 165.792C257.72 164.981 261.618 164.037 265.377 162.562C265.687 162.444 265.977 162.272 266.282 162.126C266.098 161.541 265.546 161.406 265.094 161.152C263.849 160.45 262.856 159.471 262.088 158.291C261.664 157.638 261.557 156.905 262.278 156.356C263.009 155.803 263.669 156.101 264.161 156.742C264.901 157.699 265.692 158.602 266.695 159.296C267.585 159.911 267.14 160.887 267.373 161.687C269.406 160.96 271.34 160.03 273.176 158.913C272.269 157.826 270.871 157.377 269.884 156.366C268.634 155.092 267.206 153.99 266.086 152.566C265.787 152.191 265.47 151.816 265.279 151.359C264.942 150.554 264.76 149.681 265.617 149.142C266.529 148.577 267.135 149.201 267.633 149.94C269.024 152.007 270.819 153.735 272.712 155.308C273.821 156.227 274.354 157.079 274.049 158.453C274.542 158.375 274.935 158.077 275.345 157.838C281.573 154.264 287.357 150.097 292.647 145.219C298.301 140.011 303.57 134.423 308.806 128.81C310.729 126.754 312.372 124.488 313.688 121.999C314.592 120.283 315.626 118.662 316.701 117.052C318.642 114.163 320.74 111.39 322.725 108.539C324.047 106.641 325.504 104.831 326.655 102.809C328.362 99.8199 329.835 96.7304 330.976 93.4863C332.028 90.5077 332.744 87.46 332.916 84.2992C333.247 78.1734 332.049 72.3699 329.056 66.9743C328.372 65.7454 327.538 64.6129 326.698 63.4949C324.449 64.1212 322.289 64.0448 320.136 62.9554C317.951 61.8419 316.554 60.2201 316.199 57.7773C316.007 56.4355 315.723 55.1211 315.322 53.8311C315.185 53.3906 315.169 52.8401 314.54 52.7577L314.561 52.75Z" fill="#DD6026"/>
<path d="M314.561 52.7499C315.091 53.951 315.391 55.2117 315.638 56.4916C315.773 57.2024 315.879 57.9174 316.013 58.6282C316.369 60.5804 317.618 61.8971 319.226 62.8734C320.252 63.4995 321.389 63.9235 322.585 64.1824C324.075 64.5079 325.46 64.3992 326.722 63.4799C326.989 62.9821 327.42 62.7358 327.936 62.5121C330.942 61.2219 333.62 59.4111 336.074 57.2687C336.803 56.6269 337.451 55.9126 338.019 55.1259C338.419 54.5676 338.708 53.9662 338.769 53.2679C338.921 51.6218 337.809 50.4649 336.149 50.5598C335.453 50.6036 334.819 50.8341 334.22 51.1596C333.456 51.5749 332.7 52.0113 331.981 52.5C330.581 53.4515 329.215 54.4448 327.83 55.4208C327.596 55.5835 327.407 55.8197 327.066 55.8538C326.801 55.6691 326.997 55.4363 327.067 55.2496C327.367 54.4346 327.699 53.6259 328.007 52.8143C328.905 50.4121 329.688 47.9739 330.12 45.4422C330.279 44.5351 330.37 43.6228 330.19 42.7071C330.02 41.8658 329.644 41.1652 328.862 40.7315C328.081 40.2978 327.294 40.2908 326.506 40.721C325.857 41.0763 325.357 41.6052 324.932 42.1961C323.742 43.8492 322.808 45.6482 321.994 47.5114C321.75 48.0725 321.475 48.6273 321.213 49.1889C320.84 49.0853 320.912 48.7422 320.873 48.4873C320.482 46.1948 320.116 43.9052 319.715 41.6165C319.506 40.4244 319.209 39.2525 318.781 38.1161C318.541 37.4793 318.257 36.8651 317.842 36.3219C316.444 34.4975 314.397 34.6136 313.237 36.5964C312.817 37.3116 312.641 38.1232 312.508 38.9372C312.308 40.1404 312.3 41.3455 312.399 42.5476C312.603 45.0159 313.189 47.4168 313.827 49.7985C314.094 50.7722 314.481 51.7142 314.568 52.7355L314.561 52.7499Z" fill="#79AD50"/>
<path d="M274.063 158.459C274.167 158.087 274.516 157.864 274.582 157.439C274.718 156.6 274.594 156.131 273.853 155.742C273.365 155.489 272.964 155.162 272.594 154.789C271.339 153.522 270.078 152.252 268.841 150.967C268.445 150.555 268.068 150.099 267.867 149.532C267.766 149.258 267.617 149.013 267.345 148.861C266.734 148.515 266.11 148.251 265.439 148.657C264.736 149.074 264.513 149.741 264.6 150.517C264.671 151.155 264.951 151.705 265.333 152.224C266.564 153.918 268.137 155.272 269.686 156.659C269.792 156.752 269.94 156.812 270.032 156.916C270.88 157.906 272.006 158.448 273.18 158.906C273.531 158.868 273.818 158.704 274.06 158.449L274.063 158.459Z" fill="#AA4C24"/>
<path d="M267.38 161.69C267.481 161.474 267.606 161.261 267.671 161.029C267.91 160.194 267.699 159.439 266.967 158.993C265.905 158.333 265.139 157.451 264.451 156.439C263.681 155.301 262.096 155.387 261.469 156.584C261.122 157.237 261.313 157.939 261.721 158.496C262.685 159.838 263.795 161.056 265.374 161.72C265.691 161.85 265.987 162.006 266.297 162.15C266.701 162.093 267.071 161.958 267.384 161.701L267.38 161.69Z" fill="#AA4C24"/>
<path d="M287.121 81.2511C286.41 82.6459 286.225 84.1011 286.508 85.6253C286.806 87.2094 287.579 88.436 289.218 88.8748C290.912 89.3298 292.404 88.877 293.515 87.5281C294.869 85.8812 295.619 84.0233 295.452 81.8171C295.385 80.9624 295.302 80.1969 294.749 79.5367C294.166 78.8452 293.429 78.4672 292.547 78.2495C290.371 77.7009 288.619 78.4097 287.544 80.3617C287.381 80.654 287.259 80.9737 287.125 81.2617L287.121 81.2511Z" fill="#010100"/>
<path d="M284.543 97.9977C288.322 99.5547 292.04 99.6029 295.652 97.5001C296.709 96.8885 297.542 96.0235 298.268 95.0476C298.549 94.6703 298.636 94.2557 298.61 93.8228C298.492 92.4718 297.246 91.6207 295.871 92.4436C295.592 92.6111 295.354 92.8771 295.151 93.142C294.047 94.5724 292.51 95.1971 290.786 95.4288C288.365 95.747 286.205 95.0487 284.28 93.5834C283.974 93.3536 283.699 93.0767 283.342 92.9194C282.65 92.6148 281.81 92.7407 281.341 93.2759C280.862 93.815 280.699 94.4485 280.976 95.1554C281.122 95.5211 281.365 95.8094 281.654 96.0753C282.51 96.8765 283.451 97.5334 284.54 98.0049L284.543 97.9977Z" fill="#030100"/>
<path d="M278.267 153.312C278.613 153.473 278.954 153.667 279.356 153.688C279.945 153.725 280.562 153.399 280.767 152.864C280.985 152.3 281.012 151.734 280.588 151.23C280.499 151.119 280.375 151.026 280.266 150.94C278.425 149.576 277.201 147.605 275.46 146.138C275.208 145.924 275.014 145.624 274.863 145.326C274.622 144.846 274.195 144.63 273.732 144.475C272.431 144.045 271.27 145.143 271.583 146.489C271.75 147.206 272.061 147.858 272.61 148.376C274.088 149.765 275.577 151.15 277.042 152.549C277.408 152.895 277.837 153.086 278.27 153.305L278.267 153.312Z" fill="#AA4C24"/>
<path d="M212.414 144.732C212.727 144.229 212.654 143.687 212.294 143.161C212.208 143.042 212.12 142.931 212.024 142.816C210.639 141.077 209.243 139.341 207.875 137.583C207.475 137.065 206.984 136.705 206.373 136.49C205.304 136.107 204.169 136.98 204.259 138.108C204.295 138.615 204.507 139.029 204.82 139.412C206.098 140.987 207.316 142.614 208.778 144.038C209.195 144.443 209.564 144.895 209.988 145.285C210.771 145.999 211.91 145.758 212.404 144.736L212.414 144.732Z" fill="#AA4C24"/>
<path d="M212.202 135.34C211.239 134.901 210.753 134.982 210.154 135.684C209.573 136.368 209.567 137.154 210.141 137.92C210.282 138.108 210.451 138.292 210.63 138.454C211.87 139.6 213.072 140.772 214.124 142.094C214.579 142.665 215.167 142.816 215.806 142.649C217.043 142.331 217.361 141.271 216.67 140.152C216.169 139.341 215.522 138.619 214.909 137.879C214.386 137.25 213.814 136.668 213.279 136.043C212.984 135.696 212.591 135.522 212.205 135.333L212.202 135.34Z" fill="#AA4C24"/>
<path d="M292.406 70.9317C292.234 71.5263 291.828 72.362 291.773 73.2911C291.729 74.1204 291.956 74.8216 292.727 75.2591C293.527 75.71 294.301 75.6499 295.01 75.0513C295.455 74.6802 295.818 74.2189 296.081 73.6929C296.535 72.7742 296.773 71.7903 296.836 70.7685C296.893 69.9282 296.564 69.2583 295.766 68.8783C294.994 68.519 294.108 68.632 293.477 69.232C293.062 69.6343 292.698 70.0956 292.398 70.9283L292.406 70.9317Z" fill="#070200"/>
<path d="M303.286 77.7549C303.571 77.0292 303.935 76.3404 303.93 75.5408C303.933 74.6664 303.537 74.0445 302.777 73.7169C302.146 73.4497 301.539 73.4911 300.999 73.8968C299.665 74.8962 298.838 76.2018 298.759 77.8993C298.709 78.8923 299.194 79.757 299.914 80.0573C300.747 80.4007 301.668 80.1376 302.382 79.3575C302.813 78.8838 303.038 78.3054 303.296 77.751L303.286 77.7549Z" fill="#060200"/>
<path d="M291.948 83.4622C291.993 83.3259 292.158 82.9731 292.225 82.6016C292.289 82.2373 292.082 81.9658 291.746 81.8007C291.406 81.6252 291.034 81.6531 290.828 81.9252C290.136 82.8468 289.871 83.8883 290.11 85.0334C290.176 85.3266 290.53 85.3951 290.806 85.1993C291.35 84.8219 291.571 84.233 291.948 83.4622V83.4622Z" fill="#D35E26"/>
</svg>
