<svg width="390" height="145" viewBox="0 0 390 145" fill="none" xmlns="http://www.w3.org/2000/svg">
<mask id="mask0_209_1515" style="mask-type:alpha" maskUnits="userSpaceOnUse" x="-45" y="0" width="463" height="245">
<path d="M339.864 205.383C367.878 189.412 394.081 167.989 408.231 139.011C422.379 110.031 422.079 72.4723 401.25 47.854C383.307 26.6439 354.481 18.6366 327.213 13.317C237.802 -4.12211 145.084 -4.43727 55.5584 12.3947C30.5295 17.1003 4.72284 23.6355 -14.6673 40.1455C-44.103 65.2072 -52.0585 110.087 -38.7793 146.395C-25.5002 182.703 5.96167 210.383 41.4933 225.617C76.3156 240.548 114.77 244.628 152.342 244.695C192.974 244.769 232.108 244.759 271.629 233.744C295.415 227.116 318.409 217.613 339.864 205.383Z" fill="white"/>
</mask>
<g mask="url(#mask0_209_1515)">
<path d="M339.864 205.383C367.878 189.412 394.081 167.989 408.231 139.011C422.379 110.031 422.079 72.4723 401.25 47.854C383.307 26.6439 354.481 18.6366 327.213 13.317C237.802 -4.12211 145.084 -4.43727 55.5584 12.3947C30.5295 17.1003 4.72284 23.6355 -14.6673 40.1455C-44.103 65.2072 -52.0585 110.087 -38.7793 146.395C-25.5002 182.703 5.96167 210.383 41.4933 225.617C76.3156 240.548 114.77 244.628 152.342 244.695C192.974 244.769 232.108 244.759 271.629 233.744C295.415 227.116 318.409 217.613 339.864 205.383Z" fill="#533F2C"/>
<path d="M342.382 90.2753L340.61 90.8105C329.555 94.2358 321.256 98.5301 293.025 114.307C270.074 127.132 256.112 152.712 258.228 176.869C260.542 203.281 280.991 222.29 316.479 226.093C352.297 229.93 383.016 215.595 400.342 189.982C416.752 165.723 417.728 135.881 401.687 114.493C395.587 106.36 389.544 100.233 383.403 95.9106C370.954 87.1486 358.059 85.6532 342.382 90.2753ZM382.617 97.0263C388.633 101.26 394.576 107.286 400.595 115.311C416.267 136.207 415.312 165.417 399.212 189.218C382.168 214.413 351.939 228.52 316.624 224.736C281.761 221.001 261.842 202.485 259.587 176.75C257.519 153.135 271.203 128.064 293.69 115.498L301.938 110.902C324.858 98.1836 332.088 94.7325 342.768 91.5839C358.066 87.0735 370.53 88.519 382.617 97.0263Z" fill="white"/>
<path d="M347.285 47.4842C336.097 50.6713 323.972 55.6159 309.294 62.7809L303.538 65.6201C295.645 69.5492 290.105 72.5297 263.328 86.9875C224.402 108.006 200.715 149.937 204.303 189.52C208.224 232.768 242.868 263.884 303.083 270.117C363.899 276.413 416.039 252.903 445.449 210.897C473.296 171.121 474.951 122.209 447.752 87.1695C437.392 73.8217 427.134 63.7735 416.719 56.6905C395.648 42.3608 373.846 39.9178 347.285 47.4842ZM415.952 57.8187C426.24 64.8152 436.396 74.7647 446.675 88.0061C473.485 122.545 471.852 170.805 444.331 210.114C415.207 251.713 363.55 275.005 303.223 268.76C243.626 262.59 209.521 231.958 205.662 189.396C202.124 150.37 225.52 108.952 263.977 88.188L290.529 73.8938C298.697 69.5408 302.117 67.8289 308.667 64.6074C323.833 57.1493 336.25 52.0462 347.659 48.7963C373.852 41.3349 395.237 43.7312 415.952 57.8187Z" fill="white"/>
<path d="M339.503 119.762L338.122 120.161C331.792 122.054 326.812 124.509 310.554 133.124C297.017 140.297 288.776 154.614 290.027 168.155C291.396 182.975 303.483 193.629 324.383 195.752C345.446 197.892 363.525 189.892 373.729 175.589C383.414 162.014 383.99 145.292 374.508 133.303C370.919 128.766 367.359 125.344 363.737 122.926C356.379 118.015 348.751 117.176 339.503 119.762ZM362.98 124.061C366.475 126.393 369.932 129.718 373.438 134.15C382.521 145.634 381.968 161.692 372.619 174.797C362.702 188.697 345.101 196.486 324.521 194.395C304.235 192.334 292.69 182.158 291.385 168.03C290.186 155.052 298.13 141.251 311.193 134.329L317.467 131.019C329.544 124.687 333.744 122.81 339.595 121.153L339.87 121.076C348.756 118.592 355.974 119.386 362.98 124.061Z" fill="white"/>
<path d="M337.687 140.779L337.004 140.934C333.499 141.751 330.802 142.794 321.855 146.519C314.341 149.647 309.732 155.939 310.439 161.956C311.213 168.537 317.947 173.201 329.469 174.12C341.027 175.043 350.967 171.587 356.604 165.378C362.027 159.406 362.354 151.967 357.016 146.665C355.034 144.697 353.066 143.21 351.062 142.159C346.991 140.024 342.78 139.66 337.687 140.779ZM350.428 143.367C352.306 144.352 354.165 145.756 356.054 147.633C360.843 152.389 360.553 159 355.594 164.461C350.256 170.34 340.734 173.651 329.578 172.76C318.635 171.887 312.479 167.623 311.794 161.797C311.165 156.449 315.384 150.691 322.379 147.778L326.399 146.114C332.613 143.563 334.826 142.804 337.98 142.112C342.778 141.058 346.664 141.393 350.428 143.367Z" fill="white"/>
<path d="M246.836 -165.458C192.264 -154.543 120.938 -105.695 68.0728 -46.5453C14.3227 13.5947 -4.70912 66.7292 26.9625 85.4737C71.7287 111.968 133.321 111.968 211.715 85.533C292.882 43.59 342.555 3.48731 360.826 -34.8826C375.202 -65.0717 374.566 -103.287 357.893 -130.525C338.404 -162.362 300.327 -176.156 246.836 -165.458ZM356.729 -129.812C373.151 -102.985 373.779 -65.2571 359.595 -35.4692C341.483 2.56428 292.014 42.5032 211.183 84.2806C133.227 110.56 72.0284 110.56 27.6574 84.2995C-2.86867 66.2331 15.8737 13.9067 69.09 -45.6361C121.776 -104.585 192.867 -153.273 247.103 -164.12C300.065 -174.712 337.559 -161.13 356.729 -129.812Z" fill="white"/>
<path d="M231.884 -133.493C191.916 -125.193 139.709 -88.0661 101.014 -43.1097C61.6344 2.64272 47.6841 43.0853 70.9838 57.4042C103.788 77.5642 148.904 77.5642 206.299 57.4669C265.732 25.5791 302.094 -4.90438 315.478 -34.0896C326.014 -57.0636 325.548 -86.1407 313.325 -106.875C299.029 -131.127 271.091 -141.636 231.884 -133.493ZM312.15 -106.182C324.136 -85.8489 324.594 -57.2417 314.238 -34.6584C301.008 -5.80913 264.847 24.5054 205.751 56.222C148.804 76.1534 104.098 76.1534 71.6981 56.2418C49.5001 42.6 63.1816 2.93657 102.048 -42.2196C140.564 -86.9688 192.536 -123.928 232.161 -132.157C270.824 -140.187 298.167 -129.902 312.15 -106.182Z" fill="white"/>
<path d="M216.993 -97.6355C190.915 -92.3268 156.885 -68.6055 131.662 -39.8804C105.929 -10.575 96.7942 15.3824 112.167 24.6429C133.592 37.5491 163.032 37.5492 200.457 24.7038L202.765 23.4817C240.168 3.53877 263.11 -15.5384 271.677 -33.8505C278.57 -48.585 278.265 -67.2304 270.263 -80.5371C260.899 -96.1067 242.61 -102.85 216.993 -97.6355ZM269.094 -79.8339C276.852 -66.9332 277.149 -48.7669 270.441 -34.4286C261.856 -16.0792 238.35 3.23707 199.918 23.4548C162.935 36.1399 133.897 36.1399 112.871 23.4742C98.6231 14.8913 107.478 -10.2716 132.687 -38.9802C157.731 -67.5015 191.526 -91.0588 217.265 -96.2986C242.345 -101.404 260.046 -94.8775 269.094 -79.8339Z" fill="white"/>
<path d="M200.8 -60.2819C189.834 -57.571 175.611 -45.532 165.069 -30.9544L164.344 -29.9382C154.094 -15.4123 150.577 -2.6623 157.043 2.0676C166.095 8.68874 178.502 8.68875 194.198 2.14669C210.452 -8.22434 220.368 -18.1187 224.035 -27.6368C226.93 -35.1511 226.802 -44.6469 223.435 -51.4451C219.462 -59.4676 211.652 -62.9644 200.8 -60.2819ZM222.213 -50.8396C225.402 -44.399 225.525 -35.2992 222.762 -28.1273C219.221 -18.9369 209.495 -9.2319 193.569 0.942119C178.376 7.26303 166.456 7.26303 157.849 0.966414C152.143 -3.20737 155.79 -15.7936 166.175 -30.155C176.545 -44.4956 190.537 -56.3396 201.127 -58.9574C211.365 -61.4881 218.527 -58.2816 222.213 -50.8396Z" fill="white"/>
<path d="M493.69 -220.006C424.291 -195.588 384.325 -125.672 389.887 -51.3267C392.536 -15.9196 405.677 16.7215 427.795 41.0679C451.876 67.5753 485.5 83.2831 526.623 85.5677C567.321 87.8287 597.488 69.2645 615.396 34.3976C631.361 3.31237 636.573 -39.3959 630.686 -83.1895C624.865 -126.492 608.736 -166.599 585.884 -192.801C560.522 -221.882 528.658 -232.31 493.69 -220.006ZM584.856 -191.905C607.517 -165.921 623.546 -126.062 629.334 -83.0078C635.186 -39.4715 630.008 2.96052 614.182 33.7743C596.513 68.176 566.841 86.4355 526.699 84.2054C485.93 81.9405 452.642 66.39 428.805 40.1505C406.899 16.038 393.874 -16.3144 391.247 -51.4285C385.729 -125.189 425.36 -194.518 494.143 -218.719C528.552 -230.826 559.842 -220.586 584.856 -191.905Z" fill="white"/>
<path d="M354.225 9.41543C348.361 16.5834 348.686 22.9144 354.13 27.7527C358.508 31.6444 366.09 34.3148 373.786 35.0844C387.923 36.4981 397.838 23.7506 393.608 9.65139C389.205 -5.02703 366.465 -5.54385 354.225 9.41543ZM392.302 10.0434C396.258 23.2312 387.072 35.0419 373.922 33.7269C366.487 32.9833 359.168 30.4056 355.036 26.733C350.153 22.3923 349.87 16.8935 355.281 10.2794C366.903 -3.92458 388.257 -3.43926 392.302 10.0434Z" fill="white"/>
<path d="M-37.0578 157.924C-93.9549 179.66 -125.022 222.88 -126.52 274.17C-127.911 321.827 -102.976 369.493 -61.7467 396.528C-15.093 427.121 45.019 442.889 92.5947 433.122C151.162 421.098 187.333 373.192 191.713 286.844C196.197 198.44 173.443 149.706 126.441 134.038C87.8252 121.166 34.97 130.408 -37.0578 157.924ZM126.009 135.332C172.328 150.772 194.807 198.917 190.35 286.775C186 372.534 150.242 419.894 92.3203 431.786C45.1351 441.473 -14.6242 425.797 -60.9985 395.387C-101.832 368.611 -126.534 321.393 -125.156 274.21C-123.675 223.474 -92.956 180.739 -36.5709 159.199C35.1802 131.788 87.7836 122.59 126.009 135.332Z" fill="white"/>
</g>
</svg>
