<svg width="114" height="102" viewBox="0 0 114 102" fill="none" xmlns="http://www.w3.org/2000/svg">
<path fill-rule="evenodd" clip-rule="evenodd" d="M54.7097 38.6776C54.7097 38.6776 57.3521 36.9512 56.8822 29.8217C56.8822 29.8217 61.0612 31.7774 65.6203 28.4706L66.672 38.5953C66.672 38.5953 63.511 42.1857 60.1966 41.8375C56.8822 41.4893 54.7097 38.6776 54.7097 38.6776Z" fill="#DCAD7F"/>
<path fill-rule="evenodd" clip-rule="evenodd" d="M56.9836 29.6049C59.6855 30.8693 62.507 30.4331 65.4799 28.2768C65.629 28.1687 65.8393 28.2625 65.8583 28.4458L66.9099 38.5704C66.9168 38.6369 66.8956 38.7032 66.8515 38.7533C64.6973 41.2003 62.4677 42.3166 60.1716 42.0754C57.8958 41.8363 56.008 40.7491 54.5204 38.8238C54.435 38.7133 54.462 38.5536 54.5789 38.4772C56.246 37.388 56.9516 34.5118 56.6435 29.8373C56.6315 29.6557 56.8187 29.5278 56.9836 29.6049ZM66.4226 38.5147L65.424 28.9008L65.2268 29.0346C62.4854 30.8485 59.8256 31.2578 57.2695 30.249L57.1443 30.198L57.1505 30.3078C57.3731 34.6 56.7109 37.3907 55.1244 38.6713L55.0537 38.7261L55.1675 38.8638C56.4854 40.4254 58.1004 41.327 60.0217 41.576L60.2216 41.5995C62.3447 41.8225 64.4321 40.7773 66.4924 38.4371L66.4226 38.5147Z" fill="black"/>
<path fill-rule="evenodd" clip-rule="evenodd" d="M60.2052 30.4803C55.3758 30.4803 51.4608 26.3289 51.4608 21.2072C51.4608 16.0854 55.3758 11.9336 60.2052 11.9336C65.0346 11.9336 68.9496 16.0854 68.9496 21.2072C68.9496 26.3289 65.0346 30.4803 60.2052 30.4803Z" fill="#DCAD7F"/>
<path fill-rule="evenodd" clip-rule="evenodd" d="M60.2052 12.1729C55.5155 12.1729 51.7 16.2257 51.7 21.2073C51.7 26.1889 55.5155 30.2412 60.2052 30.2412C64.8949 30.2412 68.7104 26.1889 68.7104 21.2073C68.7104 16.2257 64.8949 12.1729 60.2052 12.1729ZM60.2052 30.7197C55.2514 30.7197 51.2216 26.4525 51.2216 21.2073C51.2216 15.9616 55.2514 11.6945 60.2052 11.6945C65.159 11.6945 69.1889 15.9616 69.1889 21.2073C69.1889 26.4525 65.159 30.7197 60.2052 30.7197Z" fill="black"/>
<path fill-rule="evenodd" clip-rule="evenodd" d="M59.9491 24.4911C59.8161 24.4691 59.6898 24.561 59.6687 24.6944C59.5563 25.3926 58.8342 25.3658 58.7519 25.3586C58.6165 25.3414 58.5007 25.45 58.4902 25.5844C58.4801 25.7194 58.5811 25.8371 58.7156 25.8481C58.7462 25.85 58.7787 25.8514 58.8127 25.8514C59.2644 25.8514 60.0142 25.6332 60.152 24.772C60.1735 24.6389 60.0831 24.5126 59.9491 24.4911ZM55.2881 17.7042C55.2451 17.7042 54.2469 17.6894 53.3598 18.4516C53.2569 18.5396 53.2455 18.6942 53.333 18.7971C53.3818 18.8535 53.4503 18.8822 53.5192 18.8822C53.5756 18.8822 53.6326 18.8626 53.679 18.8229C54.4202 18.1865 55.2704 18.1956 55.2771 18.1942C55.4092 18.1851 55.5236 18.0894 55.5264 17.9549C55.5293 17.8195 55.4231 17.7075 55.2881 17.7042ZM61.0927 18.4516C60.2056 17.6894 59.206 17.7028 59.1644 17.7042C59.0294 17.7075 58.9223 17.8205 58.9251 17.9554C58.929 18.0913 59.04 18.1832 59.1763 18.1942C59.1811 18.1923 60.0261 18.1808 60.7735 18.8229C60.8195 18.8626 60.8764 18.8822 60.9329 18.8822C61.0018 18.8822 61.0702 18.8535 61.119 18.7971C61.2066 18.6942 61.1951 18.5396 61.0927 18.4516ZM54.7776 19.9899C54.4986 19.9899 54.2728 20.3488 54.2728 20.7924C54.2728 21.235 54.4986 21.5943 54.7776 21.5943C55.0561 21.5943 55.2819 21.235 55.2819 20.7924C55.2819 20.3488 55.0561 19.9899 54.7776 19.9899ZM59.6749 19.9899C59.396 19.9899 59.1706 20.3488 59.1706 20.7924C59.1706 21.235 59.396 21.5943 59.6749 21.5943C59.9534 21.5943 60.1793 21.235 60.1793 20.7924C60.1793 20.3488 59.9534 19.9899 59.6749 19.9899ZM57.6921 23.4456L56.47 23.2973L56.8533 21.8398C56.8877 21.7092 56.8097 21.5752 56.6791 21.5407C56.549 21.5044 56.414 21.5843 56.3796 21.7154L55.9245 23.4442C55.9063 23.5126 55.9193 23.5853 55.959 23.6442C55.9987 23.703 56.0614 23.7413 56.1317 23.7494L57.6337 23.9317C57.6433 23.9332 57.6533 23.9337 57.6629 23.9337C57.7854 23.9337 57.8906 23.8427 57.906 23.7188C57.9222 23.5839 57.8265 23.4623 57.6921 23.4456Z" fill="black"/>
<path fill-rule="evenodd" clip-rule="evenodd" d="M57.5506 30.0823L55.5883 36.2194H29.2113C29.2113 36.2194 27.714 32.0594 29.5638 30.0823C31.4131 28.1047 35.1122 24.5479 33.4389 20.8234C31.7656 17.0993 31.6773 9.96597 38.8112 8.72922C45.9457 7.49151 40.7493 4.04552 47.8832 0.952232C55.0171 -2.14058 60.5656 5.81302 60.5656 5.81302C63.4724 -0.991919 71.6531 -0.214038 75.0279 1.87146C80.1181 5.01757 75.9787 11.9986 84.7858 10.4963C93.5933 8.99392 98.2615 14.2964 98.7897 17.9953C99.3184 21.694 95.7953 24.6364 98.9658 28.7014C102.136 32.7666 98.9658 36.5582 98.9658 36.5582H65.6514C65.6514 36.5582 62.9733 29.3789 65.0284 27.0219C66.0558 25.8443 65.9251 24.7098 65.5385 23.87C65.0926 22.9041 64.8313 21.8554 64.9442 20.7967C65.093 19.4053 64.7634 17.5087 62.268 16.5352C58.0406 14.8853 59.6909 11.3503 59.6909 11.3503C59.2564 13.928 56.4702 15.5775 54.6893 15.5775C52.9088 15.5775 51.9239 17.5073 51.9239 17.5073L51.6506 18.337C51.4134 19.1906 51.2862 20.0951 51.2862 21.03C51.2862 25.1811 53.794 28.7085 57.2855 29.9904L57.5506 30.0823Z" fill="#FECB51"/>
<path fill-rule="evenodd" clip-rule="evenodd" d="M65.8222 36.3147H98.8485C99.2968 35.7285 101.561 32.4241 98.7743 28.8517C96.7269 26.2252 97.3733 24.0271 97.9987 21.9011C98.3647 20.6596 98.7423 19.3767 98.549 18.03C98.2772 16.1263 96.923 14.0765 95.0158 12.6812C93.1535 11.3188 89.8744 9.87405 84.8268 10.7371C79.3419 11.6711 78.6409 9.299 77.8974 6.78598C77.3892 5.06892 76.8643 3.29334 74.9001 2.07893C72.889 0.836483 69.1836 0.108175 65.9968 1.12257C63.5675 1.89567 61.8153 3.50564 60.7894 5.90914C60.754 5.99006 60.678 6.04575 60.5913 6.05527C60.4995 6.06432 60.4172 6.02432 60.3674 5.95292C60.3129 5.87436 54.8451 -1.80358 47.9793 1.1764C44.5999 2.64115 44.0752 4.16543 43.6131 5.5107C43.0965 7.01307 42.6501 8.31073 38.8523 8.96956C36.3815 9.39752 34.6242 10.5691 33.6294 12.4499C32.2521 15.0528 32.6525 18.4807 33.6602 20.7234C35.3003 24.3731 32.0396 27.8181 30.0916 29.8771L29.7405 30.2489C28.2133 31.8819 29.1432 35.2065 29.3866 35.9749H55.4121L57.2467 30.235L57.2065 30.2201C53.5182 28.8665 51.0431 25.174 51.0431 21.0299C51.0431 20.0921 51.1688 19.1644 51.4169 18.2718L51.6931 17.4311C51.7505 17.3121 52.7823 15.3341 54.689 15.3341C56.1457 15.3341 58.3788 14.136 59.1937 12.1933C59.2889 11.6454 59.4568 11.2769 59.4707 11.2474C59.5224 11.1365 59.6468 11.0808 59.7636 11.1175C59.8794 11.1541 59.9506 11.2712 59.9306 11.3911C59.8755 11.7172 59.7851 12.0281 59.6679 12.3242C59.5875 12.8212 59.5774 13.4748 59.8406 14.1303C60.2181 15.0709 61.0651 15.804 62.356 16.3082C64.9834 17.333 65.3456 19.3286 65.1863 20.8229C65.0882 21.7402 65.2801 22.7313 65.7586 23.7681C66.1428 24.5992 66.3586 25.8664 65.2107 27.1822C63.4384 29.2158 65.4504 35.2567 65.8222 36.3147ZM98.9657 36.8018H65.6514C65.5499 36.8018 65.459 36.7391 65.4236 36.6434C65.3126 36.3448 62.7197 29.2995 64.8451 26.8616C65.6289 25.963 65.7882 24.9917 65.3179 23.9728C64.8025 22.8546 64.5953 21.7773 64.703 20.7705C64.8442 19.4461 64.5217 17.6763 62.1804 16.7623C60.7555 16.2062 59.8162 15.3798 59.3879 14.3069C59.2492 13.9594 59.176 13.6152 59.1463 13.2915C58.041 14.8929 56.0825 15.8216 54.689 15.8216C53.0817 15.8216 52.149 17.6006 52.139 17.6191L51.8809 18.4137C51.6485 19.2524 51.5289 20.1369 51.5289 21.0299C51.5289 24.9702 53.8759 28.4789 57.3692 29.7608L57.6295 29.8517C57.7544 29.8953 57.8228 30.0302 57.7821 30.156L55.8198 36.2931C55.7883 36.3941 55.6945 36.463 55.589 36.463H29.2115C29.1091 36.463 29.018 36.3989 28.9829 36.3022C28.9198 36.1261 27.4576 31.9781 29.3866 29.9158L29.7396 29.5412C31.6031 27.5717 34.7234 24.2751 33.2171 20.9233C32.161 18.5722 31.7459 14.97 33.2 12.2219C34.2693 10.2001 36.1434 8.94483 38.7702 8.48878C42.2848 7.87942 42.6681 6.76363 43.1539 5.3517C43.625 3.9826 44.2104 2.27889 47.7867 0.728441C54.161 -2.0345 59.3334 3.84647 60.5129 5.34027C61.6077 3.03768 63.4455 1.42297 65.8504 0.658439C69.1793 -0.400267 73.0503 0.363783 75.1547 1.66384C77.2777 2.97581 77.8543 4.92613 78.3634 6.64793C79.1017 9.14665 79.6883 11.1193 84.745 10.2563C89.9606 9.36752 93.3645 10.8704 95.3019 12.2871C97.3422 13.7799 98.7356 15.9006 99.0303 17.9604C99.238 19.4124 98.8447 20.7476 98.4652 22.0391C97.847 24.1389 97.2628 26.1224 99.1571 28.5507C102.411 32.7236 99.1849 36.6754 99.1514 36.7147C99.1054 36.7702 99.0375 36.8018 98.9657 36.8018Z" fill="black"/>
<path fill-rule="evenodd" clip-rule="evenodd" d="M87.1906 63.2773L91.0745 72.8365L113.153 66.4755L106.116 56.2114C98.0667 44.4726 84.7484 37.4561 70.5148 37.4561H67.0606C66.1357 39.404 63.8461 40.7863 61.1589 40.7954C58.4717 40.7863 56.1821 39.404 55.2577 37.4561H51.8035C37.5698 37.4561 22.75 44.2583 14.7009 55.997L8.19727 66.1616L31.2825 73.6442L35.1271 63.2773L33.7309 73.7141L30.7203 91.3474H91.5975L88.5869 73.7136L87.1906 63.2773Z" fill="#EFF2F7"/>
<path fill-rule="evenodd" clip-rule="evenodd" d="M31.0112 91.1024H91.3076L88.3457 73.7547L86.9481 63.3098C86.9323 63.1873 87.0088 63.0725 87.128 63.0409C87.2485 63.0079 87.3715 63.071 87.4179 63.1849L91.2191 72.5403L112.76 66.3339L105.914 56.3506C97.9074 44.6731 84.6743 37.701 70.5153 37.701H67.2132C66.1754 39.726 63.8193 41.0313 61.1599 41.0409C58.499 41.0313 56.1424 39.726 55.1055 37.701H51.8035C37.066 37.701 22.5817 44.9377 14.9033 56.1363L8.57435 66.0267L31.1347 73.3394L34.898 63.1926C34.941 63.0753 35.0664 63.0107 35.1865 63.0399C35.308 63.0696 35.387 63.1859 35.3702 63.3098L33.974 73.7471L31.0112 91.1024ZM91.598 91.5924H30.7208C30.6485 91.5924 30.5801 91.5603 30.5332 91.5053C30.4868 91.4507 30.4672 91.3775 30.4796 91.3062L33.4898 73.6734L34.5936 65.4219L31.5122 73.7294C31.4667 73.8528 31.3318 73.917 31.2074 73.8777L8.1217 66.3946C8.04945 66.3712 7.9925 66.3157 7.96667 66.2449C7.94131 66.1726 7.94992 66.0937 7.99107 66.03L14.4952 55.8655C22.2668 44.531 36.9091 37.2115 51.8035 37.2115H55.2577C55.3524 37.2115 55.4386 37.2661 55.4792 37.3513C56.3975 39.2863 58.6272 40.5423 61.1599 40.5509C63.6906 40.5423 65.9208 39.2863 66.8395 37.3513C66.8802 37.2661 66.9663 37.2115 67.0611 37.2115H70.5153C84.836 37.2115 98.2198 44.2626 106.318 56.0731L113.355 66.3367C113.4 66.4018 113.41 66.4846 113.384 66.5583C113.357 66.6324 113.297 66.6894 113.221 66.7109L91.143 73.0724C91.0219 73.1083 90.8951 73.0452 90.8482 72.9294L87.6892 65.1544L88.83 73.6811L91.8392 91.3062C91.8511 91.3775 91.8315 91.4507 91.7851 91.5053C91.7387 91.5603 91.6698 91.5924 91.598 91.5924Z" fill="black"/>
<path fill-rule="evenodd" clip-rule="evenodd" d="M51.2714 73.7002L38.5723 70.5063C37.5502 70.2489 36.9296 69.2115 37.1866 68.189L44.0888 40.7495C44.3457 39.727 45.3831 39.1069 46.4056 39.3638L59.1047 42.5582C60.1268 42.8152 60.7474 43.8525 60.49 44.8751L53.5882 72.3145C53.3313 73.3371 52.2939 73.9577 51.2714 73.7002Z" fill="#FF5613"/>
<path fill-rule="evenodd" clip-rule="evenodd" d="M45.9362 39.5504C45.6391 39.5504 45.3467 39.6303 45.0855 39.7868C44.7036 40.0155 44.4338 40.3782 44.3256 40.8093L37.4239 68.2493C37.2004 69.1392 37.7421 70.0445 38.6316 70.2685L51.3307 73.4624C51.7614 73.571 52.2092 73.5055 52.5906 73.2772C52.9724 73.049 53.2418 72.6858 53.3504 72.2552L60.2522 44.8152C60.4756 43.9252 59.934 43.0195 59.044 42.7955L46.3453 39.6016C46.2099 39.5672 46.0726 39.5504 45.9362 39.5504ZM51.7403 74.0041C51.5642 74.0041 51.3867 73.982 51.2111 73.938L38.5125 70.7441C37.3607 70.4541 36.6593 69.2814 36.9488 68.1296L43.8505 40.6897C43.9912 40.1318 44.3405 39.6619 44.8338 39.3662C45.3276 39.0714 45.9066 38.9863 46.465 39.126L59.1636 42.3199C60.3153 42.6103 61.0168 43.7831 60.7273 44.9344L53.8256 72.3748C53.6849 72.9327 53.3356 73.4021 52.8423 73.6978C52.5035 73.9002 52.125 74.0036 51.7403 74.0041Z" fill="black"/>
<path fill-rule="evenodd" clip-rule="evenodd" d="M45.6262 42.6056C45.4788 43.1922 45.8348 43.787 46.4209 43.9343C47.0076 44.0822 47.6023 43.7262 47.7497 43.1396C47.8976 42.5534 47.5416 41.9582 46.9549 41.8108C46.3688 41.6629 45.7735 42.0189 45.6262 42.6056Z" fill="#EEF2F8"/>
<path fill-rule="evenodd" clip-rule="evenodd" d="M45.8639 42.6649C45.8084 42.885 45.8424 43.1137 45.9587 43.3089C46.0754 43.5037 46.2606 43.6415 46.4807 43.6965C46.7013 43.7525 46.9295 43.7185 47.1243 43.6022C47.3195 43.4855 47.4573 43.3003 47.5123 43.0797C47.5678 42.8596 47.5343 42.6314 47.4176 42.4361C47.3008 42.2409 47.1156 42.1036 46.8955 42.0486C46.4405 41.9304 45.9778 42.2113 45.8639 42.6649ZM46.6912 44.2133C46.5812 44.2133 46.4706 44.1994 46.3615 44.1711C46.0142 44.0845 45.7223 43.8673 45.5381 43.5601C45.3548 43.2529 45.3017 42.8931 45.3888 42.5457C45.5692 41.8289 46.2984 41.3954 47.0152 41.573C47.3621 41.66 47.6544 41.8773 47.8377 42.1849C48.0219 42.4921 48.075 42.8524 47.9875 43.1993C47.9004 43.5462 47.6831 43.8391 47.3759 44.0228C47.1654 44.1487 46.93 44.2133 46.6912 44.2133Z" fill="black"/>
<path fill-rule="evenodd" clip-rule="evenodd" d="M18.4915 62.8666C17.3068 67.7223 17.2082 69.0822 17.2082 69.0822L9.7404 66.662C9.7404 66.662 -7.80212 91.1731 6.76611 100.293C21.3337 109.413 32.5854 72.9336 32.5854 72.9336C32.5854 72.9336 34.8133 71.0158 36.9177 68.3463C36.9282 68.274 36.9311 68.2018 36.9492 68.1295L40.1446 55.4251C39.8541 54.8299 39.5733 54.5758 39.5733 54.5758C39.5733 54.5758 39.8479 54.749 40.2613 54.9624L41.8083 48.8119C40.335 47.8755 38.1574 47.0238 34.9544 46.4037C23.9396 44.272 19.6758 58.0109 18.4915 62.8666ZM111.515 66.9472L91.8578 72.611L93.1072 75.5394C93.1072 75.5394 79.9607 66.6567 75.9337 63.2216C71.9067 59.787 69.0645 50.6675 67.1692 47.8248C65.2744 44.9826 61.2474 45.2194 60.1818 46.4334C59.1157 47.6478 59.9445 48.5359 59.9445 48.5359C59.9445 48.5359 53.4308 44.6271 51.0618 47.4693C48.6933 50.312 52.8384 53.1547 52.8384 53.1547C52.8384 53.1547 46.0874 50.1938 45.0123 53.3916C43.9376 56.5893 47.9827 58.3659 47.9827 58.3659C47.331 58.2033 46.6712 58.497 46.1472 58.8636C45.3439 59.4258 44.7898 60.3187 44.7453 61.2986C44.6118 64.2566 48.5588 65.105 49.8378 65.3016C47.2119 65.0509 46.5611 67.8994 46.5611 67.8994C46.1468 71.9866 50.825 71.7493 50.825 71.7493C60.7149 70.8612 66.8142 75.8949 66.8142 75.8949C66.8142 75.8949 81.856 101.359 100.687 98.9902C119.519 96.6217 111.515 66.9472 111.515 66.9472Z" fill="#DCAD7F"/>
<path fill-rule="evenodd" clip-rule="evenodd" d="M48.8387 65.1008C48.8387 65.1008 54.15 65.8923 56.9338 66.8205L48.8387 65.1008Z" fill="#E5AB78"/>
<path fill-rule="evenodd" clip-rule="evenodd" d="M52.8384 53.1548C52.8384 53.1548 57.9123 54.5639 61.1593 57.076L52.8384 53.1548Z" fill="#E5AB78"/>
<path fill-rule="evenodd" clip-rule="evenodd" d="M59.9445 48.536C59.9445 48.536 62.5015 49.7298 64.8987 51.973L59.9445 48.536Z" fill="#E5AB78"/>
<path fill-rule="evenodd" clip-rule="evenodd" d="M109.788 93.3665C107.73 96.4336 104.657 98.2437 100.656 98.7471C82.211 101.073 67.174 76.0237 67.0247 75.7705C67.0103 75.7457 66.9917 75.7241 66.9696 75.7059C66.9127 75.6586 61.646 71.4 53.1327 71.4C52.3843 71.4 51.6097 71.433 50.8125 71.5053C50.791 71.5053 48.6454 71.5962 47.5009 70.3899C46.9334 69.7923 46.6989 68.9631 46.7994 67.9544C46.8252 67.8424 47.4152 65.4031 49.6952 65.5289C49.9813 65.5749 50.1699 65.5935 50.2096 65.5974C50.2407 65.5988 50.2704 65.594 50.2986 65.5859C52.0771 65.8897 55.0313 66.4443 56.8558 67.0529C56.8816 67.0611 56.908 67.0649 56.9333 67.0649C57.0357 67.0649 57.1314 66.9998 57.1654 66.8979C57.2085 66.7697 57.1391 66.6309 57.0108 66.5878C54.3653 65.706 49.411 64.9399 48.9172 64.8648C47.3248 64.4748 44.8897 63.5178 44.9897 61.3096C45.029 60.4445 45.5142 59.6048 46.2879 59.0641C46.8951 58.6396 47.4449 58.4837 47.9229 58.6038C47.9315 58.6057 47.9396 58.6038 47.9482 58.6052C47.9554 58.6061 47.9621 58.61 47.9693 58.61C48.0181 58.6133 52.914 58.9009 58.8301 62.0106C58.8664 62.0297 58.9052 62.0384 58.9435 62.0384C59.0315 62.0384 59.1171 61.9915 59.1607 61.9077C59.2239 61.7881 59.1779 61.6393 59.0578 61.5766C53.3566 58.5798 48.565 58.1621 48.0444 58.1248C47.6659 57.9468 44.3031 56.2702 45.2443 53.4691C45.4108 52.9748 45.7304 52.6284 46.2214 52.4111C48.3411 51.4728 52.6958 53.3595 52.7394 53.3791C52.7456 53.3815 52.7518 53.381 52.758 53.383C52.7633 53.3849 52.7671 53.3887 52.7724 53.3906C52.8226 53.4045 57.8386 54.8175 61.0091 57.2702C61.0536 57.3042 61.1062 57.3209 61.1589 57.3209C61.2316 57.3209 61.3043 57.2889 61.3527 57.2262C61.4354 57.119 61.4158 56.9654 61.3091 56.8822C58.1535 54.4409 53.4064 53.0609 52.9461 52.9308C52.6867 52.7442 50.8302 51.3523 50.5991 49.6732C50.4996 48.9526 50.7187 48.2636 51.2498 47.6267C53.4571 44.9783 59.7555 48.7072 59.8181 48.7454C59.8224 48.7478 59.8268 48.7483 59.8306 48.7502C59.8344 48.7521 59.8368 48.756 59.8406 48.7574C59.866 48.7694 62.3924 49.9632 64.7308 52.1513C64.7782 52.1954 64.8384 52.2174 64.8983 52.2174C64.9638 52.2174 65.0289 52.1915 65.0772 52.1398C65.1696 52.0408 65.1648 51.8862 65.0657 51.7934C62.8202 49.6928 60.4741 48.5182 60.0976 48.3373C59.9813 48.1909 59.5478 47.5262 60.3655 46.5951C60.834 46.0616 61.9436 45.7534 63.1264 45.8333C64.7361 45.9405 66.1352 46.7152 66.9653 47.9602C67.5855 48.8904 68.3171 50.524 69.1645 52.415C70.8942 56.2759 73.0474 61.0823 75.7743 63.4083C79.1577 66.2945 89.0653 73.0848 92.0846 75.1408C92.1415 75.1805 92.2109 75.2284 92.299 75.2868C92.7095 75.5662 92.9526 75.7308 92.9703 75.7423C93.0143 75.7724 93.0655 75.7858 93.1162 75.7839C94.2689 76.4289 96.1364 77.2558 98.1399 77.2558C98.3231 77.2558 98.5078 77.2491 98.693 77.2342C98.8275 77.2237 98.9284 77.106 98.9179 76.9711C98.9069 76.8366 98.7925 76.7404 98.6543 76.7466C96.5379 76.9084 94.466 75.9739 93.2708 75.2983L92.1913 72.7694L111.34 67.2529C111.868 69.3769 115.456 84.9221 109.788 93.3665ZM111.635 66.7343C111.578 66.7017 111.51 66.6955 111.447 66.7122L91.7898 72.3756C91.7224 72.3953 91.6664 72.4426 91.6363 72.5053C91.6061 72.5694 91.6047 72.6422 91.6324 72.7068L92.5526 74.8638C92.3526 74.7332 92.2392 74.6489 92.2334 74.6446C92.2258 74.6389 92.2171 74.6375 92.2095 74.6332C89.0294 72.4666 79.4041 65.8605 76.0925 63.035C73.4493 60.7809 71.321 56.0314 69.6114 52.2145C68.7549 50.3034 68.0156 48.6536 67.373 47.6889C66.4577 46.3157 64.9217 45.4616 63.159 45.3448C61.8115 45.2529 60.5698 45.619 59.9971 46.2716C59.4124 46.9382 59.3406 47.531 59.4219 47.9636C57.6764 47.0401 52.9188 44.8601 50.8733 47.3128C50.2498 48.0607 49.9943 48.878 50.1139 49.7421C50.2641 50.8288 50.9795 51.7771 51.6197 52.4303C50.0904 51.9135 47.5836 51.2733 46.0238 51.9628C45.4079 52.2351 44.9897 52.6896 44.7802 53.3136C43.9648 55.739 45.9084 57.397 47.0779 58.1425C46.7338 58.2305 46.3764 58.4042 46.007 58.6626C45.1094 59.2899 44.5462 60.2713 44.5003 61.2876C44.3926 63.6738 46.6759 64.7634 48.3889 65.2433C46.786 65.8931 46.3266 67.8266 46.3171 67.875C46.1965 69.0631 46.4759 70.0234 47.1468 70.7292C48.4483 72.0981 50.7393 71.9991 50.8465 71.9933C60.1536 71.1531 66.1409 75.6772 66.6261 76.0586C67.284 77.1476 80.9588 99.3888 98.2313 99.3888C99.0514 99.3888 99.8821 99.3381 100.718 99.2333C104.866 98.7112 108.054 96.8293 110.195 93.6388C116.381 84.4221 111.798 67.0582 111.751 66.8835C111.734 66.8204 111.692 66.7663 111.635 66.7343Z" fill="black"/>
<path fill-rule="evenodd" clip-rule="evenodd" d="M40.3561 55.287C40.3776 55.297 40.402 55.3085 40.424 55.3186L40.546 54.8334C40.0608 54.5927 39.7192 54.3793 39.7058 54.3702C39.7053 54.3702 39.7053 54.3697 39.7049 54.3692L36.887 52.5701C36.8358 52.5381 36.7775 52.5294 36.7219 52.5376C33.9754 50.3384 29.702 50.0135 29.6408 50.0097C29.502 49.9978 29.3896 50.1026 29.38 50.2375C29.3709 50.3724 29.4728 50.4896 29.6082 50.4987C29.691 50.5045 37.9421 51.1284 38.4708 56.5392C38.8407 60.324 38.4747 62.7667 37.4397 63.417C36.9157 63.7476 36.1793 63.6299 35.2544 63.0677C35.2401 63.0586 35.2233 63.0562 35.208 63.0514C35.3898 61.3992 34.9281 59.2374 33.8204 56.5741C32.2203 52.7275 26.599 53.7769 26.5426 53.7874C26.41 53.8142 26.3234 53.942 26.3492 54.0755C26.3751 54.2075 26.5033 54.2922 26.6363 54.2688C26.689 54.2587 31.9217 53.2859 33.373 56.7736C35.4611 61.7935 35.1793 64.9032 32.5557 66.0085C32.0792 66.1592 30.726 66.4147 30.1949 65.8004C30.1796 65.7831 30.1604 65.7716 30.1418 65.7597C30.7576 64.0027 30.8375 61.6528 30.6069 60.0446C30.092 56.4521 24.5434 56.8153 24.3066 56.832C24.1716 56.8416 24.0702 56.9588 24.0798 57.0938C24.0898 57.2287 24.2109 57.3316 24.342 57.3206C24.3961 57.3158 29.6719 56.9717 30.1221 60.1145C30.4585 62.4619 30.059 66.4128 28.4565 67.4157C27.8115 67.8191 27.0053 67.6995 26.0607 67.0602C23.3946 65.2558 25.8894 60.7226 25.9148 60.6767C25.9808 60.559 25.9387 60.4097 25.821 60.3432C25.7023 60.2772 25.5535 60.3193 25.4875 60.4374C25.4463 60.5107 25.076 61.1844 24.764 62.1102C24.7387 62.0777 24.708 62.0495 24.6669 62.0332C24.209 61.8466 24.1707 60.7934 24.1937 60.4398C24.2023 60.3044 24.0999 60.1882 23.9649 60.1795C23.83 60.1795 23.7137 60.2728 23.7046 60.4073C23.6932 60.5834 23.6171 62.1347 24.4822 62.4863C24.5123 62.4988 24.5439 62.5045 24.575 62.5045C24.6004 62.5045 24.6219 62.4911 24.6458 62.4835C24.1731 64.0907 23.9913 66.2516 25.7861 67.466C26.4531 67.9177 27.0723 68.1435 27.6388 68.1435C28.023 68.1435 28.3828 68.0392 28.7163 67.8311C29.2412 67.5023 29.6441 66.9368 29.9499 66.2453C30.326 66.5803 30.8523 66.6813 31.3471 66.6813C32.0395 66.6813 32.6672 66.4865 32.7246 66.4679C34.0419 65.9133 34.8396 64.9376 35.1247 63.5548C35.7367 63.9074 36.2908 64.0907 36.7775 64.0907C37.1172 64.0907 37.4253 64.0051 37.7005 63.8314C38.0507 63.6117 38.333 63.2514 38.5522 62.7605L39.0096 60.9427C39.1508 59.7766 39.134 58.2914 38.9584 56.4918C38.8565 55.4525 38.4943 54.5803 37.9722 53.8443L39.4206 54.7697C39.4752 54.8229 39.8881 55.2597 40.1943 56.2325L40.4054 55.3927C40.3891 55.3568 40.3728 55.32 40.3561 55.287Z" fill="black"/>
<path fill-rule="evenodd" clip-rule="evenodd" d="M37.1865 68.1893L37.4167 67.274C35.1798 70.3579 32.4677 72.712 32.4256 72.7479C32.3906 72.7785 32.3643 72.8178 32.3514 72.8618C32.2768 73.1039 24.7674 97.0973 14.3253 100.981C11.8285 101.91 9.32841 101.608 6.89529 100.085C3.9766 98.2581 2.16456 95.6523 1.50951 92.3397C-0.483879 82.2569 8.75327 68.5181 9.83704 66.951L16.8431 69.2214C14.6157 79.063 11.7276 81.7234 11.6969 81.7517C11.5955 81.8407 11.5859 81.9957 11.6749 82.0966C11.7232 82.1521 11.7907 82.1799 11.8587 82.1799C11.9161 82.1799 11.9735 82.1598 12.0194 82.1191C12.1515 82.0043 15.0674 79.3492 17.3307 69.2913C17.335 69.2884 17.3402 69.2884 17.345 69.2856C17.4072 69.2435 17.4469 69.1755 17.4522 69.1004C17.4532 69.0923 17.4957 68.5889 17.7699 67.195C17.7876 67.1075 17.8048 67.0233 17.8216 66.9347C18.012 65.9926 18.2982 64.6906 18.7288 62.9245C20.0882 57.3516 24.3884 44.6108 34.9075 46.6449C37.9804 47.2392 40.3594 48.1067 41.9619 49.2038L42.0906 48.6928C40.4436 47.6066 38.078 46.7592 35.0008 46.1635C30.1705 45.229 26.077 47.1506 22.8338 51.8757C20.2499 55.6419 18.8547 60.3426 18.2532 62.8092C17.7245 64.9763 17.4125 66.4443 17.2273 67.4128C17.1364 67.8678 17.0445 68.3128 16.9507 68.741L9.81599 66.429C9.71455 66.396 9.60354 66.4328 9.54086 66.5194C9.43415 66.6687 -1.11788 81.5732 1.02911 92.4339C1.71095 95.8843 3.59716 98.5988 6.63547 100.5C8.23123 101.499 9.85571 102 11.4921 102C12.4903 102 13.4932 101.813 14.4966 101.44C18.9853 99.7706 23.4352 94.4713 27.722 85.6901C30.7226 79.5444 32.5816 73.7599 32.7983 73.0738C33.1768 72.7431 35.2166 70.9244 37.1454 68.4683C37.1545 68.3755 37.1631 68.2826 37.1865 68.1893Z" fill="black"/>
</svg>
