<svg width="210" height="190" viewBox="0 0 210 190" fill="none" xmlns="http://www.w3.org/2000/svg">
<path fill-rule="evenodd" clip-rule="evenodd" d="M100.595 71.7346C100.595 71.7346 105.496 68.5327 104.624 55.3097C104.624 55.3097 112.375 58.937 120.831 52.8038L122.781 71.5819C122.781 71.5819 116.919 78.241 110.772 77.5952C104.624 76.9494 100.595 71.7346 100.595 71.7346Z" fill="#DCAD7F"/>
<path fill-rule="evenodd" clip-rule="evenodd" d="M104.812 54.9079C109.824 57.2529 115.057 56.4439 120.57 52.4447C120.847 52.244 121.237 52.4181 121.272 52.758L123.223 71.536C123.235 71.6592 123.196 71.7822 123.114 71.8751C119.119 76.4135 114.984 78.4839 110.725 78.0365C106.504 77.5931 103.003 75.5766 100.244 72.0059C100.086 71.801 100.136 71.5047 100.352 71.3631C103.444 69.343 104.753 64.0085 104.182 55.3389C104.159 55.002 104.507 54.7647 104.812 54.9079ZM122.319 71.4325L120.467 53.602L120.101 53.85C115.017 57.2142 110.083 57.9734 105.343 56.1025L105.11 56.0078L105.122 56.2114C105.535 64.1722 104.307 69.348 101.364 71.723L101.233 71.8248L101.444 72.08C103.888 74.9764 106.884 76.6485 110.447 77.1104L110.818 77.1539C114.756 77.5675 118.627 75.6291 122.448 71.2887L122.319 71.4325Z" fill="black"/>
<path fill-rule="evenodd" clip-rule="evenodd" d="M110.787 56.5313C101.83 56.5313 94.5693 48.8318 94.5693 39.3326C94.5693 29.8334 101.83 22.1331 110.787 22.1331C119.744 22.1331 127.005 29.8334 127.005 39.3326C127.005 48.8318 119.744 56.5313 110.787 56.5313Z" fill="#DCAD7F"/>
<path fill-rule="evenodd" clip-rule="evenodd" d="M110.787 22.5768C102.089 22.5768 95.0129 30.0935 95.0129 39.3327C95.0129 48.5719 102.089 56.0876 110.787 56.0876C119.485 56.0876 126.562 48.5719 126.562 39.3327C126.562 30.0935 119.485 22.5768 110.787 22.5768ZM110.787 56.9751C101.6 56.9751 94.1255 49.0608 94.1255 39.3327C94.1255 29.6036 101.6 21.6894 110.787 21.6894C119.975 21.6894 127.449 29.6036 127.449 39.3327C127.449 49.0608 119.975 56.9751 110.787 56.9751Z" fill="black"/>
<path fill-rule="evenodd" clip-rule="evenodd" d="M110.312 45.4234C110.066 45.3825 109.831 45.5529 109.792 45.8005C109.584 47.0953 108.245 47.0456 108.092 47.0323C107.841 47.0004 107.626 47.2018 107.606 47.4512C107.588 47.7014 107.775 47.9198 108.024 47.9402C108.081 47.9437 108.142 47.9464 108.205 47.9464C109.042 47.9464 110.433 47.5417 110.689 45.9443C110.728 45.6976 110.561 45.4633 110.312 45.4234ZM101.668 32.8359C101.588 32.8359 99.7366 32.8083 98.0913 34.222C97.9005 34.3853 97.8792 34.672 98.0416 34.8628C98.1321 34.9675 98.259 35.0207 98.3868 35.0207C98.4915 35.0207 98.5971 34.9844 98.6832 34.9107C100.058 33.7304 101.635 33.7473 101.647 33.7446C101.892 33.7277 102.104 33.5502 102.11 33.3009C102.115 33.0497 101.918 32.8421 101.668 32.8359ZM112.433 34.222C110.788 32.8083 108.934 32.8332 108.857 32.8359C108.607 32.8421 108.408 33.0515 108.413 33.3018C108.42 33.5538 108.626 33.7242 108.879 33.7446C108.888 33.741 110.455 33.7197 111.841 34.9107C111.927 34.9844 112.032 35.0207 112.137 35.0207C112.265 35.0207 112.392 34.9675 112.482 34.8628C112.644 34.672 112.623 34.3853 112.433 34.222ZM100.721 37.0752C100.203 37.0752 99.7845 37.7408 99.7845 38.5634C99.7845 39.3843 100.203 40.0508 100.721 40.0508C101.237 40.0508 101.656 39.3843 101.656 38.5634C101.656 37.7408 101.237 37.0752 100.721 37.0752ZM109.804 37.0752C109.286 37.0752 108.868 37.7408 108.868 38.5634C108.868 39.3843 109.286 40.0508 109.804 40.0508C110.32 40.0508 110.739 39.3843 110.739 38.5634C110.739 37.7408 110.32 37.0752 109.804 37.0752ZM106.126 43.4843L103.86 43.2092L104.57 40.506C104.634 40.2638 104.49 40.0153 104.247 39.9514C104.006 39.8839 103.756 40.0321 103.692 40.2753L102.848 43.4816C102.814 43.6085 102.838 43.7434 102.912 43.8526C102.986 43.9617 103.102 44.0327 103.232 44.0478L106.018 44.3859C106.036 44.3886 106.054 44.3895 106.072 44.3895C106.299 44.3895 106.494 44.2209 106.523 43.991C106.553 43.7408 106.376 43.5154 106.126 43.4843Z" fill="black"/>
<path fill-rule="evenodd" clip-rule="evenodd" d="M105.863 55.7931L102.224 67.1755H53.3028C53.3028 67.1755 50.5258 59.4601 53.9566 55.7931C57.3864 52.1253 64.2471 45.5286 61.1437 38.6208C58.0402 31.7139 57.8765 18.4838 71.1076 16.19C84.3397 13.8945 74.7021 7.50326 87.9332 1.76619C101.164 -3.96999 111.455 10.7814 111.455 10.7814C116.846 -1.83959 132.019 -0.396866 138.278 3.47106C147.719 9.3061 140.041 22.2537 156.376 19.4673C172.711 16.6809 181.369 26.5154 182.349 33.3756C183.329 40.2356 176.795 45.6928 182.675 53.232C188.555 60.7717 182.675 67.8038 182.675 67.8038H120.888C120.888 67.8038 115.921 54.4886 119.732 50.117C121.638 47.933 121.395 45.8288 120.678 44.2713C119.851 42.4799 119.367 40.5349 119.576 38.5714C119.852 35.9907 119.241 32.4732 114.612 30.6677C106.772 27.6076 109.833 21.0513 109.833 21.0513C109.027 25.8321 103.859 28.8913 100.556 28.8913C97.2541 28.8913 95.4274 32.4705 95.4274 32.4705L94.9205 34.0095C94.4805 35.5925 94.2448 37.27 94.2448 39.004C94.2448 46.703 98.8959 53.2453 105.372 55.6227L105.863 55.7931Z" fill="#FECB51"/>
<path fill-rule="evenodd" clip-rule="evenodd" d="M121.205 67.3521H182.458C183.289 66.265 187.488 60.1363 182.32 53.5106C178.523 48.6394 179.722 44.5625 180.882 40.6195C181.561 38.3169 182.261 35.9375 181.902 33.4398C181.398 29.9091 178.887 26.1074 175.349 23.5196C171.895 20.9928 165.814 18.3132 156.452 19.9139C146.279 21.6461 144.979 17.2467 143.6 12.5858C142.658 9.40122 141.684 6.10808 138.041 3.85575C134.311 1.55141 127.439 0.200629 121.529 2.08201C117.023 3.51586 113.773 6.50185 111.871 10.9596C111.805 11.1096 111.664 11.2129 111.503 11.2306C111.333 11.2474 111.18 11.1732 111.088 11.0408C110.987 10.8951 100.846 -3.34507 88.1117 2.18185C81.8442 4.8985 80.871 7.72554 80.014 10.2206C79.0558 13.007 78.2278 15.4137 71.1842 16.6357C66.6016 17.4294 63.3424 19.6022 61.4973 23.0905C58.9429 27.9182 59.6856 34.2759 61.5545 38.4352C64.5963 45.2044 58.5487 51.5937 54.9359 55.4124L54.2847 56.1019C51.4523 59.1308 53.1769 65.2968 53.6283 66.722H101.897L105.3 56.0762L105.225 56.0487C98.3846 53.5381 93.7941 46.6897 93.7941 39.0038C93.7941 37.2645 94.0274 35.5437 94.4875 33.8883L94.9996 32.3292C95.1061 32.1084 97.0199 28.4399 100.556 28.4399C103.258 28.4399 107.4 26.2177 108.911 22.6146C109.087 21.5984 109.399 20.915 109.425 20.8603C109.521 20.6546 109.751 20.5513 109.968 20.6193C110.183 20.6873 110.315 20.9045 110.278 21.1269C110.175 21.7317 110.008 22.3083 109.79 22.8575C109.641 23.7792 109.623 24.9914 110.111 26.2071C110.811 27.9517 112.382 29.3114 114.776 30.2464C119.649 32.1472 120.321 35.8483 120.025 38.6197C119.843 40.321 120.199 42.1593 121.087 44.0822C121.799 45.6237 122.199 47.9738 120.07 50.4143C116.783 54.1859 120.515 65.3899 121.205 67.3521ZM182.675 68.2555H120.888C120.7 68.2555 120.531 68.1392 120.465 67.9618C120.26 67.408 115.45 54.3413 119.392 49.8197C120.846 48.1531 121.142 46.3516 120.269 44.4619C119.314 42.3879 118.929 40.3899 119.129 38.5226C119.391 36.0664 118.793 32.7838 114.45 31.0887C111.807 30.0574 110.065 28.5247 109.271 26.5347C109.014 25.8902 108.878 25.2519 108.823 24.6514C106.773 27.6215 103.141 29.3441 100.556 29.3441C97.5751 29.3441 95.8452 32.6434 95.8267 32.6778L95.3481 34.1514C94.9169 35.707 94.6952 37.3475 94.6952 39.0038C94.6952 46.3117 99.0481 52.8193 105.527 55.1968L106.01 55.3654C106.241 55.4461 106.368 55.6964 106.293 55.9298L102.654 67.3121C102.595 67.4994 102.421 67.6272 102.225 67.6272H53.3036C53.1136 67.6272 52.9446 67.5083 52.8795 67.329C52.7625 67.0024 50.0506 59.3092 53.6283 55.4843L54.283 54.7894C57.7392 51.1367 63.5263 45.0225 60.7326 38.806C58.774 34.4454 58.004 27.7646 60.701 22.6676C62.6842 18.9179 66.1599 16.5898 71.0319 15.744C77.5503 14.6138 78.2612 12.5444 79.1622 9.9257C80.036 7.38645 81.1218 4.22661 87.7546 1.35102C99.5769 -3.77335 109.17 7.13397 111.358 9.90449C113.388 5.63392 116.797 2.63915 121.257 1.22119C127.431 -0.742367 134.61 0.674702 138.513 3.08589C142.451 5.51918 143.52 9.1364 144.465 12.3298C145.834 16.9641 146.922 20.6228 156.3 19.0221C165.974 17.3738 172.287 20.161 175.88 22.7886C179.664 25.5573 182.248 29.4906 182.795 33.3108C183.18 36.0037 182.451 38.4802 181.747 40.8755C180.6 44.77 179.517 48.4486 183.03 52.9524C189.066 60.6918 183.082 68.0212 183.02 68.094C182.934 68.1969 182.808 68.2555 182.675 68.2555Z" fill="black"/>
<path fill-rule="evenodd" clip-rule="evenodd" d="M160.837 117.359L168.04 135.089L208.988 123.291L195.937 104.254C181.008 82.4825 156.307 69.4691 129.908 69.4691H123.502C121.786 73.0818 117.54 75.6457 112.556 75.6625C107.572 75.6457 103.326 73.0818 101.611 69.4691H95.2046C68.8058 69.4691 41.3199 82.085 26.3913 103.857L14.3291 122.709L57.1448 136.587L64.2754 117.359L61.6858 136.716L56.102 169.42H169.01L163.426 136.715L160.837 117.359Z" fill="#EFF2F7"/>
<path fill-rule="evenodd" clip-rule="evenodd" d="M56.6412 168.966H168.472L162.978 136.791L160.386 117.419C160.357 117.192 160.499 116.979 160.72 116.921C160.944 116.859 161.172 116.977 161.258 117.188L168.308 134.539L208.259 123.028L195.562 104.512C180.712 82.8542 156.169 69.9233 129.909 69.9233H123.784C121.86 73.679 117.49 76.0999 112.557 76.1177C107.622 76.0999 103.252 73.679 101.329 69.9233H95.2043C67.871 69.9233 41.0071 83.345 26.7663 104.115L15.028 122.458L56.8702 136.021L63.8499 117.202C63.9298 116.985 64.1623 116.865 64.3851 116.919C64.6105 116.974 64.7569 117.189 64.7258 117.419L62.1363 136.777L56.6412 168.966ZM169.01 169.874H56.1025C55.9685 169.874 55.8416 169.815 55.7547 169.713C55.6686 169.612 55.6322 169.476 55.6553 169.344L61.2382 136.641L63.2855 121.337L57.5704 136.744C57.4861 136.973 57.2358 137.092 57.0051 137.019L14.1885 123.141C14.0545 123.097 13.9489 122.994 13.901 122.863C13.8539 122.729 13.8699 122.582 13.9462 122.464L26.0093 103.612C40.4232 82.5907 67.5799 69.0154 95.2043 69.0154H101.611C101.786 69.0154 101.946 69.1166 102.022 69.2746C103.725 72.8634 107.86 75.1929 112.557 75.2089C117.251 75.1929 121.387 72.8634 123.091 69.2746C123.167 69.1166 123.326 69.0154 123.502 69.0154H129.909C156.469 69.0154 181.292 82.0928 196.312 103.998L209.363 123.033C209.446 123.154 209.465 123.308 209.417 123.444C209.367 123.582 209.255 123.687 209.115 123.727L168.166 135.526C167.942 135.592 167.707 135.475 167.62 135.261L161.761 120.84L163.877 136.655L169.458 169.344C169.48 169.476 169.443 169.612 169.357 169.713C169.271 169.815 169.144 169.874 169.01 169.874Z" fill="black"/>
<path fill-rule="evenodd" clip-rule="evenodd" d="M94.2177 136.69L70.6649 130.767C68.7694 130.289 67.6184 128.365 68.0949 126.469L80.8963 75.5773C81.3729 73.6808 83.2968 72.5307 85.1933 73.0073L108.746 78.9318C110.642 79.4084 111.793 81.3324 111.315 83.2288L98.5147 134.12C98.0382 136.017 96.1142 137.168 94.2177 136.69Z" fill="#FF5613"/>
<path fill-rule="evenodd" clip-rule="evenodd" d="M84.3225 73.3533C83.7714 73.3533 83.2292 73.5016 82.7447 73.7917C82.0365 74.2159 81.536 74.8886 81.3354 75.6882L68.5349 126.581C68.1205 128.231 69.1251 129.91 70.7748 130.326L94.3276 136.249C95.1263 136.451 95.9569 136.329 96.6642 135.906C97.3724 135.482 97.8721 134.809 98.0735 134.01L110.874 83.1179C111.288 81.4673 110.284 79.7873 108.633 79.372L85.0813 73.4483C84.8302 73.3844 84.5755 73.3533 84.3225 73.3533ZM95.0873 137.254C94.7607 137.254 94.4314 137.213 94.1057 137.131L70.5538 131.208C68.4178 130.67 67.1168 128.495 67.6537 126.359L80.4542 75.4664C80.7151 74.4316 81.3629 73.5601 82.2779 73.0117C83.1937 72.465 84.2675 72.3071 85.3032 72.5662L108.855 78.4899C110.991 79.0286 112.292 81.2037 111.755 83.3389L98.9547 134.232C98.6938 135.267 98.046 136.137 97.131 136.686C96.5027 137.061 95.8008 137.253 95.0873 137.254Z" fill="black"/>
<path fill-rule="evenodd" clip-rule="evenodd" d="M83.7477 79.0196C83.4744 80.1076 84.1347 81.2107 85.2218 81.4841C86.3098 81.7583 87.4129 81.098 87.6862 80.01C87.9605 78.9229 87.3002 77.8189 86.2122 77.5456C85.1251 77.2714 84.0211 77.9316 83.7477 79.0196Z" fill="#EEF2F8"/>
<path fill-rule="evenodd" clip-rule="evenodd" d="M84.1885 79.1298C84.0855 79.538 84.1486 79.9622 84.3642 80.3243C84.5808 80.6855 84.9242 80.9411 85.3324 81.0431C85.7415 81.147 86.1648 81.084 86.526 80.8683C86.8881 80.6518 87.1437 80.3083 87.2457 79.8992C87.3487 79.491 87.2866 79.0677 87.07 78.7056C86.8535 78.3435 86.51 78.0888 86.1018 77.9868C85.2579 77.7676 84.3997 78.2885 84.1885 79.1298ZM85.7229 82.0016C85.5188 82.0016 85.3138 81.9758 85.1114 81.9235C84.4672 81.7629 83.9258 81.36 83.5841 80.7902C83.2442 80.2205 83.1457 79.5531 83.3073 78.9088C83.6418 77.5794 84.9943 76.7754 86.3237 77.1047C86.9671 77.2662 87.5093 77.6691 87.8492 78.2397C88.1909 78.8094 88.2894 79.4777 88.127 80.1211C87.9655 80.7645 87.5626 81.3076 86.9928 81.6484C86.6023 81.8818 86.1657 82.0016 85.7229 82.0016Z" fill="black"/>
<path fill-rule="evenodd" clip-rule="evenodd" d="M33.4214 116.598C31.2241 125.603 31.0413 128.125 31.0413 128.125L17.1909 123.637C17.1909 123.637 -15.3449 169.097 11.6745 186.012C38.6928 202.926 59.5611 135.269 59.5611 135.269C59.5611 135.269 63.693 131.712 67.596 126.761C67.6155 126.627 67.6208 126.493 67.6546 126.359L73.5809 102.796C73.0423 101.692 72.5213 101.221 72.5213 101.221C72.5213 101.221 73.0307 101.542 73.7975 101.938L76.6666 90.5306C73.9341 88.7939 69.8954 87.2143 63.9548 86.0641C43.5258 82.1106 35.6178 107.592 33.4214 116.598ZM205.95 124.166L169.492 134.67L171.81 140.102C171.81 140.102 147.427 123.627 139.958 117.256C132.49 110.886 127.218 93.9722 123.703 88.6998C120.189 83.4284 112.72 83.8677 110.744 86.1191C108.766 88.3715 110.303 90.0186 110.303 90.0186C110.303 90.0186 98.2226 82.7691 93.8289 88.0405C89.436 93.3128 97.124 98.5851 97.124 98.5851C97.124 98.5851 84.603 93.0936 82.6089 99.0244C80.6157 104.955 88.1182 108.25 88.1182 108.25C86.9095 107.949 85.6857 108.493 84.7139 109.173C83.2239 110.216 82.1962 111.872 82.1137 113.689C81.8661 119.176 89.1867 120.749 91.5588 121.114C86.6885 120.649 85.4816 125.932 85.4816 125.932C84.713 133.512 93.3896 133.072 93.3896 133.072C111.732 131.425 123.044 140.761 123.044 140.761C123.044 140.761 150.942 187.988 185.868 183.595C220.796 179.202 205.95 124.166 205.95 124.166Z" fill="#DCAD7F"/>
<path fill-rule="evenodd" clip-rule="evenodd" d="M89.7061 120.741C89.7061 120.741 99.5567 122.209 104.72 123.931L89.7061 120.741Z" fill="#E5AB78"/>
<path fill-rule="evenodd" clip-rule="evenodd" d="M97.124 98.5852C97.124 98.5852 106.534 101.199 112.557 105.858L97.124 98.5852Z" fill="#E5AB78"/>
<path fill-rule="evenodd" clip-rule="evenodd" d="M110.304 90.0187C110.304 90.0187 115.046 92.2329 119.492 96.3932L110.304 90.0187Z" fill="#E5AB78"/>
<path fill-rule="evenodd" clip-rule="evenodd" d="M202.748 173.165C198.93 178.854 193.231 182.211 185.811 183.145C151.601 187.457 123.712 141 123.435 140.53C123.409 140.484 123.374 140.444 123.333 140.41C123.228 140.323 113.459 132.424 97.67 132.424C96.2821 132.424 94.8453 132.486 93.3668 132.62C93.3269 132.62 89.3476 132.788 87.2248 130.551C86.1723 129.443 85.7374 127.905 85.9238 126.034C85.9717 125.826 87.0659 121.302 91.2946 121.535C91.8253 121.621 92.175 121.655 92.2486 121.662C92.3063 121.665 92.3613 121.656 92.4137 121.641C95.7123 122.205 101.191 123.233 104.575 124.362C104.623 124.377 104.672 124.384 104.719 124.384C104.909 124.384 105.086 124.263 105.149 124.074C105.229 123.837 105.101 123.579 104.863 123.499C99.9561 121.864 90.7675 120.443 89.8516 120.304C86.8982 119.58 82.382 117.805 82.5675 113.71C82.6403 112.105 83.5401 110.548 84.9751 109.545C86.1013 108.758 87.121 108.469 88.0075 108.691C88.0235 108.695 88.0386 108.691 88.0546 108.694C88.0679 108.696 88.0803 108.703 88.0936 108.703C88.1841 108.709 97.2645 109.243 108.237 115.01C108.304 115.046 108.376 115.061 108.447 115.061C108.61 115.061 108.769 114.975 108.85 114.819C108.967 114.597 108.882 114.321 108.659 114.205C98.0854 108.647 89.1985 107.872 88.2329 107.803C87.531 107.473 81.294 104.363 83.0396 99.1682C83.3484 98.2515 83.9413 97.609 84.8518 97.2061C88.7832 95.4658 96.8598 98.965 96.9405 99.0014C96.9521 99.0058 96.9636 99.0049 96.9752 99.0085C96.9849 99.012 96.992 99.0192 97.0018 99.0227C97.095 99.0484 106.398 101.669 112.278 106.218C112.361 106.281 112.458 106.312 112.556 106.312C112.691 106.312 112.826 106.253 112.915 106.136C113.069 105.938 113.033 105.653 112.835 105.498C106.982 100.971 98.1777 98.4113 97.3239 98.1699C96.8429 97.8238 93.3997 95.2422 92.971 92.1281C92.7864 90.7916 93.1929 89.5137 94.1779 88.3325C98.2717 83.4205 109.953 90.3364 110.069 90.4074C110.077 90.4118 110.085 90.4127 110.092 90.4163C110.1 90.4198 110.104 90.4269 110.111 90.4296C110.158 90.4518 114.844 92.6659 119.181 96.7242C119.269 96.8059 119.38 96.8467 119.491 96.8467C119.613 96.8467 119.734 96.7988 119.823 96.7029C119.995 96.5192 119.986 96.2326 119.802 96.0604C115.637 92.1645 111.286 89.9858 110.588 89.6504C110.372 89.3788 109.568 88.1462 111.085 86.4192C111.953 85.4297 114.011 84.8582 116.205 85.0064C119.191 85.2052 121.785 86.642 123.325 88.9511C124.475 90.6763 125.832 93.706 127.404 97.2132C130.612 104.374 134.605 113.288 139.663 117.602C145.938 122.955 164.314 135.549 169.913 139.362C170.019 139.436 170.148 139.525 170.311 139.633C171.072 140.151 171.523 140.457 171.556 140.478C171.638 140.534 171.733 140.559 171.827 140.555C173.965 141.751 177.428 143.285 181.144 143.285C181.484 143.285 181.826 143.272 182.17 143.245C182.419 143.225 182.606 143.007 182.587 142.757C182.567 142.507 182.354 142.329 182.098 142.341C178.173 142.641 174.33 140.907 172.113 139.654L170.111 134.964L205.625 124.733C206.605 128.672 213.261 157.504 202.748 173.165ZM206.173 123.771C206.067 123.711 205.942 123.699 205.824 123.73L169.367 134.234C169.242 134.27 169.138 134.358 169.082 134.474C169.026 134.593 169.023 134.728 169.075 134.848L170.781 138.849C170.41 138.606 170.2 138.45 170.189 138.442C170.175 138.431 170.159 138.429 170.145 138.421C164.247 134.402 146.395 122.15 140.253 116.91C135.351 112.729 131.404 103.921 128.233 96.8414C126.644 93.2969 125.273 90.237 124.081 88.4479C122.384 85.9009 119.535 84.3168 116.266 84.1003C113.767 83.9299 111.464 84.6088 110.401 85.8193C109.317 87.0555 109.184 88.155 109.335 88.9573C106.097 87.2445 97.2733 83.2013 93.4795 87.7504C92.3232 89.1374 91.8493 90.6532 92.0711 92.2559C92.3498 94.2713 93.6765 96.0302 94.8639 97.2416C92.0277 96.2832 87.3783 95.0957 84.4853 96.3746C83.3431 96.8795 82.5675 97.7226 82.1788 98.8798C80.6666 103.378 84.2714 106.453 86.4403 107.836C85.8022 107.999 85.1393 108.321 84.4542 108.801C82.7894 109.964 81.7448 111.784 81.6596 113.669C81.46 118.095 85.6949 120.115 88.8719 121.006C85.899 122.211 85.047 125.797 85.0293 125.887C84.8056 128.09 85.3239 129.871 86.5681 131.18C88.9819 133.719 93.231 133.535 93.4298 133.525C110.692 131.966 121.796 140.357 122.696 141.065C123.916 143.084 149.279 184.335 181.313 184.335C182.835 184.335 184.375 184.24 185.925 184.046C193.618 183.078 199.532 179.588 203.503 173.67C214.976 156.576 206.475 124.372 206.388 124.048C206.356 123.931 206.279 123.83 206.173 123.771Z" fill="black"/>
<path fill-rule="evenodd" clip-rule="evenodd" d="M73.9735 102.54C74.0135 102.558 74.0587 102.58 74.0995 102.598L74.3258 101.698C73.426 101.252 72.7923 100.856 72.7675 100.839C72.7666 100.839 72.7666 100.838 72.7657 100.837L67.5396 97.5007C67.4446 97.4412 67.3363 97.4253 67.2334 97.4403C62.1395 93.3616 54.2137 92.7591 54.1001 92.752C53.8427 92.7298 53.6342 92.9241 53.6164 93.1744C53.5996 93.4247 53.7886 93.6421 54.0397 93.6589C54.1933 93.6696 69.4964 94.8268 70.477 104.862C71.163 111.882 70.4841 116.412 68.5646 117.618C67.5928 118.231 66.227 118.013 64.5116 116.97C64.485 116.953 64.4539 116.949 64.4255 116.94C64.7627 113.876 63.9063 109.866 61.8519 104.927C58.8843 97.7927 48.4586 99.7388 48.3539 99.7584C48.1081 99.808 47.9474 100.045 47.9953 100.293C48.0433 100.538 48.2811 100.695 48.5278 100.651C48.6254 100.632 58.3305 98.8283 61.0222 105.297C64.895 114.607 64.3723 120.375 59.5064 122.425C58.6225 122.704 56.1128 123.178 55.1277 122.039C55.0993 122.007 55.0639 121.985 55.0292 121.963C56.1714 118.704 56.3196 114.346 55.8918 111.363C54.937 104.701 44.6461 105.374 44.2068 105.405C43.9566 105.423 43.7685 105.64 43.7862 105.891C43.8048 106.141 44.0294 106.332 44.2725 106.311C44.3728 106.302 54.1578 105.664 54.9929 111.493C55.6167 115.847 54.8757 123.174 51.9037 125.035C50.7074 125.783 49.212 125.561 47.4602 124.375C42.5154 121.029 47.1425 112.621 47.1895 112.536C47.312 112.317 47.2339 112.041 47.0156 111.917C46.7955 111.795 46.5195 111.873 46.3971 112.092C46.3207 112.228 45.6339 113.477 45.0552 115.195C45.0082 115.134 44.9514 115.082 44.8751 115.052C44.0258 114.706 43.9548 112.752 43.9974 112.097C44.0134 111.845 43.8235 111.63 43.5732 111.614C43.3229 111.614 43.1073 111.787 43.0904 112.036C43.0691 112.363 42.928 115.24 44.5325 115.892C44.5885 115.915 44.647 115.926 44.7047 115.926C44.7517 115.926 44.7917 115.901 44.836 115.887C43.9593 118.868 43.622 122.875 46.9508 125.128C48.1879 125.965 49.3363 126.384 50.387 126.384C51.0996 126.384 51.767 126.191 52.3855 125.805C53.3591 125.195 54.1063 124.146 54.6734 122.864C55.3709 123.485 56.3471 123.672 57.2647 123.672C58.5488 123.672 59.7132 123.311 59.8197 123.277C62.2628 122.248 63.7422 120.438 64.2711 117.874C65.4061 118.528 66.4338 118.868 67.3363 118.868C67.9664 118.868 68.5379 118.709 69.0482 118.387C69.6978 117.979 70.2214 117.311 70.6279 116.401L71.4763 113.029C71.738 110.866 71.707 108.112 71.3813 104.774C71.1923 102.847 70.5205 101.229 69.5523 99.864L72.2386 101.58C72.3397 101.679 73.1056 102.489 73.6736 104.293L74.0649 102.736C74.0348 102.669 74.0046 102.601 73.9735 102.54Z" fill="black"/>
<path fill-rule="evenodd" clip-rule="evenodd" d="M68.0949 126.47L68.5217 124.772C64.3729 130.492 59.3429 134.858 59.2648 134.924C59.2 134.981 59.1512 135.054 59.1273 135.135C58.9888 135.585 45.0613 180.085 25.6945 187.288C21.0639 189.011 16.427 188.451 11.9143 185.627C6.50106 182.238 3.14031 177.405 1.9254 171.261C-1.7717 152.56 15.3602 127.079 17.3703 124.173L30.3643 128.384C26.2332 146.637 20.8766 151.571 20.8198 151.623C20.6317 151.788 20.6139 152.076 20.779 152.263C20.8686 152.366 20.9937 152.418 21.1198 152.418C21.2263 152.418 21.3328 152.38 21.4179 152.305C21.6629 152.092 27.071 147.167 31.2686 128.513C31.2766 128.508 31.2863 128.508 31.2952 128.503C31.4106 128.425 31.4842 128.299 31.494 128.159C31.4958 128.144 31.5748 127.211 32.0833 124.625C32.1161 124.463 32.148 124.307 32.1791 124.143C32.5323 122.395 33.063 119.981 33.8617 116.705C36.3829 106.369 44.3584 82.739 63.868 86.5115C69.5672 87.6137 73.9795 89.2226 76.9516 91.2576L77.1903 90.3098C74.1357 88.2953 69.7482 86.7236 64.041 85.6187C55.0823 83.8856 47.4902 87.4495 41.4751 96.2131C36.6829 103.198 34.0951 111.916 32.9796 116.491C31.999 120.51 31.4203 123.233 31.0769 125.029C30.9083 125.873 30.7379 126.699 30.564 127.493L17.3313 123.205C17.1431 123.143 16.9372 123.212 16.821 123.372C16.6231 123.649 -2.94756 151.292 1.03441 171.436C2.29901 177.835 5.79732 182.869 11.4324 186.396C14.392 188.249 17.4049 189.177 20.44 189.177C22.2912 189.177 24.1513 188.831 26.0123 188.139C34.3374 185.043 42.5906 175.214 50.5412 158.928C56.1064 147.53 59.5541 136.801 59.9561 135.529C60.6581 134.915 64.4413 131.542 68.0186 126.987C68.0354 126.815 68.0514 126.643 68.0949 126.47Z" fill="black"/>
</svg>