<svg width="105" height="128" viewBox="0 0 105 128" fill="none" xmlns="http://www.w3.org/2000/svg">
<path fill-rule="evenodd" clip-rule="evenodd" d="M0.919052 90.8119L11.2834 66.1429L17.6499 68.8907L11.7998 82.815L11.7333 82.8467C10.5413 83.4084 9.52899 84.299 8.81251 85.4159L7.41512 87.5941C6.03946 89.7383 3.63551 90.9706 1.11623 90.8234L0.919052 90.8119ZM87.4784 127.82H61.0235V120.806H75.9559L76.0107 120.856C76.9881 121.747 78.1925 122.342 79.4874 122.573L82.0124 123.023C84.4978 123.465 86.5583 125.224 87.4115 127.631L87.4784 127.82Z" fill="#4B69FD"/>
<path fill-rule="evenodd" clip-rule="evenodd" d="M11.6578 82.6834L11.6628 82.6812L17.4164 68.9864L11.3773 66.38L1.18204 90.6467C3.61056 90.768 5.93835 89.5652 7.26561 87.4964L8.66299 85.3182C9.3987 84.1711 10.4344 83.2602 11.6578 82.6834ZM7.56423 87.693C6.23234 89.7683 3.94477 91.0158 1.51911 91.0158C1.38172 91.0158 1.24399 91.0118 1.10624 91.0039L0.908691 90.9923C0.851028 90.9891 0.798355 90.9573 0.767746 90.9076C0.737137 90.8578 0.732506 90.7957 0.755287 90.7416L11.1196 66.0727C11.1581 65.9811 11.263 65.9385 11.3531 65.9775L17.7196 68.7249C17.7631 68.7436 17.7976 68.7793 17.815 68.8233C17.8328 68.8677 17.8321 68.9175 17.8136 68.9615L11.9635 82.8861C11.9464 82.9272 11.9148 82.9601 11.8749 82.9788L11.808 83.0106C10.6452 83.5589 9.66065 84.4247 8.96161 85.5145L7.56423 87.693ZM61.2015 127.639H87.2249C86.3839 125.326 84.3796 123.628 81.9814 123.201L79.4568 122.751C78.1277 122.514 76.8948 121.905 75.8914 120.99L61.2015 120.987V127.639ZM87.4784 128H61.0235C60.9253 128 60.8455 127.919 60.8455 127.82V120.806C60.8455 120.707 60.9253 120.626 61.0235 120.626H75.9558C76 120.626 76.0423 120.642 76.0751 120.672L76.1299 120.722C77.0834 121.592 78.2551 122.17 79.5183 122.395L82.043 122.845C84.585 123.298 86.706 125.108 87.5791 127.57L87.6456 127.759C87.6652 127.814 87.657 127.875 87.6239 127.924C87.5905 127.972 87.536 128 87.4784 128Z" fill="black"/>
<path fill-rule="evenodd" clip-rule="evenodd" d="M18.8116 86.6269L11.7998 82.815L17.6498 68.8904L25.8754 73.5418C29.1603 75.3996 30.5341 79.4691 29.0602 82.9766C27.366 87.009 22.6225 88.6987 18.8116 86.6269ZM76.6691 112.774L75.9558 120.806H61.0235L62.0233 111.314C62.4226 107.523 65.5787 104.647 69.3401 104.647C73.6647 104.647 77.057 108.409 76.6691 112.774Z" fill="#FBEFE3"/>
<path fill-rule="evenodd" clip-rule="evenodd" d="M25.7886 73.6994L17.736 69.1458L12.0273 82.7338L18.8957 86.4682C20.6682 87.4314 22.7732 87.5966 24.6706 86.9206C26.5681 86.2449 28.1086 84.7814 28.8966 82.9059C30.3381 79.4745 29.0019 75.5168 25.7886 73.6994ZM24.7888 87.2611C23.9798 87.549 23.1355 87.6915 22.293 87.6915C21.0608 87.6915 19.8325 87.3867 18.7277 86.7857L11.7155 82.9741C11.6343 82.9297 11.5998 82.8302 11.6361 82.7443L17.4862 68.8201C17.5058 68.7728 17.5446 68.7364 17.5923 68.7198C17.6399 68.7028 17.6926 68.7082 17.7364 68.7331L25.9619 73.3845C29.3347 75.2917 30.7371 79.4457 29.224 83.0473C28.3969 85.0159 26.7802 86.5516 24.7888 87.2611ZM61.2214 120.626H75.7932L76.4919 112.758C76.6724 110.728 75.9975 108.7 74.6404 107.196C73.2836 105.691 71.3516 104.828 69.3402 104.828C65.6606 104.828 62.5911 107.624 62.2002 111.333L61.2214 120.626ZM75.9559 120.986H61.0235C60.973 120.986 60.925 120.965 60.8911 120.927C60.8573 120.889 60.841 120.838 60.8463 120.787L61.8465 111.294C62.2565 107.402 65.4784 104.467 69.3402 104.467C71.4516 104.467 73.479 105.373 74.9034 106.952C76.3275 108.532 77.0358 110.66 76.8464 112.79L76.1331 120.822C76.1249 120.915 76.0481 120.986 75.9559 120.986Z" fill="black"/>
<path fill-rule="evenodd" clip-rule="evenodd" d="M2.6834 90.734L12.7491 66.7757L11.2834 66.1433L0.919052 90.8119L1.11659 90.8238C1.64693 90.8548 2.17157 90.8209 2.6834 90.734ZM86.7163 126.205H61.0235V127.82H87.4784L87.4115 127.631C87.2317 127.124 86.9958 126.648 86.7163 126.205Z" fill="#EFF2F7"/>
<path fill-rule="evenodd" clip-rule="evenodd" d="M1.18207 90.6468C1.63339 90.6691 2.09574 90.6439 2.5581 90.5717L12.5156 66.8711L11.3773 66.3797L1.18207 90.6468ZM2.71292 90.9119C2.30823 90.9805 1.90283 91.0151 1.50312 91.0151C1.37 91.0151 1.2376 91.0115 1.1059 91.0036L0.908714 90.992C0.851051 90.9888 0.798378 90.957 0.767769 90.9072C0.73716 90.8571 0.732529 90.7954 0.75531 90.7413L11.1196 66.0724C11.1382 66.0284 11.173 65.9937 11.2168 65.9757C11.2606 65.9584 11.3097 65.9587 11.3531 65.9771L12.8185 66.6099C12.9092 66.6488 12.9513 66.7549 12.9128 66.8462L2.84711 90.8048C2.82327 90.8614 2.77272 90.9018 2.71292 90.9119ZM61.2015 127.639H87.225C87.0687 127.21 86.8648 126.789 86.6177 126.385H61.2015V127.639ZM87.478 128H61.0235C60.9253 128 60.8456 127.919 60.8456 127.82V126.205C60.8456 126.105 60.9253 126.025 61.0235 126.025H86.716C86.7768 126.025 86.8334 126.056 86.8662 126.108C87.1609 126.576 87.4008 127.068 87.5791 127.57L87.6457 127.759C87.6652 127.814 87.6571 127.876 87.6236 127.924C87.5905 127.972 87.536 128 87.478 128Z" fill="black"/>
<path fill-rule="evenodd" clip-rule="evenodd" d="M45.9986 55.3738H74.2509L78.6335 86.2511L81.4023 108.244C81.7586 111.075 80.8164 113.916 78.8449 115.954C77.114 117.744 74.7453 118.752 72.2727 118.752H64.3059C62.3565 118.752 60.5006 117.904 59.2093 116.424C57.7208 114.718 57.1599 112.377 57.7105 110.169L63.3577 87.5155L59.4692 71.0502L46.7336 89.7604C45.1647 92.0656 42.9846 93.874 40.4447 94.9771C37.3029 96.3418 33.7892 96.5503 30.5118 95.5666L18.0076 91.8127C15.9621 91.1987 14.3298 89.6306 13.6151 87.5934C13.058 86.0055 13.1061 84.2638 13.7496 82.7097L18.8344 70.4348C19.2416 69.4521 20.0417 68.6917 21.0351 68.3429C22.2257 67.9251 23.5444 68.1502 24.5346 68.9402L36.1387 78.203L45.9986 55.3738Z" fill="#EFF2F7"/>
<path fill-rule="evenodd" clip-rule="evenodd" d="M74.0968 55.5541L78.4573 86.2771L81.2257 108.267C81.5774 111.061 80.6634 113.817 78.7178 115.828C77.0311 117.572 74.682 118.572 72.2727 118.572H64.3059C62.4084 118.572 60.5992 117.745 59.3428 116.305C57.892 114.642 57.3464 112.364 57.8828 110.213L63.5303 87.5595C63.5371 87.5314 63.5374 87.5018 63.5307 87.4733L59.6581 71.0769L60.6195 69.6545C60.675 69.5722 60.6544 69.46 60.5732 69.4037C60.4921 69.3475 60.3814 69.3688 60.3259 69.4506L58.0935 72.7532C58.0924 72.755 58.0913 72.7568 58.0903 72.7586L46.5873 89.6579C45.0351 91.9378 42.8871 93.7199 40.3746 94.8115C37.278 96.1563 33.7931 96.3634 30.5623 95.3937L18.0581 91.6398C16.0742 91.0443 14.4757 89.5089 13.7827 87.5332C13.2392 85.9841 13.2858 84.2955 13.9137 82.7793L18.9985 70.5044C19.3854 69.5704 20.1488 68.845 21.0931 68.5134C22.2321 68.1137 23.4775 68.3266 24.4243 69.082L35.4243 77.8624C35.4264 77.8642 35.4289 77.866 35.4311 77.8678L35.44 77.8747L36.0287 78.3447C36.0436 78.3566 36.0603 78.366 36.0781 78.3725L36.9331 79.0391C36.9655 79.0644 37.0039 79.0767 37.0416 79.0767C37.095 79.0767 37.1477 79.0525 37.1829 79.0063C37.2427 78.9273 37.2281 78.814 37.1502 78.7534L36.3611 78.1377L46.115 55.5541H74.0968ZM58.3829 72.9635L46.8803 89.8625C45.29 92.199 43.0889 94.0247 40.5148 95.143C37.342 96.521 33.7714 96.7324 30.4612 95.7393L17.957 91.9858C15.8642 91.3574 14.1785 89.738 13.4474 87.654C12.874 86.0198 12.9231 84.2392 13.5855 82.6397L18.6703 70.3648C19.0964 69.3366 19.9371 68.5376 20.9767 68.1725C22.2307 67.7324 23.6021 67.9666 24.6446 68.7988L35.645 77.5792L35.6482 77.5817L36.0703 77.9111L45.8356 55.3012C45.8641 55.2359 45.9278 55.1934 45.9986 55.1934H74.2509C74.3396 55.1934 74.4147 55.2594 74.4271 55.3481L78.81 86.2284L81.5788 108.221C81.9444 111.125 80.994 113.99 78.972 116.08C77.2187 117.893 74.777 118.932 72.2727 118.932H64.3059C62.3066 118.932 60.4003 118.062 59.0758 116.544C57.5475 114.791 56.9727 112.392 57.5379 110.124L63.1744 87.514L59.3891 71.4856L58.4106 72.9228L58.3871 72.9574C58.3857 72.9596 58.3843 72.9614 58.3829 72.9635Z" fill="black"/>
<path fill-rule="evenodd" clip-rule="evenodd" d="M63.275 29.8463C63.275 29.8463 62.0171 28.9166 62.2408 25.0773C62.2408 25.0773 60.2513 26.1305 58.0808 24.3497L57.5801 29.802C57.5801 29.802 59.085 31.7355 60.6629 31.548C62.2408 31.3604 63.275 29.8463 63.275 29.8463Z" fill="#FBEFE3"/>
<path fill-rule="evenodd" clip-rule="evenodd" d="M62.1651 24.5871C60.9015 25.2842 59.583 25.0438 58.1856 23.8491C58.0747 23.7543 57.9179 23.8363 57.9038 23.9965L57.4032 29.6781C57.398 29.7358 57.4137 29.7935 57.4463 29.8372C58.4845 31.2272 59.565 31.8649 60.6816 31.7266C61.7829 31.5903 62.6974 30.9694 63.4161 29.8731C63.4792 29.7768 63.4592 29.6378 63.3727 29.5711C62.6041 28.9792 62.273 27.3886 62.4183 24.7898C62.4272 24.6311 62.2877 24.5195 62.1651 24.5871ZM57.8101 29.7062L58.2741 24.5303L58.3684 24.6021C59.6368 25.5414 60.8738 25.7621 62.0647 25.254L62.1174 25.2308L62.109 25.4455C62.038 27.657 62.3518 29.1233 63.0752 29.8385L63.0971 29.8589L63.0482 29.9261C62.4399 30.7402 61.7013 31.2133 60.8262 31.3518L60.706 31.3685C59.7128 31.4893 58.7323 30.9209 57.7581 29.6398L57.8101 29.7062Z" fill="black"/>
<path fill-rule="evenodd" clip-rule="evenodd" d="M60.7087 25.3972C63.1098 25.3972 65.0564 23.3049 65.0564 20.7242C65.0564 18.1434 63.1098 16.0511 60.7087 16.0511C58.3076 16.0511 56.3614 18.1434 56.3614 20.7242C56.3614 23.3049 58.3076 25.3972 60.7087 25.3972Z" fill="#FBEFE3"/>
<path fill-rule="evenodd" clip-rule="evenodd" d="M60.7088 16.2301C63.0088 16.2301 64.8799 18.2459 64.8799 20.7242C64.8799 23.2025 63.0088 25.2183 60.7088 25.2183C58.4088 25.2183 56.5376 23.2025 56.5376 20.7242C56.5376 18.2459 58.4088 16.2301 60.7088 16.2301ZM60.7088 25.5758C63.2032 25.5758 65.2327 23.3994 65.2327 20.7242C65.2327 18.0489 63.2032 15.8726 60.7088 15.8726C58.2144 15.8726 56.1849 18.0489 56.1849 20.7242C56.1849 23.3994 58.2144 25.5758 60.7088 25.5758Z" fill="black"/>
<path fill-rule="evenodd" clip-rule="evenodd" d="M61.9267 22.2236C61.9338 22.2236 61.9409 22.2233 61.9484 22.2226L62.6752 22.1331C62.7261 22.1266 62.772 22.0985 62.8009 22.0552C62.8297 22.0122 62.839 21.9585 62.8258 21.908L62.6055 21.0595C62.5802 20.9636 62.4827 20.9062 62.388 20.9311C62.2933 20.9567 62.2364 21.0552 62.2613 21.1515L62.4296 21.7998L61.9054 21.864C61.8078 21.8762 61.7384 21.9661 61.7502 22.0649C61.7612 22.1565 61.8377 22.2236 61.9267 22.2236Z" fill="black"/>
<path fill-rule="evenodd" clip-rule="evenodd" d="M60.7088 20.6222C60.7088 20.8397 60.8181 21.0158 60.953 21.0158C61.0879 21.0158 61.1971 20.8397 61.1971 20.6222C61.1971 20.4047 61.0879 20.2286 60.953 20.2286C60.8181 20.2286 60.7088 20.4047 60.7088 20.6222Z" fill="black"/>
<path fill-rule="evenodd" clip-rule="evenodd" d="M63.0794 20.6222C63.0794 20.8397 63.1887 21.0158 63.3239 21.0158C63.4585 21.0158 63.5681 20.8397 63.5681 20.6222C63.5681 20.4047 63.4585 20.2286 63.3239 20.2286C63.1887 20.2286 63.0794 20.4047 63.0794 20.6222Z" fill="black"/>
<path fill-rule="evenodd" clip-rule="evenodd" d="M60.344 19.7455C60.3853 19.7455 60.4262 19.7311 60.46 19.7019C60.7988 19.4068 61.1904 19.4107 61.1939 19.4079C61.295 19.405 61.373 19.3303 61.3747 19.2311C61.3762 19.1319 61.2993 19.0496 61.2014 19.0471C61.1776 19.0478 60.6743 19.0399 60.2279 19.4284C60.1535 19.4934 60.145 19.607 60.2091 19.6827C60.2443 19.7242 60.2938 19.7455 60.344 19.7455Z" fill="black"/>
<path fill-rule="evenodd" clip-rule="evenodd" d="M63.9328 19.7456C63.983 19.7456 64.0325 19.7243 64.0677 19.6828C64.1318 19.607 64.1232 19.493 64.0489 19.4285C63.6025 19.04 63.0964 19.0468 63.0754 19.0472C62.9768 19.0497 62.8992 19.1323 62.9017 19.2319C62.9038 19.33 62.9832 19.4079 63.0797 19.4079C63.0807 19.4079 63.0822 19.4076 63.0836 19.4079C63.1021 19.4079 63.4836 19.4122 63.8168 19.7019C63.8506 19.7311 63.8915 19.7456 63.9328 19.7456Z" fill="black"/>
<path fill-rule="evenodd" clip-rule="evenodd" d="M61.9199 24.2152C62.0869 24.2152 62.2723 24.1824 62.4752 24.1164C62.5688 24.0861 62.6204 23.9843 62.5902 23.8895C62.5603 23.795 62.461 23.7427 62.3663 23.773C61.9979 23.8927 61.7217 23.8805 61.5459 23.7369C61.3814 23.6023 61.3177 23.3722 61.2946 23.1821C61.89 23.4768 62.4887 23.2672 62.7528 23.0872C62.8347 23.0316 62.856 22.9194 62.8016 22.8368C62.7468 22.7546 62.6364 22.7322 62.5549 22.7874C62.5264 22.8065 61.8669 23.2369 61.2209 22.708C61.17 22.6666 61.1009 22.6565 61.0404 22.6821C60.9799 22.7077 60.9386 22.7647 60.9319 22.8307C60.9287 22.8632 60.8578 23.6366 61.3209 24.0165C61.4825 24.1488 61.6829 24.2152 61.9199 24.2152Z" fill="black"/>
<path fill-rule="evenodd" clip-rule="evenodd" d="M60.0715 30.3023C60.3664 30.3023 60.6056 29.9795 60.6056 29.5809C60.6056 29.1822 60.3664 28.8594 60.0715 28.8594C59.777 28.8594 59.5378 29.1822 59.5378 29.5809C59.5378 29.9795 59.777 30.3023 60.0715 30.3023Z" fill="#EFF2F7"/>
<path fill-rule="evenodd" clip-rule="evenodd" d="M60.025 29.9916C60.2546 29.9916 60.4414 29.8148 60.4414 29.5976C60.4414 29.3805 60.2546 29.2037 60.025 29.2037C59.7954 29.2037 59.6085 29.3805 59.6085 29.5976C59.6085 29.8148 59.7954 29.9916 60.025 29.9916ZM57.706 27.8387C59.8141 29.8487 62.3764 28.2333 62.4843 28.1637C62.5591 28.1154 62.6613 28.133 62.7124 28.2041C62.7639 28.2748 62.7444 28.3715 62.67 28.4202C62.654 28.4303 61.7567 28.9967 60.5672 29.1182C60.692 29.2441 60.7698 29.4119 60.7698 29.5976C60.7698 29.9862 60.4357 30.3022 60.025 30.3022C59.6142 30.3022 59.2802 29.9862 59.2802 29.5976C59.2802 29.3992 59.3679 29.2203 59.5082 29.0922C58.8367 28.9844 58.1319 28.6857 57.473 28.0576C57.4093 27.9967 57.4096 27.8982 57.4741 27.838C57.5382 27.7773 57.6423 27.7777 57.706 27.8387Z" fill="black"/>
<path fill-rule="evenodd" clip-rule="evenodd" d="M64.1294 18.4888H57.6089C58.5981 19.3604 58.6408 20.9729 58.2539 21.7881C58.2158 21.8684 58.1767 21.9446 58.1386 22.0189C57.7894 22.6996 57.5176 23.2292 58.7764 25.4017C59.6573 26.9219 58.1973 29.368 57.3801 29.8154C55.1438 31.0397 55.803 35.6157 55.803 35.6157H35.2928C35.2928 35.6157 34.6479 28.1635 39.7217 26.5947C44.8026 25.0236 45.6305 22.6839 46.5054 20.2121C47.167 18.3432 47.855 16.3987 50.4284 14.6538C56.4052 10.6008 60.9205 14.4359 60.9205 14.4359C65.8227 14.2616 66.1224 18.4888 66.1224 18.4888H64.1344C64.1344 18.4888 65.4346 19.0552 65.3919 21.9754C65.3739 23.1923 64.9624 23.8552 64.526 24.5583C63.962 25.4671 63.3563 26.443 63.5044 28.7688C63.5293 29.1574 63.3901 29.5408 63.1179 29.8154L61.7215 25.4017H61.7212C63.4926 24.8112 64.7793 23.036 64.7793 20.9379C64.7793 20.0386 64.5391 19.2016 64.1294 18.4888Z" fill="#FF5613"/>
<path fill-rule="evenodd" clip-rule="evenodd" d="M35.4605 35.4352H55.6014C55.4985 34.5044 55.2284 30.7884 57.2953 29.6564C57.7534 29.4061 58.4599 28.4133 58.7421 27.3895C58.8863 26.8668 58.9824 26.1132 58.6229 25.4928C57.3775 23.3435 57.5676 22.741 57.9808 21.9359C58.0182 21.863 58.0563 21.7883 58.0936 21.71C58.4432 20.9738 58.43 19.4511 57.4921 18.625C57.4362 18.5756 57.4163 18.4958 57.4423 18.4255C57.4683 18.3551 57.5348 18.3082 57.6089 18.3082H65.9198C65.8643 17.9673 65.6956 17.2253 65.2122 16.4977C64.3363 15.1792 62.8948 14.5497 60.9265 14.6161C60.882 14.6197 60.84 14.6024 60.8062 14.5742C60.7951 14.5648 59.6765 13.6309 57.858 13.1965C56.1841 12.7972 53.5541 12.7514 50.5273 14.8036C48.0028 16.5157 47.3265 18.4258 46.673 20.2728C45.7818 22.7912 44.94 25.1695 39.7737 26.7669C35.3099 28.1471 35.4071 34.3417 35.4605 35.4352ZM55.8029 35.7959H35.2929C35.2007 35.7959 35.1238 35.7245 35.1156 35.631C35.1092 35.5553 34.5176 28.0151 39.6697 26.422C44.6648 24.8774 45.4778 22.5817 46.3381 20.1514V20.1513C47.0111 18.2487 47.7073 16.282 50.3294 14.5039C55.9926 10.6634 60.4371 13.8343 60.9792 14.2535C65.9276 14.111 66.2967 18.4323 66.3 18.476C66.3035 18.5258 66.2864 18.5748 66.253 18.6116C66.2192 18.6484 66.1718 18.669 66.1227 18.669H64.6471C65.0568 19.1101 65.5978 20.0583 65.5696 21.978C65.5511 23.2448 65.1267 23.929 64.6774 24.6532L64.6766 24.6547L64.6763 24.655C64.1165 25.5571 63.5376 26.49 63.6821 28.7574C63.7102 29.2014 63.5504 29.6336 63.2432 29.9431C63.2098 29.977 63.1642 29.9958 63.1179 29.9958C63.1037 29.9958 63.0898 29.994 63.0759 29.9907C63.0154 29.9759 62.9674 29.9301 62.9485 29.8706L61.5515 25.4566C61.5216 25.3621 61.5725 25.2611 61.6654 25.23C63.4215 24.6449 64.6015 22.9199 64.6015 20.9376C64.6015 20.1421 64.4027 19.3598 64.0259 18.669H58.0267C58.8076 19.6484 58.7802 21.0953 58.4143 21.8662C58.3755 21.9485 58.3357 22.0264 58.2965 22.1022C57.9623 22.7533 57.721 23.2237 58.9301 25.3102C59.2646 25.8878 59.318 26.6403 59.0849 27.4866C58.7642 28.6507 57.994 29.6842 57.4647 29.9739C55.364 31.1239 55.9726 35.5452 55.979 35.5896C55.9865 35.6415 55.9716 35.6938 55.9374 35.7335C55.9039 35.7732 55.8545 35.7959 55.8029 35.7959ZM65.2137 21.9725C65.2325 20.7042 64.9898 19.9004 64.7225 19.4019C64.8777 19.8958 64.9574 20.4141 64.9574 20.9376C64.9574 23.0129 63.7536 24.8285 61.9437 25.5136L63.1834 29.4316C63.2906 29.2364 63.3415 29.0106 63.3269 28.7805C63.1749 26.397 63.8123 25.3695 64.3746 24.4632L64.3751 24.4624C64.7976 23.782 65.1966 23.1388 65.2137 21.9725Z" fill="black"/>
<path fill-rule="evenodd" clip-rule="evenodd" d="M52.1031 56.1861H77.214C77.214 56.1861 74.7204 47.5576 74.4623 44.071C74.4623 44.071 95.9613 40.4124 101.637 15.9635H87.0057C87.0057 15.9635 80.3079 33.4346 63.2815 29.5137C62.8326 30.4729 61.7189 31.1529 60.4127 31.1529C59.1068 31.1529 57.9931 30.4729 57.5439 29.5137L55.4361 29.6417C52.3153 29.8308 49.2447 30.6049 46.4488 32.0241C42.0371 34.2628 37.0323 38.6307 36.1938 47.0345C34.6458 62.5485 45.4814 59.7596 45.4814 59.7596C45.4814 59.7596 49.2653 58.7571 52.1031 56.0119" fill="#EFF2F7"/>
<path fill-rule="evenodd" clip-rule="evenodd" d="M52.4021 56.0058L58.7477 51.0417C58.7865 51.011 58.811 50.9659 58.816 50.9161C58.8206 50.8667 58.805 50.8173 58.7729 50.7802L50.7464 41.4831C50.6844 41.411 50.5776 41.4009 50.5033 41.4593L47.0529 44.1822L47.2355 42.0823C47.244 41.9831 47.1717 41.8958 47.0739 41.8868C46.9753 41.8778 46.8895 41.9514 46.881 42.0506L46.6688 44.4852L42.477 47.7929C42.3994 47.8542 42.3856 47.9674 42.4457 48.0461C42.5062 48.1247 42.618 48.1388 42.6956 48.0775L46.9472 44.7226L46.9504 44.7201L50.5894 41.8486L58.3803 50.8732L51.9942 55.8691C51.9882 55.8742 51.9821 55.8792 51.9768 55.885C49.2045 58.5646 45.474 59.5754 45.4366 59.5851C45.4006 59.5945 41.6879 60.5104 39.0145 58.1725C36.7241 56.1693 35.8347 52.4277 36.371 47.053C37.2146 38.5968 42.3603 34.3004 46.5286 32.1854C49.2354 30.8117 52.2359 30.0162 55.4468 29.8218L57.4378 29.701C57.9621 30.6966 59.115 31.3333 60.4127 31.3333C61.7022 31.3333 62.8483 30.7049 63.3776 29.7208C72.1783 31.6955 78.1711 27.8886 81.6546 24.3364C85.0979 20.8253 86.828 16.864 87.1253 16.1439H101.412C98.4623 28.5671 91.3238 35.4422 85.8379 39.0258C80.4842 42.5228 75.6255 43.6508 74.6218 43.8564C74.5954 43.5188 74.5574 42.7912 74.6389 42.0874C74.6506 41.9885 74.5805 41.8991 74.483 41.8872C74.3869 41.8738 74.2968 41.9463 74.2854 42.0452C74.173 43.0145 74.2744 43.9928 74.2847 44.0859C74.5179 47.2319 76.5798 54.6058 76.9773 56.0058H52.4021ZM45.5252 59.9347C45.4555 59.9524 44.6941 60.1417 43.6231 60.1414C42.2496 60.1414 40.3671 59.8304 38.785 58.4481C36.3992 56.3637 35.4681 52.5175 36.0169 47.0165C36.8768 38.3973 42.1211 34.0187 46.3691 31.8629C49.119 30.4672 52.1662 29.6591 55.4254 29.4618L57.5332 29.3341C57.6044 29.3323 57.6735 29.3702 57.7048 29.4369C58.1348 30.3553 59.2232 30.9726 60.4127 30.9726C61.6022 30.9726 62.6907 30.3553 63.121 29.4369C63.1566 29.3604 63.2406 29.3186 63.321 29.3381C72.0313 31.3441 77.9568 27.5913 81.3937 24.0907C85.1303 20.2845 86.8231 15.9416 86.8398 15.8983C86.8665 15.829 86.9323 15.7832 87.0057 15.7832H101.637C101.691 15.7832 101.743 15.8085 101.776 15.8517C101.81 15.8947 101.823 15.9513 101.81 16.0051C98.8649 28.6934 91.5964 35.6968 86.0176 39.3374C80.5551 42.9026 75.5977 44.0278 74.6528 44.2183C74.9681 47.7449 77.3603 56.0509 77.3849 56.1357C77.4005 56.1902 77.3902 56.249 77.3564 56.2944C77.3229 56.3399 77.2703 56.3666 77.214 56.3666H52.1032C52.0708 56.3666 52.0402 56.3579 52.0142 56.3428C49.2013 58.939 45.5637 59.9246 45.5252 59.9347Z" fill="black"/>
<path fill-rule="evenodd" clip-rule="evenodd" d="M88.4438 14.2035L88.5656 15.9636H99.3581C100.82 15.5725 101.078 13.9142 101.078 13.9142C103.075 14.4824 104.159 11.8093 104.491 10.8003C104.569 10.5665 104.583 10.3165 104.537 10.0741C104.445 9.58854 104.115 9.18379 103.662 8.99981L103.529 8.94606L103.625 8.51786C103.701 8.17696 103.647 7.81947 103.473 7.51717C103.264 7.15354 102.902 6.90679 102.491 6.84727L102.239 6.81047L102.348 5.98365C102.388 5.6745 102.315 5.36065 102.141 5.10309L102.034 4.94364C101.719 4.4754 101.135 4.27699 100.605 4.45736C100.605 4.45736 100.98 3.85312 101.453 2.41484C101.696 1.6764 101.337 0.994964 100.931 0.507242C100.558 0.0581193 99.8681 0.0761576 99.5065 0.53502L95.2731 5.80833C95.1656 5.6175 94.9994 5.50784 94.8217 5.44723C94.4121 5.3069 93.9583 5.44038 93.6458 5.74268L90.5168 8.77218C89.0628 10.1798 88.3029 12.1704 88.4438 14.2035ZM65.9008 39.1722C65.9972 39.1415 66.0877 39.1228 66.1731 39.1148L65.9008 39.1722ZM67.3662 40.0762C67.3662 40.0762 67.0643 39.0294 66.1731 39.1148L66.1862 39.112C66.9113 38.9597 67.2982 38.1354 66.9344 37.4818C66.9198 37.4562 66.9109 37.4421 66.9109 37.4421C66.4642 36.6409 65.6232 36.2516 64.8173 36.607C63.3683 37.2455 61.1858 38.3519 59.8425 39.7133C59.8425 39.7133 60.8024 37.7675 63.9464 36.234C64.597 35.9165 64.8657 35.1229 64.5233 34.4786L64.4888 34.4137C64.171 33.8156 63.4484 33.5775 62.8434 33.8693C62.312 34.1258 61.6129 34.5248 60.7886 35.1373C59.6339 34.365 58.0742 34.7639 57.42 35.9995L56.1447 38.4056L52.3491 43.6133L57.5496 49.6369L59.0086 48.0998C59.7503 47.3181 60.6942 46.7644 61.7321 46.5014C62.0486 46.4209 62.371 46.3686 62.6964 46.3445L65.6111 46.1277C66.3347 46.0739 66.8946 45.4632 66.8946 44.728C66.8946 43.8893 66.1752 43.2424 65.3527 43.3334C64.6162 43.4145 63.6627 43.6151 62.5946 44.0711C62.5946 44.0711 63.6609 42.7536 66.6447 41.7547C67.3341 41.5239 67.6765 40.7414 67.3662 40.0762Z" fill="#FBEFE3"/>
<path fill-rule="evenodd" clip-rule="evenodd" d="M99.3347 15.7831H88.7315L88.6216 14.1905C88.4838 12.205 89.2195 10.2775 90.6397 8.90273L93.769 5.87323C94.0456 5.60556 94.4364 5.50491 94.7649 5.61782C94.9238 5.67244 95.0374 5.76003 95.1123 5.88614L95.2821 6.31614C95.5893 7.09462 95.5441 7.96618 95.1575 8.70786L94.0005 10.9273L93.9978 10.9323L93.9965 10.9347L93.9949 10.9382L93.396 12.0869C93.3501 12.1749 93.3836 12.2839 93.4704 12.3304C93.4968 12.3445 93.5252 12.3513 93.5534 12.3513C93.6171 12.3513 93.679 12.3164 93.711 12.255L94.0694 11.5675C94.0791 11.804 94.0633 12.1346 93.9804 12.5729C93.9619 12.6706 94.0249 12.7651 94.1213 12.7839C94.1327 12.7861 94.1441 12.7872 94.1551 12.7872C94.2388 12.7872 94.3135 12.7269 94.3295 12.6407C94.5033 11.7232 94.4083 11.2242 94.3492 11.0307L95.4722 8.87632C95.9075 8.04085 95.9587 7.05891 95.6128 6.18195L95.4777 5.83993L99.6447 0.648973C99.7867 0.468242 99.9978 0.363988 100.225 0.360741C100.452 0.367595 100.654 0.453452 100.795 0.623361C101.299 1.22868 101.464 1.81236 101.284 2.3578C100.867 3.62534 100.525 4.23961 100.464 4.34491L97.212 7.61413C97.191 7.63685 95.6089 9.3915 96.7706 10.8049C97.0636 11.0891 97.705 11.4766 98.4054 11.3482C98.3068 11.5812 98.23 11.8821 98.2883 12.193C98.3556 12.5512 98.5845 12.846 98.9689 13.0685C99.343 13.2853 99.711 13.3384 100.063 13.2262C100.182 13.1887 100.29 13.1342 100.389 13.0703C100.376 13.2042 100.382 13.3405 100.42 13.4708C100.487 13.7056 100.64 13.8887 100.874 14.0165C100.779 14.3947 100.416 15.4805 99.3347 15.7831ZM101.887 5.04497C101.625 4.6567 101.142 4.48325 100.7 4.61619L97.4679 7.86484C97.411 7.92725 96.083 9.40485 97.0301 10.5585C97.0628 10.5902 97.8359 11.3163 98.6848 10.8743L102.07 6.73554L102.171 5.96017C102.206 5.6943 102.144 5.42591 101.995 5.20441L101.887 5.04497ZM102.312 7.00364L98.9415 11.1257L98.9383 11.1299C98.9343 11.1346 98.5457 11.6339 98.6379 12.1256C98.6848 12.3755 98.8557 12.5873 99.1454 12.7554C99.4298 12.9199 99.7021 12.9625 99.9552 12.8828C100.264 12.785 100.495 12.5256 100.631 12.3305C100.71 12.1797 100.781 12.0795 100.79 12.0659L100.791 12.0653C100.794 12.0609 100.797 12.0566 100.801 12.0526L103.365 8.86431L103.452 8.47778C103.518 8.18053 103.471 7.87173 103.32 7.60803C103.137 7.29022 102.825 7.07774 102.465 7.02579L102.312 7.00364ZM103.584 9.16275L103.596 9.16751C103.995 9.32876 104.281 9.68049 104.362 10.108C104.403 10.3222 104.389 10.5419 104.323 10.7432C103.969 11.8158 102.95 14.2541 101.133 13.7423C100.93 13.6573 100.809 13.5357 100.761 13.3705C100.686 13.1082 100.807 12.7695 100.93 12.5274C101.012 12.4091 101.064 12.3122 101.085 12.2699L103.584 9.16275ZM88.5657 16.1439H99.3582C99.3735 16.1439 99.3888 16.1421 99.4037 16.1378C100.672 15.7987 101.094 14.6032 101.213 14.1324C103.213 14.535 104.285 11.995 104.66 10.8576C104.746 10.5975 104.764 10.3147 104.712 10.0401C104.608 9.49435 104.244 9.04486 103.736 8.83563L103.799 8.55786C103.885 8.17079 103.824 7.76928 103.627 7.42622C103.389 7.01245 102.984 6.73612 102.516 6.6683L102.439 6.65748L102.524 6.00742C102.571 5.65353 102.487 5.2964 102.289 5.00131L102.181 4.84187C101.898 4.42233 101.424 4.19001 100.937 4.2131C101.094 3.89023 101.341 3.32676 101.622 2.47216C101.84 1.8084 101.648 1.08872 101.067 0.391043C100.857 0.137803 100.545 0.0104615 100.22 0C99.8864 0.00468963 99.5757 0.158366 99.3674 0.422428L95.2767 5.51826C95.1707 5.41148 95.0376 5.33031 94.8785 5.2762C94.4189 5.11856 93.8996 5.2477 93.5231 5.61241L90.3937 8.64192C88.897 10.0914 88.1215 12.1231 88.2663 14.2161L88.3881 15.9761C88.3948 16.0707 88.4724 16.1439 88.5657 16.1439ZM66.3169 43.8196C66.0937 43.6165 65.8033 43.5054 65.5047 43.5054C65.4605 43.5054 65.4164 43.5075 65.3722 43.5126C64.4678 43.6125 63.5566 43.8564 62.664 44.2373C62.5882 44.2694 62.5013 44.2453 62.4522 44.1789C62.4034 44.1125 62.4052 44.0209 62.4572 43.9567C62.502 43.9015 63.5912 42.5873 66.5895 41.5834C66.8736 41.4881 67.1038 41.2749 67.2209 40.9982C67.3373 40.7237 67.332 40.4236 67.196 40.1274C67.1946 40.1223 67.0355 39.5946 66.6372 39.3803C66.5052 39.3092 66.3582 39.28 66.198 39.2941L65.9375 39.3489C65.9207 39.3525 65.9044 39.3536 65.8883 39.3522C64.7686 39.617 62.4344 40.3684 60.8637 42.2569C60.8284 42.2991 60.7779 42.3211 60.7274 42.3211C60.6868 42.3211 60.6462 42.307 60.6128 42.2785C60.5377 42.2143 60.528 42.1007 60.5914 42.0245C62.5184 39.7079 65.4491 39.0459 66.2717 38.9016C66.5116 38.8165 66.7048 38.6383 66.8127 38.398C66.9337 38.1275 66.9216 37.8259 66.7796 37.5705L66.7565 37.5308C66.3329 36.7714 65.5822 36.467 64.8885 36.7725C63.3612 37.4457 61.268 38.5239 59.9689 39.8406C59.9073 39.9034 59.8098 39.9113 59.7389 39.8597C59.6681 39.8078 59.645 39.7115 59.6838 39.6325C59.7243 39.5509 60.7071 37.6141 63.8695 36.0716C64.1454 35.937 64.3489 35.7022 64.4426 35.4107C64.5333 35.1272 64.5066 34.8263 64.3671 34.5641L64.3326 34.4991C64.0599 33.9869 63.4395 33.7816 62.9202 34.0323C62.6245 34.1748 62.3223 34.3397 62.0151 34.5255C61.9664 34.5586 58.6416 36.8349 55.8735 39.0816L52.5776 43.6035L57.556 49.3703L58.8808 47.9746C59.6464 47.168 60.6174 46.598 61.6891 46.3264C62.0133 46.2441 62.3479 46.1897 62.6839 46.1648L65.5986 45.948C66.2254 45.9011 66.7169 45.3654 66.7169 44.7283C66.7169 44.3766 66.5749 44.0537 66.3169 43.8196ZM56.4914 38.13C57.9443 36.989 59.4432 35.8999 60.4789 35.1632C60.0126 34.9234 59.4716 34.8595 58.9605 34.9904C58.3697 35.1416 57.8653 35.5406 57.577 36.0846L56.4914 38.13ZM55.9885 38.3204L55.6166 38.8298C55.6052 38.8421 55.5952 38.8554 55.5877 38.8699L52.2064 43.5061C52.1566 43.5739 52.1605 43.6681 52.2156 43.7319L57.4158 49.7556C57.4489 49.7938 57.4959 49.8162 57.5457 49.8173H57.55C57.598 49.8173 57.6446 49.7974 57.6781 49.7621L59.1374 48.225C59.8564 47.4667 60.7686 46.9317 61.7756 46.6763C62.0802 46.5991 62.3945 46.5479 62.7099 46.5244L65.6246 46.3076C66.4365 46.2474 67.0729 45.5533 67.0729 44.7283C67.0729 44.2795 66.8839 43.8503 66.5546 43.5508C66.2229 43.2496 65.7776 43.1046 65.3338 43.154C64.6978 43.2244 64.0592 43.3629 63.426 43.5674C64.0364 43.1071 65.0836 42.4675 66.7009 41.9261C67.0821 41.7984 67.3911 41.5123 67.548 41.1404C67.7029 40.7749 67.6954 40.359 67.5278 39.9993C67.5295 39.9983 67.337 39.35 66.8066 39.0632C66.7953 39.0571 66.7842 39.0513 66.7728 39.0455L66.7621 39.0401L66.7561 39.0372C66.9177 38.9088 67.0497 38.7414 67.1366 38.547C67.3053 38.1704 67.2882 37.7498 67.0896 37.3933L67.0611 37.3443C66.5568 36.4388 65.6029 36.0644 64.7465 36.4417C63.6342 36.932 62.2251 37.635 61.0231 38.4922C61.6538 37.8565 62.617 37.0827 64.0236 36.3966C64.3831 36.2213 64.659 35.9024 64.781 35.5218C64.9021 35.1441 64.8665 34.743 64.6807 34.3931L64.6458 34.3281C64.2835 33.646 63.4581 33.3736 62.7672 33.7066C62.1287 34.0146 61.4609 34.4226 60.7815 34.9201C60.2091 34.577 59.5208 34.4749 58.8733 34.6405C58.186 34.8169 57.5991 35.2808 57.2634 35.9143L55.9885 38.3204Z" fill="black"/>
</svg>
