<?xml version="1.0" encoding="UTF-8"?><svg id="Layer_1" xmlns="http://www.w3.org/2000/svg" viewBox="0 0 364.1 339.98"><defs><style>.cls-1{fill:#326e36;}.cls-2{fill:#cc2127;}</style></defs><path class="cls-2" d="M179.07,56.19c-60.73-3.97-87.63,53.54-102.95,102.95-8.99,29.02-18.27,62.23-14.69,92.9,2.9,24.84,17.84,52.53,44.31,58.21,13.71,2.94,25.73-3.4,34.85-13.18,10.62-11.39,18.84-22.71,33.13-30,20.98-10.71,37.32,13.05,88.6,16.5,6.37,.43,11.6,.46,14.95,.42,23.65-4.15,38.25-25.12,42.75-48.08,5.83-29.72-1.83-59.91-12.11-87.77-9.26-25.09-21.47-50.27-43.36-66.72-23.12-17.37-57.09-23.38-85.49-25.23Z"/><path class="cls-1" d="M165.41,93.02c1.48-1.5,3.21-2.92,5.23-4.15,11.76-7.13,25.5-2.94,29.28-1.65-5.33-3.3-10.91-7.08-16.59-11.42-2.48-1.89-4.84-3.78-7.09-5.67,4.61-1.06,8.03-.63,10.21-.1,10.47,2.53,14.41,12.58,22.51,11.5,1.63-.22,2.66-.78,3.59-1.22,5.68-2.67,16.05-4.49,36.6-1.2-2.12,1.45-4.94,3.04-8.46,4.2-8.53,2.81-16.06,1.44-19.71,.49,4.66,9.18,8.53,18.75,11.55,28.59-2-1.35-4.07-2.91-6.16-4.71-7.04-6.05-11.73-12.64-14.82-18.07-6.47,18.96-9.37,23-10.8,22.7-1.42-.3-2.41-5.08-1.48-9.15,1.12-4.89,4.65-7.23,3.76-8.84-.9-1.61-5.27-.57-6.11-.6-10.49-.32-20.99-.47-31.49-.71Z"/></svg>