<svg width="238" height="247" viewBox="0 0 238 247" fill="none" xmlns="http://www.w3.org/2000/svg">
<path d="M156.767 71.9967C156.828 71.6897 157.045 71.437 157.34 71.3309C159.56 70.5314 161.832 69.8816 164.126 69.3892C164.236 69.3642 164.348 69.3375 164.495 69.3032C166.385 68.8562 167.038 68.7439 167.999 68.8036C169.356 68.8878 170.495 69.469 171.455 70.6557C172.833 72.3617 173.746 74.6301 174.211 77.1694C174.478 78.6677 174.19 80.806 173.432 82.0186C172.584 83.3939 171.206 84.6145 169.215 85.9453C168.86 86.1828 168.489 86.4217 168.06 86.69C167.893 86.7956 167.721 86.9021 167.508 87.0336C167.433 87.0803 167.079 87.2987 166.984 87.358C166.188 87.8496 165.518 88.2965 164.2 89.1985C164.056 89.2975 164.056 89.2975 163.912 89.3964C161.912 90.7655 160.857 91.4433 159.545 92.1488C157.45 93.2184 155.468 94.4952 153.629 95.9605C152.98 96.4779 152.038 95.9048 152.199 95.0905L156.767 71.9967Z" fill="#FF9BA5"/>
<path d="M162.509 124.779C168.368 123.762 179.29 120.399 181.39 118.223C183.443 116.123 184.205 113.246 184.175 109.34C184.166 108.221 184.107 107.221 183.968 105.466L183.924 104.908C183.587 101.215 182.888 97.5747 181.835 94.0295C180.614 89.7414 178.713 88.7632 173.463 89.0479C168.031 89.4058 162.643 90.1567 157.33 91.2945C156.869 91.3934 156.565 91.8342 156.636 92.3003L161.476 124.035C161.551 124.529 162.017 124.865 162.509 124.779Z" fill="#FF9BA5"/>
<path d="M181.849 103.587C180.498 103.766 178.935 103.954 177.068 104.165C175.684 104.322 174.277 104.476 172.126 104.707C166.121 105.352 164.912 105.485 162.671 105.761C162.183 105.821 161.835 106.266 161.895 106.754C161.956 107.243 162.4 107.59 162.889 107.53C165.116 107.256 166.324 107.124 172.317 106.479C174.47 106.248 175.88 106.094 177.269 105.936C179.146 105.724 180.719 105.534 182.082 105.354C182.57 105.29 182.913 104.842 182.849 104.354C182.785 103.866 182.337 103.523 181.849 103.587Z" fill="#484882"/>
<path d="M150.243 113.877C146.956 109.78 143.67 106.78 140.234 105.003C135.416 102.505 129.878 100.897 124.781 100.711C118.7 100.49 113.505 102.262 109.798 106.263C108.987 107.139 108.34 108.241 107.73 109.722L105.149 101.325C104.962 100.717 104.215 100.495 103.726 100.903C102.019 102.328 99.5506 105.791 96.4845 110.8C94.4216 114.171 92.4558 117.625 90.4709 121.244C89.9624 122.174 89.4396 123.214 88.9013 124.362C87.5768 127.187 86.1854 130.602 84.6515 134.712C83.9237 136.663 83.1911 138.693 82.3261 141.142C81.9682 142.155 80.6281 145.977 80.3229 146.84C76.0374 158.951 73.462 172.224 70.6045 193.304C70.0438 197.445 69.5884 203.594 69.2247 211.229C68.9796 216.374 68.7906 233.027 68.6512 238.537C68.6021 240.466 68.5629 242.256 68.5326 243.864C68.5219 244.427 68.513 244.926 68.5059 245.357C68.5032 245.508 68.5019 245.596 68.4996 245.751C68.4979 245.863 68.4979 245.863 68.4974 245.887C68.4903 246.383 68.8909 246.79 69.3878 246.791L140.216 246.866C140.708 246.867 141.108 246.467 141.108 245.975C141.108 227.008 142.117 191.18 143.905 182.802C145.339 176.097 147.961 167.871 150.919 160.501C152.308 157.033 153.962 153.282 156.189 148.464C156.857 148.36 157.521 148.229 158.18 148.071C161.353 147.288 162.286 147.043 163.919 146.515C170.248 144.466 174.047 141.558 174.724 136.845C175.274 133.013 173.52 127.845 170.79 125.228C168.834 123.353 166.116 122.863 162.505 123.29C161.428 123.418 160.379 123.605 158.861 123.921C158.632 123.969 157.872 124.129 157.764 124.151C157.612 124.183 157.473 124.212 157.344 124.238C154.573 119.75 152.587 116.799 150.243 113.877Z" fill="#FF9BA5"/>
<path d="M151.332 131.995C145.892 132.563 142.753 137.011 144.335 142.061C144.348 142.102 144.917 144.068 145.133 144.722C145.723 146.503 146.343 147.722 147.203 148.451C149.569 150.457 151.882 150.842 155.123 150.044C155.601 149.927 155.893 149.443 155.775 148.966C155.658 148.488 155.175 148.196 154.697 148.313C151.975 148.984 150.248 148.696 148.356 147.091C147.821 146.638 147.317 145.647 146.826 144.162C146.622 143.547 146.06 141.603 146.037 141.53C144.8 137.581 147.17 134.222 151.517 133.768C152.007 133.717 152.362 133.278 152.311 132.788C152.26 132.299 151.822 131.944 151.332 131.995Z" fill="#484882"/>
<path d="M146.938 134.597L146.935 134.597C142.334 135.404 128.902 136.081 122.924 135.947C122.313 135.934 121.696 135.927 120.816 135.922C120.665 135.921 120.546 135.92 120.275 135.919C114.424 135.887 111.943 135.679 109.218 134.661C105.523 133.281 103.142 130.53 102.113 125.983C101.011 121.111 100.223 115.863 99.5128 109.221C99.2477 106.744 99.11 105.307 98.6295 100.145C98.5315 99.0894 98.462 98.3456 98.3916 97.6072C97.765 90.9977 97.1994 83.7001 96.3888 72.2312C96.4654 73.3177 95.6241 61.3313 95.399 58.2113C95.0862 53.8666 94.8179 50.3147 94.5576 47.1149C93.911 39.0544 93.8151 30.9929 94.8927 27.7611C96.2043 23.7258 99.7312 20.8134 103.919 20.2919C114.566 18.695 127.946 17.4873 135.044 17.6351C135.679 17.6484 136.24 17.6541 137.459 17.6622C141.053 17.6861 142.728 17.7291 144.844 17.9025C151.547 18.4517 156.229 20.171 158.92 23.867C160.387 25.8857 161.255 28.8012 161.797 32.731C161.933 33.715 162.046 34.7431 162.156 35.9357C162.198 36.3929 162.238 36.8529 162.288 37.4487C162.279 37.3391 162.379 38.5517 162.405 38.8605C162.438 39.2469 162.467 39.5687 162.496 39.8673C162.517 40.1048 162.517 40.1048 162.539 40.3419C163.434 50.1267 163.461 50.4088 163.831 54.064C164.083 56.5539 164.332 58.8571 164.588 61.0573C166.918 80.7677 168.314 97.3937 168.836 113.52C169.074 120.797 167.989 125.746 164.215 128.987C162.424 130.516 159.508 131.742 155.683 132.774C154.108 133.199 152.445 133.573 150.641 133.925C149.963 134.057 149.295 134.18 148.54 134.314C148.23 134.369 147.157 134.557 146.938 134.597Z" fill="#1A4E66"/>
<path d="M144.958 130.876C139.675 131.462 134.36 131.721 129.044 131.651C121.285 131.482 114.756 132.516 112.648 123.206C110.772 114.917 110.081 104.181 109.275 95.6868C107.965 81.8715 106.913 62.7084 105.785 48.8218C105.482 45.0783 104.604 32.2122 106.053 28.8386C107.501 25.465 111.053 24.4177 113.607 23.9364C119.743 22.751 127.221 21.8285 134.24 21.9755C140.627 22.1092 151.073 21.4452 155.333 27.3234C157.838 30.7727 158.047 39.1956 158.453 43.2734C159.059 49.615 159.625 56.1528 160.387 62.588C162.259 78.4266 163.729 96.4578 164.251 112.501C164.398 116.958 164.117 122.689 160.325 125.942C156.782 128.968 148.02 130.501 144.958 130.876Z" fill="white"/>
<path d="M102.62 22.9861C100.438 24.4458 99.7361 28.1657 99.8355 34.0381C99.8605 35.5284 99.9318 37.0008 100.062 39.0473C100.081 39.3374 100.159 40.5429 100.178 40.8428C100.219 41.4828 100.246 41.9574 100.265 42.3736C100.44 46.1813 100.706 50.5982 101.112 56.6912C101.169 57.5491 101.23 58.4466 101.299 59.4676C101.344 60.1401 101.616 64.1381 101.692 65.2611C101.838 67.4243 101.95 69.1205 102.048 70.6709C102.965 85.2581 104.352 100.819 106.209 118.061C106.719 122.825 107.783 127.287 109.392 130.406C109.618 130.844 110.155 131.016 110.593 130.79C111.03 130.564 111.202 130.027 110.976 129.589C109.488 126.704 108.47 122.435 107.982 117.87C106.127 100.653 104.743 85.1173 103.827 70.5582C103.728 69.0046 103.616 67.3067 103.47 65.1412C103.395 64.0173 103.123 60.0193 103.078 59.3473C103.009 58.3267 102.948 57.4296 102.891 56.5726C102.486 50.4908 102.221 46.0842 102.046 42.2921C102.026 41.8638 101.998 41.3798 101.957 40.7305C101.938 40.4284 101.86 39.222 101.841 38.9341C101.713 36.913 101.642 35.4642 101.618 34.0082C101.53 28.7887 102.161 25.4374 103.612 24.4677C104.021 24.194 104.13 23.6407 103.857 23.2315C103.583 22.8223 103.03 22.7124 102.62 22.9861Z" fill="#0D323F"/>
<path d="M91.2316 149.562C90.5565 149.546 90.1438 148.814 90.4789 148.228C91.6354 146.206 92.9514 144.067 94.5821 141.53C95.2519 140.488 95.9466 139.422 96.8705 138.014C97.1655 137.565 98.2471 135.919 98.1611 136.05C98.6781 135.263 99.0631 134.675 99.437 134.103C100.391 132.641 101.171 131.43 101.889 130.286C107.475 121.388 113.291 114.29 119.561 109.401C123.152 106.601 127.41 107.322 130.106 111.135C131.518 113.129 131.583 115.389 130.645 118.079C130.277 119.136 129.824 120.119 129.02 121.696C127.983 123.731 127.986 123.725 127.69 124.398C126.615 126.843 125.925 131.054 125.773 134.978C125.709 136.655 125.904 138.566 126.33 140.741C126.66 142.429 127.105 144.183 127.731 146.356C127.862 146.811 127.997 147.273 128.168 147.852C128.213 148.004 128.507 148.992 128.589 149.27C128.76 149.849 128.317 150.427 127.713 150.413L91.2316 149.562Z" fill="#FF9BA5"/>
<path d="M98.7951 53.7614C98.6249 51.2658 98.497 48.7902 98.4136 46.3578C98.3967 45.8658 97.984 45.4807 97.492 45.4977C97.0004 45.5146 96.615 45.9273 96.6319 46.4193C96.7161 48.8717 96.8454 51.3674 97.0169 53.8827C97.0504 54.3738 97.4755 54.745 97.9666 54.7111C98.4577 54.6777 98.829 54.2526 98.7951 53.7614Z" fill="#0D323F"/>
<path d="M99.6986 66.0356C99.4776 63.6505 99.306 61.1183 99.1754 58.4051C99.1518 57.9136 98.7338 57.5339 98.2422 57.5575C97.7507 57.5811 97.371 57.9991 97.3946 58.4907C97.5265 61.2288 97.7003 63.7869 97.9236 66.1996C97.9686 66.6899 98.4027 67.0504 98.8929 67.0049C99.3831 66.9599 99.7436 66.5259 99.6986 66.0356Z" fill="#0D323F"/>
<path d="M125.576 136.825C125.868 139.881 126.589 142.278 128.032 145.743C128.112 145.934 128.193 146.126 128.302 146.385C128.369 146.544 128.369 146.544 128.435 146.701C128.501 146.858 128.528 146.922 128.567 147.014C128.777 147.514 128.929 147.882 129.073 148.24C129.255 148.697 129.774 148.919 130.231 148.736C130.688 148.553 130.91 148.034 130.727 147.577C130.579 147.208 130.424 146.832 130.21 146.323C130.171 146.231 130.144 146.167 130.078 146.009C130.012 145.851 130.012 145.851 129.945 145.693C129.836 145.436 129.757 145.245 129.678 145.057C128.297 141.743 127.622 139.499 127.351 136.656C127.304 136.166 126.869 135.806 126.379 135.853C125.889 135.9 125.53 136.335 125.576 136.825Z" fill="#484882"/>
<path d="M91.2642 146.916C92.3966 144.937 93.6894 142.834 95.2938 140.339C95.9618 139.3 96.6552 138.235 97.5795 136.828C97.875 136.378 98.9535 134.738 98.8755 134.857C99.3947 134.067 99.7828 133.475 100.159 132.898C101.122 131.423 101.91 130.199 102.636 129.041C102.898 128.624 102.772 128.074 102.355 127.812C101.938 127.551 101.388 127.676 101.126 128.094C100.406 129.241 99.6242 130.457 98.6665 131.924C98.2912 132.498 97.9044 133.089 97.3857 133.878C97.4641 133.758 96.3852 135.399 96.0893 135.85C95.1623 137.261 94.4657 138.33 93.7941 139.375C92.1746 141.894 90.8666 144.021 89.7168 146.031C89.4726 146.459 89.6206 147.003 90.048 147.247C90.4753 147.492 91.0199 147.344 91.2642 146.916Z" fill="#484882"/>
<path d="M128.283 172.963C129.196 173.172 130.09 173.456 130.957 173.811C131.413 173.997 131.933 173.779 132.119 173.323C132.306 172.868 132.088 172.347 131.632 172.161C130.676 171.769 129.689 171.457 128.682 171.226C128.202 171.116 127.724 171.416 127.614 171.895C127.504 172.375 127.804 172.853 128.283 172.963Z" fill="#484882"/>
<path d="M236.732 209.44C236.119 209.006 235.389 208.769 234.638 208.763C235.248 207.329 235.35 205.73 234.927 204.23C234.45 202.612 233.222 201.322 231.629 200.763C228.991 199.796 226.923 200.875 225.319 202.488C225.654 199.713 225.154 196.902 223.884 194.413C223.737 194.15 220.319 187.995 216.811 187.1C213.941 186.36 211.579 186.828 209.792 188.494C205.924 192.095 205.835 200.679 206.486 206.263C205.968 206.083 205.421 205.998 204.872 206.013C201.913 206.071 197.844 208.687 196.659 211.307C196.213 212.297 195.696 213.736 196.423 214.873C197.149 216.009 198.727 216.21 200.879 216.179C202.684 216.179 204.494 216.178 206.227 216.219C207.564 216.245 208.946 216.268 210.332 216.268C211.718 216.268 213.006 216.245 214.343 216.179L216.125 216.089C220.377 215.884 225.676 215.644 229.495 215.038L230.658 214.859C234.468 214.293 237.476 213.843 237.45 210.996C237.47 210.393 237.204 209.816 236.732 209.44Z" fill="#91D5DD"/>
<path d="M45.2253 169.759C44.8073 169.563 44.3505 169.463 43.8884 169.465C44.0898 168.66 43.99 167.808 43.6076 167.072C42.8233 165.592 40.9337 164.741 38.6074 164.844C35.488 164.982 32.5154 166.755 30.3273 169.037L30.4877 168.592C31.2988 166.332 32.1322 163.992 31.281 160.931C30.4743 158.047 28.9591 154.776 24.2263 154.99C19.9168 155.186 15.4067 158.19 12.1579 163.012C9.484 167.023 8.24062 171.457 8.73084 175.111C6.93485 174.562 4.99443 174.746 3.33396 175.624C1.55134 176.515 0.477315 177.946 0.553076 179.247C0.584272 179.84 0.891774 180.932 2.5808 181.56C3.42349 181.825 4.30518 181.944 5.18789 181.912C6.17278 181.912 7.22898 181.823 8.21834 181.743C9.02052 181.676 9.77813 181.614 10.3441 181.614H22.6085C23.8608 181.614 25.1354 181.636 26.4857 181.663C32.462 181.774 39.2402 181.899 44.8465 179.853L44.9579 179.804C46.7762 178.846 47.8324 176.903 47.7878 174.608C47.7433 172.42 46.7094 170.472 45.2253 169.759Z" fill="#91D5DD"/>
<path d="M158.867 206.526C169.238 195.736 177.037 167.308 154.856 162.33C153.39 162 151.928 161.742 150.476 161.546C147.727 168.448 145.52 175.554 143.875 182.799C142.69 188.352 141.95 200.18 141.531 211.646C135.97 214.449 130.965 220.746 129.583 225.109C129.089 220.943 123.103 215.492 115.804 216.687C108.504 217.881 100.678 226.888 100.166 232.498C98.334 222.837 86.4395 215.234 77.4684 213.545C74.688 213.037 71.8322 213.11 69.0812 213.759C69.4065 206.249 69.8878 198.392 70.5742 193.303C71.4655 186.707 72.4726 179.679 73.7606 172.638H73.6804C68.591 173.039 62.9847 174.242 58.6351 176.903C53.1446 180.268 47.1149 185.727 44.4722 191.743C41.5264 198.455 38.8034 208.331 41.3526 217.618C35.0466 213.981 27.8849 216.7 25.8393 221.348C22.7599 228.332 26.1335 238.827 35.2828 242.022C44.432 245.217 57.7705 247 73.4442 247H124.338C142.931 247 158.141 245.895 164.264 244.375C177.727 241.024 186.845 234.415 190.045 222.244C194.074 206.855 176.306 191.458 158.867 206.526Z" fill="#91D5DD"/>
<path d="M115.691 215.802C109.548 216.808 102.536 223.364 100.135 229.244C96.8309 221.311 87.0769 214.441 77.6646 212.669C71.2815 211.467 64.3944 213.437 59.0162 217.604C58.6272 217.905 58.5563 218.466 58.8576 218.855C59.1593 219.244 59.719 219.315 60.1081 219.013C65.1021 215.144 71.4821 213.318 77.3349 214.42C87.2988 216.297 97.7374 224.31 99.3212 232.664C99.5137 233.68 100.991 233.609 101.085 232.58C101.597 226.973 109.488 218.624 115.979 217.562C119.133 217.045 122.235 217.84 124.763 219.615C127.002 221.187 128.511 223.371 128.73 225.215C128.843 226.167 130.175 226.293 130.464 225.378C131.641 221.66 135.467 216.745 139.662 213.823C144.542 210.423 149.079 210.081 152.46 213.478C152.807 213.827 153.372 213.829 153.721 213.481C154.069 213.134 154.071 212.57 153.724 212.221C149.629 208.106 144.157 208.519 138.643 212.361C134.958 214.928 131.561 218.896 129.736 222.506C127.611 218.211 121.635 214.83 115.691 215.802Z" fill="#1A4E66"/>
<path d="M116.777 67.1155C117.845 74.2664 122.396 79.424 129.467 80.318C139.697 81.6073 148.039 78.4302 150.956 70.1205C153.297 63.4437 152.256 55.6006 148.071 50.3352C145.865 47.5699 141.755 45.4433 137.298 44.8902C132.125 44.248 126.956 45.7018 122.633 49.4305C118.041 53.3871 115.786 60.4823 116.777 67.1155Z" fill="#FC6E47"/>
<path fill-rule="evenodd" clip-rule="evenodd" d="M128.599 70.6437L128.515 70.7476C128.206 71.13 127.644 71.1892 127.262 70.8795C126.879 70.5698 126.82 70.0082 127.13 69.6259L127.214 69.5225L127.45 69.2297C127.705 68.9146 127.99 68.5634 128.295 68.1846C129.17 67.1035 130.044 66.021 130.86 65.0093L130.881 64.9835C131.552 64.151 132.148 63.4112 132.656 62.7797C131.233 61.6611 129.745 60.4868 128.264 59.3125C127.649 58.8254 127.079 58.3731 126.568 57.9671C126.389 57.8249 126.231 57.6984 126.094 57.5896L125.926 57.4564C125.541 57.1498 125.477 56.5887 125.784 56.2036C126.091 55.8186 126.651 55.7549 127.036 56.0619L127.203 56.1947C127.34 56.3035 127.498 56.4291 127.677 56.5713C128.187 56.9769 128.757 57.4287 129.371 57.9154C130.856 59.0919 132.345 60.2685 133.77 61.3888C133.942 61.1731 134.089 60.9882 134.209 60.8371C135.098 59.7114 136.022 58.6102 137.381 57.0361C137.545 56.8463 137.712 56.6533 137.937 56.3935C138.214 56.0735 138.361 55.9042 138.49 55.7553C138.934 55.2415 139.262 54.8618 139.579 54.4905C139.899 54.1166 140.461 54.0725 140.836 54.3925C141.209 54.7125 141.254 55.2749 140.934 55.6492C140.614 56.0236 140.284 56.4055 139.837 56.922C139.708 57.0713 139.561 57.2411 139.284 57.5607C139.06 57.8196 138.893 58.0121 138.73 58.2011C137.386 59.7573 136.477 60.8411 135.608 61.9423C135.488 62.093 135.343 62.2761 135.173 62.4896C138.829 65.3538 141.325 67.2643 142.071 67.751C142.484 68.0197 142.6 68.5719 142.331 68.9841C142.062 69.3968 141.51 69.5131 141.098 69.2444C140.285 68.715 137.79 66.804 134.058 63.8805C133.547 64.5164 132.946 65.2625 132.269 66.1025L132.247 66.1288C131.431 67.1409 130.557 68.2238 129.682 69.3054C129.376 69.6842 129.091 70.0359 128.836 70.351L128.599 70.6437Z" fill="white"/>
<path d="M160.397 11.3873L164.992 1.58734C165.253 1.03023 165.013 0.366825 164.456 0.105627C163.899 -0.155571 163.236 0.0843253 162.974 0.641438L158.38 10.4414C158.119 10.9985 158.358 11.6619 158.915 11.9231C159.473 12.1843 160.136 11.9444 160.397 11.3873Z" fill="#CCC9C6"/>
<path d="M178.5 6.69261L168.691 13.7117C168.191 14.0698 168.076 14.7657 168.434 15.2661C168.792 15.7665 169.488 15.8818 169.988 15.5237L179.797 8.50468C180.298 8.14664 180.413 7.45071 180.055 6.95029C179.697 6.44991 179.001 6.33452 178.5 6.69261Z" fill="#CCC9C6"/>
<path d="M172.98 27.1407L181.916 26.9669C182.531 26.9548 183.02 26.4463 183.008 25.8309C182.996 25.2159 182.487 24.727 181.872 24.739L172.937 24.9129C172.322 24.9244 171.833 25.4329 171.845 26.0484C171.856 26.6634 172.365 27.1523 172.98 27.1407Z" fill="#CCC9C6"/>
</svg>
