<?xml version="1.0" encoding="UTF-8"?><svg id="Layer_1" xmlns="http://www.w3.org/2000/svg" viewBox="0 0 456.27 420.94"><defs><style>.cls-1{fill:#0b0c0c;}.cls-2{fill:#262627;}</style></defs><path class="cls-1" d="M196.72,156.42c2.48,2.87,5.47,3.81,8.29,3.86,13.25,.23,26.5,.1,39.92,.1q-2.44-7.3,5.12-9.92c.94-.33,1.88-.65,2.79-1.04,2.74-1.19,5.28-3.21,5.35-6.06,.07-2.95-3.49-2.98-5.62-3.84-3.52-1.43-7.24-2.35-10.84-3.6-1.17-.41-2.96-.72-2.76-2.33,.18-1.44,1.96-1.66,3.17-1.98,6.17-1.61,18.57,4.1,21.63,9.89,2.08,3.94,.33,6.73-2.93,8.81-2.64,1.69-5.66,2.71-8.05,4.89-1.98,1.81-2.69,3.47-1.25,6.06,1.68,3.03,2.18,7.07,4.51,9.27,2.81,2.64,6.4-.72,9.63-1.3,27.6-4.88,53.35,12.92,57.93,40.3,4.6,27.5-13.65,53.18-41,57.7-21.31,3.52-42.58-8.11-52.19-28.46-.68-1.43-.84-3.22-2.34-4.23-2.57,4.23-1.44,9.78,2.57,12.35,1.22,.78,2.96,1.05,2.41,3.13-.54,2.02-1.9,3.1-3.95,3.17-1.83,.06-3.66,0-5.49-.13-5.34-.38-5.41-.56-2.79-5.46,1.76-3.29,.42-7.27-2.92-8.69q-9.39-4.01-14.57,4.72c-11.29,18.99-30.73,27.35-52.92,22.76-20.09-4.16-34.95-20.46-37.74-41.34-2.56-19.13,3.89-34.89,18.96-46.49,15.15-11.66,32.13-13.51,49.79-5.82,2.89,1.26,4.64,1.05,6.22-1.53,1.03-1.69,2.28-3.28,3.1-5.07,2.9-6.32,1.97-8.39-4.44-10.77-3.07-1.14-6.5-1.81-7.99-5.35-.54-1.28-.85-2.52,.28-3.68,1.22-1.26,2.66-.85,3.59,.05,5.76,5.6,12.9,5.3,20.09,4.94,.99-.05,2,.08,2.99,.08,1.67,0,3.22,.57,3.21,2.34-.01,1.97-1.56,2.72-3.48,2.68-2.56-.04-5.13-.01-8.28-.01Zm77.63,63.27c-3.24-1.88-4.46-4.75-5.74-7.63-3.37-7.55-5.97-15.42-10.2-22.61-1.88-3.19-3.22-3.75-6.41-1.6-12.5,8.45-18.46,27.48-13.11,43.78,5.79,17.64,24.17,32.35,42.75,28.06,20.08-4.63,35.79-24.79,30.68-49.12-5.1-24.26-24.95-32.95-44.64-30.01-6.69,1-6.98,2.1-4.13,8.15,3.32,7.03,6.76,14,10.02,21.05,1.39,3,2.69,6.12,.79,9.92Zm-150.51,.31c-1.92,25.09,26.8,44.31,45.54,39.5,4.21-1.08,7.31-3.72,10.97-5.53,10.15-5.01,15.4-13.55,18.7-23.9,1.08-3.38,.41-4.31-2.95-4.77-12-1.64-23.96-3.6-35.95-5.3-4.37-.62-5.15-1.83-2.26-5.65,6.79-8.99,13.36-18.15,18.63-28.18,1.41-2.69,.82-3.72-1.89-4.25-6.45-1.26-12.67-1.79-19.5-1.1-19.21,1.95-31.71,22.21-31.29,39.17Zm94.48-8.44c13.79-12.49,19.68-29.4,28.66-44.95h-37.58c-9.42,0-9.7,.11-6.43,8.65,4.64,12.11,7,25.21,15.35,36.3Zm-54.3,5.14c11.39,1.41,21.95,2.51,32.42,4.15,3.34,.52,3.44-.59,3.5-3.18,.28-11.3-5.5-19.81-12.33-27.97-1.86-2.22-2.98-2.13-5.02-.24-8.08,7.5-12.79,17.21-18.57,27.24Zm45.77,8.76c-.25,4.21,2.73,7.4,7.22,7.74,4.21,.32,8.33-3.11,8.66-7.22,.35-4.33-3.64-8.68-8.2-8.95-4.46-.26-7.36,2.92-7.68,8.43Zm-7.5-35.02l.6-.33c-2.73-6.59-5.46-13.18-8.72-21.03-.5,4.3-5.51,6.04-2.17,9.9,3.36,3.88,6.85,7.64,10.28,11.45Z"/><path class="cls-1" d="M335.51,218.44c0-14.97,.08-29.94-.07-44.91-.03-3.08,.5-4.35,3.98-4.2,14.94,.64,29.96-1.15,44.84,1.04,24.35,3.59,40.21,22.05,41.22,47.52,.87,22.07-14.68,41.92-37.09,47.51-10.32,2.57-20.81,1.85-31.27,1.96-5.66,.06-11.32-.19-16.97,.09-3.58,.18-4.83-.67-4.76-4.58,.26-14.8,.11-29.61,.11-44.41Zm21.29-1.02c0,8.82,.11,17.64-.07,26.46-.06,2.82,.74,3.73,3.58,3.62,5.15-.21,10.32,.06,15.47-.08,14.08-.38,24.3-9.66,26.68-24.11,2.34-14.19-5.27-28.15-17.98-32.58-8.36-2.91-17.11-1.9-25.73-1.95-2.38-.01-1.96,1.72-1.96,3.17,0,8.49,0,16.98,0,25.46Z"/><path class="cls-1" d="M31.81,218.42c0-14.98,.11-29.96-.08-44.93-.04-3.34,.95-4.09,4.15-4.07,21.97,.14,43.94,.17,65.91-.02,3.69-.03,4.46,1.19,4.21,4.51-.35,4.77,1.5,11.08-.91,13.96-2.51,3-9.03,.82-13.79,.87-11.32,.13-22.64,.12-33.96-.01-2.74-.03-3.86,.61-3.7,3.57,.24,4.65,.25,9.33,0,13.97-.17,3,1,3.5,3.69,3.48,12.82-.13,25.63,.06,38.45-.14,3.37-.05,4.31,.97,4.09,4.22-.28,3.97-.31,8,.01,11.97,.27,3.3-1.05,3.77-3.95,3.74-12.82-.15-25.63,.03-38.45-.14-3.02-.04-3.98,.64-3.92,3.81,.22,9.98-.08,19.97,.17,29.95,.08,3.39-.95,4.34-4.2,4.17-4.65-.24-9.33-.27-13.97,.01-3.22,.2-3.84-1.01-3.82-3.97,.14-14.98,.06-29.96,.07-44.93Z"/><path class="cls-1" d="M228.23,376.33c-63.12,0-126.24,0-189.36,0-4.57,0-6.87-3.69-5.05-7.98,.42-1,1.1-1.05,1.93-1.06,1.17,0,2.33,0,3.5,0,126.08,0,252.15,0,378.23,0,5.04,0,6.9,2.77,5.32,7.71-.32,.99-.79,1.32-1.7,1.32-1.33,0-2.66,0-4,0-62.95,0-125.91,0-188.86,0Z"/><path class="cls-1" d="M79.86,340.44c-.58,.45-.69,.59-.81,.61-9.73,1.87-16.55-1.43-20.45-10.86-1.94-4.68-5.34-7.87-11.22-6.85-1.88,.33-2.61,.82-2.51,2.72,.12,2.32,.14,4.66,0,6.99-.15,2.45,1.19,6.26-.61,7.04-2.81,1.22-6.47,.56-9.76,.53-2.13-.02-1.53-1.79-1.53-2.99-.03-16.14,0-32.28-.04-48.42,0-1.64-.02-2.94,2.24-2.89,9.31,.19,18.67-.26,27.93,.55,8.83,.77,13.26,5.58,15.06,14.08,1.68,7.96-1.16,14.44-8.35,19.1-.83,.53-1.65,1.07-2.63,1.71,4.25,6.26,8.42,12.39,12.69,18.68Zm-26.39-42.92v-.08c-1.33,0-2.69,.16-3.99-.03-3.72-.56-4.77,.82-4.69,4.62,.23,11.09,.05,11.1,11.12,10.7,1.16-.04,2.33-.12,3.49-.26,4.48-.51,6.66-3.11,6.63-7.71-.04-4.39-2.23-6.83-6.56-7.22-1.98-.18-3.99-.03-5.99-.03Z"/><path class="cls-1" d="M384.56,313.53c0-7.82,.11-15.65-.06-23.46-.06-2.7,.5-3.76,3.49-3.71,11.32,.18,22.64,.28,33.95-.01,5.6-.14,3.21,3.68,3.58,6.1,.43,2.82,.36,5.11-3.85,4.9-7.14-.34-14.31,.02-21.47-.16-2.74-.07-3.67,.59-3.66,3.51,.04,7.35-.12,7.35,7.36,7.35,4.83,0,9.66,.12,14.48-.05,2.51-.09,3.41,.52,3.44,3.25,.08,7.39,.24,7.39-7.22,7.39-4.66,0-9.34,.23-13.98-.08-3.44-.23-4.46,1.06-4.01,4.23,.16,1.14,.17,2.35,0,3.49-.49,3.2,.93,3.9,3.92,3.81,7.15-.21,14.31,.03,21.47-.13,2.64-.06,3.78,.4,3.76,3.45-.05,7.27,.13,7.27-7.37,7.27-9.82,0-19.64-.15-29.46,.08-3.36,.08-4.61-.62-4.46-4.27,.3-7.64,.09-15.31,.09-22.96Z"/><path class="cls-1" d="M104.74,313.38c0-7.82,.13-15.64-.07-23.46-.07-2.87,.83-3.6,3.62-3.56,11.15,.15,22.3,.14,33.44,0,2.85-.04,4.17,.41,4.02,3.74-.38,8.57,1.07,6.99-7.1,7.12-5.32,.09-10.68,.35-15.97-.08-4.65-.39-6.32,.74-6.04,5.76,.22,3.96,.85,5.56,5.17,5.24,5.46-.41,10.98,.04,16.46-.16,2.69-.1,3.74,.48,3.72,3.47-.05,7.17,.13,7.17-6.93,7.17-4.83,0-9.66,.2-14.47-.07-3.18-.18-4.19,.93-3.8,3.94,.19,1.47,.17,3.01,0,4.48-.28,2.5,.84,3.1,3.15,3.07,7.32-.11,14.64,.06,21.96-.1,2.78-.06,4.13,.27,4.06,3.66-.15,7.06,.08,7.07-7.07,7.07-9.98,0-19.97-.18-29.95,.09-3.62,.1-4.41-1.03-4.29-4.44,.26-7.64,.08-15.3,.08-22.96Z"/><path class="cls-1" d="M356.76,307.49c-.4,5.07,.77,11.93-.96,18.66-1.63,6.36-5.32,11.01-11.45,13.46-7.58,3.03-15.32,3.04-22.82-.04-7.41-3.04-11.59-8.84-11.83-16.91-.32-10.81-.14-21.63-.45-32.44-.09-3.15,.85-3.89,3.9-3.86,8.43,.07,8.42-.08,8.43,8.29,.01,7.82-.01,15.65,.08,23.47,.09,7.83,4.2,12.27,11.22,12.31,7.43,.04,11.65-4.28,11.75-12.34,.11-9.15,.23-18.32-.06-27.46-.12-3.66,1.1-4.36,4.47-4.26,7.69,.22,7.7,.04,7.72,7.94,0,3.83,0,7.66,0,13.2Z"/><path class="cls-1" d="M191.42,341.72c-7.74-.28-14.46-2.23-20.46-6.56-2.28-1.64-2.15-2.69-.55-5.07,3.22-4.79,6.37-5.68,11.19-2.23,3.92,2.8,8.66,3.08,13.41,2.54,2.49-.28,4.04-1.71,4.5-3.98,.5-2.5-1.05-4.16-3.27-4.92-4.39-1.49-8.86-2.73-13.27-4.16-9.5-3.08-12.79-7.55-12.36-16.66,.37-7.66,5.44-13.08,14.34-14.74,8.02-1.5,15.48,.35,22.38,4.61,1.96,1.21,3,2.47,.93,4.54-.81,.81-1.51,1.81-1.99,2.84-1.51,3.29-3.31,3.79-6.43,1.6-3.48-2.45-7.78-2.71-11.93-2.93-2.55-.13-4.59,.87-5.13,3.66-.53,2.77,.8,4.39,3.39,5.22,4.57,1.47,9.17,2.85,13.68,4.51,9.08,3.34,12.68,8.53,11.79,16.64-.88,8.03-6.81,13.65-15.66,14.78-1.65,.21-3.32,.23-4.55,.31Z"/><path class="cls-1" d="M263.78,285.32c7.05-.04,13.39,1.96,18.92,6.42,1.58,1.28,2.72,2.48,.5,4.21-.64,.5-1.16,1.21-1.6,1.9-2.48,3.9-4.72,4.96-9.22,1.71-7.11-5.13-15.35-3.67-20.63,2.39-5.39,6.2-5.44,16.44-.12,22.97,4.96,6.08,13.21,7.3,20.74,3.21,1.82-.99,3.39-3.79,5.2-2.98,2.44,1.09,4.24,3.63,6.35,5.49,1.88,1.66,.26,2.58-.73,3.58-7.97,8.05-22.69,10.05-33.4,4.55-10.63-5.46-16.69-17.43-14.74-29.1,2.5-14.95,13.57-24.35,28.73-24.38Z"/><path class="cls-1" d="M358.68,137.41c-19.8,0-39.6-.11-59.4,.1-3.82,.04-4.74-1.01-4.63-4.7,.1-3.37,.38-4.89,4.48-4.85,25.12,.22,50.25,.15,75.37,.1,14.47-.03,28.93-.23,43.4-.3,1.74,0,4.24-.71,4.77,1.49,.57,2.33,.49,5.03-.1,7.37-.42,1.64-2.62,.75-3.99,.76-19.97,.06-39.93,.04-59.9,.04Z"/><path class="cls-1" d="M97.29,137.36c-19.8,0-39.61-.11-59.41,.1-3.81,.04-4.3-1.4-4.17-4.6,.11-2.85-.2-4.79,3.96-4.77,39.94,.18,79.87,.16,119.81,.02,3.69-.01,4.26,1.21,4.29,4.52,.04,3.56-.63,4.88-4.59,4.83-19.97-.22-39.94-.1-59.91-.1Z"/><path class="cls-2" d="M60.1,83.28c6.86,3.89,9.62,8.29,8.51,13.07-1.24,5.35-6.1,9.02-13.15,9.4-6.3,.34-12.63,.17-18.94,.41-2.52,.09-3.02-.94-3-3.22,.09-12.81,.11-25.62,0-38.43-.02-2.47,.8-3.09,3.14-3.01,6.15,.21,12.29,.11,18.44,.75,4.9,.51,8.88,2.35,10.5,7.04,1.65,4.78,.36,9.19-3.79,12.48-.51,.41-.98,.88-1.7,1.54Zm-12.69,2.09c-2.77,0-4.95,.18-7.09-.05-2.48-.26-3.64,.24-3.47,3.09,.25,3.98,.09,7.98,.05,11.98-.02,1.47,.04,2.65,2,2.62,6.31-.09,12.68,.47,18.92-.66,4.75-.86,7.43-4.39,7.17-8.76-.28-4.83-3.24-7.03-7.74-7.48-3.47-.35-6.96-.53-9.85-.74Zm.23-19.91q-10.72-.15-10.72,10.58c0,1.32-.01,2.65,0,3.97,0,.98-.11,2.3,1.24,2.24,6.7-.3,13.62,1.59,20.03-1.62,3.66-1.84,5.25-5.13,4.31-9.11-.93-3.96-3.61-6.18-7.91-6.07-2.31,.06-4.63,.01-6.95,.01Z"/><path class="cls-2" d="M269.77,83.96c0-6.32,.11-12.64-.05-18.96-.07-2.59,.68-3.53,3.34-3.43,5.64,.2,11.29-.13,16.92,.81,10.79,1.8,17.75,9.86,18.03,21.11,.28,11.02-6.49,19.77-17,22-6.09,1.29-12.25,.73-18.39,.83-2.61,.04-2.92-1.26-2.88-3.41,.1-6.32,.04-12.64,.04-18.96Zm3.6-.26c0,5.48,.08,10.97-.04,16.45-.05,2.16,.63,3,2.82,2.88,4.3-.24,8.66,0,12.92-.54,8.98-1.12,15.46-8.99,15.59-18.44,.12-9.07-6.19-16.97-15.03-18.36-4.25-.67-8.61-.65-12.9-1.11-2.54-.27-3.53,.41-3.42,3.17,.22,5.31,.06,10.63,.06,15.95Z"/><path class="cls-2" d="M331.75,83.73c0-6.33,.1-12.66-.05-18.98-.06-2.4,.71-3.2,3.11-3.17,8.49,.11,16.99,.04,25.48,.04,1.34,0,2.92-.2,2.78,1.82-.14,2.05-1.87,1.48-3.09,1.49-6.83,.04-13.66,.12-20.49-.03-2.77-.06-4.41,.28-4.04,3.69,.49,4.43-1.81,10.34,.92,12.95,2.3,2.19,8.18,.67,12.47,.74,3,.05,6,0,8.99,.01,1.15,0,2.48-.15,2.47,1.61,0,1.76-1.33,1.6-2.49,1.6-6.33,.01-12.66,.11-18.99-.05-2.53-.06-3.58,.52-3.4,3.28,.3,4.45-1.44,10.3,.78,13.01,2.35,2.87,8.42,.73,12.85,.9,3.99,.16,7.99,.03,11.99,.04,1.22,0,2.48,.15,2.47,1.74-.01,1.64-1.35,1.66-2.53,1.66-8.83,.02-17.66-.06-26.48,.05-2.66,.03-2.87-1.32-2.84-3.43,.09-6.33,.03-12.66,.03-18.98Z"/><path class="cls-2" d="M408.63,87.73c4.69,6.15,9.09,11.91,13.72,17.98-3.11,1.2-4.76-.1-6.23-2.04-3.3-4.37-6.59-8.74-9.95-13.06-1.77-2.28-13.1-4.02-15.33-2.45-1.21,.85-.73,2.11-.74,3.2-.05,3.82,0,7.64-.03,11.46-.01,1.4,.57,3.29-1.85,3.22-2.53-.07-1.6-2.13-1.6-3.38-.07-12.46,.03-24.92-.1-37.39-.03-2.71,.54-3.92,3.53-3.71,6.29,.43,12.63-.57,18.89,.57,7.44,1.35,11.51,5.25,11.9,11.28,.46,6.97-2.3,10.61-10.03,13.31-.62,.22-1.19,.54-2.18,1Zm-8.02-22.86c-2.89,0-4.78,.31-6.53-.06-3.83-.82-4.51,.89-4.31,4.24,.25,4.14,.08,8.31,.05,12.46-.01,1.57-.11,3.07,2.14,3.04,5.81-.1,11.67,.23,17.43-.36,4.83-.49,8.34-5.35,8.12-9.88-.25-5.06-3.37-8.19-9.01-8.84-2.97-.34-5.96-.45-7.9-.59Z"/><path class="cls-2" d="M134.08,84.75c-.29,13.09-10.08,22.49-23.04,22.11-12.87-.38-21.79-10.19-21.46-23.63,.31-13.08,10.12-22.51,23.04-22.16,12.77,.35,21.76,10.26,21.46,23.68Zm-22.13-20.36c-10.93,0-18.87,8.1-18.91,19.31-.05,11.36,8.24,20.18,18.9,20.11,10.3-.07,18.63-8.62,18.77-19.26,.15-11.32-8.08-20.16-18.76-20.17Z"/><path class="cls-2" d="M160.76,77.92c0,4.16-.18,8.33,.04,12.48,.4,7.39,5.51,12.61,12.5,13.11,9.04,.65,14.65-3.08,15.9-11.35,1.29-8.57,.31-17.28,.63-25.92,.06-1.54-1.27-4.24,1.7-4.32,3.38-.09,2.04,2.85,2.03,4.51-.04,8.14,.57,16.29-.56,24.43-1.42,10.15-7.82,16.21-17.48,16.21-10.63,0-17.62-5.76-18.38-16.26-.64-8.78-.21-17.63-.28-26.45-.01-1.27,.1-2.42,1.66-2.51,1.78-.1,2.16,1,2.13,2.57-.07,4.49-.02,8.99-.02,13.48h.13Z"/><path class="cls-2" d="M218.1,83.71c0-6.15-.01-12.3,0-18.45,0-1.4-.56-3.31,1.75-3.36,2.36-.06,1.83,1.86,1.84,3.26,.02,11.13,.22,22.27-.11,33.4-.12,3.96,1.17,4.69,4.74,4.52,6.14-.29,12.3-.09,18.45-.08,1.13,0,2.63-.3,2.8,1.27,.22,2.04-1.54,1.8-2.8,1.81-7.81,.04-15.63-.06-23.43,.06-2.66,.04-3.37-.92-3.3-3.5,.18-6.31,.06-12.63,.06-18.94Z"/></svg>