<?xml version="1.0" encoding="UTF-8"?><svg id="Layer_1" xmlns="http://www.w3.org/2000/svg" viewBox="0 0 234.99 206.46"><defs><style>.cls-1{fill:#dd4d33;}</style></defs><path class="cls-1" d="M71.77,90.66c6.74-15.98,11.11-18.83,24.41-16.29-.82-3.98-3.58-5.37-7.01-5.79-1.59-.2-3.28-.3-3.21-2.25,.08-2.28,2.05-2.03,3.73-2.24,3.32-.42,6.2,3.74,8.43,2.3,2.04-1.32,2.65-5.12,5.11-7.03,3.52-2.74,10.72-4.39,12.06-2.34,2.49,3.81,1.65,7.95-.22,11.87-.49,1.03-1.14,1.99-1.71,2.97q8.29,5.64,13.57,18.5c1.03-8.24,3.74-14.42,12.07-16.74-5.93-6.77-9.08-14.16-7.4-22.98,.72-3.78,1.39-8.89,4.76-9.77,3.27-.86,6.66,3,9.22,5.87,1.31,1.46,2.39,3.12,3.73,4.88,2.86-3.58,6.03-6.44,10.01-8.36,2.03-.98,3.16-1.13,3.86,1.55,.77,2.95,1.31,5.93,.9,8.87-.52,3.66-.07,5.32,4.2,4.03,3.26-.98,6.6,.08,9.85,.82,2.02,.46,2.44,1.48,1.9,3.56-2.23,8.63-10.2,15.39-19.08,16.44-2.9,.34-6.82,.48-4.53,5.83,1.72,4.02,.41,8.19-1.97,11.85-1.34,2.06-2.79,4.04-4.22,6.09,1.98,1.92,5.1-.36,6.44,2.13,1.24,2.3,.45,4.9,.55,7.36,.19,4.31-1.41,10.03,.77,12.58,2.54,2.98,8.45,.91,12.88,.97,10.99,.15,21.99,.04,32.98,.06,1.32,0,2.69-.02,3.94,.33,1.15,.32,1.98,1.31,1.86,2.64-.12,1.3-.94,2.11-2.26,2.25-.99,.11-1.99,.11-2.99,.11-21.65,0-43.31,.03-64.96-.03-1.95,0-4.89,.95-4.93-2.47-.04-3.17,2.63-2.8,4.78-2.85,.17,0,.33,0,.5,0,3.8-.11,8.96,1.25,11.08-.7,2.77-2.55,.47-7.85,1-11.91,.49-3.71-1.21-4.31-4.53-4.3-23.82,.13-47.64,.07-71.46,.07-7.83,0-15.66,.1-23.49-.05-3.14-.06-4.33,.26-2.53,3.72,7.13,13.69,14.13,27.45,20.92,41.31,1.42,2.9,3.36,3.21,5.99,3.07,1.05-.06,2.78-.46,2.54,1.32-.18,1.32,.45,3.12-1.23,4-3.27,1.71-9.32-.33-11.07-3.78-8.19-16.15-16.34-32.32-24.53-48.48-1.53-3.03-3.31-5.9,2.34-6.59,2.81-.35,.75-2.39,.37-3.39-3.44-8.99-7.23-17.85-10.52-26.9-2.2-6.05,.25-12.41,5.38-15.72,5.23-3.38,11.95-3.03,16.76,.84,2.44,1.96,3.67,4.68,4.79,7.46,3.27,8.13,6.53,16.27,10.15,25.31Zm27.29,12.52c6.48,0,12.96-.02,19.44,.02,1.78,.01,3.19-.02,3.45-2.41,.77-6.98,.05-13.64-4.15-19.47-4.4-6.11-10.07-6.78-15.85-1.62-2.47,2.21-4.04,2.36-6.75,.4-5.37-3.87-10.7-2.72-14.58,2.75-3.7,5.23-4.73,11.19-4.55,17.48,.07,2.56,1.43,2.91,3.55,2.88,6.48-.08,12.96-.03,19.44-.03Zm-36.68-20.36c-.83,.98-1.31,1.64-1.89,2.2-1.42,1.37-2.4,4.61-4.91,2.79-3-2.17,.05-4.11,1.37-5.67,2.72-3.25,3.73-6.46,1.37-10.37-1.02-1.68-1.5-3.68-2.32-5.49-2.44-5.36-7.03-7.49-11.61-5.44-4.35,1.95-6.07,6.73-4.1,11.79,2.11,5.4,4.38,10.74,6.54,16.12q6.18,15.39,22.91,14.3c.15,0,.29-.12,.7-.29-.62-2.45-1.34-4.86-2.93-7.03-.56,.48-.93,.8-1.31,1.12-1.38,1.14-2.38,3.96-4.71,1.7-1.87-1.81-.14-3.44,1.18-4.6,4.07-3.58,2.05-7.01-.27-11.13Zm96.98-34.3c-4.51,2.81-6.98,6.38-8.52,10.72-.37,1.06-.61,2.53-2.04,2.53-1.8,0-1.79-1.66-2.04-2.91-.71-3.51-2.28-6.61-4.7-9.21-1.18-1.27-2.32-3.49-4.27-2.78-1.43,.52-1.53,2.75-1.78,4.37-1.4,9.11,2.3,20.04,14.38,23.36,8.74,2.4,18.99-1.57,23.32-9.28,1.32-2.36,.91-3.32-1.73-3.39-3.91-.1-7.55,.84-11.01,2.71-1.34,.72-2.65,2.8-4.34,1.35-1.82-1.56,.26-2.97,.91-4.3,1.97-3.99,2.76-8.11,1.81-13.19Zm-15.29,54.65l.14-1.38c-1.18-.54-2.4-.99-3.51-1.64-1.14-.67-2.43-1.48-1.53-3.12,.79-1.43,2.08-1.26,3.49-.91,5.67,1.43,7.3,.5,9.34-5.13,1.54-4.26-.79-10.38-4.75-12.49-4.07-2.16-8.96-.89-12.18,3.29,1.99,.89,3.97,1.69,5.88,2.65,1.54,.77,3.93,1.28,2.72,3.79-1.01,2.09-2.78,1.06-4.31,.38-1.21-.54-2.5-.93-3.65-1.56-2.18-1.2-3.53-1.32-3.99,1.77-.58,3.92-1.6,7.78-2.45,11.66-.31,1.42-.46,2.69,1.62,2.68,4.39-.02,8.79,0,13.18,0Zm-32.04-40.14c.18-2.05-.93-2.07-2.51-1.73-3.68,.79-7.32,5.32-6.95,8.74,.12,1.1,.33,1.78,1.77,1.69,3.15-.2,7.04-4.05,7.54-7.71,.05-.33,.09-.66,.13-.98Z"/><path class="cls-1" d="M157.22,149c0,2.83-.18,5.67,.05,8.48,.29,3.62-1.41,4.73-4.72,4.54-2.49-.14-5.08,.39-7.47-.11-5.65-1.18-7.35,1.86-8.17,6.58-2.5,14.35-14.12,22.84-28.64,21.08-13.93-1.69-23.9-13.87-22.84-27.89,.93-12.28,9.36-21.75,21.53-24.19,11.33-2.27,23.68,3.7,28.46,14.53,1.66,3.76,3.57,4.72,7.36,4.62,9.05-.25,9.06-.08,9.06-9.21,0-2.5,.11-5-.03-7.48-.12-2.08,.46-2.95,2.74-2.93,2.32,.01,2.78,1.01,2.7,3.01-.12,2.99-.03,5.99-.03,8.98Zm-45.44,35.39c11.53,0,20.95-9.36,20.98-20.82,.03-11.37-9.46-21.04-20.78-21.17-11.5-.13-21.24,9.64-21.17,21.23,.07,11.58,9.35,20.77,20.97,20.76Z"/><path class="cls-1" d="M111.91,158.05c3.1,.35,5.12,1.97,5.17,5.34,.05,3.66-2.12,5.56-5.58,5.44-3.24-.11-5.14-2.11-5.05-5.5,.09-3.38,2.05-5.01,5.46-5.27Z"/></svg>