<svg width="37" height="36" viewBox="0 0 37 36" fill="none" xmlns="http://www.w3.org/2000/svg">
<path d="M18.6107 36C28.5518 36 36.6107 27.9411 36.6107 18C36.6107 8.05887 28.5518 0 18.6107 0C8.66953 0 0.610657 8.05887 0.610657 18C0.610657 27.9411 8.66953 36 18.6107 36Z" fill="#FCD400"/>
<path d="M18.2728 22.6173C17.4684 22.6307 16.6861 22.3517 16.0724 21.8314C14.8229 20.7108 14.1836 19.0609 14.3513 17.3914C14.6067 15.2106 15.8287 13.8943 17.982 13.4621C19.2983 13.2067 21.1254 13.1792 22.3592 13.855C22.7368 14.0719 22.8669 14.554 22.65 14.9316C22.4331 15.3092 21.9509 15.4393 21.5733 15.2224C20.7875 14.7745 19.3061 14.7862 18.2688 14.9866C16.7875 15.2735 16.0763 16.0397 15.9113 17.5446C15.8126 18.6884 16.2476 19.8134 17.09 20.5937C18.0802 21.4189 19.5065 20.8845 21.2629 20.0947L21.813 19.8511C22.0731 19.7242 22.3824 19.7509 22.617 19.9202C22.8515 20.0896 22.9741 20.3745 22.936 20.6613C22.8979 20.9481 22.705 21.191 22.4339 21.2931L21.9034 21.5289C20.8936 22.024 19.5694 22.6173 18.2728 22.6173Z" fill="#040404"/>
<path d="M19.4161 26.0236C18.9941 26.024 18.6472 25.6908 18.6303 25.2692C18.6303 25.2496 18.5517 23.3557 18.4142 22.1847C18.3812 21.9042 18.5006 21.6272 18.7273 21.4582C18.9537 21.2893 19.2535 21.2539 19.5132 21.3659C19.7725 21.4775 19.9529 21.7195 19.9859 22.0001C20.1313 23.2299 20.2098 25.1238 20.2138 25.2063C20.2224 25.415 20.1478 25.6181 20.0059 25.7714C19.8645 25.9246 19.668 26.0154 19.4594 26.0236H19.4161Z" fill="#040404"/>
<path d="M18.7246 14.9548C18.3042 14.9551 17.9577 14.6243 17.9388 14.2043C17.8799 12.884 17.9388 10.829 17.9388 10.7426C17.9459 10.4616 18.1023 10.2058 18.349 10.0718C18.5954 9.93747 18.8952 9.94494 19.1349 10.0915C19.3742 10.2377 19.5176 10.5009 19.5105 10.7819C19.5105 10.8015 19.4594 12.8722 19.5105 14.1375C19.5282 14.5701 19.1926 14.9355 18.76 14.9548H18.7246Z" fill="#040404"/>
<path d="M23.7501 32.2123C23.3591 32.2123 23.0275 31.9246 22.9721 31.5376C22.9171 31.1506 23.1548 30.7816 23.5301 30.672C26.4063 29.8233 28.7835 27.784 30.3984 24.7781C32.3631 21.0885 32.8739 16.4519 31.6676 12.9667C31.5254 12.5565 31.7426 12.1089 32.1529 11.9667C32.5631 11.8244 33.0106 12.0417 33.1529 12.4519C34.4967 16.3341 33.9584 21.4657 31.7855 25.5207C29.9662 28.9156 27.2629 31.2221 23.9741 32.2005C23.9002 32.2138 23.8252 32.2178 23.7501 32.2123Z" fill="#040404"/>
<path d="M19.0939 33.5525C18.6598 33.5949 18.2739 33.2774 18.2315 32.8433C18.189 32.4095 18.5065 32.0232 18.9407 31.9808L19.1961 31.9297C19.4743 31.8664 19.7651 31.9592 19.9552 32.1718C20.1458 32.3843 20.2059 32.6833 20.1128 32.9529C20.0197 33.2224 19.7875 33.4205 19.5065 33.47L19.2472 33.5211C19.1977 33.5376 19.1462 33.5482 19.0939 33.5525Z" fill="#040404"/>
<path d="M6.19844 10.7544C5.91121 10.754 5.64716 10.5968 5.50963 10.345C5.37211 10.0927 5.38311 9.78585 5.53832 9.5442C7.06641 7.34027 9.05424 5.4943 11.3654 4.13359C13.5521 3.01729 15.9536 2.38624 18.4067 2.2829C18.8405 2.26875 19.2039 2.60942 19.2181 3.04321C19.2322 3.47739 18.8916 3.84046 18.4578 3.85461C16.2538 3.95205 14.0959 4.51708 12.1277 5.51276C10.0444 6.74537 8.24952 8.40942 6.86249 10.3929C6.7175 10.6189 6.46681 10.7552 6.19844 10.7544Z" fill="#040404"/>
</svg>
