<?xml version="1.0" encoding="UTF-8"?>
<svg id="Layer_1" data-name="Layer 1" xmlns="http://www.w3.org/2000/svg" viewBox="0 0 252.28 242.9">
  <defs>
    <style>
      .cls-1 {
        fill: #040100;
      }

      .cls-2 {
        fill: #010100;
      }

      .cls-3 {
        fill: #030100;
      }

      .cls-4 {
        fill: #006937;
      }

      .cls-5 {
        fill: #060200;
      }

      .cls-6 {
        fill: #020200;
      }

      .cls-7 {
        fill: #f5b816;
      }

      .cls-8 {
        fill: #febd11;
      }

      .cls-9 {
        fill: #aa4c24;
      }

      .cls-10 {
        fill: #c03426;
      }

      .cls-11 {
        fill: #c73426;
      }

      .cls-12 {
        fill: #d35e26;
      }

      .cls-13 {
        fill: #c53827;
      }

      .cls-14 {
        fill: #c63827;
      }

      .cls-15 {
        fill: #dd6026;
      }

      .cls-16 {
        fill: #d6ac29;
      }

      .cls-17 {
        fill: #d6ab29;
      }

      .cls-18 {
        fill: #070200;
      }

      .cls-19 {
        fill: #48873e;
      }

      .cls-20 {
        fill: #79ad50;
      }

      .cls-21 {
        fill: #fff1cd;
        fill-rule: evenodd;
      }
    </style>
  </defs>
  <path class="cls-21" d="M141.92,128.05c11.47,14.19,22.93,28.39,34.4,42.58,7.34,9.09,14.68,18.18,22.01,27.27,.54,.66,1.02,1.36,1.56,2.02,.48,.58,.71,1.21,.26,1.86-.49,.73-1.25,.91-2.04,.56-1.56-.69-3.12-1.39-4.63-2.18-4.47-2.31-8.91-4.68-13.37-6.99-8.93-4.63-17.87-9.25-26.82-13.86-6.29-3.24-12.6-6.46-18.9-9.69-1.67-.85-3.34-1.72-4.99-2.6-1.09-.58-1.88-.55-2.44,.75-2.11,4.95-4.27,9.87-6.4,14.81-.3,.7-.51,1.45-.81,2.15-4.28,10.05-8.61,20.09-12.86,30.16-3.55,8.41-7,16.87-10.51,25.3-.29,.7-.58,1.46-1.07,2.02-.99,1.13-2.28,.8-2.69-.65-.16-.56-.15-1.18-.15-1.77-.09-15.52-.18-31.03-.25-46.55-.07-14.75-.12-29.5-.18-44.25,0-2.66,.01-2.69-2.56-3.1-13.73-2.2-27.46-4.37-41.19-6.58-11.29-1.81-22.57-3.65-33.85-5.48-3.87-.63-7.75-1.25-11.62-1.87-.34-.05-.68-.08-1.01-.15-.89-.18-1.64-.6-1.8-1.57-.16-1.01,.61-1.52,1.3-2.03,.14-.1,.3-.17,.46-.23,5.47-1.94,10.72-4.44,16.34-5.97,.66-.18,1.3-.43,1.93-.68,13.72-5.25,27.44-10.5,41.16-15.75,.4-.15,.81-.28,1.19-.47,1.22-.58,1.31-.85,.37-1.84-2.52-2.66-5.09-5.28-7.64-7.92-13.49-14-26.99-28-40.47-42-.53-.55-1.05-1.13-1.5-1.74-.44-.59-.53-1.27-.04-1.9,.46-.6,1.12-.8,1.83-.56,.72,.25,1.43,.57,2.1,.94,4.2,2.27,8.4,4.55,12.58,6.85,5.75,3.17,11.49,6.35,17.23,9.54,7.97,4.43,15.94,8.88,23.92,13.31,3.34,1.86,6.7,3.7,10.16,5.6,.69-.87,.39-1.53,.31-2.2-1.61-13.62-3.22-27.24-4.81-40.86-1.52-13.03-3-26.06-4.49-39.1-.04-.34,0-.68-.05-1.02-.12-1.05,.1-1.92,1.25-2.17,1.07-.23,1.79,.34,2.29,1.23,2.4,4.31,4.8,8.63,7.2,12.94,2.77,4.98,5.56,9.95,8.32,14.94,2.71,4.92,5.38,9.86,8.09,14.78,2.71,4.92,5.48,9.8,8.2,14.71,2.1,3.8,4.16,7.62,6.23,11.43,.08,.15,.13,.32,.21,.46,.77,1.36,1.22,1.46,2.23,.31,1.13-1.28,2.19-2.62,3.26-3.94,9.16-11.35,18.31-22.71,27.48-34.05,5.04-6.24,10.11-12.44,15.18-18.66,.32-.4,.67-.78,1.04-1.13,.66-.62,1.41-.52,2.12-.1,.64,.38,1,.97,.81,1.72-.35,1.32-.73,2.62-1.15,3.92-4.93,15.34-9.87,30.68-14.8,46.02-.96,3-1.88,6.02-2.82,9.03-.64,2.04-.45,2.47,1.67,3.17,3.73,1.22,7.48,2.37,11.2,3.6,7.61,2.51,15.21,5.05,22.82,7.57,7.45,2.47,14.9,4.93,22.34,7.38,1.28,.42,2.92,.58,2.99,2.31,.08,1.79-1.63,1.98-2.84,2.45"/>
  <path class="cls-14" d="M51.79,108.18c-.12,.84-.25,1.68-.37,2.52-.17,0-.28,.02-.37,0-1.28-.37-2.59-.67-3.92-.82-.14-.02-.28-.09-.42-.14,.82-.45,1.73-.64,2.61-.91,.81-.25,1.64-.43,2.46-.65Z"/>
  <path class="cls-13" d="M57.98,107.25c-.97,.81-1.94,1.62-2.91,2.43-.39,.33-.78,.66-1.23,1.03-.23-.59,0-1.07,.03-1.57,.04-.48,.08-.96,.12-1.45,.83-.12,1.66-.23,2.48-.36,.5-.07,1.01-.15,1.51-.1h0Z"/>
  <path class="cls-11" d="M62.23,106.93c1.42,.04,2.84,.02,4.25,.12,1.64,.1,3.27,.26,4.9,.47,2.66,.35,5.3,.82,7.9,1.52,4.36,1.17,8.43,2.96,12.02,5.76,2.34,1.82,4.38,3.94,6.26,6.23,2.87,3.49,5.57,7.11,8.03,10.91,3.07,4.75,5.54,9.8,7.36,15.16,1.06,3.11,1.72,6.33,2.18,9.58,.32,2.29,.47,4.6,.56,6.92,.09,2.32-.02,4.62-.53,6.9-.83,3.68-2.66,6.77-5.43,9.32-3.22,2.96-6.99,4.9-11.2,6.06-2.14,.59-4.32,.82-6.54,.68-1.42-.09-2.8-.41-4.18-.74-1.88-.46-3.77-.9-5.69-1.16-3.25-.43-6.47-.36-9.67,.4-2.18,.51-4.1,1.56-5.88,2.89-1.08,.81-2.07,1.71-3.05,2.63-.93,.86-1.85,1.74-2.81,2.57-1.56,1.36-3.4,2.09-5.44,2.41-3.53,.55-6.92,0-10.2-1.27-5.58-2.18-10.09-5.71-13.36-10.77-3.09-4.78-5.22-9.96-6.44-15.52-.81-3.68-1.45-7.39-1.96-11.13-.42-3.11-.67-6.24-.68-9.37,0-2.65,.26-5.29,.57-7.92,.35-2.9,.98-5.73,1.83-8.52,.3-1,.63-1.99,.98-2.97,.5-1.41,1.24-2.72,1.98-4,.63-1.09,1.32-2.16,2.07-3.18,1.28-1.73,2.76-3.23,4.43-4.56,2.73-2.17,5.71-3.92,8.91-5.3,.5-.18,.95,.1,1.42,.18,1.72,.32,3.4,.85,5.12,1.21,.35,.07,.8,.14,.86,.59,.04,.36-.28,.59-.55,.79-1.36,1.05-2.67,2.15-3.89,3.36-.1,.1-.22,.2-.31,.32-.3,.39-.95,.75-.45,1.3,.45,.5,.98,.07,1.39-.25,1.15-.89,2.35-1.72,3.43-2.69,2.02-1.82,4.48-2.23,7.04-2.37,.93-.05,1.86,0,2.8-.02,.44-.01,1,.02,.99-.61,0-.54-.49-.71-.96-.77-.89-.1-1.79,0-2.69-.06-.36-.02-.83,.05-.96-.39-.11-.36,.25-.59,.5-.81,1.32-1.15,2.7-2.23,4.02-3.4,.3-.26,.63-.55,1.09-.48h.01Z"/>
  <path class="cls-4" d="M62.23,106.93c-1.49,1.24-2.99,2.48-4.47,3.73-.36,.3-.78,.54-1.05,.92,.17,.26,.37,.18,.53,.18,.9,0,1.79-.02,2.69,0,.33,0,.67,.05,.99,.14,.48,.13,.79,.58,.77,.98-.03,.49-.41,.86-.97,.89-.56,.03-1.12,.02-1.68,0-1.12-.03-2.23,.01-3.35,.13-.94,.1-1.8,.45-2.72,.61-.37,.07-.73,.36-1.05,.61-1.46,1.1-2.91,2.22-4.36,3.33-.32,.25-.64,.51-.99,.74-.52,.32-1.08,.21-1.39-.23-.21-.31-.25-.64-.05-.94,.17-.24,.37-.47,.58-.67,1.45-1.4,2.96-2.74,4.57-3.94,.15-.11,.33-.19,.36-.4-.04-.19-.21-.17-.34-.2-1.74-.42-3.47-.86-5.22-1.25-.58-.13-1.18-.2-1.7-.52-.03-.1-.07-.21-.1-.32-.19-.84,.28-1.4,1.12-1.31,.48,.05,.95,.18,1.42,.26,.29,.05,.59,.06,.89,.09,1.07-.14,2.11,.08,3.14,.33,1.26,.31,1.26,.31,1.5-.9,.07-.37,.12-.73,.44-.98,.07-.32,.12-.66,.2-.97,.07-.29,.21-.55,.48-.72,.45-.28,1.1-.13,1.33,.36,.12,.26,.13,.57,.18,.86,.45,.96,.1,1.86-.13,2.67,1.29-1,2.45-2.4,4.12-3.12,1.07-.79,2.14-1.58,3.21-2.36,.21-.15,.42-.31,.64-.43,.5-.27,1.01-.2,1.31,.16,.31,.36,.31,.89-.03,1.32-.28,.34-.58,.66-.88,.99h0Z"/>
  <path class="cls-3" d="M81.01,136.35c.1,0,.33-.02,.55,0,1.3,.1,2.01,1.12,1.65,2.35-.43,1.53-2.93,3.24-4.75,2.75-2.26-.61-2.12-2.73-1.1-3.73,.97-.96,2.13-1.47,3.65-1.37h0Z"/>
  <path class="cls-1" d="M79.51,150.76c-1.45,0-2.69-.5-3.72-1.53-.28-.28-.45-.58-.41-.99,.07-.71,.8-1.1,1.39-.74,.19,.12,.36,.27,.52,.42,1.34,1.24,3.68,.96,4.85-.01,.46-.38,.88-.8,1.21-1.31,.12-.18,.25-.38,.42-.51,.27-.21,.58-.32,.93-.15,.38,.17,.58,.44,.6,.86,.01,.35-.1,.65-.29,.94-1.31,1.97-3.11,3.03-5.5,3.02h0Z"/>
  <path class="cls-3" d="M75.45,129.84c.04,.8-.23,1.56-.71,2.25-.4,.58-.95,.94-1.69,.94s-1.28-.34-1.67-.95c-.2-.32-.32-.69-.36-1.05-.1-1.1,.08-2.16,.58-3.14,.32-.64,.99-.9,1.66-1.02,.59-.11,1.07,.21,1.47,.64,.6,.65,.74,1.44,.71,2.34h0Z"/>
  <path class="cls-1" d="M81.24,129.1c-.03-.57,.12-1.12,.28-1.65,.14-.44,.42-.79,.88-.95,.21-.07,.42-.14,.63-.24,.62-.32,1.16-.14,1.66,.24,.5,.38,.76,.9,.91,1.5,.3,1.23-.26,2.89-1.24,3.62-.81,.6-1.74,.51-2.4-.23-.2-.22-.37-.47-.46-.76-.07-.21-.15-.42-.18-.64-.04-.29-.04-.6-.06-.89h0Z"/>
  <path class="cls-10" d="M80.98,138.52c-.48,.57-1.06,.91-1.79,.99-.13,.01-.31,0-.36-.17-.02-.09,0-.23,.06-.3,.29-.4,.71-.64,1.17-.8,.35-.13,.62,.07,.92,.29h0Z"/>
  <path class="cls-15" d="M196.86,41.27c-.89-.9-1.79-1.79-2.68-2.69-1.2-1.21-2.58-2.18-4.08-2.97-1.67-.88-3.45-1.24-5.33-1.09-1.51,.12-2.95,.51-4.36,1.02-1.77,.63-3.47,1.44-5.12,2.36-2.61,1.46-5.16,3.02-7.47,4.94-1.1,.91-2.12,1.89-3.12,2.9-1.67,1.7-3.29,3.44-4.95,5.14-1.45,1.48-2.93,2.92-4.41,4.37-1.15,1.13-2.32,2.23-3.48,3.36-2.17,2.11-4.43,4.14-6.72,6.12-3.23,2.78-6.53,5.46-9.93,8.03-2.45,1.85-4.99,3.57-7.71,4.99-1.57,.82-3.18,1.55-4.87,2.06-3.87,1.15-7.77,2.15-11.78,2.64-3.9,.47-7.8,.62-11.72,.39-1.88-.11-3.73-.4-5.56-.85-1.34-.33-2.69-.64-4.04-.9-1.54-.31-3.06-.71-4.58-1.11-.15-.04-.31-.06-.44-.13-1.49-.81-3.15-1.19-4.72-1.8-.9-.35-1.83-.54-2.79-.66-.3-.04-.62-.03-.92,.02-1.72,.3-2.14,2.15-1.35,3.17,.8,1.03,1.58,2.07,2.6,2.91,1.33,1.1,2.67,2.19,3.98,3.32,2.32,2.01,4.67,3.99,6.9,6.1,1.88,1.77,3.83,3.43,5.81,5.07,2.23,1.82,4.53,3.56,6.92,5.15,1.59,1.06,3.25,2.04,4.86,3.07,.81,.51,1.6,1.05,2.4,1.59,2.81,1.88,5.8,3.44,8.87,4.85,.73,.34,1.47,.65,2.17,1.05,.51,.29,1.04,.48,1.61,.58,1.85,.31,3.71,.61,5.48,1.27,.28,.1,.6,.13,.9,.15,3.18,.18,6.36,.24,9.54-.13,.26-.03,.52-.1,.78-.15-.02-.49-.42-.7-.71-.99-.81-.79-1.37-1.74-1.72-2.8-.19-.59-.12-1.17,.54-1.44,.67-.28,1.12,.09,1.36,.68,.37,.88,.79,1.74,1.42,2.47,.56,.65,.02,1.31,.03,1.97,1.71-.15,3.38-.47,5.01-.95-.47-1.02-1.45-1.65-2-2.62-.7-1.23-1.57-2.36-2.13-3.68-.15-.35-.32-.7-.37-1.09-.09-.68-.06-1.39,.71-1.63,.81-.25,1.15,.35,1.38,1.02,.64,1.87,1.67,3.55,2.8,5.14,.66,.93,.9,1.69,.38,2.68,.39,.04,.76-.11,1.12-.21,5.5-1.48,10.78-3.51,15.83-6.18,5.39-2.85,10.57-6.07,15.73-9.31,1.89-1.19,3.61-2.59,5.13-4.24,1.04-1.13,2.17-2.17,3.32-3.18,2.08-1.82,4.25-3.52,6.35-5.31,1.4-1.19,2.88-2.28,4.18-3.6,1.92-1.95,3.68-4.02,5.21-6.28,1.41-2.07,2.58-4.26,3.36-6.65,1.5-4.63,1.77-9.32,.58-14.07-.27-1.08-.68-2.12-1.1-3.15-1.85,.03-3.49-.47-4.92-1.74-1.45-1.3-2.19-2.82-1.96-4.77,.13-1.07,.18-2.13,.13-3.2-.01-.37,.09-.79-.38-.98h.02Z"/>
  <path class="cls-20" d="M196.86,41.27c.16,1.03,.13,2.06,.06,3.09-.04,.57-.11,1.14-.15,1.71-.13,1.57,.56,2.83,1.6,3.91,.66,.69,1.44,1.24,2.31,1.68,1.08,.55,2.16,.75,3.31,.3,.31-.33,.69-.43,1.13-.5,2.57-.38,4.99-1.23,7.3-2.37,.69-.34,1.33-.76,1.93-1.25,.42-.35,.76-.75,.95-1.27,.45-1.23-.16-2.34-1.46-2.61-.54-.11-1.07-.06-1.6,.07-.67,.16-1.34,.35-1.99,.57-1.27,.45-2.52,.93-3.78,1.4-.21,.08-.4,.22-.67,.18-.17-.2,.03-.33,.12-.46,.4-.56,.82-1.12,1.22-1.68,1.18-1.66,2.28-3.37,3.12-5.23,.31-.66,.56-1.34,.61-2.08,.04-.68-.1-1.29-.61-1.78-.51-.49-1.11-.66-1.8-.49-.57,.14-1.06,.45-1.51,.81-1.25,1.03-2.33,2.22-3.34,3.48-.3,.38-.62,.75-.94,1.13-.26-.15-.14-.4-.12-.61,.17-1.84,.36-3.67,.51-5.5,.08-.96,.1-1.92,0-2.87-.05-.54-.15-1.07-.35-1.57-.7-1.68-2.29-2.01-3.58-.72-.47,.46-.77,1.05-1.04,1.65-.4,.88-.65,1.8-.82,2.75-.35,1.93-.39,3.89-.39,5.85,0,.8,.11,1.6-.03,2.4h0Z"/>
  <path class="cls-9" d="M144.27,114.14c.15-.26,.47-.37,.61-.68,.27-.61,.28-1-.21-1.45-.32-.29-.56-.62-.77-.99-.7-1.23-1.41-2.45-2.1-3.69-.22-.4-.41-.82-.45-1.3-.02-.23-.09-.45-.26-.62-.4-.39-.82-.72-1.42-.54-.62,.18-.93,.64-1.02,1.26-.08,.5,.03,.98,.21,1.46,.6,1.55,1.53,2.9,2.43,4.28,.06,.09,.16,.17,.21,.27,.45,.93,1.2,1.57,2.01,2.16,.28,.04,.53-.03,.77-.17h0Z"/>
  <path class="cls-9" d="M138.49,115.26c.12-.15,.26-.28,.36-.45,.35-.59,.35-1.21-.12-1.7-.68-.72-1.09-1.55-1.41-2.47-.36-1.03-1.59-1.28-2.32-.49-.4,.43-.4,1.01-.2,1.52,.46,1.22,1.07,2.38,2.14,3.21,.22,.16,.41,.34,.62,.52,.32,.04,.63,0,.93-.12h0Z"/>
  <path class="cls-2" d="M170.03,57.57c-.83,.93-1.27,2-1.36,3.23-.1,1.28,.25,2.37,1.41,3.04,1.2,.69,2.44,.65,3.57-.16,1.37-.99,2.33-2.26,2.65-3.99,.12-.67,.22-1.27-.07-1.89-.3-.65-.79-1.09-1.42-1.43-1.55-.86-3.04-.67-4.26,.61-.18,.19-.34,.41-.5,.61h0Z"/>
  <path class="cls-3" d="M164.64,69.89c2.58,1.96,5.42,2.75,8.61,1.87,.93-.25,1.75-.75,2.5-1.35,.29-.23,.44-.53,.51-.87,.19-1.06-.59-1.96-1.82-1.61-.25,.07-.49,.23-.69,.39-1.14,.87-2.44,1.04-3.81,.87-1.92-.25-3.43-1.22-4.61-2.73-.19-.24-.34-.51-.58-.7-.47-.37-1.14-.45-1.6-.13-.48,.32-.73,.77-.66,1.37,.04,.31,.16,.58,.33,.84,.49,.79,1.08,1.48,1.82,2.06h0Z"/>
  <path class="cls-9" d="M148.54,111.04c.23,.19,.45,.41,.76,.51,.44,.15,.98,.02,1.25-.35,.28-.39,.42-.82,.2-1.29-.05-.1-.12-.2-.19-.29-1.13-1.42-1.67-3.18-2.7-4.65-.15-.22-.24-.49-.29-.74-.09-.42-.37-.67-.69-.88-.91-.59-2.02,.01-2.06,1.11-.02,.58,.09,1.15,.4,1.65,.85,1.36,1.71,2.73,2.54,4.1,.21,.34,.5,.57,.79,.83h0Z"/>
  <path class="cls-9" d="M99.85,91.13c.34-.32,.4-.75,.23-1.23-.04-.11-.09-.21-.14-.32-.71-1.61-1.42-3.23-2.11-4.85-.2-.48-.5-.85-.93-1.14-.74-.51-1.79-.07-1.95,.81-.08,.4,0,.76,.16,1.11,.66,1.47,1.26,2.96,2.09,4.35,.24,.39,.43,.82,.67,1.2,.45,.71,1.38,.75,1.96,.07h0Z"/>
  <path class="cls-9" d="M101.6,83.89c-.65-.53-1.04-.57-1.64-.15-.59,.41-.75,1.01-.47,1.71,.07,.17,.16,.35,.27,.51,.72,1.13,1.4,2.27,1.93,3.5,.23,.53,.65,.76,1.18,.77,1.01,0,1.47-.74,1.17-1.74-.22-.72-.57-1.41-.88-2.1-.27-.59-.59-1.15-.88-1.74-.15-.33-.42-.54-.68-.76h0Z"/>
  <path class="cls-18" d="M176.18,50.73c-.25,.42-.73,.98-.97,1.68-.2,.63-.17,1.21,.33,1.7,.52,.51,1.13,.62,1.79,.3,.42-.19,.79-.47,1.1-.83,.53-.61,.92-1.32,1.17-2.09,.22-.63,.1-1.21-.43-1.67-.52-.43-1.22-.52-1.83-.19-.4,.22-.77,.5-1.17,1.08h0Z"/>
  <path class="cls-5" d="M183.12,58.16c.37-.5,.79-.95,.95-1.57,.18-.67,0-1.23-.51-1.63-.43-.33-.9-.42-1.4-.22-1.23,.5-2.12,1.33-2.53,2.62-.24,.75-.05,1.51,.45,1.89,.57,.43,1.33,.42,2.03-.04,.43-.28,.72-.67,1.03-1.05h0Z"/>
  <path class="cls-12" d="M173.27,60.24c.06-.1,.26-.33,.39-.6,.12-.27,.02-.52-.2-.71-.22-.2-.52-.26-.73-.09-.72,.57-1.13,1.31-1.18,2.24,0,.24,.25,.36,.5,.27,.49-.18,.78-.59,1.23-1.1Z"/>
  <path class="cls-8" d="M240.4,117.21c.93,2.1,1.38,4.31,1.43,6.6,.08,3.42-.52,6.74-1.41,10.02-.93,3.43-2.43,6.61-4.27,9.63-1.26,2.06-2.53,4.09-3.8,6.15-2.31,3.76-4.2,7.72-5.89,11.78-.99,2.38-1.99,4.76-3.15,7.07-1.68,3.37-3.73,6.47-6.35,9.17-1.63,1.68-3.43,3.18-5.34,4.54-5.38,3.84-11.11,7.1-17.07,9.95-2.88,1.38-5.92,2.26-9,3.05-4.8,1.23-9.65,2.2-14.52,3.08-2.37,.43-4.75,.74-7.16,.92-1.15,.09-2.29,.23-3.44,.3-1.91,.13-3.84,.15-5.75-.04-1.32-.13-2.64-.26-3.94-.49-2.45-.42-4.63-1.4-6.61-2.95-1.59-1.24-2.77-2.74-3.61-4.54-.25-.54-.49-1.08-.72-1.63-.99-2.39-1.17-4.85-.77-7.4,.22-1.41,.33-2.84,.45-4.27,.12-1.44-.13-2.85-.4-4.26-.54-2.84-1.1-5.68-1.66-8.52-.32-1.61-.69-3.21-.87-4.84-.23-2.08-.37-4.16-.25-6.26,.16-2.69,.58-5.34,1.21-7.95,.93-3.84,2.76-7.22,5.24-10.26,2.27-2.78,4.88-5.18,7.96-7.05,1.13-.69,2.26-1.39,3.38-2.09,2.44-1.53,5.08-2.61,7.76-3.61,.6-.22,1.14-.51,1.67-.85,1.31-.86,2.64-1.69,3.92-2.62,1.21-.88,2.43-1.77,3.53-2.79,.49-.45,1.02-.84,1.61-1.15,.43-.22,.8-.56,1.2-.84,7.14-4.99,10.23-7.06,19.42-10.01,3.06-.98,6.15-1.82,9.31-2.41,1.82-.34,3.65-.61,5.49-.8,1.74-.18,3.47-.34,5.22-.33,2.71,.02,5.34,.47,7.93,1.22,3.39,.99,6.67,2.26,9.74,4.02,.54,.31,1.1,.61,1.57,1.03-.07,.57-.58,.74-.96,1.02-1.61,1.17-1.92,2.77-.6,4.29,2.01,2.31,4.49,3.8,7.68,3.85,.61,.01,1.26-.18,1.82,.25h0Z"/>
  <path class="cls-19" d="M240.4,117.21c-.73,.01-1.46,.01-2.19,.03-.96,.02-1.86-.19-2.73-.57-1.12-.49-2.18-1.07-3.18-1.78-.62-.45-1.19-.96-1.66-1.58-.7-.94-.97-1.98-.68-3.14,.12-.46,.33-.82,.73-1.1,.6-.41,1.18-.85,1.77-1.28,1.51-.83,3.12-1.37,4.83-1.61,1.77-.25,3.54-.33,5.32-.19,1.39,.11,2.78,.17,4.14,.53,1.15,.32,2.22,.8,3.2,1.49,2.31,1.65,2.59,5.11-.08,7-.87,.61-1.85,.98-2.89,1.14-2.06,.31-4.13,.58-6.2,.88-.13,.02-.25,.1-.37,.16Z"/>
  <path class="cls-2" d="M200.93,127.95c.02,1.11-.21,2.01-.66,2.86-.33,.62-.79,1.15-1.39,1.52-1.02,.62-2.26,.58-3.23-.12-.9-.65-1.38-1.56-1.59-2.61-.2-1-.17-2,.13-2.99,.25-.82,.68-1.51,1.31-2.09,1.16-1.07,2.79-1.11,3.97-.06,.88,.77,1.28,1.79,1.43,2.93,.03,.24,.03,.49,.03,.57h0Z"/>
  <path class="cls-6" d="M189.89,123.78c-2.13,.03-3.76-1.63-3.98-3.8-.07-.66,.39-1.21,1.04-1.37,.57-.14,1.16,.18,1.42,.79,.08,.19,.13,.4,.18,.6,.06,.28,.2,.52,.38,.73,.38,.44,.87,.57,1.41,.37,.87-.32,1.32-.99,1.56-1.83,.07-.27,.1-.55,.18-.81,.19-.63,.75-1.04,1.31-.99,.62,.06,1.14,.6,1.21,1.25,.01,.1,.02,.21,0,.32-.29,2.04-1.25,3.59-3.18,4.45-.49,.22-1,.28-1.53,.29h.01Z"/>
  <path class="cls-6" d="M206.6,117.83c-.13,1.69-.8,3.08-2.24,4.05-.83,.56-1.73,.72-2.69,.57-.75-.11-1.37-.5-1.86-1.08-.64-.74-.92-1.63-.96-2.6-.01-.28,.03-.56,.16-.81,.25-.51,.73-.8,1.27-.73,.53,.06,.91,.36,1.07,.87,.09,.26,.1,.55,.16,.82,.05,.2,.09,.41,.18,.59,.21,.38,.58,.49,.98,.32,.62-.27,.98-.77,1.19-1.38,.13-.37,.15-.75,.19-1.13,.08-.77,.6-1.23,1.31-1.2,.7,.02,1.17,.52,1.24,1.3,.01,.14,0,.28,0,.42h0Z"/>
  <path class="cls-6" d="M197.15,139.61c-1.15-.07-2.31-.56-3.24-1.54-.35-.37-.6-.79-.46-1.32,.19-.76,1.09-1.36,1.98-.77,.17,.11,.32,.27,.47,.41,.79,.76,2,.67,2.72,.24,.68-.41,1.17-.98,1.55-1.66,.17-.3,.3-.64,.52-.9,.4-.49,.98-.6,1.5-.33,.57,.3,.84,.87,.69,1.48-.54,2.2-2.98,4.24-5.22,4.39-.1,0-.21,0-.51,0Z"/>
  <path class="cls-16" d="M229.53,126.45c.26-.02,.5,.09,.7,.31,.26,.29,.39,.65,.55,1,.06,.14,.03,.27-.03,.4-.25,.57-.67,.96-1.26,1.16-.76,.26-1.58-.46-1.55-1.34,.02-.8,.75-1.51,1.58-1.53h0Z"/>
  <path class="cls-16" d="M234.22,132.46c-.07-.02-.14-.02-.2-.05-1.11-.46-1.35-1.54-.58-2.54,.27-.35,.72-.46,1.12-.39,.54,.1,.91,.51,1.04,1.04,.16,.62-.65,1.81-1.29,1.92-.03,0-.07,0-.1,.01h0Z"/>
  <path class="cls-17" d="M233.39,124.48c0-.8,.26-1.27,.88-1.5,.56-.22,1.17,.05,1.35,.63,.14,.48,.15,.96-.06,1.43-.22,.5-.77,.83-1.25,.76-.54-.08-.87-.48-.92-1.11v-.21h0Z"/>
  <path class="cls-7" d="M196.53,128.38c0-.65,.16-1.21,.49-1.71,.31-.46,.68-.45,.96,0,.25,.4,.33,.84,.37,1.29,.04,.6-.1,1.17-.4,1.69-.14,.24-.31,.49-.62,.46-.27-.02-.4-.26-.5-.48-.2-.41-.31-.84-.29-1.26Z"/>
</svg>