<svg width="287" height="294" viewBox="0 0 287 294" fill="none" xmlns="http://www.w3.org/2000/svg">
<path fill-rule="evenodd" clip-rule="evenodd" d="M176.638 161.378C188.106 175.571 199.572 189.764 211.037 203.959C218.376 213.046 225.715 222.134 233.05 231.225C233.585 231.887 234.071 232.59 234.613 233.246C235.093 233.829 235.322 234.451 234.872 235.111C234.377 235.842 233.62 236.019 232.836 235.673C231.274 234.986 229.717 234.279 228.201 233.496C223.732 231.185 219.294 228.816 214.828 226.501C205.894 221.871 196.954 217.254 188.008 212.645C181.714 209.403 175.406 206.189 169.107 202.957C167.439 202.102 165.771 201.24 164.117 200.355C163.029 199.773 162.233 199.806 161.679 201.105C159.569 206.053 157.407 210.978 155.277 215.918C154.974 216.621 154.762 217.365 154.462 218.068C150.178 228.121 145.852 238.156 141.606 248.225C138.058 256.637 134.607 265.092 131.098 273.522C130.805 274.226 130.52 274.985 130.033 275.545C129.048 276.678 127.756 276.346 127.347 274.893C127.189 274.333 127.198 273.716 127.195 273.124C127.106 257.606 127.02 242.089 126.948 226.571C126.88 211.82 126.825 197.071 126.771 182.32C126.763 179.659 126.784 179.629 124.213 179.217C110.484 177.017 96.7522 174.843 83.0252 172.641C71.7391 170.829 60.4596 168.99 49.1769 167.163C45.3036 166.537 41.4302 165.916 37.5561 165.293C37.2197 165.239 36.8778 165.209 36.5428 165.141C35.6486 164.96 34.8993 164.54 34.7426 163.574C34.5783 162.566 35.3477 162.057 36.0393 161.547C36.1747 161.447 36.3352 161.374 36.4956 161.318C41.9611 159.378 47.2199 156.873 52.8359 155.345C53.4935 155.167 54.1316 154.914 54.7696 154.669C68.4885 149.422 82.2061 144.172 95.9248 138.922C96.3228 138.77 96.7317 138.638 97.1164 138.455C98.3336 137.872 98.4265 137.602 97.4884 136.611C94.9684 133.947 92.3956 131.334 89.8503 128.694C76.3574 114.696 62.8651 100.697 49.377 86.6935C48.8458 86.1417 48.3277 85.5678 47.8741 84.953C47.4383 84.3611 47.3468 83.6827 47.8299 83.0532C48.2942 82.4492 48.9515 82.2491 49.6557 82.4953C50.3777 82.7461 51.0844 83.0669 51.7571 83.4304C55.9578 85.7028 60.1536 87.9805 64.3365 90.2837C70.0881 93.4489 75.8309 96.6324 81.5694 99.8198C89.5435 104.25 97.5108 108.695 105.485 113.126C108.829 114.984 112.183 116.822 115.644 118.73C116.33 117.864 116.035 117.196 115.957 116.532C114.35 102.91 112.735 89.2912 111.15 75.6673C109.634 62.6377 108.15 49.6029 106.656 36.5696C106.616 36.2314 106.646 35.8847 106.606 35.5479C106.481 34.5026 106.702 33.6295 107.861 33.3773C108.93 33.1447 109.655 33.7147 110.153 34.6109C112.555 38.9221 114.949 43.2364 117.349 47.5483C120.121 52.528 122.912 57.4985 125.666 62.4885C128.381 67.4046 131.044 72.3497 133.76 77.2654C136.474 82.1805 139.24 87.0666 141.956 91.9799C144.056 95.7783 146.114 99.5995 148.189 103.411C148.27 103.56 148.32 103.728 148.403 103.876C149.169 105.235 149.621 105.331 150.634 104.19C151.765 102.914 152.823 101.573 153.896 100.245C163.056 88.8966 172.203 77.5362 181.371 66.1941C186.411 59.9584 191.484 53.7498 196.547 47.533C196.87 47.1365 197.215 46.7535 197.589 46.4061C198.252 45.7883 198.998 45.885 199.709 46.3012C200.353 46.6768 200.713 47.2671 200.514 48.0229C200.168 49.3386 199.786 50.6475 199.369 51.9434C194.44 67.2859 189.5 82.6239 184.571 97.9665C183.606 100.969 182.689 103.988 181.746 106.998C181.106 109.037 181.298 109.471 183.414 110.166C187.139 111.39 190.89 112.537 194.614 113.763C202.227 116.272 209.826 118.817 217.435 121.338C224.881 123.805 232.33 126.263 239.778 128.721C241.057 129.144 242.694 129.299 242.771 131.033C242.852 132.826 241.145 133.012 239.927 133.482" fill="#FFF1CD"/>
<path d="M86.5103 141.508C86.3877 142.348 86.2651 143.188 86.1424 144.028C85.9708 144.028 85.8604 144.053 85.7685 144.028C84.4871 143.654 83.1812 143.36 81.8509 143.207C81.7098 143.188 81.575 143.115 81.434 143.066C82.2494 142.612 83.1629 142.428 84.0457 142.158C84.855 141.907 85.6888 141.723 86.5103 141.508Z" fill="#C63827"/>
<path d="M92.6963 140.577C91.7276 141.386 90.759 142.201 89.7903 143.01C89.3979 143.342 89.0055 143.673 88.558 144.04C88.325 143.452 88.5519 142.968 88.5887 142.471C88.6254 141.987 88.6684 141.508 88.7051 141.024C89.5328 140.908 90.3605 140.791 91.182 140.668C91.6847 140.595 92.1875 140.515 92.6963 140.57V140.577Z" fill="#C53827"/>
<path d="M96.9511 140.258C98.3673 140.294 99.7897 140.282 101.206 140.374C102.843 140.478 104.48 140.632 106.104 140.846C108.765 141.196 111.408 141.668 114.001 142.367C118.366 143.538 122.431 145.328 126.017 148.123C128.359 149.944 130.401 152.066 132.277 154.352C135.146 157.847 137.85 161.458 140.302 165.259C143.368 170.011 145.844 175.062 147.659 180.415C148.714 183.529 149.376 186.742 149.836 189.997C150.161 192.29 150.302 194.601 150.394 196.913C150.486 199.23 150.369 201.535 149.86 203.81C149.033 207.494 147.199 210.584 144.428 213.135C141.21 216.096 137.433 218.04 133.227 219.198C131.088 219.787 128.911 220.02 126.692 219.879C125.269 219.787 123.89 219.468 122.511 219.137C120.628 218.677 118.74 218.236 116.821 217.978C113.572 217.549 110.347 217.616 107.147 218.377C104.97 218.892 103.045 219.934 101.267 221.27C100.188 222.08 99.195 222.981 98.2141 223.901C97.2883 224.765 96.3625 225.642 95.4061 226.469C93.8428 227.824 92.0035 228.56 89.962 228.879C86.4306 229.431 83.0402 228.879 79.7602 227.604C74.1812 225.427 69.6689 221.896 66.4012 216.832C63.3112 212.05 61.1838 206.869 59.9638 201.315C59.1545 197.636 58.5169 193.921 58.008 190.187C57.585 187.079 57.3336 183.952 57.3275 180.813C57.3275 178.158 57.585 175.522 57.8977 172.892C58.2472 169.992 58.8786 167.16 59.7247 164.376C60.0251 163.377 60.3562 162.384 60.7056 161.403C61.2022 159.993 61.944 158.687 62.6859 157.399C63.3174 156.308 64.004 155.241 64.7581 154.218C66.0333 152.489 67.517 150.987 69.1907 149.656C71.9189 147.486 74.8985 145.732 78.0988 144.353C78.6015 144.175 79.0491 144.451 79.515 144.537C81.2378 144.862 82.9115 145.389 84.6343 145.745C84.9837 145.818 85.4374 145.88 85.4926 146.333C85.5355 146.695 85.2106 146.922 84.9408 147.124C83.5798 148.173 82.2677 149.27 81.0477 150.484C80.9435 150.588 80.827 150.686 80.7351 150.803C80.4346 151.189 79.7848 151.551 80.2875 152.102C80.7412 152.599 81.2684 152.17 81.6731 151.857C82.8257 150.968 84.0273 150.141 85.1063 149.166C87.1295 147.345 89.588 146.934 92.1507 146.793C93.0826 146.744 94.0144 146.799 94.9463 146.775C95.3877 146.762 95.9456 146.793 95.9395 146.162C95.9395 145.622 95.4491 145.45 94.9831 145.395C94.0941 145.291 93.1929 145.389 92.2978 145.334C91.9422 145.316 91.4701 145.383 91.3414 144.948C91.231 144.592 91.5866 144.359 91.838 144.138C93.1622 142.992 94.5417 141.907 95.8537 140.742C96.1541 140.478 96.479 140.196 96.9388 140.258H96.9511Z" fill="#C73426"/>
<path d="M96.9511 140.258C95.4613 141.496 93.9654 142.735 92.4817 143.985C92.1262 144.286 91.7031 144.525 91.4273 144.905C91.5928 145.168 91.7951 145.083 91.9606 145.083C92.8557 145.083 93.7508 145.064 94.646 145.083C94.977 145.083 95.3203 145.132 95.6391 145.218C96.1173 145.352 96.43 145.794 96.4055 146.198C96.3748 146.683 95.9947 147.057 95.4307 147.087C94.8728 147.118 94.3087 147.112 93.7508 147.094C92.6289 147.063 91.5192 147.106 90.4034 147.228C89.4654 147.333 88.6009 147.682 87.6813 147.842C87.3073 147.909 86.9517 148.203 86.6268 148.448C85.1677 149.546 83.7208 150.668 82.2678 151.778C81.9429 152.029 81.624 152.292 81.2807 152.513C80.7596 152.838 80.2017 152.728 79.8951 152.28C79.6867 151.974 79.6438 151.643 79.8461 151.336C80.0116 151.091 80.214 150.87 80.4285 150.662C81.8816 149.264 83.3836 147.921 85.0021 146.72C85.1493 146.609 85.3271 146.53 85.3639 146.315C85.3271 146.125 85.1493 146.149 85.0205 146.119C83.2855 145.696 81.5505 145.26 79.8032 144.868C79.2208 144.739 78.6261 144.666 78.105 144.347C78.0743 144.243 78.0314 144.138 78.0069 144.028C77.8168 143.188 78.2827 142.624 79.1227 142.716C79.6009 142.771 80.073 142.9 80.545 142.98C80.8393 143.029 81.1336 143.041 81.434 143.072C82.5069 142.931 83.543 143.151 84.573 143.403C85.8298 143.709 85.8359 143.709 86.075 142.502C86.1486 142.134 86.1976 141.772 86.5103 141.521C86.5778 141.196 86.6268 140.865 86.7065 140.546C86.7801 140.252 86.915 139.994 87.1847 139.829C87.6384 139.546 88.2883 139.7 88.5151 140.19C88.6316 140.448 88.6439 140.76 88.699 141.049C89.1527 142.011 88.8033 142.912 88.5703 143.715C89.8578 142.71 91.0165 141.318 92.6902 140.595C93.757 139.81 94.8299 139.019 95.8966 138.234C96.1051 138.081 96.3135 137.928 96.5404 137.805C97.037 137.536 97.5458 137.603 97.8524 137.965C98.1589 138.326 98.1589 138.854 97.8217 139.283C97.5458 139.626 97.2393 139.945 96.945 140.27L96.9511 140.258Z" fill="#006937"/>
<path d="M115.73 169.673C115.834 169.673 116.061 169.655 116.282 169.673C117.581 169.778 118.293 170.789 117.937 172.021C117.502 173.554 115.006 175.265 113.186 174.774C110.929 174.161 111.07 172.04 112.082 171.041C113.051 170.084 114.216 169.569 115.73 169.667V169.673Z" fill="#030100"/>
<path d="M114.234 184.081C112.781 184.087 111.542 183.584 110.519 182.554C110.243 182.278 110.071 181.972 110.108 181.561C110.175 180.856 110.905 180.464 111.5 180.825C111.69 180.942 111.855 181.095 112.021 181.242C113.357 182.481 115.699 182.199 116.876 181.23C117.336 180.85 117.753 180.427 118.084 179.924C118.207 179.74 118.329 179.544 118.501 179.409C118.771 179.201 119.077 179.09 119.433 179.256C119.813 179.428 120.015 179.697 120.034 180.114C120.046 180.464 119.929 180.764 119.739 181.052C118.427 183.02 116.625 184.081 114.234 184.075V184.081Z" fill="#040100"/>
<path d="M110.175 163.162C110.212 163.959 109.948 164.726 109.464 165.412C109.059 165.989 108.514 166.35 107.778 166.35C107.042 166.35 106.497 166.013 106.111 165.4C105.908 165.075 105.786 164.714 105.755 164.346C105.657 163.248 105.835 162.182 106.331 161.201C106.656 160.563 107.324 160.299 107.987 160.177C108.575 160.066 109.059 160.391 109.458 160.82C110.059 161.47 110.2 162.261 110.169 163.162H110.175Z" fill="#030100"/>
<path d="M115.957 162.427C115.926 161.857 116.073 161.311 116.239 160.778C116.374 160.336 116.656 159.993 117.115 159.827C117.324 159.754 117.538 159.686 117.741 159.582C118.36 159.263 118.899 159.441 119.402 159.827C119.899 160.207 120.162 160.722 120.31 161.323C120.61 162.549 120.046 164.211 119.071 164.94C118.262 165.541 117.336 165.455 116.668 164.714C116.466 164.493 116.294 164.248 116.208 163.953C116.141 163.739 116.055 163.53 116.024 163.31C115.981 163.015 115.981 162.715 115.963 162.421L115.957 162.427Z" fill="#040100"/>
<path d="M115.699 171.844C115.221 172.414 114.639 172.757 113.909 172.831C113.774 172.843 113.596 172.831 113.553 172.659C113.529 172.567 113.56 172.432 113.615 172.359C113.909 171.96 114.326 171.721 114.78 171.556C115.129 171.427 115.399 171.629 115.699 171.85V171.844Z" fill="#C03426"/>
<path d="M231.583 74.5938C230.692 73.6947 229.796 72.8005 228.904 71.9014C227.702 70.6949 226.329 69.7232 224.824 68.9291C223.155 68.047 221.377 67.6896 219.493 67.8431C217.987 67.9667 216.545 68.3575 215.132 68.862C213.359 69.4933 211.66 70.3014 210.016 71.2208C207.405 72.6803 204.857 74.2415 202.543 76.1618C201.444 77.0675 200.424 78.0555 199.428 79.0636C197.761 80.7595 196.142 82.5046 194.475 84.2005C193.021 85.6801 191.541 87.1217 190.061 88.5722C188.91 89.6974 187.74 90.8065 186.584 91.9277C184.413 94.0409 182.158 96.0678 179.863 98.0446C176.638 100.822 173.333 103.508 169.937 106.078C167.487 107.925 164.949 109.651 162.223 111.072C160.655 111.891 159.047 112.619 157.352 113.127C153.487 114.279 149.585 115.279 145.57 115.765C141.674 116.236 137.767 116.386 133.847 116.156C131.962 116.045 130.113 115.753 128.287 115.306C126.945 114.976 125.602 114.668 124.248 114.402C122.707 114.094 121.185 113.696 119.667 113.292C119.52 113.252 119.362 113.235 119.225 113.162C117.737 112.349 116.078 111.976 114.509 111.358C113.613 111.005 112.674 110.813 111.723 110.694C111.424 110.659 111.107 110.665 110.807 110.71C109.083 111.006 108.662 112.861 109.453 113.882C110.249 114.915 111.033 115.953 112.049 116.792C113.38 117.893 114.719 118.984 116.026 120.114C118.344 122.127 120.695 124.102 122.928 126.209C124.803 127.976 126.754 129.643 128.742 131.274C130.971 133.099 133.268 134.833 135.665 136.427C137.256 137.491 138.912 138.468 140.527 139.494C141.339 140.007 142.127 140.548 142.928 141.084C145.739 142.959 148.724 144.527 151.793 145.935C152.521 146.271 153.266 146.589 153.965 146.982C154.479 147.27 155.007 147.464 155.575 147.56C157.425 147.871 159.283 148.172 161.053 148.834C161.335 148.938 161.651 148.963 161.957 148.98C165.142 149.156 168.321 149.22 171.501 148.85C171.763 148.822 172.02 148.749 172.284 148.699C172.262 148.213 171.867 147.998 171.572 147.712C170.762 146.921 170.201 145.97 169.854 144.909C169.661 144.323 169.729 143.739 170.393 143.464C171.066 143.188 171.511 143.55 171.757 144.141C172.129 145.025 172.551 145.877 173.177 146.612C173.734 147.264 173.194 147.922 173.209 148.583C174.914 148.437 176.586 148.115 178.22 147.63C177.747 146.613 176.768 145.985 176.218 145.011C175.52 143.781 174.652 142.647 174.084 141.329C173.932 140.98 173.765 140.628 173.712 140.239C173.618 139.554 173.657 138.848 174.423 138.608C175.237 138.359 175.574 138.96 175.805 139.628C176.449 141.494 177.471 143.182 178.6 144.771C179.262 145.7 179.497 146.462 178.983 147.453C179.376 147.494 179.739 147.344 180.101 147.244C185.601 145.764 190.882 143.739 195.93 141.069C201.324 138.219 206.5 135 211.657 131.756C213.549 130.568 215.27 129.162 216.786 127.52C217.828 126.387 218.952 125.354 220.103 124.336C222.18 122.513 224.353 120.812 226.455 119.027C227.855 117.839 229.34 116.746 230.635 115.429C232.552 113.482 234.311 111.411 235.847 109.154C237.261 107.082 238.431 104.89 239.207 102.501C240.711 97.8705 240.977 93.1779 239.785 88.4345C239.512 87.3538 239.104 86.3167 238.689 85.2893C236.838 85.3144 235.199 84.819 233.772 83.5479C232.325 82.2517 231.586 80.7255 231.812 78.7803C231.939 77.7125 231.99 76.6471 231.946 75.5768C231.931 75.2112 232.031 74.7859 231.566 74.5954L231.583 74.5938Z" fill="#DD6026"/>
<path d="M231.583 74.5938C231.744 75.622 231.717 76.6495 231.645 77.681C231.603 78.2533 231.539 78.8231 231.497 79.3953C231.371 80.9644 232.059 82.2267 233.092 83.3009C233.75 83.9885 234.534 84.5438 235.398 84.9844C236.473 85.5356 237.556 85.7324 238.71 85.2828C239.016 84.955 239.396 84.8533 239.838 84.7863C242.404 84.4051 244.824 83.5583 247.141 82.412C247.831 82.0673 248.473 81.6508 249.069 81.1624C249.489 80.8153 249.833 80.4126 250.023 79.8895C250.474 78.6578 249.859 77.5457 248.568 77.2826C248.026 77.1753 247.493 77.2238 246.967 77.3522C246.297 77.5161 245.629 77.6977 244.979 77.927C243.712 78.3734 242.463 78.8586 241.203 79.3268C240.991 79.4043 240.798 79.5472 240.53 79.5044C240.364 79.3091 240.562 79.1703 240.653 79.0411C241.05 78.4769 241.469 77.924 241.87 77.3638C243.049 75.7035 244.146 73.9923 244.994 72.1383C245.3 71.4748 245.556 70.7936 245.605 70.0551C245.646 69.3755 245.501 68.7621 244.991 68.2714C244.481 67.7807 243.879 67.6161 243.188 67.7864C242.619 67.9277 242.127 68.232 241.682 68.5993C240.432 69.6261 239.35 70.8167 238.346 72.0807C238.045 72.4617 237.721 72.8314 237.406 73.2091C237.141 73.0542 237.266 72.8056 237.288 72.6022C237.457 70.7651 237.644 68.9354 237.803 67.0992C237.886 66.1427 237.898 65.1839 237.802 64.2258C237.748 63.6891 237.655 63.1604 237.449 62.66C236.75 60.978 235.158 60.6529 233.865 61.9387C233.397 62.402 233.097 62.9888 232.829 63.5861C232.43 64.4683 232.178 65.3909 232.009 66.3328C231.661 68.2667 231.62 70.2264 231.624 72.1821C231.629 72.9827 231.733 73.7834 231.591 74.5841L231.583 74.5938Z" fill="#79AD50"/>
<path d="M178.993 147.462C179.148 147.197 179.461 147.097 179.598 146.784C179.873 146.169 179.874 145.784 179.386 145.336C179.064 145.043 178.823 144.711 178.616 144.349C177.913 143.124 177.206 141.895 176.521 140.659C176.301 140.263 176.106 139.838 176.067 139.362C176.046 139.132 175.981 138.914 175.805 138.742C175.407 138.353 174.983 138.024 174.386 138.199C173.762 138.377 173.455 138.844 173.363 139.456C173.288 139.96 173.39 140.438 173.576 140.914C174.174 142.462 175.103 143.819 176.007 145.195C176.069 145.288 176.17 145.364 176.219 145.463C176.666 146.393 177.419 147.036 178.224 147.626C178.501 147.667 178.755 147.6 178.992 147.453L178.993 147.462Z" fill="#AA4C24"/>
<path d="M173.214 148.587C173.335 148.442 173.475 148.304 173.571 148.138C173.925 147.547 173.918 146.925 173.448 146.435C172.769 145.714 172.362 144.883 172.042 143.967C171.684 142.939 170.452 142.684 169.727 143.475C169.328 143.905 169.331 144.482 169.53 144.993C169.995 146.217 170.597 147.375 171.671 148.204C171.887 148.368 172.082 148.547 172.29 148.72C172.612 148.758 172.922 148.73 173.215 148.596L173.214 148.587Z" fill="#AA4C24"/>
<path d="M204.748 90.8972C203.919 91.8231 203.48 92.9014 203.386 94.1274C203.291 95.4027 203.633 96.4995 204.799 97.1678C206.003 97.8594 207.239 97.8141 208.365 97.0044C209.739 96.0156 210.693 94.7427 211.014 93.0171C211.137 92.348 211.23 91.7442 210.941 91.126C210.636 90.4779 210.148 90.0388 209.517 89.6934C207.962 88.8324 206.475 89.0213 205.253 90.3007C205.069 90.492 204.91 90.7124 204.749 90.9061L204.748 90.8972Z" fill="#010100"/>
<path d="M199.356 103.218C201.934 105.176 204.772 105.965 207.968 105.084C208.902 104.829 209.717 104.334 210.472 103.732C210.764 103.5 210.916 103.2 210.984 102.862C211.169 101.803 210.389 100.898 209.168 101.251C208.919 101.323 208.683 101.478 208.474 101.641C207.336 102.514 206.03 102.682 204.663 102.511C202.743 102.265 201.231 101.292 200.055 99.7792C199.868 99.5411 199.714 99.2731 199.472 99.0802C199.004 98.7066 198.335 98.6332 197.867 98.9488C197.39 99.2652 197.136 99.718 197.204 100.316C197.241 100.626 197.368 100.896 197.535 101.159C198.028 101.946 198.615 102.641 199.352 103.222L199.356 103.218Z" fill="#030100"/>
<path d="M183.263 144.365C183.495 144.559 183.717 144.776 184.021 144.874C184.464 145.021 185.003 144.896 185.269 144.527C185.552 144.139 185.688 143.71 185.466 143.238C185.42 143.135 185.344 143.039 185.278 142.951C184.147 141.532 183.61 139.773 182.576 138.296C182.427 138.081 182.34 137.811 182.285 137.552C182.198 137.135 181.915 136.883 181.592 136.671C180.683 136.078 179.57 136.685 179.535 137.78C179.517 138.364 179.622 138.927 179.936 139.435C180.786 140.799 181.644 142.163 182.48 143.532C182.69 143.871 182.98 144.104 183.267 144.36L183.263 144.365Z" fill="#AA4C24"/>
<path d="M134.567 124.46C134.909 124.138 134.964 123.708 134.795 123.231C134.754 123.123 134.709 123.02 134.659 122.912C133.952 121.298 133.237 119.685 132.548 118.06C132.348 117.581 132.045 117.206 131.62 116.918C130.88 116.408 129.833 116.848 129.671 117.731C129.595 118.127 129.673 118.487 129.835 118.844C130.492 120.31 131.094 121.804 131.923 123.192C132.16 123.587 132.351 124.008 132.596 124.393C133.05 125.1 133.971 125.146 134.558 124.461L134.567 124.46Z" fill="#AA4C24"/>
<path d="M136.32 117.215C135.672 116.684 135.284 116.647 134.682 117.065C134.097 117.471 133.932 118.073 134.215 118.776C134.285 118.949 134.377 119.124 134.481 119.285C135.197 120.415 135.878 121.557 136.415 122.784C136.647 123.313 137.067 123.548 137.59 123.55C138.602 123.556 139.062 122.807 138.761 121.809C138.543 121.086 138.195 120.402 137.877 119.71C137.604 119.122 137.284 118.56 137.002 117.972C136.847 117.646 136.582 117.433 136.324 117.211L136.32 117.215Z" fill="#AA4C24"/>
<path d="M210.902 84.0533C210.649 84.4746 210.167 85.0332 209.936 85.7346C209.733 86.3617 209.764 86.9453 210.265 87.4368C210.786 87.9444 211.391 88.0549 212.056 87.7393C212.473 87.5448 212.845 87.2647 213.154 86.9143C213.689 86.3017 214.072 85.5954 214.329 84.8246C214.544 84.1918 214.429 83.6115 213.895 83.1587C213.377 82.727 212.675 82.6342 212.069 82.9668C211.669 83.1912 211.296 83.4713 210.897 84.0492L210.902 84.0533Z" fill="#070200"/>
<path d="M217.844 91.4871C218.211 90.9883 218.63 90.5338 218.789 89.9196C218.97 89.2497 218.794 88.6928 218.278 88.2876C217.85 87.9551 217.376 87.864 216.879 88.0658C215.653 88.5623 214.754 89.3961 214.347 90.6819C214.106 91.4333 214.301 92.1944 214.792 92.5705C215.359 93.0023 216.119 92.9869 216.825 92.5332C217.252 92.2571 217.542 91.8592 217.853 91.4863L217.844 91.4871Z" fill="#060200"/>
<path d="M207.994 93.5694C208.057 93.4741 208.255 93.2368 208.382 92.9656C208.506 92.6993 208.403 92.4491 208.179 92.2546C207.955 92.0512 207.663 91.9971 207.45 92.1642C206.732 92.7309 206.316 93.4759 206.266 94.4025C206.257 94.6406 206.514 94.7648 206.765 94.6704C207.259 94.4912 207.549 94.0844 207.994 93.5694Z" fill="#D35E26"/>
<path d="M275.125 150.533C276.054 152.638 276.501 154.839 276.558 157.138C276.638 160.556 276.036 163.875 275.148 167.155C274.219 170.583 272.722 173.766 270.876 176.787C269.621 178.845 268.342 180.881 267.075 182.933C264.764 186.689 262.872 190.651 261.186 194.716C260.195 197.101 259.197 199.48 258.039 201.791C256.359 205.157 254.312 208.258 251.686 210.965C250.052 212.65 248.252 214.141 246.348 215.506C240.964 219.347 235.237 222.604 229.279 225.453C226.401 226.829 223.362 227.718 220.283 228.504C215.485 229.731 210.634 230.7 205.76 231.582C203.392 232.013 201.007 232.322 198.599 232.506C197.453 232.592 196.306 232.735 195.159 232.809C193.244 232.936 191.323 232.959 189.408 232.769C188.09 232.637 186.771 232.506 185.464 232.282C183.01 231.858 180.831 230.877 178.853 229.335C177.259 228.097 176.084 226.6 175.241 224.8C174.989 224.261 174.748 223.722 174.518 223.171C173.527 220.786 173.349 218.321 173.75 215.775C173.974 214.365 174.077 212.931 174.197 211.509C174.318 210.07 174.065 208.654 173.796 207.249C173.251 204.406 172.695 201.567 172.139 198.724C171.824 197.113 171.451 195.519 171.273 193.885C171.044 191.803 170.906 189.722 171.027 187.624C171.182 184.929 171.606 182.286 172.236 179.671C173.165 175.835 174.994 172.453 177.477 169.408C179.747 166.627 182.362 164.231 185.435 162.356C186.565 161.662 187.694 160.968 188.818 160.263C191.255 158.732 193.898 157.654 196.581 156.657C197.177 156.433 197.722 156.146 198.25 155.802C199.562 154.942 200.893 154.111 202.166 153.182C203.381 152.299 204.591 151.416 205.697 150.39C206.185 149.937 206.718 149.553 207.308 149.238C207.739 149.014 208.105 148.676 208.507 148.4C215.645 143.407 218.741 141.337 227.926 138.39C230.982 137.409 234.078 136.566 237.232 135.976C239.049 135.638 240.878 135.362 242.719 135.179C244.456 135.001 246.193 134.835 247.942 134.846C250.648 134.869 253.286 135.317 255.877 136.068C259.271 137.054 262.545 138.327 265.619 140.087C266.163 140.396 266.719 140.695 267.189 141.119C267.115 141.692 266.605 141.864 266.226 142.139C264.615 143.309 264.306 144.914 265.624 146.428C267.637 148.739 270.119 150.229 273.307 150.281C273.915 150.293 274.563 150.103 275.125 150.528V150.533Z" fill="#FEBD11"/>
<path d="M275.125 150.533C274.397 150.545 273.668 150.545 272.935 150.568C271.977 150.591 271.071 150.378 270.2 150C269.082 149.513 268.015 148.934 267.023 148.223C266.398 147.775 265.831 147.259 265.366 146.646C264.661 145.706 264.392 144.668 264.684 143.504C264.799 143.045 265.017 142.684 265.418 142.409C266.02 142.002 266.599 141.555 267.19 141.13C268.703 140.305 270.314 139.76 272.017 139.525C273.783 139.278 275.555 139.192 277.332 139.336C278.72 139.445 280.113 139.502 281.472 139.869C282.624 140.184 283.696 140.666 284.671 141.36C286.982 143.011 287.263 146.474 284.591 148.36C283.719 148.974 282.745 149.341 281.701 149.496C279.637 149.805 277.567 150.08 275.497 150.373C275.371 150.39 275.251 150.476 275.125 150.533Z" fill="#48873E"/>
<path d="M235.655 161.278C235.672 162.39 235.443 163.29 234.996 164.139C234.663 164.764 234.21 165.286 233.602 165.658C232.582 166.283 231.338 166.238 230.369 165.538C229.474 164.89 228.987 163.973 228.781 162.929C228.586 161.932 228.609 160.928 228.912 159.936C229.165 159.116 229.589 158.423 230.22 157.844C231.378 156.777 233.006 156.737 234.187 157.781C235.07 158.555 235.466 159.575 235.621 160.71C235.655 160.951 235.649 161.198 235.655 161.284V161.278Z" fill="#010100"/>
<path d="M224.607 157.104C222.479 157.133 220.851 155.476 220.627 153.308C220.559 152.649 221.017 152.093 221.671 151.938C222.244 151.8 222.829 152.116 223.087 152.729C223.167 152.919 223.219 153.125 223.265 153.326C223.328 153.607 223.46 153.847 223.643 154.06C224.022 154.501 224.509 154.627 225.054 154.426C225.92 154.111 226.372 153.44 226.613 152.597C226.688 152.328 226.711 152.047 226.791 151.783C226.986 151.153 227.542 150.746 228.098 150.797C228.718 150.854 229.239 151.393 229.308 152.047C229.32 152.15 229.325 152.259 229.308 152.362C229.021 154.398 228.058 155.952 226.126 156.812C225.639 157.029 225.123 157.093 224.595 157.098L224.607 157.104Z" fill="#020200"/>
<path d="M241.32 151.158C241.188 152.844 240.517 154.237 239.084 155.212C238.258 155.774 237.352 155.934 236.389 155.785C235.638 155.671 235.019 155.286 234.526 154.707C233.889 153.962 233.608 153.079 233.568 152.11C233.557 151.829 233.602 151.554 233.729 151.296C233.981 150.791 234.457 150.499 235.001 150.562C235.535 150.625 235.907 150.917 236.074 151.428C236.16 151.691 236.171 151.978 236.234 152.248C236.28 152.448 236.32 152.66 236.412 152.838C236.618 153.217 236.997 153.326 237.392 153.154C238.012 152.884 238.367 152.385 238.585 151.772C238.717 151.405 238.734 151.026 238.774 150.642C238.854 149.874 239.376 149.415 240.087 149.438C240.787 149.461 241.262 149.96 241.326 150.734C241.337 150.872 241.326 151.015 241.326 151.153L241.32 151.158Z" fill="#020200"/>
<path d="M231.871 172.94C230.724 172.871 229.56 172.384 228.626 171.398C228.276 171.031 228.029 170.612 228.167 170.079C228.362 169.322 229.262 168.714 230.151 169.311C230.323 169.425 230.472 169.58 230.621 169.723C231.412 170.48 232.622 170.394 233.344 169.964C234.027 169.557 234.514 168.984 234.892 168.302C235.059 167.998 235.196 167.665 235.409 167.401C235.804 166.908 236.389 166.799 236.911 167.069C237.484 167.367 237.754 167.94 237.604 168.548C237.065 170.744 234.629 172.791 232.381 172.94C232.278 172.946 232.169 172.94 231.871 172.94Z" fill="#020200"/>
<path d="M264.254 159.776C264.518 159.753 264.758 159.862 264.953 160.085C265.211 160.378 265.343 160.739 265.504 161.083C265.567 161.221 265.532 161.353 265.475 161.479C265.229 162.052 264.804 162.442 264.22 162.643C263.457 162.901 262.643 162.184 262.671 161.307C262.694 160.504 263.417 159.793 264.254 159.782V159.776Z" fill="#D6AC29"/>
<path d="M268.944 165.785C268.875 165.767 268.806 165.762 268.743 165.733C267.637 165.269 267.396 164.191 268.164 163.193C268.434 162.843 268.887 162.734 269.282 162.803C269.827 162.901 270.188 163.308 270.326 163.847C270.486 164.472 269.678 165.653 269.041 165.767C269.007 165.773 268.973 165.773 268.938 165.779L268.944 165.785Z" fill="#D6AC29"/>
<path d="M268.113 157.809C268.107 157.006 268.376 156.542 268.996 156.307C269.557 156.089 270.165 156.359 270.343 156.938C270.486 157.414 270.492 157.901 270.28 158.371C270.056 158.87 269.512 159.202 269.03 159.134C268.491 159.053 268.164 158.658 268.113 158.027C268.113 157.958 268.113 157.889 268.113 157.815V157.809Z" fill="#D6AB29"/>
<path d="M231.246 161.708C231.246 161.06 231.407 160.498 231.733 159.999C232.043 159.535 232.41 159.546 232.697 159.999C232.943 160.395 233.029 160.837 233.064 161.284C233.109 161.88 232.96 162.453 232.662 162.975C232.525 163.216 232.353 163.468 232.037 163.44C231.768 163.417 231.642 163.182 231.538 162.964C231.338 162.557 231.229 162.121 231.246 161.708Z" fill="#F5B816"/>
</svg>
