<svg width="259" height="224" viewBox="0 0 259 224" fill="none" xmlns="http://www.w3.org/2000/svg">
<path fill-rule="evenodd" clip-rule="evenodd" d="M124.041 78.1794C124.041 78.1794 130.115 74.2115 129.034 57.8251C129.034 57.8251 138.639 62.3201 149.118 54.7197L151.535 77.9902C151.535 77.9902 144.27 86.2424 136.652 85.4421C129.034 84.6418 124.041 78.1794 124.041 78.1794Z" fill="#FBEFE3"/>
<path fill-rule="evenodd" clip-rule="evenodd" d="M129.268 57.3271C135.478 60.2332 141.963 59.2306 148.795 54.2747C149.138 54.026 149.621 54.2418 149.665 54.663L152.082 77.9333C152.098 78.0859 152.049 78.2384 151.948 78.3535C146.997 83.9777 141.872 86.5434 136.595 85.989C131.364 85.4394 127.025 82.9406 123.606 78.5156C123.41 78.2617 123.472 77.8945 123.741 77.7191C127.572 75.2156 129.194 68.605 128.486 57.8613C128.458 57.4438 128.889 57.1497 129.268 57.3271ZM150.962 77.8051L148.667 55.7088L148.214 56.0162C141.913 60.1853 135.8 61.126 129.925 58.8075L129.637 58.6903L129.651 58.9426C130.163 68.8078 128.641 75.2219 124.994 78.165L124.832 78.2912L125.093 78.6075C128.123 82.1967 131.835 84.2689 136.25 84.8413L136.71 84.8952C141.589 85.4078 146.387 83.0056 151.123 77.6268L150.962 77.8051Z" fill="black"/>
<path fill-rule="evenodd" clip-rule="evenodd" d="M136.672 59.339C125.572 59.339 116.574 49.7976 116.574 38.0258C116.574 26.2541 125.572 16.7115 136.672 16.7115C147.772 16.7115 156.77 26.2541 156.77 38.0258C156.77 49.7976 147.772 59.339 136.672 59.339Z" fill="#FBEFE3"/>
<path fill-rule="evenodd" clip-rule="evenodd" d="M136.672 17.2615C125.893 17.2615 117.124 26.5764 117.124 38.0259C117.124 49.4754 125.893 58.7892 136.672 58.7892C147.45 58.7892 156.22 49.4754 156.22 38.0259C156.22 26.5764 147.45 17.2615 136.672 17.2615ZM136.672 59.889C125.286 59.889 116.024 50.0814 116.024 38.0259C116.024 25.9693 125.286 16.1617 136.672 16.1617C148.058 16.1617 157.32 25.9693 157.32 38.0259C157.32 50.0814 148.058 59.889 136.672 59.889Z" fill="black"/>
<path fill-rule="evenodd" clip-rule="evenodd" d="M136.083 45.5735C135.777 45.5229 135.487 45.7341 135.438 46.0409C135.18 47.6454 133.52 47.5839 133.331 47.5674C133.02 47.5278 132.754 47.7774 132.73 48.0864C132.707 48.3966 132.939 48.6671 133.248 48.6924C133.318 48.6968 133.393 48.7001 133.471 48.7001C134.509 48.7001 136.232 48.1986 136.549 46.2191C136.599 45.9133 136.391 45.623 136.083 45.5735ZM125.37 29.9746C125.271 29.9746 122.977 29.9405 120.938 31.6924C120.702 31.8948 120.675 32.25 120.877 32.4865C120.989 32.6162 121.146 32.6822 121.304 32.6822C121.434 32.6822 121.565 32.6371 121.672 32.5458C123.375 31.0832 125.33 31.1041 125.345 31.1008C125.648 31.0799 125.911 30.8599 125.918 30.5509C125.925 30.2397 125.68 29.9823 125.37 29.9746ZM138.711 31.6924C136.672 29.9405 134.375 29.9713 134.279 29.9746C133.969 29.9823 133.723 30.2419 133.729 30.552C133.738 30.8643 133.993 31.0755 134.307 31.1008C134.318 31.0964 136.26 31.07 137.978 32.5458C138.083 32.6371 138.214 32.6822 138.344 32.6822C138.502 32.6822 138.66 32.6162 138.772 32.4865C138.973 32.25 138.947 31.8948 138.711 31.6924ZM124.197 35.2281C123.556 35.2281 123.037 36.053 123.037 37.0724C123.037 38.0897 123.556 38.9156 124.197 38.9156C124.837 38.9156 125.356 38.0897 125.356 37.0724C125.356 36.053 124.837 35.2281 124.197 35.2281ZM135.453 35.2281C134.812 35.2281 134.294 36.053 134.294 37.0724C134.294 38.0897 134.812 38.9156 135.453 38.9156C136.093 38.9156 136.612 38.0897 136.612 37.0724C136.612 36.053 136.093 35.2281 135.453 35.2281ZM130.895 43.1706L128.087 42.8296L128.968 39.4798C129.047 39.1795 128.867 38.8716 128.567 38.7924C128.268 38.7089 127.958 38.8925 127.879 39.1938L126.833 43.1672C126.791 43.3245 126.821 43.4917 126.912 43.6269C127.003 43.7622 127.147 43.8502 127.309 43.8689L130.761 44.2879C130.783 44.2912 130.806 44.2923 130.828 44.2923C131.11 44.2923 131.352 44.0833 131.387 43.7985C131.424 43.4884 131.204 43.209 130.895 43.1706Z" fill="black"/>
<path fill-rule="evenodd" clip-rule="evenodd" d="M161.756 45.6456C159.231 50.3289 155.268 53.6447 150.07 53.6447L149.635 43.9652C149.763 43.9762 149.886 44.0037 150.017 44.0037C152.188 44.0037 153.948 42.2518 153.964 40.0853C153.971 39.2539 153.587 38.4511 153.048 37.8187C151.592 36.1086 150.377 35.9766 149.285 36.1834L148.221 26.874C147.989 24.846 146.275 23.3141 144.233 23.3141H124.413C119.932 23.3141 116.454 19.4176 116.952 14.9658C117.992 5.65754 122.978 -6.48482 143.784 6.51865C154.231 13.0468 160.785 19.8806 163.07 26.8267C165.114 33.0381 164.859 39.8906 161.756 45.6456Z" fill="#EE7A08"/>
<path fill-rule="evenodd" clip-rule="evenodd" d="M150.226 44.5618L150.609 53.0684C154.922 52.8605 158.688 50.1496 161.26 45.3778C164.149 40.0198 164.614 33.3223 162.536 27.0021C160.309 20.2364 153.899 13.5048 143.487 6.99537C135.104 1.75615 128.606 0.186794 124.181 2.33131C119.593 4.55061 118.023 10.4607 117.512 15.0291C117.292 16.9943 117.921 18.9662 119.238 20.4376C120.554 21.908 122.439 22.7515 124.412 22.7515H144.235C146.563 22.7515 148.517 24.4957 148.781 26.8085L149.78 35.5515C150.8 35.4845 152.056 35.7847 153.477 37.453C154.161 38.2558 154.534 39.1917 154.527 40.0902C154.51 42.4877 152.6 44.4518 150.226 44.5618ZM150.07 54.2077C149.77 54.2077 149.521 53.9713 149.509 53.67L149.074 43.9888C149.066 43.8272 149.13 43.6688 149.246 43.5566C149.366 43.4434 149.531 43.3939 149.688 43.4027L149.844 43.4225C149.902 43.4302 149.959 43.439 150.018 43.439C151.87 43.439 153.388 41.9334 153.401 40.0803C153.408 39.4535 153.13 38.7793 152.62 38.1821C151.293 36.6249 150.283 36.5677 149.389 36.736C149.24 36.7657 149.077 36.7294 148.951 36.6359C148.825 36.5435 148.743 36.4016 148.725 36.2455L147.662 26.9372C147.464 25.193 145.99 23.8766 144.235 23.8766H124.412C122.119 23.8766 119.927 22.8978 118.4 21.1888C116.869 19.4776 116.138 17.1868 116.393 14.9026C117.168 7.94885 119.693 3.25181 123.692 1.31734C128.492 -1.00643 135.352 0.583806 144.083 6.04078C154.726 12.6921 161.293 19.6271 163.606 26.6512C165.781 33.264 165.287 40.2838 162.252 45.9134C159.368 51.2626 155.042 54.2077 150.07 54.2077Z" fill="black"/>
<path fill-rule="evenodd" clip-rule="evenodd" d="M198.695 134.719L207.621 156.69L258.366 142.07L242.192 118.479C223.692 91.4987 193.082 75.3719 160.367 75.3719H152.428C150.302 79.849 145.04 83.0262 138.864 83.0471C132.688 83.0262 127.425 79.849 125.3 75.3719H117.361C84.647 75.3719 50.5855 91.006 32.0855 117.986L17.1376 141.348L70.1963 158.546L79.0328 134.719L75.8237 158.707L68.9041 199.235H208.823L201.904 158.706L198.695 134.719Z" fill="#EFF2F7"/>
<path fill-rule="evenodd" clip-rule="evenodd" d="M69.5726 198.672H208.157L201.349 158.8L198.137 134.794C198.101 134.512 198.277 134.248 198.55 134.176C198.828 134.1 199.11 134.245 199.217 134.507L207.953 156.009L257.462 141.744L241.728 118.799C223.326 91.9595 192.911 75.935 160.368 75.935H152.779C150.393 80.5891 144.978 83.5893 138.866 83.6113C132.75 83.5893 127.334 80.5891 124.951 75.935H117.361C83.4888 75.935 50.1982 92.5676 32.5505 118.306L18.0041 141.038L69.8563 157.846L78.5058 134.524C78.6048 134.255 78.893 134.106 79.169 134.173C79.4483 134.242 79.6298 134.509 79.5913 134.794L76.3822 158.783L69.5726 198.672ZM208.824 199.798H68.905C68.739 199.798 68.5817 199.724 68.4739 199.598C68.3672 199.472 68.3221 199.304 68.3507 199.14L75.2693 158.613L77.8064 139.648L70.724 158.742C70.6195 159.026 70.3094 159.173 70.0235 159.083L16.9637 141.884C16.7977 141.83 16.6668 141.702 16.6074 141.54C16.5491 141.374 16.5689 141.192 16.6635 141.046L31.6124 117.684C49.4746 91.6328 83.1281 74.8099 117.361 74.8099H125.3C125.518 74.8099 125.716 74.9353 125.809 75.1311C127.92 79.5785 133.045 82.4653 138.866 82.4851C144.682 82.4653 149.808 79.5785 151.92 75.1311C152.013 74.9353 152.211 74.8099 152.429 74.8099H160.368C193.283 74.8099 224.044 91.0159 242.657 118.161L258.831 141.751C258.933 141.9 258.958 142.091 258.897 142.26C258.836 142.43 258.697 142.561 258.523 142.611L207.778 157.232C207.5 157.314 207.209 157.169 207.101 156.903L199.84 139.033L202.462 158.631L209.379 199.14C209.406 199.304 209.361 199.472 209.254 199.598C209.148 199.724 208.989 199.798 208.824 199.798Z" fill="black"/>
<path fill-rule="evenodd" clip-rule="evenodd" d="M116.139 158.675L86.9512 151.334C84.6021 150.742 83.1757 148.358 83.7663 146.008L99.6302 82.9415C100.221 80.5913 102.605 79.166 104.955 79.7566L134.143 87.0985C136.492 87.6891 137.918 90.0734 137.326 92.4235L121.464 155.49C120.873 157.84 118.489 159.266 116.139 158.675Z" fill="#FF5613"/>
<path fill-rule="evenodd" clip-rule="evenodd" d="M103.876 80.1855C103.193 80.1855 102.521 80.3692 101.921 80.7288C101.043 81.2545 100.423 82.0881 100.174 83.0789L84.3113 146.146C83.7978 148.192 85.0427 150.273 87.0871 150.787L116.275 158.128C117.264 158.378 118.294 158.227 119.17 157.703C120.048 157.178 120.667 156.343 120.917 155.354L136.779 92.2861C137.293 90.2405 136.048 88.1587 134.003 87.644L104.816 80.3032C104.505 80.224 104.189 80.1855 103.876 80.1855ZM117.216 159.373C116.811 159.373 116.403 159.323 116 159.221L86.8133 151.881C84.1662 151.214 82.5539 148.519 83.2193 145.872L99.0821 82.804C99.4054 81.5217 100.208 80.4418 101.342 79.7621C102.477 79.0847 103.808 78.8889 105.091 79.21L134.278 86.5509C136.925 87.2184 138.537 89.9139 137.871 92.5599L122.009 155.629C121.685 156.911 120.882 157.99 119.749 158.669C118.97 159.135 118.1 159.372 117.216 159.373Z" fill="black"/>
<path fill-rule="evenodd" clip-rule="evenodd" d="M103.163 87.2075C102.824 88.5558 103.643 89.9228 104.99 90.2616C106.338 90.6014 107.705 89.7832 108.044 88.4349C108.384 87.0877 107.565 85.7196 106.217 85.3809C104.87 85.041 103.502 85.8592 103.163 87.2075Z" fill="#EEF2F8"/>
<path fill-rule="evenodd" clip-rule="evenodd" d="M103.71 87.3439C103.583 87.8498 103.661 88.3755 103.928 88.8242C104.196 89.2718 104.622 89.5885 105.128 89.715C105.635 89.8436 106.159 89.7656 106.607 89.4983C107.056 89.23 107.372 88.8044 107.499 88.2974C107.626 87.7915 107.549 87.2669 107.281 86.8182C107.013 86.3695 106.587 86.0539 106.081 85.9274C105.035 85.6558 103.972 86.3013 103.71 87.3439ZM105.612 90.9027C105.359 90.9027 105.105 90.8708 104.854 90.8059C104.055 90.6069 103.385 90.1076 102.961 89.4016C102.54 88.6955 102.418 87.8685 102.618 87.0701C103.033 85.4226 104.709 84.4263 106.356 84.8343C107.153 85.0344 107.825 85.5337 108.247 86.2409C108.67 86.9469 108.792 87.775 108.591 88.5723C108.391 89.3697 107.891 90.0427 107.185 90.465C106.701 90.7542 106.16 90.9027 105.612 90.9027Z" fill="black"/>
<path fill-rule="evenodd" clip-rule="evenodd" d="M40.7974 133.775C38.0744 144.936 37.8479 148.061 37.8479 148.061L20.684 142.499C20.684 142.499 -19.6354 198.835 13.848 219.796C47.3299 240.756 73.1906 156.913 73.1906 156.913C73.1906 156.913 78.3111 152.505 83.1478 146.37C83.172 146.204 83.1786 146.038 83.2204 145.872L90.5645 116.672C89.897 115.304 89.2514 114.72 89.2514 114.72C89.2514 114.72 89.8827 115.118 90.8328 115.609L94.3883 101.472C91.0022 99.3201 85.9972 97.3626 78.6355 95.9373C53.3192 91.0379 43.5193 122.615 40.7974 133.775ZM254.601 143.154L209.421 156.172L212.293 162.902C212.293 162.902 182.077 142.487 172.822 134.591C163.566 126.697 157.034 105.737 152.677 99.2036C148.322 92.671 139.067 93.2154 136.618 96.0055C134.167 98.7967 136.072 100.838 136.072 100.838C136.072 100.838 121.101 91.8539 115.656 98.3865C110.213 104.92 119.74 111.454 119.74 111.454C119.74 111.454 104.223 104.648 101.752 111.998C99.2822 119.348 108.58 123.431 108.58 123.431C107.082 123.057 105.565 123.732 104.361 124.575C102.514 125.867 101.241 127.919 101.139 130.171C100.832 136.97 109.904 138.92 112.843 139.372C106.808 138.796 105.312 145.343 105.312 145.343C104.36 154.737 115.112 154.191 115.112 154.191C137.843 152.15 151.861 163.719 151.861 163.719C151.861 163.719 186.433 222.245 229.715 216.801C272.998 211.357 254.601 143.154 254.601 143.154Z" fill="#FBEFE3"/>
<path fill-rule="evenodd" clip-rule="evenodd" d="M110.547 138.91C110.547 138.91 122.754 140.729 129.153 142.863L110.547 138.91Z" fill="#E5AB78"/>
<path fill-rule="evenodd" clip-rule="evenodd" d="M119.74 111.454C119.74 111.454 131.402 114.692 138.864 120.466L119.74 111.454Z" fill="#E5AB78"/>
<path fill-rule="evenodd" clip-rule="evenodd" d="M136.073 100.838C136.073 100.838 141.95 103.582 147.459 108.737L136.073 100.838Z" fill="#E5AB78"/>
<path fill-rule="evenodd" clip-rule="evenodd" d="M250.632 203.876C245.901 210.925 238.839 215.086 229.644 216.242C187.249 221.587 152.688 164.015 152.345 163.433C152.312 163.376 152.269 163.327 152.219 163.285C152.088 163.176 139.983 153.388 120.416 153.388C118.696 153.388 116.916 153.464 115.084 153.63C115.034 153.63 110.103 153.839 107.472 151.067C106.168 149.693 105.629 147.787 105.86 145.469C105.919 145.212 107.275 139.605 112.516 139.894C113.173 140 113.607 140.043 113.698 140.052C113.769 140.055 113.838 140.044 113.902 140.025C117.99 140.724 124.78 141.998 128.973 143.397C129.033 143.416 129.093 143.425 129.152 143.425C129.387 143.425 129.607 143.275 129.685 143.041C129.784 142.746 129.624 142.427 129.33 142.328C123.249 140.301 111.862 138.541 110.727 138.368C107.067 137.472 101.471 135.272 101.701 130.197C101.791 128.208 102.906 126.278 104.684 125.036C106.08 124.06 107.344 123.702 108.442 123.978C108.462 123.982 108.481 123.978 108.5 123.981C108.517 123.983 108.532 123.992 108.549 123.992C108.661 124 119.914 124.661 133.511 131.808C133.595 131.852 133.684 131.872 133.772 131.872C133.974 131.872 134.171 131.764 134.271 131.571C134.416 131.296 134.311 130.954 134.034 130.81C120.931 123.923 109.918 122.963 108.721 122.877C107.852 122.468 100.123 118.614 102.286 112.176C102.668 111.04 103.403 110.244 104.531 109.745C109.403 107.588 119.412 111.924 119.512 111.969C119.527 111.975 119.541 111.974 119.555 111.978C119.567 111.983 119.576 111.991 119.588 111.996C119.704 112.028 131.232 115.275 138.519 120.913C138.622 120.991 138.743 121.029 138.864 121.029C139.031 121.029 139.198 120.956 139.309 120.811C139.499 120.565 139.454 120.212 139.209 120.021C131.956 114.41 121.045 111.238 119.987 110.939C119.391 110.51 115.124 107.311 114.593 103.452C114.364 101.796 114.868 100.212 116.089 98.7482C121.162 92.6611 135.638 101.231 135.782 101.319C135.792 101.325 135.802 101.326 135.811 101.33C135.819 101.335 135.825 101.344 135.834 101.347C135.892 101.374 141.699 104.118 147.073 109.147C147.182 109.249 147.321 109.299 147.458 109.299C147.609 109.299 147.758 109.24 147.869 109.121C148.082 108.893 148.071 108.538 147.843 108.325C142.682 103.497 137.29 100.797 136.424 100.381C136.157 100.045 135.161 98.5173 137.04 96.3771C138.117 95.1509 140.667 94.4427 143.386 94.6263C147.085 94.8727 150.301 96.6532 152.209 99.5147C153.634 101.653 155.316 105.407 157.263 109.753C161.239 118.627 166.188 129.674 172.455 135.02C180.232 141.654 203.003 157.261 209.943 161.986C210.074 162.077 210.233 162.187 210.435 162.322C211.379 162.964 211.938 163.342 211.978 163.369C212.08 163.438 212.197 163.469 212.314 163.464C214.963 164.947 219.255 166.847 223.86 166.847C224.281 166.847 224.706 166.832 225.131 166.798C225.44 166.773 225.672 166.503 225.648 166.193C225.623 165.884 225.36 165.663 225.042 165.677C220.178 166.049 215.416 163.901 212.669 162.348L210.188 156.536L254.198 143.857C255.412 148.739 263.66 184.467 250.632 203.876ZM254.876 142.665C254.746 142.59 254.59 142.576 254.444 142.614L209.265 155.631C209.11 155.676 208.982 155.785 208.912 155.929C208.843 156.076 208.84 156.243 208.903 156.392L211.018 161.349C210.559 161.049 210.298 160.856 210.285 160.846C210.267 160.833 210.247 160.829 210.23 160.819C202.921 155.84 180.798 140.656 173.187 134.162C167.112 128.982 162.22 118.065 158.291 109.293C156.322 104.9 154.623 101.108 153.146 98.8912C151.042 95.7349 147.512 93.7718 143.46 93.5035C140.364 93.2923 137.51 94.1336 136.193 95.6337C134.849 97.1657 134.684 98.5283 134.871 99.5224C130.86 97.3999 119.925 92.3894 115.223 98.0268C113.79 99.7457 113.203 101.624 113.478 103.61C113.823 106.108 115.467 108.287 116.939 109.789C113.424 108.601 107.662 107.129 104.077 108.714C102.662 109.34 101.701 110.385 101.219 111.819C99.345 117.393 103.812 121.204 106.5 122.917C105.709 123.12 104.888 123.519 104.039 124.113C101.976 125.555 100.681 127.81 100.576 130.146C100.328 135.631 105.576 138.135 109.513 139.238C105.829 140.731 104.773 145.175 104.751 145.286C104.474 148.017 105.117 150.224 106.658 151.846C109.65 154.993 114.915 154.765 115.162 154.752C136.553 152.821 150.314 163.219 151.429 164.095C152.941 166.599 184.371 217.717 224.07 217.717C225.955 217.717 227.864 217.601 229.784 217.36C239.318 216.16 246.647 211.835 251.568 204.502C265.786 183.318 255.251 143.409 255.144 143.008C255.104 142.863 255.008 142.738 254.876 142.665Z" fill="black"/>
<path fill-rule="evenodd" clip-rule="evenodd" d="M91.0506 116.354C91.1001 116.377 91.1562 116.404 91.2068 116.427L91.4872 115.312C90.3721 114.758 89.5869 114.268 89.5561 114.247C89.555 114.247 89.555 114.246 89.5539 114.245L83.0774 110.11C82.9598 110.036 82.8256 110.016 82.698 110.035C76.3854 104.981 66.5635 104.234 66.4228 104.225C66.1038 104.198 65.8454 104.438 65.8234 104.749C65.8025 105.059 66.0368 105.328 66.348 105.349C66.5382 105.362 85.5024 106.796 86.7176 119.232C87.5677 127.931 86.7264 133.546 84.3476 135.04C83.1434 135.8 81.4509 135.53 79.3251 134.237C79.2921 134.216 79.2536 134.211 79.2184 134.2C79.6363 130.402 78.575 125.434 76.0291 119.313C72.3515 110.472 59.4316 112.883 59.3019 112.908C58.9972 112.969 58.7982 113.263 58.8576 113.57C58.917 113.873 59.2117 114.068 59.5174 114.014C59.6384 113.991 71.6653 111.755 75.0008 119.771C79.8002 131.309 79.1524 138.456 73.1225 140.996C72.0271 141.343 68.917 141.93 67.6963 140.518C67.6611 140.478 67.6171 140.452 67.5742 140.424C68.9896 136.386 69.1733 130.985 68.6432 127.289C67.4598 119.032 54.7071 119.867 54.1627 119.905C53.8526 119.927 53.6195 120.197 53.6414 120.507C53.6645 120.817 53.9428 121.053 54.2441 121.028C54.3684 121.017 66.4943 120.226 67.5291 127.45C68.3023 132.845 67.384 141.926 63.7009 144.231C62.2184 145.158 60.3653 144.883 58.1944 143.414C52.0666 139.266 57.8007 128.847 57.859 128.742C58.0108 128.471 57.914 128.128 57.6434 127.975C57.3707 127.824 57.0287 127.92 56.8769 128.192C56.7823 128.36 55.9311 129.909 55.2141 132.037C55.1558 131.962 55.0854 131.897 54.9908 131.86C53.9384 131.431 53.8504 129.01 53.9032 128.197C53.923 127.886 53.6876 127.619 53.3775 127.599C53.0674 127.599 52.8001 127.814 52.7792 128.123C52.7529 128.527 52.578 132.093 54.5663 132.901C54.6356 132.93 54.7082 132.943 54.7797 132.943C54.838 132.943 54.8875 132.912 54.9425 132.894C53.8559 136.589 53.438 141.555 57.5632 144.346C59.0962 145.384 60.5193 145.903 61.8214 145.903C62.7045 145.903 63.5315 145.664 64.298 145.185C65.5045 144.43 66.4305 143.13 67.1332 141.541C67.9976 142.311 69.2073 142.543 70.3445 142.543C71.9358 142.543 73.3787 142.095 73.5107 142.052C76.5383 140.778 78.3716 138.535 79.027 135.357C80.4336 136.167 81.7071 136.589 82.8256 136.589C83.6064 136.589 84.3146 136.392 84.947 135.992C85.752 135.488 86.4009 134.66 86.9046 133.531L87.9559 129.353C88.2803 126.673 88.2419 123.26 87.8382 119.123C87.604 116.735 86.7715 114.73 85.5717 113.038L88.9006 115.165C89.026 115.287 89.9751 116.292 90.6789 118.527L91.1639 116.597C91.1265 116.515 91.0891 116.43 91.0506 116.354Z" fill="black"/>
<path fill-rule="evenodd" clip-rule="evenodd" d="M83.7659 146.009L84.2949 143.905C79.1536 150.993 72.9202 156.404 72.8234 156.486C72.7431 156.557 72.6826 156.647 72.6529 156.748C72.4814 157.305 55.2218 212.451 31.222 221.377C25.4834 223.512 19.7372 222.818 14.145 219.319C7.43672 215.119 3.27196 209.129 1.7664 201.516C-2.81517 178.342 18.4153 146.765 20.9063 143.163L37.0088 148.381C31.8895 171.001 25.2514 177.116 25.181 177.18C24.9479 177.385 24.9259 177.741 25.1304 177.973C25.2415 178.101 25.3966 178.165 25.5527 178.165C25.6847 178.165 25.8167 178.119 25.9222 178.025C26.2258 177.761 32.9277 171.659 38.1295 148.542C38.1394 148.535 38.1515 148.535 38.1625 148.529C38.3055 148.432 38.3967 148.276 38.4088 148.103C38.411 148.084 38.5089 146.927 39.1391 143.724C39.1798 143.523 39.2193 143.329 39.2578 143.126C39.6955 140.96 40.3532 137.968 41.343 133.908C44.4674 121.1 54.3508 91.8166 78.5278 96.4916C85.5904 97.8575 91.0584 99.8514 94.7414 102.373L95.0373 101.199C91.2519 98.7021 85.8148 96.7544 78.7423 95.3853C67.6403 93.2374 58.2319 97.654 50.7777 108.514C44.8391 117.17 41.6322 127.974 40.2498 133.643C39.0346 138.624 38.3176 141.998 37.892 144.224C37.683 145.27 37.4718 146.293 37.2563 147.277L20.8579 141.963C20.6247 141.887 20.3696 141.972 20.2255 142.171C19.9803 142.514 -4.27234 176.77 0.662253 201.732C2.2294 209.663 6.56462 215.902 13.5478 220.272C17.2155 222.568 20.9492 223.719 24.7103 223.719C27.0044 223.719 29.3095 223.29 31.6157 222.432C41.9324 218.595 52.1601 206.415 62.0128 186.232C68.9094 172.107 73.1819 158.812 73.6801 157.235C74.55 156.475 79.2382 152.295 83.6713 146.65C83.6922 146.437 83.712 146.224 83.7659 146.009Z" fill="black"/>
</svg>
