<svg width="244" height="173" viewBox="0 0 244 173" fill="none" xmlns="http://www.w3.org/2000/svg">
<path d="M175.19 24.6838C178.173 18.2341 175.625 13.5382 169.348 11.5302C164.437 9.95852 157.557 10.2504 153.168 12.0362C149.424 13.5636 146.53 16.2008 142.641 20.9695C142.186 21.5265 140.521 23.6041 140.141 24.0708C139.123 25.3219 135.884 29.4131 135.453 29.9485C134.957 30.565 134.496 31.131 134.055 31.6626C134.102 28.7405 134.039 26.4003 133.799 24.024C133.006 16.1491 130.381 10.7461 124.994 8.75403C122.151 7.72626 119.287 9.00117 118.421 11.6721C117.559 14.5511 116.891 17.4831 116.414 20.4731C115.767 23.8777 114.92 26.8891 113.197 32.2842C113.112 32.5511 113.09 32.6196 112.877 33.2859C111.971 36.1162 111.545 37.484 111.064 39.1359C111.039 39.2247 111.039 39.2247 111.013 39.313C110.772 40.1557 109.934 43.2754 109.784 43.8112C108.926 46.8876 108.196 48.9257 107.303 50.4962C105.759 53.2113 98.7583 54.6233 77.6602 56.7187C73.6161 57.1212 66.472 57.2034 57.1354 57.0315C51.7785 56.9326 18.8191 54.9978 13.0702 54.7747C11.0579 54.6968 9.18899 54.6181 7.51167 54.5434C6.92474 54.5171 6.40374 54.4934 5.95467 54.4723C5.68546 54.4596 5.50018 54.4503 5.40489 54.4457C4.83378 54.4178 4.40434 54.8586 4.44031 55.4352L8.37624 118.537C8.41264 119.121 8.91073 119.623 9.4888 119.661C11.8555 119.814 14.4913 120.037 18.0662 120.379C19.9709 120.561 54.6471 123.06 55.9861 123.191C66.1788 124.185 74.84 124.919 85.1759 125.602C89.0309 125.851 92.181 126.082 100.677 126.725C102.488 126.862 103.572 126.944 104.729 127.03C113.605 127.695 119.389 128.085 124.457 128.329C137.038 128.952 149.515 128.498 161.752 126.971C168.935 126.108 197.798 117.92 204.849 114.539C207.836 113.111 210.906 110.897 212.776 108.532C215.369 105.252 215.635 101.767 212.773 98.5808C211.291 96.9325 209.392 96.123 206.973 95.9178C205.258 95.7722 204.139 95.8525 200.174 96.2827C196.651 96.6646 194.673 96.7635 192.461 96.5506C185.113 95.8429 177.872 88.7317 174.508 79.813C170.6 69.2982 176.783 56.8505 186.825 55.2015C190.284 54.6245 193.882 55.7857 200.499 58.9417C201.105 59.2312 201.447 59.4232 202.893 60.2634C204.756 61.3462 205.779 61.8609 206.968 62.2149C208.397 62.6395 209.696 62.6404 210.887 62.1273C215.077 60.3185 214.881 53.8969 211.554 49.6766C208.056 45.2422 203.196 41.2257 198.595 39.1183C190.247 35.3035 182.368 34.9133 173.748 37.5524C172.345 37.9872 170.964 38.4696 169.606 39.0004C172.01 32.1389 173.316 28.7474 175.19 24.6838Z" fill="#FFDBBD"/>
<path d="M155.352 46.9802C158.937 44.0634 164.167 41.2659 169.52 39.2928C170.039 39.1019 170.251 38.4989 169.994 37.947C169.737 37.3945 169.108 37.1019 168.589 37.2934C163.063 39.3299 157.664 42.218 153.916 45.2677C153.494 45.611 153.474 46.2728 153.87 46.7454C154.267 47.2185 154.931 47.3236 155.352 46.9802Z" fill="#C3A185"/>
<path d="M127.053 39.6727C129.638 37.6201 132.021 35.3308 134.177 32.8292C134.532 32.4179 134.45 31.7487 133.993 31.3346C133.537 30.9211 132.879 30.9194 132.524 31.3313C130.438 33.7502 128.134 35.9638 125.634 37.9494C125.209 38.2874 125.182 38.9469 125.573 39.4229C125.965 39.8989 126.628 40.0107 127.053 39.6727Z" fill="#C3A185"/>
<path d="M165.658 11.1421C164.019 11.556 161.927 13.7683 160 16.43C159.345 17.335 158.672 18.2855 157.828 19.4932C157.459 20.0204 156.172 21.8681 156.167 21.8766C153.708 25.4026 152.209 27.4659 150.546 29.5448C149.739 30.5543 149.092 31.4022 147.732 33.2162L147.629 33.3544C145.874 35.6956 145.03 36.7894 143.969 38.0575C143.645 38.4449 143.332 38.8398 142.884 39.418C142.795 39.533 142.485 39.9333 142.482 39.9373C141.325 41.4323 140.683 42.1917 139.911 42.9159C139.516 43.2871 139.536 43.9524 139.957 44.4027C140.379 44.8526 141.041 44.9165 141.437 44.5453C142.296 43.7391 142.98 42.9289 144.192 41.363C144.196 41.3585 144.505 40.9592 144.593 40.8452C145.03 40.282 145.332 39.9016 145.638 39.5346C146.725 38.2356 147.582 37.1248 149.355 34.7591L149.459 34.6209C150.808 32.8214 151.447 31.9831 152.239 30.993C153.933 28.8757 155.449 26.7883 157.928 23.2327C157.935 23.2227 159.221 21.3765 159.588 20.8507C160.428 19.6501 161.095 18.7071 161.744 17.8112C163.383 15.5475 165.357 13.4599 166.401 13.1964C166.942 13.0597 167.213 12.4894 167.008 11.9224C166.803 11.3548 166.199 11.0059 165.658 11.1421Z" fill="#C3A185"/>
<path d="M106.859 126.539C102.524 110.39 99.2462 93.0617 97.2613 81.3586C96.2012 75.1253 94.6801 54.385 94.6672 54.1745C94.6442 53.8773 94.4979 53.5879 94.2643 53.3776C94.0306 53.1657 93.7306 53.0528 93.4385 53.0667C93.3183 53.0588 81.6004 53.6856 75.9339 53.9539C68.9077 54.2852 60.68 54.7108 54.2168 55.2257C56.1812 51.7981 56.1046 47.3567 54.0145 43.4822C51.5925 38.8841 46.9928 35.6843 42.5969 35.5432C40.7664 35.481 37.8438 35.9395 35.4046 38.8407C36.1943 25.5426 33.3073 10.2582 22.549 4.5743C15.7081 0.981424 9.85117 3.0613 5.51776 5.28814C3.90212 6.05502 2.41517 7.03685 1.0919 8.21127L9.77635 149.323C14.1763 155.45 19.5083 158.625 25.9877 159.049C27.5276 159.143 29.0557 159.101 30.5545 158.924C35.5886 158.357 39.0042 154.917 40.2779 149.313C41.4667 150.062 42.7161 150.688 44.0047 151.182C48.93 153.077 53.7037 152.761 57.4428 150.349C60.1858 148.578 62.6418 145.359 64.0212 141.727C65.1907 138.659 66.1007 133.912 63.8009 128.845C63.467 128.114 63.0352 127.422 62.5191 126.791C68.108 126.952 79.6349 127.283 86.5439 127.499C92.8738 127.694 105.815 127.744 105.964 127.723C106.266 127.725 106.538 127.593 106.707 127.363C106.876 127.138 106.931 126.838 106.859 126.539Z" fill="#D7E0DC"/>
<path fill-rule="evenodd" clip-rule="evenodd" d="M51.4994 90.2478C49.3246 70.4607 48.8764 58.621 50.9407 55.7946C51.2618 55.3549 51.9121 55.3084 52.393 55.6907C52.874 56.0725 53.0036 56.7389 52.6824 57.1786C51.9513 58.1796 51.6423 61.183 51.7118 65.8962C51.7962 65.863 51.8881 65.8417 51.9859 65.8345C54.0969 65.6727 56.4973 65.6185 59.6603 65.6311C60.2898 65.6342 60.9469 65.639 61.7244 65.6471C62.0281 65.6503 62.3374 65.6533 62.7452 65.658L63.7536 65.6692C67.3999 65.7098 69.2408 65.7012 70.9265 65.6074C76.9596 65.2653 83.0018 65.1388 89.1282 65.2233C89.7028 65.2311 90.2214 65.7097 90.2869 66.2922C90.3523 66.8747 89.9396 67.3409 89.365 67.3326C83.286 67.2491 77.2911 67.3746 71.3052 67.714C69.5577 67.8116 67.6887 67.8199 63.9956 67.7793L62.9872 67.7677C62.5799 67.7629 62.2711 67.76 61.969 67.7569C61.1946 67.7491 60.5416 67.7439 59.9169 67.7412C56.8036 67.7282 54.4509 67.7819 52.4046 67.9385C52.1773 67.9555 51.9523 67.8962 51.7567 67.7806C51.7986 69.085 51.8645 70.4969 51.9537 72.0115C52.0199 71.9896 52.0904 71.9743 52.1645 71.9671C56.4967 71.5433 62.1701 71.2421 68.868 71.0469C74.5206 70.8822 80.5806 70.8009 86.6446 70.7832C88.7667 70.7773 90.7373 70.7793 92.5069 70.7875C93.1264 70.7904 93.6768 70.7935 94.1511 70.7974C94.3172 70.7983 94.462 70.7999 94.5849 70.8007L94.7344 70.8021C95.3088 70.8078 95.8289 71.2849 95.8964 71.8676C95.964 72.4502 95.5529 72.9176 94.9784 72.9119L94.8316 72.9106C94.7097 72.9094 94.5655 72.9084 94.4004 72.907C93.9281 72.9032 93.3799 72.9003 92.7624 72.8975C90.998 72.8891 89.0321 72.8869 86.9152 72.8932C80.8684 72.9104 74.825 72.9918 69.1927 73.1557C62.5363 73.3499 56.9038 73.6491 52.6251 74.0675C52.4371 74.0856 52.2496 74.0507 52.0783 73.9745C52.3925 78.6047 52.899 84.0783 53.5808 90.2812C53.8558 92.7836 54.1543 95.3682 54.482 98.0973C54.641 97.9657 54.8489 97.8887 55.0842 97.8915C58.2635 97.9278 62.2324 97.977 66.8225 98.0377L67.633 98.0485C72.1929 98.1088 77.078 98.1757 81.9632 98.2447C83.6728 98.2689 85.2606 98.2914 86.6859 98.3121L88.009 98.3308L88.4768 98.3379C89.052 98.3463 89.5701 98.8254 89.635 99.4078C89.6999 99.9903 89.2867 100.456 88.7121 100.448L88.2442 100.44L86.9211 100.422C85.4963 100.401 83.9091 100.379 82.1994 100.355C77.3142 100.285 72.4296 100.218 67.8708 100.158L67.0608 100.147C62.4717 100.087 58.5038 100.037 55.326 100.001C55.0955 99.9986 54.8738 99.9201 54.6867 99.7899C54.84 101.048 54.9994 102.338 55.1655 103.667C55.3987 105.53 55.6392 107.423 55.9179 109.593C56.0372 110.521 56.3539 112.976 56.5084 114.173C63.4952 114.556 69.238 114.512 81.8528 114.16C90.5116 113.919 94.3551 113.848 99.1818 113.897C99.7563 113.903 100.276 114.38 100.344 114.963C100.411 115.545 100 116.013 99.4259 116.007C94.6341 115.958 90.8072 116.028 82.1749 116.27C69.6292 116.62 63.8381 116.666 56.8707 116.291C57.1221 117.302 57.4956 118.33 57.9689 119.368C58.1148 119.277 58.2913 119.226 58.486 119.23C59.2329 119.246 60.0505 119.266 61.0765 119.293C60.7559 119.285 65.0717 119.405 66.3259 119.436C68.4339 119.488 70.2295 119.521 71.9422 119.536C74.2496 119.555 76.3253 119.539 78.2277 119.481C78.7986 119.464 79.3347 119.922 79.4252 120.505C79.515 121.087 79.1254 121.573 78.5539 121.59C76.6235 121.649 74.5218 121.665 72.1899 121.645C70.4647 121.631 68.6587 121.598 66.5398 121.545C65.2825 121.514 60.963 121.394 61.2862 121.402C60.3869 121.378 59.6491 121.36 58.9795 121.345C59.66 122.554 60.4543 123.771 61.3284 124.988C61.6875 125.487 61.6102 126.135 61.1566 126.436C60.703 126.736 60.0443 126.575 59.6857 126.076C56.9888 122.323 55.0052 118.594 54.5192 114.857C54.5284 114.929 54.0032 110.86 53.8413 109.599C53.5622 107.426 53.3214 105.532 53.0879 103.665C52.4768 98.7804 51.956 94.4024 51.4994 90.2478Z" fill="#B3BCB8"/>
<path d="M220.058 99.58C230.536 100.267 238.504 92.267 237.854 81.7115C237.205 71.1559 228.184 62.0421 217.707 61.3552C207.229 60.6682 199.262 68.6682 199.911 79.2238C200.56 89.7793 209.581 98.8931 220.058 99.58Z" fill="#FCD400"/>
<path d="M222.565 76.2985C221.362 75.5496 219.625 75.3568 217.917 75.532C215.656 75.8283 214.375 77.1322 214.242 79.5292C214.177 81.318 214.956 83.1198 216.343 84.4106C217.462 85.3744 218.72 85.6244 220.119 85.3827C220.748 85.274 221.349 85.0847 222.15 84.7743C222.235 84.7411 222.921 84.4698 223.099 84.4034C223.616 84.2091 223.824 83.6059 223.563 83.0563C223.304 82.5063 222.674 82.2183 222.157 82.412C221.961 82.4857 221.263 82.7625 221.191 82.7903C220.494 83.0598 219.994 83.2174 219.516 83.2998C218.692 83.4423 218.098 83.3246 217.619 82.9129C216.785 82.1346 216.295 81.0024 216.335 79.8913C216.416 78.4456 217.04 77.8099 218.415 77.6295C219.662 77.5022 220.979 77.6485 221.634 78.0567C222.153 78.3792 222.781 78.2474 223.039 77.7623C223.295 77.2766 223.083 76.6216 222.565 76.2985Z" fill="black"/>
<path d="M218.721 84.7519C218.774 85.0528 218.83 85.4198 218.886 85.8367C218.948 86.2926 219.008 86.7825 219.063 87.2725C219.082 87.4445 219.099 87.6038 219.114 87.7467C219.124 87.8316 219.13 87.8922 219.133 87.9233C219.192 88.5052 219.705 88.9887 220.28 89.0034C220.856 89.0186 221.275 88.5585 221.216 87.9771C221.213 87.9423 221.206 87.878 221.197 87.7894C221.181 87.6418 221.163 87.4778 221.144 87.3011C221.087 86.7957 221.025 86.2895 220.961 85.815C220.9 85.3712 220.841 84.9762 220.781 84.6418C220.678 84.0607 220.134 83.6145 219.565 83.6447C218.996 83.675 218.618 84.1707 218.721 84.7519Z" fill="black"/>
<path d="M217.486 72.954C217.487 72.9855 217.489 73.0433 217.492 73.1241C217.497 73.2584 217.504 73.4091 217.511 73.5729C217.536 74.1435 217.567 74.7218 217.602 75.2634C217.634 75.746 217.669 76.1733 217.706 76.5327C217.767 77.1146 218.282 77.5964 218.857 77.609C219.432 77.622 219.849 77.161 219.789 76.5791C219.755 76.2502 219.722 75.8482 219.692 75.3903C219.657 74.8661 219.627 74.3025 219.603 73.746C219.596 73.5864 219.59 73.4395 219.585 73.3088C219.582 73.2306 219.579 73.1749 219.579 73.1472C219.558 72.5679 219.073 72.0546 218.496 72.0015C217.918 71.948 217.466 72.3743 217.486 72.954Z" fill="black"/>
<path d="M231.764 76.1768C233.223 79.8626 232.951 84.5146 231.217 88.0663C229.792 90.9864 227.53 92.908 224.701 93.5727C224.157 93.7005 223.876 94.2647 224.074 94.833C224.271 95.4008 224.871 95.7577 225.415 95.6304C228.793 94.8362 231.47 92.5625 233.12 89.1814C235.087 85.1535 235.393 79.9039 233.697 75.6184C233.475 75.0573 232.862 74.7269 232.328 74.881C231.794 75.0351 231.542 75.6153 231.764 76.1768Z" fill="black"/>
<path d="M220.325 94.5592L220.062 94.5943C219.502 94.6693 219.166 95.1988 219.312 95.7773C219.458 96.3557 220.031 96.7638 220.591 96.6894L220.854 96.6542C221.415 96.5792 221.75 96.0497 221.604 95.4713C221.458 94.8928 220.885 94.4847 220.325 94.5592Z" fill="black"/>
<path d="M217.812 66.1911C218.388 66.2042 218.807 65.7418 218.746 65.1582C218.685 64.5751 218.169 64.0917 217.593 64.0786C215.068 64.022 212.628 64.5097 210.436 65.5104L210.378 65.5397C208.082 66.7961 206.148 68.5772 204.71 70.7599C204.409 71.2163 204.566 71.8814 205.061 72.2447C205.557 72.6085 206.202 72.5333 206.503 72.0768C207.778 70.1412 209.491 68.5603 211.524 67.4421C213.451 66.5674 215.594 66.1415 217.812 66.1911Z" fill="black"/>
</svg>
