<svg width="289" height="286" viewBox="0 0 289 286" fill="none" xmlns="http://www.w3.org/2000/svg">
<path d="M38.7665 29.9479C37.5926 29.3515 36.4644 28.7858 35.3362 28.2201C33.5371 27.3179 31.7838 26.3241 30.2592 24.9785C29.2377 24.0764 28.2925 23.0978 27.5912 21.9204C25.4872 18.3731 25.6549 14.8104 27.6217 11.2936C28.6584 9.4435 30.2287 8.84718 32.3174 9.30589C32.7443 9.39763 33.156 9.53524 33.6743 9.67286C33.7201 9.2906 33.7811 8.9695 33.7963 8.6484C33.8878 7.27227 34.2537 5.97259 34.8635 4.73407C35.4124 3.60259 36.2204 2.70046 37.3182 2.07355C38.6598 1.29374 40.0319 1.21729 41.4803 1.78303C42.4713 2.16529 43.3556 2.73103 44.1636 3.40381C44.5295 3.70962 44.8802 4.03071 45.3071 4.41297C45.49 4.12246 45.673 3.8931 45.7949 3.63317C46.481 2.18058 47.6245 1.21729 49.0576 0.544515C50.5365 -0.143551 52.0153 -0.174132 53.5095 0.422192C55.278 1.12555 56.6349 2.33349 57.5954 3.96955C58.4949 5.49859 59.12 7.11937 59.3029 8.90834C59.3334 9.16828 59.3944 9.41292 59.4707 9.73402C60.0195 9.6117 60.5226 9.53524 61.0258 9.39763C61.8033 9.19886 62.5961 9.18357 63.3736 9.32118C65.7978 9.74931 67.4138 11.5689 67.673 14.1376C67.7798 15.1468 67.734 16.156 67.4748 17.1346C66.7278 19.9633 65.5691 22.5932 63.8005 24.9326C62.4589 26.7063 60.7818 28.0977 58.8303 29.1528C57.382 29.9479 55.8116 30.3301 54.1955 30.4372C53.6009 30.483 52.9758 30.3607 52.305 30.3148C52.2288 30.5442 52.1221 30.7736 52.0763 31.0182C51.7409 32.9142 51.375 34.8102 51.0853 36.7215C50.9024 37.9294 50.7957 39.168 50.7804 40.3912C50.7347 46.018 51.1463 51.6143 52.6862 57.073C54.3632 63.0821 57.3972 68.3725 61.3002 73.189C61.7118 73.6936 62.2149 74.137 62.6876 74.5804C62.84 74.718 63.0535 74.8098 63.2059 74.9015C63.6176 74.7639 63.6176 74.3969 63.7091 74.137C65.0355 70.7272 66.7888 67.5621 68.786 64.5041C71.0119 61.0943 73.3751 57.7763 75.8144 54.5042C79.2143 49.9171 83.163 45.804 87.249 41.8132C87.4319 41.6297 87.6301 41.4615 87.8283 41.278C93.9115 35.2536 101.214 31.3699 109.386 29.0305C112.359 28.1742 115.347 27.3179 118.397 26.7675C121.232 26.2476 124.083 25.8501 126.995 25.8348C129.923 25.8195 132.865 25.8348 135.777 26.1406C139.116 26.477 142.485 26.6757 145.794 27.3944C147.715 27.8072 149.605 28.3424 151.511 28.8011C154.149 29.4433 156.695 30.376 159.195 31.4157C160.369 31.905 161.528 32.3943 162.702 32.8683C165.278 33.9387 167.535 35.4983 169.517 37.4707C170.05 37.9906 170.569 38.5105 171.377 38.5869C171.819 38.6328 172.169 38.9692 172.337 39.3973C172.505 39.8254 172.84 40.1007 173.191 40.3759C173.74 40.8193 174.289 41.2474 174.853 41.6603C177.551 43.6175 180.067 45.7887 182.247 48.3422C182.582 48.7397 182.933 49.1373 183.238 49.5654C185.357 52.5317 187.339 55.5745 189.001 58.8161C189.84 60.4521 190.678 62.0882 191.532 63.7243C192.508 65.5897 193.392 67.501 194.093 69.4887C194.185 69.764 194.337 70.0239 194.49 70.3756C194.856 70.2074 195.206 70.1156 195.481 69.9322C196.746 69.0759 198.072 68.2808 199.246 67.3022C202.585 64.5041 205.543 61.339 207.921 57.6693C208.729 56.4155 209.537 55.1617 210.376 53.9384C212.937 50.2076 214.675 46.1251 215.727 41.7214C215.987 40.6205 216.276 39.5043 216.551 38.4034C216.596 38.1894 216.612 37.9753 216.657 37.6848C216.307 37.486 215.971 37.2872 215.636 37.119C213.684 36.0946 211.87 34.8867 210.422 33.2047C208.394 30.85 207.129 28.0977 206.732 25.055C206.321 21.9357 207.495 19.3822 210.208 17.6391C211.504 16.8135 212.876 16.5994 214.355 16.9969C214.599 17.0581 214.843 17.1193 215.163 17.1804C215.392 16.4618 215.575 15.789 215.819 15.1468C217.13 11.8135 219.478 9.53524 222.878 8.40376C223.564 8.1744 224.341 8.06737 225.058 8.09795C226.705 8.1744 227.939 9.03066 228.793 10.4374C229.083 10.9267 229.312 11.4465 229.601 12.0276C229.906 11.8441 230.211 11.6912 230.486 11.5077C231.766 10.7126 233.108 10.101 234.617 9.93279C236.401 9.71873 237.895 10.2692 239.023 11.7218C239.999 12.9756 240.395 14.4587 240.472 16.0184C240.517 16.9358 240.472 17.8532 240.472 18.8777C240.639 18.9235 240.868 18.9847 241.112 19.0306C243.719 19.4587 245.915 21.5688 246.479 24.1681C247.393 28.4494 245.594 32.5931 242.21 34.8714C240.197 36.2322 237.971 36.9203 235.593 37.1802C233.642 37.379 231.675 37.5472 229.723 37.746C229.51 37.7612 229.312 37.8377 229.052 37.8989C228.991 38.1129 228.9 38.3117 228.869 38.5258C228.58 40.7123 228 42.8223 227.391 44.9324C226.613 47.6694 225.851 50.4217 225.058 53.1433C224.174 56.1555 222.771 58.9231 221.018 61.5225C217.755 66.3236 214.05 70.7578 209.705 74.6263C207.235 76.8128 204.567 78.7241 201.777 80.4519C200.695 81.1094 199.536 81.6446 198.423 82.2256C198.194 82.3479 197.981 82.4855 197.737 82.6232C197.737 82.8219 197.707 82.9901 197.722 83.1583C197.951 85.3907 198.194 87.6078 198.393 89.8402C198.698 93.25 198.911 96.6597 198.576 100.085C198.454 101.446 198.377 102.791 198.286 104.152C198.027 108.235 197.264 112.241 196.273 116.201C195.938 117.516 195.587 118.831 195.221 120.146C193.636 125.788 190.846 130.834 187.476 135.574C186.364 137.149 185.022 138.54 183.573 139.84C181.942 141.308 180.341 142.806 178.695 144.243C176.621 146.063 174.517 147.852 172.429 149.656C172.139 149.916 171.849 150.161 171.59 150.39C171.59 150.512 171.59 150.574 171.59 150.604C171.605 150.635 171.651 150.65 171.697 150.665C188.163 154.977 204.644 159.289 221.109 163.601C221.231 163.631 221.368 163.647 221.506 163.647C221.582 163.647 221.673 163.616 221.795 163.586C221.948 163.081 221.795 162.561 221.795 162.041C221.75 160.94 221.643 159.855 221.658 158.754C221.704 153.677 222.481 148.708 224.235 143.922C225.744 139.779 228.061 136.139 231.187 133.035C232.788 131.445 234.617 130.176 236.706 129.305C240.167 127.867 243.292 128.418 246.037 130.987C246.906 131.797 247.607 132.745 248.186 133.8C249.101 135.482 249.65 137.271 249.924 139.152C250.122 140.558 250.062 141.965 249.558 143.311C248.888 145.115 248.232 146.934 247.454 148.693C244.954 154.35 242.134 159.839 238.962 165.16C237.301 167.943 235.654 170.741 234.038 173.555C233.489 174.503 233.062 175.512 232.59 176.506C232.452 176.781 232.33 177.056 232.163 177.316C231.858 177.79 231.431 178.066 230.867 178.081C229.784 178.111 228.702 178.081 227.619 177.806C214.233 174.304 200.832 170.833 187.431 167.362C176.911 164.625 166.376 161.919 155.856 159.182C155.063 158.983 154.347 159.044 153.569 159.228C150.139 160.084 146.709 160.94 143.248 161.69C141.632 162.041 139.955 162.102 138.308 162.316C134.527 162.79 130.715 162.806 126.904 162.775C123.657 162.745 120.455 162.347 117.284 161.659C116.979 161.598 116.689 161.537 116.384 161.506C116.308 161.506 116.216 161.537 116.079 161.583C115.957 161.812 115.835 162.087 115.698 162.362C114.463 164.87 113.289 167.423 111.963 169.901C109.295 174.855 106.078 179.457 102.556 183.83C101.23 185.466 99.8422 187.056 98.0432 188.203C97.601 188.478 97.1436 188.738 96.6558 188.922C95.5123 189.335 94.4146 189.136 93.3626 188.616C92.9357 188.402 92.5241 188.127 92.1429 187.851C83.6356 181.751 75.0979 175.696 66.6515 169.534C63.4346 167.194 60.4007 164.595 57.26 162.133C54.3632 159.855 51.5732 157.454 48.5697 155.329C47.6855 154.702 46.8622 153.968 46.0084 153.28C44.6058 152.164 43.1879 151.048 41.8005 149.931C41.0839 149.35 40.3979 148.754 39.6813 148.173C39.5288 148.051 39.3459 147.959 39.1019 147.806C38.7665 148.677 38.675 149.488 38.5378 150.298C37.8518 154.151 36.6626 157.867 35.1685 161.476C34.4062 163.341 33.6439 165.206 32.8511 167.057C32.043 168.953 31.0673 170.772 29.9543 172.5C28.5059 174.748 26.6612 176.582 24.42 178.02C22.6667 179.136 20.7762 179.426 18.7637 178.922C17.7575 178.662 16.8884 178.188 16.1414 177.5C14.6168 176.124 13.7478 174.411 13.4276 172.378C13.0922 170.222 13.2751 168.081 13.5648 165.956C14.4643 159.35 16.7817 153.234 19.9529 147.408C21.0354 145.405 22.1941 143.433 23.3375 141.46C25.289 138.112 27.6064 135.038 30.2897 132.24C31.052 131.445 31.7991 130.65 32.5766 129.886C32.973 129.488 33.4152 129.106 33.8878 128.8C34.8635 128.158 35.8698 128.158 36.8303 128.846C37.3029 129.167 37.745 129.534 38.1872 129.886C41.0839 132.225 43.9502 134.595 46.8927 136.889C50.6127 139.794 54.3937 142.638 58.1443 145.528C60.7818 147.561 63.4651 149.534 66.0417 151.644C68.1762 153.387 70.3258 155.13 72.5823 156.72C73.619 157.454 74.6252 158.234 75.6315 158.998C76.1498 159.396 76.653 159.824 77.2018 160.176C80.7541 162.515 84.1235 165.099 87.5844 167.561C88.6211 168.295 89.6426 169.044 90.6641 169.809C91.5788 170.497 92.5698 171.063 93.6371 171.445C93.8353 171.521 94.0487 171.552 94.2317 171.598C95.863 169.977 102.083 159.794 102.861 157.469C102.632 157.362 102.404 157.24 102.16 157.164C99.9337 156.369 97.7992 155.359 95.7258 154.213C95.2226 153.937 94.7195 153.662 94.2164 153.418C87.7521 150.145 82.111 145.726 76.9274 140.696C74.3355 138.188 72.1554 135.314 70.2039 132.302C67.5663 128.204 65.3709 123.877 63.7548 119.244C62.7181 116.262 61.6203 113.311 60.858 110.238C59.9433 106.522 59.4402 102.745 59.4097 98.9074C59.3792 96.1857 59.5164 93.464 59.7146 90.7576C59.7908 89.8402 59.9128 88.9228 60.0043 88.0818C59.7603 87.5772 59.3792 87.3632 59.0133 87.1491C51.497 82.562 46.3743 75.9413 42.7457 68.0361C40.8095 63.816 39.6965 59.3665 38.9037 54.81C38.3854 51.7825 38.0652 48.7244 38.0195 45.6511C37.989 43.4645 38.0805 41.2627 38.1567 39.0762C38.2482 36.2322 38.4159 33.3729 38.9037 30.5595C38.919 30.4372 38.9037 30.2995 38.9037 30.0243L38.7665 29.9479ZM166.711 39.5808C165.614 38.1894 164.089 37.1649 162.412 36.4004C160.339 35.4677 158.235 34.6267 156.131 33.7399C153.585 32.6696 150.901 32.0579 148.248 31.3393C146.48 30.85 144.696 30.4219 142.867 30.2231C141.342 30.0549 139.817 29.902 138.308 29.7185C135.487 29.3515 132.652 29.1834 129.801 29.1986C129.282 29.1986 128.749 29.1834 128.23 29.1681C125.867 29.1375 123.504 29.2445 121.171 29.6115C118.793 29.9785 116.445 30.483 114.128 31.1099C110.591 32.0732 107.038 32.9907 103.669 34.5197C99.0494 36.5992 94.7958 39.1985 91.0605 42.6847C84.9011 48.4033 79.3972 54.6724 74.6557 61.6295C74.5338 61.7977 74.4575 61.9965 74.3051 62.2564C74.7929 62.4399 75.1741 62.5775 75.5857 62.7151C76.6682 63.0974 77.5067 63.7854 78.0251 64.7946C78.4062 65.5285 78.7112 66.3083 78.9551 67.1034C79.4277 68.5866 79.1381 70.0545 78.8026 71.5223C78.391 73.2502 77.5677 74.7945 76.7292 76.3388C76.2261 77.2562 75.7229 78.1889 75.3265 79.1522C74.5642 80.9718 74.7624 82.7455 75.7687 84.4427C76.1803 85.1155 76.6225 85.773 77.0341 86.4457C77.9641 87.9595 78.6807 89.5497 78.8484 91.3387C78.9399 92.3019 78.9551 93.2652 78.9246 94.2285C78.9094 95.1307 79.1381 95.9563 79.5649 96.7361C80.0376 97.5771 80.5102 98.4181 80.9371 99.2744C81.5927 100.574 81.9433 101.981 82.0958 103.433C82.3702 106.17 82.0958 108.877 81.2573 111.491C80.1595 114.916 79.1076 118.357 77.5982 121.629C76.0279 125.054 75.3418 128.708 74.7624 132.393C74.6862 132.913 74.7624 133.326 75.0979 133.724C76.3023 135.237 77.4762 136.766 78.8636 138.112C83.8796 143.005 89.3224 147.301 95.5885 150.466C96.2441 150.803 96.8997 151.155 97.5553 151.521C100.681 153.234 103.974 154.488 107.389 155.451C110.118 156.216 112.847 156.98 115.576 157.791C119.067 158.846 122.635 159.411 126.294 159.396C129.785 159.381 133.292 159.503 136.783 159.151C139.086 158.922 141.403 158.739 143.659 158.234C147.791 157.317 151.907 156.353 155.948 155.023C160.43 153.54 164.546 151.369 168.343 148.586C171.453 146.307 174.304 143.693 177.155 141.109C178.268 140.115 179.335 139.075 180.479 138.112C183.177 135.864 185.296 133.158 187.065 130.146C187.294 129.748 187.431 129.35 187.415 128.907C187.385 128.433 187.4 127.944 187.324 127.47C187.08 126.078 186.607 124.763 186.12 123.448C185.876 122.791 185.418 122.332 184.808 122.057C184.412 121.873 183.985 121.736 183.573 121.659C182.582 121.476 181.591 121.354 180.6 121.201C179.289 121.002 178.359 120.237 177.749 119.106C177.475 118.617 177.323 118.051 177.14 117.516C176.972 117.026 176.835 116.507 176.667 116.017C176.438 115.375 175.981 114.993 175.28 115.039C174.548 115.085 173.786 115.115 173.069 115.268C171.666 115.559 170.264 115.956 168.861 116.277C168.434 116.369 167.992 116.415 167.565 116.4C165.568 116.323 164.333 115.039 164.302 113.036C164.302 112.011 164.516 111.033 164.851 110.069C165.476 108.28 166.193 106.553 167.062 104.871C168.236 102.623 169.471 100.391 170.935 98.3111C171.316 97.7759 171.666 97.2102 171.925 96.6138C172.535 95.253 172.017 93.724 170.752 92.9594C170.447 92.776 170.142 92.623 169.837 92.4396C168.983 91.9044 168.404 91.1552 168.175 90.1613C168.083 89.779 167.992 89.3815 167.992 88.9992C167.962 87.0115 167.687 85.0696 167.077 83.1736C166.711 82.0268 166.772 80.8495 167.077 79.6721C167.55 77.8067 168.449 76.1706 169.608 74.6569C170.111 73.9994 170.645 73.3572 171.194 72.7303C174.578 68.7854 174.35 63.4796 171.712 59.6876C171.27 59.0454 170.797 58.4032 170.34 57.761C169.608 56.706 169.059 55.5592 168.77 54.3207C168.526 53.3421 168.312 52.3635 168.099 51.3697C167.367 48.0669 166.849 44.7336 166.742 41.3545C166.727 40.7887 166.742 40.223 166.742 39.5808H166.711ZM189.916 124.274H190.175C190.373 123.785 190.617 123.311 190.785 122.822C191.288 121.323 191.822 119.84 192.233 118.326C193.224 114.779 194.063 111.201 194.551 107.546C194.917 104.886 195.1 102.225 195.237 99.5496C195.328 97.7606 195.374 95.9563 195.282 94.1674C195.13 91.2775 194.84 88.4029 194.596 85.513C194.535 84.7332 194.444 83.9381 194.322 83.1583C193.834 80.1308 192.996 77.1798 192.142 74.2288C191.166 70.8955 189.916 67.6845 188.239 64.6264C187.629 63.5102 187.05 62.3787 186.501 61.2319C185.266 58.709 183.756 56.3543 182.262 53.969C180.174 50.6663 177.521 47.8988 174.456 45.5135C173.115 44.4584 171.758 43.4187 170.401 42.3789C170.279 42.2872 170.111 42.2413 169.913 42.1496C169.883 42.3484 169.837 42.486 169.867 42.593C170.386 45.6205 170.904 48.6327 171.422 51.6602C171.773 53.6326 172.459 55.4522 173.77 57.0118C174.106 57.4094 174.395 57.8681 174.685 58.2962C175.371 59.3206 175.889 60.4368 176.24 61.6142C177.673 66.4612 176.896 70.8802 173.648 74.8098C173.145 75.4214 172.642 76.0177 172.154 76.6446C171.483 77.5162 170.919 78.4489 170.508 79.4733C170.05 80.6201 169.928 81.7363 170.34 82.929C170.889 84.5191 171.148 86.1552 171.133 87.8372C171.133 88.143 171.178 88.4488 171.194 88.7546C171.239 89.2745 171.438 89.672 171.941 89.8861C172.185 89.9778 172.398 90.1307 172.627 90.2683C173.42 90.7729 174.075 91.3998 174.517 92.2408C175.676 94.4273 175.737 96.5985 174.456 98.7392C173.938 99.5955 173.389 100.452 172.825 101.277C171.361 103.418 170.203 105.727 169.09 108.066C168.602 109.091 168.251 110.176 167.855 111.247C167.657 111.782 167.565 112.332 167.611 112.898C167.794 112.944 167.916 113.02 168.038 113.005C168.419 112.959 168.815 112.898 169.196 112.806C170.645 112.47 172.078 112.072 173.526 111.812C174.334 111.66 175.188 111.614 175.996 111.721C177.78 111.981 179.015 113.051 179.67 114.733C179.945 115.421 180.113 116.155 180.311 116.874C180.509 117.577 180.89 117.974 181.683 118.036C182.674 118.112 183.68 118.265 184.656 118.51C186.928 119.075 188.589 120.36 189.321 122.684C189.413 122.974 189.519 123.265 189.626 123.555C189.718 123.785 189.809 124.014 189.901 124.228L189.916 124.274ZM105.773 158.433C105.437 159.075 105.148 159.564 104.934 160.084C104.096 162.072 103.074 163.953 101.916 165.757C100.284 168.295 98.6225 170.833 96.9607 173.356C96.8235 173.57 96.671 173.784 96.5033 173.998C95.9087 174.763 95.1159 175.038 94.1859 174.931C93.8353 174.885 93.4998 174.809 93.1644 174.702C91.5331 174.182 90.0085 173.417 88.6363 172.393C87.5234 171.552 86.3647 170.741 85.2365 169.931C81.8976 167.531 78.6197 165.038 75.1893 162.775C74.8997 162.576 74.6252 162.362 74.3508 162.148C70.2954 159.014 66.0417 156.154 62.2149 152.714C62.0472 152.561 61.8795 152.439 61.6966 152.301C57.4429 149.06 53.174 145.849 48.9509 142.592C45.795 140.161 42.6848 137.684 39.5593 135.207C38.1262 134.075 36.7083 132.913 35.2599 131.751C35.0617 131.889 34.9093 131.98 34.7873 132.103C31.7686 135.1 28.9023 138.234 26.7069 141.934C25.1213 144.61 23.5205 147.286 22.0873 150.038C19.5718 154.84 17.6965 159.87 16.8275 165.252C16.5225 167.164 16.3243 169.075 16.4616 171.017C16.5073 171.628 16.5683 172.255 16.7665 172.821C17.5288 174.855 18.8247 176.032 21.1421 175.726C21.7367 175.65 22.2246 175.374 22.6972 175.069C24.5725 173.861 26.0971 172.301 27.2253 170.39C28.0943 168.922 28.9023 167.408 29.6189 165.864C30.4574 164.029 31.174 162.148 31.9515 160.283C33.4457 156.705 34.6044 153.051 35.2599 149.228C35.4429 148.142 35.6716 147.072 35.885 146.002C35.9308 145.788 35.9613 145.574 36.007 145.359C36.5254 143.494 38.3396 142.959 39.7728 144.213C40.1997 144.595 40.6113 144.993 41.0687 145.329C43.7825 147.332 46.4963 149.32 49.0271 151.567C49.4235 151.919 49.8352 152.24 50.262 152.546C53.0216 154.488 55.6134 156.644 58.2357 158.769C63.145 162.729 68.0542 166.69 73.2074 170.329C79.9613 175.099 86.6696 179.946 93.4084 184.763C93.759 185.023 94.1249 185.267 94.4908 185.497C95.0244 185.833 95.5733 185.833 96.0764 185.451C96.5948 185.053 97.1436 184.686 97.601 184.212C98.592 183.173 99.5983 182.117 100.483 180.971C101.931 179.105 103.303 177.179 104.675 175.252C107.801 170.879 110.24 166.139 112.466 161.261C112.588 161.002 112.817 160.742 112.588 160.329C110.438 159.518 108.136 159.06 105.742 158.448L105.773 158.433ZM229.556 174.885C229.723 174.579 229.86 174.319 229.998 174.044C230.364 173.341 230.684 172.622 231.08 171.934C232.757 169.06 234.434 166.185 236.142 163.326C239.252 158.081 242.027 152.668 244.481 147.087C245.152 145.558 245.716 143.999 246.296 142.439C246.585 141.659 246.753 140.834 246.662 139.993C246.479 138.494 246.098 137.072 245.442 135.711C244.939 134.672 244.268 133.754 243.399 133.005C242.82 132.516 242.195 132.164 241.463 131.935C240.213 131.537 239.039 131.766 237.895 132.256C235.944 133.097 234.251 134.35 232.818 135.91C230.47 138.448 228.626 141.308 227.421 144.549C225.912 148.601 225.012 152.791 224.967 157.133C224.936 159.763 225.012 162.393 225.027 165.023C225.027 165.283 225.043 165.543 225.027 165.818C224.951 166.98 224.113 167.622 222.969 167.393C222.588 167.316 222.207 167.194 221.826 167.102C212.617 164.702 203.409 162.286 194.215 159.885C185.723 157.668 177.231 155.482 168.754 153.219C168.038 153.02 167.535 153.127 166.925 153.463C164.973 154.549 162.991 155.558 161.025 156.598C160.887 156.674 160.75 156.751 160.384 156.965C183.589 162.974 206.549 168.922 229.571 174.885H229.556ZM62.2149 78.036C62.0472 77.8831 61.9863 77.8067 61.9253 77.7608C60.1567 76.7975 58.7693 75.4214 57.5649 73.8312C55.6744 71.3542 54.0736 68.6783 52.6252 65.9261C50.3383 61.5683 48.9966 56.9201 48.2343 52.073C47.8532 49.6877 47.6702 47.2718 47.533 44.8713C47.3958 42.4554 47.3958 40.0548 47.6245 37.6389C47.8227 35.6206 48.2496 33.6481 48.585 31.6757C48.7527 30.6818 48.8899 29.6879 49.0729 28.6941C49.3473 27.1344 50.2011 26.6452 51.6952 27.1497C52.4575 27.4097 53.235 27.5014 54.0278 27.3638C55.5067 27.1039 56.9093 26.6299 58.1595 25.7736C61.8033 23.3119 63.5414 19.6575 64.4104 15.4985C64.5476 14.8716 64.3799 14.26 64.1664 13.6942C63.9073 13.0367 63.4194 12.6545 62.6723 12.5933C61.2087 12.471 59.989 13.0214 59.0133 14.0306C57.8546 15.2233 56.8636 16.5535 56.4062 18.2202C56.147 19.1529 55.278 19.688 54.409 19.4587C53.479 19.2293 52.8844 18.266 53.1283 17.3333C53.2503 16.8746 53.4332 16.4159 53.6924 16.0031C54.409 14.841 55.1408 13.7095 55.9031 12.5933C56.1623 12.2111 56.3147 11.8594 56.3452 11.4007C56.4824 8.95421 55.6287 6.82885 54.2413 4.91756C53.6619 4.12246 52.8386 3.60259 51.8629 3.35794C51.5122 3.2662 51.1921 3.2662 50.8414 3.38852C49.7742 3.72491 48.9966 4.3671 48.5697 5.40685C48.0209 6.76769 47.7617 8.18969 47.7464 9.64228C47.7312 10.8196 47.7464 12.0123 47.7464 13.1896C47.7464 13.5413 47.7464 13.9083 47.6702 14.2294C47.5025 14.9174 47.0451 15.3762 46.3286 15.5291C45.7187 15.6514 45.2156 15.4373 44.804 14.9633C44.499 14.5964 44.4685 14.1682 44.4685 13.7248C44.4838 12.4557 44.4685 11.1866 44.4838 9.90221C44.499 8.93892 44.1941 8.08266 43.5843 7.34872C42.7915 6.40072 41.8462 5.62091 40.7485 5.03988C39.6203 4.42827 38.7513 4.67291 38.0195 5.72794C37.9127 5.86556 37.8213 6.01846 37.7603 6.18666C37.1809 7.48634 36.8608 8.83189 37.0742 10.2692C37.2114 11.2325 37.4706 12.1499 37.928 13.0214C38.5683 14.2141 39.2239 15.4067 39.849 16.6147C40.2759 17.4251 40.0929 18.2049 39.4069 18.7095C38.797 19.1529 37.928 19.107 37.3639 18.5566C37.059 18.2507 36.815 17.8838 36.6016 17.5015C36.007 16.4312 35.4276 15.3456 34.894 14.2447C34.6501 13.7401 34.2994 13.3884 33.8268 13.1438C33.0797 12.7615 32.287 12.5474 31.4484 12.4251C31.0215 12.364 30.6709 12.5169 30.4422 12.8991C30.3202 13.0826 30.1982 13.2661 30.1068 13.4649C28.8871 16.1865 29.0395 18.7553 30.9758 21.0948C31.9058 22.2262 32.9883 23.2048 34.2537 23.9082C36.4796 25.1314 38.736 26.2629 41.0229 27.3791C42.0902 27.899 42.4103 28.3271 42.0902 29.3974C41.8157 30.3301 41.709 31.2781 41.648 32.2414C41.5108 34.6114 41.4193 36.9661 41.2516 39.3362C40.779 46.0027 41.3584 52.5623 42.9592 59.0454C45.0479 67.5469 49.271 74.7792 55.6591 80.7424C56.9093 81.9198 58.2662 82.9442 59.7603 83.8005C59.9738 83.9228 60.2177 83.9687 60.4769 84.0757L62.1845 78.036H62.2149ZM196.944 79.2287C197.036 79.2287 197.097 79.2746 197.127 79.2593C197.707 78.9535 198.271 78.6477 198.835 78.3266C201.93 76.5682 204.811 74.504 207.464 72.1493C211.489 68.6019 214.919 64.5041 217.969 60.0852C219.722 57.547 221.124 54.8253 221.994 51.859C222.756 49.2596 223.457 46.6297 224.204 44.015C224.768 41.9967 225.378 39.9783 225.592 37.8683C225.668 37.0732 226.034 36.3851 226.476 35.7123C226.964 34.9784 227.558 34.5961 228.397 34.5656C228.869 34.535 229.357 34.5044 229.83 34.4585C231.217 34.3209 232.62 34.1833 234.007 34.0304C234.922 33.9234 235.837 33.8469 236.736 33.6787C237.804 33.4647 238.825 33.0824 239.786 32.5167C242.423 30.9417 243.582 28.6176 243.338 25.5748C243.277 24.7644 243.048 24.0152 242.499 23.4036C241.874 22.7155 241.204 22.0886 240.182 22.0275C240.075 22.0733 239.969 22.1345 239.847 22.1651C239.008 22.3944 238.49 22.9755 237.971 23.6635C237.224 24.6421 236.355 25.5137 235.532 26.4158C235.029 26.9662 234.389 27.058 233.718 26.8592C233.123 26.6757 232.803 26.2017 232.681 25.6054C232.559 24.9938 232.818 24.4892 233.215 24.0458C233.687 23.5259 234.19 23.0366 234.678 22.532C235.547 21.6452 236.249 20.636 236.706 19.4893C237.301 17.9755 237.362 16.3853 236.935 14.841C236.508 13.2967 235.791 12.9297 234.282 13.3425C233.093 13.6789 232.025 14.2753 231.05 15.0245C230.47 15.4679 230.135 16.0336 229.998 16.7676C229.815 17.7156 229.586 18.6483 229.342 19.581C229.159 20.2538 228.93 20.896 228.869 21.6146C228.793 22.5015 228.122 23.006 227.253 23.006C226.217 23.006 225.454 22.1651 225.546 21.11C225.592 20.636 225.759 20.1773 225.881 19.7033C226.156 18.74 226.476 17.7767 226.689 16.7982C227.009 15.2997 226.827 13.8318 226.14 12.4404C225.653 11.4465 225.027 11.1407 224.006 11.4771C223.274 11.7218 222.542 12.0582 221.887 12.5016C219.569 14.0765 218.487 16.4312 217.938 19.0917C217.862 19.4587 217.953 19.7798 218.182 20.0703C218.944 21.0183 219.493 22.1345 220.347 23.0366C221.155 23.9082 220.865 25.1926 219.829 25.6819C219.219 25.9877 218.624 25.9112 218.106 25.4831C217.77 25.2079 217.511 24.8562 217.252 24.4892C216.612 23.6024 216.017 22.6697 215.392 21.7828C214.935 21.1406 214.37 20.5902 213.639 20.2385C213.212 20.0397 212.8 19.9786 212.373 20.1773C211.123 20.7889 210.239 21.7217 210.025 23.1437C209.919 23.8317 209.888 24.5657 210.041 25.2384C210.62 27.6084 211.55 29.8103 213.319 31.5687C214.508 32.746 215.819 33.7705 217.282 34.5656C217.969 34.9478 218.609 35.3759 219.264 35.8041C220.149 36.3851 220.316 36.8744 220.042 37.9294C219.646 39.4585 219.249 40.9875 218.868 42.5165C217.725 47.2107 215.88 51.5837 213.166 55.5745C212.449 56.6295 211.763 57.6999 211.093 58.7702C208.592 62.7304 205.482 66.1554 201.991 69.2594C200.176 70.8802 198.179 72.1798 195.923 73.1125C195.725 73.189 195.542 73.296 195.359 73.4031C195.908 75.3908 196.426 77.3327 196.944 79.2593V79.2287ZM71.7742 128.724C72.2316 128.265 72.2773 127.821 72.3536 127.409C72.7347 125.1 73.4818 122.913 74.427 120.773C75.8144 117.638 76.8664 114.397 77.9489 111.14C78.4215 109.718 78.7417 108.265 78.8941 106.782C79.1381 104.29 78.8331 101.874 77.522 99.6719C77.2171 99.1367 76.9121 98.6016 76.6225 98.0664C75.9516 96.8585 75.6162 95.5435 75.6315 94.1521C75.6315 93.5405 75.6315 92.9289 75.6315 92.3019C75.6467 91.2316 75.3875 90.2072 74.8997 89.2592C74.5947 88.6781 74.2593 88.1124 73.9239 87.5466C73.5428 86.9045 73.0854 86.3081 72.75 85.6506C71.6675 83.6017 71.3016 81.4458 71.8962 79.1675C72.2011 77.9749 72.7195 76.8587 73.2836 75.7731C73.68 75.0391 74.1069 74.3205 74.5033 73.5865C75.0521 72.5774 75.479 71.5224 75.7229 70.4062C76.0279 69.0453 76.0279 67.6998 75.2656 66.4612C75.0826 66.1707 74.8692 65.8496 74.5947 65.6814C73.9239 65.2839 73.1769 65.024 72.3383 65.1004C72.1554 65.3603 71.9877 65.6203 71.8047 65.8649C69.0909 69.7334 67.1089 73.9688 65.5996 78.4336C64.4866 81.721 63.6023 85.0543 63.145 88.5099C62.7943 91.1705 62.6723 93.8463 62.5809 96.5068C62.4436 101.048 62.8858 105.528 64.0445 109.932C64.8678 113.036 65.9502 116.033 67.0937 119.029C67.7645 120.788 68.5268 122.516 69.3044 124.228C70.0057 125.742 70.8595 127.164 71.7895 128.708L71.7742 128.724Z" fill="black"/>
<path d="M131.158 285.388C118.214 285.419 105.255 285.45 92.3107 285.511C70.6613 285.618 48.9967 285.74 27.3473 285.862C19.4346 285.908 11.5066 285.954 3.59394 286C2.9841 286 2.37426 286 1.79491 285.725C0.727687 285.251 0.300797 284.379 0.392274 283.202C0.468504 282.223 0.773427 281.321 1.12409 280.434C3.22804 275.129 5.81987 270.052 8.76235 265.159C11.7048 260.266 15.4096 256.031 19.8005 252.392C21.2184 251.214 22.6667 250.068 24.1609 249.013C26.6002 247.285 29.2378 245.924 32.1345 245.144C34.1013 244.609 36.1138 244.548 38.111 244.854C39.6661 245.083 41.2059 245.404 42.761 245.649C44.4229 245.893 46.0694 245.893 47.6855 245.328C48.89 244.9 50.0487 244.41 51.1464 243.768C52.3508 243.065 53.2656 242.101 53.9059 240.848C55.1713 238.371 56.0708 235.771 56.6502 233.065C57.1686 230.664 57.6564 228.264 58.251 225.878C58.5864 224.518 59.0286 223.172 59.5774 221.888C61.7271 216.857 65.3252 213.386 70.5546 211.674C72.4908 211.047 74.4881 210.909 76.5005 210.909C79.3058 210.909 81.9434 211.612 84.5047 212.683C85.3128 213.019 86.1208 213.356 86.8983 213.738C89.4597 214.961 92.0515 214.885 94.6586 213.921C96.107 213.386 97.4486 212.667 98.7598 211.872C101.687 210.083 104.37 207.973 106.916 205.695C109.737 203.187 112.481 200.603 115.302 198.111C117.558 196.108 119.83 194.105 122.208 192.24C125.181 189.9 128.413 187.989 131.966 186.659C134.359 185.772 136.814 185.175 139.345 184.977C143.598 184.64 147.349 185.971 150.703 188.555C152.838 190.206 154.606 192.194 156.283 194.288C160.171 199.166 163.098 204.564 165.309 210.389C166.681 213.998 168.099 217.576 169.501 221.169C170.279 223.172 171.179 225.114 172.322 226.949C173.176 228.294 174.212 229.472 175.493 230.42C177.795 232.117 180.219 232.331 182.765 231.031C183.619 230.603 184.427 230.068 185.251 229.579C186.76 228.692 188.239 227.759 189.779 226.933C191.593 225.955 193.514 225.206 195.542 224.823C197.005 224.548 198.469 224.365 199.963 224.563C202.753 224.961 204.964 226.322 206.702 228.493C207.388 229.349 207.952 230.297 208.577 231.184C209.416 232.361 210.239 233.539 211.138 234.686C212.328 236.199 213.867 237.27 215.621 238.019C216.383 238.34 217.176 238.615 217.938 238.936C219.661 239.686 221.384 240.45 223.091 241.23C228.305 243.6 232.529 247.208 235.928 251.811C236.919 253.156 237.88 254.517 238.81 255.893C241.188 259.441 243.887 262.713 246.936 265.679C248.415 267.116 249.848 268.6 251.312 270.037C253.904 272.59 256.678 274.93 259.468 277.285C260.002 277.743 260.566 278.171 261.054 278.661C261.832 279.456 262.38 280.388 262.502 281.535C262.563 282.086 262.472 282.59 262.35 283.095C262.197 283.706 261.892 284.257 261.1 284.196C261.008 284.196 260.901 284.196 260.841 284.226C259.987 284.838 258.996 284.685 258.05 284.7C250.702 284.746 243.353 284.777 236.005 284.807C222.436 284.869 208.882 284.914 195.313 284.991C173.923 285.113 152.517 285.236 131.127 285.373V285.404L131.158 285.388ZM3.7769 282.667C4.46297 282.667 5.02707 282.682 5.59118 282.682C23.0479 282.59 40.5046 282.499 57.9614 282.422C74.5491 282.33 91.1215 282.254 107.709 282.162C125.257 282.07 142.806 281.979 160.354 281.902C166.955 281.872 173.572 281.856 180.174 281.826C197.417 281.734 214.66 281.642 231.888 281.566C239.984 281.52 248.08 281.505 256.175 281.474C256.877 281.474 257.578 281.474 258.279 281.428C258.462 281.428 258.645 281.321 258.965 281.229C258.66 280.924 258.462 280.694 258.249 280.495C257.242 279.639 256.236 278.798 255.23 277.957C251.769 275.052 248.567 271.872 245.351 268.707C241.646 265.068 238.337 261.107 235.486 256.78C234.648 255.496 233.733 254.257 232.803 253.049C229.967 249.38 226.522 246.459 222.329 244.456C221.338 243.982 220.362 243.508 219.356 243.08C217.709 242.377 216.048 241.704 214.401 241.016C212.099 240.052 210.147 238.6 208.562 236.658C207.54 235.404 206.58 234.089 205.711 232.713C205.131 231.796 204.491 230.894 203.775 230.068C202.784 228.906 201.503 228.111 199.994 227.866C198.865 227.683 197.722 227.728 196.594 227.943C194.383 228.355 192.325 229.212 190.373 230.328C188.925 231.154 187.553 232.086 186.104 232.912C185.083 233.493 184.046 234.074 182.964 234.517C181.576 235.083 180.097 235.297 178.588 235.114C176.728 234.884 175.066 234.15 173.557 233.034C171.91 231.811 170.599 230.313 169.517 228.585C168.373 226.75 167.458 224.823 166.666 222.82C165.248 219.227 163.83 215.649 162.473 212.041C160.43 206.582 157.747 201.49 154.179 196.873C152.868 195.175 151.45 193.555 149.865 192.102C148.63 190.955 147.257 190.038 145.748 189.334C144.391 188.692 142.958 188.356 141.449 188.279C138.506 188.142 135.716 188.753 132.987 189.778C129.557 191.062 126.477 192.989 123.626 195.267C119.937 198.233 116.445 201.429 112.969 204.64C111.292 206.184 109.6 207.713 107.877 209.197C105.483 211.245 102.968 213.157 100.269 214.793C98.7293 215.726 97.1437 216.551 95.4361 217.132C92.204 218.203 89.0023 218.264 85.8464 216.842C85.1298 216.521 84.398 216.23 83.6814 215.909C81.7909 215.068 79.8394 214.472 77.7812 214.258C75.6163 214.028 73.4971 214.197 71.4389 214.869C67.3224 216.2 64.4867 218.967 62.7181 222.866C61.9863 224.472 61.5137 226.154 61.1173 227.866C60.5684 230.251 60.0958 232.667 59.5317 235.053C58.9219 237.667 57.9614 240.16 56.7112 242.53C55.8574 244.166 54.6377 245.45 53.0674 246.413C51.2988 247.499 49.4236 248.309 47.4111 248.783C46.2676 249.059 45.0937 249.242 43.9045 249.089C43.0812 248.982 42.2579 248.844 41.4499 248.707C39.7728 248.416 38.111 248.049 36.3882 247.988C35.2447 247.942 34.1165 248.019 33.0036 248.309C30.6557 248.921 28.506 250.007 26.5088 251.383C25.1061 252.346 23.7492 253.401 22.4228 254.471C17.4374 258.523 13.3972 263.386 10.2717 269.012C7.90858 273.278 5.78938 277.651 3.88362 282.116C3.83788 282.239 3.83788 282.361 3.76165 282.682L3.7769 282.667Z" fill="black"/>
<path d="M8.35066 65.452C8.18295 64.1064 8.03049 62.7609 7.81705 61.4153C7.64934 60.4214 7.22245 59.4887 6.70409 58.6172C5.75883 57.027 4.35619 56.0637 2.58765 55.5897C2.2065 55.4827 1.8101 55.4215 1.45945 55.2686C0.239762 54.7487 -0.263359 53.6325 0.133038 52.3787C0.270253 51.9659 0.468452 51.5683 0.666651 51.1861C1.16977 50.2534 1.68814 49.3512 2.19126 48.4185C3.04503 46.8283 3.59389 45.1311 3.91406 43.3421C4.21898 41.6449 4.00553 40.0241 3.45668 38.4339C3.34995 38.0975 3.18225 37.7764 3.12127 37.44C2.87733 36.3391 3.54816 35.5593 4.67636 35.5593C4.88981 35.5593 5.1185 35.5899 5.33194 35.5899C6.10949 35.6052 6.65835 35.9722 7.02425 36.6296C7.35966 37.2413 7.71032 37.8529 8.01524 38.4798C9.08247 40.651 10.6528 42.3788 12.6653 43.7244C13.946 44.5653 15.2419 45.3757 16.6902 45.8803C17.1324 46.0332 17.5745 46.2473 17.9709 46.5225C19.0534 47.2412 19.2668 48.4032 18.5198 49.4888C18.3521 49.7335 18.1386 49.9628 17.9404 50.1922C17.483 50.7121 17.0257 51.2625 16.553 51.7671C15.0742 53.3267 14.1442 55.1769 13.5038 57.2105C12.6348 59.978 12.0402 62.7914 11.7048 65.6813C11.6438 66.2471 11.5676 66.8128 11.3999 67.3633C11.2017 68.0513 10.7138 68.4795 9.98199 68.5559C9.14345 68.6477 8.3964 68.1278 8.27443 67.2715C8.18295 66.6752 8.25918 66.0483 8.25918 65.4367H8.32017L8.35066 65.452ZM9.93625 57.3328C10.5766 55.7579 11.1407 54.2288 11.8115 52.7763C12.5128 51.2625 13.763 50.131 14.7997 48.7396C12.025 47.3482 9.47886 45.7733 7.39016 43.4797C6.90228 45.0699 6.52113 46.599 5.94178 48.0363C5.34719 49.5194 4.53915 50.9261 3.83783 52.3634C7.63409 54.4429 7.0395 53.816 9.93625 57.3481V57.3328Z" fill="black"/>
<path d="M246.768 82.2868C246.784 82.8373 246.524 83.3419 246.128 83.77C245.732 84.1828 245.305 84.5498 244.878 84.9168C244.283 85.4367 243.658 85.926 243.079 86.4611C241.768 87.6538 240.731 89.0452 240.014 90.6812C239.542 91.7669 239.054 92.8525 238.566 93.9228C238.383 94.3204 238.215 94.7332 237.956 95.0849C237.102 96.2317 235.563 96.0635 234.998 94.7485C234.846 94.3968 234.77 93.9993 234.678 93.617C234.419 92.6384 234.206 91.6598 233.885 90.6965C233.642 89.9473 233.321 89.2287 232.94 88.5406C232.086 86.9963 230.745 86.2165 228.976 86.14C228.488 86.1247 228.016 86.14 227.528 86.1247C227.223 86.1247 226.903 86.0941 226.628 85.9871C225.576 85.6201 225.119 84.5345 225.622 83.5407C225.836 83.1125 226.171 82.7455 226.476 82.3786C227.375 81.3541 228.29 80.3603 229.174 79.3358C230.257 78.082 230.989 76.6753 231.339 75.0392C231.507 74.2441 231.553 73.4643 231.431 72.6845C231.263 71.66 231.69 70.9108 232.346 70.2075C232.91 69.6111 234.206 69.4582 234.861 70.4368C235.029 70.6815 235.151 70.972 235.273 71.2625C236.218 73.6172 237.849 75.4215 239.831 76.9199C241.188 77.9597 242.667 78.8159 244.207 79.5652C244.756 79.8251 245.305 80.1156 245.808 80.452C246.509 80.926 246.768 81.4765 246.768 82.2868ZM234.45 76.2472C233.977 77.6692 233.55 78.8771 232.803 79.9016C232.071 80.9107 231.278 81.8893 230.425 83.0208C232.041 83.3725 233.367 84.0605 234.465 85.1767C235.578 86.3235 236.249 87.7302 236.95 89.3816C237.712 87.9749 238.353 86.6905 239.344 85.6507C240.35 84.5804 241.417 83.5559 242.5 82.4856C241.112 81.6141 239.709 80.7425 238.337 79.8557C236.904 78.923 235.715 77.6997 234.465 76.2472H234.45Z" fill="black"/>
<path d="M43.1116 210.634C43.2183 206.98 44.255 203.646 46.6791 200.848C47.5329 199.854 48.4782 198.937 49.4082 198.004C50.9176 196.521 52.1982 194.854 53.1282 192.958C54.0277 191.139 54.6223 189.228 54.6071 187.163C54.6071 185.955 54.3784 184.824 53.921 183.708C53.174 181.873 52.1525 180.191 51.131 178.509C50.9328 178.173 50.7041 177.836 50.5821 177.469C50.3077 176.72 50.5821 175.94 51.2225 175.512C52.0153 174.992 53.052 175.145 53.5094 175.986C54.5918 177.928 55.6743 179.885 56.6653 181.873C58.1747 184.931 58.2357 188.096 57.2752 191.338C56.4214 194.197 54.9578 196.72 53.0063 198.952C52.3659 199.671 51.6646 200.328 50.9938 201.016C50.4144 201.613 49.8351 202.209 49.2862 202.836C45.8101 206.75 45.5509 212.79 48.036 216.949C48.4629 217.668 48.9203 218.356 49.4082 219.028C49.7893 219.564 50.2467 220.022 50.8108 220.389C51.6036 220.909 51.7561 221.689 51.3139 222.438C50.9023 223.111 50.0028 223.356 49.2405 222.973C48.9661 222.836 48.7221 222.637 48.4934 222.438C45.4747 219.839 43.7062 216.582 43.264 212.606C43.2183 212.178 43.1726 211.735 43.1421 211.292C43.1268 211.077 43.1421 210.848 43.1421 210.634H43.1116Z" fill="black"/>
<path d="M207.052 200.665C205.726 202.178 205.238 202.27 203.53 201.414C203.195 201.567 202.814 201.766 202.417 201.934C201.548 202.285 200.664 202.454 199.734 202.301C197.783 202.01 196.563 200.145 197.066 198.249C197.569 196.338 199.49 194.656 201.457 194.396C201.625 194.38 201.808 194.396 201.975 194.365C202.143 194.35 202.311 194.304 202.509 194.273C202.646 193.524 202.738 192.79 202.89 192.072C203.012 191.521 203.149 190.955 203.408 190.451C203.927 189.411 205.04 189.212 205.924 189.961C206.488 190.42 206.854 191.001 207.022 191.705C207.144 192.209 207.266 192.714 207.388 193.188C208.241 192.912 209.019 192.607 209.827 192.438C211.824 192.01 213.959 193.004 214.98 194.763C215.834 196.246 215.712 198.157 214.584 199.564C213.318 201.139 211.687 201.934 209.644 201.704C209.141 201.643 208.638 201.429 208.165 201.23C207.799 201.093 207.479 200.879 207.068 200.649L207.052 200.665ZM207.952 197.148C208.424 197.5 208.867 197.851 209.324 198.172C210.284 198.83 211.199 198.371 211.794 197.79C212.114 197.469 212.358 197.087 212.205 196.613C212.023 196.078 211.611 195.741 211.062 195.68C210.757 195.634 210.437 195.619 210.147 195.695C209.293 195.925 208.531 196.307 207.952 197.148ZM200.237 199.059C201.198 199.044 201.853 198.646 202.357 197.958C202.402 197.882 202.357 197.698 202.311 197.622C202.235 197.545 202.082 197.5 201.975 197.53C201.167 197.714 200.649 198.249 200.253 199.059H200.237Z" fill="black"/>
<path d="M179.228 208.845C179.198 207.24 179.564 205.711 180.234 204.258C181.469 201.536 183.207 199.212 185.693 197.484C186.668 196.812 187.659 196.169 188.62 195.481C189.26 195.023 189.885 194.549 190.48 194.029C191.562 193.081 192.203 191.842 192.508 190.436C192.645 189.824 192.675 189.212 192.508 188.616C192.279 187.821 192.004 187.026 191.745 186.246C191.639 185.91 191.471 185.604 191.379 185.267C191.196 184.488 191.578 183.708 192.233 183.387C192.95 183.05 193.849 183.31 194.307 184.014C194.444 184.228 194.551 184.472 194.642 184.717C194.886 185.374 195.13 186.032 195.359 186.689C196.38 189.778 195.74 192.561 193.864 195.13C193.087 196.2 192.081 197.041 190.983 197.79C189.9 198.539 188.818 199.273 187.72 199.992C185.693 201.353 184.29 203.218 183.253 205.389C182.262 207.469 182.186 209.61 183.07 211.75C183.36 212.454 183.741 213.081 184.229 213.646C184.58 214.044 184.93 214.426 185.51 214.472C185.632 214.472 185.754 214.548 185.876 214.61C186.882 215.084 187.034 216.414 186.135 217.087C185.662 217.454 185.113 217.576 184.519 217.408C183.787 217.209 183.162 216.842 182.582 216.353C180.25 214.396 179.259 211.811 179.182 208.83L179.228 208.845Z" fill="black"/>
<path d="M41.5565 234.778C41.7394 233.31 41.8919 232.132 42.0291 230.97C42.2883 228.738 41.587 226.827 40.1081 225.175C39.3458 224.319 38.4615 223.6 37.4858 223.019C36.51 222.453 35.519 221.888 34.528 221.322C33.3084 220.619 32.1802 219.793 31.2349 218.753C29.878 217.285 28.8718 215.603 28.4601 213.616C28.0942 211.873 28.2009 210.129 28.6583 208.417C29.1767 206.506 29.9695 204.701 30.93 202.974C31.1282 202.607 31.4331 202.255 31.7685 201.995C32.2869 201.597 32.9882 201.659 33.4761 202.041C34.0402 202.5 34.2079 203.111 33.842 203.799C32.9425 205.466 32.3936 207.27 31.8752 209.074C31.5703 210.129 31.4026 211.215 31.5551 212.316C31.738 213.753 32.3479 214.992 33.2626 216.093C34.0249 217.01 34.9244 217.759 35.9612 218.356C36.9064 218.906 37.8517 219.441 38.8122 219.976C40.2606 220.802 41.5565 221.842 42.6694 223.096C43.9501 224.533 44.7734 226.2 45.2003 228.065C45.4747 229.227 45.3985 230.42 45.2917 231.597C45.185 232.637 45.0021 233.677 44.8344 234.716C44.7886 235.007 44.7124 235.328 44.5752 235.588C44.2398 236.276 43.5689 236.597 42.8371 236.459C42.1511 236.337 41.6327 235.741 41.5717 234.976C41.5717 234.808 41.5717 234.625 41.5717 234.747L41.5565 234.778Z" fill="black"/>
<path d="M259.681 255.052C259.681 256.138 259.346 257.01 258.187 257.239C257.41 257.392 256.785 256.841 256.19 255.481C255.809 255.695 255.443 255.909 255.062 256.092C254.04 256.597 252.988 256.643 251.875 256.337C249.588 255.695 248.643 252.958 249.634 251.016C250.457 249.395 251.86 248.585 253.613 248.401C254.299 248.325 255.016 248.325 255.687 248.554C255.839 248.6 256.022 248.585 256.236 248.585C256.281 248.111 256.327 247.683 256.373 247.254C256.419 246.857 256.602 246.505 256.922 246.245C257.684 245.603 258.797 245.787 259.285 246.643C259.468 246.979 259.559 247.361 259.727 247.805C260.078 247.713 260.444 247.621 260.81 247.514C261.801 247.224 262.792 247.239 263.767 247.575C265.475 248.157 266.649 249.762 266.664 251.566C266.664 253.233 265.597 254.777 263.965 255.404C262.776 255.863 261.587 255.955 260.428 255.282C260.276 255.19 260.123 255.129 259.956 255.052C259.925 255.052 259.864 255.052 259.666 255.083L259.681 255.052ZM260.627 251.23C261.221 251.903 261.633 252.224 261.968 252.346C262.365 252.484 262.913 252.346 263.157 252.056C263.371 251.811 263.386 251.383 263.218 251.077C263.005 250.679 262.609 250.588 262.227 250.588C261.663 250.588 261.114 250.741 260.627 251.23ZM255.031 251.597C254.376 251.367 253.766 251.505 253.186 251.841C252.973 251.964 252.79 252.178 252.638 252.377C252.378 252.728 252.638 253.218 253.065 253.233C253.278 253.233 253.491 253.187 253.69 253.111C254.208 252.866 254.604 252.392 255.031 251.612V251.597Z" fill="black"/>
<path d="M27.5606 240.741C27.2404 241.047 26.9813 241.337 26.6763 241.582C25.7463 242.331 24.7096 242.713 23.5052 242.453C21.8891 242.102 20.8524 240.832 20.6999 239.074C20.5322 237.193 21.5537 234.533 24.4047 233.891C24.5724 233.86 24.7401 233.814 24.984 233.768C24.923 233.401 24.8468 233.065 24.8011 232.729C24.7096 231.933 24.9993 231.352 25.5939 231.077C26.1732 230.817 26.8441 230.97 27.3777 231.49C27.4996 231.612 27.5911 231.75 27.7588 231.964C28.079 231.735 28.3839 231.521 28.7041 231.307C29.5883 230.695 30.5641 230.359 31.6618 230.42C34.4213 230.557 36.2966 233.34 35.4123 235.97C35.1836 236.658 34.772 237.209 34.1926 237.637C33.3999 238.218 32.5156 238.554 31.5246 238.6C31.2197 238.6 30.9147 238.6 30.5488 238.6C30.4726 238.998 30.7165 239.288 30.7775 239.594C30.9452 240.374 30.6251 241.123 29.9542 241.49C29.4511 241.765 28.948 241.796 28.4601 241.49C28.1705 241.306 27.9265 241.047 27.5759 240.741H27.5606ZM29.878 234.747C30.5031 235.313 31.1434 235.328 31.799 235.19C31.982 235.144 32.1954 234.961 32.2564 234.793C32.4546 234.196 31.799 233.508 31.2044 233.692C30.6708 233.86 30.1829 234.135 29.878 234.762V234.747ZM25.4567 236.857C24.8926 236.78 24.5724 237.056 24.3437 237.423C24.0083 237.943 23.8711 238.508 24.1607 239.196C24.3742 239.089 24.6029 239.043 24.7096 238.906C25.167 238.325 25.4414 237.667 25.4414 236.872L25.4567 236.857Z" fill="black"/>
<path d="M68.0845 200.267C67.8406 202.469 67.185 202.943 65.203 202.285C64.9744 202.499 64.7304 202.744 64.456 202.958C62.6112 204.441 60.5682 203.86 59.2418 202.545C57.9459 201.261 57.6867 199.074 58.9979 197.53C59.6535 196.75 60.431 196.108 61.361 195.695C61.6812 195.558 62.0014 195.42 62.3368 195.282C62.1843 194.869 62.0014 194.518 61.9099 194.151C61.7269 193.463 61.8489 192.836 62.4283 192.377C62.9924 191.918 63.6175 191.903 64.273 192.224C64.7152 192.438 65.1116 192.683 65.325 193.157C65.386 193.31 65.508 193.432 65.6299 193.585C66.0721 193.279 66.4532 193.004 66.8649 192.744C67.7339 192.194 68.6791 191.949 69.7311 191.964C72.3687 192.025 74.1372 194.961 72.9328 197.408C72.323 198.661 71.2862 199.441 69.9903 199.854C69.3805 200.053 68.7249 200.129 68.0998 200.267H68.0845ZM67.3375 196.567C67.9626 196.857 68.3895 196.903 68.8011 196.781C69.1213 196.674 69.4414 196.506 69.7159 196.322C70.0208 196.108 70.0818 195.772 69.9293 195.512C69.7616 195.236 69.4719 195.129 69.1365 195.252C68.8926 195.343 68.6486 195.435 68.4352 195.603C68.0998 195.863 67.7949 196.169 67.3375 196.582V196.567ZM63.1448 198.325C62.1538 198.769 61.8489 198.998 61.5288 199.533C61.3306 199.869 61.422 200.221 61.7727 200.405C62.0624 200.542 62.3673 200.466 62.535 200.16C62.8247 199.64 63.0534 199.09 63.1296 198.34L63.1448 198.325Z" fill="black"/>
<path d="M284.289 133.876C279.791 133.983 275.278 134.151 270.781 134.182C265.978 134.213 261.161 134.106 256.343 134.075C255.901 134.075 255.474 134.044 255.093 133.784C254.62 133.479 254.361 133.035 254.407 132.454C254.452 131.904 254.894 131.353 255.443 131.216C255.733 131.139 256.053 131.124 256.358 131.109C258.157 131.047 259.941 130.956 261.74 130.94C266.42 130.895 271.101 130.94 275.782 130.849C279.014 130.788 282.246 130.604 285.478 130.466C286.042 130.451 286.621 130.405 287.186 130.421C288.283 130.451 289.015 131.139 289 132.072C289 132.974 288.177 133.769 287.186 133.8C286.225 133.83 285.265 133.8 284.304 133.8V133.861L284.289 133.876Z" fill="black"/>
<path d="M26.2037 123.846C26.2037 124.549 25.8378 125.13 25.2585 125.344C24.6334 125.589 24.0388 125.528 23.5509 125.054C23.246 124.748 23.0021 124.381 22.7734 124.014C20.5017 120.421 18.23 116.828 15.9736 113.234C13.5952 109.458 11.2016 105.681 8.82323 101.889C8.60979 101.553 8.3811 101.232 8.21339 100.88C7.84748 100.069 8.07617 99.2438 8.76225 98.7851C9.43307 98.3264 10.2869 98.464 10.8814 99.1368C11.0796 99.3661 11.2474 99.626 11.3998 99.886C16.1413 107.409 20.8829 114.932 25.6396 122.455C25.914 122.898 26.2342 123.326 26.2037 123.846Z" fill="black"/>
<path d="M234.937 236.796C234.815 236.337 234.739 235.909 234.602 235.496C234.236 234.456 233.718 233.493 233.062 232.606C232.559 231.933 232.041 231.291 231.568 230.603C230.806 229.472 230.15 228.279 229.921 226.918C229.479 224.38 230.135 222.056 231.278 219.823C231.37 219.64 231.522 219.456 231.675 219.303C232.498 218.539 233.779 218.906 234.053 220.007C234.114 220.251 234.099 220.542 234.038 220.787C233.962 221.077 233.809 221.352 233.687 221.643C233.154 223.019 232.986 224.441 233.062 225.909C233.108 226.628 233.352 227.285 233.733 227.881C234.236 228.692 234.8 229.487 235.379 230.251C236.447 231.658 237.3 233.172 237.819 234.869C238.261 236.352 238.261 237.82 237.621 239.242C237.133 240.312 236.538 241.337 235.989 242.392C235.913 242.545 235.791 242.682 235.669 242.805C235.059 243.416 234.327 243.493 233.641 243.065C233.138 242.744 232.65 241.872 233.047 241.108C233.23 240.756 233.413 240.404 233.596 240.052C233.916 239.426 234.266 238.829 234.556 238.187C234.739 237.759 234.831 237.27 234.953 236.826L234.937 236.796Z" fill="black"/>
<path d="M239.999 247.239C240.228 244.533 241.264 242.316 243.506 240.741C244.756 239.854 246.067 239.059 247.5 238.508C249.421 237.775 250.717 236.46 251.556 234.625C251.906 233.876 252.272 233.126 252.653 232.377C252.958 231.781 253.431 231.444 254.117 231.444C255.016 231.444 255.702 232.117 255.687 233.019C255.687 233.356 255.596 233.723 255.443 234.028C254.971 235.053 254.483 236.093 253.934 237.086C252.882 238.998 251.357 240.389 249.36 241.245C248.034 241.811 246.753 242.469 245.564 243.294C244.344 244.12 243.582 245.252 243.246 246.674C243.14 247.132 243.17 247.622 243.109 248.096C243.063 248.432 243.063 248.814 242.911 249.105C242.667 249.609 242.179 249.884 241.615 249.854C241.066 249.823 240.563 249.563 240.38 249.013C240.182 248.447 240.106 247.836 239.984 247.239H239.999Z" fill="black"/>
<path d="M246.677 122.225C245.518 122.225 244.771 121.17 245.228 120.176C246.433 117.653 247.073 114.901 248.232 112.347C249.406 109.763 250.412 107.103 251.51 104.473C251.693 104.03 251.86 103.571 252.104 103.158C252.562 102.378 253.37 102.103 254.117 102.409C254.94 102.76 255.321 103.54 255.077 104.458C255.032 104.626 254.955 104.779 254.879 104.947C252.912 109.718 250.961 114.488 248.979 119.259C248.674 119.977 248.323 120.696 247.942 121.369C247.653 121.889 247.195 122.225 246.677 122.194V122.225Z" fill="black"/>
<path d="M20.6999 129.61C20.6999 130.987 19.5717 131.751 18.5045 131.308C18.2606 131.201 18.0471 131.063 17.8337 130.895C14.4948 128.28 11.1559 125.65 7.81704 123.036C7.31392 122.638 6.96326 122.179 6.97851 121.491C7.02424 120.39 8.09147 119.656 9.09771 120.085C9.41788 120.222 9.70755 120.421 9.98198 120.62C13.1836 123.127 16.3853 125.635 19.587 128.158C19.8309 128.341 20.0901 128.525 20.2578 128.769C20.4713 129.075 20.5932 129.457 20.6695 129.61H20.6999Z" fill="black"/>
<path d="M28.0332 110.36C28.0789 110.192 28.1094 109.84 28.2619 109.519C28.5058 108.999 28.948 108.754 29.5273 108.754C30.1067 108.754 30.5488 109.03 30.7775 109.549C30.93 109.901 31.0214 110.299 31.0977 110.681C31.6313 113.571 32.1496 116.445 32.668 119.335C32.7442 119.718 32.7747 120.115 32.7747 120.513C32.7595 121.338 32.2564 121.919 31.4636 122.088C30.7622 122.24 29.9695 121.782 29.695 121.033C29.5578 120.666 29.4968 120.268 29.4358 119.886C28.9937 116.935 28.5668 113.999 28.1247 111.048C28.0942 110.88 28.0942 110.696 28.0484 110.345L28.0332 110.36Z" fill="black"/>
<path d="M252.379 125.925C251.205 125.925 250.534 124.794 251.083 123.785C251.19 123.601 251.327 123.433 251.479 123.265C253.492 121.017 255.504 118.77 257.517 116.522C257.715 116.293 257.928 116.078 258.172 115.895C258.798 115.421 259.682 115.467 260.231 115.956C260.779 116.445 260.901 117.317 260.505 117.99C260.398 118.173 260.261 118.341 260.109 118.51C258.005 120.742 255.916 122.959 253.812 125.176C253.416 125.589 252.973 125.956 252.394 125.925H252.379Z" fill="black"/>
<path d="M166.711 39.5808C166.711 40.2383 166.711 40.804 166.711 41.3545C166.803 44.749 167.336 48.067 168.068 51.3697C168.282 52.3483 168.51 53.3421 168.739 54.3207C169.044 55.5745 169.578 56.7213 170.309 57.761C170.767 58.4032 171.224 59.0454 171.682 59.6876C174.319 63.4796 174.548 68.7854 171.163 72.7303C170.614 73.3572 170.081 73.9994 169.578 74.6569C168.419 76.1706 167.519 77.8067 167.047 79.6721C166.742 80.8495 166.681 82.0268 167.047 83.1736C167.657 85.0696 167.931 87.0115 167.962 88.9992C167.962 89.3815 168.068 89.7791 168.144 90.1613C168.373 91.1552 168.952 91.9044 169.806 92.4396C170.096 92.6231 170.416 92.776 170.721 92.9595C171.986 93.724 172.505 95.253 171.895 96.6139C171.636 97.2102 171.27 97.7759 170.904 98.3111C169.44 100.406 168.221 102.623 167.032 104.871C166.162 106.537 165.431 108.28 164.821 110.069C164.485 111.017 164.257 111.996 164.272 113.036C164.302 115.039 165.537 116.323 167.535 116.4C167.962 116.4 168.419 116.369 168.831 116.277C170.233 115.956 171.621 115.574 173.038 115.268C173.755 115.115 174.502 115.085 175.249 115.039C175.95 114.993 176.408 115.36 176.637 116.017C176.804 116.507 176.941 117.026 177.109 117.516C177.292 118.051 177.445 118.617 177.719 119.106C178.329 120.237 179.259 121.002 180.57 121.201C181.561 121.354 182.552 121.476 183.543 121.659C183.97 121.736 184.397 121.874 184.778 122.057C185.388 122.332 185.845 122.791 186.089 123.448C186.577 124.763 187.065 126.078 187.293 127.47C187.37 127.944 187.37 128.433 187.385 128.907C187.415 129.366 187.278 129.748 187.034 130.146C185.266 133.158 183.147 135.864 180.448 138.112C179.305 139.06 178.237 140.1 177.124 141.109C174.258 143.693 171.422 146.308 168.312 148.586C164.516 151.369 160.399 153.54 155.917 155.023C151.892 156.353 147.76 157.317 143.629 158.234C141.372 158.739 139.055 158.907 136.753 159.151C133.262 159.503 129.755 159.381 126.264 159.396C122.605 159.427 119.037 158.846 115.546 157.791C112.832 156.965 110.103 156.2 107.358 155.451C103.943 154.503 100.635 153.234 97.5248 151.522C96.8692 151.17 96.2136 150.803 95.558 150.466C89.2919 147.286 83.8491 142.99 78.8331 138.112C77.4457 136.766 76.2718 135.237 75.0673 133.724C74.7472 133.311 74.6557 132.898 74.7319 132.393C75.3113 128.708 75.9973 125.054 77.5677 121.629C79.0618 118.357 80.129 114.916 81.2267 111.491C82.0653 108.877 82.3397 106.17 82.0653 103.433C81.9281 101.981 81.5621 100.574 80.9066 99.2744C80.4797 98.4181 79.9918 97.5771 79.5344 96.7362C79.0923 95.9564 78.8636 95.1307 78.8941 94.2285C78.9093 93.2653 78.8941 92.302 78.8179 91.3387C78.6502 89.5497 77.9336 87.9595 77.0036 86.4458C76.5919 85.773 76.1498 85.1155 75.7382 84.4427C74.7167 82.7608 74.5185 80.9871 75.296 79.1523C75.7077 78.189 76.1955 77.2563 76.6987 76.3388C77.5524 74.7945 78.3757 73.2655 78.7721 71.5224C79.1228 70.0545 79.3972 68.5866 78.9246 67.1035C78.6806 66.3084 78.3757 65.5286 77.9946 64.7946C77.4762 63.7854 76.6377 63.0974 75.5552 62.7151C75.1588 62.5775 74.7624 62.4246 74.2745 62.2564C74.4118 61.9965 74.5032 61.7977 74.6252 61.6295C79.3667 54.6877 84.8705 48.4186 91.0299 42.6848C94.7652 39.2139 99.0341 36.6145 103.638 34.5197C106.993 33.006 110.545 32.0732 114.097 31.11C116.415 30.4831 118.763 29.9632 121.141 29.6115C123.489 29.2445 125.837 29.1528 128.2 29.1681C128.718 29.1681 129.252 29.1987 129.77 29.1987C132.621 29.1987 135.457 29.3669 138.277 29.7185C139.787 29.9173 141.311 30.0549 142.836 30.2231C144.666 30.4219 146.449 30.8653 148.218 31.3393C150.871 32.058 153.554 32.6696 156.1 33.7399C158.189 34.6114 160.308 35.4677 162.381 36.4004C164.074 37.1649 165.583 38.1894 166.681 39.5808H166.711ZM88.2857 72.8373C88.6211 75.345 89.673 77.5315 90.9537 79.6416C91.5026 80.5437 92.0209 81.4458 92.6003 82.3326C93.7285 84.0758 95.0549 85.6507 96.671 86.9351C99.3848 89.091 102.236 91.0176 105.468 92.3631C109.036 93.8463 112.71 94.9472 116.521 95.5588C119.51 96.0328 122.544 95.9869 125.547 95.7576C126.98 95.6506 128.429 95.4824 129.831 95.1613C132.636 94.5038 135.442 93.8157 138.186 92.9595C141.067 92.0573 143.751 90.6965 146.175 88.8158C150.093 85.7424 153.447 82.1186 156.512 78.2043C157.457 76.9963 158.265 75.6966 158.905 74.2899C159.104 73.8618 159.317 73.4337 159.546 72.9902C159.988 72.9902 160.369 72.9902 160.765 72.9902C161.208 72.9902 161.65 72.9902 162.077 72.9444C162.793 72.8373 163.433 72.5774 163.815 71.9199C164.546 70.6967 163.525 69.4735 162.534 69.5805C162.229 69.6111 161.924 69.6722 161.619 69.6875C161.147 69.7181 160.659 69.7793 160.186 69.7487C159.698 69.7181 159.226 69.5958 158.905 69.0759C158.905 68.8313 158.936 68.5255 158.905 68.2349C158.799 67.5775 158.326 67.1187 157.701 66.9964C157.137 66.8894 156.481 67.2105 156.192 67.8068C156.039 68.1126 155.978 68.4643 155.917 68.816C155.78 69.7334 156.146 70.5285 156.618 71.3083C156.085 72.715 155.505 74.0911 154.621 75.2838C151.481 79.5345 147.943 83.403 143.72 86.5987C142.851 87.2561 141.921 87.8372 140.93 88.3112C139.116 89.198 137.271 89.9625 135.304 90.4365C133.444 90.88 131.615 91.4916 129.74 91.9044C127.651 92.3784 125.501 92.4854 123.367 92.5925C120.638 92.7148 117.954 92.5466 115.286 91.9962C109.783 90.8647 104.66 88.9075 100.117 85.4978C98.0889 83.984 96.3661 82.2103 95.0397 80.0697C94.2774 78.8465 93.576 77.5774 92.8137 76.3541C92.2496 75.452 91.8227 74.504 91.4568 73.5101C91.2739 73.0208 91.0909 72.5468 90.9232 72.0728C91.3958 71.4306 91.8685 70.8037 92.3259 70.1615C92.6155 69.7487 92.7223 69.29 92.6765 68.7854C92.6003 67.975 91.9904 67.4246 91.1824 67.4246C90.5573 67.4246 90.0999 67.7304 89.7493 68.2044C89.4901 68.556 89.2614 68.9383 88.987 69.2747C88.7278 69.6111 88.4229 69.6875 88.057 69.5193C87.7063 69.3511 87.3861 69.1065 87.0355 68.923C86.3951 68.6019 85.6786 68.7395 85.2517 69.2594C84.8705 69.7181 84.8248 70.452 85.1907 70.9872C85.3584 71.2319 85.5871 71.4459 85.831 71.6447C86.5476 72.241 87.3709 72.608 88.3161 72.822L88.2857 72.8373ZM108.426 106.094C105.346 105.956 103.394 107.806 102.968 110.192C102.861 110.788 102.922 111.415 102.876 112.027C102.83 112.638 102.785 113.25 102.693 113.846C102.617 114.366 102.495 114.871 102.358 115.375C102.282 115.62 102.16 115.864 101.977 116.033C101.58 116.384 101.153 116.675 100.726 116.981C100.223 117.332 99.6897 117.638 99.2171 118.036C96.8539 120.069 95.8477 122.669 96.2136 125.773C96.427 127.531 97.2656 129.014 98.5005 130.253C99.0799 130.849 99.705 131.399 100.33 131.965C101.108 132.669 101.611 133.509 101.824 134.534C101.916 134.962 102.007 135.39 102.083 135.818C102.358 137.378 102.617 138.922 103.105 140.436C103.989 143.127 105.712 145.069 108.258 146.277C109.478 146.858 110.774 147.271 112.115 147.5C112.939 147.638 113.762 147.806 114.585 147.699C118.854 147.087 121.492 143.035 120.821 139.396C120.653 138.54 120.47 137.684 120.226 136.843C119.936 135.849 119.982 134.931 120.562 134.075C120.958 133.494 121.339 132.913 121.751 132.347C122.269 131.644 122.864 130.987 123.321 130.237C123.87 129.351 124.373 128.418 124.785 127.455C125.303 126.262 125.379 124.977 125.105 123.708C124.617 121.4 123.519 119.442 121.644 117.99C120.912 117.424 120.165 116.889 119.388 116.4C117.68 115.329 116.338 113.938 115.363 112.164C114.981 111.476 114.539 110.819 114.143 110.146C113.548 109.167 112.786 108.311 111.932 107.546C110.88 106.614 109.661 106.079 108.41 106.094H108.426ZM169.791 128.28C168.221 128.204 166.864 128.815 165.69 129.748C162.869 131.996 160.75 134.794 159.271 138.097C158.433 139.977 158.555 141.858 159.119 143.739C159.637 145.436 160.933 146.399 162.702 146.506C163.723 146.567 164.714 146.415 165.659 146.048C167.138 145.482 168.48 144.656 169.669 143.601C170.843 142.561 171.743 141.338 172.078 139.779C172.246 138.983 172.657 138.326 173.206 137.73C173.587 137.317 173.984 136.904 174.319 136.445C175.142 135.344 175.554 134.091 175.249 132.73C174.716 130.299 172.337 128.158 169.791 128.25V128.28ZM123.184 72.7915C123.794 72.715 124.404 72.6539 124.998 72.5315C127.117 72.1034 128.916 71.0637 130.441 69.5346C131.493 68.4796 132.453 67.3481 133.46 66.2472C133.521 66.186 133.566 66.1096 133.612 66.0331C134.207 65.0698 133.673 63.9078 132.56 63.7243C131.92 63.6173 131.34 63.7702 130.868 64.2289C130.471 64.6264 130.106 65.0698 129.724 65.4827C129.13 66.1249 128.566 66.7976 127.941 67.4093C126.767 68.5255 125.379 69.2441 123.763 69.4429C121.995 69.6722 120.607 68.9383 119.586 67.5163C119.327 67.1493 119.189 66.6447 119.113 66.1707C118.961 65.238 119.144 64.3359 119.51 63.4796C120.196 61.8894 121.141 60.4827 122.345 59.2442C123.138 58.4185 123.946 57.6081 125.135 57.3941C125.212 57.3941 125.303 57.3329 125.379 57.3023C125.867 57.0118 126.172 56.599 126.157 56.0179C126.142 55.4522 125.852 55.0241 125.334 54.7641C124.83 54.5042 124.327 54.5348 123.809 54.6724C122.909 54.917 122.101 55.3452 121.354 55.8956C118.808 57.7763 117.116 60.2992 116.125 63.2809C115.607 64.8252 115.652 66.3695 116.14 67.9291C117.024 70.7579 120.638 72.9597 123.184 72.7609V72.7915ZM110.301 54.8253C112.268 54.9476 114.341 54.2901 116.262 53.2045C118.686 51.8437 120.607 49.963 121.598 47.2872C122.04 46.0945 122.361 44.8713 122.681 43.6481C122.925 42.7306 122.193 41.7673 121.248 41.6603C120.379 41.5686 119.677 42.0426 119.403 42.9906C119.205 43.6633 119.052 44.3514 118.9 45.0242C118.519 46.7214 117.604 48.0517 116.323 49.1985C115.286 50.1159 114.097 50.7275 112.801 51.1556C107.968 52.7611 103.638 49.9477 102.251 46.6603C102.205 46.5379 102.144 46.4156 102.068 46.3086C101.702 45.7581 101.047 45.4982 100.482 45.6664C99.8879 45.8499 99.4153 46.385 99.4153 47.0119C99.4153 47.3942 99.4915 47.7917 99.644 48.1587C100.132 49.3514 100.803 50.4217 101.687 51.3391C103.959 53.6938 106.718 54.9018 110.286 54.8253H110.301ZM135.259 50.5899C137.469 50.544 139.36 49.9171 141.174 48.9844C143.309 47.8988 144.879 46.2627 145.992 44.1221C146.754 42.6542 147.105 41.0793 147.379 39.4891C147.532 38.6328 146.968 37.8683 146.205 37.6848C145.352 37.486 144.635 37.8377 144.3 38.6634C144.178 38.9386 144.132 39.2444 144.056 39.5502C143.888 40.1924 143.766 40.8346 143.568 41.4615C143.11 42.853 142.394 44.1373 141.235 45.0548C138.201 47.4401 134.862 47.9599 131.28 46.4156C129.633 45.697 128.444 44.5655 128.078 42.7C127.925 41.9202 127.27 41.4462 126.584 41.5074C125.837 41.5839 125.212 42.2108 125.196 43.0059C125.196 43.3422 125.242 43.7092 125.334 44.0456C125.913 46.2168 127.133 47.9141 129.13 48.9997C131.081 50.07 133.201 50.5134 135.259 50.6052V50.5899Z" fill="#92C6EA"/>
<path d="M189.931 124.274C189.839 124.045 189.733 123.815 189.657 123.601C189.55 123.311 189.443 123.02 189.352 122.73C188.62 120.421 186.958 119.121 184.686 118.555C183.711 118.311 182.72 118.158 181.713 118.081C180.921 118.02 180.539 117.623 180.341 116.919C180.128 116.201 179.96 115.467 179.701 114.779C179.045 113.097 177.81 112.026 176.027 111.766C175.219 111.644 174.365 111.705 173.557 111.858C172.093 112.118 170.66 112.516 169.227 112.852C168.846 112.944 168.465 113.005 168.068 113.051C167.946 113.051 167.824 112.99 167.641 112.944C167.595 112.363 167.687 111.812 167.885 111.292C168.297 110.237 168.647 109.136 169.12 108.112C170.218 105.773 171.392 103.464 172.855 101.323C173.419 100.497 173.968 99.6412 174.487 98.7849C175.767 96.629 175.706 94.4578 174.548 92.2865C174.106 91.4456 173.45 90.8186 172.657 90.3141C172.444 90.1764 172.215 90.0235 171.971 89.9318C171.453 89.7177 171.255 89.3202 171.224 88.8003C171.194 88.4945 171.163 88.1887 171.163 87.8829C171.178 86.201 170.919 84.5649 170.37 82.9747C169.959 81.782 170.081 80.6659 170.538 79.5191C170.95 78.4946 171.498 77.5466 172.185 76.6904C172.672 76.0635 173.176 75.4671 173.679 74.8555C176.926 70.9259 177.704 66.507 176.27 61.6599C175.92 60.4673 175.401 59.3664 174.715 58.3419C174.426 57.8985 174.136 57.4551 173.801 57.0575C172.505 55.4979 171.803 53.6784 171.453 51.7059C170.919 48.6784 170.401 45.6662 169.898 42.6387C169.882 42.5164 169.928 42.3941 169.943 42.1953C170.126 42.2871 170.294 42.3176 170.431 42.4247C171.788 43.4644 173.13 44.5042 174.487 45.5592C177.551 47.9445 180.204 50.712 182.293 54.0148C183.787 56.3848 185.311 58.7395 186.531 61.2777C187.08 62.4245 187.659 63.5559 188.269 64.6721C189.946 67.7149 191.181 70.9412 192.172 74.2745C193.041 77.2255 193.864 80.1613 194.352 83.204C194.474 83.9839 194.566 84.7637 194.627 85.5588C194.871 88.4486 195.16 91.3232 195.313 94.2131C195.404 96.0021 195.359 97.8063 195.267 99.5953C195.13 102.271 194.932 104.932 194.581 107.592C194.078 111.247 193.239 114.825 192.264 118.372C191.837 119.886 191.318 121.384 190.815 122.867C190.647 123.357 190.404 123.831 190.205 124.305H189.946L189.931 124.274Z" fill="#5AA445"/>
<path d="M105.773 158.433C108.182 159.06 110.484 159.503 112.618 160.314C112.847 160.726 112.618 160.986 112.496 161.246C110.27 166.109 107.816 170.864 104.706 175.237C103.333 177.163 101.961 179.09 100.513 180.955C99.6286 182.102 98.6224 183.142 97.6314 184.197C97.1892 184.671 96.6251 185.038 96.1068 185.436C95.6037 185.833 95.0548 185.818 94.5212 185.481C94.1553 185.252 93.7894 184.992 93.4387 184.747C86.7152 179.931 80.007 175.099 73.2377 170.313C68.0845 166.674 63.1753 162.714 58.2661 158.754C55.6438 156.644 53.0519 154.473 50.2924 152.531C49.8655 152.225 49.4539 151.904 49.0575 151.552C46.5266 149.32 43.7976 147.332 41.099 145.314C40.6417 144.977 40.23 144.58 39.8031 144.197C38.3548 142.928 36.5405 143.479 36.0374 145.344C35.9764 145.558 35.9459 145.772 35.9154 145.986C35.7019 147.057 35.4733 148.127 35.2903 149.213C34.6195 153.035 33.4608 156.705 31.9819 160.268C31.2044 162.133 30.4878 164.014 29.6493 165.849C28.9327 167.393 28.1247 168.907 27.2556 170.375C26.1274 172.286 24.5876 173.845 22.7276 175.053C22.2549 175.359 21.7671 175.634 21.1725 175.711C18.8551 176.017 17.5591 174.839 16.7968 172.806C16.5834 172.24 16.5224 171.613 16.4919 171.001C16.3547 169.06 16.5529 167.148 16.8578 165.237C17.7116 159.855 19.6021 154.824 22.1177 150.023C23.5508 147.271 25.1517 144.595 26.7373 141.919C28.9175 138.234 31.7837 135.1 34.8177 132.088C34.9396 131.965 35.0921 131.889 35.2903 131.736C36.7234 132.898 38.1413 134.06 39.5897 135.191C42.7151 137.668 45.8253 140.146 48.9813 142.577C53.2197 145.834 57.4733 149.06 61.7269 152.286C61.8947 152.424 62.0776 152.546 62.2453 152.699C66.0568 156.139 70.3257 158.999 74.3812 162.133C74.6556 162.347 74.93 162.561 75.2197 162.76C78.6501 165.023 81.928 167.515 85.2668 169.916C86.4103 170.742 87.5537 171.537 88.6667 172.378C90.0541 173.417 91.5635 174.167 93.1948 174.686C93.5302 174.793 93.8656 174.87 94.2163 174.916C95.1463 175.023 95.9391 174.732 96.5337 173.983C96.7014 173.769 96.8538 173.555 96.9911 173.341C98.6376 170.803 100.299 168.28 101.946 165.742C103.105 163.937 104.126 162.041 104.965 160.069C105.178 159.549 105.468 159.06 105.803 158.418L105.773 158.433Z" fill="#92C6EA"/>
<path d="M229.555 174.885C206.534 168.922 183.558 162.974 160.369 156.965C160.735 156.751 160.872 156.674 161.009 156.598C162.976 155.558 164.958 154.549 166.909 153.463C167.519 153.127 168.022 153.02 168.739 153.219C177.216 155.466 185.708 157.668 194.2 159.885C203.408 162.286 212.617 164.702 221.81 167.102C222.192 167.209 222.573 167.316 222.954 167.393C224.097 167.622 224.936 166.98 225.012 165.818C225.027 165.558 225.012 165.298 225.012 165.023C224.982 162.393 224.921 159.763 224.951 157.133C224.997 152.791 225.896 148.601 227.406 144.549C228.61 141.307 230.455 138.448 232.803 135.91C234.251 134.35 235.928 133.097 237.88 132.256C239.023 131.766 240.212 131.537 241.447 131.934C242.164 132.164 242.804 132.516 243.384 133.005C244.268 133.754 244.939 134.671 245.427 135.711C246.082 137.072 246.463 138.494 246.646 139.992C246.753 140.849 246.57 141.659 246.28 142.439C245.701 143.999 245.137 145.573 244.466 147.087C242.011 152.668 239.237 158.081 236.126 163.326C234.419 166.185 232.742 169.059 231.065 171.934C230.668 172.607 230.348 173.341 229.982 174.044C229.845 174.304 229.708 174.579 229.54 174.885H229.555Z" fill="#92C6EA"/>
<path d="M62.2149 78.036L60.5074 84.0757C60.2329 83.9687 59.989 83.9228 59.7908 83.8005C58.3119 82.9443 56.955 81.9198 55.6896 80.7424C49.3015 74.7792 45.0784 67.5469 42.9897 59.0454C41.3888 52.5623 40.8095 46.0028 41.2821 39.3362C41.4498 36.9662 41.5565 34.6114 41.6785 32.2414C41.7395 31.2781 41.8309 30.3301 42.1206 29.3974C42.4408 28.3271 42.1206 27.899 41.0534 27.3791C38.7817 26.2629 36.5101 25.1314 34.2842 23.9082C33.0187 23.2048 31.9363 22.2263 31.0063 21.0948C29.07 18.7401 28.9176 16.1713 30.1372 13.4649C30.2287 13.2661 30.3507 13.0826 30.4726 12.8991C30.7013 12.5322 31.0367 12.364 31.4789 12.4251C32.3022 12.5475 33.1102 12.7615 33.8573 13.1438C34.3299 13.3884 34.6806 13.7554 34.9245 14.2447C35.4734 15.3456 36.0375 16.4312 36.632 17.5015C36.8455 17.8838 37.0894 18.2508 37.3944 18.5566C37.9585 19.107 38.8427 19.1529 39.4373 18.7095C40.1234 18.2049 40.3063 17.4098 39.8795 16.6147C39.2391 15.4068 38.5835 14.2294 37.9585 13.0215C37.5011 12.1652 37.2419 11.2478 37.1047 10.2692C36.8912 8.81661 37.2114 7.48635 37.7907 6.18667C37.867 6.03376 37.9585 5.88086 38.0499 5.72796C38.7817 4.67292 39.6355 4.44357 40.779 5.03989C41.8614 5.62092 42.8219 6.40073 43.6147 7.34873C44.2246 8.08267 44.5295 8.92364 44.5143 9.90222C44.4838 11.1713 44.5143 12.4404 44.499 13.7248C44.499 14.1682 44.5143 14.5964 44.8344 14.9633C45.2308 15.4373 45.7492 15.6514 46.359 15.5291C47.0603 15.3762 47.5177 14.9327 47.7007 14.2294C47.7769 13.893 47.7769 13.526 47.7769 13.1897C47.7769 12.0123 47.7617 10.8196 47.7769 9.64229C47.7922 8.1897 48.0513 6.7677 48.6002 5.40686C49.0271 4.35182 49.8046 3.72492 50.8719 3.38853C51.2225 3.2815 51.5427 3.2815 51.8933 3.35795C52.8691 3.6026 53.6924 4.12247 54.2717 4.91757C55.6591 6.84415 56.5129 8.96951 56.3757 11.4007C56.3452 11.8594 56.1927 12.2264 55.9335 12.5933C55.156 13.7095 54.4242 14.8563 53.7229 16.0031C53.4789 16.4006 53.2807 16.8593 53.1588 17.3333C52.9148 18.2813 53.5247 19.2293 54.4394 19.4587C55.3085 19.6728 56.1775 19.1529 56.4367 18.2202C56.8941 16.5535 57.885 15.2233 59.0437 14.0306C60.0195 13.0215 61.2392 12.471 62.7028 12.5933C63.4498 12.6545 63.9377 13.0215 64.1969 13.6942C64.4104 14.2753 64.5781 14.8869 64.4408 15.4985C63.5718 19.6575 61.8338 23.2966 58.19 25.7736C56.9398 26.6299 55.5371 27.1039 54.0583 27.3638C53.2807 27.5014 52.4879 27.4097 51.7256 27.1497C50.2315 26.6452 49.3777 27.1497 49.1033 28.6941C48.9204 29.6879 48.7832 30.6818 48.6154 31.6757C48.28 33.6634 47.8531 35.6359 47.6549 37.6389C47.411 40.0548 47.4263 42.4554 47.5635 44.8713C47.7007 47.2719 47.8836 49.6877 48.2648 52.073C49.0271 56.9201 50.3687 61.5683 52.6556 65.9261C54.104 68.6936 55.7049 71.3542 57.5954 73.8312C58.7998 75.4214 60.1872 76.7975 61.9557 77.7608C62.032 77.8067 62.0777 77.8831 62.2454 78.036H62.2149Z" fill="#92C6EA"/>
<path d="M196.944 79.2439C196.426 77.3326 195.892 75.3908 195.359 73.3877C195.542 73.296 195.725 73.1737 195.923 73.0972C198.179 72.1798 200.176 70.8648 201.991 69.244C205.467 66.1401 208.592 62.7151 211.093 58.7549C211.763 57.6845 212.465 56.6142 213.166 55.5592C215.88 51.5684 217.725 47.1953 218.868 42.5012C219.234 40.9722 219.646 39.4431 220.042 37.9141C220.316 36.8591 220.149 36.3851 219.264 35.7887C218.609 35.3606 217.969 34.9172 217.282 34.5502C215.819 33.7551 214.508 32.7307 213.318 31.5533C211.55 29.7949 210.62 27.5931 210.041 25.2231C209.888 24.5656 209.919 23.8164 210.025 23.1283C210.239 21.7216 211.123 20.7736 212.373 20.162C212.8 19.9632 213.212 20.0244 213.639 20.2232C214.37 20.5748 214.935 21.1253 215.392 21.7675C216.032 22.6543 216.627 23.5717 217.252 24.4739C217.511 24.8256 217.77 25.1925 218.106 25.4677C218.609 25.8806 219.203 25.957 219.829 25.6665C220.865 25.1619 221.155 23.8776 220.347 23.0213C219.493 22.1192 218.96 21.003 218.182 20.055C217.953 19.7644 217.862 19.4433 217.938 19.0764C218.487 16.4159 219.569 14.0611 221.887 12.4862C222.527 12.0581 223.259 11.7064 224.006 11.4618C225.043 11.1254 225.653 11.4312 226.14 12.4251C226.826 13.8012 227.009 15.2844 226.689 16.7828C226.476 17.7614 226.156 18.7247 225.881 19.688C225.759 20.1467 225.592 20.6207 225.546 21.0947C225.454 22.165 226.217 22.9907 227.253 22.9907C228.122 22.9907 228.793 22.4861 228.869 21.5993C228.93 20.8806 229.159 20.2385 229.342 19.5657C229.586 18.633 229.83 17.7003 229.998 16.7522C230.135 16.0183 230.47 15.4526 231.05 15.0091C232.041 14.2599 233.108 13.6483 234.282 13.3272C235.791 12.8991 236.508 13.266 236.935 14.8257C237.361 16.37 237.301 17.9602 236.706 19.4739C236.249 20.636 235.547 21.6299 234.678 22.5167C234.19 23.0213 233.687 23.5106 233.215 24.0305C232.818 24.4586 232.559 24.9785 232.681 25.5901C232.803 26.1864 233.138 26.6604 233.718 26.8439C234.389 27.0579 235.029 26.9509 235.532 26.4005C236.355 25.4983 237.24 24.6268 237.971 23.6482C238.49 22.9754 239.008 22.3791 239.847 22.1497C239.969 22.1192 240.091 22.0427 240.182 22.0121C241.203 22.0733 241.874 22.7002 242.499 23.3883C243.048 23.9999 243.262 24.7491 243.338 25.5595C243.582 28.6023 242.408 30.9264 239.786 32.5013C238.84 33.0671 237.819 33.4646 236.736 33.6634C235.837 33.8469 234.922 33.9233 234.007 34.0151C232.62 34.168 231.233 34.3056 229.83 34.4432C229.357 34.4891 228.869 34.5349 228.397 34.5502C227.543 34.5961 226.948 34.9783 226.476 35.697C226.034 36.3698 225.668 37.0578 225.592 37.8529C225.378 39.963 224.784 41.9813 224.204 43.9997C223.472 46.6143 222.756 49.229 221.993 51.8436C221.124 54.8099 219.722 57.5316 217.969 60.0698C214.919 64.4887 211.489 68.5866 207.464 72.1339C204.796 74.4886 201.914 76.5528 198.835 78.3112C198.271 78.6323 197.691 78.9381 197.127 79.2439C197.097 79.2592 197.036 79.2439 196.944 79.2133V79.2439Z" fill="#92C6EA"/>
<path d="M71.7741 128.739C70.8441 127.195 69.9751 125.773 69.289 124.259C68.4963 122.546 67.7492 120.818 67.0784 119.06C65.9349 116.078 64.8524 113.066 64.0292 109.962C62.8705 105.559 62.4283 101.079 62.5655 96.5374C62.6418 93.8616 62.7637 91.1858 63.1296 88.5406C63.587 85.0849 64.4713 81.7516 65.5843 78.4642C67.0936 73.9994 69.0756 69.764 71.7894 65.8955C71.9571 65.6509 72.1401 65.391 72.323 65.131C73.1615 65.0546 73.9086 65.3145 74.5794 65.712C74.8539 65.8802 75.0825 66.2013 75.2502 66.4919C75.9973 67.7304 76.0126 69.0759 75.7076 70.4368C75.4637 71.553 75.0368 72.608 74.4879 73.6172C74.0915 74.3511 73.6647 75.0698 73.2683 75.8037C72.6889 76.8893 72.1858 78.0055 71.8809 79.1981C71.2863 81.4764 71.6674 83.6323 72.7346 85.6813C73.0853 86.3387 73.5274 86.9351 73.9086 87.5773C74.244 88.143 74.5794 88.7087 74.8843 89.2898C75.3722 90.2378 75.6314 91.2469 75.6162 92.3326C75.6162 92.9442 75.6162 93.5558 75.6162 94.1827C75.6162 95.5741 75.9363 96.8738 76.6071 98.097C76.8968 98.6322 77.2017 99.1673 77.5067 99.7025C78.8178 101.904 79.1227 104.32 78.8788 106.813C78.7264 108.296 78.4062 109.748 77.9336 111.17C76.8663 114.412 75.7991 117.669 74.4117 120.803C73.4665 122.929 72.7194 125.13 72.3383 127.439C72.262 127.852 72.2315 128.311 71.7589 128.754L71.7741 128.739Z" fill="#5AA445"/>
<path d="M3.7616 282.667C3.82258 282.346 3.82258 282.208 3.88356 282.101C5.78932 277.621 7.90852 273.248 10.2717 268.997C13.3971 263.371 17.4373 258.508 22.4228 254.456C23.7492 253.386 25.0908 252.331 26.5087 251.368C28.5059 250.007 30.6404 248.921 33.0035 248.294C34.1165 248.004 35.2447 247.943 36.3881 247.973C38.0957 248.034 39.7575 248.417 41.4498 248.692C42.2731 248.829 43.0812 248.967 43.9044 249.074C45.0936 249.227 46.2676 249.043 47.411 248.768C49.4235 248.279 51.314 247.484 53.0673 246.398C54.6376 245.435 55.8421 244.151 56.7111 242.514C57.9613 240.129 58.9218 237.652 59.5316 235.038C60.0957 232.652 60.5684 230.236 61.1172 227.851C61.5136 226.139 61.9862 224.457 62.7181 222.851C64.4866 218.937 67.3224 216.169 71.4388 214.854C73.5123 214.181 75.6315 214.013 77.7812 214.243C79.8394 214.457 81.8061 215.038 83.6814 215.894C84.3979 216.215 85.1298 216.506 85.8463 216.827C89.0023 218.249 92.2039 218.188 95.4361 217.117C97.1436 216.551 98.7292 215.71 100.269 214.778C102.983 213.142 105.483 211.246 107.877 209.182C109.6 207.698 111.292 206.169 112.969 204.625C116.445 201.414 119.936 198.218 123.626 195.252C126.477 192.974 129.557 191.047 132.987 189.763C135.701 188.738 138.506 188.111 141.449 188.264C142.958 188.341 144.376 188.677 145.748 189.319C147.273 190.023 148.645 190.955 149.864 192.087C151.45 193.555 152.853 195.16 154.179 196.858C157.747 201.475 160.415 206.567 162.473 212.026C163.83 215.634 165.263 219.212 166.666 222.805C167.458 224.808 168.373 226.735 169.517 228.57C170.599 230.298 171.91 231.811 173.557 233.019C175.066 234.135 176.728 234.854 178.588 235.099C180.097 235.282 181.576 235.068 182.964 234.502C184.046 234.059 185.083 233.478 186.104 232.897C187.537 232.071 188.925 231.138 190.373 230.313C192.325 229.197 194.368 228.34 196.594 227.927C197.722 227.713 198.865 227.683 199.993 227.851C201.518 228.096 202.783 228.875 203.774 230.053C204.476 230.879 205.116 231.781 205.711 232.698C206.58 234.074 207.525 235.374 208.562 236.643C210.147 238.585 212.099 240.022 214.401 241.001C216.048 241.689 217.709 242.362 219.356 243.065C220.362 243.493 221.338 243.982 222.329 244.441C226.522 246.444 229.967 249.365 232.803 253.034C233.733 254.242 234.648 255.496 235.486 256.765C238.353 261.092 241.646 265.052 245.35 268.692C248.567 271.857 251.769 275.037 255.23 277.942C256.236 278.783 257.242 279.624 258.249 280.48C258.477 280.679 258.66 280.909 258.965 281.214C258.645 281.306 258.462 281.413 258.279 281.413C257.578 281.444 256.876 281.444 256.175 281.459C248.079 281.49 239.984 281.52 231.888 281.551C214.645 281.627 197.402 281.734 180.174 281.811C173.572 281.841 166.955 281.857 160.354 281.887C142.806 281.979 125.257 282.071 107.709 282.147C91.1214 282.239 74.549 282.315 57.9613 282.407C40.5046 282.499 23.0478 282.591 5.59112 282.667C5.02702 282.667 4.46292 282.667 3.77684 282.652L3.7616 282.667ZM211.794 274.028C211.138 274.043 210.498 274.334 210.102 274.701C209.141 275.649 209.385 277.071 210.62 277.606C211.016 277.774 211.443 277.912 211.855 278.019C212.571 278.187 213.425 277.682 213.623 276.994C213.852 276.214 213.318 274.716 212.617 274.318C212.327 274.15 211.962 274.089 211.779 274.028H211.794ZM143.781 204.304C142.577 204.258 141.799 205.313 142.196 206.338C142.318 206.659 142.485 206.98 142.684 207.255C143.476 208.371 145.108 208.356 145.9 207.224C146.266 206.704 146.312 205.955 145.916 205.512C145.321 204.839 144.559 204.442 143.781 204.289V204.304ZM242.088 277.621C242.682 277.621 243.445 277.3 243.826 276.872C244.329 276.306 244.359 275.419 243.841 274.838C243.551 274.517 243.201 274.227 242.835 274.013C241.905 273.462 240.883 273.829 240.517 274.854C240.395 275.175 240.35 275.542 240.335 275.878C240.335 276.857 241.082 277.591 242.073 277.621H242.088ZM23.0174 261.52C23.6424 261.551 24.1151 261.26 24.4657 260.771C24.6944 260.45 24.8774 260.098 25.0603 259.747C25.5634 258.799 24.9993 257.851 24.0388 257.621C22.4837 257.254 21.0354 258.768 21.4623 260.312C21.6452 261.001 22.2855 261.49 23.0021 261.52H23.0174ZM228.382 274.808C228.412 273.432 226.903 272.422 225.79 272.973C225.088 273.325 224.631 273.906 224.479 274.685C224.326 275.511 224.951 276.398 225.775 276.536C226.506 276.658 227.909 275.985 228.229 275.328C228.321 275.144 228.351 274.915 228.382 274.808ZM144.589 194.656C143.629 194.671 142.79 195.543 142.79 196.552C142.79 197.546 143.507 198.31 144.483 198.341C145.626 198.387 146.587 197.637 146.632 196.674C146.632 196.628 146.632 196.582 146.632 196.536C146.632 195.818 145.535 194.549 144.589 194.656ZM148.797 202.408C148.828 203.356 149.361 204.075 150.154 204.289C150.84 204.472 151.663 204.105 152.029 203.402C152.212 203.065 152.319 202.668 152.395 202.286C152.517 201.659 152.273 201.169 151.755 200.818C151.115 200.374 150.444 200.42 149.788 200.818C149.133 201.2 148.812 201.796 148.797 202.408ZM233.718 266.505C234.892 266.505 235.852 265.71 235.913 264.67C235.959 263.722 235.166 262.866 234.221 262.851C233.169 262.835 232.117 263.783 232.086 264.777C232.056 265.679 232.833 266.49 233.718 266.49V266.505ZM219.264 264.701C219.264 264.701 219.036 264.716 218.883 264.777C218.151 265.022 217.389 266.169 217.42 266.948C217.45 267.759 218.289 268.478 219.036 268.263C219.524 268.126 220.042 267.912 220.438 267.606C221.277 266.979 221.368 265.848 220.698 265.205C220.332 264.869 219.905 264.67 219.264 264.701ZM24.42 267.025C23.4442 266.979 22.621 267.682 22.5142 268.63C22.4075 269.548 23.2156 270.588 24.1151 270.74C24.8621 270.863 25.3957 270.603 25.7007 269.9C25.8379 269.578 25.9598 269.242 25.9903 268.906C26.0971 267.927 25.3652 267.071 24.42 267.025ZM35.9308 266.964C35.9308 265.985 35.1837 265.221 34.208 265.205C33.1712 265.205 32.3479 266.016 32.3632 267.01C32.3784 267.973 33.2475 268.86 34.1927 268.89C35.077 268.921 35.9155 267.973 35.9308 266.964ZM33.7658 257.667C33.7811 256.413 33.0493 255.695 32.1955 255.771C31.174 255.878 30.1982 257.056 30.305 258.095C30.4117 259.242 31.6771 259.9 32.6529 259.288C33.3542 258.845 33.7658 258.187 33.7811 257.667H33.7658ZM153.356 210.711C152.395 210.695 151.481 211.567 151.45 212.515C151.435 213.417 152.38 214.304 153.371 214.289C154.21 214.289 154.972 213.478 155.018 212.545C155.063 211.597 154.286 210.726 153.356 210.711ZM29.9848 274.594C29.1005 274.594 28.3382 275.251 28.2925 276.077C28.2467 276.994 29.2377 278.065 30.1677 278.08C31.1435 278.095 31.8906 277.254 31.8906 276.153C31.8906 275.251 31.0978 274.594 29.9848 274.578V274.594ZM18.1234 269.884C18.1234 269.685 18.1234 269.563 18.1234 269.426C18.0319 268.707 17.6507 268.218 16.9494 267.988C16.4006 267.805 15.7297 268.019 15.3029 268.523C14.876 269.028 14.754 269.609 15.0132 270.236C15.1961 270.695 15.5163 271.062 15.9432 271.306C16.858 271.826 17.8489 271.367 18.0624 270.343C18.0929 270.175 18.1081 269.991 18.1234 269.884ZM20.4103 274.594C19.5717 274.609 18.9619 275.266 18.9772 276.123C18.9772 277.254 19.6937 278.08 20.639 278.095C21.5537 278.095 22.2246 277.392 22.2398 276.413C22.2703 275.343 21.2488 274.563 20.4103 274.594ZM13.9612 273.615C13.3971 273.615 13.0159 273.875 12.772 274.318C12.4214 274.93 12.4366 275.572 12.6958 276.199C13.0007 276.887 13.641 277.193 14.4033 277.055C15.0437 276.948 15.5163 276.398 15.5773 275.695C15.6383 275.052 15.4096 274.502 14.9827 274.028C14.7083 273.722 14.3424 273.6 13.9612 273.63V273.615Z" fill="#848383"/>
<path d="M9.95145 57.3481C7.0547 53.816 7.66454 54.4429 3.85303 52.3634C4.56959 50.9261 5.36239 49.5194 5.95698 48.0363C6.53633 46.599 6.90224 45.0699 7.40536 43.4797C9.49406 45.7733 12.0402 47.3482 14.8149 48.7396C13.7782 50.131 12.528 51.2778 11.8267 52.7763C11.1406 54.2442 10.5918 55.7579 9.95145 57.3328V57.3481Z" fill="#FEDA00"/>
<path d="M234.465 76.2471C235.715 77.6997 236.904 78.9229 238.337 79.8556C239.709 80.7577 241.112 81.614 242.499 82.4855C241.417 83.5559 240.365 84.5803 239.343 85.6506C238.352 86.6904 237.712 87.9748 236.95 89.3815C236.249 87.7301 235.593 86.3234 234.465 85.1766C233.367 84.0604 232.041 83.3571 230.425 83.0207C231.294 81.8892 232.071 80.9259 232.803 79.9015C233.55 78.877 233.977 77.6691 234.45 76.2471H234.465Z" fill="#FEDA00"/>
<path d="M207.952 197.148C208.531 196.322 209.309 195.94 210.147 195.695C210.437 195.619 210.757 195.634 211.062 195.68C211.626 195.756 212.038 196.077 212.205 196.613C212.358 197.087 212.114 197.469 211.794 197.79C211.199 198.371 210.269 198.83 209.324 198.172C208.867 197.851 208.424 197.515 207.952 197.148Z" fill="white"/>
<path d="M200.237 199.059C200.634 198.233 201.137 197.698 201.96 197.53C202.067 197.5 202.235 197.545 202.296 197.622C202.357 197.698 202.402 197.897 202.341 197.958C201.853 198.646 201.198 199.044 200.222 199.059H200.237Z" fill="white"/>
<path d="M260.627 251.23C261.115 250.741 261.664 250.603 262.228 250.588C262.624 250.588 263.005 250.679 263.219 251.077C263.386 251.383 263.371 251.811 263.158 252.056C262.899 252.346 262.365 252.484 261.969 252.346C261.633 252.224 261.222 251.903 260.627 251.23Z" fill="white"/>
<path d="M255.032 251.597C254.605 252.392 254.208 252.866 253.69 253.095C253.507 253.187 253.278 253.233 253.065 253.218C252.623 253.218 252.394 252.713 252.638 252.361C252.79 252.163 252.973 251.949 253.187 251.826C253.751 251.49 254.361 251.352 255.032 251.582V251.597Z" fill="white"/>
<path d="M29.8932 234.747C30.1981 234.12 30.686 233.845 31.2196 233.676C31.8142 233.493 32.4698 234.181 32.2716 234.777C32.2106 234.946 31.9971 235.144 31.8142 235.175C31.1586 235.313 30.5183 235.297 29.8932 234.731V234.747Z" fill="white"/>
<path d="M25.472 236.857C25.472 237.652 25.1976 238.31 24.7402 238.891C24.6335 239.028 24.4048 239.074 24.1913 239.181C23.8864 238.493 24.0236 237.927 24.3743 237.407C24.603 237.056 24.9231 236.765 25.4873 236.842L25.472 236.857Z" fill="white"/>
<path d="M67.3376 196.567C67.795 196.154 68.0999 195.848 68.4354 195.588C68.6336 195.435 68.8927 195.328 69.1367 195.237C69.4721 195.114 69.7618 195.221 69.9295 195.497C70.0819 195.741 70.021 196.078 69.716 196.307C69.4416 196.506 69.1214 196.674 68.8013 196.766C68.3896 196.903 67.9627 196.842 67.3376 196.552V196.567Z" fill="white"/>
<path d="M63.1601 198.325C63.0839 199.09 62.8552 199.625 62.5655 200.145C62.3978 200.451 62.0929 200.527 61.8032 200.39C61.4525 200.221 61.3611 199.854 61.5593 199.518C61.8794 198.983 62.1844 198.753 63.1753 198.31L63.1601 198.325Z" fill="white"/>
<path d="M88.2856 72.8372C87.3403 72.6231 86.517 72.2409 85.8005 71.6599C85.5718 71.4611 85.3278 71.247 85.1601 71.0024C84.7942 70.4672 84.84 69.7486 85.2211 69.2746C85.648 68.7547 86.3493 68.6171 87.0049 68.9382C87.3556 69.1217 87.6757 69.3663 88.0264 69.5345C88.3923 69.7027 88.6972 69.6262 88.9564 69.2898C89.2156 68.9382 89.4443 68.5712 89.7187 68.2195C90.0846 67.7455 90.5267 67.4244 91.1518 67.4397C91.9446 67.4397 92.5545 67.9902 92.646 68.8006C92.6917 69.3051 92.585 69.7639 92.2953 70.1767C91.8379 70.8189 91.3653 71.4458 90.8927 72.088C91.0604 72.5467 91.2433 73.036 91.4263 73.5253C91.7922 74.5192 92.2191 75.4671 92.7832 76.3693C93.5455 77.5925 94.2468 78.8616 95.0091 80.0848C96.3355 82.2255 98.0583 83.9992 100.086 85.5129C104.629 88.9074 109.752 90.8798 115.256 92.0113C117.924 92.5618 120.607 92.73 123.336 92.6076C125.486 92.5006 127.62 92.3936 129.709 91.9196C131.584 91.5067 133.414 90.8951 135.274 90.4517C137.241 89.9777 139.085 89.2132 140.9 88.3263C141.891 87.8523 142.805 87.2713 143.69 86.6138C147.913 83.4181 151.45 79.5497 154.591 75.299C155.475 74.091 156.07 72.7149 156.588 71.3235C156.115 70.5437 155.749 69.7486 155.887 68.8311C155.932 68.4948 156.009 68.1431 156.161 67.822C156.451 67.2257 157.106 66.9046 157.67 67.0116C158.295 67.1339 158.768 67.5926 158.875 68.2501C158.921 68.5406 158.875 68.8464 158.875 69.0911C159.21 69.6109 159.683 69.7333 160.155 69.7639C160.628 69.7944 161.116 69.7333 161.589 69.7027C161.894 69.6874 162.198 69.6262 162.503 69.5957C163.494 69.5039 164.516 70.7119 163.784 71.9351C163.388 72.5926 162.747 72.8525 162.046 72.9595C161.619 73.0207 161.177 73.0054 160.735 73.0054C160.338 73.0054 159.957 73.0054 159.515 73.0054C159.286 73.4641 159.073 73.877 158.875 74.3051C158.234 75.7118 157.442 77.0115 156.481 78.2194C153.417 82.1338 150.078 85.7576 146.144 88.8309C143.735 90.7269 141.052 92.0725 138.155 92.9746C135.411 93.8309 132.606 94.5189 129.801 95.1764C128.398 95.4975 126.95 95.6657 125.516 95.7727C122.498 95.9868 119.479 96.048 116.491 95.574C112.679 94.9624 109.005 93.8614 105.437 92.3783C102.205 91.0327 99.3542 89.1062 96.6404 86.9502C95.0091 85.6658 93.6979 84.0756 92.5697 82.3478C91.9904 81.461 91.472 80.5588 90.9231 79.6567C89.6425 77.5466 88.5905 75.3448 88.2551 72.8525L88.2856 72.8372Z" fill="black"/>
<path d="M108.426 106.094C109.676 106.079 110.896 106.598 111.948 107.546C112.801 108.311 113.564 109.152 114.158 110.146C114.57 110.819 115.012 111.476 115.378 112.164C116.354 113.938 117.695 115.329 119.403 116.4C120.18 116.889 120.927 117.424 121.659 117.99C123.535 119.458 124.632 121.4 125.12 123.708C125.395 124.993 125.303 126.262 124.8 127.455C124.388 128.418 123.885 129.351 123.336 130.237C122.879 130.987 122.284 131.629 121.766 132.347C121.354 132.913 120.958 133.494 120.577 134.075C119.997 134.931 119.952 135.864 120.241 136.843C120.485 137.684 120.668 138.54 120.836 139.396C121.522 143.051 118.884 147.103 114.6 147.699C113.762 147.821 112.954 147.638 112.13 147.5C110.789 147.271 109.493 146.858 108.273 146.277C105.742 145.054 104.004 143.127 103.12 140.436C102.632 138.922 102.373 137.378 102.099 135.818C102.022 135.39 101.916 134.962 101.839 134.534C101.626 133.509 101.123 132.669 100.345 131.965C99.7202 131.415 99.1103 130.849 98.5157 130.253C97.2808 128.999 96.4423 127.531 96.2288 125.773C95.8477 122.669 96.8692 120.085 99.2323 118.036C99.6897 117.638 100.239 117.332 100.742 116.981C101.169 116.675 101.595 116.369 101.992 116.033C102.175 115.864 102.312 115.62 102.373 115.375C102.525 114.871 102.632 114.366 102.708 113.846C102.8 113.234 102.846 112.638 102.891 112.027C102.937 111.415 102.861 110.788 102.983 110.192C103.41 107.806 105.361 105.956 108.441 106.094H108.426ZM114.082 144.427C114.341 144.366 114.936 144.32 115.424 144.06C116.826 143.311 117.695 142.149 117.619 140.467C117.589 139.901 117.512 139.335 117.39 138.785C117.268 138.188 117.085 137.592 116.933 136.996C116.628 135.757 116.72 134.565 117.268 133.402C117.711 132.439 118.244 131.537 118.9 130.711C119.449 130.023 119.982 129.335 120.501 128.632C121.049 127.883 121.476 127.088 121.796 126.201C122.04 125.513 122.071 124.84 121.888 124.137C121.492 122.485 120.623 121.17 119.22 120.207C118.427 119.656 117.634 119.121 116.841 118.571C115.317 117.516 114.036 116.201 113.06 114.611C112.542 113.754 112.054 112.868 111.475 112.042C111.002 111.369 110.469 110.727 109.889 110.131C109.6 109.825 109.188 109.565 108.792 109.442C107.74 109.106 106.337 109.397 106.139 110.956C106.032 111.782 105.864 112.592 106.154 113.418C106.276 113.77 106.276 114.228 106.124 114.565C105.88 115.13 105.803 115.742 105.605 116.308C105.407 116.874 105.087 117.439 104.69 117.883C104.172 118.464 103.532 118.953 102.922 119.442C102.51 119.763 102.053 120.039 101.611 120.329C100.208 121.231 99.6135 122.623 99.4 124.198C99.2171 125.589 99.7049 126.797 100.635 127.806C101.169 128.387 101.748 128.922 102.343 129.442C103.76 130.665 104.645 132.179 105.026 133.999C105.178 134.733 105.285 135.467 105.453 136.185C105.712 137.332 105.925 138.509 106.276 139.626C106.733 141.109 107.679 142.24 109.02 143.02C110.484 143.861 112.054 144.335 114.051 144.442L114.082 144.427Z" fill="black"/>
<path d="M169.791 128.28C172.322 128.188 174.716 130.329 175.249 132.76C175.554 134.106 175.142 135.375 174.319 136.476C173.984 136.935 173.587 137.347 173.206 137.76C172.657 138.357 172.246 138.999 172.078 139.809C171.743 141.384 170.843 142.592 169.669 143.632C168.48 144.687 167.138 145.497 165.659 146.078C164.714 146.445 163.723 146.598 162.702 146.537C160.933 146.43 159.637 145.451 159.119 143.769C158.539 141.889 158.433 140.008 159.271 138.127C160.735 134.824 162.854 132.026 165.69 129.779C166.879 128.831 168.221 128.234 169.791 128.311V128.28ZM161.726 140.604C161.802 140.849 161.878 141.094 161.939 141.353C162 141.613 162.061 141.873 162.107 142.118C162.351 143.295 162.656 143.479 163.83 143.219C163.952 143.188 164.074 143.127 164.196 143.097C165.644 142.638 166.879 141.827 167.931 140.757C168.404 140.283 168.724 139.717 168.861 139.06C169.181 137.607 169.944 136.399 170.98 135.344C171.255 135.069 171.514 134.763 171.743 134.442C172.108 133.876 172.093 133.295 171.697 132.73C170.935 131.613 169.852 131.277 168.617 131.797C168.343 131.919 168.068 132.072 167.824 132.256C165.568 133.769 162.549 137.913 161.726 140.635V140.604Z" fill="black"/>
<path d="M123.199 72.7914C120.653 72.9902 117.04 70.7731 116.155 67.9597C115.667 66.4001 115.622 64.8557 116.14 63.3114C117.146 60.3298 118.823 57.8069 121.369 55.9262C122.117 55.3757 122.909 54.9323 123.824 54.7029C124.342 54.5653 124.846 54.55 125.349 54.7947C125.867 55.0546 126.157 55.4827 126.172 56.0485C126.187 56.6295 125.867 57.0424 125.394 57.3329C125.318 57.3787 125.242 57.4246 125.15 57.4246C123.946 57.6387 123.153 58.4491 122.36 59.2747C121.171 60.5133 120.211 61.92 119.525 63.5102C119.159 64.3817 118.976 65.2839 119.128 66.2013C119.205 66.66 119.342 67.1646 119.601 67.5468C120.622 68.9688 122.01 69.7028 123.778 69.4734C125.394 69.2593 126.782 68.556 127.956 67.4398C128.581 66.8282 129.145 66.1554 129.74 65.5132C130.121 65.1004 130.487 64.657 130.883 64.2594C131.34 63.8007 131.935 63.6478 132.575 63.7548C133.688 63.9383 134.207 65.1004 133.627 66.0637C133.582 66.1401 133.536 66.2166 133.475 66.2777C132.469 67.3786 131.508 68.5101 130.456 69.5652C128.947 71.0942 127.132 72.1339 125.013 72.5621C124.419 72.6844 123.809 72.7303 123.199 72.822V72.7914Z" fill="black"/>
<path d="M110.316 54.8253C106.749 54.8865 103.989 53.6939 101.717 51.3391C100.833 50.4217 100.147 49.3361 99.6744 48.1587C99.5372 47.8071 99.4457 47.3942 99.4457 47.012C99.4457 46.3851 99.9031 45.8499 100.513 45.6664C101.077 45.4982 101.733 45.7582 102.098 46.3086C102.175 46.4156 102.22 46.538 102.281 46.6603C103.669 49.9477 107.999 52.7611 112.832 51.1557C114.128 50.7275 115.317 50.1159 116.354 49.1985C117.634 48.067 118.549 46.7215 118.93 45.0242C119.083 44.3362 119.235 43.6634 119.433 42.9906C119.723 42.0579 120.424 41.5686 121.278 41.6603C122.223 41.7674 122.955 42.7154 122.711 43.6481C122.391 44.8713 122.056 46.1098 121.629 47.2872C120.638 49.9477 118.717 51.8437 116.293 53.2046C114.372 54.2902 112.283 54.9324 110.331 54.8253H110.316Z" fill="black"/>
<path d="M135.274 50.5899C133.231 50.4981 131.112 50.0547 129.145 48.9844C127.148 47.8988 125.928 46.2015 125.349 44.0303C125.257 43.6939 125.196 43.3422 125.212 42.9906C125.242 42.1955 125.852 41.5686 126.599 41.4921C127.285 41.431 127.941 41.8897 128.093 42.6848C128.459 44.5502 129.633 45.6817 131.295 46.4003C134.878 47.9446 138.216 47.4248 141.25 45.0395C142.409 44.1221 143.126 42.853 143.583 41.4462C143.781 40.8193 143.903 40.1771 144.071 39.535C144.147 39.2444 144.193 38.9386 144.315 38.6481C144.666 37.8224 145.367 37.4708 146.221 37.6695C146.983 37.853 147.532 38.6175 147.395 39.4738C147.12 41.064 146.769 42.6389 146.007 44.1068C144.909 46.2321 143.324 47.8682 141.189 48.9691C139.375 49.9018 137.5 50.5287 135.274 50.5746V50.5899Z" fill="black"/>
<path d="M211.809 274.012C211.992 274.074 212.358 274.135 212.648 274.303C213.349 274.701 213.898 276.199 213.654 276.979C213.456 277.652 212.602 278.156 211.885 278.003C211.458 277.911 211.047 277.774 210.65 277.59C209.415 277.04 209.171 275.618 210.132 274.685C210.513 274.303 211.153 274.028 211.824 274.012H211.809Z" fill="black"/>
<path d="M143.796 204.304C144.574 204.457 145.336 204.854 145.931 205.527C146.327 205.97 146.282 206.704 145.916 207.239C145.123 208.371 143.492 208.386 142.699 207.27C142.501 206.995 142.333 206.674 142.211 206.353C141.814 205.313 142.592 204.273 143.796 204.319V204.304Z" fill="black"/>
<path d="M242.103 277.621C241.127 277.606 240.365 276.856 240.365 275.878C240.365 275.542 240.426 275.175 240.548 274.853C240.914 273.829 241.935 273.447 242.865 274.012C243.231 274.227 243.582 274.517 243.871 274.838C244.39 275.419 244.359 276.291 243.856 276.872C243.475 277.3 242.698 277.636 242.118 277.621H242.103Z" fill="black"/>
<path d="M23.0477 261.505C22.3311 261.474 21.6908 260.985 21.5079 260.297C21.081 258.753 22.5293 257.239 24.0844 257.606C25.0449 257.835 25.609 258.783 25.1059 259.731C24.923 260.083 24.74 260.435 24.5113 260.756C24.1607 261.23 23.688 261.535 23.0629 261.505H23.0477Z" fill="black"/>
<path d="M228.412 274.808C228.382 274.915 228.351 275.129 228.26 275.328C227.924 275.985 226.537 276.658 225.805 276.535C224.982 276.398 224.357 275.511 224.509 274.685C224.662 273.906 225.119 273.325 225.82 272.973C226.948 272.422 228.443 273.432 228.412 274.808Z" fill="black"/>
<path d="M144.604 194.656C145.565 194.548 146.663 195.818 146.647 196.536C146.647 196.582 146.647 196.628 146.647 196.674C146.602 197.637 145.641 198.386 144.498 198.34C143.507 198.31 142.79 197.545 142.805 196.552C142.805 195.542 143.644 194.671 144.604 194.656Z" fill="black"/>
<path d="M148.812 202.408C148.828 201.781 149.148 201.2 149.803 200.818C150.459 200.435 151.13 200.389 151.77 200.818C152.273 201.169 152.532 201.659 152.41 202.285C152.334 202.668 152.212 203.05 152.045 203.402C151.679 204.105 150.855 204.472 150.169 204.288C149.392 204.074 148.843 203.371 148.812 202.408Z" fill="black"/>
<path d="M233.748 266.505C232.864 266.505 232.086 265.679 232.117 264.792C232.147 263.798 233.199 262.85 234.251 262.866C235.197 262.866 235.989 263.737 235.944 264.685C235.898 265.725 234.922 266.535 233.748 266.52V266.505Z" fill="black"/>
<path d="M219.295 264.701C219.935 264.67 220.362 264.869 220.728 265.205C221.414 265.848 221.307 266.979 220.469 267.606C220.057 267.912 219.554 268.126 219.066 268.263C218.319 268.478 217.481 267.744 217.45 266.949C217.42 266.169 218.182 265.037 218.914 264.777C219.081 264.716 219.249 264.716 219.295 264.701Z" fill="black"/>
<path d="M24.4352 267.04C25.3804 267.086 26.1122 267.942 26.0055 268.921C25.975 269.257 25.8531 269.609 25.7158 269.915C25.3957 270.618 24.8621 270.878 24.1303 270.756C23.2307 270.603 22.4379 269.563 22.5294 268.645C22.6361 267.697 23.4594 266.994 24.4352 267.04Z" fill="black"/>
<path d="M35.9612 266.979C35.9612 267.988 35.1074 268.936 34.2232 268.905C33.2779 268.875 32.4089 267.988 32.3936 267.025C32.3784 266.031 33.2017 265.22 34.2384 265.22C35.2142 265.22 35.9765 265.985 35.9612 266.979Z" fill="black"/>
<path d="M33.7815 257.682C33.7815 258.202 33.3546 258.86 32.6533 259.303C31.6775 259.915 30.4121 259.272 30.3054 258.11C30.2139 257.071 31.1744 255.878 32.1959 255.786C33.0497 255.695 33.7815 256.428 33.7662 257.682H33.7815Z" fill="black"/>
<path d="M153.371 210.71C154.301 210.726 155.094 211.597 155.033 212.545C154.987 213.493 154.225 214.288 153.386 214.288C152.38 214.288 151.435 213.417 151.465 212.515C151.48 211.567 152.41 210.695 153.371 210.71Z" fill="black"/>
<path d="M30 274.594C31.0977 274.594 31.8905 275.251 31.9057 276.168C31.9057 277.254 31.1587 278.11 30.1829 278.095C29.2529 278.095 28.2619 277.009 28.3077 276.092C28.3534 275.266 29.1157 274.593 30 274.609V274.594Z" fill="black"/>
<path d="M18.1386 269.899C18.1386 270.006 18.1233 270.19 18.0776 270.358C17.8794 271.383 16.8731 271.826 15.9584 271.321C15.5162 271.077 15.2113 270.71 15.0284 270.251C14.7692 269.624 14.8759 269.043 15.318 268.539C15.7449 268.034 16.4157 267.835 16.9646 268.003C17.6659 268.233 18.0471 268.722 18.1386 269.441C18.1538 269.563 18.1386 269.701 18.1386 269.899Z" fill="black"/>
<path d="M20.4408 274.609C21.2794 274.578 22.3008 275.358 22.2703 276.428C22.2399 277.392 21.5843 278.126 20.6695 278.11C19.7243 278.11 19.0229 277.269 19.0077 276.138C19.0077 275.282 19.6023 274.624 20.4408 274.609Z" fill="black"/>
<path d="M13.9916 273.63C14.3728 273.599 14.7387 273.737 15.0131 274.028C15.44 274.486 15.6687 275.052 15.6077 275.694C15.5467 276.413 15.0741 276.948 14.4338 277.055C13.6715 277.177 13.0159 276.887 12.7262 276.199C12.4518 275.572 12.4518 274.93 12.8025 274.318C13.0464 273.875 13.4428 273.615 13.9916 273.615V273.63Z" fill="black"/>
<path d="M114.082 144.427C112.085 144.32 110.514 143.846 109.051 143.005C107.709 142.225 106.764 141.093 106.306 139.61C105.956 138.479 105.742 137.317 105.483 136.17C105.315 135.436 105.209 134.702 105.056 133.983C104.675 132.164 103.791 130.635 102.373 129.427C101.778 128.907 101.199 128.372 100.665 127.791C99.7354 126.782 99.2475 125.574 99.4305 124.182C99.6439 122.607 100.239 121.231 101.641 120.314C102.083 120.023 102.541 119.763 102.952 119.427C103.562 118.938 104.202 118.448 104.721 117.867C105.117 117.424 105.437 116.858 105.636 116.292C105.834 115.727 105.925 115.115 106.154 114.549C106.291 114.213 106.291 113.739 106.184 113.402C105.895 112.562 106.063 111.751 106.169 110.941C106.383 109.381 107.785 109.091 108.822 109.427C109.218 109.549 109.63 109.809 109.92 110.115C110.484 110.711 111.033 111.354 111.505 112.026C112.085 112.852 112.557 113.739 113.091 114.595C114.067 116.185 115.332 117.5 116.872 118.555C117.665 119.106 118.458 119.641 119.25 120.191C120.638 121.155 121.507 122.47 121.918 124.121C122.086 124.824 122.071 125.497 121.827 126.185C121.522 127.057 121.08 127.867 120.531 128.616C120.013 129.32 119.464 130.008 118.93 130.696C118.275 131.522 117.741 132.424 117.299 133.387C116.75 134.549 116.659 135.742 116.963 136.98C117.116 137.577 117.299 138.158 117.421 138.769C117.528 139.32 117.619 139.885 117.65 140.451C117.726 142.133 116.872 143.295 115.454 144.044C114.981 144.304 114.387 144.35 114.112 144.411L114.082 144.427Z" fill="#5AA445"/>
<path d="M161.741 140.604C162.58 137.882 165.583 133.739 167.84 132.225C168.099 132.057 168.358 131.889 168.632 131.766C169.867 131.246 170.965 131.598 171.712 132.699C172.108 133.28 172.124 133.846 171.758 134.411C171.544 134.733 171.27 135.038 170.995 135.314C169.959 136.369 169.196 137.577 168.876 139.029C168.724 139.702 168.404 140.252 167.946 140.726C166.894 141.812 165.659 142.607 164.211 143.066C164.089 143.112 163.967 143.158 163.845 143.188C162.671 143.448 162.366 143.265 162.122 142.087C162.061 141.827 162.016 141.567 161.955 141.323C161.894 141.063 161.802 140.818 161.741 140.573V140.604Z" fill="#5AA445"/>
</svg>
