<svg width="295" height="24" viewBox="0 0 295 24" fill="none" xmlns="http://www.w3.org/2000/svg">
<path fill-rule="evenodd" clip-rule="evenodd" d="M0.0263846 19.6417C-0.832485 13.0237 19.4696 0.314428 32.7841 10.9701C36.9395 14.7778 37.7225 19.4069 45.7058 22.4223C48.8515 23.5441 53.0925 22.8953 54.657 20.9597C60.1902 15.0624 60.5466 8.199 71.4735 3.22765C78.4293 0.225215 90.3167 1.14514 93.7702 4.9503C98.5381 9.51492 100.182 14.79 106.873 18.9597C111.146 16.3109 111.877 12.8304 114.877 9.89114C118.065 3.82695 137.319 -5.17935 149.929 3.77246C155.58 8.47617 156.84 14.0314 163.237 18.5577C169.851 15.0407 177.983 1.54535 188.726 1.03104C202.491 -0.172079 205.08 5.69862 208.188 9.41175C210.025 10.6183 214.222 18.9017 217.231 18.1665C225.579 12.1736 241.305 -5.37464 263.533 4.39505C269.615 8.28239 272.353 13.0414 276.956 17.2582C287.757 16.2722 288.61 11.0777 291.295 7.67074C291.566 7.20963 290.64 5.94077 294.161 6.50184C294.562 6.56577 295.035 6.8314 294.998 6.98634C293.683 11.2244 292.152 18.0129 279.483 19.3811C275.498 19.238 270.904 18.5743 269.506 16.863C264.983 12.3865 265.574 6.49873 255.119 3.27733C243.44 2.36864 236.269 8.23502 232.1 11.6069C227.209 14.7558 224.743 23.2096 211.415 19.0646C199.238 15.2198 206.228 7.915 196.835 3.25766C186.388 -1.07274 180.067 11.5785 175.844 13.91C173.675 15.8669 171.655 17.8562 169.105 19.7409C167.213 21.1386 158.975 20.9559 156.758 19.307C149.882 14.2701 148.782 8.37712 143.726 3.12329C140.302 -0.162345 134.746 0.881016 129.75 2.83527C118.742 7.16216 119.822 13.5453 113.62 18.7612C110.639 20.8781 100.763 20.7732 99.0631 18.193C94.9181 15.1164 91.0032 -1.80049 76.2924 3.52831C60.6736 7.86222 67.6429 27.9517 42.3462 23.308C31.6582 20.5733 33.1193 14.3142 28.0154 10.1967C16.8615 1.76231 -0.395493 15.9829 3.01824 20.533C3.084 21.5273 5.48454 22.4383 4.68242 23.4587C4.03727 23.3782 2.94161 23.3533 2.81698 23.2085C1.68552 21.8937 0.723504 20.5579 0.0263846 19.6417Z" fill="#35572F"/>
</svg>
